<svg width="563" height="537" viewBox="0 0 563 537" fill="none" xmlns="http://www.w3.org/2000/svg">
<path d="M0 16C0 7.16345 7.16344 0 16 0H563V537H16C7.16345 537 0 529.837 0 521V16Z" fill="#F4FFE5"/>
<mask id="path-2-outside-1_437_60" maskUnits="userSpaceOnUse" x="166.778" y="58.0201" width="294.471" height="320.268" fill="black">
<rect fill="white" x="166.778" y="58.0201" width="294.471" height="320.268"/>
<path d="M309.173 98.4253C319.144 90.0564 335.695 86.0002 342.336 98.1666C347.649 107.9 329.627 128.523 319.952 137.617C320.822 137.319 323.269 137.591 326.089 141.06C328.908 144.529 327.3 147.159 326.143 148.042C345.989 156.033 389.585 180.451 405.209 214.193C418.299 242.463 417.626 265.547 417.114 283.073C416.863 291.695 416.65 298.972 418.135 304.86C422.638 322.717 428.061 346.676 414.609 356.381C405.116 363.23 394.462 360.527 385.947 358.366C382.394 357.464 379.214 356.657 376.645 356.677C373.519 356.702 370.961 357.674 367.461 359.003C361.189 361.385 351.895 364.914 330.899 366.199C298.185 368.199 282.906 367.446 266.734 364.081C258.658 362.4 250.681 359.414 244.121 356.958C237.544 354.495 232.391 352.566 229.991 353.021C229.074 353.195 227.744 353.868 226.029 354.737C218.78 358.407 204.632 365.569 185.482 353.368C174.406 345.035 179.175 334.414 187.087 316.79C189.836 310.666 192.965 303.697 195.941 295.683C202.241 278.722 203.389 270.577 204.866 260.098C206.095 251.38 207.551 241.047 212.391 222.678C222.483 184.375 253.983 166.103 274.574 154.159C278.196 152.058 281.481 150.152 284.252 148.368C281.073 143.506 282.873 139.361 284.17 137.896C277.719 131.4 264.45 116.056 262.98 106.641C261.142 94.8731 279.477 95.6024 286.482 98.6022C292.087 101.002 297.042 109.721 298.82 113.78C298.947 111.451 301.196 105.12 309.173 98.4253ZM178.6 95.2638C179.449 93.5332 181.541 92.8184 183.272 93.6667C185.931 94.9706 189.8 97.4941 193.062 100.979C196.307 104.446 199.287 109.232 199.332 114.992C199.388 122.167 194.908 127.121 191.654 131.047C188.175 135.245 185.553 138.751 185.593 143.9C185.627 148.29 188.534 150.639 193.589 153.531C195.891 154.848 198.79 156.361 201.117 158.152C203.533 160.012 205.819 162.514 206.633 166.123C207.708 170.887 207.075 175.558 205.956 179.351C204.839 183.137 203.168 186.286 201.87 188.133C200.762 189.71 198.584 190.091 197.007 188.982C195.429 187.874 195.049 185.696 196.157 184.119C197.018 182.894 198.358 180.433 199.26 177.375C200.16 174.322 200.555 170.912 199.822 167.66C199.506 166.26 198.598 165.023 196.858 163.684C195.028 162.276 192.806 161.127 190.122 159.592C185.206 156.78 178.679 152.655 178.611 143.955C178.549 136.015 182.841 130.738 186.279 126.592C189.941 122.173 192.382 119.217 192.35 115.047C192.324 111.731 190.587 108.552 187.965 105.752C185.36 102.97 182.211 100.922 180.197 99.935C178.467 99.086 177.752 96.9947 178.6 95.2638ZM433.527 92.5246C435.036 91.3248 437.233 91.5754 438.433 93.0841C439.871 94.8919 442.051 98.0011 444.07 101.62C446.071 105.207 448.045 109.524 448.874 113.701C449.536 117.035 448.633 120.149 447.302 122.807C445.981 125.445 444.073 127.957 442.279 130.194C440.396 132.543 438.685 134.539 437.307 136.525C435.913 138.533 435.272 139.981 435.163 141.031C435.057 142.062 435.342 143.322 436.179 144.985C437.023 146.665 438.239 148.399 439.653 150.401C440.996 152.304 442.539 154.476 443.661 156.708C444.791 158.957 445.682 161.616 445.383 164.515C444.682 171.304 442.36 177.104 441.175 179.347C440.274 181.051 438.162 181.702 436.458 180.801C434.754 179.9 434.101 177.788 435.002 176.084C435.824 174.528 437.84 169.588 438.438 163.799C438.544 162.768 438.26 161.508 437.423 159.845C436.579 158.165 435.362 156.431 433.948 154.429C432.605 152.526 431.062 150.353 429.94 148.121C428.81 145.872 427.919 143.213 428.218 140.314C428.516 137.433 430.025 134.772 431.571 132.544C433.133 130.293 435.151 127.923 436.833 125.826C438.604 123.617 440.098 121.602 441.06 119.682C442.011 117.781 442.272 116.303 442.025 115.062C441.401 111.919 439.823 108.336 437.973 105.022C436.143 101.74 434.174 98.9467 432.968 97.4295C431.768 95.9206 432.019 93.7246 433.527 92.5246ZM405.397 68.8966C407.063 67.9272 409.201 68.4923 410.17 70.1583C411.14 71.8247 410.575 73.9623 408.909 74.9319C405.612 76.8503 399.057 83.3656 400.314 93.3794C400.735 96.7286 401.521 98.9847 402.382 100.632C403.246 102.283 404.263 103.477 405.4 104.698C406.457 105.834 407.957 107.311 409.05 109.113C410.248 111.088 410.967 113.396 410.991 116.395C411.041 122.825 406.749 127.224 403.517 130.611C399.966 134.333 397.105 137.348 396.283 141.633C395.552 145.441 397.261 147.88 400.394 152.588C403.44 157.165 407.046 163.045 406.623 172.471C406.537 174.397 404.905 175.889 402.979 175.803C401.053 175.716 399.562 174.084 399.648 172.158C399.969 164.997 397.385 160.669 394.581 156.455C391.864 152.372 388.06 147.435 389.426 140.317C390.7 133.676 395.2 129.215 398.466 125.792C402.052 122.035 404.033 119.621 404.009 116.45C403.995 114.65 403.596 113.585 403.081 112.736C402.462 111.716 401.652 110.919 400.29 109.456C399.007 108.078 397.491 106.345 396.196 103.868C394.898 101.387 393.896 98.3103 393.386 94.2489C391.666 80.5472 400.585 71.6964 405.397 68.8966ZM229.147 111.91C230.711 110.784 232.893 111.139 234.019 112.703C235.146 114.268 234.791 116.45 233.226 117.577C231.752 118.638 229.767 120.443 228.189 122.668C226.599 124.908 225.612 127.3 225.63 129.624C225.65 132.24 227.317 134.261 230.32 137.749C233.011 140.875 236.66 145.131 236.709 151.357C236.775 159.932 232.14 167.288 231.362 169.278C230.66 171.074 228.635 171.96 226.839 171.258C225.044 170.556 224.157 168.531 224.859 166.735C226.363 162.889 229.779 158.196 229.726 151.412C229.7 148.039 227.842 145.572 225.028 142.304C222.527 139.399 218.692 135.352 218.647 129.678C218.614 125.37 220.415 121.557 222.494 118.627C224.584 115.682 227.149 113.349 229.147 111.91Z"/>
</mask>
<path d="M309.173 98.4253C319.144 90.0564 335.695 86.0002 342.336 98.1666C347.649 107.9 329.627 128.523 319.952 137.617C320.822 137.319 323.269 137.591 326.089 141.06C328.908 144.529 327.3 147.159 326.143 148.042C345.989 156.033 389.585 180.451 405.209 214.193C418.299 242.463 417.626 265.547 417.114 283.073C416.863 291.695 416.65 298.972 418.135 304.86C422.638 322.717 428.061 346.676 414.609 356.381C405.116 363.23 394.462 360.527 385.947 358.366C382.394 357.464 379.214 356.657 376.645 356.677C373.519 356.702 370.961 357.674 367.461 359.003C361.189 361.385 351.895 364.914 330.899 366.199C298.185 368.199 282.906 367.446 266.734 364.081C258.658 362.4 250.681 359.414 244.121 356.958C237.544 354.495 232.391 352.566 229.991 353.021C229.074 353.195 227.744 353.868 226.029 354.737C218.78 358.407 204.632 365.569 185.482 353.368C174.406 345.035 179.175 334.414 187.087 316.79C189.836 310.666 192.965 303.697 195.941 295.683C202.241 278.722 203.389 270.577 204.866 260.098C206.095 251.38 207.551 241.047 212.391 222.678C222.483 184.375 253.983 166.103 274.574 154.159C278.196 152.058 281.481 150.152 284.252 148.368C281.073 143.506 282.873 139.361 284.17 137.896C277.719 131.4 264.45 116.056 262.98 106.641C261.142 94.8731 279.477 95.6024 286.482 98.6022C292.087 101.002 297.042 109.721 298.82 113.78C298.947 111.451 301.196 105.12 309.173 98.4253ZM178.6 95.2638C179.449 93.5332 181.541 92.8184 183.272 93.6667C185.931 94.9706 189.8 97.4941 193.062 100.979C196.307 104.446 199.287 109.232 199.332 114.992C199.388 122.167 194.908 127.121 191.654 131.047C188.175 135.245 185.553 138.751 185.593 143.9C185.627 148.29 188.534 150.639 193.589 153.531C195.891 154.848 198.79 156.361 201.117 158.152C203.533 160.012 205.819 162.514 206.633 166.123C207.708 170.887 207.075 175.558 205.956 179.351C204.839 183.137 203.168 186.286 201.87 188.133C200.762 189.71 198.584 190.091 197.007 188.982C195.429 187.874 195.049 185.696 196.157 184.119C197.018 182.894 198.358 180.433 199.26 177.375C200.16 174.322 200.555 170.912 199.822 167.66C199.506 166.26 198.598 165.023 196.858 163.684C195.028 162.276 192.806 161.127 190.122 159.592C185.206 156.78 178.679 152.655 178.611 143.955C178.549 136.015 182.841 130.738 186.279 126.592C189.941 122.173 192.382 119.217 192.35 115.047C192.324 111.731 190.587 108.552 187.965 105.752C185.36 102.97 182.211 100.922 180.197 99.935C178.467 99.086 177.752 96.9947 178.6 95.2638ZM433.527 92.5246C435.036 91.3248 437.233 91.5754 438.433 93.0841C439.871 94.8919 442.051 98.0011 444.07 101.62C446.071 105.207 448.045 109.524 448.874 113.701C449.536 117.035 448.633 120.149 447.302 122.807C445.981 125.445 444.073 127.957 442.279 130.194C440.396 132.543 438.685 134.539 437.307 136.525C435.913 138.533 435.272 139.981 435.163 141.031C435.057 142.062 435.342 143.322 436.179 144.985C437.023 146.665 438.239 148.399 439.653 150.401C440.996 152.304 442.539 154.476 443.661 156.708C444.791 158.957 445.682 161.616 445.383 164.515C444.682 171.304 442.36 177.104 441.175 179.347C440.274 181.051 438.162 181.702 436.458 180.801C434.754 179.9 434.101 177.788 435.002 176.084C435.824 174.528 437.84 169.588 438.438 163.799C438.544 162.768 438.26 161.508 437.423 159.845C436.579 158.165 435.362 156.431 433.948 154.429C432.605 152.526 431.062 150.353 429.94 148.121C428.81 145.872 427.919 143.213 428.218 140.314C428.516 137.433 430.025 134.772 431.571 132.544C433.133 130.293 435.151 127.923 436.833 125.826C438.604 123.617 440.098 121.602 441.06 119.682C442.011 117.781 442.272 116.303 442.025 115.062C441.401 111.919 439.823 108.336 437.973 105.022C436.143 101.74 434.174 98.9467 432.968 97.4295C431.768 95.9206 432.019 93.7246 433.527 92.5246ZM405.397 68.8966C407.063 67.9272 409.201 68.4923 410.17 70.1583C411.14 71.8247 410.575 73.9623 408.909 74.9319C405.612 76.8503 399.057 83.3656 400.314 93.3794C400.735 96.7286 401.521 98.9847 402.382 100.632C403.246 102.283 404.263 103.477 405.4 104.698C406.457 105.834 407.957 107.311 409.05 109.113C410.248 111.088 410.967 113.396 410.991 116.395C411.041 122.825 406.749 127.224 403.517 130.611C399.966 134.333 397.105 137.348 396.283 141.633C395.552 145.441 397.261 147.88 400.394 152.588C403.44 157.165 407.046 163.045 406.623 172.471C406.537 174.397 404.905 175.889 402.979 175.803C401.053 175.716 399.562 174.084 399.648 172.158C399.969 164.997 397.385 160.669 394.581 156.455C391.864 152.372 388.06 147.435 389.426 140.317C390.7 133.676 395.2 129.215 398.466 125.792C402.052 122.035 404.033 119.621 404.009 116.45C403.995 114.65 403.596 113.585 403.081 112.736C402.462 111.716 401.652 110.919 400.29 109.456C399.007 108.078 397.491 106.345 396.196 103.868C394.898 101.387 393.896 98.3103 393.386 94.2489C391.666 80.5472 400.585 71.6964 405.397 68.8966ZM229.147 111.91C230.711 110.784 232.893 111.139 234.019 112.703C235.146 114.268 234.791 116.45 233.226 117.577C231.752 118.638 229.767 120.443 228.189 122.668C226.599 124.908 225.612 127.3 225.63 129.624C225.65 132.24 227.317 134.261 230.32 137.749C233.011 140.875 236.66 145.131 236.709 151.357C236.775 159.932 232.14 167.288 231.362 169.278C230.66 171.074 228.635 171.96 226.839 171.258C225.044 170.556 224.157 168.531 224.859 166.735C226.363 162.889 229.779 158.196 229.726 151.412C229.7 148.039 227.842 145.572 225.028 142.304C222.527 139.399 218.692 135.352 218.647 129.678C218.614 125.37 220.415 121.557 222.494 118.627C224.584 115.682 227.149 113.349 229.147 111.91Z" fill="#D0DBFF"/>
<path d="M309.173 98.4253L302.983 91.05L302.983 91.05L309.173 98.4253ZM342.336 98.1666L350.788 93.5538L350.788 93.5535L342.336 98.1666ZM319.952 137.617L313.357 130.601C310.052 133.707 309.363 138.698 311.703 142.584C314.043 146.469 318.776 148.195 323.068 146.727L319.952 137.617ZM326.089 141.06L333.561 134.987L333.56 134.987L326.089 141.06ZM326.143 148.042L320.305 140.385C317.552 142.484 316.138 145.9 316.602 149.331C317.065 152.762 319.335 155.68 322.547 156.973L326.143 148.042ZM405.209 214.193L413.946 210.147L413.946 210.147L405.209 214.193ZM417.114 283.073L426.739 283.354L426.739 283.354L417.114 283.073ZM418.135 304.86L408.798 307.215L408.798 307.215L418.135 304.86ZM414.609 356.381L420.242 364.19L420.242 364.19L414.609 356.381ZM385.947 358.366L383.578 367.699L383.578 367.699L385.947 358.366ZM376.645 356.677L376.57 347.049L376.57 347.049L376.645 356.677ZM367.461 359.003L364.042 350.002L364.042 350.002L367.461 359.003ZM330.899 366.199L331.486 375.809L331.486 375.809L330.899 366.199ZM266.734 364.081L264.772 373.507L264.772 373.507L266.734 364.081ZM244.121 356.958L240.745 365.975L240.745 365.975L244.121 356.958ZM229.991 353.021L228.196 343.561L228.195 343.562L229.991 353.021ZM226.029 354.737L230.378 363.327L230.378 363.327L226.029 354.737ZM185.482 353.368L179.692 361.062C179.892 361.212 180.097 361.355 180.308 361.489L185.482 353.368ZM187.087 316.79L195.871 320.734L195.871 320.734L187.087 316.79ZM195.941 295.683L204.967 299.036L204.967 299.036L195.941 295.683ZM204.866 260.098L214.4 261.442L214.4 261.442L204.866 260.098ZM212.391 222.678L203.08 220.225L203.08 220.225L212.391 222.678ZM274.574 154.159L269.743 145.83L269.743 145.83L274.574 154.159ZM284.252 148.368L289.464 156.464C291.621 155.075 293.135 152.883 293.669 150.374C294.204 147.865 293.715 145.246 292.311 143.099L284.252 148.368ZM284.17 137.896L291.378 144.281C294.746 140.479 294.581 134.715 291.002 131.111L284.17 137.896ZM262.98 106.641L253.466 108.127L253.466 108.127L262.98 106.641ZM286.482 98.6022L290.272 89.751L290.272 89.751L286.482 98.6022ZM298.82 113.78L289.999 117.642C291.788 121.726 296.146 124.049 300.534 123.255C304.922 122.461 308.19 118.758 308.434 114.306L298.82 113.78ZM178.6 95.2638L169.956 91.0233L169.955 91.025L178.6 95.2638ZM183.272 93.6667L187.511 85.0214L187.509 85.0208L183.272 93.6667ZM193.062 100.979L200.091 94.3988L200.091 94.3987L193.062 100.979ZM199.332 114.992L208.96 114.918L208.96 114.917L199.332 114.992ZM191.654 131.047L184.241 124.902L184.241 124.902L191.654 131.047ZM185.593 143.9L175.965 143.975L175.965 143.975L185.593 143.9ZM193.589 153.531L188.809 161.889L188.809 161.889L193.589 153.531ZM201.117 158.152L206.99 150.521L206.99 150.521L201.117 158.152ZM206.633 166.123L216.026 164.005L216.026 164.004L206.633 166.123ZM205.956 179.351L215.191 182.075L215.191 182.075L205.956 179.351ZM201.87 188.133L209.748 193.669L209.749 193.668L201.87 188.133ZM197.007 188.982L191.47 196.86L191.471 196.861L197.007 188.982ZM196.157 184.119L188.278 178.584L188.278 178.584L196.157 184.119ZM199.26 177.375L208.495 180.099L208.495 180.099L199.26 177.375ZM199.822 167.66L209.214 165.541L209.214 165.54L199.822 167.66ZM196.858 163.684L202.731 156.054L202.731 156.054L196.858 163.684ZM190.122 159.592L185.341 167.95L185.341 167.95L190.122 159.592ZM178.611 143.955L168.983 144.029L168.983 144.03L178.611 143.955ZM186.279 126.592L178.865 120.447L178.865 120.447L186.279 126.592ZM192.35 115.047L201.978 114.972L201.978 114.971L192.35 115.047ZM187.965 105.752L194.994 99.1711L194.994 99.171L187.965 105.752ZM180.197 99.935L175.957 108.579L175.959 108.58L180.197 99.935ZM433.527 92.5246L427.534 84.9884L427.533 84.9892L433.527 92.5246ZM438.433 93.0841L445.969 87.091L445.968 87.0898L438.433 93.0841ZM444.07 101.62L452.479 96.9292L452.479 96.9291L444.07 101.62ZM448.874 113.701L458.319 111.826L458.319 111.826L448.874 113.701ZM447.302 122.807L455.911 127.118L455.912 127.118L447.302 122.807ZM442.279 130.194L449.791 136.218L449.791 136.218L442.279 130.194ZM437.307 136.525L429.396 131.036L429.396 131.036L437.307 136.525ZM435.163 141.031L425.586 140.041L425.586 140.043L435.163 141.031ZM436.179 144.985L427.576 149.31L427.576 149.311L436.179 144.985ZM439.653 150.401L431.787 155.955L431.787 155.955L439.653 150.401ZM443.661 156.708L452.263 152.383L452.263 152.383L443.661 156.708ZM445.383 164.515L454.961 165.504L454.961 165.503L445.383 164.515ZM441.175 179.347L449.688 183.846L449.688 183.845L441.175 179.347ZM436.458 180.801L431.958 189.314L431.959 189.314L436.458 180.801ZM435.002 176.084L443.515 180.583L443.515 180.582L435.002 176.084ZM438.438 163.799L448.015 164.788L448.015 164.787L438.438 163.799ZM437.423 159.845L446.026 155.52L446.026 155.519L437.423 159.845ZM433.948 154.429L441.814 148.875L441.814 148.875L433.948 154.429ZM429.94 148.121L421.338 152.446L421.338 152.446L429.94 148.121ZM428.218 140.314L418.64 139.324L418.64 139.325L428.218 140.314ZM431.571 132.544L423.66 127.055L423.66 127.055L431.571 132.544ZM436.833 125.826L444.345 131.85L444.345 131.85L436.833 125.826ZM441.06 119.682L449.669 123.993L449.669 123.992L441.06 119.682ZM442.025 115.062L451.47 113.186L451.47 113.186L442.025 115.062ZM437.973 105.022L446.382 100.33L446.382 100.33L437.973 105.022ZM432.968 97.4295L425.431 103.421L425.432 103.423L432.968 97.4295ZM405.397 68.8966L400.555 60.5741L400.554 60.5742L405.397 68.8966ZM410.17 70.1583L418.493 65.3161L418.492 65.3143L410.17 70.1583ZM408.909 74.9319L413.751 83.2544L413.752 83.254L408.909 74.9319ZM400.314 93.3794L390.76 94.5787L390.761 94.579L400.314 93.3794ZM402.382 100.632L393.85 105.094L393.85 105.095L402.382 100.632ZM405.4 104.698L398.353 111.26L398.353 111.26L405.4 104.698ZM409.05 109.113L417.282 104.119L417.282 104.118L409.05 109.113ZM410.991 116.395L420.619 116.32L420.619 116.32L410.991 116.395ZM403.517 130.611L396.551 123.964L396.551 123.964L403.517 130.611ZM396.283 141.633L386.827 139.818L386.827 139.818L396.283 141.633ZM400.394 152.588L408.41 147.253L408.41 147.253L400.394 152.588ZM406.623 172.471L416.242 172.903L416.242 172.902L406.623 172.471ZM402.979 175.803L402.548 185.421L402.549 185.421L402.979 175.803ZM399.648 172.158L409.267 172.59L409.267 172.589L399.648 172.158ZM394.581 156.455L402.597 151.121L402.597 151.121L394.581 156.455ZM389.426 140.317L379.97 138.502L379.97 138.503L389.426 140.317ZM398.466 125.792L405.432 132.439L405.432 132.439L398.466 125.792ZM404.009 116.45L413.637 116.375L413.637 116.374L404.009 116.45ZM403.081 112.736L411.313 107.742L411.313 107.741L403.081 112.736ZM400.29 109.456L393.243 116.018L393.243 116.018L400.29 109.456ZM396.196 103.868L387.663 108.33L387.664 108.331L396.196 103.868ZM393.386 94.2489L383.832 95.4482L383.833 95.4484L393.386 94.2489ZM229.147 111.91L223.522 104.095L223.52 104.097L229.147 111.91ZM234.019 112.703L241.833 107.077L241.832 107.075L234.019 112.703ZM233.226 117.577L238.853 125.39L238.853 125.39L233.226 117.577ZM228.189 122.668L220.336 117.096L220.336 117.096L228.189 122.668ZM225.63 129.624L216.001 129.698L216.001 129.699L225.63 129.624ZM230.32 137.749L223.023 144.032L223.023 144.032L230.32 137.749ZM236.709 151.357L246.337 151.282L246.337 151.282L236.709 151.357ZM231.362 169.278L240.329 172.786L240.329 172.785L231.362 169.278ZM226.839 171.258L223.331 180.225L223.333 180.226L226.839 171.258ZM224.859 166.735L215.892 163.229L215.892 163.229L224.859 166.735ZM229.726 151.412L239.355 151.337L239.355 151.336L229.726 151.412ZM225.028 142.304L232.325 136.022L232.325 136.022L225.028 142.304ZM218.647 129.678L209.019 129.753L209.019 129.753L218.647 129.678ZM222.494 118.627L214.641 113.055L214.641 113.055L222.494 118.627ZM309.173 98.4253L315.363 105.801C319.135 102.635 323.952 100.525 327.836 100.188C331.298 99.8873 332.855 100.894 333.884 102.78L342.336 98.1666L350.788 93.5535C345.176 83.2729 335.137 80.2245 326.171 81.0027C317.626 81.7443 309.183 85.8468 302.983 91.05L309.173 98.4253ZM342.336 98.1666L333.884 102.78C333.374 101.845 334.024 101.848 333.263 104.244C332.562 106.454 331.057 109.364 328.775 112.758C324.249 119.487 317.858 126.37 313.357 130.601L319.952 137.617L326.546 144.633C331.72 139.769 339.178 131.794 344.754 123.505C347.522 119.39 350.132 114.751 351.617 110.072C353.044 105.58 353.954 99.3555 350.788 93.5538L342.336 98.1666ZM319.952 137.617L323.068 146.727C321.69 147.198 320.576 147.185 319.965 147.126C319.268 147.06 318.765 146.893 318.464 146.762C317.846 146.495 317.978 146.347 318.618 147.134L326.089 141.06L333.56 134.987C329.585 130.097 323.253 126.311 316.836 128.506L319.952 137.617ZM326.089 141.06L318.617 147.133C318.663 147.19 318.428 146.916 318.238 146.293C318.04 145.642 317.964 144.84 318.102 143.984C318.355 142.418 319.209 141.22 320.305 140.385L326.143 148.042L331.981 155.698C334.234 153.981 336.471 151.027 337.112 147.057C337.819 142.688 336.387 138.464 333.561 134.987L326.089 141.06ZM326.143 148.042L322.547 156.973C331.765 160.685 346.904 168.4 361.54 179.207C376.288 190.096 389.634 203.473 396.471 218.238L405.209 214.193L413.946 210.147C405.159 191.171 388.896 175.467 372.978 163.715C356.949 151.879 340.368 143.389 329.74 139.11L326.143 148.042ZM405.209 214.193L396.471 218.238C408.564 244.355 407.994 265.513 407.49 282.793L417.114 283.073L426.739 283.354C427.257 265.581 428.033 240.57 413.946 210.147L405.209 214.193ZM417.114 283.073L407.49 282.793C407.252 290.945 406.915 299.745 408.798 307.215L418.135 304.86L427.471 302.506C426.385 298.2 426.473 292.445 426.739 283.354L417.114 283.073ZM418.135 304.86L408.798 307.215C411.076 316.244 413.273 325.708 413.479 333.919C413.692 342.377 411.743 346.576 408.975 348.573L414.609 356.381L420.242 364.19C430.926 356.482 432.992 343.848 432.731 333.436C432.463 322.777 429.697 311.333 427.471 302.506L418.135 304.86ZM414.609 356.381L408.975 348.573C403.626 352.432 397.511 351.366 388.315 349.033L385.947 358.366L383.578 367.699C391.414 369.687 406.606 374.028 420.242 364.19L414.609 356.381ZM385.947 358.366L388.315 349.033C385.217 348.247 380.66 347.017 376.57 347.049L376.645 356.677L376.72 366.306C377.767 366.298 379.572 366.682 383.578 367.699L385.947 358.366ZM376.645 356.677L376.57 347.049C371.434 347.089 367.269 348.776 364.042 350.002L367.461 359.003L370.879 368.004C374.652 366.572 375.605 366.314 376.72 366.306L376.645 356.677ZM367.461 359.003L364.042 350.002C358.45 352.125 350.121 355.376 330.311 356.588L330.899 366.199L331.486 375.809C353.668 374.453 363.928 370.644 370.879 368.004L367.461 359.003ZM330.899 366.199L330.311 356.588C297.926 358.568 283.636 357.763 268.695 354.654L266.734 364.081L264.772 373.507C282.177 377.129 298.445 377.83 331.486 375.809L330.899 366.199ZM266.734 364.081L268.695 354.654C261.458 353.148 254.158 350.435 247.497 347.941L244.121 356.958L240.745 365.975C247.203 368.393 255.859 371.653 264.772 373.507L266.734 364.081ZM244.121 356.958L247.497 347.941C244.309 346.747 241.056 345.525 238.292 344.684C236.894 344.258 235.38 343.854 233.884 343.603C232.518 343.373 230.438 343.136 228.196 343.561L229.991 353.021L231.786 362.481C230.744 362.679 230.208 362.512 230.689 362.593C231.039 362.652 231.675 362.799 232.687 363.107C234.743 363.733 237.356 364.706 240.745 365.975L244.121 356.958ZM229.991 353.021L228.195 343.562C226.565 343.871 225.146 344.482 224.348 344.842C223.449 345.248 222.477 345.742 221.679 346.146L226.029 354.737L230.378 363.327C230.816 363.105 231.178 362.922 231.509 362.759C231.839 362.595 232.083 362.479 232.27 362.395C232.462 362.308 232.524 362.287 232.493 362.298C232.477 362.304 232.218 362.399 231.787 362.481L229.991 353.021ZM226.029 354.737L221.679 346.146C218.074 347.972 214.118 349.909 209.204 350.429C204.583 350.919 198.433 350.203 190.655 345.248L185.482 353.368L180.308 361.489C191.68 368.735 202.18 370.538 211.233 369.579C219.993 368.651 226.735 365.171 230.378 363.327L226.029 354.737ZM185.482 353.368L191.271 345.674C189.579 344.402 189.071 343.494 188.875 343.009C188.672 342.506 188.467 341.617 188.706 339.852C189.272 335.661 191.675 330.08 195.871 320.734L187.087 316.79L178.303 312.847C174.587 321.124 170.649 329.665 169.622 337.274C169.063 341.409 169.249 345.839 171.019 350.222C172.797 354.623 175.846 358.168 179.692 361.062L185.482 353.368ZM187.087 316.79L195.871 320.734C198.614 314.624 201.866 307.386 204.967 299.036L195.941 295.683L186.915 292.331C184.064 300.007 181.059 306.708 178.303 312.847L187.087 316.79ZM195.941 295.683L204.967 299.036C211.595 281.191 212.869 272.305 214.4 261.442L204.866 260.098L195.332 258.754C193.909 268.848 192.886 276.252 186.915 292.331L195.941 295.683ZM204.866 260.098L214.4 261.442C215.602 252.915 216.996 242.992 221.702 225.131L212.391 222.678L203.08 220.225C198.106 239.102 196.588 249.845 195.332 258.754L204.866 260.098ZM212.391 222.678L221.702 225.131C230.661 191.129 258.541 174.591 279.406 162.487L274.574 154.159L269.743 145.83C249.424 157.616 214.306 177.621 203.08 220.225L212.391 222.678ZM274.574 154.159L279.406 162.487C282.971 160.419 286.467 158.394 289.464 156.464L284.252 148.368L279.04 140.272C276.495 141.911 273.422 143.696 269.743 145.83L274.574 154.159ZM284.252 148.368L292.311 143.099C292.096 142.771 292.076 142.629 292.087 142.678C292.098 142.724 292.112 142.834 292.095 142.982C292.08 143.114 292.042 143.256 291.97 143.416C291.933 143.497 291.879 143.603 291.797 143.733C291.718 143.856 291.586 144.045 291.378 144.281L284.17 137.896L276.963 131.511C273.273 135.676 270.26 144.564 276.193 153.638L284.252 148.368ZM284.17 137.896L291.002 131.111C288.042 128.131 283.431 123.023 279.449 117.638C277.461 114.95 275.738 112.338 274.47 109.997C273.137 107.536 272.614 105.933 272.493 105.156L262.98 106.641L253.466 108.127C254.08 112.057 255.768 115.902 257.538 119.17C259.372 122.556 261.646 125.952 263.965 129.088C268.599 135.354 273.847 141.166 277.339 144.681L284.17 137.896ZM262.98 106.641L272.493 105.156C272.453 104.896 272.533 105.122 272.376 105.63C272.211 106.165 271.909 106.603 271.634 106.873C271.246 107.253 271.41 106.859 273.072 106.569C274.577 106.306 276.514 106.276 278.501 106.504C280.535 106.737 282.03 107.17 282.692 107.453L286.482 98.6022L290.272 89.751C285.032 87.5068 276.802 86.368 269.758 87.5988C266.19 88.2222 261.678 89.6645 258.15 93.1242C254.148 97.0493 252.576 102.422 253.466 108.127L262.98 106.641ZM286.482 98.6022L282.692 107.453C282.668 107.443 282.773 107.486 283.001 107.647C283.228 107.807 283.526 108.047 283.888 108.391C284.626 109.093 285.444 110.051 286.286 111.214C287.993 113.573 289.348 116.154 289.999 117.642L298.82 113.78L307.64 109.918C306.514 107.346 304.503 103.539 301.886 99.9238C299.478 96.5963 295.565 92.0175 290.272 89.751L286.482 98.6022ZM298.82 113.78L308.434 114.306C308.387 115.158 308.27 114.485 309.378 112.578C310.364 110.881 312.181 108.471 315.363 105.801L309.173 98.4253L302.983 91.05C293.688 98.851 289.523 107.453 289.206 113.254L298.82 113.78ZM178.6 95.2638L187.245 99.5042C185.752 102.549 182.075 103.803 179.034 102.313L183.272 93.6667L187.509 85.0208C181.006 81.8335 173.147 84.5177 169.956 91.0233L178.6 95.2638ZM183.272 93.6667L179.033 102.312C180.802 103.18 183.68 105.046 186.033 107.56L193.062 100.979L200.091 94.3987C195.919 89.9424 191.059 86.7614 187.511 85.0214L183.272 93.6667ZM193.062 100.979L186.033 107.56C188.423 110.112 189.685 112.682 189.704 115.068L199.332 114.992L208.96 114.917C208.889 105.783 204.192 98.7791 200.091 94.3988L193.062 100.979ZM199.332 114.992L189.704 115.067C189.727 118.115 188.026 120.336 184.241 124.902L191.654 131.047L199.067 137.191C201.791 133.906 209.048 126.22 208.96 114.918L199.332 114.992ZM191.654 131.047L184.241 124.902C180.833 129.014 175.895 134.968 175.965 143.975L185.593 143.9L195.221 143.826C195.211 142.533 195.516 141.476 199.067 137.191L191.654 131.047ZM185.593 143.9L175.965 143.975C176.002 148.684 177.727 152.615 180.587 155.758C183.055 158.471 186.223 160.41 188.809 161.889L193.589 153.531L198.37 145.174C197.221 144.516 196.392 144.001 195.77 143.561C195.149 143.122 194.897 142.871 194.83 142.797C194.792 142.756 194.94 142.912 195.075 143.247C195.214 143.591 195.222 143.832 195.221 143.825L185.593 143.9ZM193.589 153.531L188.809 161.889C191.614 163.494 193.601 164.517 195.244 165.782L201.117 158.152L206.99 150.521C203.979 148.204 200.169 146.203 198.37 145.174L193.589 153.531ZM201.117 158.152L195.244 165.782C196.734 166.929 197.115 167.685 197.241 168.243L206.633 166.123L216.026 164.004C214.523 157.343 210.333 153.094 206.99 150.521L201.117 158.152ZM206.633 166.123L197.241 168.242C197.845 170.92 197.539 173.853 196.721 176.626L205.956 179.351L215.191 182.075C216.611 177.264 217.571 170.853 216.026 164.005L206.633 166.123ZM205.956 179.351L196.721 176.626C195.9 179.409 194.686 181.609 193.992 182.598L201.87 188.133L209.749 193.668C211.649 190.964 213.778 186.865 215.191 182.075L205.956 179.351ZM201.87 188.133L193.992 182.597C195.941 179.824 199.768 179.155 202.542 181.104L197.007 188.982L191.471 196.861C197.4 201.027 205.583 199.596 209.748 193.669L201.87 188.133ZM197.007 188.982L202.543 181.105C205.316 183.053 205.984 186.88 204.036 189.654L196.157 184.119L188.278 178.584C184.114 184.513 185.543 192.695 191.47 196.86L197.007 188.982ZM196.157 184.119L204.036 189.654C205.498 187.572 207.296 184.162 208.495 180.099L199.26 177.375L190.025 174.65C189.738 175.623 189.376 176.515 189.021 177.249C188.655 178.009 188.361 178.466 188.278 178.584L196.157 184.119ZM199.26 177.375L208.495 180.099C209.697 176.024 210.418 170.875 209.214 165.541L199.822 167.66L190.429 169.779C190.693 170.949 190.624 172.62 190.025 174.65L199.26 177.375ZM199.822 167.66L209.214 165.54C208.213 161.104 205.416 158.121 202.731 156.054L196.858 163.684L190.985 171.314C191.391 171.626 191.343 171.658 191.144 171.39C191.036 171.244 190.893 171.023 190.755 170.729C190.615 170.431 190.504 170.109 190.429 169.78L199.822 167.66ZM196.858 163.684L202.731 156.054C200.213 154.116 197.035 152.453 194.903 151.234L190.122 159.592L185.341 167.95C188.577 169.801 189.844 170.435 190.986 171.314L196.858 163.684ZM190.122 159.592L194.903 151.234C192.478 149.847 190.804 148.744 189.66 147.49C188.762 146.506 188.252 145.514 188.239 143.88L178.611 143.955L168.983 144.03C169.097 158.681 180.626 165.253 185.341 167.95L190.122 159.592ZM178.611 143.955L188.239 143.88C188.207 139.781 190.206 136.942 193.692 132.736L186.279 126.592L178.865 120.447C175.477 124.535 168.891 132.248 168.983 144.029L178.611 143.955ZM186.279 126.592L193.692 132.736C196.743 129.054 202.043 123.31 201.978 114.972L192.35 115.047L182.721 115.121C182.722 115.181 182.719 115.184 182.712 115.206C182.698 115.252 182.633 115.448 182.396 115.851C181.808 116.854 180.847 118.057 178.865 120.447L186.279 126.592ZM192.35 115.047L201.978 114.971C201.926 108.292 198.482 102.897 194.994 99.1711L187.965 105.752L180.936 112.332C181.751 113.203 182.231 113.927 182.487 114.448C182.61 114.699 182.669 114.877 182.696 114.984C182.71 115.037 182.716 115.073 182.719 115.094C182.72 115.104 182.721 115.112 182.721 115.116C182.721 115.118 182.721 115.12 182.721 115.121C182.721 115.122 182.721 115.122 182.721 115.122L192.35 115.047ZM187.965 105.752L194.994 99.171C191.482 95.4199 187.341 92.7141 184.436 91.2896L180.197 99.935L175.959 108.58C177.08 109.13 179.239 110.52 180.936 112.332L187.965 105.752ZM180.197 99.935L184.438 91.2906C187.481 92.7834 188.738 96.4595 187.246 99.5025L178.6 95.2638L169.955 91.025C166.766 97.5298 169.453 105.389 175.957 108.579L180.197 99.935ZM433.527 92.5246L439.52 100.061C436.866 102.171 433.007 101.73 430.898 99.0783L438.433 93.0841L445.968 87.0898C441.459 81.4211 433.206 80.4784 427.534 84.9884L433.527 92.5246ZM438.433 93.0841L430.897 99.0771C432.015 100.483 433.902 103.158 435.662 106.312L444.07 101.62L452.479 96.9291C450.199 92.844 447.726 89.3002 445.969 87.091L438.433 93.0841ZM444.07 101.62L435.662 106.312C437.453 109.523 438.884 112.827 439.43 115.577L448.874 113.701L458.319 111.826C457.206 106.222 454.688 100.89 452.479 96.9292L444.07 101.62ZM448.874 113.701L439.43 115.577C439.518 116.021 439.504 116.875 438.692 118.496L447.302 122.807L455.912 127.118C457.762 123.423 459.554 118.048 458.319 111.826L448.874 113.701ZM447.302 122.807L438.692 118.496C437.866 120.146 436.528 121.975 434.768 124.17L442.279 130.194L449.791 136.218C451.618 133.939 454.096 130.744 455.911 127.118L447.302 122.807ZM442.279 130.194L434.768 124.17C433.168 126.164 431.028 128.684 429.396 131.036L437.307 136.525L445.218 142.014C446.342 140.394 447.623 138.921 449.791 136.218L442.279 130.194ZM437.307 136.525L429.396 131.036C427.802 133.334 425.956 136.46 425.586 140.041L435.163 141.031L444.741 142.021C444.692 142.49 444.604 142.828 444.548 143.007C444.493 143.187 444.454 143.262 444.475 143.217C444.494 143.175 444.555 143.052 444.68 142.841C444.804 142.632 444.979 142.358 445.218 142.014L437.307 136.525ZM435.163 141.031L425.586 140.043C425.214 143.649 426.333 146.838 427.576 149.31L436.179 144.985L444.781 140.66C444.592 140.284 444.608 140.231 444.66 140.44C444.718 140.675 444.822 141.237 444.741 142.019L435.163 141.031ZM436.179 144.985L427.576 149.311C428.805 151.754 430.475 154.097 431.787 155.955L439.653 150.401L447.518 144.848C446.002 142.701 445.241 141.575 444.781 140.66L436.179 144.985ZM439.653 150.401L431.787 155.955C433.223 157.989 434.318 159.562 435.059 161.034L443.661 156.708L452.263 152.383C450.759 149.391 448.769 146.619 447.518 144.848L439.653 150.401ZM443.661 156.708L435.058 161.034C435.783 162.475 435.838 163.204 435.805 163.528L445.383 164.515L454.961 165.503C455.525 160.028 453.8 155.439 452.263 152.383L443.661 156.708ZM445.383 164.515L435.805 163.527C435.247 168.937 433.346 173.553 432.662 174.848L441.175 179.347L449.688 183.845C451.374 180.655 454.118 173.672 454.961 165.504L445.383 164.515ZM441.175 179.347L432.663 174.847C434.247 171.849 437.961 170.705 440.957 172.288L436.458 180.801L431.959 189.314C438.364 192.699 446.301 190.253 449.688 183.846L441.175 179.347ZM436.458 180.801L440.958 172.289C443.951 173.871 445.101 177.582 443.515 180.583L435.002 176.084L426.489 171.585C423.102 177.995 425.557 185.93 431.958 189.314L436.458 180.801ZM435.002 176.084L443.515 180.582C444.838 178.079 447.276 171.955 448.015 164.788L438.438 163.799L428.86 162.81C428.643 164.914 428.156 166.944 427.624 168.624C427.362 169.452 427.101 170.157 426.882 170.697C426.772 170.966 426.678 171.183 426.604 171.344C426.527 171.513 426.487 171.59 426.489 171.586L435.002 176.084ZM438.438 163.799L448.015 164.787C448.387 161.185 447.272 157.998 446.026 155.52L437.423 159.845L428.821 164.17C429.009 164.544 428.993 164.597 428.941 164.386C428.882 164.15 428.78 163.59 428.86 162.812L438.438 163.799ZM437.423 159.845L446.026 155.519C444.796 153.075 443.124 150.73 441.814 148.875L433.948 154.429L426.083 159.982C427.601 162.132 428.361 163.256 428.821 164.17L437.423 159.845ZM433.948 154.429L441.814 148.875C440.379 146.842 439.283 145.268 438.543 143.795L429.94 148.121L421.338 152.446C422.842 155.438 424.831 158.209 426.083 159.982L433.948 154.429ZM429.94 148.121L438.543 143.796C437.818 142.353 437.763 141.624 437.796 141.302L428.218 140.314L418.64 139.325C418.075 144.801 419.802 149.391 421.338 152.446L429.94 148.121ZM428.218 140.314L437.796 141.303C437.806 141.204 437.865 140.872 438.153 140.252C438.444 139.629 438.878 138.903 439.481 138.033L431.571 132.544L423.66 127.055C421.899 129.593 419.198 133.925 418.64 139.324L428.218 140.314ZM431.571 132.544L439.481 138.033C440.79 136.148 442.392 134.284 444.345 131.85L436.833 125.826L429.321 119.802C427.91 121.562 425.476 124.439 423.66 127.055L431.571 132.544ZM436.833 125.826L444.345 131.85C446.143 129.608 448.211 126.905 449.669 123.993L441.06 119.682L432.45 115.37C431.985 116.298 431.066 117.626 429.321 119.802L436.833 125.826ZM441.06 119.682L449.669 123.992C451.15 121.034 452.287 117.302 451.47 113.186L442.025 115.062L432.581 116.937C432.427 116.159 432.488 115.546 432.552 115.225C432.608 114.948 432.648 114.974 432.45 115.371L441.06 119.682ZM442.025 115.062L451.47 113.186C450.562 108.617 448.44 104.02 446.382 100.33L437.973 105.022L429.565 109.713C431.205 112.653 432.241 115.222 432.581 116.937L442.025 115.062ZM437.973 105.022L446.382 100.33C444.29 96.5813 442.028 93.3533 440.504 91.4364L432.968 97.4295L425.432 103.423C426.32 104.54 427.995 106.899 429.565 109.713L437.973 105.022ZM432.968 97.4295L440.505 91.4377C442.613 94.0901 442.174 97.9499 439.521 100.06L433.527 92.5246L427.533 84.9892C421.863 89.4993 420.923 97.7511 425.431 103.421L432.968 97.4295ZM405.397 68.8966L410.239 77.2191C407.309 78.924 403.554 77.9304 401.849 75.0023L410.17 70.1583L418.492 65.3143C414.848 59.0542 406.817 56.9304 400.555 60.5741L405.397 68.8966ZM410.17 70.1583L401.848 75.0004C400.144 72.0714 401.136 68.315 404.066 66.6098L408.909 74.9319L413.752 83.254C420.014 79.6095 422.136 71.578 418.493 65.3161L410.17 70.1583ZM408.909 74.9319L404.067 66.6095C398.648 69.7619 388.868 79.5072 390.76 94.5787L400.314 93.3794L409.868 92.1801C409.549 89.6418 410.192 87.6686 411.135 86.1153C411.626 85.3059 412.197 84.622 412.736 84.0933C413.003 83.832 413.244 83.6268 413.437 83.4771C413.533 83.403 413.611 83.3472 413.668 83.3082C413.726 83.2687 413.755 83.2522 413.751 83.2544L408.909 74.9319ZM400.314 93.3794L390.761 94.579C391.304 98.9109 392.388 102.298 393.85 105.094L402.382 100.632L410.915 96.1697C410.654 95.6718 410.165 94.5462 409.868 92.1797L400.314 93.3794ZM402.382 100.632L393.85 105.095C395.31 107.886 397.015 109.824 398.353 111.26L405.4 104.698L412.446 98.1371C411.51 97.1311 411.182 96.6805 410.914 96.1693L402.382 100.632ZM405.4 104.698L398.353 111.26C399.096 112.058 399.446 112.403 399.962 112.993C400.402 113.496 400.664 113.854 400.819 114.109L409.05 109.113L417.282 104.118C415.538 101.244 413.115 98.8554 412.446 98.137L405.4 104.698ZM409.05 109.113L400.819 114.108C400.985 114.383 401.099 114.643 401.183 114.943C401.268 115.252 401.357 115.732 401.363 116.471L410.991 116.395L420.619 116.32C420.583 111.667 419.422 107.645 417.282 104.119L409.05 109.113ZM410.991 116.395L401.363 116.471C401.37 117.377 401.109 118.291 400.346 119.5C399.475 120.877 398.291 122.14 396.551 123.964L403.517 130.611L410.483 137.259C413.258 134.35 420.704 127.227 420.619 116.32L410.991 116.395ZM403.517 130.611L396.551 123.964C393.423 127.242 388.276 132.27 386.827 139.818L396.283 141.633L405.739 143.448C405.819 143.031 406.009 142.485 406.694 141.532C407.493 140.421 408.602 139.23 410.483 137.259L403.517 130.611ZM396.283 141.633L386.827 139.818C385.214 148.222 389.874 154.159 392.378 157.922L400.394 152.588L408.41 147.253C407.582 146.01 406.997 145.135 406.51 144.35C406.033 143.582 405.819 143.163 405.721 142.936C405.642 142.754 405.697 142.833 405.728 143.076C405.761 143.337 405.73 143.495 405.739 143.448L396.283 141.633ZM400.394 152.588L392.378 157.922C395.09 161.996 397.287 165.736 397.005 172.04L406.623 172.471L416.242 172.902C416.805 160.354 411.791 152.334 408.41 147.253L400.394 152.588ZM406.623 172.471L397.005 172.04C397.156 168.653 400.025 166.032 403.41 166.184L402.979 175.803L402.549 185.421C409.786 185.746 415.918 180.142 416.242 172.903L406.623 172.471ZM402.979 175.803L403.411 166.184C406.797 166.336 409.419 169.203 409.267 172.59L399.648 172.158L390.029 171.727C389.705 178.966 395.31 185.097 402.548 185.421L402.979 175.803ZM399.648 172.158L409.267 172.589C409.728 162.304 405.735 155.835 402.597 151.121L394.581 156.455L386.565 161.79C389.036 165.502 390.21 167.69 390.029 171.728L399.648 172.158ZM394.581 156.455L402.597 151.121C399.342 146.23 398.388 144.706 398.882 142.132L389.426 140.317L379.97 138.503C377.732 150.163 384.386 158.514 386.566 161.79L394.581 156.455ZM389.426 140.317L398.882 142.132C399.535 138.729 401.796 136.25 405.432 132.439L398.466 125.792L391.5 119.145C388.604 122.181 381.866 128.623 379.97 138.502L389.426 140.317ZM398.466 125.792L405.432 132.439C408.483 129.243 413.697 124.064 413.637 116.375L404.009 116.45L394.38 116.525C394.378 116.264 394.424 115.976 394.503 115.734C394.572 115.523 394.616 115.5 394.481 115.711C394.336 115.938 394.058 116.32 393.539 116.926C393.019 117.532 392.365 118.239 391.5 119.145L398.466 125.792ZM404.009 116.45L413.637 116.374C413.61 112.92 412.769 110.142 411.313 107.742L403.081 112.736L394.849 117.731C394.797 117.645 394.721 117.509 394.643 117.333C394.564 117.156 394.501 116.978 394.455 116.811C394.36 116.468 394.379 116.328 394.38 116.526L404.009 116.45ZM403.081 112.736L411.313 107.741C410.034 105.633 408.232 103.857 407.337 102.895L400.29 109.456L393.243 116.018C393.58 116.38 393.958 116.78 394.181 117.019C394.445 117.301 394.617 117.488 394.748 117.637C394.991 117.912 394.947 117.891 394.85 117.732L403.081 112.736ZM400.29 109.456L407.337 102.895C406.258 101.736 405.428 100.745 404.728 99.4052L396.196 103.868L387.664 108.331C389.554 111.945 391.756 114.42 393.243 116.018L400.29 109.456ZM396.196 103.868L404.728 99.4055C404.031 98.0735 403.326 96.1279 402.94 93.0493L393.386 94.2489L383.833 95.4484C384.466 100.493 385.765 104.7 387.663 108.33L396.196 103.868ZM393.386 94.2489L402.94 93.0495C401.861 84.4541 407.493 78.8169 410.239 77.219L405.397 68.8966L400.554 60.5742C393.677 64.5759 381.471 76.6403 383.832 95.4482L393.386 94.2489ZM229.147 111.91L234.772 119.725C232.021 121.705 228.187 121.08 226.207 118.331L234.019 112.703L241.832 107.075C237.598 101.199 229.402 99.8631 223.522 104.095L229.147 111.91ZM234.019 112.703L226.206 118.33C224.225 115.579 224.849 111.744 227.599 109.763L233.226 117.577L238.853 125.39C244.732 121.156 246.067 112.957 241.833 107.077L234.019 112.703ZM233.226 117.577L227.599 109.763C225.403 111.345 222.619 113.878 220.336 117.096L228.189 122.668L236.041 128.24C236.915 127.008 238.101 125.931 238.853 125.39L233.226 117.577ZM228.189 122.668L220.336 117.096C218.069 120.291 215.962 124.641 216.001 129.698L225.63 129.624L235.258 129.55C235.26 129.781 235.21 129.789 235.309 129.53C235.409 129.265 235.626 128.826 236.041 128.24L228.189 122.668ZM225.63 129.624L216.001 129.699C216.029 133.298 217.268 136.191 218.697 138.471C219.954 140.479 221.647 142.433 223.023 144.032L230.32 137.749L237.617 131.467C236.858 130.586 236.292 129.922 235.831 129.347C235.37 128.774 235.135 128.438 235.016 128.247C234.906 128.073 234.98 128.154 235.074 128.433C235.181 128.751 235.255 129.145 235.258 129.549L225.63 129.624ZM230.32 137.749L223.023 144.032C225.866 147.333 227.062 149.131 227.08 151.433L236.709 151.357L246.337 151.282C246.257 141.13 240.156 134.417 237.617 131.467L230.32 137.749ZM236.709 151.357L227.08 151.432C227.1 154.024 226.397 156.717 225.396 159.25C224.909 160.486 224.385 161.598 223.896 162.593C223.596 163.202 222.787 164.769 222.395 165.771L231.362 169.278L240.329 172.785C240.176 173.177 246.423 162.329 246.337 151.282L236.709 151.357ZM231.362 169.278L222.395 165.771C223.63 162.614 227.189 161.057 230.345 162.29L226.839 171.258L223.333 180.226C230.08 182.863 237.69 179.534 240.329 172.786L231.362 169.278ZM226.839 171.258L230.347 162.291C233.503 163.526 235.061 167.085 233.827 170.241L224.859 166.735L215.892 163.229C213.254 169.977 216.584 177.585 223.331 180.225L226.839 171.258ZM224.859 166.735L233.827 170.242C234.032 169.717 234.339 169.074 234.913 167.899C235.429 166.843 236.125 165.425 236.774 163.857C238.111 160.624 239.394 156.436 239.355 151.337L229.726 151.412L220.098 151.487C220.111 153.172 219.713 154.722 218.98 156.494C218.593 157.428 218.156 158.328 217.61 159.446C217.122 160.445 216.439 161.83 215.892 163.229L224.859 166.735ZM229.726 151.412L239.355 151.336C239.297 144.012 234.944 139.064 232.325 136.022L225.028 142.304L217.731 148.587C218.402 149.365 218.904 149.968 219.305 150.492C219.703 151.01 219.922 151.348 220.045 151.565C220.158 151.765 220.159 151.81 220.137 151.735C220.111 151.645 220.098 151.545 220.098 151.487L229.726 151.412ZM225.028 142.304L232.325 136.022C230.836 134.293 229.896 133.256 229.126 131.999C228.457 130.907 228.28 130.185 228.276 129.603L218.647 129.678L209.019 129.753C209.096 139.622 215.871 146.426 217.731 148.587L225.028 142.304ZM218.647 129.678L228.276 129.604C228.263 128.034 228.94 126.181 230.346 124.199L222.494 118.627L214.641 113.055C211.889 116.934 208.964 122.706 209.019 129.753L218.647 129.678ZM222.494 118.627L230.346 124.199C231.731 122.248 233.497 120.643 234.773 119.724L229.147 111.91L223.52 104.097C220.801 106.054 217.437 109.116 214.641 113.055L222.494 118.627Z" fill="white" mask="url(#path-2-outside-1_437_60)"/>
<path d="M162.185 187.198C162.185 187.213 162.185 187.228 162.202 189.46C162.22 191.693 162.254 196.142 162.327 200.764" stroke="white" stroke-width="0.436375" stroke-linecap="round"/>
<path d="M164.046 201.124C164.042 201.124 164.038 201.124 162.967 201.189C161.896 201.253 159.76 201.383 158.373 201.554C156.987 201.726 156.415 201.937 155.628 202.28" stroke="white" stroke-width="0.436375" stroke-linecap="round"/>
<path d="M154.952 192.398C155.023 192.707 155.726 194.694 156.675 197.15C157.271 198.946 157.512 199.874 157.557 200.265C157.574 200.473 157.575 200.701 157.577 200.935" stroke="white" stroke-width="0.436375" stroke-linecap="round"/>
<path d="M166.995 208.133C166.838 208.134 166.216 208.252 165.645 208.559C165.226 208.784 164.775 209.292 164.134 210.127C163.756 210.675 163.27 211.477 162.963 212.021C162.656 212.564 162.544 212.824 162.444 213.108" stroke="white" stroke-width="0.436375" stroke-linecap="round"/>
<path d="M407.153 71.9147C403.098 74.2737 395.362 81.9563 396.851 93.8144C398.712 108.637 407.425 106.824 407.5 116.424C407.575 126.023 394.951 130.049 392.855 140.975C390.758 151.902 403.879 155.727 403.136 172.315M435.701 95.257C438.345 98.582 443.997 107.062 445.45 114.382C447.267 123.532 432.502 132.811 431.691 140.673C430.879 148.534 442.722 156.297 441.911 164.158C441.262 170.447 439.093 175.817 438.089 177.716M231.187 114.744C227.715 117.244 222.087 123.019 222.139 129.652C222.203 137.942 233.143 141.785 233.218 151.385C233.278 159.065 229.252 165.089 228.111 168.007M181.735 96.8012C186.407 99.0922 195.77 105.943 195.841 115.02C195.93 126.365 182 130.837 182.102 143.928C182.204 157.019 200.968 156.873 203.228 166.892C205.036 174.908 201.172 183.054 199.014 186.126" stroke="#9EB4FA" stroke-width="6.982" stroke-linecap="round"/>
<path d="M284.252 148.368C291.834 150.636 310.827 153.747 326.143 148.041C308.667 145.385 290.934 147.152 284.252 148.368Z" fill="#00664E"/>
<path d="M305.095 135.109C306.518 135.168 307.977 135.276 309.462 135.443C312.206 133.236 317.526 125.397 317.956 111.174C316.931 117.706 309.278 129.443 305.095 135.109Z" fill="#00664E"/>
<path fill-rule="evenodd" clip-rule="evenodd" d="M405.209 214.192C389.585 180.45 345.988 156.033 326.143 148.041C327.3 147.16 328.909 144.529 326.088 141.06C323.268 137.591 320.822 137.319 319.952 137.616C329.627 128.522 347.649 107.901 342.336 98.1669C335.696 85.9998 319.145 90.0564 309.173 98.4255C301.196 105.121 298.947 111.452 298.819 113.78C297.042 109.721 292.087 101.002 286.482 98.6025C279.477 95.6026 261.143 94.8728 262.98 106.641C264.45 116.056 277.719 131.4 284.17 137.896C282.873 139.36 281.072 143.505 284.252 148.368C281.481 150.152 278.197 152.057 274.575 154.158C253.983 166.103 222.484 184.375 212.391 222.678C207.551 241.047 206.095 251.38 204.866 260.098C203.389 270.576 202.241 278.721 195.941 295.683C192.965 303.697 189.836 310.666 187.087 316.791C179.174 334.414 174.406 345.034 185.482 353.368C204.632 365.569 218.781 358.406 226.029 354.736C227.744 353.868 229.073 353.195 229.991 353.021C232.39 352.565 237.544 354.495 244.121 356.957C250.681 359.414 258.658 362.4 266.733 364.081C282.906 367.446 298.186 368.199 330.899 366.198C351.895 364.914 361.189 361.385 367.461 359.003C370.961 357.674 373.52 356.702 376.646 356.678C379.214 356.658 382.395 357.464 385.947 358.366C394.463 360.527 405.116 363.23 414.609 356.381C428.061 346.676 422.638 322.717 418.135 304.86C416.65 298.972 416.862 291.695 417.114 283.073C417.625 265.546 418.299 242.462 405.209 214.192ZM284.252 148.368C290.934 147.152 308.667 145.385 326.143 148.041C310.827 153.747 291.834 150.636 284.252 148.368ZM317.956 111.174C316.931 117.706 309.278 129.443 305.095 135.109C306.518 135.168 307.977 135.276 309.462 135.443C312.206 133.236 317.526 125.397 317.956 111.174ZM283.983 113.896C289.296 123.629 297.362 132.074 300.731 135.08C297.881 135.157 295.235 135.418 292.882 135.776C289.956 133.719 284.081 126.463 283.983 113.896Z" fill="#009A76"/>
<path d="M300.731 135.08C297.362 132.074 289.296 123.629 283.983 113.896C284.081 126.463 289.956 133.719 292.882 135.776C295.235 135.418 297.881 135.157 300.731 135.08Z" fill="#00664E"/>
<path d="M455.011 184.042C455.011 184.057 455.011 184.072 455.028 186.304C455.046 188.536 455.08 192.986 455.08 197.608" stroke="white" stroke-width="0.436375" stroke-linecap="round"/>
<path d="M453.367 197.995C453.371 197.995 453.375 197.995 454.447 198.043C455.518 198.091 457.657 198.187 459.046 198.337C460.435 198.487 461.01 198.689 461.802 199.019" stroke="white" stroke-width="0.436375" stroke-linecap="round"/>
<path d="M462.325 189.128C462.258 189.438 461.586 191.435 460.675 193.906C460.108 195.712 459.881 196.643 459.842 197.035C459.829 197.243 459.831 197.47 459.832 197.705" stroke="white" stroke-width="0.436375" stroke-linecap="round"/>
<path d="M450.528 205.049C450.685 205.047 451.309 205.156 451.884 205.453C452.307 205.672 452.766 206.173 453.419 206.998C453.806 207.54 454.305 208.335 454.62 208.873C454.935 209.412 455.052 209.67 455.156 209.952" stroke="white" stroke-width="0.436375" stroke-linecap="round"/>
<path opacity="0.3" d="M206.111 322.126C206.142 322.126 206.906 322.141 208.22 322.365C208.816 322.466 209.152 322.975 209.34 323.422C209.527 323.869 209.528 324.349 209.273 324.676C208.507 325.163 207.471 325.331 206.526 325.192C206.091 325.049 205.747 324.759 205.326 323.954" stroke="#00664E" stroke-width="5.2365" stroke-linecap="round"/>
<path opacity="0.3" d="M369.461 340.151C369.492 340.151 370.256 340.166 371.57 340.39C372.166 340.491 372.502 341 372.69 341.447C372.877 341.894 372.878 342.374 372.622 342.701C371.857 343.188 370.821 343.355 369.876 343.217C369.441 343.074 369.097 342.784 368.676 341.979" stroke="#00664E" stroke-width="5.2365" stroke-linecap="round"/>
<path opacity="0.3" d="M220.465 317.748C220.48 317.748 220.815 317.745 221.377 317.839C221.623 317.88 221.739 318.13 221.812 318.403C221.885 318.676 221.899 319.021 221.793 319.218C221.589 319.597 221.017 319.498 220.618 319.393C220.426 319.286 220.257 319.07 220.169 318.79C220.081 318.51 220.078 318.172 220.478 317.989" stroke="#00664E" stroke-width="5.2365" stroke-linecap="round"/>
<path d="M215.231 335.386C215.418 335.966 217.264 339.043 219.037 341.56C220.072 342.848 221.117 344.068 222.333 345.192C223.112 345.822 224.221 346.571 225.682 347.493" stroke="#00664E" stroke-width="1.7455" stroke-linecap="round"/>
<path d="M382.119 351.633C382.15 351.643 382.91 351.49 384.337 351.136C385.617 350.709 388.983 348.773 393.715 345.884C395.697 344.693 396.827 344.061 398.668 343.118" stroke="#00664E" stroke-width="1.7455" stroke-linecap="round"/>
<path opacity="0.8" d="M285.667 161.885C272.593 164.169 250.806 179.525 238.345 193.238" stroke="white" stroke-width="5.2365" stroke-linecap="round"/>
<ellipse cx="272.542" cy="426.004" rx="197.508" ry="56.5551" fill="#B2ECDE"/>
<path d="M287.321 273.358C290.576 272.252 294.491 271.949 298.662 272.065C307.022 272.297 317.864 274.278 329.776 276.754C341.717 279.235 352.922 281.916 360.916 285.119C364.872 286.704 368.455 288.573 370.944 290.9C373.478 293.269 375.321 296.605 374.421 300.612C374.187 302.449 373.449 304.106 372.24 305.48C380.877 309.046 389.957 313.424 395.34 317.837C401.418 322.819 409.945 332.182 418.596 341.107C427.5 350.294 436.685 359.194 444.641 364.176H444.64C452.104 368.849 463.486 370.409 474.128 371.489C479.191 372.003 484.214 372.425 487.946 373.134C489.803 373.486 491.709 373.972 493.284 374.757C494.791 375.507 496.955 377.03 497.429 379.875C497.501 380.309 497.967 381.545 499.176 383.663C500.295 385.625 501.804 387.927 503.498 390.337C506.88 395.148 510.826 400.142 513.418 403.259C514.445 404.494 514.709 406.195 514.103 407.682C513.496 409.17 512.119 410.202 510.521 410.368L483.474 413.168C487.181 417.16 491.138 423.79 491.138 432.552V432.553C491.137 441.518 484.482 447.102 477.162 450.231C469.744 453.403 460.355 454.717 451.778 454.717C449.037 454.717 445.728 454.122 443.068 453.775C440.159 453.396 437.315 453.177 434.444 453.564C426.809 454.593 418.683 455.543 412.048 456.322C405.262 457.119 400.324 457.707 398.729 458.027L398.729 458.028C398.323 458.11 397.212 458.622 394.956 460.035C393.065 461.219 390.32 463.061 387.678 464.649C382.364 467.843 375.194 471.489 367.843 470.82C362.209 470.307 356.679 467.702 352.263 464.962C348.802 462.814 345.772 460.423 343.576 458.447L328.817 461.219C326.864 461.586 324.911 460.583 324.071 458.781C322.707 455.853 320.86 450.894 319.565 445.21C318.278 439.559 317.46 432.86 318.423 426.589L318.481 426.281C318.828 424.763 319.964 423.536 321.471 423.083C322.624 422.736 323.707 422.506 324.599 422.321C325.548 422.124 326.212 421.992 326.834 421.816C329.574 421.044 331.851 420.371 333.651 419.846C334.165 419.697 334.66 419.553 335.125 419.421C336.764 414.407 339.791 408.072 344.425 402.858C349.872 396.729 357.851 391.865 368.352 393.182L368.854 393.25L369.092 393.291C376.761 394.828 383.858 397.032 387.51 398.311C393.48 396.826 404.786 394.524 416.167 393.605C409.732 387.196 403.467 383.982 397.463 382.25C389.327 379.903 381.708 380.192 373.239 379.627C368.506 379.31 364.676 377.855 361.651 375.51C361.526 375.412 361.405 375.312 361.283 375.213C360.453 377.845 358.121 379.861 355.202 380.147H355.201C351.67 380.493 347.507 380.742 342.939 380.885C342.905 381.39 342.783 381.898 342.562 382.386C340.621 386.663 334.699 397.017 325.802 405.931C322.09 409.65 318.462 415.66 315.39 421.991C312.357 428.24 310.051 434.406 308.874 438.111C308.505 439.273 307.667 440.226 306.562 440.74C305.456 441.253 304.186 441.279 303.061 440.812L247.702 417.836C244.696 421.088 240.561 425.076 236.026 428.54C233.369 430.57 230.497 432.478 227.57 433.955C250.865 436.048 283.223 439.821 301.028 442.02C302.641 442.219 304.008 443.301 304.573 444.824C305.139 446.347 304.809 448.058 303.717 449.261L261.377 495.923C260.393 497.007 258.929 497.524 257.482 497.298L155.868 481.389C154.251 481.136 152.913 479.998 152.405 478.442C151.897 476.886 152.306 475.177 153.462 474.018C158.316 469.155 169.338 458.87 183.273 447.492C176.813 449.992 169.452 451.091 162.003 449.537C147.2 446.449 129.715 437.244 121.199 432.105C116.098 433.977 106.953 436.178 97.6064 434.885L96.5488 434.723C93.1633 434.158 89.8916 432.53 86.9541 430.565C83.9802 428.576 81.1044 426.074 78.4824 423.47C74.0524 419.071 70.1361 414.163 67.46 410.389C66.9374 410.323 66.451 410.233 66.0244 410.14C64.6296 409.836 63.1243 409.353 61.6836 408.851C58.5956 407.777 55.7738 406.631 52.9551 405.824C51.488 405.404 50.3479 404.246 49.9512 402.772C47.5788 393.956 48.7051 387.19 51.2812 382.137C53.7965 377.205 57.4847 374.339 59.3799 372.924L59.5898 372.776C60.6571 372.073 61.9849 371.873 63.2188 372.238L74.3584 375.537C78.691 370.257 87.5229 363.512 100.441 363.512C114.27 363.512 125.633 371.27 130.854 376.256C136.744 376.347 149.345 376.851 165.229 378.361C166.68 378.367 168.126 378.427 169.562 378.535C169.121 377.571 168.701 376.6 168.311 375.647C166.963 372.362 165.711 368.704 165.164 365.819C161.691 362.718 154.96 356.529 148.17 349.726C143.12 344.667 141.933 337.455 142.057 331.373C142.162 326.195 143.225 321.161 144.369 317.475L139.049 308.589C138.546 307.749 138.341 306.764 138.468 305.793C139.937 294.509 146.091 287.616 153.187 283.805C160.069 280.109 167.719 279.344 172.766 279.749C173.876 279.838 174.91 280.35 175.654 281.178L183.796 290.24C187.639 290.301 193.693 291.467 200.829 295.042H200.83C207.341 298.304 211.352 303.79 214.235 310.292C216.833 316.149 218.68 323.226 220.58 330.816C223.864 332.481 226.643 334.876 228.799 337.165C229.582 337.996 230.306 338.839 230.965 339.664L248.446 318.436L248.649 318.206C249.702 317.097 251.269 316.616 252.774 316.961L269.71 320.834C270.488 319.198 271.54 317.583 272.907 315.997C273.329 315.508 273.551 315.11 273.676 314.802C273.799 314.496 273.865 314.19 273.885 313.842L273.891 313.534C273.879 312.794 273.692 311.877 273.303 310.447C272.853 308.791 272.038 306.199 271.973 303.455V303.454C271.942 302.746 271.95 301.988 272.017 301.187L272.038 300.987C272.084 300.63 272.174 300.286 272.301 299.962C272.532 298.92 272.891 297.871 273.4 296.819H273.401C275.303 292.897 277.662 289.896 279.803 287.786C279.652 287.487 279.514 287.178 279.394 286.858C278.577 284.685 278.652 282.407 279.527 280.24V280.239C280.986 276.63 283.96 274.5 287.321 273.358ZM202.741 432.689C202.949 432.617 203.163 432.56 203.38 432.519C203.266 432.427 203.155 432.332 203.045 432.238C202.946 432.389 202.844 432.539 202.741 432.689Z" fill="#D0DBFF" stroke="white" stroke-width="8.70079" stroke-linecap="round" stroke-linejoin="round"/>
<path d="M272.249 351.764C270.651 355.432 270.651 360.245 272.478 362.995C289.532 371.98 332.047 372.851 353.134 370.789C353.134 370.789 353.588 367.58 354.276 364.371C358.406 345.095 350.609 350.389 353.588 335.949C356.568 321.509 368.975 316.008 365.308 302.714C352.472 307.481 307.242 295.226 286.231 288.503C284.55 289.42 280.455 292.766 277.521 298.817C273.854 306.381 282.105 312.34 276.375 318.987C270.645 325.634 272.485 331.823 274.312 337.553C275.471 341.188 273.037 349.957 272.249 351.764Z" fill="#99A4A9" stroke="#99A4A9" stroke-width="0.458417"/>
<path d="M269.932 364.83C286.985 373.815 333.422 375.144 354.51 373.081" stroke="#657072" stroke-width="5.501" stroke-linecap="round"/>
<path opacity="0.2" d="M281.795 343.972C279.962 355.661 292.981 361.758 305.633 361.392C287.296 357.266 282.941 347.181 281.795 343.972Z" fill="#5C6A6D" stroke="#5C6A6D" stroke-width="0.458417"/>
<path d="M279.788 324.259C280.399 328.843 284.372 337.461 295.374 335.261C283.455 330.677 281.087 326.398 279.788 324.259Z" fill="#8D989D" stroke="#8D989D" stroke-width="0.458417"/>
<path d="M330.672 357.425C332.027 354.535 337.499 349.136 348.551 350.653C339.449 352.82 332.839 356.07 330.672 357.425Z" fill="#8D989D" stroke="#8D989D" stroke-width="0.541765"/>
<path d="M292.624 315.55C287.306 317.933 280.246 311.271 277.267 307.527C277.037 306.381 276.35 304.318 276.579 301.568C277.037 303.86 281.163 312.57 292.624 315.55Z" fill="#8D989D" stroke="#8D989D" stroke-width="0.458417"/>
<path d="M328.472 283.032C340.43 285.517 351.124 288.104 358.53 291.072C362.253 292.563 364.951 294.077 366.564 295.585C368.122 297.041 368.425 298.222 368.133 299.336L368.089 299.502L368.074 299.673C368.012 300.36 367.776 300.863 367.4 301.279C366.999 301.722 366.354 302.157 365.356 302.522C363.318 303.269 360.241 303.575 356.195 303.437C348.153 303.163 337.185 301.184 325.217 298.697C313.237 296.207 302.22 293.693 294.646 290.758C290.831 289.28 288.129 287.782 286.602 286.296C285.859 285.572 285.483 284.936 285.329 284.398C285.185 283.894 285.193 283.337 285.473 282.643C286.038 281.244 287.231 280.162 289.384 279.43C291.589 278.681 294.625 278.368 298.484 278.475C306.193 278.689 316.501 280.545 328.472 283.032Z" fill="#303B3D" stroke="#657072" stroke-width="4.12575"/>
<path d="M358.865 323.801C355.931 320.867 344.348 325.023 338.924 327.468C341.751 323.19 350.247 315.595 361.615 319.446L358.865 323.801Z" fill="#8D989D" stroke="#8D989D" stroke-width="0.458417"/>
<path d="M368.237 466.488C379.881 467.549 392.582 454.823 397.875 453.762V432.553C397.875 419.192 390.818 407.19 387.29 402.859C384.467 401.799 376.705 399.254 368.237 397.557C350.455 395.011 341.07 413.464 338.6 423.008C341.07 426.19 344.951 427.25 347.068 436.795C347.825 440.209 346.009 449.52 344.951 453.762C348.832 457.651 358.923 465.64 368.237 466.488Z" fill="#D0DBFF"/>
<path d="M474.085 389.073C457.15 376.347 434.569 389.426 425.395 397.557C429.982 404.802 438.097 425.285 433.863 449.253C440.752 448.325 447.048 450.366 451.778 450.366C468.231 450.366 486.787 445.278 486.787 432.553C486.787 422.372 480.436 415.585 477.261 413.464C477.997 412.449 478.768 410.996 479.338 409.222C480.954 404.198 480.969 396.597 474.085 389.073Z" fill="#D0DBFF"/>
<path d="M254.98 375.287H246.512L241.22 371.575C223.437 388.118 205.584 392.961 198.88 393.315C203.961 397.557 203.114 414.878 202.056 423.008C202.761 426.19 206.713 432.553 216.875 432.553C227.036 432.553 240.867 419.271 246.512 412.631L230.635 406.041L254.98 375.287Z" fill="#D0DBFF"/>
<path d="M202.056 423.008C203.114 414.878 203.961 397.557 198.88 393.315C192.53 388.013 178.769 382.71 165.009 382.71C147.227 381.013 133.607 380.589 129.021 380.589C125.14 376.347 113.99 367.863 100.442 367.863C86.8932 367.863 78.5664 376.347 76.0967 380.589C67.4697 388.224 68.2682 400.738 69.7458 406.041C74.6854 413.464 87.1049 428.735 97.2663 430.432C107.428 432.129 117.73 429.018 121.611 427.25C129.021 431.935 147.65 442.099 162.892 445.279C181.945 449.253 201.279 433.386 202.056 423.008Z" fill="#BDCDFF"/>
<path d="M425.395 397.557C411 397.557 393.994 401.092 387.29 402.859C390.818 407.19 397.875 419.192 397.875 432.553V453.762C401.515 453.033 418.68 451.3 433.863 449.253C438.097 425.285 429.982 404.802 425.395 397.557Z" fill="#A6BBFF"/>
<path d="M235.927 367.863L216.875 363.621L230.635 346.911C228.871 343.644 223.649 336.473 216.875 333.928C214.405 337.109 207.348 344.957 198.88 350.896C190.413 356.834 175.594 361.854 169.243 363.621C169.596 368.217 174.316 379.864 177.704 384.106C186.658 386.03 194.517 389.672 198.88 393.315C205.584 392.961 223.437 388.118 241.22 371.575L235.927 367.863Z" fill="#A6BBFF"/>
<path fill-rule="evenodd" clip-rule="evenodd" d="M198.88 298.932C209.465 304.234 212.641 316.96 216.875 333.928C214.405 337.109 207.348 344.957 198.88 350.896C190.413 356.834 175.594 361.854 169.243 363.621C166.42 361.147 158.87 354.289 151.249 346.654C143.628 339.018 146.662 323.677 149.132 316.96C157.713 316.52 176.289 311.45 181.945 294.69C184.062 294.337 190.413 294.69 198.88 298.932Z" fill="#D0DBFF"/>
<path d="M181.945 294.69L172.418 284.085C167.338 301.901 150.543 306.355 142.781 306.355L149.132 316.96C157.713 316.52 176.289 311.45 181.945 294.69Z" fill="#7B95EA"/>
<path d="M328.015 456.944L344.951 453.762C346.009 449.52 347.825 440.209 347.068 436.795C344.951 427.25 341.07 426.19 338.6 423.008C337.234 423.282 333.542 424.446 328.015 426.004C331.543 431.467 338.6 441.665 328.015 456.944Z" fill="#7B95EA"/>
<path d="M76.0967 380.589L61.9833 376.41C58.455 379.045 49.9184 385.908 54.1523 401.642C60.0798 403.339 66.9232 406.748 69.7458 406.041C68.2682 400.738 67.4697 388.224 76.0967 380.589Z" fill="#7B95EA"/>
<path d="M322.723 427.25C321.029 438.279 325.545 451.641 328.015 456.944C338.6 441.665 331.543 431.467 328.015 426.004C326.403 426.459 324.635 426.676 322.723 427.25Z" fill="#5875D0"/>
<path d="M172.418 284.085C163.598 283.378 145.321 286.842 142.781 306.355C150.543 306.355 167.338 301.901 172.418 284.085Z" fill="#5875D0"/>
<path d="M425.395 397.557C434.569 389.426 457.15 376.347 474.085 389.073C480.969 396.597 480.954 404.198 479.338 409.222L510.074 406.041C504.781 399.678 493.985 385.679 493.138 380.589C492.079 374.226 459.267 378.468 442.331 367.863C425.395 357.258 404.226 330.746 392.582 321.202C383.268 313.567 360.475 305.295 350.243 302.113L322.723 330.746C332.955 334.988 353.842 344.957 355.535 350.896C357.652 358.319 357.652 374.226 373.53 375.287C389.407 376.347 407.401 374.226 425.395 397.557Z" fill="#BDFF61"/>
<path d="M288.851 402.859C270.222 395.224 264.153 381.296 263.448 375.287H254.98L230.635 406.041L246.512 412.631L304.728 436.795C307.198 429.018 314.255 411.343 322.723 402.859C331.19 394.375 336.836 384.477 338.6 380.589L295.663 359.379C289.811 372.425 283.931 394.643 288.851 402.859Z" fill="white"/>
<path fill-rule="evenodd" clip-rule="evenodd" d="M251.804 321.202L272.542 325.945C272.542 332.751 282.763 341.298 291.849 346.654C286.283 355.588 275.153 374.884 275.153 380.589C268.888 370.408 255.141 365.035 249.05 363.621L235.927 367.863L216.875 363.621L230.635 346.911L251.804 321.202Z" fill="#FFDA61"/>
<path d="M263.448 375.287C264.153 381.296 270.222 395.224 288.851 402.859C283.931 394.643 289.811 372.425 295.663 359.379C297.364 355.586 299.064 352.568 300.494 350.896C298.078 350.015 295.033 348.53 291.849 346.654C286.283 355.588 275.153 374.884 275.153 380.589C268.888 370.408 255.141 365.035 249.05 363.621L235.927 367.863L241.22 371.575L246.512 375.287H254.98H263.448Z" fill="#FFD036"/>
<path fill-rule="evenodd" clip-rule="evenodd" d="M300.494 446.339C274.738 443.157 219.415 436.795 204.173 436.795C182.156 452.914 163.245 470.377 156.541 477.093L258.155 493L300.494 446.339ZM251.66 482.559L262.488 470.378L279.503 451.236L244.7 447.573L234.322 459.951L230.478 464.538L220.338 476.633L251.66 482.559ZM187.275 470.378L198.88 458.772L225.366 463.605L215.117 475.646L187.275 470.378ZM213.377 444.276L202.056 455.597L229.078 459.244L239.479 447.023L213.377 444.276Z" fill="#EEEEEE"/>
<path d="M251.66 482.559L262.488 470.378L230.478 464.538L220.338 476.633L251.66 482.559Z" fill="#DCDCDC"/>
<path d="M198.88 458.772L187.275 470.378L215.117 475.646L225.366 463.605L198.88 458.772Z" fill="#DCDCDC"/>
<path d="M213.377 444.276L202.056 455.597L229.078 459.244L239.479 447.023L213.377 444.276Z" fill="#DCDCDC"/>
<path d="M267.68 464.538L279.503 451.236L244.7 447.573L234.322 459.951L267.68 464.538Z" fill="#DCDCDC"/>
<path d="M262.488 470.378L267.68 464.538L234.322 459.951L230.478 464.538L262.488 470.378Z" fill="#EEEEEE"/>
<path d="M361.628 330.363C361.645 330.363 362.046 330.619 363.957 332.29C365.519 333.656 368.107 336.271 370.353 338.793C372.6 341.316 374.382 343.715 375.757 345.91C377.131 348.104 378.045 350.02 378.578 351.257C379.112 352.493 379.238 352.992 379.357 354.004" stroke="#82CD19" stroke-width="1.74016" stroke-linecap="round"/>
<path d="M370.219 337.197C370.284 337.197 370.35 337.197 372.581 337.227C374.811 337.257 379.204 337.317 382.033 337.422C384.862 337.526 385.994 337.673 387.074 337.893C388.153 338.113 389.146 338.401 390.355 338.773" stroke="#82CD19" stroke-width="1.74016" stroke-linecap="round"/>
<path d="M395.829 356.694C396.329 356.628 399.171 356.514 400.988 356.77C402.347 356.962 404.094 359.881 406.282 362.581C407.011 363.481 406.728 363.605 406.305 364.006C405.882 364.408 405.267 365.13 404.903 365.615C404.538 366.1 404.443 366.326 406.413 367.366C408.383 368.406 412.422 370.254 416.63 372.21" stroke="#82CD19" stroke-width="1.74016" stroke-linecap="round"/>
<path d="M421.241 361.414C421.255 363.552 421.833 369.631 423.824 373.726C425.725 377.121 428.69 382.243 431.551 385.036C432.378 385.677 433.297 386.247 434.54 386.916" stroke="#82CD19" stroke-width="1.74016" stroke-linecap="round"/>
<path d="M368.794 325.339C368.794 325.325 368.794 325.312 368.794 324.722C368.794 324.132 368.794 322.966 368.663 322.199C368.531 321.433 368.269 321.102 367.596 320.729" stroke="#82CD19" stroke-width="1.74016" stroke-linecap="round"/>
<path d="M428.689 378.886H438.739" stroke="#82CD19" stroke-width="1.74016" stroke-linecap="round"/>
<path d="M436.312 399.442C436.383 399.052 437.05 397.625 438.77 396.021C439.331 395.499 440.168 395.017 441.568 394.25C442.969 393.483 444.958 392.505 446.714 391.779C448.469 391.054 449.931 390.611 451.527 390.296C453.123 389.981 454.81 389.809 456.204 389.728C458.648 389.586 460.825 390.009 462.864 390.689C464.586 391.404 466.202 392.378 467.742 393.608C468.463 394.24 469.061 394.884 469.677 395.549" stroke="white" stroke-opacity="0.68" stroke-width="3.48031" stroke-linecap="round"/>
<path opacity="0.2" d="M259.428 399.215C259.428 399.266 259.507 399.779 259.748 400.646C259.95 401.371 260.727 401.685 261.452 401.913C263.056 402.417 265.319 401.175 267.292 400.589C268.351 400.275 269.361 400.563 270.097 400.885C273.792 402.497 277.111 407.7 280.289 408.486C288.01 409.184 290.44 409.962 292.687 411.153C293.36 411.445 294.177 411.691 295.018 411.946" stroke="#657072" stroke-width="1.74016" stroke-linecap="round"/>
<path opacity="0.2" d="M308.671 403.112C307.122 402.323 305.707 401.558 304.569 400.862C302.597 399.56 300.739 398.277 292.4 395.384C290.943 395.039 289.223 394.673 287.333 394.294" stroke="#657072" stroke-width="1.74016" stroke-linecap="round"/>
<path d="M362.931 403.112C362.944 403.112 364.828 403.112 368.006 403.171C371.996 403.916 374.998 404.974 375.574 405.274C375.847 405.428 376.082 405.585 376.417 405.815" stroke="white" stroke-opacity="0.68" stroke-width="3.48031" stroke-linecap="round"/>
<path d="M187.753 301.337C189.385 301.318 196.262 302.597 200.435 305.152C203.053 306.755 203.778 309.335 204.822 311.068C205.157 311.629 205.535 312.301 205.838 312.845C206.14 313.389 206.355 313.783 206.339 314.811" stroke="white" stroke-opacity="0.68" stroke-width="3.48031" stroke-linecap="round"/>
<path d="M161.923 439.051C161.949 439.051 161.975 438.596 161.689 436.928C160.783 433.755 160.062 429.539 159.991 425.852C160.014 424.364 160.16 423.652 160.566 422.766" stroke="white" stroke-opacity="0.68" stroke-width="3.48031" stroke-linecap="round"/>
<path d="M161.987 417.822C161.987 417.756 162.337 416.726 163.239 414.53C163.791 413.33 164.532 411.956 164.975 411.181C165.418 410.406 165.541 410.273 165.667 410.135" stroke="white" stroke-opacity="0.68" stroke-width="3.48031" stroke-linecap="round"/>
<path d="M99.1532 372.181C99.1711 372.181 100.397 372.185 102.785 372.333C105.044 372.758 106.383 373.147 107.334 373.699C108.066 374.153 109.305 374.96 110.995 376.075" stroke="white" stroke-opacity="0.68" stroke-width="3.48031" stroke-linecap="round"/>
<path d="M111.333 424.337C111.365 424.337 112.43 423.609 115.482 420.865C117.486 418.848 120.414 415.564 121.976 413.751C123.538 411.937 123.644 411.695 123.753 411.445" stroke="white" stroke-opacity="0.68" stroke-width="3.48031" stroke-linecap="round"/>
<path d="M273.547 373.85C273.547 373.825 273.547 373.8 273.384 369.789C273.222 365.777 272.897 357.78 272.936 352.448C272.974 347.115 273.386 344.691 273.938 341.991" stroke="#C99A00" stroke-opacity="0.5" stroke-width="1.74016" stroke-linecap="round"/>
<path d="M254.168 360.387C254.189 360.366 254.211 359.925 254.754 359.059C255.715 357.527 258.582 357.549 260.482 357.301C261.537 357.366 262.566 359.32 264.475 361.356C265.636 362.05 267.759 363.235 270.173 364.523" stroke="#C99A00" stroke-opacity="0.5" stroke-width="1.74016" stroke-linecap="round"/>
<path d="M255.788 334.366C255.832 336.506 256.041 341.434 257.13 343.646C257.837 345.081 261.688 347.493 264.155 349.321C264.966 350.336 265.944 352.747 266.736 356.026C266.832 356.683 266.819 357.1 266.805 357.53" stroke="#C99A00" stroke-opacity="0.5" stroke-width="1.74016" stroke-linecap="round"/>
</svg>
