<svg width="361" height="232" viewBox="0 0 361 232" fill="none" xmlns="http://www.w3.org/2000/svg">
<rect x="14.4719" width="347" height="207.463" rx="20" transform="rotate(4 14.4719 0)" fill="#E5FFF9"/>
<path d="M34.8155 46.5324L35.8549 31.6687L45.651 32.3537L45.5045 34.4486L38.0626 33.9282L37.7641 38.1978L44.8069 38.6903L44.6604 40.7852L37.6176 40.2927L37.3162 44.6022L44.7581 45.1226L44.6116 47.2174L34.8155 46.5324ZM50.143 47.8448C49.4115 47.7937 48.7752 47.6222 48.2342 47.3304C47.7075 47.0263 47.307 46.6374 47.0327 46.1638C46.7593 45.6768 46.6445 45.1208 46.6882 44.4957C46.7291 43.9104 46.8922 43.3939 47.1775 42.946C47.4761 42.4991 47.9092 42.1351 48.4769 41.854C49.0445 41.5729 49.7453 41.3947 50.5793 41.3194L54.3734 40.9632L54.2492 42.7388L50.8968 43.0858C50.2908 43.1504 49.8384 43.3125 49.5396 43.5723C49.2417 43.8188 49.0778 44.1549 49.0481 44.5805C49.0192 44.9928 49.1485 45.3427 49.4358 45.6301C49.7373 45.9051 50.1342 46.0599 50.6263 46.0943C51.2381 46.1371 51.7795 46.0413 52.2503 45.8069C52.7344 45.5734 53.1182 45.246 53.4016 44.8248C53.686 44.3902 53.8472 43.9003 53.8853 43.3549L54.0793 40.5817C54.1165 40.0497 53.9472 39.6034 53.5714 39.243C53.2099 38.8702 52.7032 38.661 52.0515 38.6155C51.4529 38.5736 50.9164 38.6965 50.4418 38.9841C49.9815 39.2593 49.6277 39.6356 49.3805 40.1128L47.5707 39.0439C47.8074 38.5259 48.1658 38.0831 48.6459 37.7157C49.127 37.335 49.6747 37.0525 50.2891 36.8683C50.9167 36.6849 51.5697 36.617 52.248 36.6644C53.0993 36.724 53.8396 36.9361 54.4691 37.3009C55.1118 37.6666 55.5927 38.148 55.9118 38.7451C56.2452 39.3298 56.3858 39.9945 56.3337 40.7394L55.8259 48.0016L53.6712 47.851L53.8079 45.8957L54.2626 45.9877C53.9792 46.4089 53.6268 46.7652 53.2055 47.0565C52.7974 47.3488 52.3346 47.5637 51.8171 47.7013C51.3129 47.8398 50.7549 47.8876 50.143 47.8448ZM58.8111 48.2104L59.5659 37.4167L61.7206 37.5674L61.5686 39.7421L61.3914 39.4089C61.6801 38.7207 62.1012 38.2423 62.6546 37.9735C63.2089 37.6915 63.8585 37.5766 64.6034 37.6286L65.2618 37.6747L65.1181 39.7297L64.1804 39.6641C63.4355 39.612 62.8141 39.8025 62.316 40.2354C61.8321 40.656 61.5604 41.292 61.5009 42.1432L61.0656 48.368L58.8111 48.2104ZM66.3887 48.7403L67.1435 37.9466L69.2982 38.0973L69.1503 40.2121L68.9105 39.9147C69.224 39.2549 69.6854 38.7726 70.2948 38.4677C70.9052 38.1495 71.5961 38.0174 72.3675 38.0713C73.1656 38.1271 73.8584 38.3493 74.4461 38.7379C75.0337 39.1265 75.4791 39.6389 75.7821 40.2749C76.0852 40.9109 76.2088 41.6279 76.153 42.426L75.6661 49.389L73.4315 49.2327L73.8766 42.8683C73.9147 42.3229 73.847 41.8571 73.6736 41.4707C73.501 41.071 73.2355 40.7584 72.877 40.5329C72.5328 40.2949 72.1279 40.1597 71.6624 40.1271C71.1969 40.0946 70.7704 40.1717 70.3831 40.3585C70.0101 40.5329 69.7103 40.806 69.4838 41.1777C69.2573 41.5495 69.1255 42.0014 69.0883 42.5334L68.6432 48.8979L66.3887 48.7403ZM82.4843 49.8658L83.5236 35.0021L88.9304 35.3801C89.928 35.4499 90.7928 35.6975 91.5249 36.1229C92.2713 36.536 92.8326 37.1099 93.2089 37.8446C93.5862 38.566 93.7409 39.4122 93.673 40.3831C93.606 41.3408 93.3289 42.1501 92.8416 42.8111C92.3676 43.4729 91.7385 43.9636 90.9543 44.283C90.1701 44.6024 89.2793 44.7272 88.2817 44.6575L85.2291 44.444L84.8385 50.0304L82.4843 49.8658ZM85.3756 42.3491L88.488 42.5668C89.0201 42.604 89.493 42.5301 89.9069 42.3452C90.3209 42.1603 90.6539 41.8895 90.906 41.5329C91.1591 41.163 91.3038 40.7187 91.3401 40.2C91.3764 39.6812 91.2945 39.2277 91.0944 38.8395C90.8952 38.438 90.6031 38.1235 90.2181 37.8961C89.8339 37.6554 89.3758 37.5164 88.8438 37.4792L85.7314 37.2616L85.3756 42.3491ZM100.313 51.3531C99.2755 51.2805 98.3417 50.9679 97.5116 50.4154C96.6947 49.8637 96.0634 49.1446 95.6175 48.258C95.1716 47.3714 94.9863 46.3894 95.0616 45.312C95.1379 44.2213 95.458 43.2747 96.0221 42.4721C96.587 41.6562 97.3119 41.0386 98.1966 40.6193C99.0823 40.1867 100.05 40.0071 101.101 40.0806C102.165 40.155 103.099 40.4676 103.903 41.0183C104.72 41.5566 105.346 42.2686 105.778 43.1543C106.225 44.0276 106.41 45.0096 106.334 46.1003C106.258 47.1909 105.937 48.1442 105.372 48.9601C104.807 49.7761 104.082 50.4003 103.196 50.8329C102.312 51.2522 101.35 51.4256 100.313 51.3531ZM100.459 49.2582C101.098 49.3028 101.674 49.1894 102.187 48.9179C102.701 48.6464 103.116 48.2544 103.433 47.7419C103.763 47.217 103.952 46.6154 104 45.937C104.047 45.2587 103.943 44.6433 103.688 44.0908C103.446 43.5392 103.089 43.0933 102.619 42.7529C102.148 42.4126 101.593 42.2201 100.955 42.1755C100.33 42.1318 99.7536 42.2452 99.2268 42.5158C98.7133 42.7873 98.2916 43.1788 97.9618 43.6904C97.6453 44.2029 97.4633 44.7983 97.4159 45.4766C97.3684 46.155 97.4653 46.7766 97.7065 47.3415C97.9619 47.894 98.325 48.3404 98.7957 48.6807C99.2798 49.022 99.8344 49.2145 100.459 49.2582ZM108.506 51.6854L109.261 40.8917L111.515 41.0494L110.761 51.843L108.506 51.6854ZM109.364 39.4154L109.546 36.8217L111.8 36.9793L111.619 39.573L109.364 39.4154ZM113.746 52.0518L114.501 41.2581L116.655 41.4088L116.507 43.5236L116.268 43.2262C116.581 42.5664 117.042 42.0841 117.652 41.7792C118.262 41.461 118.953 41.3289 119.725 41.3828C120.523 41.4387 121.215 41.6609 121.803 42.0495C122.391 42.4381 122.836 42.9504 123.139 43.5864C123.442 44.2224 123.566 44.9395 123.51 45.7375L123.023 52.7005L120.789 52.5443L121.234 46.1798C121.272 45.6345 121.204 45.1686 121.031 44.7822C120.858 44.3826 120.593 44.0699 120.234 43.8444C119.89 43.6065 119.485 43.4712 119.019 43.4387C118.554 43.4061 118.127 43.4832 117.74 43.67C117.367 43.8444 117.067 44.1175 116.841 44.4893C116.614 44.861 116.482 45.3129 116.445 45.845L116 52.2094L113.746 52.0518ZM130.445 53.3398C129.315 53.2608 128.459 52.8802 127.879 52.198C127.298 51.5158 127.048 50.5962 127.129 49.439L127.495 44.2118L125.599 44.0792L125.742 42.0442L126.041 42.0651C126.547 42.1005 126.949 41.9816 127.249 41.7085C127.549 41.4354 127.716 41.0462 127.752 40.5407L127.81 39.7028L130.065 39.8604L129.892 42.3344L132.346 42.506L132.203 44.541L129.749 44.3694L129.391 49.4969C129.365 49.8693 129.402 50.1927 129.503 50.4671C129.605 50.7282 129.784 50.9412 130.04 51.1061C130.297 51.2577 130.638 51.3484 131.064 51.3782C131.17 51.3856 131.29 51.3873 131.424 51.3833C131.558 51.3793 131.685 51.3749 131.806 51.3699L131.671 53.3052C131.483 53.3188 131.275 53.331 131.047 53.3418C130.819 53.3526 130.618 53.3519 130.445 53.3398ZM138.193 54.0019C137.09 53.9247 136.138 53.5842 135.338 52.9802C134.551 52.3772 134.024 51.6052 133.755 50.6642L135.548 49.9676C135.798 50.5999 136.163 51.1133 136.644 51.5077C137.137 51.9031 137.697 52.1227 138.322 52.1664C138.854 52.2036 139.295 52.1141 139.644 51.898C139.993 51.6818 140.182 51.3675 140.211 50.9552C140.23 50.6892 140.171 50.4713 140.036 50.3014C139.902 50.1183 139.725 49.9656 139.507 49.8434C139.301 49.7221 139.087 49.627 138.865 49.5579L137.203 48.9605C136.29 48.6294 135.62 48.1815 135.192 47.617C134.777 47.04 134.596 46.3924 134.646 45.6742C134.691 45.0224 134.897 44.4687 135.263 44.0132C135.63 43.5443 136.115 43.1973 136.719 42.9722C137.323 42.7471 137.991 42.6601 138.722 42.7113C139.707 42.7801 140.567 43.0876 141.304 43.6337C142.042 44.1664 142.541 44.8763 142.799 45.7631L141.006 46.4598C140.83 45.9261 140.52 45.4901 140.075 45.1516C139.645 44.8141 139.143 44.6253 138.571 44.5853C138.079 44.5509 137.678 44.6432 137.369 44.8621C137.061 45.0678 136.893 45.3568 136.867 45.7293C136.85 45.982 136.901 46.1994 137.022 46.3816C137.144 46.5506 137.308 46.6957 137.513 46.8169C137.719 46.9249 137.933 47.0201 138.155 47.1024L139.874 47.7439C140.748 48.0589 141.405 48.5059 141.845 49.0847C142.287 49.6502 142.482 50.3054 142.43 51.0502C142.385 51.6887 142.173 52.2419 141.792 52.7098C141.426 53.1654 140.934 53.5119 140.316 53.7494C139.699 53.9735 138.992 54.0577 138.193 54.0019Z" fill="#1E3300"/>
<path d="M29.9381 152.523C29.3715 152.483 28.86 152.343 28.4037 152.103C27.9479 151.855 27.5692 151.535 27.2677 151.145C26.9661 150.755 26.7595 150.328 26.6476 149.863L27.6944 149.515C27.8697 150.105 28.158 150.57 28.5592 150.911C28.9689 151.244 29.4611 151.431 30.0357 151.471C30.3868 151.496 30.698 151.461 30.9692 151.368C31.2403 151.275 31.4547 151.133 31.6123 150.944C31.7785 150.747 31.871 150.513 31.89 150.242C31.9162 149.867 31.8291 149.564 31.6287 149.333C31.4368 149.095 31.1413 148.906 30.7421 148.766L29.1373 148.149C28.5048 147.904 28.0321 147.554 27.719 147.099C27.406 146.644 27.269 146.137 27.3081 145.579C27.3421 145.092 27.4877 144.673 27.7448 144.322C28.0105 143.964 28.358 143.695 28.7875 143.517C29.2256 143.331 29.7119 143.257 30.2466 143.294C30.7813 143.331 31.2574 143.461 31.675 143.683C32.1005 143.905 32.4535 144.19 32.7339 144.539C33.0148 144.879 33.2126 145.262 33.3272 145.687L32.2924 146.035C32.136 145.519 31.8752 145.12 31.51 144.838C31.1454 144.548 30.7037 144.385 30.1849 144.348C29.8657 144.326 29.5785 144.362 29.3233 144.457C29.0766 144.544 28.8782 144.686 28.728 144.884C28.5864 145.075 28.5058 145.31 28.4863 145.589C28.4634 145.916 28.5468 146.215 28.7364 146.485C28.926 146.754 29.2276 146.972 29.6411 147.137L31.1064 147.685C31.7937 147.949 32.3029 148.294 32.6341 148.718C32.9653 149.142 33.1103 149.649 33.069 150.24C33.0349 150.727 32.8771 151.149 32.5955 151.506C32.3219 151.864 31.9541 152.135 31.4921 152.319C31.0387 152.496 30.5207 152.564 29.9381 152.523ZM37.7987 153.073C37.1762 153.029 36.6319 152.843 36.1657 152.513C35.6996 152.184 35.3447 151.754 35.1011 151.224C34.858 150.686 34.7588 150.097 34.8035 149.459C34.8487 148.813 35.0245 148.247 35.331 147.764C35.6455 147.28 36.0482 146.912 36.5392 146.657C37.0386 146.395 37.5837 146.285 38.1742 146.326C38.653 146.36 39.0699 146.477 39.4247 146.679C39.7881 146.872 40.0871 147.126 40.3218 147.439C40.5651 147.745 40.7415 148.09 40.8509 148.474C40.9689 148.852 41.0139 149.24 40.986 149.639C40.9799 149.726 40.9649 149.826 40.9411 149.936C40.9259 150.039 40.907 150.138 40.8843 150.233L35.5932 149.863L35.6602 148.905L40.3049 149.23L39.748 149.624C39.8488 149.214 39.8349 148.84 39.7061 148.503C39.5774 148.165 39.3721 147.89 39.0902 147.678C38.8083 147.465 38.4798 147.346 38.1047 147.32C37.7297 147.294 37.3798 147.366 37.0552 147.535C36.7305 147.705 36.4679 147.963 36.2672 148.31C36.075 148.65 35.9779 149.064 35.9758 149.553C35.9109 150.022 35.9537 150.442 36.1042 150.813C36.2632 151.177 36.4993 151.47 36.8126 151.693C37.1344 151.908 37.4908 152.029 37.8818 152.056C38.3128 152.086 38.6829 152.012 38.9921 151.833C39.3013 151.654 39.5586 151.415 39.7639 151.117L40.6642 151.661C40.5158 151.948 40.2973 152.205 40.0087 152.433C39.7286 152.654 39.4 152.824 39.0228 152.942C38.6537 153.06 38.2456 153.104 37.7987 153.073ZM45.1589 153.515C44.5284 153.471 44.0541 153.258 43.7361 152.874C43.426 152.492 43.2939 151.973 43.3396 151.319L43.5774 147.919L42.4042 147.837L42.4787 146.772L42.7181 146.789C43.0054 146.809 43.239 146.737 43.4189 146.573C43.5988 146.409 43.6987 146.183 43.7188 145.896L43.7557 145.369L44.8689 145.447L44.7651 146.932L46.2136 147.033L46.1391 148.098L44.6906 147.997L44.4554 151.361C44.4404 151.576 44.4592 151.766 44.5118 151.93C44.5725 152.095 44.6793 152.231 44.8322 152.338C44.9857 152.436 45.1941 152.495 45.4575 152.514C45.5133 152.518 45.5814 152.518 45.6618 152.516C45.7501 152.514 45.8305 152.512 45.9029 152.509L45.8342 153.49C45.7288 153.507 45.612 153.515 45.4837 153.514C45.3549 153.521 45.2466 153.521 45.1589 153.515ZM47.6377 153.616L48.0888 147.164L49.2021 147.242L48.7509 153.694L47.6377 153.616ZM48.1608 146.135L48.2613 144.698L49.3746 144.776L49.2741 146.212L48.1608 146.135ZM52.7089 154.115C52.2859 154.086 51.9161 153.984 51.5995 153.809C51.2915 153.627 51.0551 153.394 50.8906 153.11C50.7265 152.818 50.6571 152.492 50.6822 152.133C50.7062 151.79 50.7995 151.488 50.9621 151.226C51.1333 150.958 51.3812 150.738 51.7058 150.569C52.0384 150.4 52.4469 150.292 52.9314 150.245L55.3531 150.018L55.2878 150.952L53.12 151.161C52.6999 151.204 52.3875 151.314 52.1826 151.492C51.9856 151.671 51.8774 151.9 51.8578 152.179C51.8394 152.443 51.9278 152.669 52.123 152.859C52.3262 153.05 52.5874 153.157 52.9067 153.179C53.3137 153.207 53.6707 153.148 53.9777 153.001C54.2932 152.847 54.5451 152.628 54.7333 152.344C54.9296 152.061 55.0402 151.74 55.0653 151.381L55.18 149.741C55.2046 149.39 55.0927 149.097 54.8444 148.864C54.6047 148.622 54.2733 148.487 53.8503 148.457C53.4832 148.431 53.1493 148.504 52.8486 148.676C52.5565 148.84 52.3317 149.073 52.1743 149.374L51.2398 148.804C51.3801 148.517 51.5901 148.267 51.8696 148.054C52.1497 147.833 52.4701 147.667 52.8307 147.556C53.1914 147.445 53.5632 147.403 53.9463 147.429C54.4411 147.464 54.8693 147.59 55.231 147.808C55.5932 148.018 55.8664 148.297 56.0504 148.647C56.243 148.989 56.324 149.38 56.2933 149.819L55.9869 154.2L54.8976 154.124L54.983 152.903L55.1814 152.989C55.0279 153.235 54.8287 153.446 54.5839 153.621C54.3391 153.796 54.0571 153.929 53.7381 154.019C53.419 154.109 53.076 154.141 52.7089 154.115ZM57.8948 156.739L58.5134 147.893L59.6027 147.969L59.5056 149.358L59.3812 149.072C59.6474 148.706 59.9958 148.426 60.4264 148.231C60.8576 148.029 61.3406 147.946 61.8752 147.984C62.4818 148.026 63.0141 148.212 63.4723 148.541C63.9385 148.87 64.2933 149.3 64.5369 149.83C64.7811 150.352 64.8806 150.937 64.8354 151.583C64.7913 152.214 64.6117 152.774 64.2967 153.266C63.9817 153.757 63.5704 154.133 63.063 154.394C62.5635 154.656 62.0065 154.765 61.392 154.723C60.8733 154.686 60.4065 154.537 59.9918 154.276C59.585 154.015 59.2806 153.665 59.0788 153.226L59.2717 153.047L59.0081 156.817L57.8948 156.739ZM61.3835 153.639C61.7905 153.668 62.1606 153.593 62.4938 153.416C62.827 153.239 63.0933 152.985 63.2929 152.654C63.501 152.316 63.6201 151.931 63.6503 151.5C63.6815 151.053 63.6171 150.656 63.457 150.308C63.3054 149.952 63.077 149.664 62.7717 149.442C62.467 149.212 62.1111 149.083 61.7041 149.054C61.2971 149.026 60.9231 149.1 60.5819 149.277C60.2487 149.454 59.9741 149.711 59.758 150.049C59.5505 150.379 59.4313 150.764 59.4007 151.203C59.3705 151.634 59.435 152.031 59.5939 152.395C59.7615 152.752 59.9979 153.041 60.3032 153.263C60.6164 153.485 60.9765 153.611 61.3835 153.639ZM68.8375 155.099L69.4711 146.037L70.5844 146.115L69.9507 155.177L68.8375 155.099ZM73.9087 155.598C73.4857 155.568 73.1159 155.466 72.7993 155.292C72.4912 155.11 72.2549 154.877 72.0903 154.592C71.9263 154.3 71.8569 153.975 71.882 153.616C71.906 153.272 71.9993 152.97 72.1619 152.709C72.3331 152.44 72.581 152.221 72.9056 152.051C73.2382 151.882 73.6467 151.774 74.1311 151.728L76.5529 151.5L76.4876 152.434L74.3198 152.643C73.8997 152.686 73.5873 152.797 73.3823 152.975C73.1854 153.153 73.0772 153.382 73.0576 153.662C73.0392 153.925 73.1276 154.152 73.3228 154.342C73.526 154.532 73.7872 154.639 74.1065 154.661C74.5135 154.69 74.8705 154.63 75.1775 154.484C75.493 154.329 75.7449 154.11 75.9331 153.827C76.1293 153.544 76.24 153.223 76.2651 152.863L76.3798 151.223C76.4044 150.872 76.2925 150.58 76.0442 150.346C75.8045 150.105 75.4731 149.969 75.0501 149.94C74.683 149.914 74.3491 149.987 74.0484 150.158C73.7563 150.322 73.5315 150.555 73.3741 150.857L72.4396 150.286C72.5799 149.999 72.7899 149.749 73.0694 149.536C73.3495 149.315 73.6699 149.149 74.0305 149.038C74.3911 148.927 74.763 148.885 75.1461 148.912C75.6408 148.946 76.0691 149.073 76.4308 149.29C76.793 149.5 77.0662 149.78 77.2502 150.13C77.4428 150.472 77.5238 150.862 77.4931 151.301L77.1867 155.683L76.0974 155.606L76.1828 154.385L76.3812 154.471C76.2277 154.717 76.0285 154.928 75.7837 155.103C75.5389 155.279 75.2569 155.411 74.9379 155.501C74.6188 155.591 74.2758 155.623 73.9087 155.598ZM79.0946 158.222L79.7132 149.376L80.8025 149.452L80.7054 150.84L80.581 150.555C80.8472 150.189 81.1956 149.908 81.6262 149.714C82.0574 149.511 82.5403 149.429 83.075 149.466C83.6816 149.509 84.2139 149.694 84.6721 150.023C85.1383 150.352 85.4931 150.782 85.7367 151.312C85.9809 151.835 86.0804 152.419 86.0352 153.065C85.9911 153.696 85.8115 154.257 85.4965 154.748C85.1815 155.239 84.7702 155.615 84.2628 155.877C83.7633 156.139 83.2063 156.248 82.5918 156.205C82.0731 156.169 81.6063 156.02 81.1915 155.758C80.7848 155.497 80.4804 155.147 80.2786 154.708L80.4715 154.529L80.2079 158.3L79.0946 158.222ZM82.5833 155.122C82.9903 155.15 83.3604 155.076 83.6936 154.899C84.0268 154.721 84.2931 154.467 84.4927 154.137C84.7008 153.798 84.8199 153.414 84.8501 152.983C84.8813 152.536 84.8169 152.138 84.6568 151.79C84.5052 151.435 84.2768 151.146 83.9715 150.924C83.6668 150.695 83.3109 150.565 82.9039 150.537C82.4969 150.508 82.1229 150.583 81.7817 150.759C81.4485 150.936 81.1739 151.194 80.9578 151.532C80.7503 151.862 80.6311 152.247 80.6005 152.685C80.5703 153.116 80.6347 153.514 80.7937 153.878C80.9613 154.234 81.1977 154.524 81.503 154.745C81.8162 154.968 82.1763 155.093 82.5833 155.122ZM90.6734 156.77C90.0509 156.727 89.4983 156.544 89.0157 156.221C88.5335 155.891 88.1627 155.46 87.9031 154.928C87.6436 154.397 87.5364 153.808 87.5816 153.162C87.6268 152.515 87.8106 151.951 88.1331 151.468C88.4635 150.986 88.8904 150.615 89.4139 150.355C89.9373 150.094 90.5142 149.986 91.1447 150.031C91.7672 150.074 92.3195 150.261 92.8016 150.591C93.2843 150.914 93.6517 151.337 93.9038 151.859C94.1639 152.383 94.2711 152.972 94.2254 153.626C94.1796 154.281 93.9872 154.853 93.6483 155.342C93.3098 155.824 92.8789 156.195 92.3555 156.455C91.8406 156.707 91.2799 156.812 90.6734 156.77ZM90.7487 155.693C91.1478 155.721 91.5139 155.646 91.847 155.469C92.1882 155.292 92.4628 155.035 92.6709 154.696C92.887 154.359 93.0101 153.974 93.0403 153.543C93.0709 153.104 93.0022 152.711 92.8342 152.362C92.6746 152.006 92.4382 151.717 92.1249 151.494C91.8202 151.265 91.4684 151.136 91.0693 151.108C90.6623 151.079 90.288 151.158 89.9463 151.342C89.6131 151.519 89.3387 151.773 89.1232 152.103C88.9082 152.424 88.7854 152.805 88.7547 153.244C88.7246 153.675 88.793 154.072 88.96 154.437C89.127 154.801 89.3631 155.095 89.6684 155.316C89.9816 155.539 90.3417 155.664 90.7487 155.693ZM95.8005 156.984L96.2517 150.532L97.341 150.608L97.2582 151.793L97.1502 151.617C97.3275 151.261 97.5779 151.006 97.9014 150.852C98.2255 150.69 98.611 150.625 99.0579 150.656L99.4529 150.684L99.3793 151.737L98.8166 151.698C98.3617 151.666 97.9846 151.784 97.6852 152.052C97.3863 152.311 97.2188 152.701 97.1825 153.219L96.9138 157.062L95.8005 156.984ZM102.216 157.577C101.793 157.548 101.423 157.446 101.107 157.271C100.799 157.089 100.562 156.856 100.398 156.572C100.234 156.28 100.164 155.954 100.189 155.595C100.213 155.252 100.307 154.95 100.469 154.688C100.641 154.42 100.888 154.2 101.213 154.031C101.546 153.861 101.954 153.754 102.439 153.707L104.86 153.48L104.795 154.413L102.627 154.623C102.207 154.665 101.895 154.776 101.69 154.954C101.493 155.133 101.385 155.362 101.365 155.641C101.347 155.904 101.435 156.131 101.63 156.321C101.833 156.512 102.095 156.618 102.414 156.641C102.821 156.669 103.178 156.61 103.485 156.463C103.8 156.309 104.052 156.09 104.241 155.806C104.437 155.523 104.547 155.202 104.573 154.843L104.687 153.203C104.712 152.852 104.6 152.559 104.352 152.325C104.112 152.084 103.781 151.949 103.358 151.919C102.99 151.893 102.657 151.966 102.356 152.138C102.064 152.302 101.839 152.535 101.681 152.836L100.747 152.266C100.887 151.979 101.097 151.729 101.377 151.516C101.657 151.295 101.977 151.129 102.338 151.018C102.699 150.907 103.07 150.864 103.453 150.891C103.948 150.926 104.377 151.052 104.738 151.27C105.1 151.48 105.374 151.759 105.558 152.109C105.75 152.451 105.831 152.842 105.801 153.281L105.494 157.662L104.405 157.586L104.49 156.365L104.689 156.451C104.535 156.697 104.336 156.907 104.091 157.083C103.846 157.258 103.564 157.391 103.245 157.481C102.926 157.571 102.583 157.603 102.216 157.577ZM107.569 157.807L108.021 151.355L109.11 151.431L109.022 152.688L108.85 152.568C109.038 152.172 109.316 151.875 109.682 151.676C110.058 151.469 110.485 151.383 110.964 151.416C111.426 151.449 111.83 151.581 112.175 151.814C112.527 152.047 112.795 152.354 112.976 152.736C113.166 153.118 113.245 153.541 113.213 154.004L112.92 158.181L111.795 158.103L112.062 154.284C112.087 153.925 112.045 153.617 111.934 153.361C111.824 153.105 111.654 152.9 111.424 152.748C111.202 152.588 110.94 152.497 110.637 152.476C110.334 152.455 110.057 152.508 109.808 152.635C109.567 152.754 109.37 152.937 109.216 153.183C109.063 153.421 108.974 153.715 108.95 154.066L108.683 157.885L107.569 157.807ZM119.076 158.612L117.002 151.983L118.247 152.07L119.888 157.67L119.457 157.64L121.874 152.324L123.119 152.411L120.13 158.686L119.076 158.612ZM125.66 159.217C125.237 159.187 124.868 159.085 124.551 158.91C124.243 158.729 124.007 158.495 123.842 158.211C123.678 157.919 123.609 157.594 123.634 157.234C123.658 156.891 123.751 156.589 123.914 156.328C124.085 156.059 124.333 155.84 124.657 155.67C124.99 155.501 125.398 155.393 125.883 155.347L128.305 155.119L128.239 156.053L126.072 156.262C125.651 156.305 125.339 156.415 125.134 156.593C124.937 156.772 124.829 157.001 124.809 157.281C124.791 157.544 124.879 157.771 125.075 157.961C125.278 158.151 125.539 158.258 125.858 158.28C126.265 158.309 126.622 158.249 126.929 158.102C127.245 157.948 127.497 157.729 127.685 157.446C127.881 157.163 127.992 156.841 128.017 156.482L128.132 154.842C128.156 154.491 128.044 154.199 127.796 153.965C127.556 153.723 127.225 153.588 126.802 153.558C126.435 153.533 126.101 153.606 125.8 153.777C125.508 153.941 125.283 154.174 125.126 154.476L124.191 153.905C124.332 153.618 124.542 153.368 124.821 153.155C125.101 152.934 125.422 152.768 125.782 152.657C126.143 152.546 126.515 152.504 126.898 152.531C127.393 152.565 127.821 152.691 128.183 152.909C128.545 153.119 128.818 153.399 129.002 153.748C129.195 154.091 129.276 154.481 129.245 154.92L128.938 159.301L127.849 159.225L127.935 158.004L128.133 158.09C127.979 158.336 127.78 158.547 127.535 158.722C127.291 158.898 127.009 159.03 126.69 159.12C126.371 159.21 126.028 159.242 125.66 159.217ZM131.014 159.447L131.647 150.385L132.761 150.463L132.127 159.524L131.014 159.447ZM134.204 159.67L134.655 153.217L135.768 153.295L135.317 159.747L134.204 159.67ZM134.727 152.188L134.827 150.751L135.941 150.829L135.84 152.266L134.727 152.188ZM140.316 160.241C139.71 160.199 139.173 160.013 138.707 159.684C138.249 159.355 137.898 158.926 137.655 158.395C137.411 157.865 137.311 157.285 137.355 156.654C137.401 156.008 137.58 155.443 137.895 154.96C138.21 154.468 138.617 154.092 139.117 153.83C139.624 153.569 140.181 153.459 140.788 153.502C141.322 153.539 141.789 153.688 142.188 153.949C142.587 154.201 142.893 154.527 143.106 154.927L142.907 155.19L143.187 151.192L144.312 151.27L143.678 160.332L142.589 160.256L142.685 158.879L142.815 159.081C142.562 159.488 142.212 159.793 141.765 159.994C141.326 160.196 140.843 160.278 140.316 160.241ZM140.487 159.171C140.894 159.199 141.264 159.125 141.598 158.948C141.931 158.77 142.201 158.517 142.409 158.186C142.625 157.849 142.748 157.464 142.778 157.033C142.809 156.594 142.74 156.197 142.573 155.84C142.414 155.476 142.182 155.183 141.876 154.961C141.571 154.74 141.215 154.614 140.808 154.586C140.409 154.558 140.039 154.636 139.697 154.821C139.364 154.998 139.093 155.252 138.886 155.582C138.679 155.905 138.56 156.289 138.528 156.736C138.498 157.167 138.563 157.565 138.722 157.929C138.881 158.285 139.114 158.573 139.419 158.795C139.724 159.017 140.08 159.142 140.487 159.171ZM151.092 160.995C150.485 160.953 149.949 160.767 149.483 160.437C149.024 160.109 148.673 159.679 148.43 159.149C148.186 158.618 148.086 158.038 148.131 157.408C148.176 156.761 148.356 156.196 148.67 155.713C148.985 155.222 149.392 154.845 149.892 154.584C150.399 154.322 150.956 154.213 151.563 154.255C152.097 154.293 152.564 154.442 152.963 154.702C153.362 154.955 153.668 155.281 153.881 155.681L153.682 155.943L153.962 151.945L155.087 152.024L154.453 161.086L153.364 161.009L153.46 159.633L153.591 159.834C153.338 160.242 152.987 160.546 152.54 160.747C152.101 160.949 151.618 161.032 151.092 160.995ZM151.263 159.924C151.67 159.953 152.04 159.878 152.373 159.701C152.706 159.524 152.976 159.27 153.184 158.94C153.4 158.602 153.523 158.218 153.553 157.787C153.584 157.348 153.516 156.95 153.348 156.594C153.189 156.23 152.957 155.937 152.652 155.715C152.346 155.493 151.99 155.368 151.583 155.339C151.184 155.312 150.814 155.39 150.472 155.575C150.139 155.752 149.869 156.005 149.661 156.336C149.454 156.658 149.335 157.043 149.304 157.49C149.274 157.921 149.338 158.318 149.497 158.682C149.657 159.038 149.889 159.327 150.194 159.549C150.499 159.771 150.856 159.896 151.263 159.924ZM158.407 161.506C157.984 161.477 157.614 161.375 157.298 161.2C156.99 161.018 156.753 160.785 156.589 160.501C156.425 160.209 156.355 159.883 156.38 159.524C156.404 159.181 156.498 158.879 156.66 158.618C156.831 158.349 157.079 158.13 157.404 157.96C157.737 157.791 158.145 157.683 158.629 157.637L161.051 157.409L160.986 158.343L158.818 158.552C158.398 158.595 158.086 158.705 157.881 158.883C157.684 159.062 157.576 159.291 157.556 159.57C157.538 159.834 157.626 160.06 157.821 160.251C158.024 160.441 158.286 160.548 158.605 160.57C159.012 160.598 159.369 160.539 159.676 160.392C159.991 160.238 160.243 160.019 160.431 159.735C160.628 159.452 160.738 159.131 160.763 158.772L160.878 157.132C160.903 156.781 160.791 156.489 160.543 156.255C160.303 156.013 159.971 155.878 159.548 155.848C159.181 155.823 158.847 155.896 158.547 156.067C158.255 156.231 158.03 156.464 157.872 156.766L156.938 156.195C157.078 155.908 157.288 155.658 157.568 155.445C157.848 155.224 158.168 155.058 158.529 154.947C158.889 154.836 159.261 154.794 159.644 154.82C160.139 154.855 160.567 154.981 160.929 155.199C161.291 155.409 161.565 155.689 161.749 156.038C161.941 156.381 162.022 156.771 161.991 157.21L161.685 161.591L160.596 161.515L160.681 160.294L160.88 160.38C160.726 160.626 160.527 160.837 160.282 161.012C160.037 161.187 159.755 161.32 159.436 161.41C159.117 161.5 158.774 161.532 158.407 161.506ZM163.593 164.131L164.212 155.284L165.301 155.36L165.204 156.749L165.079 156.464C165.346 156.097 165.694 155.817 166.125 155.622C166.556 155.42 167.039 155.338 167.573 155.375C168.18 155.417 168.712 155.603 169.17 155.932C169.637 156.261 169.991 156.691 170.235 157.221C170.479 157.743 170.579 158.328 170.534 158.974C170.489 159.605 170.31 160.165 169.995 160.657C169.68 161.148 169.269 161.524 168.761 161.785C168.262 162.047 167.705 162.157 167.09 162.114C166.571 162.077 166.105 161.928 165.69 161.667C165.283 161.406 164.979 161.056 164.777 160.617L164.97 160.438L164.706 164.208L163.593 164.131ZM167.082 161.03C167.489 161.059 167.859 160.985 168.192 160.807C168.525 160.63 168.792 160.376 168.991 160.045C169.199 159.707 169.318 159.322 169.348 158.891C169.38 158.444 169.315 158.047 169.155 157.699C169.004 157.343 168.775 157.055 168.47 156.833C168.165 156.603 167.809 156.474 167.402 156.446C166.995 156.417 166.621 156.491 166.28 156.668C165.947 156.845 165.672 157.103 165.456 157.44C165.249 157.771 165.129 158.155 165.099 158.594C165.069 159.025 165.133 159.423 165.292 159.787C165.46 160.143 165.696 160.432 166.001 160.654C166.315 160.877 166.675 161.002 167.082 161.03ZM173.999 162.597C173.576 162.567 173.206 162.465 172.889 162.291C172.581 162.109 172.345 161.876 172.18 161.591C172.016 161.299 171.947 160.974 171.972 160.615C171.996 160.271 172.089 159.969 172.252 159.708C172.423 159.439 172.671 159.22 172.996 159.05C173.328 158.881 173.737 158.773 174.221 158.727L176.643 158.499L176.578 159.433L174.41 159.642C173.99 159.685 173.677 159.795 173.472 159.974C173.275 160.152 173.167 160.381 173.148 160.661C173.129 160.924 173.218 161.151 173.413 161.341C173.616 161.531 173.877 161.638 174.196 161.66C174.603 161.689 174.96 161.629 175.267 161.483C175.583 161.328 175.835 161.109 176.023 160.826C176.219 160.543 176.33 160.222 176.355 159.862L176.47 158.222C176.494 157.871 176.382 157.579 176.134 157.345C175.894 157.104 175.563 156.968 175.14 156.939C174.773 156.913 174.439 156.986 174.138 157.157C173.846 157.321 173.621 157.554 173.464 157.856L172.53 157.285C172.67 156.998 172.88 156.748 173.159 156.535C173.439 156.314 173.76 156.148 174.12 156.037C174.481 155.926 174.853 155.884 175.236 155.911C175.731 155.945 176.159 156.072 176.521 156.289C176.883 156.499 177.156 156.779 177.34 157.129C177.533 157.471 177.614 157.861 177.583 158.3L177.277 162.682L176.187 162.605L176.273 161.384L176.471 161.47C176.318 161.716 176.118 161.927 175.874 162.102C175.629 162.278 175.347 162.41 175.028 162.5C174.709 162.59 174.366 162.622 173.999 162.597ZM181.852 163.074C181.221 163.03 180.747 162.816 180.429 162.433C180.119 162.05 179.987 161.532 180.032 160.877L180.27 157.478L179.097 157.396L179.172 156.33L179.411 156.347C179.698 156.367 179.932 156.295 180.112 156.131C180.292 155.968 180.392 155.742 180.412 155.455L180.448 154.928L181.562 155.006L181.458 156.49L182.906 156.591L182.832 157.657L181.383 157.556L181.148 160.919C181.133 161.135 181.152 161.325 181.205 161.489C181.265 161.653 181.372 161.789 181.525 161.896C181.678 161.995 181.887 162.054 182.15 162.072C182.206 162.076 182.274 162.077 182.355 162.074C182.443 162.073 182.523 162.07 182.596 162.067L182.527 163.049C182.422 163.065 182.305 163.073 182.177 163.072C182.048 163.079 181.939 163.08 181.852 163.074ZM25.5382 169.514L26.1568 160.667L27.2461 160.743L27.149 162.132L27.0246 161.847C27.2908 161.48 27.6392 161.2 28.0698 161.005C28.501 160.803 28.9839 160.72 29.5186 160.758C30.1252 160.8 30.6575 160.986 31.1157 161.315C31.5819 161.644 31.9367 162.074 32.1803 162.604C32.4245 163.126 32.524 163.711 32.4788 164.357C32.4347 164.988 32.2551 165.548 31.9401 166.04C31.6251 166.531 31.2138 166.907 30.7064 167.168C30.2069 167.43 29.6499 167.54 29.0354 167.497C28.5167 167.46 28.0499 167.311 27.6351 167.05C27.2284 166.789 26.924 166.439 26.7222 166L26.9151 165.821L26.6515 169.591L25.5382 169.514ZM29.0269 166.413C29.4339 166.442 29.804 166.367 30.1372 166.19C30.4704 166.013 30.7367 165.759 30.9363 165.428C31.1444 165.09 31.2635 164.705 31.2937 164.274C31.3249 163.827 31.2605 163.43 31.1004 163.082C30.9488 162.726 30.7204 162.438 30.4151 162.216C30.1104 161.986 29.7545 161.857 29.3475 161.829C28.9405 161.8 28.5664 161.874 28.2253 162.051C27.8921 162.228 27.6175 162.485 27.4014 162.823C27.1939 163.154 27.0747 163.538 27.044 163.977C27.0139 164.408 27.0783 164.805 27.2373 165.169C27.4049 165.526 27.6413 165.815 27.9465 166.037C28.2598 166.259 28.6199 166.385 29.0269 166.413ZM37.117 168.062C36.4945 168.018 35.9419 167.835 35.4593 167.513C34.9771 167.182 34.6063 166.751 34.3467 166.22C34.0872 165.689 33.98 165.1 34.0252 164.453C34.0704 163.807 34.2542 163.242 34.5767 162.76C34.9071 162.277 35.334 161.906 35.8575 161.646C36.3809 161.386 36.9578 161.278 37.5883 161.322C38.2108 161.366 38.7631 161.553 39.2452 161.883C39.7279 162.206 40.0953 162.628 40.3474 163.151C40.6075 163.674 40.7147 164.263 40.669 164.918C40.6232 165.572 40.4308 166.144 40.0919 166.634C39.7534 167.115 39.3225 167.486 38.7991 167.746C38.2842 167.999 37.7235 168.104 37.117 168.062ZM37.1923 166.984C37.5914 167.012 37.9575 166.938 38.2906 166.76C38.6318 166.584 38.9064 166.326 39.1145 165.988C39.3306 165.65 39.4537 165.266 39.4839 164.835C39.5145 164.396 39.4458 164.002 39.2777 163.654C39.1182 163.298 38.8818 163.008 38.5685 162.786C38.2638 162.556 37.912 162.427 37.5129 162.399C37.1059 162.371 36.7316 162.449 36.3899 162.634C36.0567 162.811 35.7823 163.064 35.5668 163.394C35.3518 163.716 35.229 164.096 35.1983 164.535C35.1682 164.966 35.2366 165.364 35.4036 165.728C35.5706 166.093 35.8067 166.386 36.112 166.608C36.4252 166.83 36.7853 166.956 37.1923 166.984ZM42.2441 168.276L42.6953 161.824L43.8086 161.901L43.3574 168.354L42.2441 168.276ZM42.7673 160.794L42.8677 159.358L43.981 159.435L43.8806 160.872L42.7673 160.794ZM45.434 168.499L45.8852 162.047L46.9745 162.123L46.8866 163.38L46.7146 163.259C46.9027 162.864 47.1801 162.566 47.5468 162.367C47.9221 162.161 48.3492 162.075 48.828 162.108C49.2909 162.14 49.6947 162.273 50.0393 162.506C50.3919 162.739 50.6591 163.046 50.8409 163.428C51.0307 163.81 51.1094 164.232 51.0771 164.695L50.7849 168.873L49.6597 168.794L49.9267 164.976C49.9518 164.617 49.9092 164.309 49.7988 164.053C49.6884 163.796 49.5182 163.592 49.2883 163.439C49.0669 163.28 48.8046 163.189 48.5013 163.168C48.1981 163.147 47.9217 163.2 47.6722 163.326C47.4313 163.446 47.2341 163.629 47.0806 163.874C46.9276 164.112 46.8388 164.407 46.8143 164.758L46.5473 168.577L45.434 168.499ZM55.3084 171.836C55.1648 171.826 55.022 171.804 54.88 171.77C54.738 171.736 54.6051 171.686 54.4813 171.622L54.5508 170.628C54.6375 170.65 54.7441 170.674 54.8707 170.699C55.0047 170.732 55.1355 170.753 55.2632 170.762C55.6383 170.788 55.9275 170.724 56.1307 170.57C56.3414 170.424 56.5485 170.158 56.7519 169.771L57.2267 168.83L57.135 169.798L54.8664 162.675L56.0754 162.759L57.8331 168.416L57.474 168.391L59.9899 163.033L61.2229 163.119L57.8092 170.134C57.6495 170.468 57.4522 170.767 57.2172 171.031C56.9896 171.304 56.7183 171.513 56.4034 171.66C56.0884 171.806 55.7234 171.865 55.3084 171.836ZM63.7588 169.925C63.3358 169.895 62.966 169.793 62.6494 169.619C62.3413 169.437 62.105 169.204 61.9404 168.919C61.7764 168.627 61.707 168.302 61.7321 167.942C61.7561 167.599 61.8494 167.297 62.012 167.036C62.1832 166.767 62.4311 166.548 62.7557 166.378C63.0883 166.209 63.4968 166.101 63.9812 166.055L66.403 165.827L66.3377 166.761L64.1699 166.97C63.7498 167.013 63.4374 167.123 63.2324 167.302C63.0355 167.48 62.9273 167.709 62.9077 167.989C62.8893 168.252 62.9777 168.479 63.1729 168.669C63.3761 168.859 63.6373 168.966 63.9566 168.988C64.3636 169.017 64.7206 168.957 65.0276 168.81C65.3431 168.656 65.595 168.437 65.7832 168.154C65.9794 167.871 66.0901 167.549 66.1152 167.19L66.2299 165.55C66.2545 165.199 66.1426 164.907 65.8943 164.673C65.6546 164.432 65.3232 164.296 64.9002 164.266C64.5331 164.241 64.1992 164.314 63.8985 164.485C63.6064 164.649 63.3816 164.882 63.2242 165.184L62.2897 164.613C62.43 164.326 62.64 164.076 62.9195 163.863C63.1996 163.642 63.52 163.476 63.8806 163.365C64.2412 163.254 64.6131 163.212 64.9962 163.239C65.4909 163.273 65.9192 163.399 66.2809 163.617C66.6431 163.827 66.9163 164.107 67.1003 164.456C67.2929 164.799 67.3739 165.189 67.3432 165.628L67.0368 170.01L65.9475 169.933L66.0329 168.712L66.2313 168.798C66.0778 169.044 65.8786 169.255 65.6338 169.43C65.389 169.606 65.107 169.738 64.788 169.828C64.4689 169.918 64.1259 169.95 63.7588 169.925ZM69.1121 170.155L69.5633 163.702L70.6526 163.779L70.5647 165.035L70.3927 164.915C70.5808 164.519 70.8582 164.222 71.225 164.023C71.6003 163.817 72.0273 163.73 72.5062 163.764C72.969 163.796 73.3728 163.929 73.7174 164.161C74.07 164.394 74.3372 164.702 74.519 165.083C74.7088 165.466 74.7875 165.888 74.7552 166.351L74.463 170.529L73.3378 170.45L73.6048 166.631C73.6299 166.272 73.5873 165.965 73.4769 165.708C73.3665 165.452 73.1963 165.248 72.9664 165.095C72.745 164.935 72.4827 164.845 72.1794 164.824C71.8762 164.802 71.5998 164.855 71.3504 164.982C71.1094 165.102 70.9122 165.284 70.7587 165.53C70.6057 165.768 70.517 166.063 70.4924 166.414L70.2254 170.232L69.1121 170.155ZM79.2976 173.513C78.8427 173.482 78.4247 173.38 78.0437 173.209C77.6707 173.039 77.3535 172.816 77.092 172.541C76.838 172.275 76.6508 171.969 76.5306 171.624L77.6056 171.218C77.6961 171.529 77.8897 171.799 78.1864 172.028C78.4906 172.266 78.8821 172.402 79.3609 172.435C79.728 172.461 80.0642 172.412 80.3696 172.289C80.6823 172.175 80.9362 171.984 81.1313 171.717C81.3259 171.458 81.4368 171.133 81.4642 170.742L81.5655 169.293L81.7539 169.523C81.4997 169.946 81.1531 170.259 80.7139 170.461C80.2828 170.663 79.8158 170.747 79.313 170.712C78.7065 170.669 78.1736 170.492 77.7143 170.179C77.2556 169.858 76.9075 169.445 76.6702 168.939C76.4335 168.425 76.3361 167.869 76.3779 167.27C76.4203 166.664 76.5942 166.127 76.8996 165.659C77.205 165.191 77.6029 164.834 78.0932 164.588C78.5922 164.334 79.1449 164.228 79.7514 164.27C80.2542 164.306 80.701 164.453 81.0918 164.713C81.4912 164.966 81.8006 165.3 82.0201 165.716L81.8316 166.004L81.932 164.567L83.0214 164.643L82.5894 170.82C82.5504 171.379 82.3838 171.869 82.0898 172.289C81.7957 172.71 81.4046 173.027 80.9165 173.242C80.4357 173.465 79.8961 173.555 79.2976 173.513ZM79.4841 169.641C79.8672 169.668 80.2171 169.596 80.5337 169.426C80.8583 169.256 81.1236 169.018 81.3295 168.711C81.5359 168.397 81.6531 168.04 81.681 167.641C81.7083 167.25 81.6417 166.885 81.481 166.545C81.3203 166.205 81.0911 165.928 80.7932 165.715C80.5033 165.502 80.1669 165.382 79.7838 165.355C79.3928 165.328 79.0309 165.399 78.6983 165.568C78.3657 165.737 78.0962 165.979 77.8898 166.294C77.6919 166.6 77.579 166.953 77.5511 167.352C77.5232 167.752 77.5855 168.121 77.7382 168.46C77.8995 168.792 78.129 169.065 78.4269 169.278C78.7327 169.492 79.0851 169.613 79.4841 169.641ZM90.3934 171.787C89.8746 171.751 89.4079 171.602 88.9931 171.34C88.5863 171.079 88.282 170.729 88.0802 170.29L88.2492 170.109L88.1529 171.486L87.0636 171.41L87.6972 162.348L88.8105 162.426L88.5309 166.424L88.3826 166.137C88.6488 165.771 88.9972 165.49 89.4278 165.296C89.859 165.094 90.3419 165.011 90.8766 165.048C91.4831 165.091 92.0155 165.276 92.4737 165.605C92.9398 165.934 93.2947 166.364 93.5383 166.895C93.7825 167.417 93.882 168.001 93.8368 168.648C93.7927 169.278 93.6131 169.839 93.2981 170.33C92.983 170.821 92.5718 171.198 92.0643 171.459C91.5649 171.721 91.0079 171.83 90.3934 171.787ZM90.3849 170.704C90.7919 170.732 91.162 170.658 91.4952 170.481C91.8284 170.304 92.0947 170.05 92.2943 169.719C92.5024 169.38 92.6215 168.996 92.6517 168.565C92.6829 168.118 92.6185 167.72 92.4584 167.372C92.3068 167.017 92.0784 166.728 91.7731 166.506C91.4684 166.277 91.1125 166.148 90.7055 166.119C90.2985 166.091 89.9244 166.165 89.5833 166.341C89.2501 166.519 88.9755 166.776 88.7594 167.114C88.5518 167.444 88.4327 167.829 88.402 168.268C88.3719 168.699 88.4363 169.096 88.5953 169.46C88.7629 169.817 88.9993 170.106 89.3045 170.328C89.6178 170.55 89.9779 170.675 90.3849 170.704ZM95.4205 171.994L95.8717 165.542L96.985 165.62L96.5338 172.072L95.4205 171.994ZM95.9437 164.513L96.0441 163.076L97.1574 163.154L97.057 164.59L95.9437 164.513ZM100.911 172.523C100.264 172.477 99.7128 172.278 99.2563 171.926C98.7998 171.573 98.4907 171.118 98.3292 170.562L99.2452 170.193C99.4019 170.589 99.6321 170.909 99.9357 171.155C100.239 171.401 100.587 171.538 100.978 171.565C101.329 171.589 101.626 171.526 101.869 171.375C102.112 171.223 102.243 171.012 102.262 170.74C102.276 170.549 102.23 170.393 102.127 170.274C102.031 170.147 101.91 170.046 101.763 169.972C101.616 169.889 101.48 169.828 101.355 169.787L100.404 169.444C99.8334 169.235 99.4231 168.966 99.1736 168.636C98.932 168.306 98.8257 167.934 98.8547 167.519C98.8815 167.136 99.0004 166.811 99.2115 166.545C99.4311 166.272 99.7141 166.067 100.06 165.931C100.415 165.796 100.803 165.743 101.226 165.772C101.793 165.812 102.29 165.991 102.716 166.309C103.151 166.628 103.446 167.054 103.602 167.586L102.663 167.942C102.542 167.596 102.345 167.318 102.071 167.106C101.798 166.887 101.482 166.764 101.123 166.739C100.795 166.716 100.53 166.782 100.327 166.936C100.124 167.082 100.014 167.279 99.997 167.527C99.9841 167.71 100.021 167.865 100.109 167.992C100.197 168.11 100.306 168.206 100.438 168.279C100.569 168.345 100.698 168.402 100.823 168.45L101.854 168.835C102.37 169.024 102.761 169.288 103.026 169.627C103.299 169.967 103.42 170.36 103.388 170.807C103.363 171.166 103.241 171.483 103.021 171.756C102.802 172.029 102.511 172.233 102.148 172.369C101.786 172.504 101.374 172.555 100.911 172.523ZM106.955 172.945C106.532 172.916 106.162 172.814 105.845 172.639C105.537 172.457 105.301 172.224 105.137 171.94C104.973 171.648 104.903 171.322 104.928 170.963C104.952 170.62 105.045 170.318 105.208 170.056C105.379 169.788 105.627 169.568 105.952 169.399C106.284 169.229 106.693 169.122 107.177 169.075L109.599 168.848L109.534 169.781L107.366 169.991C106.946 170.033 106.633 170.144 106.429 170.322C106.232 170.501 106.123 170.73 106.104 171.009C106.085 171.272 106.174 171.499 106.369 171.689C106.572 171.88 106.833 171.986 107.153 172.009C107.56 172.037 107.917 171.978 108.224 171.831C108.539 171.677 108.791 171.458 108.979 171.174C109.176 170.891 109.286 170.57 109.311 170.211L109.426 168.571C109.451 168.22 109.339 167.927 109.09 167.693C108.851 167.452 108.519 167.317 108.096 167.287C107.729 167.261 107.395 167.334 107.095 167.506C106.802 167.67 106.578 167.903 106.42 168.204L105.486 167.634C105.626 167.347 105.836 167.097 106.116 166.884C106.396 166.663 106.716 166.497 107.077 166.386C107.437 166.275 107.809 166.232 108.192 166.259C108.687 166.294 109.115 166.42 109.477 166.638C109.839 166.848 110.112 167.127 110.296 167.477C110.489 167.819 110.57 168.21 110.539 168.649L110.233 173.03L109.144 172.954L109.229 171.733L109.427 171.819C109.274 172.065 109.075 172.275 108.83 172.451C108.585 172.626 108.303 172.759 107.984 172.849C107.665 172.939 107.322 172.971 106.955 172.945ZM114.726 173.344L115.36 164.282L116.473 164.36L116.039 170.573L115.592 170.434L119.26 167.177L120.684 167.277L118.025 169.701L120.401 173.741L119.084 173.649L116.91 169.984L117.607 169.997L115.59 171.829L116.006 171.04L115.84 173.422L114.726 173.344ZM123.632 174.111C123.209 174.082 122.839 173.98 122.523 173.805C122.215 173.623 121.978 173.39 121.814 173.106C121.65 172.814 121.58 172.488 121.605 172.129C121.629 171.786 121.723 171.484 121.885 171.223C122.057 170.954 122.304 170.735 122.629 170.565C122.962 170.396 123.37 170.288 123.855 170.241L126.276 170.014L126.211 170.948L124.043 171.157C123.623 171.2 123.311 171.31 123.106 171.488C122.909 171.667 122.801 171.896 122.781 172.175C122.763 172.439 122.851 172.665 123.046 172.855C123.249 173.046 123.511 173.153 123.83 173.175C124.237 173.203 124.594 173.144 124.901 172.997C125.216 172.843 125.468 172.624 125.657 172.34C125.853 172.057 125.963 171.736 125.989 171.377L126.103 169.737C126.128 169.386 126.016 169.093 125.768 168.86C125.528 168.618 125.197 168.483 124.774 168.453C124.406 168.428 124.073 168.5 123.772 168.672C123.48 168.836 123.255 169.069 123.097 169.371L122.163 168.8C122.303 168.513 122.513 168.263 122.793 168.05C123.073 167.829 123.393 167.663 123.754 167.552C124.115 167.441 124.486 167.399 124.869 167.425C125.364 167.46 125.793 167.586 126.154 167.804C126.516 168.014 126.79 168.293 126.974 168.643C127.166 168.985 127.247 169.376 127.217 169.815L126.91 174.196L125.821 174.12L125.906 172.899L126.105 172.985C125.951 173.231 125.752 173.442 125.507 173.617C125.262 173.792 124.98 173.925 124.661 174.015C124.342 174.105 123.999 174.137 123.632 174.111ZM128.985 174.341L129.437 167.889L130.526 167.965L130.434 169.282L130.292 169.068C130.481 168.672 130.758 168.378 131.124 168.188C131.49 167.997 131.893 167.917 132.332 167.947C132.834 167.982 133.276 168.154 133.655 168.461C134.042 168.769 134.296 169.155 134.416 169.621L134.104 169.611C134.307 169.12 134.616 168.761 135.033 168.533C135.451 168.298 135.903 168.197 136.39 168.231C136.837 168.262 137.232 168.394 137.577 168.627C137.93 168.86 138.201 169.168 138.391 169.55C138.58 169.932 138.659 170.354 138.627 170.817L138.335 174.995L137.209 174.916L137.476 171.098C137.501 170.739 137.459 170.431 137.348 170.175C137.238 169.918 137.076 169.714 136.862 169.563C136.656 169.404 136.406 169.315 136.111 169.294C135.824 169.274 135.559 169.328 135.318 169.455C135.085 169.575 134.892 169.758 134.738 170.004C134.593 170.243 134.508 170.537 134.484 170.889L134.217 174.707L133.091 174.628L133.358 170.81C133.384 170.451 133.341 170.143 133.231 169.887C133.12 169.63 132.958 169.427 132.744 169.275C132.539 169.117 132.288 169.027 131.993 169.006C131.706 168.986 131.441 169.04 131.2 169.167C130.967 169.287 130.774 169.47 130.62 169.716C130.475 169.955 130.39 170.249 130.366 170.601L130.099 174.419L128.985 174.341ZM142.541 175.434C142.078 175.401 141.667 175.264 141.307 175.023C140.955 174.781 140.689 174.462 140.508 174.064C140.336 173.659 140.267 173.206 140.302 172.703L140.584 168.669L141.698 168.747L141.424 172.661C141.402 172.98 141.446 173.264 141.557 173.512C141.676 173.761 141.846 173.962 142.068 174.113C142.298 174.266 142.565 174.353 142.868 174.374C143.171 174.395 143.443 174.346 143.684 174.226C143.933 174.108 144.13 173.925 144.276 173.678C144.429 173.432 144.519 173.134 144.543 172.783L144.81 168.964L145.935 169.043L145.484 175.495L144.395 175.419L144.483 174.162L144.655 174.282C144.475 174.679 144.193 174.98 143.81 175.186C143.435 175.384 143.012 175.467 142.541 175.434ZM152.593 176.064C151.962 176.02 151.488 175.807 151.17 175.424C150.86 175.041 150.728 174.523 150.774 173.868L151.011 170.468L149.838 170.386L149.913 169.321L150.152 169.338C150.44 169.358 150.673 169.286 150.853 169.122C151.033 168.958 151.133 168.733 151.153 168.445L151.19 167.919L152.303 167.996L152.199 169.481L153.648 169.582L153.573 170.648L152.125 170.546L151.889 173.91C151.874 174.126 151.893 174.315 151.946 174.479C152.007 174.644 152.113 174.78 152.266 174.887C152.42 174.986 152.628 175.044 152.892 175.063C152.947 175.067 153.016 175.067 153.096 175.065C153.184 175.063 153.265 175.061 153.337 175.058L153.268 176.039C153.163 176.056 153.046 176.064 152.918 176.063C152.789 176.07 152.681 176.07 152.593 176.064ZM157.348 176.469C156.885 176.437 156.474 176.3 156.114 176.058C155.762 175.817 155.495 175.497 155.315 175.1C155.142 174.695 155.074 174.241 155.109 173.738L155.391 169.704L156.505 169.782L156.231 173.696C156.208 174.016 156.253 174.299 156.364 174.548C156.483 174.797 156.653 174.997 156.875 175.149C157.105 175.301 157.372 175.388 157.675 175.409C157.978 175.43 158.25 175.381 158.491 175.262C158.74 175.143 158.937 174.96 159.083 174.714C159.236 174.468 159.325 174.169 159.35 173.818L159.617 170L160.742 170.078L160.291 176.53L159.202 176.454L159.29 175.197L159.462 175.318C159.281 175.714 159 176.015 158.617 176.221C158.242 176.419 157.819 176.502 157.348 176.469ZM162.365 176.675L162.999 167.614L164.112 167.691L163.677 173.904L163.23 173.765L166.898 170.509L168.323 170.608L165.663 173.033L168.039 177.072L166.722 176.98L164.549 173.316L165.245 173.328L163.229 175.16L163.645 174.371L163.478 176.753L162.365 176.675ZM171.27 177.443C170.847 177.413 170.478 177.311 170.161 177.136C169.853 176.955 169.617 176.721 169.452 176.437C169.288 176.145 169.219 175.82 169.244 175.46C169.268 175.117 169.361 174.815 169.524 174.554C169.695 174.285 169.943 174.066 170.267 173.896C170.6 173.727 171.009 173.619 171.493 173.573L173.915 173.345L173.849 174.279L171.682 174.488C171.262 174.531 170.949 174.641 170.744 174.819C170.547 174.998 170.439 175.227 170.419 175.507C170.401 175.77 170.489 175.997 170.685 176.187C170.888 176.377 171.149 176.484 171.468 176.506C171.875 176.535 172.232 176.475 172.539 176.328C172.855 176.174 173.107 175.955 173.295 175.671C173.491 175.388 173.602 175.067 173.627 174.708L173.742 173.068C173.766 172.717 173.654 172.425 173.406 172.191C173.166 171.949 172.835 171.814 172.412 171.784C172.045 171.759 171.711 171.832 171.41 172.003C171.118 172.167 170.893 172.4 170.736 172.702L169.801 172.131C169.942 171.844 170.152 171.594 170.431 171.381C170.711 171.16 171.032 170.994 171.392 170.883C171.753 170.772 172.125 170.73 172.508 170.757C173.003 170.791 173.431 170.917 173.793 171.135C174.155 171.345 174.428 171.625 174.612 171.974C174.805 172.317 174.886 172.707 174.855 173.146L174.549 177.527L173.459 177.451L173.545 176.23L173.743 176.316C173.59 176.562 173.39 176.773 173.146 176.948C172.901 177.124 172.619 177.256 172.3 177.346C171.981 177.436 171.638 177.468 171.27 177.443ZM176.624 177.673L177.075 171.22L178.164 171.297L178.081 172.482L177.973 172.306C178.151 171.949 178.401 171.694 178.725 171.54C179.049 171.378 179.434 171.313 179.881 171.344L180.276 171.372L180.203 172.425L179.64 172.386C179.185 172.354 178.808 172.472 178.508 172.74C178.21 173 178.042 173.389 178.006 173.908L177.737 177.75L176.624 177.673ZM23.3738 184.639C23.3019 184.634 23.2144 184.624 23.1113 184.609C23.0081 184.594 22.9251 184.576 22.8624 184.555L22.9327 183.55C23.0906 183.585 23.2494 183.608 23.409 183.619C23.7362 183.642 24.014 183.569 24.2423 183.401C24.4706 183.232 24.5979 182.961 24.6241 182.586L25.1104 175.631L26.2237 175.708L25.7374 182.663C25.705 183.126 25.5822 183.507 25.3689 183.805C25.155 184.11 24.8749 184.331 24.5286 184.468C24.1817 184.612 23.7967 184.669 23.3738 184.639ZM25.1824 174.601L25.2829 173.165L26.3961 173.242L26.2957 174.679L25.1824 174.601ZM29.7304 182.582C29.3075 182.552 28.9377 182.45 28.6211 182.276C28.313 182.094 28.0767 181.861 27.9121 181.576C27.7481 181.284 27.6787 180.959 27.7038 180.6C27.7278 180.256 27.8211 179.954 27.9837 179.693C28.1549 179.424 28.4028 179.205 28.7274 179.035C29.06 178.866 29.4685 178.758 29.9529 178.712L32.3747 178.484L32.3094 179.418L30.1415 179.627C29.7215 179.67 29.4091 179.781 29.2041 179.959C29.0072 180.137 28.899 180.366 28.8794 180.646C28.861 180.909 28.9494 181.136 29.1446 181.326C29.3478 181.516 29.609 181.623 29.9283 181.645C30.3353 181.674 30.6923 181.615 30.9993 181.468C31.3148 181.313 31.5667 181.094 31.7549 180.811C31.9511 180.528 32.0618 180.207 32.0869 179.847L32.2016 178.208C32.2262 177.856 32.1143 177.564 31.866 177.33C31.6262 177.089 31.2949 176.953 30.8719 176.924C30.5048 176.898 30.1709 176.971 29.8702 177.142C29.5781 177.306 29.3533 177.539 29.1958 177.841L28.2614 177.27C28.4017 176.983 28.6117 176.733 28.8912 176.52C29.1713 176.299 29.4917 176.133 29.8523 176.022C30.2129 175.911 30.5848 175.869 30.9678 175.896C31.4626 175.93 31.8909 176.057 32.2526 176.274C32.6148 176.484 32.888 176.764 33.072 177.114C33.2646 177.456 33.3456 177.846 33.3149 178.285L33.0085 182.667L31.9192 182.59L32.0046 181.369L32.203 181.456C32.0495 181.701 31.8503 181.912 31.6055 182.087C31.3607 182.263 31.0787 182.395 30.7597 182.485C30.4406 182.575 30.0975 182.607 29.7304 182.582ZM38.0066 183.161C37.4001 183.118 36.8637 182.932 36.3976 182.603C35.9394 182.274 35.5885 181.845 35.3449 181.314C35.1013 180.784 35.0015 180.204 35.0456 179.573C35.0908 178.927 35.2706 178.362 35.5851 177.879C35.9002 177.388 36.3074 177.011 36.8069 176.749C37.3143 176.488 37.8713 176.379 38.4779 176.421C39.0125 176.458 39.4793 176.607 39.8781 176.868C40.2775 177.12 40.5835 177.446 40.7961 177.846L40.5973 178.109L40.8769 174.111L42.0021 174.189L41.3684 183.251L40.2791 183.175L40.3754 181.798L40.5056 182C40.2526 182.407 39.9025 182.712 39.4554 182.913C39.0162 183.115 38.5333 183.197 38.0066 183.161ZM38.1777 182.09C38.5847 182.118 38.9548 182.044 39.2879 181.867C39.6211 181.69 39.8915 181.436 40.099 181.105C40.3151 180.768 40.4382 180.383 40.4684 179.952C40.4991 179.513 40.4306 179.116 40.2631 178.759C40.1041 178.395 39.872 178.102 39.5667 177.88C39.2614 177.659 38.9053 177.533 38.4983 177.505C38.0993 177.477 37.7289 177.555 37.3872 177.74C37.054 177.917 36.7836 178.171 36.5761 178.501C36.3691 178.824 36.25 179.208 36.2187 179.655C36.1886 180.086 36.253 180.484 36.412 180.848C36.5716 181.204 36.804 181.493 37.1093 181.714C37.4145 181.936 37.7707 182.061 38.1777 182.09ZM43.4407 183.396L43.8919 176.944L45.0052 177.022L44.554 183.474L43.4407 183.396ZM43.9639 175.914L44.0643 174.478L45.1776 174.556L45.0772 175.992L43.9639 175.914ZM49.0489 183.788L49.5001 177.336L50.5894 177.412L50.5066 178.597L50.3986 178.421C50.5759 178.065 50.8263 177.81 51.1498 177.656C51.4739 177.494 51.8594 177.429 52.3063 177.46L52.7013 177.488L52.6276 178.541L52.065 178.502C51.6101 178.47 51.233 178.588 50.9336 178.856C50.6347 179.116 50.4672 179.505 50.4309 180.024L50.1622 183.866L49.0489 183.788ZM56.5419 184.457C55.9194 184.413 55.375 184.227 54.9089 183.897C54.4427 183.568 54.0878 183.138 53.8442 182.608C53.6012 182.07 53.502 181.481 53.5466 180.843C53.5918 180.196 53.7677 179.631 54.0742 179.148C54.3887 178.664 54.7914 178.295 55.2823 178.041C55.7818 177.779 56.3268 177.669 56.9174 177.71C57.3962 177.744 57.813 177.861 58.1678 178.062C58.5312 178.256 58.8303 178.51 59.065 178.823C59.3083 179.129 59.4846 179.474 59.594 179.858C59.712 180.235 59.7571 180.624 59.7292 181.023C59.723 181.11 59.7081 181.21 59.6843 181.32C59.6691 181.423 59.6501 181.522 59.6275 181.617L54.3364 181.247L54.4033 180.289L59.048 180.614L58.4911 181.008C58.592 180.598 58.578 180.224 58.4493 179.887C58.3205 179.549 58.1152 179.274 57.8333 179.062C57.5515 178.849 57.223 178.73 56.8479 178.704C56.4728 178.678 56.1229 178.749 55.7983 178.919C55.4737 179.089 55.211 179.347 55.0103 179.694C54.8182 180.034 54.7211 180.448 54.7189 180.937C54.6541 181.405 54.6969 181.826 54.8474 182.197C55.0063 182.561 55.2425 182.854 55.5557 183.076C55.8775 183.291 56.2339 183.413 56.625 183.44C57.0559 183.47 57.426 183.396 57.7352 183.217C58.0445 183.038 58.3017 182.799 58.5071 182.501L59.4073 183.045C59.259 183.331 59.0405 183.589 58.7518 183.817C58.4717 184.038 58.1431 184.208 57.766 184.326C57.3968 184.444 56.9888 184.488 56.5419 184.457ZM62.7698 184.748L61.0064 178.141L62.2394 178.227L63.6216 183.749L63.1915 183.707L65.2919 178.44L66.3454 178.514L67.6925 184.021L67.2607 184.003L69.4099 178.728L70.6309 178.814L67.9651 185.111L66.8997 185.037L65.5766 179.531L65.9117 179.554L63.8352 184.822L62.7698 184.748ZM73.172 185.62C72.7491 185.59 72.3793 185.488 72.0627 185.313C71.7546 185.131 71.5183 184.898 71.3537 184.614C71.1897 184.322 71.1202 183.996 71.1454 183.637C71.1694 183.294 71.2627 182.992 71.4253 182.731C71.5964 182.462 71.8443 182.243 72.169 182.073C72.5016 181.904 72.9101 181.796 73.3945 181.75L75.8163 181.522L75.751 182.456L73.5831 182.665C73.1631 182.708 72.8506 182.818 72.6457 182.996C72.4488 183.175 72.3405 183.404 72.321 183.683C72.3026 183.947 72.391 184.174 72.5862 184.364C72.7894 184.554 73.0506 184.661 73.3698 184.683C73.7768 184.711 74.1338 184.652 74.4408 184.505C74.7564 184.351 75.0083 184.132 75.1965 183.848C75.3927 183.565 75.5034 183.244 75.5285 182.885L75.6432 181.245C75.6677 180.894 75.5559 180.602 75.3076 180.368C75.0678 180.126 74.7365 179.991 74.3135 179.961C73.9464 179.936 73.6125 180.009 73.3118 180.18C73.0196 180.344 72.7949 180.577 72.6374 180.879L71.7029 180.308C71.8433 180.021 72.0533 179.771 72.3328 179.558C72.6129 179.337 72.9333 179.171 73.2939 179.06C73.6545 178.949 74.0264 178.907 74.4094 178.934C74.9042 178.968 75.3325 179.094 75.6942 179.312C76.0564 179.522 76.3296 179.802 76.5136 180.151C76.7062 180.494 76.7872 180.884 76.7565 181.323L76.4501 185.704L75.3607 185.628L75.4461 184.407L75.6446 184.493C75.4911 184.739 75.2919 184.95 75.0471 185.125C74.8022 185.3 74.5203 185.433 74.2013 185.523C73.8822 185.613 73.5391 185.645 73.172 185.62ZM78.5254 185.85L78.9766 179.397L80.0659 179.473L79.983 180.659L79.875 180.483C80.0523 180.126 80.3027 179.871 80.6263 179.717C80.9503 179.555 81.3358 179.49 81.7827 179.521L82.1778 179.549L82.1041 180.602L81.5415 180.563C81.0866 180.531 80.7094 180.649 80.41 180.917C80.1112 181.177 79.9436 181.566 79.9073 182.085L79.6386 185.927L78.5254 185.85ZM85.9824 186.515C85.3759 186.473 84.8395 186.287 84.3734 185.958C83.9152 185.629 83.5643 185.199 83.3207 184.669C83.0771 184.139 82.9773 183.558 83.0214 182.928C83.0666 182.282 83.2465 181.717 83.5609 181.234C83.876 180.742 84.2832 180.366 84.7827 180.104C85.2902 179.843 85.8472 179.733 86.4537 179.776C86.9884 179.813 87.4551 179.962 87.8539 180.223C88.2533 180.475 88.5593 180.801 88.7719 181.201L88.5731 181.464L88.8527 177.465L89.9779 177.544L89.3443 186.606L88.2549 186.53L88.3512 185.153L88.4814 185.355C88.2284 185.762 87.8783 186.066 87.4312 186.268C86.992 186.47 86.5091 186.552 85.9824 186.515ZM86.1535 185.445C86.5605 185.473 86.9306 185.399 87.2638 185.222C87.5969 185.044 87.8673 184.791 88.0748 184.46C88.2909 184.123 88.414 183.738 88.4442 183.307C88.4749 182.868 88.4065 182.471 88.2389 182.114C88.0799 181.75 87.8478 181.457 87.5425 181.235C87.2372 181.013 86.8811 180.888 86.4741 180.86C86.0751 180.832 85.7047 180.91 85.363 181.095C85.0298 181.272 84.7595 181.526 84.5519 181.856C84.3449 182.179 84.2258 182.563 84.1946 183.01C84.1644 183.441 84.2289 183.838 84.3879 184.202C84.5474 184.558 84.7798 184.847 85.0851 185.069C85.3904 185.291 85.7465 185.416 86.1535 185.445ZM91.8714 186.783L91.9719 185.346L93.133 185.427L93.0326 186.864L91.8714 186.783Z" fill="#1E3300"/>
<path d="M323.818 177.861C324.711 165.098 315.252 154.003 302.589 152.795L301.984 152.744C301.524 152.712 301.065 152.694 300.61 152.688L299.978 152.614L299.341 152.56C296.314 152.348 293.385 152.812 290.682 153.833L294.725 124.897L294.845 124.905L295.661 119.292C295.843 118.037 294.919 116.891 293.654 116.802L247.542 113.578L297.866 112.777L297.77 106.746C297.71 102.982 294.61 99.9784 290.845 100.038L276.286 100.269L275.11 96.6815C273.956 93.1629 270.645 90.8053 266.943 90.8642L239.011 91.3084C234.982 91.3728 231.559 94.2716 230.832 98.2343L230.328 100.98L230.437 101L216.042 101.229L215.692 101.244C212.093 101.484 209.277 104.507 209.335 108.153L209.431 114.185L215.715 114.084L215.755 119.375L215.853 119.382L215.717 136.172C215.337 135.232 214.45 134.539 213.371 134.464C211.861 134.358 210.552 135.496 210.447 137.005C210.341 138.515 211.479 139.823 212.988 139.929C214.187 140.013 215.256 139.311 215.7 138.264L215.343 182.407C215.293 188.686 219.983 193.955 226.156 194.689L226.758 194.746L272.981 197.978L273.355 197.998C277.215 198.152 280.773 196.49 283.145 193.731C286.495 196.928 290.792 199.028 295.592 199.473L296.058 199.51C296.485 199.54 296.91 199.555 297.332 199.558C297.558 199.587 297.785 199.613 298.013 199.636L298.701 199.695C311.464 200.588 322.56 191.129 323.768 178.466L323.818 177.861ZM208.804 121.805C208.724 121.15 207.8 121.086 207.629 121.723L206.598 125.571C206.535 125.807 206.334 125.982 206.092 126.012L202.137 126.496C201.483 126.576 201.418 127.501 202.055 127.672L205.904 128.702C206.14 128.766 206.314 128.966 206.344 129.209L206.829 133.164C206.91 133.818 207.833 133.882 208.004 133.246L209.035 129.397C209.098 129.161 209.299 128.987 209.541 128.957L213.496 128.472C214.151 128.391 214.215 127.466 213.578 127.296L209.729 126.266C209.493 126.203 209.319 126.002 209.289 125.76L208.804 121.805ZM210.971 118.16C211.256 118.366 211.518 118.609 211.75 118.886L211.745 118.148L210.971 118.16ZM266.995 94.1346C269.264 94.0985 271.293 95.5447 272.001 97.7014L272.861 100.324L233.66 100.948L234.049 98.8254C234.481 96.4726 236.464 94.7308 238.832 94.5882L239.063 94.5798L266.995 94.1346ZM327.75 178.849C326.336 193.664 313.354 204.73 298.422 203.685C297.959 203.653 297.505 203.605 297.061 203.552C296.891 203.549 296.721 203.548 296.548 203.542L295.779 203.501C291.117 203.175 286.849 201.547 283.259 198.997C280.29 201.108 276.601 202.241 272.702 201.968L226.479 198.736C217.904 198.136 211.275 190.97 211.344 182.375L211.655 143.76C208.757 143.091 206.623 140.573 206.453 137.587C204.694 137.223 203.135 135.889 202.86 133.653L202.859 133.65L202.652 131.973L201.02 131.536L201.019 131.536C196.138 130.226 196.632 123.142 201.649 122.525L201.651 122.525L203.328 122.32L203.765 120.688C204.26 118.841 205.58 117.763 207.064 117.408C206.919 117.301 206.78 117.185 206.648 117.058C205.886 116.32 205.448 115.309 205.431 114.249L205.335 108.217L205.335 108.216C205.241 102.244 210.006 97.3251 215.978 97.2299L226.992 97.0534C228.237 91.4519 233.169 87.4013 238.947 87.3089L266.879 86.8646C272.333 86.7778 277.211 90.2507 278.911 95.4348L279.169 96.2223L290.781 96.0387C296.567 95.9466 301.366 100.415 301.747 106.125L301.77 106.682L301.77 106.683L301.865 112.714C301.893 114.482 300.768 115.999 299.185 116.552C299.617 117.56 299.79 118.696 299.619 119.868L298.804 125.481C298.757 125.805 298.67 126.116 298.552 126.408L295.446 148.635C296.814 148.496 298.208 148.471 299.62 148.569L300.384 148.635C300.556 148.652 300.727 148.674 300.897 148.695C301.348 148.704 301.804 148.722 302.263 148.754L302.972 148.813C317.786 150.226 328.853 163.208 327.809 178.14L327.75 178.849Z" fill="white"/>
<path d="M215.915 111.616L293.468 117.039C294.729 117.127 295.651 118.265 295.477 119.516L285.989 187.436C285.097 193.822 279.414 198.428 272.981 197.978L226.757 194.746C220.291 194.294 215.291 188.889 215.344 182.407L215.915 111.616Z" fill="#AAFF33"/>
<path d="M215.694 111.351L293.654 116.802C294.919 116.891 295.843 118.037 295.66 119.292L294.845 124.905L215.755 119.375L215.694 111.351Z" fill="#00664E"/>
<rect x="230.28" y="137.504" width="19.3591" height="9.8159" rx="4.90795" transform="rotate(4 230.28 137.504)" fill="white"/>
<rect x="239.528" y="138.15" width="10.0886" height="9.8159" rx="4.90795" transform="rotate(4 239.528 138.15)" fill="#343434"/>
<rect x="254.488" y="139.197" width="19.3591" height="9.8159" rx="4.90795" transform="rotate(4 254.488 139.197)" fill="white"/>
<rect x="263.736" y="139.843" width="10.0886" height="9.8159" rx="4.90795" transform="rotate(4 263.736 139.843)" fill="#343434"/>
<path d="M248.278 158.543C250.41 160.19 253.467 161.452 257.519 159.189" stroke="#151C1D" stroke-width="1.2809" stroke-linecap="round"/>
<path d="M231.937 101.275L232.441 98.5295C233.027 95.3336 235.788 92.9958 239.037 92.9441L266.969 92.4994C269.955 92.4519 272.625 94.3536 273.555 97.1913L274.817 101.041" stroke="#00664E" stroke-width="3.27197"/>
<path d="M209.335 108.154C209.275 104.39 212.278 101.289 216.042 101.23L290.845 100.039C294.61 99.9787 297.71 102.982 297.77 106.746L297.866 112.777L209.431 114.185L209.335 108.154Z" fill="#AAFF33"/>
<circle cx="300.342" cy="176.22" r="23.5331" transform="rotate(4 300.342 176.22)" fill="#FBB00B"/>
<ellipse cx="297.699" cy="176.035" rx="21.8188" ry="23.5331" transform="rotate(4 297.699 176.035)" fill="#FEDF48"/>
<g filter="url(#filter0_i_132_132)">
<ellipse cx="297.689" cy="176.19" rx="18.0784" ry="18.7018" transform="rotate(4 297.689 176.19)" fill="#FDCE25"/>
</g>
<path d="M297.034 181.285C296.379 181.239 295.778 181.076 295.232 180.797C294.695 180.518 294.239 180.152 293.863 179.7C293.496 179.238 293.241 178.715 293.096 178.13L294.708 177.561C294.915 178.169 295.243 178.66 295.689 179.035C296.137 179.4 296.656 179.603 297.246 179.644C297.579 179.667 297.868 179.637 298.115 179.552C298.372 179.459 298.572 179.324 298.714 179.149C298.865 178.974 298.95 178.757 298.968 178.499C298.989 178.194 298.914 177.939 298.743 177.732C298.582 177.517 298.325 177.341 297.973 177.205L296.038 176.43C295.253 176.125 294.675 175.709 294.304 175.182C293.932 174.655 293.77 174.055 293.817 173.382C293.859 172.791 294.038 172.28 294.356 171.847C294.683 171.416 295.113 171.094 295.648 170.881C296.192 170.659 296.8 170.572 297.474 170.619C298.092 170.662 298.652 170.813 299.153 171.07C299.655 171.319 300.077 171.649 300.419 172.063C300.771 172.468 301.021 172.935 301.17 173.465L299.571 174.048C299.404 173.517 299.127 173.099 298.741 172.794C298.355 172.479 297.894 172.304 297.359 172.266C297.045 172.244 296.764 172.28 296.517 172.374C296.27 172.459 296.07 172.593 295.918 172.777C295.776 172.953 295.696 173.17 295.678 173.428C295.658 173.714 295.733 173.975 295.902 174.209C296.071 174.434 296.341 174.62 296.711 174.766L298.566 175.494C299.368 175.819 299.956 176.231 300.329 176.73C300.712 177.23 300.879 177.826 300.83 178.518C300.789 179.108 300.6 179.619 300.264 180.05C299.928 180.481 299.483 180.807 298.93 181.028C298.377 181.249 297.745 181.334 297.034 181.285ZM296.285 182.456L297.199 169.376L298.376 169.458L297.461 182.538L296.285 182.456Z" fill="#F7A508"/>
<path opacity="0.8" d="M220.419 175.053C220.139 179.062 221.094 187.404 227.155 188.707" stroke="white" stroke-width="1.92135" stroke-linecap="round"/>
<path opacity="0.8" d="M286.329 104.412C287.812 104.149 291.185 104.092 292.811 105.964" stroke="white" stroke-width="1.92135" stroke-linecap="round"/>
<path d="M237.311 192.713L237.325 186.123M264.094 194.586L266.496 176.078M237.334 181.729L237.369 165.253" stroke="#008E3C" stroke-width="0.64" stroke-linecap="round"/>
<path d="M207.629 121.722C207.8 121.085 208.724 121.15 208.805 121.805L209.289 125.759C209.319 126.002 209.493 126.202 209.73 126.266L213.578 127.296C214.216 127.467 214.151 128.391 213.496 128.471L209.542 128.956C209.299 128.986 209.098 129.16 209.035 129.397L208.004 133.245C207.834 133.883 206.91 133.818 206.829 133.163L206.344 129.209C206.315 128.966 206.14 128.765 205.904 128.702L202.055 127.671C201.418 127.501 201.483 126.577 202.138 126.496L206.092 126.011C206.335 125.982 206.535 125.807 206.599 125.571L207.629 121.722Z" fill="#FDCE25"/>
<circle cx="213.18" cy="137.197" r="2.73968" transform="rotate(4 213.18 137.197)" fill="#FDCE25"/>
<defs>
<filter id="filter0_i_132_132" x="279.606" y="157.491" width="36.1646" height="37.3991" filterUnits="userSpaceOnUse" color-interpolation-filters="sRGB">
<feFlood flood-opacity="0" result="BackgroundImageFix"/>
<feBlend mode="normal" in="SourceGraphic" in2="BackgroundImageFix" result="shape"/>
<feColorMatrix in="SourceAlpha" type="matrix" values="0 0 0 0 0 0 0 0 0 0 0 0 0 0 0 0 0 0 127 0" result="hardAlpha"/>
<feOffset dx="2.55985" dy="1.54595"/>
<feComposite in2="hardAlpha" operator="arithmetic" k2="-1" k3="1"/>
<feColorMatrix type="matrix" values="0 0 0 0 0.964706 0 0 0 0 0.635294 0 0 0 0 0.0235294 0 0 0 1 0"/>
<feBlend mode="normal" in2="shape" result="effect1_innerShadow_132_132"/>
</filter>
</defs>
</svg>
