<svg width="81" height="63" viewBox="0 0 81 63" fill="none" xmlns="http://www.w3.org/2000/svg">
<path d="M24.3474 13.6578C24.9137 10.7418 29.0863 10.7418 29.6526 13.6578L31.0435 20.8191C31.2536 21.9007 32.0993 22.7464 33.181 22.9565L40.3422 24.3474C43.2582 24.9137 43.2582 29.0863 40.3422 29.6526L33.1809 31.0435C32.0993 31.2536 31.2536 32.0993 31.0435 33.181L29.6526 40.3422C29.0863 43.2582 24.9137 43.2582 24.3474 40.3422L22.9565 33.1809C22.7464 32.0993 21.9007 31.2536 20.8191 31.0435L13.6578 29.6526C10.7418 29.0863 10.7418 24.9137 13.6578 24.3474L20.8191 22.9565C21.9007 22.7464 22.7464 21.9007 22.9565 20.8191L24.3474 13.6578Z" fill="#FDCE25"/>
<path d="M57.5523 37.1771C58.1816 33.9367 62.8184 33.9367 63.4477 37.1771C63.6812 38.379 64.621 39.3188 65.8229 39.5523C69.0633 40.1816 69.0633 44.8184 65.8229 45.4477C64.621 45.6812 63.6812 46.621 63.4477 47.8229C62.8184 51.0633 58.1816 51.0633 57.5523 47.8229C57.3188 46.621 56.379 45.6812 55.1771 45.4477C51.9367 44.8184 51.9367 40.1816 55.1771 39.5523C56.379 39.3188 57.3188 38.379 57.5523 37.1771Z" fill="#FDCE25"/>
</svg>
