<svg width="66" height="91" viewBox="0 0 66 91" fill="none" xmlns="http://www.w3.org/2000/svg">
<path d="M47.399 26.2954L22.4307 23.8837C21.485 26.6737 20.6716 33.7575 24.9843 39.7726C29.297 45.7877 29.524 48.1426 29.524 49.4194C29.8077 52.966 28.6567 58.0227 19.7353 63.6059C16.5814 65.5797 12.6704 70.1719 12.7839 77.0266L46.5478 80.0145C46.0276 75.9163 48.2341 72.493 39.0129 63.6059C34.7065 59.4556 34.1109 52.7769 34.9148 49.4194C35.6742 46.248 39.1547 42.4176 42.2918 39.7726C45.9741 36.668 47.3517 29.6529 47.399 26.2954Z" fill="#9EB4FA"/>
<path d="M5.40691 76.3737C4.03555 76.421 1.03747 77.3952 0.0160466 80.9134C-0.125818 82.4739 0.61188 85.7652 4.69759 86.4462L50.9456 90.4184C52.8371 90.6075 56.8472 90.1914 57.7551 87.0136C58.1807 85.4531 57.9253 81.9916 53.4991 80.6297L46.5478 80.0145L12.7839 77.0266L5.40691 76.3737Z" fill="#0A35C2"/>
<path d="M65.9832 9.55528C66.3237 4.90211 61.3963 3.54967 58.89 3.45509L15.6212 0.0944063C13.3513 -0.251303 8.66981 0.163824 8.10235 4.59001C7.53489 9.01619 11.5544 10.3119 13.6351 10.4065C26.3556 11.4941 53.2154 13.7829 58.89 14.2368C64.5646 14.6908 65.9832 11.3049 65.9832 9.55528Z" fill="#0A35C2"/>
<path d="M58.89 14.2368C53.2154 13.7829 26.3556 11.4941 13.6351 10.4065C12.1691 15.7974 10.4006 28.6504 15.0537 36.9353L22.0051 50.1287C16.567 51.7838 5.6339 59.35 5.40691 76.3737L12.7839 77.0266C12.6704 70.1719 16.5814 65.5797 19.7353 63.6059C28.6567 58.0227 29.8077 52.966 29.524 49.4194C29.524 48.1426 29.297 45.7877 24.9843 39.7726C20.6716 33.7575 21.485 26.6737 22.4307 23.8837L47.399 26.2954C47.3517 29.6529 45.9741 36.668 42.2918 39.7726C39.1547 42.4176 35.6742 46.248 34.9148 49.4194C34.1109 52.7769 34.7065 59.4556 39.0129 63.6059C48.2341 72.493 46.0276 75.9163 46.5478 80.0145L53.4991 80.6297C56.3961 65.9753 46.0276 54.8576 42.2918 51.973C43.9942 49.2775 49.4339 42.6099 53.4991 36.9353C55.769 33.7669 60.0249 24.7915 58.89 14.2368Z" fill="#547AF6"/>
</svg>
