<svg width="97" height="96" viewBox="0 0 97 96" fill="none" xmlns="http://www.w3.org/2000/svg">
<circle cx="49.4451" cy="47.5553" r="47.5552" fill="#FBB00B"/>
<ellipse cx="44.0909" cy="47.5552" rx="44.0909" ry="47.5552" fill="#FEDF48"/>
<g filter="url(#filter0_i_372_1112)">
<ellipse cx="44.0896" cy="47.8684" rx="36.5325" ry="37.7922" fill="#FDCE25"/>
</g>
<path d="M44.3997 60.9715C42.9453 60.9715 41.5933 60.7051 40.3437 60.1725C39.1146 59.6399 38.0494 58.9025 37.148 57.9601C36.2672 56.9974 35.6219 55.8809 35.2122 54.6108L38.6844 53.1052C39.2375 54.4162 40.0364 55.4507 41.0811 56.2087C42.1259 56.9461 43.3038 57.3149 44.6148 57.3149C45.3523 57.3149 45.9873 57.2022 46.5199 56.9769C47.073 56.731 47.493 56.4033 47.7798 55.9936C48.087 55.5839 48.2407 55.0922 48.2407 54.5187C48.2407 53.8427 48.0358 53.2896 47.6261 52.8594C47.2369 52.4087 46.6428 52.0604 45.8439 51.8146L41.4499 50.4012C39.6677 49.8481 38.3259 49.0184 37.4246 47.9122C36.5232 46.806 36.0725 45.5052 36.0725 44.0098C36.0725 42.6988 36.3901 41.5414 37.0251 40.5376C37.6806 39.5338 38.582 38.7554 39.7291 38.2023C40.8968 37.6287 42.2283 37.3419 43.7237 37.3419C45.0962 37.3419 46.356 37.5878 47.5032 38.0794C48.6504 38.5505 49.6337 39.2163 50.4531 40.0767C51.2929 40.9166 51.9177 41.9101 52.3274 43.0573L48.886 44.5936C48.4353 43.4465 47.7593 42.5656 46.8579 41.9511C45.9566 41.316 44.9118 40.9985 43.7237 40.9985C43.0272 40.9985 42.4127 41.1214 41.8801 41.3672C41.3474 41.5926 40.9275 41.9203 40.6202 42.3505C40.3334 42.7602 40.19 43.2519 40.19 43.8255C40.19 44.4605 40.3949 45.0238 40.8046 45.5155C41.2143 45.9866 41.8391 46.3554 42.679 46.6217L46.8887 47.943C48.7118 48.537 50.0741 49.3564 50.9754 50.4012C51.8973 51.4459 52.3582 52.7365 52.3582 54.2728C52.3582 55.5839 52.0202 56.7413 51.3442 57.7451C50.6682 58.7488 49.7361 59.5375 48.5479 60.1111C47.3598 60.6847 45.9771 60.9715 44.3997 60.9715ZM42.9248 63.6755V34.6379H45.5366V63.6755H42.9248Z" fill="#F7A508"/>
<defs>
<filter id="filter0_i_372_1112" x="7.55713" y="10.0762" width="73.0648" height="75.5844" filterUnits="userSpaceOnUse" color-interpolation-filters="sRGB">
<feFlood flood-opacity="0" result="BackgroundImageFix"/>
<feBlend mode="normal" in="SourceGraphic" in2="BackgroundImageFix" result="shape"/>
<feColorMatrix in="SourceAlpha" type="matrix" values="0 0 0 0 0 0 0 0 0 0 0 0 0 0 0 0 0 0 127 0" result="hardAlpha"/>
<feOffset dx="5.66883" dy="3.42353"/>
<feComposite in2="hardAlpha" operator="arithmetic" k2="-1" k3="1"/>
<feColorMatrix type="matrix" values="0 0 0 0 0.964706 0 0 0 0 0.635294 0 0 0 0 0.0235294 0 0 0 1 0"/>
<feBlend mode="normal" in2="shape" result="effect1_innerShadow_372_1112"/>
</filter>
</defs>
</svg>
