<svg width="130" height="130" viewBox="0 0 130 130" fill="none" xmlns="http://www.w3.org/2000/svg">
<mask id="mask0_372_1213" style="mask-type:alpha" maskUnits="userSpaceOnUse" x="0" y="0" width="130" height="130">
<circle cx="65" cy="65" r="65" fill="#D9D9D9"/>
</mask>
<g mask="url(#mask0_372_1213)">
<circle cx="65" cy="65" r="65" fill="#547AF6"/>
<path d="M50.755 112.187C40.1639 110.617 32.6129 117.417 30.1613 120.522C61.1499 145.235 91.7789 130.165 103.22 120.031C100.474 116.501 88.6735 113.331 83.1165 112.187C84.0971 113.658 83.6068 123.464 68.897 121.993C57.1292 120.816 51.8991 114.965 50.755 112.187Z" fill="#051B61"/>
<path d="M30.1613 120.522C32.6129 117.417 40.1639 110.617 50.755 112.187L52.5937 103.36L53.2066 100.418C48.4668 96.8228 38.8891 87.2778 38.4968 77.8635C34.2473 77.7001 26.1406 74.2351 27.7097 61.6828C28.527 57.9236 32.3192 51.6801 40.9489 56.7795C42.7468 57.5967 49.3825 57.3679 61.5426 49.915C65.1383 47.4634 72.9181 40.893 75.2717 34.2246C76.7427 37.4934 82.3324 45.2079 92.9234 49.915C103.514 54.6221 105.182 58.414 104.691 59.7215C107.306 69.8548 106.161 93.0634 80.6648 104.831L81.9723 108.754L83.1165 112.187C88.6735 113.331 100.474 116.501 103.22 120.031L113.027 112.187C113.027 98.948 113.027 106.793 114.498 94.5346C115.675 84.7281 115.642 73.7775 115.478 69.528C113.909 53.053 107.633 37.4934 104.691 31.7729C99.9514 23.6009 85.3724 7.55087 64.9749 8.72765C39.4779 10.1986 32.6134 23.9277 27.7097 31.7729C23.7867 38.0491 23.1335 48.444 23.2972 52.8569C23.7875 55.3086 23.5914 63.3499 18.8843 75.9022C14.1771 88.4546 13.0004 100.745 13.0004 104.831C16.923 111.108 26.0754 117.907 30.1613 120.522Z" fill="#32424F"/>
<path d="M53.2066 100.418C57.9464 103.851 70.0738 109.539 80.6648 104.831C106.161 93.0634 107.306 69.8548 104.691 59.7215C105.182 58.414 103.514 54.6221 92.9234 49.915C82.3324 45.2079 76.7427 37.4934 75.2717 34.2246C72.9181 40.893 65.1383 47.4634 61.5426 49.915C49.3825 57.3679 42.7468 57.5967 40.9489 56.7795C32.3192 51.6801 28.527 57.9236 27.7097 61.6828C26.1406 74.2351 34.2473 77.7001 38.4968 77.8635C38.8891 87.2778 48.4668 96.8228 53.2066 100.418Z" fill="#FDCA80"/>
<path d="M50.755 112.187C51.8991 114.965 57.1292 120.816 68.897 121.993C83.6068 123.464 84.0971 113.658 83.1165 112.187L81.9723 108.754C76.7421 120.13 60.2073 109.898 52.5937 103.36L50.755 112.187Z" fill="#F8C57B"/>
<path d="M80.6648 104.831C70.0738 109.539 57.9464 103.851 53.2066 100.418L52.5937 103.36C60.2073 109.898 76.7421 120.13 81.9723 108.754L80.6648 104.831Z" fill="#ECA27A"/>
</g>
</svg>
