<svg width="123" height="102" viewBox="0 0 123 102" fill="none" xmlns="http://www.w3.org/2000/svg">
<path d="M0.0924902 35.7509L4.92665 87.1138C5.22835 90.1347 5.59936 93.7126 7.64586 96.8838L93.1175 70.7711C92.3037 68.9031 91.3519 67.9023 90.7329 67.5549L74.4176 64.4537C70.6797 63.7303 68.6912 61.7738 67.7244 59.6193C66.7532 57.4549 66.8131 55.0908 67.1664 53.5766C67.6417 51.7349 68.5655 47.6294 69.6402 41.7933C67.1034 41.7933 60.3981 41.9142 53.872 42.3976C45.7144 43.0019 44.808 36.3549 42.0888 32.125C39.9134 28.7411 35.4418 28.8015 32.7226 28.8015L6.43732 29.4058C2.81127 29.4058 0.833031 31.1972 0.255926 33.0314C-0.0537694 34.0157 -0.048195 35.0123 0.0924902 35.7509Z" fill="#AAFF33"/>
<path d="M17.3142 101.918H91.6393C92.8241 102.03 94.2898 102.039 95.8692 101.871L94.6607 78.6537C94.5427 75.1163 93.8927 72.5503 93.1175 70.7711L7.64586 96.8838C9.52675 99.7984 12.5681 102.034 17.3142 101.918Z" fill="#77CC00"/>
<path d="M110.976 71.4028C112.889 71.3021 117.079 69.7713 118.529 64.4537L122.155 42.3979C123.162 38.168 122.88 29.4061 113.695 28.1975C119.496 30.1314 119.335 35.8515 118.529 38.4698L113.695 63.547C112.487 68.8646 106.746 68.9854 104.027 68.3812L80.1582 63.547C74.3572 62.3385 69.4519 60.425 67.7244 59.6193C68.6912 61.7738 70.6797 63.7303 74.4176 64.4537L90.7329 67.5549L101.308 69.565L107.652 70.7711L110.976 71.4028Z" fill="#77CC00"/>
<path d="M67.1664 53.5766C66.8131 55.0908 66.7532 57.4549 67.7244 59.6193C69.4519 60.425 74.3572 62.3385 80.1582 63.547L104.027 68.3812C106.746 68.9854 112.487 68.8646 113.695 63.547L118.529 38.4698C119.335 35.8515 119.496 30.1314 113.695 28.1975L103.724 26.3582L101.308 25.9125L82.5753 22.457C80.4599 22.1544 78.8743 22.152 76.8343 22.6828C75.3435 23.0707 73.952 23.7778 73.0255 24.9709C72.5363 25.6007 72.1768 26.366 72.0005 27.2911C71.8383 28.4268 71.6749 29.535 71.5113 30.6142C71.3544 31.6484 71.1973 32.656 71.0407 33.6355C70.7683 35.3395 70.4974 36.9586 70.2319 38.4858C70.031 39.642 69.8332 40.7456 69.6402 41.7933C68.5655 47.6294 67.6417 51.7349 67.1664 53.5766Z" fill="#77CC00"/>
<path d="M6.43732 29.4058L32.7226 28.8015C35.4418 28.8015 39.9134 28.7411 42.0888 32.125C44.808 36.3549 45.7144 43.0019 53.872 42.3976C60.3981 41.9142 67.1034 41.7933 69.6402 41.7933C69.8332 40.7456 70.031 39.642 70.2319 38.4858L53.872 38.772C50.8507 38.772 48.635 35.8513 47.8293 34.5421L46.1676 31.3697L44.5059 28.1973C42.8139 25.0551 37.1539 24.4709 34.5354 24.5716L23.3564 24.9709L16.1052 25.2299L9.1561 25.478C1.90487 25.478 0.201303 30.4129 0.255926 33.0314C0.833031 31.1972 2.81127 29.4058 6.43732 29.4058Z" fill="#BFFF66"/>
<path d="M25.1692 15.8097C17.1929 15.3263 15.8031 21.8884 16.1052 25.2299L23.3564 24.9709L25.1692 15.8097Z" fill="#77CC00"/>
<path fill-rule="evenodd" clip-rule="evenodd" d="M34.5354 24.5716C37.1539 24.4709 42.8139 25.0551 44.5059 28.1973C48.5106 27.6936 59.5182 27.4718 71.5113 30.6142C71.6749 29.535 71.8383 28.4268 72.0005 27.2911C72.1768 26.366 72.5363 25.6007 73.0255 24.9709C50.3998 23.861 37.9381 21.4222 34.5354 20.3416C30.6681 19.133 33.5283 18.6295 35.4418 18.5288C44.7073 18.6883 65.9574 19.7424 76.8343 22.6828C78.8743 22.152 80.4599 22.1544 82.5753 22.457L101.308 25.9125L103.12 11.8818C103.225 11.3921 103.217 10.9429 103.12 10.5318C102.545 8.10219 98.8425 7.00392 96.7752 6.74551C79.8556 4.83207 44.2641 0.823914 37.2546 0.0987905C30.2451 -0.626333 27.8885 2.818 27.5863 4.63081L25.1692 15.8097L23.3564 24.9709L34.5354 24.5716ZM35.4418 10.9754C35.4418 9.76686 37.8589 9.66615 39.0674 9.76686L89.5239 14.2989C90.8332 14.5003 93.3308 15.0844 92.8474 15.8096C92.364 16.5347 90.8332 16.716 90.1282 16.716C76.1091 17.4409 50.2464 14.601 39.0674 13.0903C37.8589 12.8889 35.4418 12.1839 35.4418 10.9754Z" fill="white"/>
<path d="M47.8293 34.5421C48.635 35.8513 50.8507 38.772 53.872 38.772L70.2319 38.4858C70.4974 36.9586 70.7683 35.3395 71.0407 33.6355C65.9225 34.8439 52.326 32.6284 46.1676 31.3697L47.8293 34.5421Z" fill="white"/>
<path d="M39.0674 9.76686C37.8589 9.66615 35.4418 9.76686 35.4418 10.9754C35.4418 12.1839 37.8589 12.8889 39.0674 13.0903C50.2464 14.601 76.1091 17.4409 90.1282 16.716C90.8332 16.716 92.364 16.5347 92.8474 15.8096C93.3308 15.0844 90.8332 14.5003 89.5239 14.2989L39.0674 9.76686Z" fill="#E7ECFE"/>
<path d="M35.4418 18.5288C33.5283 18.6295 30.6681 19.133 34.5354 20.3416C37.9381 21.4222 50.3998 23.861 73.0255 24.9709C73.952 23.7778 75.3435 23.0707 76.8343 22.6828C65.9574 19.7424 44.7073 18.6883 35.4418 18.5288Z" fill="#E7ECFE"/>
<path d="M71.5113 30.6142C59.5182 27.4718 48.5106 27.6936 44.5059 28.1973L46.1676 31.3697C52.326 32.6284 65.9225 34.8439 71.0407 33.6355C71.1973 32.656 71.3544 31.6484 71.5113 30.6142Z" fill="#E7ECFE"/>
<path d="M109.465 90.4373L110.976 71.4028L107.652 70.7711L106.142 91.9477C106.142 93.8813 105.135 94.5662 104.631 94.6669C103.664 95.392 103.02 92.9548 102.818 91.6455L101.308 69.565L90.7329 67.5549C91.3519 67.9023 92.3037 68.9031 93.1175 70.7711C93.8927 72.5503 94.5427 75.1163 94.6607 78.6537L95.8692 101.871C101.405 101.282 108.337 98.5236 109.465 90.4373Z" fill="#599900"/>
<path d="M101.308 69.565L102.818 91.6455C103.02 92.9548 103.664 95.392 104.631 94.6669C105.135 94.5662 106.142 93.8813 106.142 91.9477L107.652 70.7711L101.308 69.565Z" fill="#3C6600"/>
<path d="M79.0533 53.0013L79.5314 50.3467L85.7167 45.8463C86.9426 44.9495 87.8877 44.2328 88.552 43.6961C89.2365 43.1453 89.7323 42.6581 90.0392 42.2344C90.3461 41.8107 90.5429 41.3583 90.6295 40.8772C90.7749 40.0697 90.6317 39.3876 90.1998 38.8308C89.7851 38.2772 89.1825 37.9292 88.3922 37.7869C87.5675 37.6383 86.8111 37.7505 86.1231 38.1233C85.4382 38.4789 84.8763 39.0872 84.4374 39.9483L81.5422 38.4424C81.931 37.4658 82.5097 36.6654 83.2785 36.0411C84.0504 35.3996 84.9272 34.9632 85.909 34.732C86.9111 34.4868 87.9275 34.457 88.9584 34.6426C90.1955 34.8654 91.2377 35.2837 92.0851 35.8975C92.9496 36.5144 93.5669 37.2731 93.9369 38.1734C94.3241 39.0769 94.4203 40.0699 94.2253 41.1523C94.1015 41.8396 93.8505 42.495 93.4721 43.1187C93.0936 43.7424 92.5833 44.36 91.941 44.9716C91.3018 45.5661 90.4924 46.2186 89.513 46.9291L84.1488 50.859L92.4733 52.3582L91.9395 55.322L79.0533 53.0013ZM101.005 57.274C99.9917 57.0915 99.055 56.7276 98.1953 56.1825C97.3527 55.6406 96.6583 54.9656 96.112 54.1576C95.5859 53.3356 95.2893 52.4219 95.222 51.4164L98.4581 50.8816C98.5924 51.8105 98.9473 52.5485 99.5229 53.0956C100.101 53.6255 100.786 53.9617 101.576 54.104C102.229 54.2216 102.83 54.1878 103.377 54.0026C103.945 53.8034 104.412 53.4794 104.776 53.0306C105.144 52.5647 105.388 51.9967 105.509 51.3266C105.63 50.6565 105.589 50.046 105.387 49.4951C105.201 48.9474 104.884 48.4912 104.436 48.1265C103.99 47.7447 103.441 47.495 102.788 47.3774C102.118 47.2567 101.481 47.2929 100.879 47.486C100.294 47.6822 99.8314 48.0335 99.4918 48.54L96.7471 47.3805L100.189 36.9845L110.653 38.869L110.119 41.8328L101.047 40.199L102.635 38.9151L100.105 46.7612L99.2483 45.7555C99.8562 45.1377 100.533 44.7274 101.279 44.5247C102.043 44.3251 102.922 44.3151 103.919 44.4946C105.19 44.7235 106.24 45.1965 107.069 45.9134C107.915 46.6334 108.511 47.5123 108.856 48.5501C109.201 49.5879 109.263 50.7254 109.04 51.9625C108.817 53.1995 108.315 54.2622 107.534 55.1504C106.754 56.0387 105.797 56.6734 104.664 57.0548C103.531 57.4361 102.311 57.5092 101.005 57.274Z" fill="white"/>
</svg>
