<svg width="517" height="327" viewBox="0 0 517 327" fill="none" xmlns="http://www.w3.org/2000/svg">
<g opacity="0.8">
<path d="M355.419 215.268C364.371 215.268 371.628 222.525 371.628 231.477V307.763C371.628 316.715 364.371 323.972 355.419 323.972H90.8887C81.9366 323.972 74.6799 316.715 74.6797 307.763V231.477C74.6797 222.525 81.9364 215.268 90.8887 215.268H355.419Z" fill="#F4FFE5" stroke="white" stroke-width="4.41889"/>
<path d="M141.175 280.828V259.968H155.091V263.328H144.983V269.096H153.831V272.456H144.983V280.828H141.175ZM157.623 280.828V265.596H161.291V280.828H157.623ZM157.623 263.888V259.968H161.291V263.888H157.623ZM163.656 280.828L168.976 273.184L163.628 265.596H167.94L172.112 271.756H170.18L174.352 265.596H178.636L173.316 273.184L178.608 280.828H174.324L170.208 274.696H172.084L167.968 280.828H163.656ZM186.626 280.828V259.968H190.434V280.828H186.626ZM201.432 280.996C199.715 280.996 198.38 280.53 197.428 279.596C196.495 278.644 196.028 277.31 196.028 275.592V268.872H193.396V265.596H193.676C194.423 265.596 195.002 265.4 195.412 265.008C195.823 264.616 196.028 264.047 196.028 263.3V262.124H199.696V265.596H203.196V268.872H199.696V275.396C199.696 275.9 199.78 276.33 199.948 276.684C200.135 277.039 200.415 277.31 200.788 277.496C201.18 277.683 201.675 277.776 202.272 277.776C202.403 277.776 202.552 277.767 202.72 277.748C202.907 277.73 203.084 277.711 203.252 277.692V280.828C202.991 280.866 202.692 280.903 202.356 280.94C202.02 280.978 201.712 280.996 201.432 280.996Z" fill="#001A14"/>
<path d="M230.962 257.834C231.398 256.493 233.295 256.493 233.731 257.834L235.942 264.639C236.137 265.238 236.696 265.645 237.326 265.645H244.481C245.891 265.645 246.478 267.449 245.337 268.278L239.549 272.484C239.038 272.854 238.825 273.511 239.02 274.111L241.231 280.916C241.666 282.257 240.131 283.372 238.99 282.543L233.202 278.338C232.692 277.967 232.001 277.967 231.491 278.338L225.702 282.543C224.561 283.372 223.026 282.257 223.462 280.916L225.673 274.111C225.868 273.511 225.654 272.854 225.144 272.484L219.356 268.278C218.215 267.449 218.801 265.645 220.212 265.645H227.366C227.997 265.645 228.556 265.238 228.751 264.639L230.962 257.834Z" fill="#00CC9C"/>
<path d="M261.962 257.834C262.398 256.493 264.295 256.493 264.731 257.834L266.942 264.639C267.137 265.238 267.696 265.645 268.326 265.645H275.481C276.891 265.645 277.478 267.449 276.337 268.278L270.549 272.484C270.038 272.854 269.825 273.511 270.02 274.111L272.231 280.916C272.666 282.257 271.131 283.372 269.99 282.543L264.202 278.338C263.692 277.967 263.001 277.967 262.491 278.338L256.702 282.543C255.561 283.372 254.026 282.257 254.462 280.916L256.673 274.111C256.868 273.511 256.654 272.854 256.144 272.484L250.356 268.278C249.215 267.449 249.801 265.645 251.212 265.645H258.366C258.997 265.645 259.556 265.238 259.751 264.639L261.962 257.834Z" fill="#00CC9C"/>
</g>
<path opacity="0.95" d="M355.419 28.7913C364.371 28.7915 371.628 36.0482 371.628 45.0002V121.286C371.628 130.238 364.371 137.495 355.419 137.495H54.6538C45.7017 137.495 38.4451 130.238 38.4448 121.286V45.0002C38.4448 36.048 45.7016 28.7913 54.6538 28.7913H355.419Z" fill="#F4FFE5" stroke="white" stroke-width="4.41889"/>
<path d="M98.8603 94.6873C97.535 94.6873 96.303 94.4447 95.1643 93.9593C94.0443 93.474 93.0736 92.802 92.2523 91.9433C91.4496 91.066 90.8616 90.0487 90.4883 88.8913L93.6523 87.5193C94.1563 88.714 94.8843 89.6567 95.8363 90.3473C96.7883 91.0193 97.8616 91.3553 99.0563 91.3553C99.7283 91.3553 100.307 91.2527 100.792 91.0473C101.296 90.8233 101.679 90.5247 101.94 90.1513C102.22 89.778 102.36 89.33 102.36 88.8073C102.36 88.1913 102.174 87.6873 101.8 87.2953C101.446 86.8847 100.904 86.5673 100.176 86.3433L96.1723 85.0553C94.5483 84.5513 93.3256 83.7953 92.5043 82.7873C91.683 81.7793 91.2723 80.594 91.2723 79.2313C91.2723 78.0367 91.5616 76.982 92.1403 76.0673C92.7376 75.1527 93.559 74.4433 94.6043 73.9393C95.6683 73.4167 96.8816 73.1553 98.2443 73.1553C99.495 73.1553 100.643 73.3793 101.688 73.8273C102.734 74.2567 103.63 74.8633 104.376 75.6473C105.142 76.4127 105.711 77.318 106.084 78.3633L102.948 79.7633C102.538 78.718 101.922 77.9153 101.1 77.3553C100.279 76.7767 99.327 76.4873 98.2443 76.4873C97.6096 76.4873 97.0496 76.5993 96.5643 76.8233C96.079 77.0287 95.6963 77.3273 95.4163 77.7193C95.155 78.0927 95.0243 78.5407 95.0243 79.0633C95.0243 79.642 95.211 80.1553 95.5843 80.6033C95.9576 81.0327 96.527 81.3687 97.2923 81.6113L101.128 82.8153C102.79 83.3567 104.031 84.1033 104.852 85.0553C105.692 86.0073 106.112 87.1833 106.112 88.5833C106.112 89.778 105.804 90.8327 105.188 91.7473C104.572 92.662 103.723 93.3807 102.64 93.9033C101.558 94.426 100.298 94.6873 98.8603 94.6873ZM109.583 99.9513V79.1193H113.027V82.1433L112.691 81.3873C113.214 80.566 113.923 79.9313 114.819 79.4833C115.715 79.0167 116.751 78.7833 117.927 78.7833C119.365 78.7833 120.662 79.138 121.819 79.8473C122.977 80.5567 123.891 81.5087 124.563 82.7033C125.254 83.898 125.599 85.242 125.599 86.7353C125.599 88.21 125.263 89.554 124.591 90.7673C123.919 91.9807 123.005 92.942 121.847 93.6513C120.69 94.342 119.374 94.6873 117.899 94.6873C116.798 94.6873 115.781 94.4727 114.847 94.0433C113.933 93.5953 113.205 92.9607 112.663 92.1393L113.251 91.4113V99.9513H109.583ZM117.479 91.3273C118.319 91.3273 119.066 91.1313 119.719 90.7393C120.373 90.3473 120.877 89.806 121.231 89.1153C121.605 88.4247 121.791 87.6313 121.791 86.7353C121.791 85.8393 121.605 85.0553 121.231 84.3833C120.877 83.6927 120.373 83.1513 119.719 82.7593C119.066 82.3487 118.319 82.1433 117.479 82.1433C116.677 82.1433 115.949 82.3393 115.295 82.7313C114.661 83.1233 114.157 83.674 113.783 84.3833C113.429 85.074 113.251 85.858 113.251 86.7353C113.251 87.6313 113.429 88.4247 113.783 89.1153C114.157 89.806 114.661 90.3473 115.295 90.7393C115.949 91.1313 116.677 91.3273 117.479 91.3273ZM136.194 94.6873C134.7 94.6873 133.338 94.342 132.106 93.6513C130.892 92.9607 129.922 92.018 129.194 90.8233C128.484 89.6287 128.13 88.266 128.13 86.7353C128.13 85.2047 128.484 83.842 129.194 82.6473C129.922 81.4527 130.892 80.51 132.106 79.8193C133.319 79.1287 134.682 78.7833 136.194 78.7833C137.687 78.7833 139.04 79.1287 140.254 79.8193C141.467 80.51 142.428 81.4527 143.138 82.6473C143.866 83.8233 144.23 85.186 144.23 86.7353C144.23 88.266 143.866 89.6287 143.138 90.8233C142.41 92.018 141.439 92.9607 140.226 93.6513C139.012 94.342 137.668 94.6873 136.194 94.6873ZM136.194 91.3273C137.015 91.3273 137.734 91.1313 138.35 90.7393C138.984 90.3473 139.479 89.806 139.834 89.1153C140.207 88.406 140.394 87.6127 140.394 86.7353C140.394 85.8393 140.207 85.0553 139.834 84.3833C139.479 83.6927 138.984 83.1513 138.35 82.7593C137.734 82.3487 137.015 82.1433 136.194 82.1433C135.354 82.1433 134.616 82.3487 133.982 82.7593C133.347 83.1513 132.843 83.6927 132.47 84.3833C132.115 85.0553 131.938 85.8393 131.938 86.7353C131.938 87.6127 132.115 88.406 132.47 89.1153C132.843 89.806 133.347 90.3473 133.982 90.7393C134.616 91.1313 135.354 91.3273 136.194 91.3273ZM154.032 94.5193C152.315 94.5193 150.98 94.0527 150.028 93.1193C149.095 92.1673 148.628 90.8327 148.628 89.1153V82.3953H145.996V79.1193H146.276C147.023 79.1193 147.601 78.9233 148.012 78.5313C148.423 78.1393 148.628 77.57 148.628 76.8233V75.6473H152.296V79.1193H155.796V82.3953H152.296V88.9193C152.296 89.4233 152.38 89.8527 152.548 90.2073C152.735 90.562 153.015 90.8327 153.388 91.0193C153.78 91.206 154.275 91.2993 154.872 91.2993C155.003 91.2993 155.152 91.29 155.32 91.2713C155.507 91.2527 155.684 91.234 155.852 91.2153V94.3513C155.591 94.3887 155.292 94.426 154.956 94.4633C154.62 94.5007 154.312 94.5193 154.032 94.5193ZM164.639 94.3513V73.4913H168.447V94.3513H164.639ZM179.445 94.5193C177.728 94.5193 176.393 94.0527 175.441 93.1193C174.508 92.1673 174.041 90.8327 174.041 89.1153V82.3953H171.409V79.1193H171.689C172.436 79.1193 173.015 78.9233 173.425 78.5313C173.836 78.1393 174.041 77.57 174.041 76.8233V75.6473H177.709V79.1193H181.209V82.3953H177.709V88.9193C177.709 89.4233 177.793 89.8527 177.961 90.2073C178.148 90.562 178.428 90.8327 178.801 91.0193C179.193 91.206 179.688 91.2993 180.285 91.2993C180.416 91.2993 180.565 91.29 180.733 91.2713C180.92 91.2527 181.097 91.234 181.265 91.2153V94.3513C181.004 94.3887 180.705 94.426 180.369 94.4633C180.033 94.5007 179.725 94.5193 179.445 94.5193Z" fill="#001A14"/>
<path fill-rule="evenodd" clip-rule="evenodd" d="M209.976 73.1219C210.122 73.3754 210.373 73.5494 210.658 73.6159C214.349 74.477 217.251 77.3797 218.112 81.0698C218.179 81.3549 218.353 81.6058 218.606 81.7521L219.876 82.4853C220.543 82.8702 220.543 83.8328 219.876 84.2176L218.606 84.9501C218.353 85.0964 218.179 85.3474 218.112 85.6326C217.251 89.3229 214.349 92.2252 210.658 93.0862C210.373 93.1528 210.122 93.3268 209.976 93.5804L209.243 94.8503C208.859 95.5173 207.896 95.5175 207.511 94.8505L206.778 93.5802C206.632 93.3267 206.381 93.1528 206.096 93.0863C202.406 92.2249 199.503 89.3227 198.642 85.6325C198.575 85.3474 198.401 85.0964 198.148 84.9501L196.878 84.2175C196.211 83.8327 196.211 82.8703 196.878 82.4853L198.148 81.7521C198.401 81.6058 198.575 81.3549 198.642 81.0699C199.503 77.3799 202.406 74.4772 206.096 73.6159C206.381 73.5494 206.632 73.3755 206.778 73.1221L207.511 71.8521C207.896 71.1853 208.859 71.1854 209.243 71.8523L209.976 73.1219Z" fill="#6E8EF7"/>
<path d="M314.766 118.053C323.718 118.053 330.975 125.31 330.975 134.262V210.548C330.974 219.5 323.718 226.757 314.766 226.757H18.4189C9.46686 226.757 2.21019 219.5 2.20996 210.548V134.262C2.20996 125.31 9.46672 118.053 18.4189 118.053H314.766Z" fill="#F4FFE5" stroke="white" stroke-width="4.41889"/>
<path d="M56.1413 183.613V162.753H59.9493V171.853H68.8253V162.753H72.6613V183.613H68.8253V175.213H59.9493V183.613H56.1413ZM83.9425 183.949C82.3745 183.949 81.0025 183.594 79.8265 182.885C78.6505 182.176 77.7358 181.214 77.0825 180.001C76.4291 178.788 76.1025 177.444 76.1025 175.969C76.1025 174.438 76.4291 173.085 77.0825 171.909C77.7545 170.714 78.6598 169.772 79.7985 169.081C80.9558 168.39 82.2438 168.045 83.6625 168.045C84.8571 168.045 85.9025 168.241 86.7985 168.633C87.7131 169.025 88.4878 169.566 89.1225 170.257C89.7571 170.948 90.2425 171.741 90.5785 172.637C90.9145 173.514 91.0825 174.466 91.0825 175.493C91.0825 175.754 91.0638 176.025 91.0265 176.305C91.0078 176.585 90.9611 176.828 90.8865 177.033H79.1265V174.233H88.8145L87.0785 175.549C87.2465 174.69 87.1998 173.925 86.9385 173.253C86.6958 172.581 86.2851 172.049 85.7065 171.657C85.1465 171.265 84.4651 171.069 83.6625 171.069C82.8971 171.069 82.2158 171.265 81.6185 171.657C81.0211 172.03 80.5638 172.59 80.2465 173.337C79.9478 174.065 79.8358 174.952 79.9105 175.997C79.8358 176.93 79.9571 177.761 80.2745 178.489C80.6105 179.198 81.0958 179.749 81.7305 180.141C82.3838 180.533 83.1305 180.729 83.9705 180.729C84.8105 180.729 85.5198 180.552 86.0985 180.197C86.6958 179.842 87.1625 179.366 87.4985 178.769L90.4665 180.225C90.1678 180.953 89.7011 181.597 89.0665 182.157C88.4318 182.717 87.6758 183.156 86.7985 183.473C85.9398 183.79 84.9878 183.949 83.9425 183.949ZM98.7783 183.949C97.7143 183.949 96.7903 183.772 96.0063 183.417C95.2223 183.062 94.6156 182.558 94.1863 181.905C93.757 181.233 93.5423 180.458 93.5423 179.581C93.5423 178.741 93.729 177.994 94.1023 177.341C94.4756 176.669 95.0543 176.109 95.8383 175.661C96.6223 175.213 97.6116 174.896 98.8063 174.709L103.79 173.897V176.697L99.5063 177.425C98.7783 177.556 98.237 177.789 97.8823 178.125C97.5276 178.461 97.3503 178.9 97.3503 179.441C97.3503 179.964 97.5463 180.384 97.9383 180.701C98.349 181 98.853 181.149 99.4503 181.149C100.216 181.149 100.888 180.99 101.466 180.673C102.064 180.337 102.521 179.88 102.838 179.301C103.174 178.722 103.342 178.088 103.342 177.397V173.477C103.342 172.824 103.081 172.282 102.558 171.853C102.054 171.405 101.382 171.181 100.542 171.181C99.7583 171.181 99.0583 171.396 98.4423 171.825C97.845 172.236 97.4063 172.786 97.1263 173.477L94.1303 172.021C94.429 171.218 94.8956 170.528 95.5303 169.949C96.1836 169.352 96.949 168.885 97.8263 168.549C98.7036 168.213 99.6556 168.045 100.682 168.045C101.933 168.045 103.034 168.278 103.986 168.745C104.938 169.193 105.676 169.828 106.198 170.649C106.74 171.452 107.01 172.394 107.01 173.477V183.613H103.538V181.009L104.322 180.953C103.93 181.606 103.464 182.157 102.922 182.605C102.381 183.034 101.765 183.37 101.074 183.613C100.384 183.837 99.6183 183.949 98.7783 183.949ZM110.75 183.613V168.381H114.194V171.769L113.914 171.265C114.269 170.126 114.82 169.333 115.566 168.885C116.332 168.437 117.246 168.213 118.31 168.213H119.206V171.461H117.89C116.845 171.461 116.005 171.788 115.37 172.441C114.736 173.076 114.418 173.972 114.418 175.129V183.613H110.75ZM127.208 183.613V162.753H131.016V183.613H127.208ZM142.014 183.781C140.297 183.781 138.962 183.314 138.01 182.381C137.077 181.429 136.61 180.094 136.61 178.377V171.657H133.978V168.381H134.258C135.005 168.381 135.583 168.185 135.994 167.793C136.405 167.401 136.61 166.832 136.61 166.085V164.909H140.278V168.381H143.778V171.657H140.278V178.181C140.278 178.685 140.362 179.114 140.53 179.469C140.717 179.824 140.997 180.094 141.37 180.281C141.762 180.468 142.257 180.561 142.854 180.561C142.985 180.561 143.134 180.552 143.302 180.533C143.489 180.514 143.666 180.496 143.834 180.477V183.613C143.573 183.65 143.274 183.688 142.938 183.725C142.602 183.762 142.294 183.781 142.014 183.781Z" fill="#001A14"/>
<rect x="159.027" y="163.613" width="26" height="7" rx="3.5" fill="#FBB00B"/>
<rect x="159.027" y="174.613" width="26" height="7" rx="3.5" fill="#FBB00B"/>
<path d="M346.214 52.7678C348.769 43.0819 357.714 36.4302 367.767 36.8167L422.732 38.9299C431.971 39.2855 439.924 45.5205 442.495 54.3674L442.613 54.7903L443.625 58.5579L468.744 59.5247C478.798 59.9114 486.635 68.3753 486.249 78.429L485.792 90.2971C485.744 91.5682 485.192 92.7678 484.258 93.6321C483.325 94.4964 482.086 94.9544 480.815 94.9055L477.482 94.7766C480.009 96.8307 481.363 100.186 480.669 103.633L478.465 114.581C478.365 115.08 478.188 115.545 477.952 115.969L454.372 236.547C451.451 251.481 437.469 261.607 422.369 259.723L331.834 248.425C316.655 246.53 305.568 233.154 306.522 217.887L311.434 139.247C311.167 139.235 310.898 139.214 310.627 139.18C305.042 138.483 301.08 133.389 301.777 127.805L301.855 127.286C301.916 126.942 301.993 126.603 302.086 126.273C298.901 126.802 295.324 124.822 295.049 120.784V120.783L294.683 115.388L289.545 113.709H289.544C283.297 111.666 284.446 102.508 290.999 102.064L291 102.063L296.392 101.697L298.072 96.5598C300.084 90.4058 308.989 91.429 309.691 97.7102L309.718 98.0139L310.083 103.406L313.602 104.557L314.177 95.3547C314.085 94.945 314.046 94.5167 314.067 94.0784L314.327 88.5051L306.795 88.217C305.524 88.1683 304.324 87.6162 303.459 86.6829C302.595 85.7495 302.137 84.5107 302.186 83.2395L302.642 71.3713C303.029 61.3176 311.492 53.4801 321.546 53.8665L345.721 54.7952L346.097 53.2317L346.214 52.7678ZM308.375 117.098L307.461 119.89C309.044 119.124 310.841 118.759 312.706 118.91L312.837 116.795L308.375 117.098ZM367.151 52.8411C365.149 52.7642 363.321 53.7939 362.324 55.4329L426.727 57.9094C425.854 56.186 424.103 55.0299 422.116 54.9534L367.151 52.8411Z" fill="#FDCE25" stroke="white" stroke-width="9.59281" stroke-linecap="round" stroke-linejoin="round"/>
<path d="M320.002 79.0652L471.898 98.0208C474.367 98.329 476.059 100.665 475.581 103.107L449.664 235.627C447.227 248.087 435.561 256.535 422.962 254.963L332.429 243.665C319.763 242.084 310.512 230.924 311.308 218.185L320.002 79.0652Z" fill="#9EB4FA"/>
<path d="M319.596 78.5215L472.288 97.5765C474.767 97.8858 476.459 100.237 475.967 102.686L473.763 113.635L318.857 94.3033L319.596 78.5215Z" fill="#547AF6"/>
<rect x="428.321" y="161.315" width="38.1178" height="19.3274" rx="9.66368" transform="rotate(-172.887 428.321 161.315)" fill="white"/>
<rect x="410.208" y="159.054" width="19.8642" height="19.3274" rx="9.66368" transform="rotate(-172.887 410.208 159.054)" fill="#343434"/>
<rect x="380.907" y="155.398" width="38.1178" height="19.3274" rx="9.66368" transform="rotate(-172.887 380.907 155.398)" fill="white"/>
<rect x="362.794" y="153.138" width="19.8642" height="19.3274" rx="9.66368" transform="rotate(-172.887 362.794 153.138)" fill="#343434"/>
<path d="M378.613 174.79C382.627 178.255 388.502 181.063 396.711 177.048" stroke="#151C1D" stroke-width="2.52207" stroke-linecap="round"/>
<path d="M352.608 60.4499L353.892 55.1055C355.387 48.8846 361.065 44.5837 367.458 44.8294L422.423 46.9422C428.298 47.1681 433.343 51.1924 434.869 56.8712L436.939 64.5747" stroke="#547AF6" stroke-width="6.44245"/>
<path d="M307.434 71.5562C307.719 64.149 313.954 58.3751 321.362 58.6598L468.559 64.318C475.966 64.6027 481.74 70.8382 481.455 78.2454L480.999 90.1136L306.978 83.4243L307.434 71.5562Z" fill="#9EB4FA"/>
<path opacity="0.8" d="M322.074 204.271C321.094 212.122 322.079 228.626 333.856 231.835" stroke="white" stroke-width="3.7831" stroke-linecap="round"/>
<path opacity="0.8" d="M459.211 72.4325C462.155 72.0751 468.793 72.3235 471.791 76.1769" stroke="white" stroke-width="3.7831" stroke-linecap="round"/>
<path d="M353.395 240.797L354.127 227.842M405.853 247.344L412.555 211.214M354.615 219.205L356.446 186.816" stroke="#3D68F5" stroke-width="1.26015" stroke-linecap="round"/>
<path d="M302.631 98.0503C303.035 96.8159 304.845 97.0418 304.933 98.3375L305.463 106.164C305.496 106.645 305.817 107.058 306.275 107.207L313.731 109.645C314.966 110.049 314.74 111.859 313.444 111.947L305.617 112.477C305.136 112.51 304.724 112.831 304.574 113.289L302.136 120.746C301.733 121.98 299.922 121.754 299.835 120.458L299.304 112.631C299.272 112.151 298.95 111.738 298.493 111.588L291.036 109.151C289.802 108.747 290.028 106.937 291.323 106.849L299.15 106.318C299.631 106.286 300.044 105.965 300.193 105.507L302.631 98.0503Z" fill="#FDCE25"/>
<circle cx="311.888" cy="129.068" r="5.39439" transform="rotate(7.1134 311.888 129.068)" fill="#FDCE25"/>
</svg>
