<svg width="361" height="235" viewBox="0 0 361 235" fill="none" xmlns="http://www.w3.org/2000/svg">
<rect y="24.2055" width="347" height="210.357" rx="20" transform="rotate(-4 0 24.2055)" fill="#E7ECFE"/>
<path d="M31.8458 67.3291C30.9147 67.3942 30.0381 67.2818 29.2158 66.9917C28.3927 66.6884 27.6804 66.2504 27.079 65.6776C26.4775 65.1048 26.0159 64.4287 25.6941 63.6493L27.6306 62.6718C28.0539 63.5644 28.6286 64.2326 29.3547 64.6764C30.0807 65.1202 30.896 65.3104 31.8004 65.2472C32.3325 65.21 32.7924 65.0976 33.1803 64.9101C33.5672 64.7093 33.8564 64.4485 34.0478 64.1277C34.2525 63.806 34.3409 63.4456 34.313 63.0466C34.2749 62.5012 34.0917 62.0796 33.7635 61.7818C33.4352 61.484 32.9653 61.2629 32.3538 61.1185L29.4992 60.436C28.3578 60.1683 27.4698 59.7024 26.8352 59.0384C26.1998 58.3611 25.8486 57.5436 25.7816 56.5859C25.723 55.748 25.878 55.002 26.2466 54.3481C26.6143 53.6808 27.1447 53.1425 27.8378 52.7331C28.5443 52.3228 29.363 52.0852 30.2941 52.0201C31.1852 51.9577 32.0078 52.0606 32.7616 52.3287C33.5146 52.5834 34.1695 52.9654 34.7263 53.4744C35.2965 53.9825 35.7264 54.5874 36.016 55.2889L34.1208 56.2835C33.7733 55.5192 33.2721 54.9461 32.6172 54.5642C31.9756 54.1814 31.2491 54.0183 30.4378 54.075C29.9456 54.1094 29.5194 54.2261 29.1591 54.4251C28.7978 54.6107 28.5219 54.8706 28.3315 55.2047C28.1533 55.5246 28.0787 55.8907 28.1075 56.303C28.141 56.7818 28.3237 57.1968 28.6557 57.5478C28.9876 57.8988 29.4727 58.1456 30.1109 58.2881L32.7617 58.9247C33.9706 59.2011 34.8981 59.6575 35.544 60.294C36.1891 60.9172 36.5465 61.7276 36.6162 62.7251C36.6739 63.5498 36.5056 64.2967 36.1113 64.9658C35.7303 65.634 35.1738 66.1808 34.4417 66.6063C33.7086 67.0184 32.8433 67.2593 31.8458 67.3291ZM39.9481 70.5317L38.9143 55.7478L41.0691 55.5971L41.2253 57.8317L40.9297 57.3311C41.2859 56.6913 41.7845 56.1753 42.4253 55.783C43.0662 55.3907 43.8123 55.1647 44.6635 55.1052C45.6877 55.0336 46.6226 55.2155 47.4684 55.6509C48.3275 56.0853 49.0195 56.7119 49.5446 57.5306C50.0829 58.3484 50.3893 59.2893 50.4637 60.3534C50.5381 61.4175 50.3657 62.3919 49.9464 63.2766C49.5404 64.1604 48.9494 64.8834 48.1734 65.4456C47.3964 65.9944 46.4892 66.3051 45.4518 66.3777C44.6138 66.4363 43.8369 66.3168 43.1211 66.0194C42.4186 65.721 41.8583 65.259 41.4403 64.6333L41.7701 64.1892L42.2026 70.3741L39.9481 70.5317ZM45.0858 64.2981C45.7242 64.2535 46.2788 64.061 46.7496 63.7207C47.2203 63.3803 47.5767 62.9344 47.8189 62.3828C48.0733 61.817 48.1769 61.195 48.1294 60.5166C48.082 59.8383 47.8934 59.2433 47.5636 58.7317C47.247 58.2192 46.832 57.8272 46.3185 57.5557C45.805 57.2842 45.229 57.1708 44.5905 57.2154C43.9654 57.2592 43.4108 57.4516 42.9268 57.7929C42.456 58.1332 42.0929 58.5796 41.8375 59.1321C41.5954 59.6837 41.4981 60.2987 41.5455 60.977C41.5929 61.6554 41.7754 62.2574 42.0928 62.7832C42.4227 63.2948 42.8443 63.6863 43.3579 63.9578C43.8847 64.2284 44.4607 64.3419 45.0858 64.2981ZM58.6081 65.4577C57.5706 65.5302 56.6024 65.3507 55.7034 64.919C54.8178 64.4864 54.0924 63.8621 53.5275 63.0462C52.9625 62.2303 52.6424 61.2837 52.567 60.2063C52.4908 59.1156 52.6761 58.1337 53.1229 57.2604C53.5688 56.3738 54.2006 55.6613 55.0184 55.1229C55.8353 54.5713 56.7691 54.2587 57.8198 54.1852C58.8839 54.1108 59.8521 54.2904 60.7245 54.7239C61.6092 55.1432 62.3274 55.7613 62.8791 56.5781C63.4431 57.3808 63.7632 58.3274 63.8395 59.4181C63.9158 60.5087 63.731 61.4974 63.2851 62.384C62.8391 63.2706 62.2078 63.9897 61.3909 64.5413C60.5732 65.0797 59.6455 65.3852 58.6081 65.4577ZM58.4616 63.3628C59.1 63.3182 59.6546 63.1257 60.1254 62.7854C60.5961 62.445 60.9525 61.9991 61.1946 61.4475C61.4491 60.8817 61.5526 60.2596 61.5052 59.5813C61.4578 58.9029 61.2692 58.308 60.9393 57.7964C60.6228 57.2839 60.2078 56.8919 59.6943 56.6204C59.1807 56.3489 58.6048 56.2355 57.9663 56.2801C57.3412 56.3238 56.7866 56.5163 56.3025 56.8576C55.8318 57.1979 55.4687 57.6443 55.2133 58.1968C54.9712 58.7484 54.8739 59.3633 54.9213 60.0417C54.9687 60.72 55.1512 61.3221 55.4686 61.8479C55.7984 62.3595 56.2201 62.751 56.7336 63.0225C57.2605 63.2931 57.8364 63.4065 58.4616 63.3628ZM71.2499 64.4534C70.1193 64.5325 69.2192 64.2746 68.5494 63.6799C67.8796 63.0852 67.5042 62.2092 67.4233 61.052L67.0578 55.8248L65.1624 55.9573L65.0201 53.9223L65.3194 53.9014C65.8248 53.866 66.207 53.6923 66.4658 53.3802C66.7247 53.068 66.8364 52.6592 66.8011 52.1538L66.7425 51.3158L68.997 51.1582L69.17 53.6321L71.624 53.4605L71.7663 55.4956L69.3123 55.6672L69.6708 60.7946C69.6969 61.1671 69.7791 61.4821 69.9174 61.7397C70.0547 61.9841 70.2616 62.1701 70.5378 62.2978C70.8131 62.4122 71.1636 62.4546 71.5892 62.4248C71.6956 62.4174 71.8149 62.4023 71.947 62.3797C72.079 62.3571 72.2045 62.335 72.3232 62.3133L72.4586 64.2486C72.2742 64.2882 72.0699 64.3292 71.8457 64.3716C71.6214 64.4141 71.4228 64.4413 71.2499 64.4534ZM83.5215 63.5953C82.3909 63.6743 81.4908 63.4165 80.821 62.8218C80.1512 62.2271 79.7758 61.3511 79.6949 60.1939L79.3294 54.9667L77.434 55.0992L77.2917 53.0642L77.591 53.0433C78.0964 53.0079 78.4786 52.8342 78.7374 52.522C78.9963 52.2099 79.108 51.8011 79.0727 51.2957L79.0141 50.4577L81.2686 50.3001L81.4416 52.774L83.8956 52.6024L84.0379 54.6374L81.5839 54.809L81.9424 59.9365C81.9685 60.309 82.0507 60.624 82.189 60.8816C82.3263 61.126 82.5332 61.312 82.8094 61.4397C83.0847 61.5541 83.4352 61.5964 83.8608 61.5667C83.9672 61.5592 84.0865 61.5442 84.2185 61.5216C84.3506 61.499 84.4761 61.4769 84.5948 61.4552L84.7302 63.3905C84.5458 63.4301 84.3415 63.4711 84.1173 63.5135C83.893 63.5559 83.6944 63.5832 83.5215 63.5953ZM87.2794 63.2122L86.2233 48.1091L88.4778 47.9514L88.927 54.3758L88.5484 54.1216C88.7669 53.4246 89.1568 52.8828 89.7178 52.496C90.2779 52.096 90.9437 51.869 91.7152 51.815C92.5132 51.7592 93.2303 51.8828 93.8663 52.1859C94.5023 52.4889 95.0146 52.9343 95.4032 53.5219C95.7918 54.1096 96.0136 54.7958 96.0685 55.5805L96.5567 62.5635L94.3222 62.7197L93.8772 56.3553C93.839 55.8099 93.7005 55.3585 93.4617 55.001C93.2352 54.6292 92.9354 54.3561 92.5623 54.1817C92.1883 53.994 91.7686 53.9164 91.303 53.949C90.8508 53.9806 90.4459 54.1158 90.0884 54.3547C89.7432 54.5793 89.4777 54.8919 89.2919 55.2925C89.1193 55.6922 89.0516 56.1581 89.0889 56.6901L89.5339 63.0546L87.2794 63.2122ZM104.403 62.2554C103.326 62.3307 102.351 62.1516 101.479 61.7181C100.619 61.2703 99.926 60.6371 99.4009 59.8184C98.875 58.9864 98.5748 58.0384 98.5003 56.9743C98.4241 55.8836 98.5894 54.903 98.9963 54.0325C99.4166 53.1611 100.009 52.4581 100.774 51.9234C101.537 51.3755 102.424 51.0662 103.435 50.9955C104.247 50.9387 104.981 51.0277 105.639 51.2624C106.297 51.4971 106.863 51.8451 107.336 52.3066C107.809 52.7547 108.18 53.2834 108.45 53.8928C108.733 54.5012 108.899 55.1578 108.948 55.8628C108.96 56.0357 108.966 56.2157 108.966 56.4029C108.966 56.59 108.951 56.7648 108.922 56.9272L100.323 57.5285L100.198 55.7329L107.52 55.2208L106.5 56.1142C106.587 55.4531 106.5 54.8778 106.239 54.3882C105.99 53.8843 105.629 53.5019 105.156 53.2409C104.696 52.9657 104.166 52.849 103.568 52.8909C102.969 52.9327 102.448 53.1229 102.004 53.4613C101.559 53.7865 101.229 54.2373 101.016 54.8136C100.801 55.3766 100.748 56.0486 100.856 56.8296C100.841 57.5658 100.985 58.1973 101.289 58.724C101.607 59.2498 102.022 59.6485 102.536 59.92C103.062 60.1906 103.645 60.3035 104.284 60.2589C104.935 60.2133 105.477 60.0284 105.909 59.7042C106.354 59.379 106.693 58.9743 106.927 58.4902L108.825 59.2597C108.647 59.78 108.347 60.2621 107.924 60.706C107.513 61.1358 107.003 61.4922 106.394 61.7753C105.798 62.0442 105.135 62.2042 104.403 62.2554ZM115.96 61.2067L114.92 46.343L120.327 45.9649C121.325 45.8951 122.216 46.02 123 46.3394C123.796 46.6446 124.432 47.1347 124.907 47.8099C125.381 48.4718 125.652 49.2882 125.72 50.2592C125.787 51.2168 125.625 52.0568 125.235 52.7792C124.857 53.5006 124.303 54.074 123.571 54.4995C122.838 54.9249 121.974 55.1725 120.976 55.2422L117.923 55.4557L118.314 61.0421L115.96 61.2067ZM117.777 53.3608L120.889 53.1432C121.421 53.106 121.879 52.967 122.264 52.7263C122.648 52.4856 122.94 52.1711 123.14 51.7829C123.339 51.3813 123.421 50.9212 123.384 50.4025C123.348 49.8837 123.204 49.4461 122.952 49.0894C122.699 48.7195 122.365 48.4488 121.953 48.2772C121.539 48.0923 121.066 48.0184 120.534 48.0556L117.421 48.2732L117.777 53.3608ZM128.988 60.2957L128.233 49.502L130.388 49.3514L130.54 51.5261L130.318 51.2208C130.508 50.4991 130.858 49.9667 131.369 49.6236C131.879 49.2672 132.506 49.0629 133.251 49.0108L133.909 48.9648L134.053 51.0198L133.115 51.0853C132.37 51.1374 131.782 51.4125 131.349 51.9106C130.928 52.3944 130.747 53.062 130.807 53.9132L131.242 60.138L128.988 60.2957ZM141.789 59.6411C140.752 59.7136 139.784 59.5341 138.885 59.1024C137.999 58.6698 137.274 58.0455 136.709 57.2296C136.144 56.4137 135.824 55.4671 135.748 54.3897C135.672 53.299 135.857 52.3171 136.304 51.4438C136.75 50.5572 137.382 49.8447 138.2 49.3063C139.017 48.7547 139.95 48.4421 141.001 48.3686C142.065 48.2942 143.033 48.4738 143.906 48.9073C144.79 49.3266 145.509 49.9447 146.06 50.7615C146.624 51.5642 146.945 52.5108 147.021 53.6015C147.097 54.6921 146.912 55.6808 146.466 56.5674C146.02 57.454 145.389 58.1731 144.572 58.7247C143.754 59.2631 142.827 59.5686 141.789 59.6411ZM141.643 57.5462C142.281 57.5016 142.836 57.3091 143.307 56.9688C143.777 56.6284 144.134 56.1825 144.376 55.6309C144.63 55.0651 144.734 54.443 144.686 53.7647C144.639 53.0863 144.45 52.4914 144.121 51.9798C143.804 51.4673 143.389 51.0753 142.876 50.8038C142.362 50.5323 141.786 50.4189 141.148 50.4635C140.522 50.5072 139.968 50.6997 139.484 51.041C139.013 51.3813 138.65 51.8277 138.395 52.3802C138.152 52.9318 138.055 53.5467 138.103 54.2251C138.15 54.9034 138.332 55.5055 138.65 56.0313C138.98 56.5429 139.401 56.9344 139.915 57.2059C140.442 57.4765 141.018 57.5899 141.643 57.5462ZM155.732 58.6662C154.894 58.7248 154.117 58.6053 153.401 58.3079C152.698 58.0095 152.138 57.5474 151.72 56.9217L151.95 56.4846L152.104 58.6793L149.949 58.8299L148.893 43.7268L151.147 43.5692L151.605 50.1132L151.21 49.6196C151.566 48.9798 152.064 48.4638 152.705 48.0715C153.346 47.6791 154.092 47.4532 154.943 47.3937C155.968 47.3221 156.903 47.504 157.748 47.9394C158.607 48.3738 159.299 49.0004 159.825 49.8191C160.363 50.6369 160.669 51.5778 160.744 52.6419C160.818 53.7059 160.646 54.6803 160.226 55.5651C159.82 56.4489 159.229 57.1719 158.453 57.734C157.676 58.2829 156.769 58.5936 155.732 58.6662ZM155.366 56.5866C156.004 56.542 156.559 56.3495 157.03 56.0092C157.5 55.6688 157.857 55.2229 158.099 54.6713C158.353 54.1055 158.457 53.4834 158.409 52.8051C158.362 52.1267 158.173 51.5318 157.843 51.0202C157.527 50.5077 157.112 50.1157 156.598 49.8442C156.085 49.5727 155.509 49.4593 154.87 49.5039C154.245 49.5476 153.691 49.7401 153.207 50.0814C152.736 50.4217 152.373 50.8681 152.117 51.4206C151.875 51.9722 151.778 52.5871 151.825 53.2655C151.873 53.9438 152.055 54.5459 152.373 55.0717C152.703 55.5833 153.124 55.9748 153.638 56.2463C154.165 56.5169 154.741 56.6303 155.366 56.5866ZM163.664 57.8709L162.608 42.7678L164.862 42.6101L165.918 57.7132L163.664 57.8709ZM173.988 57.3896C172.911 57.4649 171.936 57.2858 171.063 56.8523C170.203 56.4045 169.511 55.7713 168.986 54.9526C168.46 54.1206 168.16 53.1725 168.085 52.1084C168.009 51.0178 168.174 50.0372 168.581 49.1667C169.001 48.2952 169.594 47.5922 170.358 47.0576C171.122 46.5096 172.009 46.2003 173.02 46.1296C173.831 46.0729 174.566 46.1619 175.224 46.3965C175.882 46.6312 176.448 46.9793 176.921 47.4407C177.393 47.8889 177.765 48.4176 178.034 49.0269C178.318 49.6353 178.484 50.292 178.533 50.9969C178.545 51.1698 178.551 51.3499 178.551 51.537C178.55 51.7242 178.536 51.8989 178.507 52.0613L169.908 52.6626L169.783 50.867L177.105 50.355L176.085 51.2483C176.172 50.5873 176.085 50.012 175.824 49.5223C175.574 49.0185 175.214 48.6361 174.741 48.3751C174.281 48.0998 173.751 47.9832 173.153 48.025C172.554 48.0669 172.033 48.257 171.589 48.5955C171.144 48.9207 170.814 49.3714 170.601 49.9477C170.386 50.5107 170.333 51.1827 170.441 51.9638C170.425 52.7 170.57 53.3314 170.874 53.8582C171.191 54.384 171.607 54.7826 172.12 55.0541C172.647 55.3247 173.23 55.4377 173.868 55.393C174.52 55.3475 175.062 55.1626 175.494 54.8383C175.939 54.5131 176.278 54.1085 176.511 53.6244L178.41 54.3938C178.232 54.9141 177.932 55.3963 177.508 55.8402C177.097 56.2699 176.588 56.6263 175.979 56.9095C175.383 57.1784 174.719 57.3384 173.988 57.3896ZM181.488 56.6245L180.734 45.8308L182.888 45.6802L183.052 48.0145L182.747 47.6749C182.922 46.9275 183.296 46.3467 183.868 45.9324C184.441 45.5181 185.113 45.284 185.884 45.2301C186.749 45.1696 187.53 45.3489 188.228 45.7679C188.937 46.1727 189.432 46.7463 189.711 47.4886L189.077 47.5931C189.336 46.7063 189.776 46.0272 190.398 45.556C191.033 45.0839 191.777 44.8181 192.628 44.7585C193.373 44.7064 194.056 44.8324 194.679 45.1364C195.315 45.4394 195.834 45.8843 196.236 46.471C196.638 47.0577 196.866 47.7435 196.921 48.5282L197.41 55.5112L195.155 55.6688L194.71 49.3044C194.672 48.759 194.54 48.3071 194.314 47.9486C194.101 47.5759 193.815 47.3019 193.455 47.1266C193.108 46.937 192.708 46.8581 192.256 46.8897C191.803 46.9213 191.412 47.0556 191.081 47.2926C190.749 47.5163 190.497 47.828 190.324 48.2277C190.152 48.6274 190.084 49.0932 190.121 49.6252L190.566 55.9897L188.332 56.146L187.887 49.7815C187.849 49.2362 187.717 48.7843 187.491 48.4258C187.278 48.0531 186.991 47.7791 186.632 47.6037C186.284 47.4142 185.878 47.3357 185.412 47.3682C184.96 47.3998 184.568 47.5342 184.238 47.7711C183.906 47.9948 183.653 48.3065 183.481 48.7062C183.322 49.105 183.261 49.5703 183.298 50.1024L183.743 56.4668L181.488 56.6245Z" fill="#051B61"/>
<path d="M33.6377 175.585L33.014 166.667L34.1872 166.585L34.7355 174.426L38.6499 174.152L38.7252 175.229L33.6377 175.585ZM40.2614 175.122L39.8102 168.67L40.9235 168.592L41.3746 175.044L40.2614 175.122ZM39.7382 167.64L39.6377 166.204L40.751 166.126L40.8515 167.562L39.7382 167.64ZM43.4512 174.899L42.8176 165.837L43.9308 165.759L44.2012 169.626L43.9902 169.532C44.1213 169.114 44.3547 168.781 44.6902 168.533C45.0331 168.276 45.444 168.131 45.9228 168.098C46.3857 168.066 46.804 168.141 47.1776 168.323C47.5592 168.505 47.8666 168.772 48.0998 169.125C48.3409 169.477 48.4777 169.884 48.51 170.347L48.8022 174.525L47.6769 174.603L47.4099 170.785C47.3848 170.426 47.2957 170.127 47.1428 169.889C46.9978 169.651 46.8048 169.472 46.5639 169.352C46.3224 169.225 46.05 169.172 45.7468 169.193C45.4515 169.214 45.1892 169.304 44.9598 169.464C44.7299 169.617 44.556 169.826 44.4382 170.09C44.3198 170.347 44.2729 170.651 44.2975 171.002L44.5645 174.821L43.4512 174.899ZM52.6458 174.4C52.2228 174.43 51.8424 174.38 51.5046 174.252C51.1742 174.114 50.9078 173.916 50.7053 173.658C50.5022 173.391 50.3881 173.079 50.363 172.719C50.339 172.376 50.3893 172.064 50.514 171.783C50.6461 171.493 50.8611 171.241 51.1589 171.028C51.4647 170.814 51.8543 170.65 52.3275 170.537L54.6941 169.975L54.7593 170.908L52.6417 171.417C52.2317 171.518 51.9377 171.671 51.7595 171.876C51.5894 172.08 51.5141 172.322 51.5336 172.602C51.552 172.865 51.6711 173.077 51.8909 173.238C52.1186 173.399 52.3921 173.468 52.7113 173.445C53.1183 173.417 53.4636 173.309 53.7472 173.12C54.0382 172.924 54.2571 172.672 54.4041 172.365C54.559 172.057 54.6239 171.724 54.5988 171.365L54.4841 169.725C54.4595 169.374 54.3081 169.099 54.0296 168.902C53.7586 168.697 53.4116 168.609 52.9887 168.638C52.6216 168.664 52.3011 168.783 52.0272 168.994C51.7607 169.197 51.5705 169.459 51.4566 169.78L50.4518 169.345C50.5509 169.041 50.724 168.765 50.9711 168.515C51.2178 168.257 51.5119 168.048 51.8536 167.888C52.1952 167.728 52.5576 167.634 52.9406 167.607C53.4354 167.573 53.8771 167.638 54.2655 167.803C54.6535 167.961 54.9629 168.2 55.1938 168.52C55.4322 168.832 55.5667 169.208 55.5974 169.647L55.9038 174.028L54.8144 174.104L54.729 172.883L54.9376 172.941C54.8197 173.206 54.6518 173.442 54.4338 173.65C54.2157 173.857 53.955 174.028 53.6516 174.162C53.3481 174.295 53.0129 174.375 52.6458 174.4ZM60.4888 173.78C59.8583 173.824 59.3589 173.678 58.9906 173.343C58.6304 173.007 58.4273 172.512 58.3816 171.858L58.1438 168.458L56.9707 168.54L56.8962 167.475L57.1356 167.458C57.4229 167.438 57.6442 167.334 57.7995 167.147C57.9548 166.96 58.0225 166.723 58.0024 166.435L57.9655 165.909L59.0788 165.831L59.1826 167.315L60.6311 167.214L60.7056 168.279L59.2571 168.38L59.4923 171.744C59.5074 171.96 59.5524 172.145 59.6274 172.3C59.7104 172.455 59.8351 172.574 60.0014 172.659C60.1671 172.736 60.3817 172.765 60.645 172.746C60.7009 172.742 60.7685 172.734 60.8477 172.72C60.9349 172.706 61.0142 172.692 61.0855 172.679L61.1541 173.661C61.052 173.692 60.9374 173.716 60.8103 173.733C60.6837 173.758 60.5765 173.774 60.4888 173.78ZM67.6962 173.348C67.0498 173.393 66.476 173.273 65.9749 172.987C65.4737 172.701 65.1044 172.294 64.8669 171.765L65.7226 171.273C65.933 171.643 66.2056 171.928 66.5404 172.13C66.8753 172.331 67.2382 172.418 67.6293 172.39C67.9804 172.366 68.2658 172.262 68.4855 172.078C68.7053 171.894 68.8056 171.666 68.7867 171.395C68.7733 171.204 68.7068 171.056 68.5873 170.952C68.4751 170.839 68.341 170.757 68.1849 170.703C68.0283 170.642 67.885 170.6 67.7551 170.577L66.7662 170.37C66.1719 170.243 65.7282 170.033 65.4351 169.741C65.15 169.448 64.9929 169.094 64.9639 168.679C64.9371 168.296 65.0097 167.958 65.1817 167.665C65.3611 167.364 65.6129 167.122 65.9369 166.939C66.2689 166.755 66.6464 166.649 67.0693 166.619C67.6359 166.58 68.1527 166.688 68.6197 166.944C69.0947 167.199 69.4461 167.58 69.6739 168.085L68.7934 168.568C68.6264 168.243 68.3925 167.994 68.0918 167.823C67.7905 167.643 67.4603 167.566 67.1012 167.591C66.774 167.614 66.5205 167.716 66.3407 167.897C66.1603 168.07 66.0788 168.28 66.0961 168.528C66.1089 168.711 66.1674 168.86 66.2715 168.973C66.3751 169.078 66.497 169.157 66.6371 169.212C66.7767 169.258 66.9117 169.297 67.0422 169.328L68.1174 169.565C68.6547 169.68 69.0782 169.887 69.3878 170.186C69.7054 170.485 69.8798 170.858 69.9111 171.304C69.9362 171.664 69.859 171.994 69.6796 172.295C69.5002 172.596 69.2405 172.839 68.9005 173.023C68.5605 173.207 68.1591 173.316 67.6962 173.348ZM73.7404 172.925C73.3174 172.955 72.937 172.905 72.5992 172.776C72.2688 172.639 72.0024 172.441 71.7998 172.183C71.5968 171.916 71.4827 171.604 71.4576 171.244C71.4336 170.901 71.4839 170.589 71.6086 170.308C71.7407 170.018 71.9556 169.766 72.2535 169.553C72.5593 169.339 72.9489 169.175 73.4221 169.062L75.7886 168.5L75.8539 169.433L73.7363 169.942C73.3263 170.043 73.0323 170.196 72.8541 170.401C72.684 170.605 72.6086 170.847 72.6282 171.126C72.6466 171.39 72.7657 171.602 72.9855 171.763C73.2132 171.924 73.4867 171.993 73.8059 171.97C74.2129 171.942 74.5582 171.834 74.8418 171.645C75.1327 171.449 75.3517 171.197 75.4987 170.89C75.6536 170.582 75.7185 170.249 75.6934 169.89L75.5787 168.25C75.5541 167.898 75.4026 167.624 75.1242 167.427C74.8532 167.222 74.5062 167.134 74.0833 167.163C73.7162 167.189 73.3957 167.308 73.1218 167.519C72.8553 167.722 72.6651 167.984 72.5512 168.305L71.5464 167.87C71.6454 167.566 71.8186 167.29 72.0657 167.04C72.3123 166.782 72.6065 166.573 72.9481 166.413C73.2898 166.252 73.6522 166.159 74.0352 166.132C74.53 166.098 74.9716 166.163 75.3601 166.328C75.748 166.486 76.0575 166.725 76.2884 167.045C76.5268 167.357 76.6613 167.733 76.692 168.172L76.9983 172.553L75.909 172.629L75.8236 171.408L76.0321 171.466C75.9143 171.731 75.7464 171.967 75.5284 172.175C75.3103 172.382 75.0496 172.553 74.7462 172.687C74.4427 172.82 74.1075 172.9 73.7404 172.925ZM79.0736 172.408L78.6224 165.956L79.7118 165.88L79.8038 167.196L79.634 167.004C79.7651 166.586 79.9988 166.256 80.3348 166.016C80.6709 165.776 81.0584 165.641 81.4973 165.61C82.0001 165.575 82.4608 165.683 82.8793 165.935C83.3059 166.186 83.6109 166.533 83.7943 166.977L83.4839 167.011C83.6163 166.497 83.8731 166.098 84.2543 165.815C84.6349 165.523 85.0686 165.361 85.5554 165.327C86.0023 165.295 86.4126 165.371 86.7862 165.553C87.1679 165.735 87.4792 166.002 87.7204 166.354C87.9615 166.706 88.0983 167.114 88.1306 167.576L88.4228 171.754L87.2975 171.833L87.0305 168.014C87.0054 167.655 86.9203 167.356 86.7754 167.118C86.6304 166.879 86.4414 166.7 86.2085 166.58C85.9829 166.451 85.7225 166.398 85.4273 166.418C85.14 166.438 84.8856 166.528 84.6642 166.688C84.4503 166.839 84.2844 167.047 84.1666 167.312C84.0562 167.569 84.0133 167.872 84.0378 168.223L84.3048 172.042L83.1796 172.121L82.9126 168.302C82.8874 167.943 82.8024 167.644 82.6574 167.406C82.5124 167.167 82.3235 166.988 82.0905 166.868C81.865 166.739 81.6046 166.685 81.3093 166.706C81.022 166.726 80.7677 166.816 80.5463 166.976C80.3323 167.127 80.1664 167.335 80.0486 167.6C79.9382 167.857 79.8953 168.16 79.9199 168.511L80.1869 172.33L79.0736 172.408ZM90.5205 174.013L89.9019 165.167L90.9913 165.091L91.0884 166.479L90.9255 166.214C91.1381 165.814 91.4441 165.488 91.8434 165.236C92.2422 164.975 92.709 164.826 93.2437 164.789C93.8502 164.747 94.4032 164.856 94.9027 165.118C95.4101 165.379 95.8214 165.755 96.1364 166.247C96.4509 166.73 96.6307 167.295 96.6759 167.941C96.72 168.572 96.6203 169.152 96.3767 169.682C96.1331 170.213 95.7782 170.642 95.312 170.972C94.8538 171.3 94.3175 171.486 93.703 171.529C93.1843 171.566 92.7013 171.483 92.2542 171.282C91.815 171.08 91.465 170.776 91.204 170.369L91.3701 170.165L91.6338 173.936L90.5205 174.013ZM93.5439 170.458C93.9509 170.429 94.307 170.304 94.6123 170.082C94.9175 169.861 95.146 169.572 95.2975 169.216C95.4565 168.852 95.521 168.455 95.4908 168.024C95.4596 167.577 95.3405 167.193 95.1335 166.87C94.9339 166.539 94.6675 166.285 94.3344 166.108C94.0006 165.923 93.6303 165.845 93.2233 165.873C92.8163 165.901 92.4561 166.027 92.1429 166.249C91.8376 166.471 91.6015 166.764 91.4345 167.129C91.275 167.485 91.2105 167.882 91.2412 168.321C91.2713 168.752 91.3905 169.137 91.5986 169.475C91.8141 169.805 92.0885 170.058 92.4216 170.236C92.7628 170.412 93.1369 170.486 93.5439 170.458ZM100.611 171.046C100.189 171.076 99.8081 171.026 99.4703 170.897C99.1399 170.76 98.8735 170.562 98.671 170.304C98.4679 170.037 98.3538 169.725 98.3287 169.365C98.3047 169.022 98.355 168.71 98.4797 168.429C98.6118 168.139 98.8267 167.887 99.1246 167.674C99.4304 167.46 99.82 167.296 100.293 167.183L102.66 166.621L102.725 167.554L100.607 168.063C100.197 168.164 99.9034 168.317 99.7252 168.522C99.5551 168.726 99.4797 168.968 99.4993 169.247C99.5177 169.511 99.6368 169.723 99.8566 169.884C100.084 170.045 100.358 170.114 100.677 170.091C101.084 170.063 101.429 169.955 101.713 169.766C102.004 169.57 102.223 169.318 102.37 169.011C102.525 168.703 102.59 168.37 102.564 168.011L102.45 166.371C102.425 166.019 102.274 165.745 101.995 165.548C101.724 165.343 101.377 165.255 100.954 165.284C100.587 165.31 100.267 165.429 99.9929 165.64C99.7264 165.843 99.5362 166.105 99.4223 166.426L98.4175 165.991C98.5165 165.687 98.6897 165.411 98.9368 165.161C99.1835 164.903 99.4776 164.694 99.8192 164.534C100.161 164.373 100.523 164.28 100.906 164.253C101.401 164.219 101.843 164.284 102.231 164.449C102.619 164.607 102.929 164.846 103.16 165.166C103.398 165.478 103.532 165.854 103.563 166.293L103.869 170.674L102.78 170.75L102.695 169.529L102.903 169.587C102.785 169.852 102.618 170.088 102.399 170.296C102.181 170.503 101.921 170.674 101.617 170.808C101.314 170.941 100.979 171.021 100.611 171.046ZM105.945 170.529L105.311 161.467L106.424 161.389L106.695 165.256L106.484 165.162C106.615 164.744 106.848 164.411 107.184 164.163C107.527 163.906 107.937 163.761 108.416 163.728C108.879 163.696 109.297 163.771 109.671 163.953C110.053 164.135 110.36 164.402 110.593 164.755C110.834 165.107 110.971 165.514 111.004 165.977L111.296 170.155L110.17 170.233L109.903 166.415C109.878 166.056 109.789 165.757 109.636 165.519C109.491 165.281 109.298 165.102 109.057 164.982C108.816 164.855 108.544 164.802 108.24 164.823C107.945 164.844 107.683 164.934 107.453 165.094C107.223 165.247 107.05 165.456 106.932 165.72C106.813 165.977 106.766 166.281 106.791 166.632L107.058 170.451L105.945 170.529ZM116.187 172.459C116.044 172.469 115.899 172.467 115.754 172.453C115.609 172.439 115.47 172.409 115.339 172.362L115.269 171.369C115.358 171.378 115.467 171.387 115.596 171.394C115.733 171.408 115.866 171.411 115.993 171.402C116.368 171.376 116.646 171.272 116.826 171.091C117.014 170.918 117.182 170.625 117.33 170.214L117.669 169.216L117.713 170.187L114.475 163.449L115.684 163.364L118.212 168.721L117.853 168.746L119.598 163.09L120.831 163.004L118.427 170.426C118.315 170.779 118.162 171.102 117.966 171.397C117.778 171.698 117.539 171.944 117.247 172.132C116.956 172.321 116.602 172.43 116.187 172.459ZM124.29 169.391C123.867 169.42 123.486 169.371 123.148 169.242C122.818 169.104 122.552 168.907 122.349 168.648C122.146 168.382 122.032 168.069 122.007 167.71C121.983 167.366 122.033 167.054 122.158 166.773C122.29 166.483 122.505 166.231 122.803 166.018C123.109 165.804 123.498 165.641 123.971 165.527L126.338 164.965L126.403 165.899L124.285 166.408C123.876 166.508 123.581 166.661 123.403 166.866C123.233 167.071 123.158 167.312 123.177 167.592C123.196 167.855 123.315 168.067 123.535 168.228C123.762 168.389 124.036 168.458 124.355 168.436C124.762 168.407 125.107 168.299 125.391 168.111C125.682 167.914 125.901 167.662 126.048 167.355C126.203 167.047 126.268 166.714 126.243 166.355L126.128 164.715C126.103 164.364 125.952 164.09 125.673 163.893C125.402 163.687 125.055 163.599 124.632 163.629C124.265 163.654 123.945 163.773 123.671 163.984C123.404 164.188 123.214 164.449 123.1 164.77L122.096 164.335C122.195 164.032 122.368 163.755 122.615 163.505C122.862 163.247 123.156 163.038 123.497 162.878C123.839 162.718 124.201 162.624 124.584 162.597C125.079 162.563 125.521 162.628 125.909 162.793C126.297 162.951 126.607 163.19 126.838 163.51C127.076 163.823 127.21 164.198 127.241 164.637L127.548 169.018L126.458 169.095L126.373 167.873L126.581 167.931C126.464 168.196 126.296 168.432 126.078 168.64C125.86 168.848 125.599 169.018 125.295 169.152C124.992 169.285 124.657 169.365 124.29 169.391ZM129.623 168.873L129.172 162.421L130.261 162.345L130.349 163.602L130.162 163.507C130.293 163.088 130.526 162.755 130.862 162.507C131.205 162.251 131.616 162.106 132.094 162.072C132.557 162.04 132.976 162.115 133.349 162.297C133.731 162.479 134.038 162.746 134.271 163.099C134.513 163.451 134.649 163.858 134.682 164.321L134.974 168.499L133.849 168.578L133.581 164.759C133.556 164.4 133.471 164.101 133.326 163.863C133.181 163.624 132.984 163.446 132.736 163.327C132.494 163.199 132.222 163.146 131.918 163.167C131.615 163.188 131.349 163.279 131.119 163.44C130.898 163.591 130.728 163.8 130.61 164.065C130.491 164.322 130.445 164.626 130.469 164.977L130.736 168.795L129.623 168.873ZM140.177 170.782C139.722 170.813 139.294 170.771 138.893 170.655C138.5 170.538 138.154 170.362 137.857 170.126C137.569 169.897 137.341 169.621 137.174 169.296L138.182 168.744C138.315 169.039 138.544 169.28 138.87 169.466C139.204 169.659 139.61 169.739 140.089 169.705C140.456 169.679 140.783 169.584 141.068 169.42C141.362 169.263 141.586 169.039 141.743 168.747C141.899 168.464 141.964 168.127 141.936 167.735L141.835 166.287L142.054 166.488C141.861 166.943 141.561 167.301 141.154 167.562C140.756 167.822 140.305 167.97 139.802 168.005C139.195 168.047 138.643 167.946 138.145 167.7C137.646 167.446 137.244 167.085 136.938 166.617C136.632 166.142 136.458 165.604 136.417 165.006C136.374 164.399 136.472 163.843 136.709 163.337C136.946 162.832 137.29 162.423 137.742 162.11C138.201 161.79 138.733 161.608 139.34 161.566C139.842 161.53 140.305 161.614 140.729 161.817C141.159 162.012 141.512 162.3 141.787 162.682L141.641 162.993L141.54 161.556L142.63 161.48L143.062 167.657C143.101 168.215 143.004 168.723 142.771 169.181C142.539 169.638 142.195 170.007 141.742 170.287C141.297 170.575 140.775 170.74 140.177 170.782ZM139.822 166.921C140.206 166.894 140.542 166.774 140.832 166.562C141.13 166.348 141.359 166.076 141.52 165.744C141.681 165.404 141.748 165.034 141.72 164.635C141.692 164.244 141.575 163.891 141.369 163.577C141.163 163.263 140.897 163.021 140.572 162.851C140.256 162.68 139.906 162.609 139.523 162.635C139.132 162.663 138.783 162.783 138.477 162.997C138.172 163.211 137.938 163.488 137.778 163.828C137.624 164.16 137.562 164.525 137.59 164.924C137.618 165.323 137.731 165.68 137.929 165.995C138.135 166.301 138.4 166.539 138.725 166.709C139.058 166.878 139.423 166.949 139.822 166.921ZM34.5523 190.558L34.1011 184.106L35.1905 184.029L35.2826 185.346L35.1127 185.154C35.2439 184.735 35.4775 184.406 35.8135 184.166C36.1496 183.926 36.5371 183.791 36.9761 183.76C37.4788 183.725 37.9395 183.833 38.358 184.085C38.7846 184.335 39.0896 184.683 39.273 185.127L38.9626 185.161C39.095 184.647 39.3518 184.248 39.733 183.964C40.1136 183.673 40.5473 183.51 41.0341 183.476C41.4811 183.445 41.8913 183.521 42.265 183.703C42.6466 183.885 42.9579 184.152 43.1991 184.504C43.4402 184.856 43.577 185.263 43.6094 185.726L43.9015 189.904L42.7762 189.983L42.5092 186.164C42.4841 185.805 42.3991 185.506 42.2541 185.268C42.1091 185.029 41.9201 184.85 41.6872 184.73C41.4617 184.601 41.2013 184.547 40.906 184.568C40.6187 184.588 40.3643 184.678 40.1429 184.838C39.929 184.989 39.7631 185.197 39.6453 185.462C39.5349 185.718 39.492 186.022 39.5165 186.373L39.7836 190.192L38.6583 190.271L38.3913 186.452C38.3662 186.093 38.2811 185.794 38.1361 185.556C37.9911 185.317 37.8022 185.138 37.5692 185.018C37.3437 184.889 37.0833 184.835 36.788 184.856C36.5007 184.876 36.2464 184.966 36.025 185.126C35.811 185.277 35.6451 185.485 35.5273 185.75C35.4169 186.006 35.374 186.31 35.3986 186.661L35.6656 190.48L34.5523 190.558ZM48.8106 189.705C48.1881 189.749 47.6232 189.64 47.1157 189.379C46.6082 189.117 46.197 188.741 45.882 188.25C45.5664 187.751 45.3863 187.182 45.3416 186.543C45.2964 185.897 45.3919 185.313 45.6281 184.791C45.8722 184.269 46.2197 183.848 46.6705 183.527C47.1286 183.199 47.653 183.014 48.2436 182.972C48.7224 182.939 49.1515 182.997 49.5309 183.147C49.9177 183.288 50.2491 183.498 50.5251 183.775C50.8086 184.044 51.0312 184.361 51.1931 184.727C51.3625 185.084 51.4611 185.462 51.489 185.861C51.4951 185.949 51.4941 186.049 51.486 186.162C51.4852 186.266 51.4802 186.367 51.471 186.464L46.1799 186.834L46.1129 185.876L50.7576 185.551L50.261 186.019C50.3038 185.599 50.238 185.231 50.0635 184.914C49.8889 184.597 49.6474 184.354 49.3387 184.183C49.03 184.012 48.6881 183.94 48.313 183.966C47.938 183.992 47.6015 184.112 47.3037 184.325C47.0058 184.538 46.7817 184.831 46.6312 185.202C46.4882 185.565 46.4496 185.989 46.5156 186.473C46.5166 186.946 46.6174 187.356 46.8181 187.703C47.0262 188.042 47.3008 188.299 47.642 188.476C47.9906 188.644 48.3604 188.714 48.7514 188.687C49.1824 188.657 49.5385 188.532 49.8198 188.311C50.1012 188.091 50.3227 187.819 50.4845 187.495L51.4517 187.909C51.3447 188.213 51.1641 188.498 50.9101 188.764C50.6635 189.022 50.3617 189.236 50.0046 189.405C49.6555 189.574 49.2575 189.674 48.8106 189.705ZM53.5341 189.23L53.0829 182.778L54.1723 182.702L54.2602 183.959L54.0731 183.864C54.2042 183.446 54.4375 183.113 54.7731 182.865C55.116 182.608 55.5269 182.463 56.0057 182.43C56.4686 182.397 56.8868 182.472 57.2605 182.655C57.6421 182.836 57.9495 183.104 58.1826 183.456C58.4238 183.808 58.5605 184.216 58.5929 184.679L58.885 188.856L57.7598 188.935L57.4928 185.116C57.4676 184.757 57.3826 184.458 57.2376 184.22C57.0926 183.981 56.8957 183.803 56.6468 183.684C56.4053 183.556 56.1329 183.503 55.8297 183.524C55.5264 183.546 55.2601 183.636 55.0307 183.797C54.8088 183.949 54.6389 184.157 54.5211 184.422C54.4027 184.679 54.3558 184.983 54.3804 185.334L54.6474 189.153L53.5341 189.23ZM63.83 188.655C63.1995 188.699 62.6266 188.591 62.1111 188.33C61.6037 188.069 61.1924 187.693 60.8774 187.201C60.5623 186.71 60.3825 186.145 60.3379 185.507C60.2927 184.86 60.3921 184.276 60.6363 183.754C60.8805 183.231 61.2356 182.806 61.7018 182.476C62.1759 182.146 62.7282 181.959 63.3587 181.915C63.7817 181.886 64.182 181.934 64.5597 182.06C64.9374 182.186 65.2748 182.367 65.572 182.603C65.8692 182.838 66.0936 183.124 66.2453 183.458L65.2852 184.006C65.1102 183.681 64.8597 183.426 64.534 183.241C64.2077 183.047 63.841 182.964 63.434 182.993C63.043 183.02 62.6948 183.145 62.3896 183.366C62.0923 183.588 61.8638 183.876 61.7043 184.232C61.5447 184.588 61.4806 184.99 61.5118 185.437C61.542 185.868 61.6611 186.252 61.8692 186.591C62.0767 186.921 62.3431 187.175 62.6683 187.353C63.0015 187.53 63.3636 187.605 63.7546 187.578C64.1616 187.549 64.5135 187.42 64.8102 187.191C65.1064 186.954 65.318 186.654 65.4451 186.292L66.4738 186.726C66.3696 187.07 66.187 187.383 65.9261 187.666C65.6646 187.941 65.3557 188.167 64.9992 188.345C64.6427 188.522 64.2529 188.625 63.83 188.655ZM71.368 188.128C70.7456 188.171 70.1806 188.062 69.6731 187.801C69.1657 187.54 68.7544 187.164 68.4394 186.673C68.1238 186.173 67.9437 185.604 67.899 184.966C67.8538 184.32 67.9493 183.736 68.1855 183.214C68.4297 182.692 68.7771 182.27 69.2279 181.95C69.6861 181.621 70.2104 181.436 70.801 181.395C71.2798 181.361 71.7089 181.42 72.0883 181.57C72.4751 181.711 72.8065 181.92 73.0825 182.198C73.366 182.467 73.5887 182.784 73.7506 183.149C73.9199 183.507 74.0185 183.885 74.0464 184.284C74.0525 184.371 74.0515 184.472 74.0434 184.585C74.0427 184.689 74.0377 184.789 74.0284 184.886L68.7373 185.256L68.6704 184.299L73.315 183.974L72.8184 184.442C72.8612 184.022 72.7954 183.653 72.6209 183.337C72.4464 183.02 72.2048 182.776 71.8961 182.605C71.5874 182.435 71.2456 182.362 70.8705 182.389C70.4954 182.415 70.1589 182.534 69.8611 182.748C69.5632 182.961 69.3391 183.253 69.1886 183.625C69.0456 183.988 69.007 184.411 69.073 184.896C69.074 185.369 69.1748 185.779 69.3755 186.126C69.5836 186.464 69.8583 186.722 70.1994 186.898C70.548 187.066 70.9178 187.137 71.3088 187.109C71.7398 187.079 72.0959 186.954 72.3773 186.734C72.6586 186.514 72.8801 186.242 73.0419 185.918L74.0091 186.331C73.9021 186.635 73.7216 186.921 73.4675 187.187C73.2209 187.445 72.9191 187.658 72.562 187.828C72.2129 187.997 71.8149 188.097 71.368 188.128ZM76.0915 187.653L75.6403 181.201L76.7297 181.125L76.8218 182.441L76.6519 182.249C76.7831 181.831 77.0167 181.502 77.3527 181.262C77.6888 181.022 78.0763 180.886 78.5152 180.855C79.018 180.82 79.4787 180.928 79.8972 181.18C80.3238 181.431 80.6288 181.778 80.8122 182.223L80.5018 182.256C80.6342 181.742 80.891 181.343 81.2722 181.06C81.6528 180.768 82.0865 180.606 82.5733 180.572C83.0202 180.54 83.4305 180.616 83.8041 180.798C84.1858 180.98 84.4971 181.247 84.7383 181.599C84.9794 181.951 85.1162 182.359 85.1485 182.822L85.4407 186.999L84.3154 187.078L84.0484 183.259C84.0233 182.9 83.9382 182.601 83.7933 182.363C83.6483 182.125 83.4593 181.945 83.2264 181.825C83.0008 181.697 82.7404 181.643 82.4452 181.663C82.1579 181.683 81.9035 181.773 81.6821 181.933C81.4682 182.085 81.3023 182.293 81.1845 182.557C81.0741 182.814 81.0312 183.118 81.0557 183.469L81.3227 187.287L80.1975 187.366L79.9305 183.547C79.9054 183.188 79.8203 182.889 79.6753 182.651C79.5303 182.412 79.3414 182.233 79.1084 182.113C78.8829 181.985 78.6225 181.931 78.3272 181.951C78.0399 181.971 77.7856 182.061 77.5642 182.221C77.3502 182.372 77.1843 182.581 77.0665 182.845C76.9561 183.102 76.9132 183.405 76.9378 183.757L77.2048 187.575L76.0915 187.653ZM89.2724 186.876C88.8495 186.905 88.4691 186.856 88.1313 186.727C87.8009 186.59 87.5344 186.392 87.3319 186.133C87.1288 185.867 87.0147 185.554 86.9896 185.195C86.9656 184.852 87.016 184.539 87.1406 184.258C87.2727 183.968 87.4877 183.717 87.7856 183.503C88.0914 183.289 88.4809 183.126 88.9542 183.013L91.3207 182.45L91.386 183.384L89.2683 183.893C88.8584 183.994 88.5643 184.147 88.3862 184.351C88.216 184.556 88.1407 184.798 88.1602 185.077C88.1787 185.34 88.2978 185.553 88.5175 185.714C88.7453 185.874 89.0188 185.943 89.338 185.921C89.745 185.892 90.0903 185.784 90.3738 185.596C90.6648 185.399 90.8838 185.147 91.0307 184.84C91.1856 184.533 91.2505 184.199 91.2254 183.84L91.1108 182.2C91.0862 181.849 90.9347 181.575 90.6563 181.378C90.3853 181.172 90.0383 181.084 89.6153 181.114C89.2482 181.139 88.9277 181.258 88.6538 181.47C88.3873 181.673 88.1971 181.935 88.0832 182.255L87.0784 181.821C87.1775 181.517 87.3506 181.24 87.5978 180.99C87.8444 180.732 88.1386 180.523 88.4802 180.363C88.8219 180.203 89.1842 180.109 89.5673 180.083C90.0621 180.048 90.5037 180.113 90.8922 180.279C91.2801 180.436 91.5895 180.675 91.8205 180.996C92.0588 181.308 92.1933 181.683 92.224 182.122L92.5304 186.504L91.4411 186.58L91.3557 185.359L91.5642 185.416C91.4464 185.681 91.2785 185.918 91.0604 186.125C90.8424 186.333 90.5817 186.504 90.2782 186.637C89.9748 186.771 89.6395 186.85 89.2724 186.876ZM94.6057 186.358L94.1545 179.906L95.2438 179.83L95.3267 181.015L95.1953 180.856C95.3212 180.478 95.5337 180.191 95.8327 179.993C96.1311 179.788 96.5037 179.67 96.9506 179.639L97.3457 179.611L97.4193 180.664L96.8567 180.704C96.4018 180.735 96.0448 180.905 95.7855 181.212C95.5257 181.51 95.414 181.919 95.4503 182.438L95.719 186.281L94.6057 186.358ZM99.1399 186.041L98.6887 179.589L99.802 179.511L100.253 185.964L99.1399 186.041ZM98.6168 178.56L98.5163 177.123L99.6296 177.045L99.73 178.482L98.6168 178.56ZM103.464 183.117L103.453 182.961C103.428 182.602 103.466 182.283 103.567 182.003C103.675 181.715 103.813 181.456 103.982 181.228C104.158 180.991 104.343 180.77 104.537 180.564C104.796 180.265 105.029 179.976 105.234 179.697C105.447 179.417 105.541 179.098 105.516 178.739C105.501 178.531 105.436 178.339 105.319 178.163C105.202 177.987 105.037 177.85 104.821 177.753C104.614 177.655 104.363 177.617 104.067 177.637C103.66 177.666 103.318 177.818 103.041 178.094C102.763 178.37 102.603 178.722 102.561 179.15L101.491 178.984C101.532 178.54 101.661 178.146 101.878 177.802C102.101 177.45 102.395 177.169 102.757 176.959C103.127 176.749 103.544 176.627 104.006 176.595C104.525 176.559 104.98 176.635 105.37 176.824C105.767 177.005 106.082 177.256 106.313 177.576C106.544 177.897 106.673 178.253 106.7 178.644C106.725 178.995 106.674 179.311 106.55 179.593C106.425 179.866 106.258 180.122 106.05 180.362C105.85 180.6 105.651 180.839 105.451 181.077C105.205 181.351 104.992 181.634 104.812 181.928C104.64 182.212 104.566 182.538 104.592 182.905L104.601 183.037L103.464 183.117ZM103.659 185.725L103.558 184.289L104.719 184.208L104.82 185.644L103.659 185.725ZM111.542 185.174L110.918 176.256L112.091 176.174L112.639 184.015L116.554 183.741L116.629 184.818L111.542 185.174ZM120.067 184.722C119.644 184.752 119.263 184.702 118.926 184.574C118.595 184.436 118.329 184.238 118.126 183.98C117.923 183.714 117.809 183.401 117.784 183.042C117.76 182.698 117.81 182.386 117.935 182.105C118.067 181.815 118.282 181.563 118.58 181.35C118.886 181.136 119.275 180.973 119.749 180.859L122.115 180.297L122.18 181.23L120.063 181.739C119.653 181.84 119.359 181.993 119.181 182.198C119.01 182.402 118.935 182.644 118.955 182.924C118.973 183.187 119.092 183.399 119.312 183.56C119.54 183.721 119.813 183.79 120.132 183.768C120.539 183.739 120.885 183.631 121.168 183.442C121.459 183.246 121.678 182.994 121.825 182.687C121.98 182.379 122.045 182.046 122.02 181.687L121.905 180.047C121.881 179.696 121.729 179.422 121.451 179.225C121.18 179.019 120.833 178.931 120.41 178.96C120.043 178.986 119.722 179.105 119.448 179.316C119.182 179.519 118.991 179.781 118.878 180.102L117.873 179.667C117.972 179.364 118.145 179.087 118.392 178.837C118.639 178.579 118.933 178.37 119.275 178.21C119.616 178.05 119.979 177.956 120.362 177.929C120.856 177.895 121.298 177.96 121.687 178.125C122.074 178.283 122.384 178.522 122.615 178.842C122.853 179.154 122.988 179.53 123.018 179.969L123.325 184.35L122.235 184.426L122.15 183.205L122.359 183.263C122.241 183.528 122.073 183.764 121.855 183.972C121.637 184.18 121.376 184.35 121.073 184.484C120.769 184.617 120.434 184.697 120.067 184.722ZM125.567 186.599L124.949 177.753L126.038 177.677L126.135 179.065L125.972 178.8C126.185 178.4 126.491 178.074 126.89 177.822C127.289 177.561 127.756 177.412 128.291 177.375C128.897 177.332 129.45 177.442 129.95 177.704C130.457 177.965 130.868 178.341 131.183 178.833C131.498 179.316 131.678 179.881 131.723 180.527C131.767 181.158 131.667 181.738 131.424 182.268C131.18 182.799 130.825 183.228 130.359 183.558C129.901 183.886 129.364 184.072 128.75 184.115C128.231 184.152 127.748 184.069 127.301 183.868C126.862 183.666 126.512 183.362 126.251 182.955L126.417 182.751L126.681 186.521L125.567 186.599ZM128.591 183.044C128.998 183.015 129.354 182.89 129.659 182.668C129.964 182.446 130.193 182.158 130.344 181.802C130.503 181.438 130.568 181.041 130.538 180.61C130.507 180.163 130.387 179.778 130.18 179.456C129.981 179.125 129.714 178.871 129.381 178.694C129.048 178.509 128.677 178.43 128.27 178.459C127.863 178.487 127.503 178.613 127.19 178.835C126.885 179.057 126.648 179.35 126.481 179.715C126.322 180.071 126.257 180.468 126.288 180.907C126.318 181.338 126.437 181.723 126.645 182.061C126.861 182.391 127.135 182.644 127.469 182.821C127.81 182.998 128.184 183.072 128.591 183.044ZM136.832 183.55C136.209 183.594 135.636 183.489 135.114 183.237C134.59 182.977 134.163 182.602 133.832 182.112C133.501 181.622 133.313 181.053 133.268 180.407C133.222 179.761 133.326 179.176 133.578 178.653C133.838 178.13 134.209 177.703 134.691 177.372C135.173 177.042 135.73 176.855 136.36 176.811C136.983 176.767 137.556 176.875 138.079 177.135C138.602 177.388 139.025 177.755 139.347 178.238C139.678 178.72 139.866 179.288 139.911 179.942C139.957 180.597 139.846 181.19 139.579 181.722C139.311 182.246 138.935 182.673 138.453 183.004C137.979 183.326 137.438 183.508 136.832 183.55ZM136.756 182.473C137.155 182.445 137.507 182.32 137.813 182.098C138.126 181.876 138.362 181.583 138.521 181.219C138.688 180.854 138.756 180.456 138.726 180.025C138.696 179.586 138.573 179.206 138.358 178.884C138.15 178.554 137.876 178.3 137.535 178.124C137.201 177.939 136.835 177.86 136.436 177.888C136.029 177.916 135.669 178.046 135.356 178.276C135.051 178.498 134.814 178.787 134.647 179.144C134.479 179.492 134.41 179.886 134.441 180.325C134.471 180.756 134.594 181.14 134.81 181.478C135.026 181.816 135.301 182.073 135.634 182.25C135.975 182.427 136.349 182.501 136.756 182.473ZM141.939 183.049L141.487 176.596L142.577 176.52L142.66 177.705L142.528 177.546C142.654 177.168 142.867 176.881 143.166 176.684C143.464 176.478 143.837 176.36 144.283 176.329L144.679 176.301L144.752 177.355L144.19 177.394C143.735 177.426 143.378 177.595 143.118 177.902C142.859 178.201 142.747 178.609 142.783 179.128L143.052 182.971L141.939 183.049ZM146.473 182.732L145.839 173.67L146.952 173.592L147.387 179.805L146.924 179.729L150.104 175.994L151.528 175.894L149.232 178.665L152.147 182.335L150.83 182.427L148.168 179.101L148.859 179.016L147.117 181.111L147.419 180.272L147.586 182.654L146.473 182.732ZM155.398 182.252C154.975 182.281 154.595 182.232 154.257 182.103C153.927 181.966 153.66 181.768 153.458 181.509C153.255 181.243 153.141 180.93 153.116 180.571C153.092 180.228 153.142 179.916 153.267 179.634C153.399 179.344 153.614 179.093 153.912 178.879C154.217 178.665 154.607 178.502 155.08 178.389L157.447 177.826L157.512 178.76L155.394 179.269C154.984 179.37 154.69 179.523 154.512 179.727C154.342 179.932 154.267 180.174 154.286 180.453C154.305 180.716 154.424 180.929 154.644 181.09C154.871 181.25 155.145 181.319 155.464 181.297C155.871 181.268 156.216 181.16 156.5 180.972C156.791 180.775 157.01 180.523 157.157 180.216C157.312 179.909 157.377 179.575 157.351 179.216L157.237 177.576C157.212 177.225 157.061 176.951 156.782 176.754C156.511 176.548 156.164 176.46 155.741 176.49C155.374 176.516 155.054 176.634 154.78 176.846C154.513 177.049 154.323 177.311 154.209 177.631L153.204 177.197C153.304 176.893 153.477 176.616 153.724 176.366C153.97 176.108 154.265 175.899 154.606 175.739C154.948 175.579 155.31 175.485 155.693 175.459C156.188 175.424 156.63 175.489 157.018 175.655C157.406 175.812 157.716 176.051 157.946 176.372C158.185 176.684 158.319 177.059 158.35 177.498L158.656 181.88L157.567 181.956L157.482 180.735L157.69 180.792C157.572 181.057 157.405 181.294 157.186 181.501C156.968 181.709 156.708 181.88 156.404 182.013C156.101 182.147 155.766 182.226 155.398 182.252ZM160.732 181.735L160.281 175.282L161.37 175.206L161.458 176.463L161.271 176.368C161.402 175.95 161.635 175.617 161.971 175.369C162.314 175.112 162.724 174.967 163.203 174.934C163.666 174.901 164.084 174.976 164.458 175.159C164.84 175.34 165.147 175.608 165.38 175.96C165.621 176.312 165.758 176.72 165.791 177.183L166.083 181.36L164.957 181.439L164.69 177.62C164.665 177.261 164.58 176.962 164.435 176.724C164.29 176.485 164.093 176.307 163.844 176.188C163.603 176.06 163.331 176.007 163.027 176.028C162.724 176.05 162.458 176.14 162.228 176.301C162.006 176.453 161.837 176.661 161.719 176.926C161.6 177.183 161.553 177.487 161.578 177.838L161.845 181.657L160.732 181.735ZM172.345 181.067C171.922 181.096 171.541 181.047 171.203 180.918C170.873 180.781 170.607 180.583 170.404 180.324C170.201 180.058 170.087 179.745 170.062 179.386C170.038 179.043 170.088 178.731 170.213 178.449C170.345 178.159 170.56 177.908 170.858 177.694C171.164 177.48 171.553 177.317 172.026 177.204L174.393 176.641L174.458 177.575L172.34 178.084C171.931 178.185 171.636 178.338 171.458 178.542C171.288 178.747 171.213 178.989 171.232 179.268C171.251 179.531 171.37 179.744 171.59 179.905C171.817 180.065 172.091 180.134 172.41 180.112C172.817 180.083 173.162 179.975 173.446 179.787C173.737 179.59 173.956 179.338 174.103 179.031C174.258 178.724 174.323 178.39 174.298 178.031L174.183 176.391C174.158 176.04 174.007 175.766 173.728 175.569C173.457 175.363 173.11 175.275 172.687 175.305C172.32 175.331 172 175.449 171.726 175.661C171.459 175.864 171.269 176.126 171.155 176.447L170.151 176.012C170.25 175.708 170.423 175.431 170.67 175.181C170.917 174.923 171.211 174.714 171.552 174.554C171.894 174.394 172.256 174.3 172.639 174.274C173.134 174.239 173.576 174.304 173.964 174.47C174.352 174.627 174.662 174.866 174.893 175.187C175.131 175.499 175.265 175.874 175.296 176.313L175.603 180.695L174.513 180.771L174.428 179.55L174.636 179.607C174.519 179.872 174.351 180.109 174.133 180.316C173.915 180.524 173.654 180.695 173.35 180.828C173.047 180.962 172.712 181.041 172.345 181.067ZM180.938 182.968C180.484 183 180.056 182.958 179.655 182.841C179.261 182.724 178.916 182.548 178.619 182.312C178.33 182.084 178.103 181.807 177.936 181.482L178.943 180.93C179.076 181.226 179.306 181.466 179.631 181.652C179.966 181.845 180.372 181.925 180.851 181.891C181.218 181.866 181.544 181.771 181.83 181.606C182.123 181.45 182.348 181.225 182.504 180.934C182.661 180.65 182.726 180.313 182.698 179.922L182.597 178.473L182.816 178.675C182.623 179.129 182.323 179.487 181.916 179.748C181.517 180.008 181.067 180.156 180.564 180.191C179.957 180.234 179.405 180.132 178.907 179.886C178.408 179.632 178.005 179.272 177.7 178.804C177.394 178.328 177.22 177.791 177.178 177.192C177.136 176.586 177.233 176.03 177.471 175.524C177.708 175.018 178.052 174.609 178.504 174.297C178.962 173.976 179.495 173.794 180.102 173.752C180.604 173.717 181.067 173.801 181.491 174.004C181.921 174.198 182.274 174.486 182.549 174.868L182.403 175.179L182.302 173.742L183.392 173.666L183.824 179.843C183.863 180.402 183.766 180.91 183.533 181.367C183.3 181.824 182.957 182.193 182.504 182.474C182.059 182.761 181.537 182.926 180.938 182.968ZM180.584 179.107C180.967 179.08 181.304 178.961 181.594 178.748C181.892 178.535 182.121 178.262 182.282 177.93C182.443 177.59 182.509 177.22 182.481 176.821C182.454 176.43 182.337 176.078 182.131 175.763C181.924 175.449 181.659 175.207 181.334 175.037C181.018 174.867 180.668 174.795 180.285 174.822C179.894 174.849 179.545 174.97 179.239 175.184C178.934 175.397 178.7 175.674 178.54 176.014C178.386 176.346 178.324 176.711 178.352 177.11C178.379 177.509 178.493 177.866 178.691 178.181C178.897 178.487 179.162 178.726 179.487 178.895C179.819 179.065 180.185 179.135 180.584 179.107ZM187.819 179.985C187.396 180.014 187.016 179.965 186.678 179.836C186.348 179.699 186.081 179.501 185.879 179.242C185.676 178.976 185.562 178.663 185.536 178.304C185.512 177.961 185.563 177.648 185.687 177.367C185.82 177.077 186.035 176.826 186.332 176.612C186.638 176.398 187.028 176.235 187.501 176.121L189.868 175.559L189.933 176.493L187.815 177.002C187.405 177.103 187.111 177.255 186.933 177.46C186.763 177.665 186.688 177.907 186.707 178.186C186.726 178.449 186.845 178.661 187.064 178.823C187.292 178.983 187.566 179.052 187.885 179.03C188.292 179.001 188.637 178.893 188.921 178.705C189.212 178.508 189.431 178.256 189.578 177.949C189.733 177.642 189.797 177.308 189.772 176.949L189.658 175.309C189.633 174.958 189.482 174.684 189.203 174.487C188.932 174.281 188.585 174.193 188.162 174.223C187.795 174.248 187.475 174.367 187.201 174.579C186.934 174.782 186.744 175.044 186.63 175.364L185.625 174.929C185.724 174.626 185.897 174.349 186.145 174.099C186.391 173.841 186.685 173.632 187.027 173.472C187.369 173.312 187.731 173.218 188.114 173.192C188.609 173.157 189.051 173.222 189.439 173.388C189.827 173.545 190.136 173.784 190.367 174.105C190.606 174.417 190.74 174.792 190.771 175.231L191.077 179.613L189.988 179.689L189.903 178.468L190.111 178.525C189.993 178.79 189.825 179.026 189.607 179.234C189.389 179.442 189.129 179.612 188.825 179.746C188.522 179.879 188.186 179.959 187.819 179.985ZM193.153 179.467L192.701 173.015L193.791 172.939L193.874 174.124L193.742 173.965C193.868 173.587 194.081 173.3 194.38 173.102C194.678 172.897 195.051 172.779 195.498 172.747L195.893 172.72L195.966 173.773L195.404 173.813C194.949 173.844 194.592 174.014 194.332 174.321C194.073 174.619 193.961 175.028 193.997 175.547L194.266 179.39L193.153 179.467ZM38.9486 205.431C38.4298 205.468 37.9469 205.385 37.4998 205.184C37.0606 204.982 36.7105 204.678 36.4495 204.271L36.5918 204.068L36.688 205.445L35.5987 205.521L34.965 196.459L36.0783 196.382L36.3579 200.38L36.171 200.116C36.3837 199.716 36.6897 199.39 37.089 199.138C37.4878 198.877 37.9546 198.728 38.4893 198.691C39.0958 198.649 39.6488 198.758 40.1483 199.02C40.6557 199.281 41.067 199.658 41.382 200.149C41.6965 200.632 41.8763 201.197 41.9215 201.843C41.9656 202.474 41.8658 203.054 41.6222 203.584C41.3786 204.115 41.0238 204.544 40.5576 204.874C40.0994 205.203 39.5631 205.388 38.9486 205.431ZM38.7894 204.36C39.1964 204.331 39.5526 204.206 39.8578 203.984C40.1631 203.763 40.3915 203.474 40.5431 203.119C40.7021 202.755 40.7665 202.357 40.7364 201.926C40.7052 201.479 40.586 201.095 40.379 200.772C40.1795 200.441 39.9131 200.187 39.5799 200.01C39.2462 199.825 38.8758 199.747 38.4688 199.775C38.0618 199.804 37.7017 199.929 37.3884 200.151C37.0832 200.373 36.8471 200.666 36.6801 201.031C36.5205 201.387 36.4561 201.784 36.4868 202.223C36.5169 202.654 36.636 203.039 36.8441 203.377C37.0597 203.707 37.334 203.96 37.6672 204.138C38.0083 204.314 38.3824 204.388 38.7894 204.36ZM43.9556 204.937L43.5044 198.485L44.6177 198.407L45.0689 204.859L43.9556 204.937ZM43.4324 197.455L43.332 196.019L44.4453 195.941L44.5457 197.377L43.4324 197.455ZM49.4659 204.696C48.8195 204.741 48.2457 204.621 47.7445 204.335C47.2434 204.049 46.8741 203.642 46.6366 203.113L47.4923 202.621C47.7026 202.991 47.9752 203.276 48.3101 203.478C48.6449 203.679 49.0079 203.766 49.3989 203.738C49.7501 203.714 50.0355 203.61 50.2552 203.426C50.4749 203.242 50.5753 203.014 50.5563 202.743C50.5429 202.552 50.4765 202.404 50.3569 202.3C50.2448 202.188 50.1107 202.105 49.9546 202.051C49.7979 201.99 49.6547 201.948 49.5247 201.925L48.5359 201.718C47.9416 201.591 47.4979 201.381 47.2048 201.089C46.9196 200.796 46.7626 200.442 46.7335 200.027C46.7068 199.644 46.7794 199.306 46.9514 199.014C47.1308 198.712 47.3825 198.47 47.7065 198.287C48.0385 198.103 48.416 197.997 48.839 197.967C49.4056 197.928 49.9224 198.036 50.3894 198.292C50.8644 198.547 51.2158 198.928 51.4436 199.433L50.5631 199.916C50.396 199.591 50.1621 199.342 49.8614 199.171C49.5602 198.991 49.23 198.914 48.8709 198.939C48.5437 198.962 48.2902 199.064 48.1104 199.245C47.93 199.418 47.8484 199.628 47.8657 199.876C47.8786 200.059 47.9371 200.208 48.0412 200.321C48.1448 200.426 48.2666 200.505 48.4068 200.56C48.5464 200.606 48.6814 200.645 48.8119 200.676L49.887 200.913C50.4244 201.028 50.8478 201.235 51.1575 201.534C51.4751 201.833 51.6495 202.206 51.6807 202.652C51.7058 203.012 51.6287 203.342 51.4493 203.643C51.2698 203.944 51.0101 204.187 50.6702 204.371C50.3302 204.555 49.9288 204.664 49.4659 204.696ZM55.51 204.273C55.0871 204.303 54.7067 204.253 54.3689 204.125C54.0385 203.987 53.772 203.789 53.5695 203.531C53.3664 203.264 53.2523 202.952 53.2272 202.592C53.2032 202.249 53.2536 201.937 53.3782 201.656C53.5103 201.366 53.7253 201.114 54.0232 200.901C54.329 200.687 54.7185 200.523 55.1918 200.41L57.5583 199.848L57.6236 200.781L55.5059 201.29C55.096 201.391 54.8019 201.544 54.6238 201.749C54.4536 201.953 54.3783 202.195 54.3978 202.475C54.4163 202.738 54.5353 202.95 54.7551 203.111C54.9829 203.272 55.2564 203.341 55.5756 203.318C55.9826 203.29 56.3279 203.182 56.6114 202.993C56.9024 202.797 57.1214 202.545 57.2683 202.238C57.4232 201.93 57.4881 201.597 57.463 201.238L57.3484 199.598C57.3238 199.247 57.1723 198.972 56.8939 198.775C56.6229 198.57 56.2759 198.482 55.8529 198.511C55.4858 198.537 55.1653 198.656 54.8914 198.867C54.6249 199.07 54.4347 199.332 54.3208 199.653L53.316 199.218C53.4151 198.914 53.5882 198.638 53.8354 198.388C54.082 198.13 54.3761 197.921 54.7178 197.761C55.0595 197.6 55.4218 197.507 55.8049 197.48C56.2997 197.446 56.7413 197.511 57.1298 197.676C57.5177 197.834 57.8271 198.073 58.0581 198.393C58.2964 198.705 58.4309 199.081 58.4616 199.52L58.768 203.901L57.6787 203.977L57.5933 202.756L57.8018 202.814C57.684 203.079 57.5161 203.315 57.298 203.523C57.08 203.73 56.8193 203.901 56.5158 204.035C56.2124 204.168 55.8771 204.248 55.51 204.273ZM66.2045 203.525C65.598 203.568 65.041 203.458 64.5335 203.197C64.034 202.935 63.6268 202.559 63.3117 202.068C62.9967 201.576 62.8171 201.016 62.7731 200.385C62.7279 199.739 62.8273 199.154 63.0715 198.632C63.3151 198.102 63.666 197.672 64.1242 197.344C64.5903 197.014 65.1267 196.828 65.7332 196.786C66.2679 196.749 66.7508 196.831 67.182 197.033C67.6126 197.228 67.961 197.508 68.2272 197.875L68.0669 198.162L67.7873 194.164L68.9126 194.086L69.5462 203.147L68.4569 203.224L68.3606 201.847L68.5177 202.028C68.3238 202.467 68.0195 202.817 67.6047 203.079C67.1979 203.34 66.7312 203.489 66.2045 203.525ZM66.2249 202.441C66.6319 202.413 66.9881 202.288 67.2933 202.066C67.5986 201.844 67.831 201.555 67.9906 201.199C68.1575 200.835 68.226 200.437 68.1958 200.006C68.1651 199.567 68.042 199.183 67.8265 198.853C67.6184 198.515 67.3477 198.257 67.0146 198.08C66.6814 197.903 66.3113 197.828 65.9043 197.857C65.5053 197.885 65.1494 198.014 64.8367 198.244C64.5315 198.466 64.299 198.755 64.1395 199.111C63.9794 199.459 63.9149 199.856 63.9462 200.303C63.9763 200.734 64.0955 201.119 64.3036 201.457C64.5111 201.787 64.7815 202.041 65.1146 202.218C65.4478 202.396 65.8179 202.47 66.2249 202.441ZM71.6185 203.003L71.1673 196.55L72.2806 196.472L72.7318 202.925L71.6185 203.003ZM71.0954 195.521L70.9949 194.084L72.1082 194.006L72.2086 195.443L71.0954 195.521ZM77.435 202.668C76.8046 202.712 76.3052 202.567 75.9369 202.231C75.5766 201.896 75.3736 201.401 75.3278 200.746L75.0901 197.347L73.917 197.429L73.8425 196.363L74.0819 196.346C74.3692 196.326 74.5905 196.223 74.7458 196.035C74.9011 195.848 74.9687 195.611 74.9486 195.324L74.9118 194.797L76.0251 194.719L76.1289 196.203L77.5774 196.102L77.6519 197.167L76.2034 197.269L76.4386 200.633C76.4537 200.848 76.4987 201.033 76.5737 201.188C76.6567 201.343 76.7813 201.463 76.9477 201.547C77.1134 201.624 77.328 201.653 77.5913 201.635C77.6472 201.631 77.7147 201.622 77.794 201.608C77.8812 201.594 77.9605 201.581 78.0317 201.568L78.1004 202.549C77.9983 202.58 77.8837 202.605 77.7566 202.621C77.63 202.646 77.5228 202.662 77.435 202.668ZM81.7234 202.44C81.3004 202.47 80.92 202.42 80.5822 202.292C80.2518 202.154 79.9854 201.956 79.7828 201.698C79.5798 201.431 79.4657 201.119 79.4406 200.759C79.4166 200.416 79.4669 200.104 79.5916 199.823C79.7237 199.533 79.9386 199.281 80.2365 199.068C80.5423 198.854 80.9319 198.69 81.4051 198.577L83.7716 198.015L83.8369 198.948L81.7193 199.457C81.3093 199.558 81.0153 199.711 80.8371 199.916C80.667 200.12 80.5916 200.362 80.6112 200.641C80.6296 200.905 80.7487 201.117 80.9685 201.278C81.1962 201.439 81.4697 201.508 81.7889 201.485C82.1959 201.457 82.5412 201.349 82.8248 201.16C83.1157 200.964 83.3347 200.712 83.4816 200.405C83.6366 200.097 83.7015 199.764 83.6764 199.405L83.5617 197.765C83.5371 197.414 83.3856 197.139 83.1072 196.942C82.8362 196.737 82.4892 196.649 82.0663 196.678C81.6992 196.704 81.3787 196.823 81.1048 197.034C80.8383 197.237 80.6481 197.499 80.5342 197.82L79.5294 197.385C79.6284 197.081 79.8016 196.805 80.0487 196.555C80.2953 196.297 80.5895 196.088 80.9311 195.928C81.2728 195.767 81.6352 195.674 82.0182 195.647C82.513 195.613 82.9546 195.678 83.3431 195.843C83.731 196.001 84.0405 196.24 84.2714 196.56C84.5098 196.872 84.6443 197.248 84.675 197.687L84.9813 202.068L83.892 202.144L83.8066 200.923L84.0151 200.981C83.8973 201.246 83.7294 201.482 83.5114 201.69C83.2933 201.897 83.0326 202.068 82.7292 202.202C82.4257 202.335 82.0905 202.415 81.7234 202.44ZM87.0566 201.923L86.6054 195.471L87.6948 195.395L87.7827 196.652L87.5956 196.556C87.7267 196.138 87.9601 195.805 88.2956 195.557C88.6385 195.301 89.0494 195.156 89.5282 195.122C89.9911 195.09 90.4093 195.165 90.783 195.347C91.1646 195.529 91.472 195.796 91.7051 196.149C91.9463 196.501 92.083 196.908 92.1154 197.371L92.4076 201.549L91.2823 201.628L91.0153 197.809C90.9902 197.45 90.9051 197.151 90.7601 196.912C90.6151 196.674 90.4182 196.495 90.1693 196.376C89.9278 196.249 89.6554 196.196 89.3522 196.217C89.0489 196.238 88.7826 196.329 88.5532 196.489C88.3313 196.641 88.1614 196.85 88.0436 197.114C87.9252 197.371 87.8783 197.675 87.9029 198.026L88.1699 201.845L87.0566 201.923ZM97.6104 203.831C97.1555 203.863 96.7275 203.821 96.3264 203.705C95.9333 203.588 95.5882 203.411 95.291 203.176C95.0024 202.947 94.7745 202.67 94.6074 202.345L95.6154 201.794C95.7483 202.089 95.9777 202.33 96.3034 202.515C96.6377 202.709 97.0442 202.788 97.5231 202.755C97.8902 202.729 98.2164 202.634 98.5016 202.47C98.7954 202.313 99.0203 202.089 99.1763 201.797C99.3329 201.514 99.3975 201.176 99.3702 200.785L99.2689 199.337L99.4875 199.538C99.2947 199.993 98.9949 200.35 98.5882 200.611C98.1893 200.872 97.7386 201.02 97.2358 201.055C96.6293 201.097 96.0768 200.996 95.5785 200.75C95.0795 200.496 94.6774 200.135 94.372 199.667C94.0661 199.191 93.8922 198.654 93.8503 198.056C93.8079 197.449 93.9054 196.893 94.1427 196.387C94.38 195.881 94.7243 195.472 95.1756 195.16C95.6343 194.839 96.1669 194.658 96.7735 194.615C97.2762 194.58 97.7392 194.664 98.1624 194.867C98.593 195.062 98.946 195.35 99.2213 195.731L99.0746 196.042L98.9742 194.606L100.064 194.53L100.495 200.707C100.534 201.265 100.438 201.773 100.205 202.231C99.9724 202.688 99.6293 203.057 99.1757 203.337C98.7307 203.625 98.2089 203.79 97.6104 203.831ZM97.2562 199.971C97.6393 199.944 97.9757 199.824 98.2656 199.611C98.5635 199.398 98.793 199.125 98.9542 198.793C99.1149 198.453 99.1813 198.084 99.1534 197.685C99.126 197.294 99.0091 196.941 98.8027 196.627C98.5963 196.312 98.3308 196.07 98.0061 195.901C97.6895 195.73 97.3396 195.658 96.9565 195.685C96.5655 195.713 96.2171 195.833 95.9112 196.047C95.6054 196.261 95.3722 196.538 95.2115 196.878C95.0582 197.209 94.9956 197.575 95.0235 197.974C95.0514 198.373 95.1645 198.73 95.363 199.045C95.5689 199.351 95.8341 199.589 96.1588 199.759C96.4914 199.928 96.8572 199.999 97.2562 199.971ZM104.491 200.848C104.068 200.878 103.688 200.828 103.35 200.699C103.02 200.562 102.753 200.364 102.551 200.106C102.348 199.839 102.234 199.526 102.208 199.167C102.184 198.824 102.235 198.512 102.359 198.231C102.492 197.941 102.706 197.689 103.004 197.476C103.31 197.262 103.7 197.098 104.173 196.985L106.539 196.423L106.605 197.356L104.487 197.865C104.077 197.966 103.783 198.119 103.605 198.324C103.435 198.528 103.359 198.77 103.379 199.049C103.397 199.313 103.517 199.525 103.736 199.686C103.964 199.847 104.238 199.916 104.557 199.893C104.964 199.865 105.309 199.756 105.593 199.568C105.884 199.371 106.103 199.12 106.249 198.813C106.404 198.505 106.469 198.172 106.444 197.813L106.33 196.173C106.305 195.821 106.153 195.547 105.875 195.35C105.604 195.145 105.257 195.057 104.834 195.086C104.467 195.112 104.146 195.231 103.873 195.442C103.606 195.645 103.416 195.907 103.302 196.228L102.297 195.793C102.396 195.489 102.569 195.213 102.817 194.963C103.063 194.705 103.357 194.496 103.699 194.336C104.041 194.175 104.403 194.082 104.786 194.055C105.281 194.02 105.722 194.086 106.111 194.251C106.499 194.408 106.808 194.647 107.039 194.968C107.278 195.28 107.412 195.656 107.443 196.095L107.749 200.476L106.66 200.552L106.574 199.331L106.783 199.389C106.665 199.654 106.497 199.89 106.279 200.098C106.061 200.305 105.8 200.476 105.497 200.609C105.194 200.743 104.858 200.823 104.491 200.848ZM109.824 200.331L109.373 193.879L110.463 193.802L110.551 195.059L110.363 194.964C110.495 194.546 110.728 194.213 111.063 193.965C111.406 193.708 111.817 193.563 112.296 193.53C112.759 193.498 113.177 193.573 113.551 193.755C113.932 193.937 114.24 194.204 114.473 194.557C114.714 194.909 114.851 195.316 114.883 195.779L115.175 199.957L114.05 200.035L113.783 196.217C113.758 195.858 113.673 195.559 113.528 195.32C113.383 195.082 113.186 194.903 112.937 194.784C112.696 194.657 112.423 194.604 112.12 194.625C111.817 194.646 111.55 194.737 111.321 194.897C111.099 195.049 110.929 195.257 110.811 195.522C110.693 195.779 110.646 196.083 110.671 196.434L110.938 200.253L109.824 200.331ZM117.118 199.821L116.666 193.369L117.78 193.291L118.231 199.743L117.118 199.821ZM116.594 192.339L116.494 190.903L117.607 190.825L117.708 192.261L116.594 192.339ZM120.762 199.566L120.662 198.13L121.823 198.048L121.924 199.485L120.762 199.566Z" fill="#051B61"/>
<path d="M242.545 110.438C242.386 108.159 240.953 106.684 239.897 105.6C238.717 104.391 238.062 103.688 237.994 102.731C237.935 101.88 238.241 100.982 238.773 100.125C239.3 99.2748 239.986 98.5687 240.502 98.1464C241.049 97.6983 241.129 96.8917 240.681 96.3443C240.233 95.7972 239.427 95.7153 238.879 96.163C238.181 96.7351 237.294 97.649 236.596 98.7749C235.901 99.8951 235.328 101.333 235.438 102.91C235.584 104.987 237.081 106.382 238.063 107.389C239.167 108.521 239.904 109.382 239.99 110.617L240.007 111.075C240.023 113.323 238.99 114.986 238.555 116.338C238.339 117.012 238.71 117.734 239.384 117.95L239.51 117.984C240.145 118.119 240.792 117.753 240.995 117.122C241.227 116.399 242.67 113.749 242.561 110.731L242.545 110.438ZM280.018 88.557C277.31 84.2523 271.34 86.1143 267.879 89.4058L267.384 89.8957C265.027 92.3289 264.431 94.4626 264.436 95.2647C263.717 93.8638 261.805 90.9291 259.77 90.0639L259.573 89.9866C256.939 89.0475 250.21 89.1972 251.15 93.4645C251.902 96.8788 257.11 102.197 259.621 104.429C259.179 104.995 258.614 106.554 259.889 108.262C258.916 108.977 257.759 109.748 256.484 110.597C256.481 110.599 256.479 110.601 256.476 110.602L255.072 111.542C247.85 116.398 237.91 123.743 235.262 137.109L235.02 138.356C233.87 144.42 233.593 147.964 233.357 150.983L233.222 152.645C233.175 153.19 233.123 153.729 233.062 154.277L220.353 155.165C219.648 155.215 219.036 154.683 218.986 153.978L217.858 137.843L221.499 133.002C221.924 132.437 221.811 131.634 221.246 131.209C220.681 130.784 219.877 130.897 219.452 131.463L218.479 132.756L218.466 124.908C218.464 124.201 217.89 123.628 217.183 123.629C216.475 123.63 215.903 124.205 215.904 124.912L215.905 125.322L215.729 123.663C215.654 122.96 215.023 122.45 214.319 122.524C213.616 122.599 213.106 123.23 213.181 123.933L213.49 126.841C213.175 126.4 212.602 126.192 212.058 126.364C211.384 126.579 211.011 127.299 211.225 127.973L213.493 135.107C213.53 135.222 213.582 135.332 213.649 135.432L215.293 137.885L216.431 154.156C216.579 156.273 218.415 157.869 220.532 157.721L232.7 156.87C232.361 158.854 231.827 161.145 230.898 164.218L230.555 165.326C229.748 167.865 228.899 170.121 228.141 172.134C228.139 172.139 228.137 172.144 228.135 172.149L227.68 173.363C225.473 179.278 224.399 182.956 228.379 185.581C235.214 189.362 240.052 187.009 242.748 185.457L243.259 185.16L243.261 185.159C243.868 184.803 244.339 184.527 244.671 184.442C245.539 184.22 247.471 184.809 249.935 185.562C249.937 185.562 249.939 185.563 249.941 185.564C252.398 186.313 255.385 187.225 258.378 187.657C264.002 188.467 269.287 188.455 279.759 187.233L281.924 186.973C288.626 186.144 292.009 184.888 294.252 183.908L295.15 183.506L295.152 183.505C296.402 182.939 297.317 182.526 298.46 182.446L298.824 182.434C299.697 182.436 300.744 182.634 301.896 182.851C301.899 182.852 301.902 182.852 301.905 182.853C304.974 183.432 308.789 184.151 312.043 181.719L312.356 181.474C316.767 177.855 314.82 170.026 312.865 163.757L312.476 162.527C311.968 160.935 311.792 159.035 311.691 156.85L311.606 154.571C311.57 153.455 311.53 152.278 311.462 151.041L323.331 150.211C325.448 150.063 327.044 148.227 326.896 146.111L325.758 129.84L327.045 127.181C327.071 127.127 327.093 127.07 327.111 127.013L327.154 126.838L328.407 119.458C328.525 118.761 328.055 118.099 327.358 117.981C326.796 117.885 326.257 118.172 326.007 118.652L325.908 115.73C325.884 115.023 325.291 114.469 324.584 114.493C323.878 114.517 323.324 115.11 323.348 115.817L323.403 117.484L323.348 117.078C323.25 116.377 322.603 115.888 321.903 115.985C321.202 116.083 320.713 116.73 320.81 117.43L321.89 125.204L320.746 124.058C320.246 123.558 319.435 123.557 318.934 124.057C318.434 124.556 318.433 125.367 318.933 125.868L323.213 130.155L324.341 146.289C324.39 146.995 323.858 147.607 323.152 147.656L311.283 148.486C310.817 143.274 309.622 137.157 306.035 130.284L305.68 129.617C299.191 117.616 282.671 109.665 275.221 107.19C275.625 106.841 276.154 105.841 275.043 104.635C273.931 103.429 273.03 103.384 272.718 103.513C276.002 100.018 281.994 92.2484 280.114 88.7216L280.018 88.557ZM315.001 84.4171C314.52 83.9818 313.777 83.9737 313.284 84.4178C312.759 84.8916 312.718 85.7014 313.191 86.2265C313.668 86.7547 314.452 87.733 315.197 88.8929C315.949 90.0647 316.609 91.341 316.909 92.4775C317.027 92.9266 316.966 93.4737 316.661 94.1914C316.352 94.9164 315.851 95.6883 315.253 96.5375C314.684 97.3437 313.999 98.258 313.478 99.1178C312.963 99.9688 312.471 100.978 312.427 102.039C312.384 103.107 312.77 104.061 313.235 104.859C313.697 105.651 314.311 106.412 314.846 107.078C315.41 107.779 315.895 108.386 316.242 108.982C316.586 109.572 316.72 110.028 316.704 110.408C316.617 112.54 315.991 114.394 315.725 114.983C315.434 115.628 315.721 116.388 316.365 116.679C317.01 116.97 317.769 116.683 318.06 116.039C318.443 115.19 319.161 113.013 319.263 110.511C319.307 109.443 318.921 108.49 318.455 107.692C317.994 106.9 317.379 106.14 316.844 105.474C316.28 104.772 315.796 104.164 315.449 103.568C315.105 102.978 314.971 102.524 314.987 102.144C315.003 101.757 315.204 101.212 315.669 100.445C316.128 99.6863 316.71 98.9162 317.346 98.0132C317.952 97.1535 318.594 96.1905 319.018 95.1945C319.445 94.1909 319.704 93.0291 319.386 91.8236C318.987 90.3128 318.167 88.7764 317.352 87.5087C316.531 86.2291 315.661 85.1399 315.094 84.5105L315.001 84.4171ZM231.452 101.809C230.691 104 229.398 105.584 228.817 106.381C228.22 107.199 227.935 107.641 227.773 107.999C227.745 108.059 227.722 108.114 227.705 108.164C227.916 108.289 228.193 108.44 228.572 108.626C229.228 108.949 230.715 109.616 231.905 110.42C232.97 111.139 234.293 112.274 235.159 114.01C235.212 113.881 235.26 113.761 235.304 113.655C235.479 113.232 235.613 112.905 235.728 112.57C235.919 112.013 236.013 111.548 236.006 111.078C235.964 111.02 235.899 110.937 235.801 110.824C235.651 110.651 235.46 110.449 235.199 110.181C234.502 109.467 231.715 107.004 231.448 103.189L231.426 102.685C231.421 102.387 231.432 102.095 231.452 101.809ZM305.574 93.6715C305.497 92.5739 305.182 91.7451 304.699 91.0494C304.257 90.4142 303.674 89.907 303.261 89.5151C302.817 89.0939 302.417 88.68 302.063 88.0952C301.71 87.5115 301.371 86.7022 301.141 85.4852C300.453 81.8475 302.704 79.3128 303.868 78.5348C304.457 78.1419 304.615 77.346 304.222 76.7578C303.829 76.1699 303.034 76.0115 302.446 76.4043C300.747 77.5391 297.682 80.9832 298.624 85.9618C298.903 87.4373 299.339 88.5412 299.871 89.4203C300.402 90.298 300.996 90.8986 301.498 91.3741C302.03 91.8788 302.344 92.1519 302.594 92.5113C302.802 92.8103 302.973 93.1916 303.019 93.8502L303.025 94.0651C303.014 95.1288 302.352 96.0313 301.201 97.3977C300.083 98.7254 298.537 100.462 298.221 102.923C297.883 105.56 299.388 107.282 300.476 108.715C301.599 110.194 302.643 111.721 302.688 114.351C302.7 115.014 303.214 115.55 303.861 115.604L303.991 115.609C304.654 115.597 305.191 115.084 305.245 114.437L305.25 114.307C305.19 110.845 303.736 108.774 302.517 107.167C301.262 105.514 300.581 104.659 300.762 103.248C300.965 101.661 301.945 100.492 303.161 99.0482C304.233 97.7755 305.647 96.131 305.584 93.8901L305.574 93.6715ZM228.031 97.971C227.883 95.8628 226.684 94.1776 225.417 92.982C224.142 91.7799 222.668 90.9429 221.665 90.5258C221.012 90.2545 220.262 90.5644 219.99 91.2176C219.719 91.8706 220.028 92.6207 220.681 92.8922C221.441 93.2079 222.642 93.8861 223.658 94.8455C224.682 95.8115 225.391 96.9361 225.475 98.1497L225.484 98.431C225.477 99.8199 224.678 100.92 223.514 102.515C222.35 104.112 220.898 106.142 221.101 109.049L221.128 109.342C221.478 112.318 223.866 113.623 225.672 114.513C226.69 115.014 227.53 115.385 228.232 115.859C228.9 116.31 229.261 116.742 229.408 117.247C229.751 118.421 229.683 119.679 229.423 120.817C229.162 121.957 228.728 122.889 228.44 123.357C228.07 123.96 228.259 124.75 228.862 125.12C229.465 125.489 230.254 125.301 230.624 124.698C231.057 123.992 231.598 122.8 231.921 121.389C232.244 119.974 232.369 118.249 231.868 116.53C231.488 115.226 230.593 114.361 229.666 113.735C228.773 113.132 227.677 112.645 226.805 112.215C225.007 111.33 223.913 110.576 223.69 109.161L223.657 108.87C223.525 106.985 224.406 105.641 225.585 104.025C226.653 102.56 228.119 100.716 228.043 98.2149L228.031 97.971ZM232.041 98.0949C232.052 98.4439 232.041 98.7845 232.017 99.1166C232.347 98.1711 232.776 97.3446 233.196 96.6661C234.162 95.11 235.361 93.8747 236.346 93.0685C238.534 91.2776 241.724 91.5379 243.599 93.6048L243.777 93.8097C245.622 96.0647 245.294 99.3921 243.037 101.241C242.941 101.319 242.787 101.46 242.616 101.65C242.453 101.831 242.304 102.024 242.187 102.21C242.341 102.374 242.525 102.566 242.76 102.808C243.75 103.822 246.262 106.254 246.535 110.159L246.556 110.549C246.583 111.336 246.53 112.122 246.428 112.876C249.265 110.584 252.026 108.761 254.259 107.273C254.562 107.072 254.85 106.875 255.129 106.689C255.101 106.346 255.098 106.01 255.118 105.683C254.027 104.609 252.805 103.321 251.664 101.963C250.734 100.857 249.809 99.6471 249.045 98.4242C248.357 97.3225 247.667 96.0026 247.311 94.6052L247.243 94.3251C246.758 92.1239 247.24 89.9625 248.727 88.3114C250.029 86.8656 251.752 86.2032 253.09 85.8829C255.729 85.2513 258.861 85.4854 260.917 86.2187C262.008 86.6079 262.963 87.2429 263.766 87.9274C264.177 87.4515 264.629 86.9767 265.123 86.507C267.331 84.4077 270.414 82.6596 273.639 82.1769C277.037 81.6681 280.992 82.593 283.404 86.4269C284.795 88.6371 284.574 91.0906 284.141 92.8198C283.688 94.6277 282.814 96.429 281.883 98.0173C280.918 99.6642 279.766 101.288 278.632 102.738C279.004 103.282 279.292 103.872 279.475 104.494C283.3 106.015 288.181 108.367 292.983 111.472C294.956 112.747 296.955 114.176 298.883 115.755C298.764 115.33 298.697 114.883 298.689 114.421C298.676 113.662 298.528 113.16 298.345 112.756C298.135 112.296 297.83 111.844 297.29 111.134C296.446 110.022 293.671 106.958 294.254 102.414C294.744 98.5946 297.167 95.9785 298.142 94.8207C298.349 94.5746 298.516 94.3681 298.657 94.1904C298.144 93.6996 297.434 92.9817 296.754 91.9701L296.448 91.4902C295.638 90.1496 295.049 88.5845 294.693 86.7055C293.355 79.6263 297.7 74.7647 300.224 73.0785C302.574 71.5088 305.724 72.0735 307.391 74.313L307.548 74.5351L307.549 74.536C309.167 76.9596 308.516 80.2386 306.09 81.8596C306.109 81.8471 305.998 81.9248 305.826 82.115C305.664 82.2947 305.494 82.5266 305.352 82.7962C305.083 83.3076 304.919 83.9383 305.071 84.7415C305.225 85.5547 305.412 85.9031 305.486 86.0252C305.562 86.1513 305.657 86.2736 306.014 86.6128C306.256 86.8421 307.244 87.7034 307.983 88.7659L307.984 88.7668C308.898 90.0829 309.44 91.6112 309.564 93.3925L309.584 93.7827C309.692 97.7808 307.122 100.554 306.22 101.625C305.571 102.396 305.215 102.832 304.967 103.224C304.889 103.349 304.838 103.448 304.803 103.525C304.842 103.583 304.889 103.656 304.95 103.741C305.141 104.009 305.37 104.308 305.703 104.748C307.075 106.556 309.168 109.478 309.25 114.238L309.249 114.24C309.298 117.157 306.973 119.558 304.06 119.608C303.707 119.614 303.36 119.584 303.024 119.524C305.433 121.978 307.574 124.71 309.199 127.714C312.48 133.782 314.026 139.336 314.79 144.231L320.161 143.855L319.327 131.924L316.102 128.694L316.101 128.693C314.041 126.628 314.047 123.286 316.107 121.228L316.109 121.225C316.269 121.066 316.437 120.919 316.611 120.784C315.976 120.75 315.335 120.602 314.72 120.325L314.719 120.324C312.06 119.123 310.881 115.995 312.08 113.338L312.187 113.046C312.251 112.855 312.326 112.603 312.4 112.306C312.512 111.858 312.61 111.344 312.666 110.807C312.488 110.543 312.214 110.187 311.728 109.583C311.233 108.966 310.42 107.969 309.781 106.873C309.126 105.751 308.343 104.018 308.431 101.875C308.517 99.763 309.46 98.0312 310.057 97.0457C310.673 96.0279 311.519 94.893 311.983 94.2336C312.41 93.6277 312.674 93.2119 312.836 92.915C312.624 92.4066 312.289 91.7673 311.832 91.0548C311.206 90.0817 310.555 89.2753 310.222 88.905C308.269 86.7401 308.44 83.4029 310.604 81.4491L310.606 81.447C312.701 79.5572 315.902 79.6543 317.878 81.6335L318.065 81.8309C318.775 82.6186 319.777 83.881 320.719 85.3467C321.63 86.7653 322.701 88.7079 323.254 90.8023C323.884 93.1894 323.315 95.311 322.698 96.7599C322.095 98.1786 321.234 99.4408 320.616 100.317C320.021 101.161 319.637 101.677 319.321 102.155C319.482 102.367 319.69 102.629 319.963 102.969C320.454 103.581 321.271 104.58 321.911 105.677C322.565 106.799 323.347 108.53 323.26 110.672C323.64 110.57 324.038 110.509 324.449 110.495C327.047 110.408 329.272 112.214 329.792 114.674C331.644 115.748 332.73 117.891 332.351 120.127L331.098 127.508L331.097 127.509C331.016 127.983 330.869 128.462 330.646 128.923L329.823 130.624L330.887 145.833C331.188 150.153 327.93 153.899 323.61 154.201L315.615 154.761C315.721 157.928 315.831 159.88 316.287 161.31C317.301 164.487 318.59 168.662 318.936 172.618C319.273 176.473 318.813 181.35 314.893 184.566C309.932 188.636 304.046 187.327 301.164 186.783C299.65 186.497 299.049 186.414 298.739 186.436C298.429 186.458 298.161 186.534 296.8 187.15C294.283 188.289 290.565 189.935 282.415 190.943C270.346 192.436 264.324 192.554 257.808 191.615C254.461 191.133 251.182 190.125 248.768 189.388C247.493 188.999 246.53 188.707 245.781 188.529C245.683 188.506 245.596 188.489 245.519 188.473C245.448 188.514 245.371 188.56 245.284 188.61C243.991 189.369 241.535 190.838 238.256 191.393C234.856 191.968 230.863 191.526 226.443 189.081C226.352 189.031 226.264 188.977 226.177 188.92C224.648 187.912 223.386 186.623 222.59 184.959C221.799 183.303 221.625 181.599 221.739 180.014C221.949 177.121 223.229 173.829 224.392 170.74C225.262 168.428 226.206 165.92 227.07 163.061C227.265 162.415 227.44 161.808 227.599 161.236L220.811 161.711C216.491 162.013 212.743 158.756 212.44 154.436L211.377 139.225L210.326 137.658C210.041 137.232 209.828 136.779 209.682 136.32L207.414 129.185C206.727 127.024 207.504 124.749 209.188 123.428C209.362 120.92 211.311 118.822 213.896 118.547C215.327 118.395 216.685 118.83 217.73 119.656C220.299 119.92 222.323 122.025 222.459 124.63L222.466 124.901L222.469 127.342C222.8 127.477 223.122 127.647 223.429 127.854L223.651 128.012L223.652 128.014C225.979 129.766 226.449 133.075 224.696 135.406L221.952 139.055L222.786 150.986L229.382 150.524C229.638 147.252 229.962 143.277 231.339 136.331C232.502 130.463 234.917 125.641 237.864 121.652C237.195 121.393 236.606 121.01 236.115 120.537C236.046 121.161 235.943 121.746 235.821 122.28C235.401 124.115 234.694 125.713 234.033 126.79C232.507 129.276 229.255 130.054 226.771 128.53L226.77 128.529C224.284 127.003 223.506 123.75 225.031 121.265C225.032 121.264 225.038 121.254 225.05 121.234C225.062 121.211 225.078 121.18 225.098 121.14C225.138 121.06 225.186 120.955 225.238 120.829C225.342 120.573 225.447 120.261 225.524 119.925C225.609 119.552 225.641 119.23 225.64 118.96C225.293 118.769 224.816 118.549 223.905 118.101C222.184 117.253 217.792 115.118 217.16 109.848L217.111 109.328C216.796 104.829 219.137 101.73 220.283 100.158C220.602 99.7201 220.843 99.3879 221.047 99.0869C221.247 98.7906 221.363 98.5953 221.432 98.4588C221.442 98.4404 221.447 98.4228 221.454 98.4083C221.451 98.4017 221.448 98.3931 221.444 98.3856C221.366 98.249 221.206 98.0309 220.913 97.755C220.627 97.4846 220.287 97.2297 219.942 97.0124C219.768 96.9024 219.607 96.8119 219.471 96.7409L219.146 96.5854C216.451 95.4649 215.179 92.3733 216.296 89.6834L216.297 89.6824C217.381 87.0755 220.314 85.7931 222.946 86.7338L223.2 86.8316C224.585 87.4071 226.486 88.4919 228.162 90.0725L228.474 90.3757C230.047 91.9492 231.791 94.4048 232.021 97.692L232.041 98.0949Z" fill="white"/>
<path d="M280.018 88.557C277.31 84.2523 271.34 86.1143 267.879 89.4058L267.384 89.8957C265.027 92.3289 264.431 94.4626 264.436 95.2647C263.717 93.8638 261.805 90.9291 259.77 90.0639L259.573 89.9866C256.939 89.0475 250.21 89.1972 251.15 93.4645C251.902 96.8788 257.11 102.197 259.621 104.429C259.179 104.995 258.614 106.554 259.889 108.262C258.916 108.977 257.759 109.748 256.484 110.597L256.476 110.602L255.072 111.542C247.85 116.398 237.91 123.743 235.262 137.109L235.02 138.356C233.87 144.42 233.593 147.964 233.357 150.983L233.222 152.645C233.175 153.19 233.123 153.729 233.062 154.277L220.353 155.165C219.648 155.215 219.036 154.683 218.986 153.978L217.858 137.843L221.499 133.002C221.924 132.437 221.811 131.634 221.246 131.209C220.681 130.784 219.877 130.897 219.452 131.463L218.479 132.756L218.466 124.908C218.464 124.201 217.89 123.628 217.183 123.629C216.475 123.63 215.903 124.205 215.904 124.912L215.905 125.322L215.729 123.663C215.654 122.96 215.023 122.45 214.319 122.524C213.616 122.599 213.106 123.23 213.181 123.933L213.49 126.841C213.175 126.4 212.602 126.192 212.058 126.364C211.384 126.579 211.011 127.299 211.225 127.973L213.493 135.107C213.53 135.222 213.582 135.332 213.649 135.432L215.293 137.885L216.431 154.156C216.579 156.273 218.415 157.869 220.532 157.721L232.7 156.87C232.361 158.854 231.827 161.145 230.898 164.218L230.555 165.326C229.748 167.865 228.899 170.121 228.141 172.134L228.135 172.149L227.68 173.363C225.473 179.278 224.399 182.956 228.379 185.581C235.214 189.362 240.052 187.009 242.748 185.457L243.259 185.16L243.261 185.159C243.868 184.803 244.339 184.527 244.671 184.442C245.539 184.22 247.471 184.809 249.935 185.562L249.941 185.564C252.398 186.313 255.385 187.225 258.378 187.657C264.002 188.467 269.287 188.455 279.759 187.233L281.924 186.973C288.626 186.144 292.009 184.888 294.252 183.908L295.15 183.506L295.152 183.505C296.402 182.939 297.317 182.526 298.46 182.446L298.824 182.434C299.697 182.436 300.744 182.634 301.896 182.851L301.905 182.853C304.974 183.432 308.789 184.151 312.043 181.719L312.356 181.474C316.767 177.855 314.82 170.026 312.865 163.757L312.476 162.527C311.968 160.935 311.792 159.035 311.691 156.85L311.606 154.571C311.57 153.455 311.53 152.278 311.462 151.041L323.331 150.211C325.448 150.063 327.044 148.227 326.896 146.111L325.758 129.84L327.045 127.181C327.071 127.127 327.093 127.07 327.111 127.013L327.154 126.838L328.407 119.458C328.525 118.761 328.055 118.099 327.358 117.981C326.796 117.885 326.257 118.172 326.007 118.652L325.908 115.73C325.884 115.023 325.291 114.469 324.584 114.493C323.878 114.517 323.324 115.11 323.348 115.817L323.403 117.484L323.348 117.078C323.25 116.377 322.603 115.888 321.903 115.985C321.202 116.083 320.713 116.73 320.81 117.43L321.89 125.204L320.746 124.058C320.246 123.558 319.435 123.557 318.934 124.057C318.434 124.556 318.433 125.367 318.933 125.868L323.213 130.155L324.341 146.289C324.39 146.995 323.858 147.607 323.152 147.656L311.283 148.486C310.817 143.274 309.622 137.157 306.035 130.284L305.68 129.617C299.191 117.616 282.671 109.665 275.221 107.19C275.625 106.841 276.154 105.841 275.043 104.635C273.931 103.429 273.03 103.384 272.718 103.513C276.002 100.018 281.994 92.2484 280.114 88.7216L280.018 88.557Z" fill="white"/>
<path d="M233.52 155.247L220.423 156.162C219.012 156.261 217.787 155.197 217.689 153.786L216.527 137.174M216.527 137.174L220.456 131.951M216.527 137.174L217.18 133.873M216.527 137.174L214.694 134.438M217.18 133.873L217.166 124.629M217.18 133.873L215.547 133.987M215.547 133.987L214.436 123.517M215.547 133.987L214.694 134.438M214.694 134.438L212.427 127.304" stroke="#00664E" stroke-width="2.5618" stroke-linecap="round" stroke-linejoin="round"/>
<path d="M216.05 124.977C216.05 124.983 216.05 124.988 216.108 125.805C216.165 126.622 216.279 128.251 216.41 129.942" stroke="white" stroke-width="0.160112" stroke-linecap="round"/>
<path d="M217.048 130.035C217.046 130.035 217.045 130.035 216.654 130.083C216.264 130.131 215.484 130.227 214.98 130.321C214.476 130.416 214.272 130.506 213.992 130.649" stroke="white" stroke-width="0.160112" stroke-linecap="round"/>
<path d="M213.519 127.046C213.552 127.158 213.855 127.869 214.258 128.747C214.517 129.391 214.626 129.726 214.652 129.868C214.663 129.944 214.668 130.027 214.674 130.112" stroke="white" stroke-width="0.160112" stroke-linecap="round"/>
<path d="M218.287 132.534C218.229 132.538 218.004 132.596 217.802 132.721C217.654 132.813 217.5 133.009 217.285 133.33C217.159 133.539 216.999 133.844 216.899 134.05C216.799 134.256 216.764 134.354 216.733 134.46" stroke="white" stroke-width="0.160112" stroke-linecap="round"/>
<path d="M310.125 149.569L323.223 148.653C324.634 148.554 325.698 147.33 325.599 145.919L324.438 129.308M324.438 129.308L319.82 124.682M324.438 129.308L323.332 126.129M324.438 129.308L325.872 126.342M323.332 126.129L322.06 116.973M323.332 126.129L324.965 126.015M324.965 126.015L324.609 115.492M324.965 126.015L325.872 126.342M325.872 126.342L327.125 118.963" stroke="#00664E" stroke-width="2.5618" stroke-linecap="round" stroke-linejoin="round"/>
<path d="M303.138 77.1889C301.707 78.145 299.048 81.1343 299.863 85.443C300.882 90.8289 304.031 89.9667 304.277 93.4805C304.523 96.9944 299.992 98.7558 299.472 102.805C298.953 106.854 303.845 107.956 303.95 114.048M314.123 85.0879C315.167 86.2454 317.43 89.2224 318.128 91.87C319.002 95.1794 313.806 98.9134 313.687 101.811C313.569 104.708 318.083 107.281 317.964 110.179C317.87 112.497 317.197 114.513 316.873 115.231M239.671 96.8747C238.457 97.8691 236.527 100.112 236.697 102.54C236.909 105.575 241.003 106.733 241.248 110.247C241.445 113.058 240.108 115.356 239.756 116.45M221.154 91.4284C222.917 92.1612 226.501 94.4572 226.734 97.7794C227.024 101.932 222.025 103.887 222.36 108.678C222.695 113.47 229.563 112.99 230.618 116.608C231.463 119.502 230.233 122.573 229.513 123.747" stroke="#9EB4FA" stroke-width="2.5618" stroke-linecap="round"/>
<path d="M259.869 107.982C262.697 108.64 269.723 109.347 275.202 106.909C268.742 106.334 262.288 107.384 259.869 107.982Z" fill="#00664E"/>
<path d="M267.2 102.652C267.723 102.641 268.259 102.648 268.807 102.675C269.762 101.804 271.532 98.8125 271.366 93.5944C271.139 96.0097 268.603 100.482 267.2 102.652Z" fill="#00664E"/>
<path fill-rule="evenodd" clip-rule="evenodd" d="M305.661 129.336C299.172 117.335 282.651 109.384 275.202 106.909C275.606 106.56 276.135 105.56 275.024 104.354C273.912 103.147 273.01 103.104 272.698 103.232C276.034 99.682 282.165 91.7203 279.998 88.2766C277.29 83.9719 271.321 85.8338 267.859 89.1254C265.09 91.7587 264.411 94.1282 264.417 94.9838C263.674 93.5377 261.661 90.4576 259.554 89.7062C256.92 88.7669 250.189 88.9165 251.13 93.1844C251.882 96.5986 257.091 101.916 259.601 104.148C259.159 104.714 258.594 106.273 259.869 107.982C258.895 108.698 257.735 109.47 256.457 110.322C249.187 115.165 238.067 122.572 235.243 136.829C233.888 143.666 233.589 147.483 233.338 150.703C233.035 154.574 232.8 157.583 230.879 163.938C229.971 166.94 228.983 169.564 228.116 171.869C225.619 178.503 224.114 182.5 228.36 185.3C235.65 189.333 240.669 186.388 243.24 184.88C243.848 184.522 244.32 184.246 244.651 184.161C245.52 183.94 247.451 184.529 249.916 185.281C252.374 186.032 255.363 186.944 258.359 187.376C264.358 188.24 269.97 188.169 281.905 186.692C289.564 185.745 292.888 184.241 295.13 183.226C296.382 182.659 297.297 182.245 298.441 182.165C299.381 182.1 300.564 182.323 301.886 182.572C305.053 183.17 309.016 183.918 312.337 181.194C317.043 177.334 314.512 168.683 312.456 162.246C311.779 160.123 311.691 157.454 311.587 154.291C311.376 147.86 311.098 139.392 305.661 129.336ZM259.869 107.982C262.288 107.384 268.742 106.334 275.202 106.909C269.723 109.347 262.697 108.64 259.869 107.982ZM271.366 93.5944C271.139 96.0097 268.603 100.482 267.2 102.652C267.723 102.641 268.259 102.648 268.807 102.675C269.762 101.804 271.532 98.8125 271.366 93.5944ZM258.987 95.3635C261.153 98.8073 264.299 101.716 265.601 102.74C264.559 102.834 263.596 102.989 262.743 103.174C261.625 102.487 259.308 99.9635 258.987 95.3635Z" fill="#BDFF61"/>
<path d="M265.601 102.74C264.299 101.716 261.153 98.8073 258.987 95.3635C259.308 99.9635 261.625 102.487 262.743 103.174C263.596 102.989 264.559 102.834 265.601 102.74Z" fill="#00664E"/>
<path fill-rule="evenodd" clip-rule="evenodd" d="M278.379 137.481C274.058 137.631 272.26 140.13 271.082 143.413C270.787 144.234 270.773 145.186 271.422 145.56C272.458 146.158 273.583 145.912 274.947 145.614C275.403 145.514 275.885 145.409 276.4 145.327C276.103 144.477 276.1 143.518 276.461 142.613C277.252 140.634 279.487 139.667 281.453 140.452C283.419 141.238 284.371 143.479 283.58 145.459C283.404 145.899 283.157 146.289 282.857 146.621C283.114 146.726 283.369 146.832 283.622 146.938C284.019 147.103 284.411 147.265 284.795 147.419C287.321 148.428 289.669 146.551 288.665 143.066C287.66 139.581 282.701 137.331 278.379 137.481Z" fill="white"/>
<path d="M281.453 140.452C279.487 139.667 277.252 140.634 276.461 142.613C276.1 143.518 276.103 144.477 276.4 145.327C276.597 145.296 276.8 145.268 277.008 145.245C278.787 145.049 280.863 145.805 282.857 146.621C283.157 146.289 283.404 145.899 283.58 145.459C284.371 143.479 283.419 141.238 281.453 140.452Z" fill="#343434"/>
<path fill-rule="evenodd" clip-rule="evenodd" d="M258.168 138.895C262.468 138.442 264.596 140.667 266.22 143.754C266.626 144.525 266.773 145.466 266.182 145.927C265.239 146.663 264.092 146.576 262.698 146.471C262.234 146.436 261.742 146.399 261.221 146.389C261.396 145.506 261.266 144.556 260.782 143.711C259.723 141.861 257.375 141.214 255.538 142.265C253.7 143.317 253.069 145.669 254.128 147.519C254.364 147.931 254.663 148.283 255.006 148.57C254.767 148.709 254.528 148.85 254.292 148.989C253.922 149.208 253.557 149.424 253.198 149.629C250.837 150.98 248.251 149.448 248.76 145.857C249.27 142.267 253.868 139.348 258.168 138.895Z" fill="white"/>
<path d="M255.538 142.265C257.375 141.214 259.723 141.861 260.782 143.711C261.266 144.556 261.396 145.506 261.221 146.389C261.02 146.386 260.816 146.386 260.607 146.393C258.818 146.447 256.867 147.484 255.006 148.57C254.663 148.283 254.364 147.931 254.128 147.519C253.069 145.669 253.7 143.317 255.538 142.265Z" fill="#343434"/>
<path d="M273.66 134.179C274.544 133.047 277.66 130.785 283.053 130.794" stroke="#151C1D" stroke-width="1.2809" stroke-linecap="round"/>
<path d="M262.675 135.509C261.418 136.204 257.665 137.064 252.706 134.945" stroke="#151C1D" stroke-width="1.2809" stroke-linecap="round"/>
<path d="M265.581 158.661C266.478 156.191 269.585 151.191 274.833 150.952C281.392 150.654 284.42 154.936 285.49 156.467" stroke="#151C1D" stroke-width="1.2809" stroke-linecap="round"/>
<path d="M323.213 117.163C323.214 117.168 323.214 117.174 323.271 117.991C323.328 118.808 323.442 120.436 323.547 122.129" stroke="white" stroke-width="0.160112" stroke-linecap="round"/>
<path d="M322.929 122.31C322.93 122.31 322.932 122.31 323.325 122.303C323.719 122.296 324.504 122.282 325.016 122.306C325.528 122.329 325.743 122.39 326.041 122.493" stroke="white" stroke-width="0.160112" stroke-linecap="round"/>
<path d="M326.008 118.859C325.99 118.974 325.79 119.721 325.512 120.646C325.346 121.32 325.284 121.667 325.278 121.811C325.278 121.888 325.284 121.971 325.29 122.056" stroke="white" stroke-width="0.160112" stroke-linecap="round"/>
<path d="M322.049 124.957C322.107 124.953 322.338 124.979 322.555 125.075C322.715 125.145 322.895 125.318 323.153 125.606C323.307 125.795 323.507 126.075 323.635 126.265C323.763 126.455 323.811 126.547 323.856 126.648" stroke="white" stroke-width="0.160112" stroke-linecap="round"/>
<path opacity="0.3" d="M235.204 173.39C235.216 173.389 235.496 173.378 235.982 173.43C236.202 173.453 236.337 173.632 236.416 173.791C236.495 173.951 236.506 174.127 236.42 174.252C236.151 174.448 235.775 174.533 235.426 174.503C235.263 174.461 235.131 174.363 234.958 174.077" stroke="#00664E" stroke-width="1.92135" stroke-linecap="round"/>
<path opacity="0.3" d="M295.434 176.277C295.446 176.276 295.726 176.264 296.212 176.316C296.432 176.34 296.567 176.518 296.646 176.678C296.725 176.837 296.736 177.013 296.65 177.139C296.381 177.334 296.005 177.419 295.656 177.39C295.493 177.348 295.361 177.249 295.188 176.964" stroke="#00664E" stroke-width="1.92135" stroke-linecap="round"/>
<path opacity="0.3" d="M240.361 171.461C240.366 171.46 240.489 171.452 240.697 171.473C240.788 171.482 240.836 171.571 240.869 171.67C240.902 171.768 240.915 171.894 240.88 171.969C240.814 172.112 240.603 172.089 240.454 172.059C240.382 172.024 240.315 171.949 240.276 171.849C240.238 171.748 240.229 171.624 240.371 171.549" stroke="#00664E" stroke-width="1.92135" stroke-linecap="round"/>
<path d="M238.846 178.039C238.927 178.247 239.673 179.332 240.38 180.213C240.788 180.662 241.199 181.084 241.669 181.469C241.969 181.681 242.392 181.931 242.948 182.235" stroke="#00664E" stroke-width="0.640449" stroke-linecap="round"/>
<path d="M300.331 180.194C300.342 180.197 300.617 180.123 301.132 179.961C301.59 179.776 302.779 178.99 304.447 177.825C305.145 177.343 305.544 177.086 306.197 176.699" stroke="#00664E" stroke-width="0.640449" stroke-linecap="round"/>
<path opacity="0.8" d="M260.694 112.9C255.959 114.033 248.329 120.152 244.078 125.457" stroke="white" stroke-width="1.92135" stroke-linecap="round"/>
</svg>
