<svg width="347" height="210" viewBox="0 0 347 210" fill="none" xmlns="http://www.w3.org/2000/svg">
<rect width="347" height="210" rx="20" fill="#F4FFE5"/>
<path d="M30.48 45.24C29.4267 45.24 28.4467 45.0467 27.54 44.66C26.6467 44.2733 25.8667 43.74 25.2 43.06C24.5467 42.3667 24.0333 41.5533 23.66 40.62C23.2867 39.6867 23.1 38.66 23.1 37.54C23.1 36.4333 23.28 35.4133 23.64 34.48C24.0133 33.5333 24.5333 32.72 25.2 32.04C25.8667 31.3467 26.6467 30.8133 27.54 30.44C28.4333 30.0533 29.4133 29.86 30.48 29.86C31.5333 29.86 32.4733 30.04 33.3 30.4C34.14 30.76 34.8467 31.2333 35.42 31.82C35.9933 32.3933 36.4067 33.02 36.66 33.7L34.54 34.7C34.22 33.9 33.7067 33.2533 33 32.76C32.3067 32.2533 31.4667 32 30.48 32C29.4933 32 28.62 32.2333 27.86 32.7C27.1 33.1667 26.5067 33.8133 26.08 34.64C25.6667 35.4667 25.46 36.4333 25.46 37.54C25.46 38.6467 25.6667 39.62 26.08 40.46C26.5067 41.2867 27.1 41.9333 27.86 42.4C28.62 42.8533 29.4933 43.08 30.48 43.08C31.4667 43.08 32.3067 42.8333 33 42.34C33.7067 41.8467 34.22 41.2 34.54 40.4L36.66 41.4C36.4067 42.0667 35.9933 42.6933 35.42 43.28C34.8467 43.8667 34.14 44.34 33.3 44.7C32.4733 45.06 31.5333 45.24 30.48 45.24ZM42.2616 45.24C41.5282 45.24 40.8816 45.1133 40.3216 44.86C39.7749 44.5933 39.3482 44.2333 39.0416 43.78C38.7349 43.3133 38.5816 42.7667 38.5816 42.14C38.5816 41.5533 38.7082 41.0267 38.9616 40.56C39.2282 40.0933 39.6349 39.7 40.1816 39.38C40.7282 39.06 41.4149 38.8333 42.2416 38.7L46.0016 38.08V39.86L42.6816 40.44C42.0816 40.5467 41.6416 40.74 41.3616 41.02C41.0816 41.2867 40.9416 41.6333 40.9416 42.06C40.9416 42.4733 41.0949 42.8133 41.4016 43.08C41.7216 43.3333 42.1282 43.46 42.6216 43.46C43.2349 43.46 43.7682 43.3267 44.2216 43.06C44.6882 42.7933 45.0482 42.44 45.3016 42C45.5549 41.5467 45.6816 41.0467 45.6816 40.5V37.72C45.6816 37.1867 45.4816 36.7533 45.0816 36.42C44.6949 36.0733 44.1749 35.9 43.5216 35.9C42.9216 35.9 42.3949 36.06 41.9416 36.38C41.5016 36.6867 41.1749 37.0867 40.9616 37.58L39.0816 36.64C39.2816 36.1067 39.6082 35.64 40.0616 35.24C40.5149 34.8267 41.0416 34.5067 41.6416 34.28C42.2549 34.0533 42.9016 33.94 43.5816 33.94C44.4349 33.94 45.1882 34.1 45.8416 34.42C46.5082 34.74 47.0216 35.1867 47.3816 35.76C47.7549 36.32 47.9416 36.9733 47.9416 37.72V45H45.7816V43.04L46.2416 43.1C45.9882 43.54 45.6616 43.92 45.2616 44.24C44.8749 44.56 44.4282 44.8067 43.9216 44.98C43.4282 45.1533 42.8749 45.24 42.2616 45.24ZM50.9341 49V34.18H53.0941V36.42L52.8341 35.9C53.2341 35.2867 53.7674 34.8067 54.4341 34.46C55.1007 34.1133 55.8607 33.94 56.7141 33.94C57.7407 33.94 58.6607 34.1867 59.4741 34.68C60.3007 35.1733 60.9474 35.8467 61.4141 36.7C61.8941 37.5533 62.1341 38.5133 62.1341 39.58C62.1341 40.6467 61.8941 41.6067 61.4141 42.46C60.9474 43.3133 60.3074 43.9933 59.4941 44.5C58.6807 44.9933 57.7541 45.24 56.7141 45.24C55.8741 45.24 55.1074 45.0667 54.4141 44.72C53.7341 44.3733 53.2074 43.8733 52.8341 43.22L53.1941 42.8V49H50.9341ZM56.4941 43.14C57.1341 43.14 57.7007 42.9867 58.1941 42.68C58.6874 42.3733 59.0741 41.9533 59.3541 41.42C59.6474 40.8733 59.7941 40.26 59.7941 39.58C59.7941 38.9 59.6474 38.2933 59.3541 37.76C59.0741 37.2267 58.6874 36.8067 58.1941 36.5C57.7007 36.1933 57.1341 36.04 56.4941 36.04C55.8674 36.04 55.3007 36.1933 54.7941 36.5C54.3007 36.8067 53.9074 37.2267 53.6141 37.76C53.3341 38.2933 53.1941 38.9 53.1941 39.58C53.1941 40.26 53.3341 40.8733 53.6141 41.42C53.9074 41.9533 54.3007 42.3733 54.7941 42.68C55.3007 42.9867 55.8674 43.14 56.4941 43.14ZM69.1672 45.12C68.0339 45.12 67.1539 44.8 66.5272 44.16C65.9005 43.52 65.5872 42.62 65.5872 41.46V36.22H63.6872V34.18H63.9872C64.4939 34.18 64.8872 34.0333 65.1672 33.74C65.4472 33.4467 65.5872 33.0467 65.5872 32.54V31.7H67.8472V34.18H70.3072V36.22H67.8472V41.36C67.8472 41.7333 67.9072 42.0533 68.0272 42.32C68.1472 42.5733 68.3405 42.7733 68.6072 42.92C68.8739 43.0533 69.2205 43.12 69.6472 43.12C69.7539 43.12 69.8739 43.1133 70.0072 43.1C70.1405 43.0867 70.2672 43.0733 70.3872 43.06V45C70.2005 45.0267 69.9939 45.0533 69.7672 45.08C69.5405 45.1067 69.3405 45.12 69.1672 45.12ZM76.8027 45.24C75.9893 45.24 75.276 45.06 74.6627 44.7C74.0493 44.3267 73.5693 43.8133 73.2227 43.16C72.8893 42.4933 72.7227 41.7267 72.7227 40.86V34.18H74.9827V40.66C74.9827 41.1533 75.0827 41.5867 75.2827 41.96C75.4827 42.3333 75.7627 42.6267 76.1227 42.84C76.4827 43.04 76.896 43.14 77.3627 43.14C77.8427 43.14 78.2627 43.0333 78.6227 42.82C78.9827 42.6067 79.2627 42.3067 79.4627 41.92C79.676 41.5333 79.7827 41.08 79.7827 40.56V34.18H82.0227V45H79.8827V42.88L80.1227 43.16C79.8693 43.8267 79.4493 44.34 78.8627 44.7C78.276 45.06 77.5893 45.24 76.8027 45.24ZM85.0114 45V34.18H87.1714V36.36L86.9714 36.04C87.2114 35.3333 87.5981 34.8267 88.1314 34.52C88.6647 34.2 89.3047 34.04 90.0514 34.04H90.7114V36.1H89.7714C89.0247 36.1 88.4181 36.3333 87.9514 36.8C87.4981 37.2533 87.2714 37.9067 87.2714 38.76V45H85.0114ZM97.6875 45.24C96.6075 45.24 95.6475 44.9933 94.8075 44.5C93.9808 43.9933 93.3342 43.3133 92.8675 42.46C92.4008 41.5933 92.1675 40.6267 92.1675 39.56C92.1675 38.4667 92.4008 37.5 92.8675 36.66C93.3475 35.82 93.9875 35.16 94.7875 34.68C95.5875 34.1867 96.4942 33.94 97.5075 33.94C98.3208 33.94 99.0475 34.08 99.6875 34.36C100.327 34.64 100.867 35.0267 101.307 35.52C101.747 36 102.081 36.5533 102.307 37.18C102.547 37.8067 102.667 38.4733 102.667 39.18C102.667 39.3533 102.661 39.5333 102.647 39.72C102.634 39.9067 102.607 40.08 102.567 40.24H93.9475V38.44H101.287L100.207 39.26C100.341 38.6067 100.294 38.0267 100.067 37.52C99.8542 37 99.5208 36.5933 99.0675 36.3C98.6275 35.9933 98.1075 35.84 97.5075 35.84C96.9075 35.84 96.3742 35.9933 95.9075 36.3C95.4408 36.5933 95.0808 37.02 94.8275 37.58C94.5742 38.1267 94.4742 38.7933 94.5275 39.58C94.4608 40.3133 94.5608 40.9533 94.8275 41.5C95.1075 42.0467 95.4942 42.4733 95.9875 42.78C96.4942 43.0867 97.0675 43.24 97.7075 43.24C98.3608 43.24 98.9142 43.0933 99.3675 42.8C99.8342 42.5067 100.201 42.1267 100.467 41.66L102.307 42.56C102.094 43.0667 101.761 43.5267 101.307 43.94C100.867 44.34 100.334 44.66 99.7075 44.9C99.0942 45.1267 98.4208 45.24 97.6875 45.24ZM113.609 45.24C112.729 45.24 111.956 45.08 111.289 44.76C110.623 44.4267 110.096 43.9667 109.709 43.38C109.336 42.78 109.149 42.0867 109.149 41.3C109.149 40.6333 109.269 40.0533 109.509 39.56C109.749 39.0533 110.049 38.6267 110.409 38.28C110.769 37.92 111.129 37.62 111.489 37.38C111.849 37.14 112.149 36.9533 112.389 36.82L113.609 36.14C114.009 35.9133 114.389 35.6733 114.749 35.42C115.109 35.1667 115.403 34.88 115.629 34.56C115.856 34.24 115.969 33.88 115.969 33.48C115.969 33 115.809 32.6 115.489 32.28C115.169 31.9467 114.769 31.78 114.289 31.78C113.809 31.78 113.409 31.94 113.089 32.26C112.769 32.58 112.609 32.9933 112.609 33.5C112.609 33.8467 112.689 34.1867 112.849 34.52C113.023 34.8533 113.223 35.1667 113.449 35.46C113.689 35.74 113.923 36.0067 114.149 36.26L122.149 45H119.329L112.469 37.62C112.149 37.2733 111.829 36.9067 111.509 36.52C111.203 36.12 110.943 35.68 110.729 35.2C110.529 34.72 110.429 34.1867 110.429 33.6C110.429 32.84 110.603 32.18 110.949 31.62C111.309 31.06 111.776 30.6267 112.349 30.32C112.936 30.0133 113.576 29.86 114.269 29.86C114.976 29.86 115.616 30.02 116.189 30.34C116.763 30.6467 117.216 31.0733 117.549 31.62C117.896 32.1667 118.069 32.7867 118.069 33.48C118.069 34.2 117.903 34.82 117.569 35.34C117.236 35.86 116.829 36.3 116.349 36.66C115.883 37.02 115.443 37.3267 115.029 37.58L113.809 38.3C113.489 38.4867 113.149 38.72 112.789 39C112.443 39.2667 112.149 39.5867 111.909 39.96C111.669 40.32 111.549 40.7533 111.549 41.26C111.549 41.8867 111.743 42.3733 112.129 42.72C112.529 43.0667 113.049 43.24 113.689 43.24C114.103 43.24 114.469 43.1733 114.789 43.04C115.109 42.9067 115.389 42.7333 115.629 42.52C115.883 42.3067 116.103 42.0733 116.289 41.82C116.489 41.5533 116.669 41.3067 116.829 41.08L119.149 37.68H121.569L118.889 41.84C118.676 42.16 118.423 42.52 118.129 42.92C117.836 43.3067 117.483 43.68 117.069 44.04C116.656 44.3867 116.163 44.6733 115.589 44.9C115.029 45.1267 114.369 45.24 113.609 45.24ZM128.974 45V30.1H134.394C135.394 30.1 136.274 30.2867 137.034 30.66C137.794 31.02 138.387 31.5533 138.814 32.26C139.254 32.9533 139.474 33.7867 139.474 34.76C139.474 35.7867 139.214 36.6667 138.694 37.4C138.187 38.1333 137.5 38.6667 136.634 39L140.074 45H137.394L133.734 38.5L135.274 39.4H131.334V45H128.974ZM131.334 37.3H134.434C134.98 37.3 135.454 37.1933 135.854 36.98C136.254 36.7667 136.56 36.4733 136.774 36.1C137 35.7133 137.114 35.26 137.114 34.74C137.114 34.22 137 33.7733 136.774 33.4C136.56 33.0133 136.254 32.72 135.854 32.52C135.454 32.3067 134.98 32.2 134.434 32.2H131.334V37.3ZM146.664 45.24C145.584 45.24 144.624 44.9933 143.784 44.5C142.957 43.9933 142.311 43.3133 141.844 42.46C141.377 41.5933 141.144 40.6267 141.144 39.56C141.144 38.4667 141.377 37.5 141.844 36.66C142.324 35.82 142.964 35.16 143.764 34.68C144.564 34.1867 145.471 33.94 146.484 33.94C147.297 33.94 148.024 34.08 148.664 34.36C149.304 34.64 149.844 35.0267 150.284 35.52C150.724 36 151.057 36.5533 151.284 37.18C151.524 37.8067 151.644 38.4733 151.644 39.18C151.644 39.3533 151.637 39.5333 151.624 39.72C151.611 39.9067 151.584 40.08 151.544 40.24H142.924V38.44H150.264L149.184 39.26C149.317 38.6067 149.271 38.0267 149.044 37.52C148.831 37 148.497 36.5933 148.044 36.3C147.604 35.9933 147.084 35.84 146.484 35.84C145.884 35.84 145.351 35.9933 144.884 36.3C144.417 36.5933 144.057 37.02 143.804 37.58C143.551 38.1267 143.451 38.7933 143.504 39.58C143.437 40.3133 143.537 40.9533 143.804 41.5C144.084 42.0467 144.471 42.4733 144.964 42.78C145.471 43.0867 146.044 43.24 146.684 43.24C147.337 43.24 147.891 43.0933 148.344 42.8C148.811 42.5067 149.177 42.1267 149.444 41.66L151.284 42.56C151.071 43.0667 150.737 43.5267 150.284 43.94C149.844 44.34 149.311 44.66 148.684 44.9C148.071 45.1267 147.397 45.24 146.664 45.24ZM154.2 49V34.18H156.36V36.42L156.1 35.9C156.5 35.2867 157.033 34.8067 157.7 34.46C158.366 34.1133 159.126 33.94 159.98 33.94C161.006 33.94 161.926 34.1867 162.74 34.68C163.566 35.1733 164.213 35.8467 164.68 36.7C165.16 37.5533 165.4 38.5133 165.4 39.58C165.4 40.6467 165.16 41.6067 164.68 42.46C164.213 43.3133 163.573 43.9933 162.76 44.5C161.946 44.9933 161.02 45.24 159.98 45.24C159.14 45.24 158.373 45.0667 157.68 44.72C157 44.3733 156.473 43.8733 156.1 43.22L156.46 42.8V49H154.2ZM159.76 43.14C160.4 43.14 160.966 42.9867 161.46 42.68C161.953 42.3733 162.34 41.9533 162.62 41.42C162.913 40.8733 163.06 40.26 163.06 39.58C163.06 38.9 162.913 38.2933 162.62 37.76C162.34 37.2267 161.953 36.8067 161.46 36.5C160.966 36.1933 160.4 36.04 159.76 36.04C159.133 36.04 158.566 36.1933 158.06 36.5C157.566 36.8067 157.173 37.2267 156.88 37.76C156.6 38.2933 156.46 38.9 156.46 39.58C156.46 40.26 156.6 40.8733 156.88 41.42C157.173 41.9533 157.566 42.3733 158.06 42.68C158.566 42.9867 159.133 43.14 159.76 43.14ZM173.168 45.24C172.128 45.24 171.175 44.9933 170.308 44.5C169.455 44.0067 168.775 43.3333 168.268 42.48C167.761 41.6267 167.508 40.66 167.508 39.58C167.508 38.4867 167.761 37.52 168.268 36.68C168.775 35.8267 169.455 35.16 170.308 34.68C171.161 34.1867 172.115 33.94 173.168 33.94C174.235 33.94 175.188 34.1867 176.028 34.68C176.881 35.16 177.555 35.8267 178.048 36.68C178.555 37.52 178.808 38.4867 178.808 39.58C178.808 40.6733 178.555 41.6467 178.048 42.5C177.541 43.3533 176.861 44.0267 176.008 44.52C175.155 45 174.208 45.24 173.168 45.24ZM173.168 43.14C173.808 43.14 174.375 42.9867 174.868 42.68C175.361 42.3733 175.748 41.9533 176.028 41.42C176.321 40.8733 176.468 40.26 176.468 39.58C176.468 38.9 176.321 38.2933 176.028 37.76C175.748 37.2267 175.361 36.8067 174.868 36.5C174.375 36.1933 173.808 36.04 173.168 36.04C172.541 36.04 171.975 36.1933 171.468 36.5C170.975 36.8067 170.581 37.2267 170.288 37.76C170.008 38.2933 169.868 38.9 169.868 39.58C169.868 40.26 170.008 40.8733 170.288 41.42C170.581 41.9533 170.975 42.3733 171.468 42.68C171.975 42.9867 172.541 43.14 173.168 43.14ZM181.365 45V34.18H183.525V36.36L183.325 36.04C183.565 35.3333 183.951 34.8267 184.485 34.52C185.018 34.2 185.658 34.04 186.405 34.04H187.065V36.1H186.125C185.378 36.1 184.771 36.3333 184.305 36.8C183.851 37.2533 183.625 37.9067 183.625 38.76V45H181.365ZM193.836 45.12C192.703 45.12 191.823 44.8 191.196 44.16C190.569 43.52 190.256 42.62 190.256 41.46V36.22H188.356V34.18H188.656C189.163 34.18 189.556 34.0333 189.836 33.74C190.116 33.4467 190.256 33.0467 190.256 32.54V31.7H192.516V34.18H194.976V36.22H192.516V41.36C192.516 41.7333 192.576 42.0533 192.696 42.32C192.816 42.5733 193.009 42.7733 193.276 42.92C193.543 43.0533 193.889 43.12 194.316 43.12C194.423 43.12 194.543 43.1133 194.676 43.1C194.809 43.0867 194.936 43.0733 195.056 43.06V45C194.869 45.0267 194.663 45.0533 194.436 45.08C194.209 45.1067 194.009 45.12 193.836 45.12Z" fill="#003327"/>
<path d="M22.132 153L25.336 144.06H26.728L29.932 153H28.672L27.94 150.9H24.124L23.392 153H22.132ZM24.496 149.82H27.568L25.864 144.912H26.2L24.496 149.82ZM31.2765 153V146.532H32.3685V147.852L32.2125 147.648C32.3725 147.24 32.6285 146.928 32.9805 146.712C33.3325 146.496 33.7285 146.388 34.1685 146.388C34.6725 146.388 35.1245 146.528 35.5245 146.808C35.9325 147.088 36.2125 147.456 36.3645 147.912L36.0525 147.924C36.2205 147.42 36.5045 147.04 36.9045 146.784C37.3045 146.52 37.7485 146.388 38.2365 146.388C38.6845 146.388 39.0885 146.492 39.4485 146.7C39.8165 146.908 40.1085 147.196 40.3245 147.564C40.5405 147.932 40.6485 148.348 40.6485 148.812V153H39.5205V149.172C39.5205 148.812 39.4565 148.508 39.3285 148.26C39.2005 148.012 39.0245 147.82 38.8005 147.684C38.5845 147.54 38.3285 147.468 38.0325 147.468C37.7445 147.468 37.4845 147.54 37.2525 147.684C37.0285 147.82 36.8485 148.016 36.7125 148.272C36.5845 148.52 36.5205 148.82 36.5205 149.172V153H35.3925V149.172C35.3925 148.812 35.3285 148.508 35.2005 148.26C35.0725 148.012 34.8965 147.82 34.6725 147.684C34.4565 147.54 34.2005 147.468 33.9045 147.468C33.6165 147.468 33.3565 147.54 33.1245 147.684C32.9005 147.82 32.7205 148.016 32.5845 148.272C32.4565 148.52 32.3925 148.82 32.3925 149.172V153H31.2765ZM45.9315 153.144C45.4115 153.144 44.9355 153.028 44.5035 152.796C44.0795 152.564 43.7515 152.236 43.5195 151.812L43.6755 151.62V153H42.5835V143.916H43.6995V147.924L43.5315 147.648C43.7715 147.264 44.0995 146.96 44.5155 146.736C44.9315 146.504 45.4075 146.388 45.9435 146.388C46.5515 146.388 47.0955 146.536 47.5755 146.832C48.0635 147.128 48.4475 147.532 48.7275 148.044C49.0075 148.548 49.1475 149.124 49.1475 149.772C49.1475 150.404 49.0075 150.976 48.7275 151.488C48.4475 152 48.0635 152.404 47.5755 152.7C47.0955 152.996 46.5475 153.144 45.9315 153.144ZM45.8475 152.064C46.2555 152.064 46.6195 151.964 46.9395 151.764C47.2595 151.564 47.5075 151.292 47.6835 150.948C47.8675 150.596 47.9595 150.204 47.9595 149.772C47.9595 149.324 47.8675 148.932 47.6835 148.596C47.5075 148.252 47.2595 147.98 46.9395 147.78C46.6195 147.572 46.2555 147.468 45.8475 147.468C45.4395 147.468 45.0715 147.568 44.7435 147.768C44.4235 147.968 44.1675 148.244 43.9755 148.596C43.7915 148.94 43.6995 149.332 43.6995 149.772C43.6995 150.204 43.7915 150.596 43.9755 150.948C44.1675 151.292 44.4235 151.564 44.7435 151.764C45.0715 151.964 45.4395 152.064 45.8475 152.064ZM50.9609 153V146.532H52.0769V153H50.9609ZM50.9609 145.5V144.06H52.0769V145.5H50.9609ZM54.1585 153V143.916H55.2745V153H54.1585ZM62.8644 155.64C62.4084 155.64 61.9844 155.568 61.5924 155.424C61.2084 155.28 60.8764 155.08 60.5964 154.824C60.3244 154.576 60.1164 154.284 59.9724 153.948L61.0164 153.468C61.1284 153.772 61.3404 154.028 61.6524 154.236C61.9724 154.452 62.3724 154.56 62.8524 154.56C63.2204 154.56 63.5524 154.488 63.8484 154.344C64.1524 154.208 64.3924 154 64.5684 153.72C64.7444 153.448 64.8324 153.116 64.8324 152.724V151.272L65.0364 151.488C64.8124 151.928 64.4884 152.264 64.0644 152.496C63.6484 152.728 63.1884 152.844 62.6844 152.844C62.0764 152.844 61.5324 152.704 61.0524 152.424C60.5724 152.136 60.1964 151.748 59.9244 151.26C59.6524 150.764 59.5164 150.216 59.5164 149.616C59.5164 149.008 59.6524 148.46 59.9244 147.972C60.1964 147.484 60.5684 147.1 61.0404 146.82C61.5204 146.532 62.0644 146.388 62.6724 146.388C63.1764 146.388 63.6324 146.504 64.0404 146.736C64.4564 146.96 64.7884 147.272 65.0364 147.672L64.8684 147.972V146.532H65.9604V152.724C65.9604 153.284 65.8284 153.784 65.5644 154.224C65.3004 154.664 64.9324 155.008 64.4604 155.256C63.9964 155.512 63.4644 155.64 62.8644 155.64ZM62.7804 151.764C63.1644 151.764 63.5084 151.668 63.8124 151.476C64.1244 151.284 64.3724 151.028 64.5564 150.708C64.7404 150.38 64.8324 150.016 64.8324 149.616C64.8324 149.224 64.7404 148.864 64.5564 148.536C64.3724 148.208 64.1244 147.948 63.8124 147.756C63.5084 147.564 63.1644 147.468 62.7804 147.468C62.3884 147.468 62.0324 147.564 61.7124 147.756C61.3924 147.948 61.1404 148.208 60.9564 148.536C60.7804 148.856 60.6924 149.216 60.6924 149.616C60.6924 150.016 60.7804 150.38 60.9564 150.708C61.1404 151.028 61.3884 151.284 61.7004 151.476C62.0204 151.668 62.3804 151.764 62.7804 151.764ZM69.9366 153.144C69.5126 153.144 69.1366 153.068 68.8086 152.916C68.4886 152.756 68.2366 152.54 68.0526 152.268C67.8686 151.988 67.7766 151.668 67.7766 151.308C67.7766 150.964 67.8486 150.656 67.9926 150.384C68.1446 150.104 68.3766 149.868 68.6886 149.676C69.0086 149.484 69.4086 149.348 69.8886 149.268L72.2886 148.872V149.808L70.1406 150.168C69.7246 150.24 69.4206 150.372 69.2286 150.564C69.0446 150.756 68.9526 150.992 68.9526 151.272C68.9526 151.536 69.0566 151.756 69.2646 151.932C69.4806 152.108 69.7486 152.196 70.0686 152.196C70.4766 152.196 70.8286 152.112 71.1246 151.944C71.4286 151.768 71.6646 151.532 71.8326 151.236C72.0086 150.94 72.0966 150.612 72.0966 150.252V148.608C72.0966 148.256 71.9646 147.972 71.7006 147.756C71.4446 147.532 71.1046 147.42 70.6806 147.42C70.3126 147.42 69.9846 147.516 69.6966 147.708C69.4166 147.892 69.2086 148.14 69.0726 148.452L68.1006 147.948C68.2206 147.652 68.4126 147.388 68.6766 147.156C68.9406 146.916 69.2486 146.728 69.6006 146.592C69.9526 146.456 70.3206 146.388 70.7046 146.388C71.2006 146.388 71.6366 146.484 72.0126 146.676C72.3886 146.86 72.6806 147.12 72.8886 147.456C73.1046 147.784 73.2126 148.168 73.2126 148.608V153H72.1206V151.776L72.3246 151.848C72.1886 152.104 72.0046 152.328 71.7726 152.52C71.5406 152.712 71.2686 152.864 70.9566 152.976C70.6446 153.088 70.3046 153.144 69.9366 153.144ZM75.2929 153V146.532H76.3849V147.852L76.2289 147.648C76.3889 147.24 76.6449 146.928 76.9969 146.712C77.3489 146.496 77.7449 146.388 78.1849 146.388C78.6889 146.388 79.1409 146.528 79.5409 146.808C79.9489 147.088 80.2289 147.456 80.3809 147.912L80.0689 147.924C80.2369 147.42 80.5209 147.04 80.9209 146.784C81.3209 146.52 81.7649 146.388 82.2529 146.388C82.7009 146.388 83.1049 146.492 83.4649 146.7C83.8329 146.908 84.1249 147.196 84.3409 147.564C84.5569 147.932 84.6649 148.348 84.6649 148.812V153H83.5369V149.172C83.5369 148.812 83.4729 148.508 83.3449 148.26C83.2169 148.012 83.0409 147.82 82.8169 147.684C82.6009 147.54 82.3449 147.468 82.0489 147.468C81.7609 147.468 81.5009 147.54 81.2689 147.684C81.0449 147.82 80.8649 148.016 80.7289 148.272C80.6009 148.52 80.5369 148.82 80.5369 149.172V153H79.4089V149.172C79.4089 148.812 79.3449 148.508 79.2169 148.26C79.0889 148.012 78.9129 147.82 78.6889 147.684C78.4729 147.54 78.2169 147.468 77.9209 147.468C77.6329 147.468 77.3729 147.54 77.1409 147.684C76.9169 147.82 76.7369 148.016 76.6009 148.272C76.4729 148.52 76.4089 148.82 76.4089 149.172V153H75.2929ZM89.9479 153.144C89.4279 153.144 88.9519 153.028 88.5199 152.796C88.0959 152.564 87.7679 152.236 87.5359 151.812L87.6919 151.62V153H86.5999V143.916H87.7159V147.924L87.5479 147.648C87.7879 147.264 88.1159 146.96 88.5319 146.736C88.9479 146.504 89.4239 146.388 89.9599 146.388C90.5679 146.388 91.1119 146.536 91.5919 146.832C92.0799 147.128 92.4639 147.532 92.7439 148.044C93.0239 148.548 93.1639 149.124 93.1639 149.772C93.1639 150.404 93.0239 150.976 92.7439 151.488C92.4639 152 92.0799 152.404 91.5919 152.7C91.1119 152.996 90.5639 153.144 89.9479 153.144ZM89.8639 152.064C90.2719 152.064 90.6359 151.964 90.9559 151.764C91.2759 151.564 91.5239 151.292 91.6999 150.948C91.8839 150.596 91.9759 150.204 91.9759 149.772C91.9759 149.324 91.8839 148.932 91.6999 148.596C91.5239 148.252 91.2759 147.98 90.9559 147.78C90.6359 147.572 90.2719 147.468 89.8639 147.468C89.4559 147.468 89.0879 147.568 88.7599 147.768C88.4399 147.968 88.1839 148.244 87.9919 148.596C87.8079 148.94 87.7159 149.332 87.7159 149.772C87.7159 150.204 87.8079 150.596 87.9919 150.948C88.1839 151.292 88.4399 151.564 88.7599 151.764C89.0879 151.964 89.4559 152.064 89.8639 152.064ZM96.8733 153.144C96.4493 153.144 96.0733 153.068 95.7453 152.916C95.4253 152.756 95.1733 152.54 94.9893 152.268C94.8053 151.988 94.7133 151.668 94.7133 151.308C94.7133 150.964 94.7853 150.656 94.9293 150.384C95.0813 150.104 95.3133 149.868 95.6253 149.676C95.9453 149.484 96.3453 149.348 96.8253 149.268L99.2253 148.872V149.808L97.0773 150.168C96.6613 150.24 96.3573 150.372 96.1653 150.564C95.9813 150.756 95.8893 150.992 95.8893 151.272C95.8893 151.536 95.9933 151.756 96.2013 151.932C96.4173 152.108 96.6853 152.196 97.0053 152.196C97.4133 152.196 97.7653 152.112 98.0613 151.944C98.3653 151.768 98.6013 151.532 98.7693 151.236C98.9453 150.94 99.0333 150.612 99.0333 150.252V148.608C99.0333 148.256 98.9013 147.972 98.6373 147.756C98.3813 147.532 98.0413 147.42 97.6173 147.42C97.2493 147.42 96.9213 147.516 96.6333 147.708C96.3533 147.892 96.1453 148.14 96.0093 148.452L95.0373 147.948C95.1573 147.652 95.3493 147.388 95.6133 147.156C95.8773 146.916 96.1853 146.728 96.5373 146.592C96.8893 146.456 97.2573 146.388 97.6413 146.388C98.1373 146.388 98.5733 146.484 98.9493 146.676C99.3253 146.86 99.6173 147.12 99.8253 147.456C100.041 147.784 100.149 148.168 100.149 148.608V153H99.0573V151.776L99.2613 151.848C99.1253 152.104 98.9413 152.328 98.7093 152.52C98.4773 152.712 98.2053 152.864 97.8933 152.976C97.5813 153.088 97.2413 153.144 96.8733 153.144ZM102.23 153V146.532H103.322V147.72L103.202 147.552C103.354 147.184 103.586 146.912 103.898 146.736C104.21 146.552 104.59 146.46 105.038 146.46H105.434V147.516H104.87C104.414 147.516 104.046 147.66 103.766 147.948C103.486 148.228 103.346 148.628 103.346 149.148V153H102.23ZM112.139 153.144C111.531 153.144 110.983 152.996 110.495 152.7C110.015 152.404 109.635 152 109.355 151.488C109.075 150.976 108.935 150.404 108.935 149.772C108.935 149.124 109.075 148.548 109.355 148.044C109.635 147.532 110.015 147.128 110.495 146.832C110.983 146.536 111.531 146.388 112.139 146.388C112.675 146.388 113.151 146.504 113.567 146.736C113.983 146.96 114.311 147.264 114.551 147.648L114.371 147.924V143.916H115.499V153H114.407V151.62L114.551 151.812C114.327 152.236 113.999 152.564 113.567 152.796C113.143 153.028 112.667 153.144 112.139 153.144ZM112.235 152.064C112.643 152.064 113.007 151.964 113.327 151.764C113.647 151.564 113.899 151.292 114.083 150.948C114.275 150.596 114.371 150.204 114.371 149.772C114.371 149.332 114.275 148.94 114.083 148.596C113.899 148.244 113.647 147.968 113.327 147.768C113.007 147.568 112.643 147.468 112.235 147.468C111.835 147.468 111.471 147.572 111.143 147.78C110.823 147.98 110.571 148.252 110.387 148.596C110.203 148.932 110.111 149.324 110.111 149.772C110.111 150.204 110.203 150.596 110.387 150.948C110.571 151.292 110.823 151.564 111.143 151.764C111.463 151.964 111.827 152.064 112.235 152.064ZM119.473 153.144C119.049 153.144 118.673 153.068 118.345 152.916C118.025 152.756 117.773 152.54 117.589 152.268C117.405 151.988 117.313 151.668 117.313 151.308C117.313 150.964 117.385 150.656 117.529 150.384C117.681 150.104 117.913 149.868 118.225 149.676C118.545 149.484 118.945 149.348 119.425 149.268L121.825 148.872V149.808L119.677 150.168C119.261 150.24 118.957 150.372 118.765 150.564C118.581 150.756 118.489 150.992 118.489 151.272C118.489 151.536 118.593 151.756 118.801 151.932C119.017 152.108 119.285 152.196 119.605 152.196C120.013 152.196 120.365 152.112 120.661 151.944C120.965 151.768 121.201 151.532 121.369 151.236C121.545 150.94 121.633 150.612 121.633 150.252V148.608C121.633 148.256 121.501 147.972 121.237 147.756C120.981 147.532 120.641 147.42 120.217 147.42C119.849 147.42 119.521 147.516 119.233 147.708C118.953 147.892 118.745 148.14 118.609 148.452L117.637 147.948C117.757 147.652 117.949 147.388 118.213 147.156C118.477 146.916 118.785 146.728 119.137 146.592C119.489 146.456 119.857 146.388 120.241 146.388C120.737 146.388 121.173 146.484 121.549 146.676C121.925 146.86 122.217 147.12 122.425 147.456C122.641 147.784 122.749 148.168 122.749 148.608V153H121.657V151.776L121.861 151.848C121.725 152.104 121.541 152.328 121.309 152.52C121.077 152.712 120.805 152.864 120.493 152.976C120.181 153.088 119.841 153.144 119.473 153.144ZM124.829 153V146.532H125.921V147.792L125.741 147.684C125.901 147.276 126.157 146.96 126.509 146.736C126.869 146.504 127.289 146.388 127.769 146.388C128.233 146.388 128.645 146.492 129.005 146.7C129.373 146.908 129.661 147.196 129.869 147.564C130.085 147.932 130.193 148.348 130.193 148.812V153H129.065V149.172C129.065 148.812 129.001 148.508 128.873 148.26C128.745 148.012 128.561 147.82 128.321 147.684C128.089 147.54 127.821 147.468 127.517 147.468C127.213 147.468 126.941 147.54 126.701 147.684C126.469 147.82 126.285 148.016 126.149 148.272C126.013 148.52 125.945 148.82 125.945 149.172V153H124.829ZM134.564 153V143.916H135.68V150.144L135.224 150.036L138.656 146.532H140.084L137.6 149.136L140.252 153H138.932L136.508 149.496L137.204 149.46L135.32 151.428L135.68 150.612V153H134.564ZM141.605 153V146.532H142.721V153H141.605ZM141.605 145.5V144.06H142.721V145.5H141.605ZM144.803 153V146.532H145.895V147.72L145.775 147.552C145.927 147.184 146.159 146.912 146.471 146.736C146.783 146.552 147.163 146.46 147.611 146.46H148.007V147.516H147.443C146.987 147.516 146.619 147.66 146.339 147.948C146.059 148.228 145.919 148.628 145.919 149.148V153H144.803ZM149.348 153V146.532H150.464V153H149.348ZM149.348 145.5V144.06H150.464V145.5H149.348ZM152.546 153V146.532H153.638V147.852L153.482 147.648C153.642 147.24 153.898 146.928 154.25 146.712C154.602 146.496 154.998 146.388 155.438 146.388C155.942 146.388 156.394 146.528 156.794 146.808C157.202 147.088 157.482 147.456 157.634 147.912L157.322 147.924C157.49 147.42 157.774 147.04 158.174 146.784C158.574 146.52 159.018 146.388 159.506 146.388C159.954 146.388 160.358 146.492 160.718 146.7C161.086 146.908 161.378 147.196 161.594 147.564C161.81 147.932 161.918 148.348 161.918 148.812V153H160.79V149.172C160.79 148.812 160.726 148.508 160.598 148.26C160.47 148.012 160.294 147.82 160.07 147.684C159.854 147.54 159.598 147.468 159.302 147.468C159.014 147.468 158.754 147.54 158.522 147.684C158.298 147.82 158.118 148.016 157.982 148.272C157.854 148.52 157.79 148.82 157.79 149.172V153H156.662V149.172C156.662 148.812 156.598 148.508 156.47 148.26C156.342 148.012 156.166 147.82 155.942 147.684C155.726 147.54 155.47 147.468 155.174 147.468C154.886 147.468 154.626 147.54 154.394 147.684C154.17 147.82 153.99 148.016 153.854 148.272C153.726 148.52 153.662 148.82 153.662 149.172V153H152.546ZM22.864 168V158.916H23.98V168H22.864ZM27.9577 168.144C27.5337 168.144 27.1577 168.068 26.8297 167.916C26.5097 167.756 26.2577 167.54 26.0737 167.268C25.8897 166.988 25.7977 166.668 25.7977 166.308C25.7977 165.964 25.8697 165.656 26.0137 165.384C26.1657 165.104 26.3977 164.868 26.7097 164.676C27.0297 164.484 27.4297 164.348 27.9097 164.268L30.3097 163.872V164.808L28.1617 165.168C27.7457 165.24 27.4417 165.372 27.2497 165.564C27.0657 165.756 26.9737 165.992 26.9737 166.272C26.9737 166.536 27.0777 166.756 27.2857 166.932C27.5017 167.108 27.7697 167.196 28.0897 167.196C28.4977 167.196 28.8497 167.112 29.1457 166.944C29.4497 166.768 29.6857 166.532 29.8537 166.236C30.0297 165.94 30.1177 165.612 30.1177 165.252V163.608C30.1177 163.256 29.9857 162.972 29.7217 162.756C29.4657 162.532 29.1257 162.42 28.7017 162.42C28.3337 162.42 28.0057 162.516 27.7177 162.708C27.4377 162.892 27.2297 163.14 27.0937 163.452L26.1217 162.948C26.2417 162.652 26.4337 162.388 26.6977 162.156C26.9617 161.916 27.2697 161.728 27.6217 161.592C27.9737 161.456 28.3417 161.388 28.7257 161.388C29.2217 161.388 29.6577 161.484 30.0337 161.676C30.4097 161.86 30.7017 162.12 30.9097 162.456C31.1257 162.784 31.2337 163.168 31.2337 163.608V168H30.1417V166.776L30.3457 166.848C30.2097 167.104 30.0257 167.328 29.7937 167.52C29.5617 167.712 29.2897 167.864 28.9777 167.976C28.6657 168.088 28.3257 168.144 27.9577 168.144ZM33.314 170.4V161.532H34.406V162.924L34.262 162.648C34.502 162.264 34.83 161.96 35.246 161.736C35.662 161.504 36.138 161.388 36.674 161.388C37.282 161.388 37.826 161.536 38.306 161.832C38.794 162.128 39.178 162.532 39.458 163.044C39.738 163.548 39.878 164.124 39.878 164.772C39.878 165.404 39.738 165.976 39.458 166.488C39.178 167 38.794 167.404 38.306 167.7C37.826 167.996 37.278 168.144 36.662 168.144C36.142 168.144 35.666 168.028 35.234 167.796C34.81 167.564 34.482 167.236 34.25 166.812L34.43 166.62V170.4H33.314ZM36.578 167.064C36.986 167.064 37.35 166.964 37.67 166.764C37.99 166.564 38.238 166.292 38.414 165.948C38.598 165.596 38.69 165.204 38.69 164.772C38.69 164.324 38.598 163.932 38.414 163.596C38.238 163.252 37.99 162.98 37.67 162.78C37.35 162.572 36.986 162.468 36.578 162.468C36.17 162.468 35.802 162.568 35.474 162.768C35.154 162.968 34.898 163.244 34.706 163.596C34.522 163.94 34.43 164.332 34.43 164.772C34.43 165.204 34.522 165.596 34.706 165.948C34.898 166.292 35.154 166.564 35.474 166.764C35.802 166.964 36.17 167.064 36.578 167.064ZM44.7633 168.144C44.1393 168.144 43.5753 168 43.0713 167.712C42.5673 167.416 42.1673 167.012 41.8713 166.5C41.5753 165.988 41.4273 165.408 41.4273 164.76C41.4273 164.112 41.5713 163.536 41.8593 163.032C42.1553 162.528 42.5553 162.128 43.0593 161.832C43.5633 161.536 44.1313 161.388 44.7633 161.388C45.3873 161.388 45.9513 161.536 46.4553 161.832C46.9593 162.12 47.3553 162.516 47.6433 163.02C47.9393 163.524 48.0873 164.104 48.0873 164.76C48.0873 165.416 47.9353 166 47.6313 166.512C47.3273 167.016 46.9233 167.416 46.4193 167.712C45.9233 168 45.3713 168.144 44.7633 168.144ZM44.7633 167.064C45.1633 167.064 45.5233 166.964 45.8433 166.764C46.1713 166.564 46.4273 166.288 46.6113 165.936C46.8033 165.584 46.8993 165.192 46.8993 164.76C46.8993 164.32 46.8033 163.932 46.6113 163.596C46.4273 163.252 46.1713 162.98 45.8433 162.78C45.5233 162.572 45.1633 162.468 44.7633 162.468C44.3553 162.468 43.9873 162.572 43.6593 162.78C43.3393 162.98 43.0833 163.252 42.8913 163.596C42.6993 163.932 42.6033 164.32 42.6033 164.76C42.6033 165.192 42.6993 165.584 42.8913 165.936C43.0833 166.288 43.3393 166.564 43.6593 166.764C43.9873 166.964 44.3553 167.064 44.7633 167.064ZM49.8929 168V161.532H50.9849V162.72L50.8649 162.552C51.0169 162.184 51.2489 161.912 51.5609 161.736C51.8729 161.552 52.2529 161.46 52.7009 161.46H53.0969V162.516H52.5329C52.0769 162.516 51.7089 162.66 51.4289 162.948C51.1489 163.228 51.0089 163.628 51.0089 164.148V168H49.8929ZM56.3342 168.144C55.9102 168.144 55.5342 168.068 55.2062 167.916C54.8862 167.756 54.6342 167.54 54.4502 167.268C54.2662 166.988 54.1742 166.668 54.1742 166.308C54.1742 165.964 54.2462 165.656 54.3902 165.384C54.5422 165.104 54.7742 164.868 55.0862 164.676C55.4062 164.484 55.8062 164.348 56.2862 164.268L58.6862 163.872V164.808L56.5382 165.168C56.1222 165.24 55.8182 165.372 55.6262 165.564C55.4422 165.756 55.3502 165.992 55.3502 166.272C55.3502 166.536 55.4542 166.756 55.6622 166.932C55.8782 167.108 56.1462 167.196 56.4662 167.196C56.8742 167.196 57.2262 167.112 57.5222 166.944C57.8262 166.768 58.0622 166.532 58.2302 166.236C58.4062 165.94 58.4942 165.612 58.4942 165.252V163.608C58.4942 163.256 58.3622 162.972 58.0982 162.756C57.8422 162.532 57.5022 162.42 57.0782 162.42C56.7102 162.42 56.3822 162.516 56.0942 162.708C55.8142 162.892 55.6062 163.14 55.4702 163.452L54.4982 162.948C54.6182 162.652 54.8102 162.388 55.0742 162.156C55.3382 161.916 55.6462 161.728 55.9982 161.592C56.3502 161.456 56.7182 161.388 57.1022 161.388C57.5982 161.388 58.0342 161.484 58.4102 161.676C58.7862 161.86 59.0782 162.12 59.2862 162.456C59.5022 162.784 59.6102 163.168 59.6102 163.608V168H58.5182V166.776L58.7222 166.848C58.5862 167.104 58.4022 167.328 58.1702 167.52C57.9382 167.712 57.6662 167.864 57.3542 167.976C57.0422 168.088 56.7022 168.144 56.3342 168.144ZM61.6906 168V161.532H62.7826V162.792L62.6026 162.684C62.7626 162.276 63.0186 161.96 63.3706 161.736C63.7306 161.504 64.1506 161.388 64.6306 161.388C65.0946 161.388 65.5066 161.492 65.8666 161.7C66.2346 161.908 66.5226 162.196 66.7306 162.564C66.9466 162.932 67.0546 163.348 67.0546 163.812V168H65.9266V164.172C65.9266 163.812 65.8626 163.508 65.7346 163.26C65.6066 163.012 65.4226 162.82 65.1826 162.684C64.9506 162.54 64.6826 162.468 64.3786 162.468C64.0746 162.468 63.8026 162.54 63.5626 162.684C63.3306 162.82 63.1466 163.016 63.0106 163.272C62.8746 163.52 62.8066 163.82 62.8066 164.172V168H61.6906ZM69.0015 168V161.532H70.0935V162.792L69.9135 162.684C70.0735 162.276 70.3295 161.96 70.6815 161.736C71.0415 161.504 71.4615 161.388 71.9415 161.388C72.4055 161.388 72.8175 161.492 73.1775 161.7C73.5455 161.908 73.8335 162.196 74.0415 162.564C74.2575 162.932 74.3655 163.348 74.3655 163.812V168H73.2375V164.172C73.2375 163.812 73.1735 163.508 73.0455 163.26C72.9175 163.012 72.7335 162.82 72.4935 162.684C72.2615 162.54 71.9935 162.468 71.6895 162.468C71.3855 162.468 71.1135 162.54 70.8735 162.684C70.6415 162.82 70.4575 163.016 70.3215 163.272C70.1855 163.52 70.1175 163.82 70.1175 164.172V168H69.0015ZM76.5432 170.64C76.3992 170.64 76.2552 170.628 76.1112 170.604C75.9672 170.58 75.8312 170.54 75.7032 170.484V169.488C75.7912 169.504 75.8992 169.52 76.0272 169.536C76.1632 169.56 76.2952 169.572 76.4232 169.572C76.7992 169.572 77.0832 169.488 77.2752 169.32C77.4752 169.16 77.6632 168.88 77.8392 168.48L78.2472 167.508L78.2232 168.48L75.4632 161.532H76.6752L78.8232 167.052H78.4632L80.5992 161.532H81.8352L78.9192 168.768C78.7832 169.112 78.6072 169.424 78.3912 169.704C78.1832 169.992 77.9272 170.22 77.6232 170.388C77.3192 170.556 76.9592 170.64 76.5432 170.64ZM84.8397 168.144C84.4157 168.144 84.0397 168.068 83.7117 167.916C83.3917 167.756 83.1397 167.54 82.9557 167.268C82.7717 166.988 82.6797 166.668 82.6797 166.308C82.6797 165.964 82.7517 165.656 82.8957 165.384C83.0477 165.104 83.2797 164.868 83.5917 164.676C83.9117 164.484 84.3117 164.348 84.7917 164.268L87.1917 163.872V164.808L85.0437 165.168C84.6277 165.24 84.3237 165.372 84.1317 165.564C83.9477 165.756 83.8557 165.992 83.8557 166.272C83.8557 166.536 83.9597 166.756 84.1677 166.932C84.3837 167.108 84.6517 167.196 84.9717 167.196C85.3797 167.196 85.7317 167.112 86.0277 166.944C86.3317 166.768 86.5677 166.532 86.7357 166.236C86.9117 165.94 86.9997 165.612 86.9997 165.252V163.608C86.9997 163.256 86.8677 162.972 86.6037 162.756C86.3477 162.532 86.0077 162.42 85.5837 162.42C85.2157 162.42 84.8877 162.516 84.5997 162.708C84.3197 162.892 84.1117 163.14 83.9757 163.452L83.0037 162.948C83.1237 162.652 83.3157 162.388 83.5797 162.156C83.8437 161.916 84.1517 161.728 84.5037 161.592C84.8557 161.456 85.2237 161.388 85.6077 161.388C86.1037 161.388 86.5397 161.484 86.9157 161.676C87.2917 161.86 87.5837 162.12 87.7917 162.456C88.0077 162.784 88.1157 163.168 88.1157 163.608V168H87.0237V166.776L87.2277 166.848C87.0917 167.104 86.9077 167.328 86.6757 167.52C86.4437 167.712 86.1717 167.864 85.8597 167.976C85.5477 168.088 85.2077 168.144 84.8397 168.144ZM90.652 168V166.56H91.816V168H90.652ZM99.9828 168.144C99.4148 168.144 98.8948 168.04 98.4228 167.832C97.9508 167.616 97.5508 167.324 97.2228 166.956C96.8948 166.588 96.6588 166.176 96.5148 165.72L97.5348 165.3C97.7508 165.876 98.0708 166.32 98.4948 166.632C98.9268 166.936 99.4308 167.088 100.007 167.088C100.359 167.088 100.667 167.032 100.931 166.92C101.195 166.808 101.399 166.652 101.543 166.452C101.695 166.244 101.771 166.004 101.771 165.732C101.771 165.356 101.663 165.06 101.447 164.844C101.239 164.62 100.931 164.452 100.523 164.34L98.8788 163.836C98.2308 163.636 97.7348 163.32 97.3908 162.888C97.0468 162.456 96.8748 161.96 96.8748 161.4C96.8748 160.912 96.9908 160.484 97.2228 160.116C97.4628 159.74 97.7908 159.448 98.2068 159.24C98.6308 159.024 99.1108 158.916 99.6468 158.916C100.183 158.916 100.667 159.012 101.099 159.204C101.539 159.396 101.911 159.656 102.215 159.984C102.519 160.304 102.743 160.672 102.887 161.088L101.879 161.508C101.687 161.004 101.399 160.624 101.015 160.368C100.631 160.104 100.179 159.972 99.6588 159.972C99.3388 159.972 99.0548 160.028 98.8068 160.14C98.5668 160.244 98.3788 160.4 98.2428 160.608C98.1148 160.808 98.0508 161.048 98.0508 161.328C98.0508 161.656 98.1548 161.948 98.3628 162.204C98.5708 162.46 98.8868 162.656 99.3108 162.792L100.811 163.236C101.515 163.452 102.047 163.76 102.407 164.16C102.767 164.56 102.947 165.056 102.947 165.648C102.947 166.136 102.819 166.568 102.563 166.944C102.315 167.32 101.967 167.616 101.519 167.832C101.079 168.04 100.567 168.144 99.9828 168.144ZM107.863 168.144C107.239 168.144 106.683 167.996 106.195 167.7C105.707 167.404 105.323 167 105.043 166.488C104.763 165.968 104.623 165.388 104.623 164.748C104.623 164.1 104.759 163.524 105.031 163.02C105.311 162.516 105.687 162.12 106.159 161.832C106.639 161.536 107.175 161.388 107.767 161.388C108.247 161.388 108.671 161.476 109.039 161.652C109.415 161.82 109.731 162.052 109.987 162.348C110.251 162.636 110.451 162.968 110.587 163.344C110.731 163.712 110.803 164.096 110.803 164.496C110.803 164.584 110.795 164.684 110.779 164.796C110.771 164.9 110.759 165 110.743 165.096H105.439V164.136H110.095L109.567 164.568C109.639 164.152 109.599 163.78 109.447 163.452C109.295 163.124 109.071 162.864 108.775 162.672C108.479 162.48 108.143 162.384 107.767 162.384C107.391 162.384 107.047 162.48 106.735 162.672C106.423 162.864 106.179 163.14 106.003 163.5C105.835 163.852 105.767 164.272 105.799 164.76C105.767 165.232 105.839 165.648 106.015 166.008C106.199 166.36 106.455 166.636 106.783 166.836C107.119 167.028 107.483 167.124 107.875 167.124C108.307 167.124 108.671 167.024 108.967 166.824C109.263 166.624 109.503 166.368 109.687 166.056L110.623 166.536C110.495 166.832 110.295 167.104 110.023 167.352C109.759 167.592 109.443 167.784 109.075 167.928C108.715 168.072 108.311 168.144 107.863 168.144ZM112.608 168V161.532H113.7V162.852L113.544 162.648C113.704 162.24 113.96 161.928 114.312 161.712C114.664 161.496 115.06 161.388 115.5 161.388C116.004 161.388 116.456 161.528 116.856 161.808C117.264 162.088 117.544 162.456 117.696 162.912L117.384 162.924C117.552 162.42 117.836 162.04 118.236 161.784C118.636 161.52 119.08 161.388 119.568 161.388C120.016 161.388 120.42 161.492 120.78 161.7C121.148 161.908 121.44 162.196 121.656 162.564C121.872 162.932 121.98 163.348 121.98 163.812V168H120.852V164.172C120.852 163.812 120.788 163.508 120.66 163.26C120.532 163.012 120.356 162.82 120.132 162.684C119.916 162.54 119.66 162.468 119.364 162.468C119.076 162.468 118.816 162.54 118.584 162.684C118.36 162.82 118.18 163.016 118.044 163.272C117.916 163.52 117.852 163.82 117.852 164.172V168H116.724V164.172C116.724 163.812 116.66 163.508 116.532 163.26C116.404 163.012 116.228 162.82 116.004 162.684C115.788 162.54 115.532 162.468 115.236 162.468C114.948 162.468 114.688 162.54 114.456 162.684C114.232 162.82 114.052 163.016 113.916 163.272C113.788 163.52 113.724 163.82 113.724 164.172V168H112.608ZM126.207 168.144C125.743 168.144 125.323 168.036 124.947 167.82C124.579 167.604 124.291 167.304 124.083 166.92C123.883 166.528 123.783 166.08 123.783 165.576V161.532H124.899V165.456C124.899 165.776 124.963 166.056 125.091 166.296C125.227 166.536 125.411 166.724 125.643 166.86C125.883 166.996 126.155 167.064 126.459 167.064C126.763 167.064 127.031 166.996 127.263 166.86C127.503 166.724 127.687 166.528 127.815 166.272C127.951 166.016 128.019 165.712 128.019 165.36V161.532H129.147V168H128.055V166.74L128.235 166.848C128.083 167.256 127.823 167.576 127.455 167.808C127.095 168.032 126.679 168.144 126.207 168.144ZM133.122 168.144C132.698 168.144 132.322 168.068 131.994 167.916C131.674 167.756 131.422 167.54 131.238 167.268C131.054 166.988 130.962 166.668 130.962 166.308C130.962 165.964 131.034 165.656 131.178 165.384C131.33 165.104 131.562 164.868 131.874 164.676C132.194 164.484 132.594 164.348 133.074 164.268L135.474 163.872V164.808L133.326 165.168C132.91 165.24 132.606 165.372 132.414 165.564C132.23 165.756 132.138 165.992 132.138 166.272C132.138 166.536 132.242 166.756 132.45 166.932C132.666 167.108 132.934 167.196 133.254 167.196C133.662 167.196 134.014 167.112 134.31 166.944C134.614 166.768 134.85 166.532 135.018 166.236C135.194 165.94 135.282 165.612 135.282 165.252V163.608C135.282 163.256 135.15 162.972 134.886 162.756C134.63 162.532 134.29 162.42 133.866 162.42C133.498 162.42 133.17 162.516 132.882 162.708C132.602 162.892 132.394 163.14 132.258 163.452L131.286 162.948C131.406 162.652 131.598 162.388 131.862 162.156C132.126 161.916 132.434 161.728 132.786 161.592C133.138 161.456 133.506 161.388 133.89 161.388C134.386 161.388 134.822 161.484 135.198 161.676C135.574 161.86 135.866 162.12 136.074 162.456C136.29 162.784 136.398 163.168 136.398 163.608V168H135.306V166.776L135.51 166.848C135.374 167.104 135.19 167.328 134.958 167.52C134.726 167.712 134.454 167.864 134.142 167.976C133.83 168.088 133.49 168.144 133.122 168.144ZM138.478 168V161.532H139.57V162.792L139.39 162.684C139.55 162.276 139.806 161.96 140.158 161.736C140.518 161.504 140.938 161.388 141.418 161.388C141.882 161.388 142.294 161.492 142.654 161.7C143.022 161.908 143.31 162.196 143.518 162.564C143.734 162.932 143.842 163.348 143.842 163.812V168H142.714V164.172C142.714 163.812 142.65 163.508 142.522 163.26C142.394 163.012 142.21 162.82 141.97 162.684C141.738 162.54 141.47 162.468 141.166 162.468C140.862 162.468 140.59 162.54 140.35 162.684C140.118 162.82 139.934 163.016 139.798 163.272C139.662 163.52 139.594 163.82 139.594 164.172V168H138.478ZM146.02 170.64C145.876 170.64 145.732 170.628 145.588 170.604C145.444 170.58 145.308 170.54 145.18 170.484V169.488C145.268 169.504 145.376 169.52 145.504 169.536C145.64 169.56 145.772 169.572 145.9 169.572C146.276 169.572 146.56 169.488 146.752 169.32C146.952 169.16 147.14 168.88 147.316 168.48L147.724 167.508L147.7 168.48L144.94 161.532H146.152L148.3 167.052H147.94L150.076 161.532H151.312L148.396 168.768C148.26 169.112 148.084 169.424 147.868 169.704C147.66 169.992 147.404 170.22 147.1 170.388C146.796 170.556 146.436 170.64 146.02 170.64ZM154.316 168.144C153.892 168.144 153.516 168.068 153.188 167.916C152.868 167.756 152.616 167.54 152.432 167.268C152.248 166.988 152.156 166.668 152.156 166.308C152.156 165.964 152.228 165.656 152.372 165.384C152.524 165.104 152.756 164.868 153.068 164.676C153.388 164.484 153.788 164.348 154.268 164.268L156.668 163.872V164.808L154.52 165.168C154.104 165.24 153.8 165.372 153.608 165.564C153.424 165.756 153.332 165.992 153.332 166.272C153.332 166.536 153.436 166.756 153.644 166.932C153.86 167.108 154.128 167.196 154.448 167.196C154.856 167.196 155.208 167.112 155.504 166.944C155.808 166.768 156.044 166.532 156.212 166.236C156.388 165.94 156.476 165.612 156.476 165.252V163.608C156.476 163.256 156.344 162.972 156.08 162.756C155.824 162.532 155.484 162.42 155.06 162.42C154.692 162.42 154.364 162.516 154.076 162.708C153.796 162.892 153.588 163.14 153.452 163.452L152.48 162.948C152.6 162.652 152.792 162.388 153.056 162.156C153.32 161.916 153.628 161.728 153.98 161.592C154.332 161.456 154.7 161.388 155.084 161.388C155.58 161.388 156.016 161.484 156.392 161.676C156.768 161.86 157.06 162.12 157.268 162.456C157.484 162.784 157.592 163.168 157.592 163.608V168H156.5V166.776L156.704 166.848C156.568 167.104 156.384 167.328 156.152 167.52C155.92 167.712 155.648 167.864 155.336 167.976C155.024 168.088 154.684 168.144 154.316 168.144ZM25.804 183.144C25.196 183.144 24.648 182.996 24.16 182.7C23.68 182.404 23.3 182 23.02 181.488C22.74 180.976 22.6 180.404 22.6 179.772C22.6 179.124 22.74 178.548 23.02 178.044C23.3 177.532 23.68 177.128 24.16 176.832C24.648 176.536 25.196 176.388 25.804 176.388C26.34 176.388 26.816 176.504 27.232 176.736C27.648 176.96 27.976 177.264 28.216 177.648L28.036 177.924V173.916H29.164V183H28.072V181.62L28.216 181.812C27.992 182.236 27.664 182.564 27.232 182.796C26.808 183.028 26.332 183.144 25.804 183.144ZM25.9 182.064C26.308 182.064 26.672 181.964 26.992 181.764C27.312 181.564 27.564 181.292 27.748 180.948C27.94 180.596 28.036 180.204 28.036 179.772C28.036 179.332 27.94 178.94 27.748 178.596C27.564 178.244 27.312 177.968 26.992 177.768C26.672 177.568 26.308 177.468 25.9 177.468C25.5 177.468 25.136 177.572 24.808 177.78C24.488 177.98 24.236 178.252 24.052 178.596C23.868 178.932 23.776 179.324 23.776 179.772C23.776 180.204 23.868 180.596 24.052 180.948C24.236 181.292 24.488 181.564 24.808 181.764C25.128 181.964 25.492 182.064 25.9 182.064ZM33.1373 183.144C32.7133 183.144 32.3373 183.068 32.0093 182.916C31.6893 182.756 31.4373 182.54 31.2533 182.268C31.0693 181.988 30.9773 181.668 30.9773 181.308C30.9773 180.964 31.0493 180.656 31.1933 180.384C31.3453 180.104 31.5773 179.868 31.8893 179.676C32.2093 179.484 32.6093 179.348 33.0893 179.268L35.4893 178.872V179.808L33.3413 180.168C32.9253 180.24 32.6213 180.372 32.4293 180.564C32.2453 180.756 32.1533 180.992 32.1533 181.272C32.1533 181.536 32.2573 181.756 32.4653 181.932C32.6813 182.108 32.9493 182.196 33.2693 182.196C33.6773 182.196 34.0293 182.112 34.3253 181.944C34.6293 181.768 34.8653 181.532 35.0333 181.236C35.2093 180.94 35.2973 180.612 35.2973 180.252V178.608C35.2973 178.256 35.1653 177.972 34.9013 177.756C34.6453 177.532 34.3053 177.42 33.8813 177.42C33.5133 177.42 33.1853 177.516 32.8973 177.708C32.6173 177.892 32.4093 178.14 32.2733 178.452L31.3013 177.948C31.4213 177.652 31.6133 177.388 31.8773 177.156C32.1413 176.916 32.4493 176.728 32.8013 176.592C33.1533 176.456 33.5213 176.388 33.9053 176.388C34.4013 176.388 34.8373 176.484 35.2133 176.676C35.5893 176.86 35.8813 177.12 36.0893 177.456C36.3053 177.784 36.4133 178.168 36.4133 178.608V183H35.3213V181.776L35.5253 181.848C35.3893 182.104 35.2053 182.328 34.9733 182.52C34.7413 182.712 34.4693 182.864 34.1573 182.976C33.8453 183.088 33.5053 183.144 33.1373 183.144ZM38.4937 183V173.916H39.6097V183H38.4937ZM43.5873 183.144C43.1633 183.144 42.7873 183.068 42.4593 182.916C42.1393 182.756 41.8873 182.54 41.7033 182.268C41.5193 181.988 41.4273 181.668 41.4273 181.308C41.4273 180.964 41.4993 180.656 41.6433 180.384C41.7953 180.104 42.0273 179.868 42.3393 179.676C42.6593 179.484 43.0593 179.348 43.5393 179.268L45.9393 178.872V179.808L43.7913 180.168C43.3753 180.24 43.0713 180.372 42.8793 180.564C42.6953 180.756 42.6033 180.992 42.6033 181.272C42.6033 181.536 42.7073 181.756 42.9153 181.932C43.1313 182.108 43.3993 182.196 43.7193 182.196C44.1273 182.196 44.4793 182.112 44.7753 181.944C45.0793 181.768 45.3153 181.532 45.4833 181.236C45.6593 180.94 45.7473 180.612 45.7473 180.252V178.608C45.7473 178.256 45.6153 177.972 45.3513 177.756C45.0953 177.532 44.7553 177.42 44.3313 177.42C43.9633 177.42 43.6353 177.516 43.3473 177.708C43.0673 177.892 42.8593 178.14 42.7233 178.452L41.7513 177.948C41.8713 177.652 42.0633 177.388 42.3273 177.156C42.5913 176.916 42.8993 176.728 43.2513 176.592C43.6033 176.456 43.9713 176.388 44.3553 176.388C44.8513 176.388 45.2873 176.484 45.6633 176.676C46.0393 176.86 46.3313 177.12 46.5393 177.456C46.7553 177.784 46.8633 178.168 46.8633 178.608V183H45.7713V181.776L45.9753 181.848C45.8393 182.104 45.6553 182.328 45.4233 182.52C45.1913 182.712 44.9193 182.864 44.6073 182.976C44.2953 183.088 43.9553 183.144 43.5873 183.144ZM48.9437 183V176.532H50.0357V177.852L49.8797 177.648C50.0397 177.24 50.2957 176.928 50.6477 176.712C50.9997 176.496 51.3957 176.388 51.8357 176.388C52.3397 176.388 52.7917 176.528 53.1917 176.808C53.5997 177.088 53.8797 177.456 54.0317 177.912L53.7197 177.924C53.8877 177.42 54.1717 177.04 54.5717 176.784C54.9717 176.52 55.4157 176.388 55.9037 176.388C56.3517 176.388 56.7557 176.492 57.1157 176.7C57.4837 176.908 57.7757 177.196 57.9917 177.564C58.2077 177.932 58.3157 178.348 58.3157 178.812V183H57.1877V179.172C57.1877 178.812 57.1237 178.508 56.9957 178.26C56.8677 178.012 56.6917 177.82 56.4677 177.684C56.2517 177.54 55.9957 177.468 55.6997 177.468C55.4117 177.468 55.1517 177.54 54.9197 177.684C54.6957 177.82 54.5157 178.016 54.3797 178.272C54.2517 178.52 54.1877 178.82 54.1877 179.172V183H53.0597V179.172C53.0597 178.812 52.9957 178.508 52.8677 178.26C52.7397 178.012 52.5637 177.82 52.3397 177.684C52.1237 177.54 51.8677 177.468 51.5717 177.468C51.2837 177.468 51.0237 177.54 50.7917 177.684C50.5677 177.82 50.3877 178.016 50.2517 178.272C50.1237 178.52 50.0597 178.82 50.0597 179.172V183H48.9437ZM62.6749 183V173.916H63.7909V177.792L63.5869 177.684C63.7469 177.276 64.0029 176.96 64.3549 176.736C64.7149 176.504 65.1349 176.388 65.6149 176.388C66.0789 176.388 66.4909 176.492 66.8509 176.7C67.2189 176.908 67.5069 177.196 67.7149 177.564C67.9309 177.932 68.0389 178.348 68.0389 178.812V183H66.9109V179.172C66.9109 178.812 66.8429 178.508 66.7069 178.26C66.5789 178.012 66.3989 177.82 66.1669 177.684C65.9349 177.54 65.6669 177.468 65.3629 177.468C65.0669 177.468 64.7989 177.54 64.5589 177.684C64.3189 177.82 64.1309 178.016 63.9949 178.272C63.8589 178.52 63.7909 178.82 63.7909 179.172V183H62.6749ZM69.9859 183V176.532H71.1019V183H69.9859ZM69.9859 175.5V174.06H71.1019V175.5H69.9859ZM75.8115 183.072C75.1795 183.072 74.6915 182.892 74.3475 182.532C74.0115 182.172 73.8435 181.664 73.8435 181.008V177.6H72.6675V176.532H72.9075C73.1955 176.532 73.4235 176.444 73.5915 176.268C73.7595 176.092 73.8435 175.86 73.8435 175.572V175.044H74.9595V176.532H76.4115V177.6H74.9595V180.972C74.9595 181.188 74.9915 181.376 75.0555 181.536C75.1275 181.696 75.2435 181.824 75.4035 181.92C75.5635 182.008 75.7755 182.052 76.0395 182.052C76.0955 182.052 76.1635 182.048 76.2435 182.04C76.3315 182.032 76.4115 182.024 76.4835 182.016V183C76.3795 183.024 76.2635 183.04 76.1355 183.048C76.0075 183.064 75.8995 183.072 75.8115 183.072ZM80.5833 183.144C80.1193 183.144 79.6993 183.036 79.3233 182.82C78.9553 182.604 78.6673 182.304 78.4593 181.92C78.2593 181.528 78.1593 181.08 78.1593 180.576V176.532H79.2753V180.456C79.2753 180.776 79.3393 181.056 79.4673 181.296C79.6033 181.536 79.7873 181.724 80.0193 181.86C80.2593 181.996 80.5313 182.064 80.8353 182.064C81.1393 182.064 81.4073 181.996 81.6393 181.86C81.8793 181.724 82.0633 181.528 82.1913 181.272C82.3273 181.016 82.3953 180.712 82.3953 180.36V176.532H83.5233V183H82.4313V181.74L82.6113 181.848C82.4593 182.256 82.1993 182.576 81.8313 182.808C81.4713 183.032 81.0553 183.144 80.5833 183.144ZM85.6023 183V176.532H86.6943V177.792L86.5143 177.684C86.6743 177.276 86.9303 176.96 87.2823 176.736C87.6423 176.504 88.0623 176.388 88.5423 176.388C89.0063 176.388 89.4183 176.492 89.7783 176.7C90.1463 176.908 90.4343 177.196 90.6423 177.564C90.8583 177.932 90.9663 178.348 90.9663 178.812V183H89.8383V179.172C89.8383 178.812 89.7743 178.508 89.6463 178.26C89.5183 178.012 89.3343 177.82 89.0943 177.684C88.8623 177.54 88.5943 177.468 88.2903 177.468C87.9863 177.468 87.7143 177.54 87.4743 177.684C87.2423 177.82 87.0583 178.016 86.9223 178.272C86.7863 178.52 86.7183 178.82 86.7183 179.172V183H85.6023ZM95.9972 185.64C95.5412 185.64 95.1172 185.568 94.7252 185.424C94.3412 185.28 94.0092 185.08 93.7292 184.824C93.4572 184.576 93.2492 184.284 93.1052 183.948L94.1492 183.468C94.2612 183.772 94.4732 184.028 94.7852 184.236C95.1052 184.452 95.5052 184.56 95.9852 184.56C96.3532 184.56 96.6852 184.488 96.9812 184.344C97.2852 184.208 97.5252 184 97.7012 183.72C97.8772 183.448 97.9652 183.116 97.9652 182.724V181.272L98.1692 181.488C97.9452 181.928 97.6212 182.264 97.1972 182.496C96.7812 182.728 96.3212 182.844 95.8172 182.844C95.2092 182.844 94.6652 182.704 94.1852 182.424C93.7052 182.136 93.3292 181.748 93.0572 181.26C92.7852 180.764 92.6492 180.216 92.6492 179.616C92.6492 179.008 92.7852 178.46 93.0572 177.972C93.3292 177.484 93.7012 177.1 94.1732 176.82C94.6532 176.532 95.1972 176.388 95.8052 176.388C96.3092 176.388 96.7652 176.504 97.1732 176.736C97.5892 176.96 97.9212 177.272 98.1692 177.672L98.0012 177.972V176.532H99.0932V182.724C99.0932 183.284 98.9612 183.784 98.6972 184.224C98.4332 184.664 98.0652 185.008 97.5932 185.256C97.1292 185.512 96.5972 185.64 95.9972 185.64ZM95.9132 181.764C96.2972 181.764 96.6412 181.668 96.9452 181.476C97.2572 181.284 97.5052 181.028 97.6892 180.708C97.8732 180.38 97.9652 180.016 97.9652 179.616C97.9652 179.224 97.8732 178.864 97.6892 178.536C97.5052 178.208 97.2572 177.948 96.9452 177.756C96.6412 177.564 96.2972 177.468 95.9132 177.468C95.5212 177.468 95.1652 177.564 94.8452 177.756C94.5252 177.948 94.2732 178.208 94.0892 178.536C93.9132 178.856 93.8252 179.216 93.8252 179.616C93.8252 180.016 93.9132 180.38 94.0892 180.708C94.2732 181.028 94.5212 181.284 94.8332 181.476C95.1532 181.668 95.5132 181.764 95.9132 181.764ZM103.069 183.144C102.645 183.144 102.269 183.068 101.941 182.916C101.621 182.756 101.369 182.54 101.185 182.268C101.001 181.988 100.909 181.668 100.909 181.308C100.909 180.964 100.981 180.656 101.125 180.384C101.277 180.104 101.509 179.868 101.821 179.676C102.141 179.484 102.541 179.348 103.021 179.268L105.421 178.872V179.808L103.273 180.168C102.857 180.24 102.553 180.372 102.361 180.564C102.177 180.756 102.085 180.992 102.085 181.272C102.085 181.536 102.189 181.756 102.397 181.932C102.613 182.108 102.881 182.196 103.201 182.196C103.609 182.196 103.961 182.112 104.257 181.944C104.561 181.768 104.797 181.532 104.965 181.236C105.141 180.94 105.229 180.612 105.229 180.252V178.608C105.229 178.256 105.097 177.972 104.833 177.756C104.577 177.532 104.237 177.42 103.813 177.42C103.445 177.42 103.117 177.516 102.829 177.708C102.549 177.892 102.341 178.14 102.205 178.452L101.233 177.948C101.353 177.652 101.545 177.388 101.809 177.156C102.073 176.916 102.381 176.728 102.733 176.592C103.085 176.456 103.453 176.388 103.837 176.388C104.333 176.388 104.769 176.484 105.145 176.676C105.521 176.86 105.813 177.12 106.021 177.456C106.237 177.784 106.345 178.168 106.345 178.608V183H105.253V181.776L105.457 181.848C105.321 182.104 105.137 182.328 104.905 182.52C104.673 182.712 104.401 182.864 104.089 182.976C103.777 183.088 103.437 183.144 103.069 183.144ZM108.426 183V176.532H109.518V177.792L109.338 177.684C109.498 177.276 109.754 176.96 110.106 176.736C110.466 176.504 110.886 176.388 111.366 176.388C111.83 176.388 112.242 176.492 112.602 176.7C112.97 176.908 113.258 177.196 113.466 177.564C113.682 177.932 113.79 178.348 113.79 178.812V183H112.662V179.172C112.662 178.812 112.598 178.508 112.47 178.26C112.342 178.012 112.158 177.82 111.918 177.684C111.686 177.54 111.418 177.468 111.114 177.468C110.81 177.468 110.538 177.54 110.298 177.684C110.066 177.82 109.882 178.016 109.746 178.272C109.61 178.52 109.542 178.82 109.542 179.172V183H108.426ZM121.101 183.144C120.493 183.144 119.945 182.996 119.457 182.7C118.977 182.404 118.597 182 118.317 181.488C118.037 180.976 117.897 180.404 117.897 179.772C117.897 179.124 118.037 178.548 118.317 178.044C118.597 177.532 118.977 177.128 119.457 176.832C119.945 176.536 120.493 176.388 121.101 176.388C121.637 176.388 122.113 176.504 122.529 176.736C122.945 176.96 123.273 177.264 123.513 177.648L123.333 177.924V173.916H124.461V183H123.369V181.62L123.513 181.812C123.289 182.236 122.961 182.564 122.529 182.796C122.105 183.028 121.629 183.144 121.101 183.144ZM121.197 182.064C121.605 182.064 121.969 181.964 122.289 181.764C122.609 181.564 122.861 181.292 123.045 180.948C123.237 180.596 123.333 180.204 123.333 179.772C123.333 179.332 123.237 178.94 123.045 178.596C122.861 178.244 122.609 177.968 122.289 177.768C121.969 177.568 121.605 177.468 121.197 177.468C120.797 177.468 120.433 177.572 120.105 177.78C119.785 177.98 119.533 178.252 119.349 178.596C119.165 178.932 119.073 179.324 119.073 179.772C119.073 180.204 119.165 180.596 119.349 180.948C119.533 181.292 119.785 181.564 120.105 181.764C120.425 181.964 120.789 182.064 121.197 182.064ZM129.514 183.144C128.89 183.144 128.334 182.996 127.846 182.7C127.358 182.404 126.974 182 126.694 181.488C126.414 180.968 126.274 180.388 126.274 179.748C126.274 179.1 126.41 178.524 126.682 178.02C126.962 177.516 127.338 177.12 127.81 176.832C128.29 176.536 128.826 176.388 129.418 176.388C129.898 176.388 130.322 176.476 130.69 176.652C131.066 176.82 131.382 177.052 131.638 177.348C131.902 177.636 132.102 177.968 132.238 178.344C132.382 178.712 132.454 179.096 132.454 179.496C132.454 179.584 132.446 179.684 132.43 179.796C132.422 179.9 132.41 180 132.394 180.096H127.09V179.136H131.746L131.218 179.568C131.29 179.152 131.25 178.78 131.098 178.452C130.946 178.124 130.722 177.864 130.426 177.672C130.13 177.48 129.794 177.384 129.418 177.384C129.042 177.384 128.698 177.48 128.386 177.672C128.074 177.864 127.83 178.14 127.654 178.5C127.486 178.852 127.418 179.272 127.45 179.76C127.418 180.232 127.49 180.648 127.666 181.008C127.85 181.36 128.106 181.636 128.434 181.836C128.77 182.028 129.134 182.124 129.526 182.124C129.958 182.124 130.322 182.024 130.618 181.824C130.914 181.624 131.154 181.368 131.338 181.056L132.274 181.536C132.146 181.832 131.946 182.104 131.674 182.352C131.41 182.592 131.094 182.784 130.726 182.928C130.366 183.072 129.962 183.144 129.514 183.144ZM136.887 183.072C136.255 183.072 135.767 182.892 135.423 182.532C135.087 182.172 134.919 181.664 134.919 181.008V177.6H133.743V176.532H133.983C134.271 176.532 134.499 176.444 134.667 176.268C134.835 176.092 134.919 175.86 134.919 175.572V175.044H136.035V176.532H137.487V177.6H136.035V180.972C136.035 181.188 136.067 181.376 136.131 181.536C136.203 181.696 136.319 181.824 136.479 181.92C136.639 182.008 136.851 182.052 137.115 182.052C137.171 182.052 137.239 182.048 137.319 182.04C137.407 182.032 137.487 182.024 137.559 182.016V183C137.455 183.024 137.339 183.04 137.211 183.048C137.083 183.064 136.975 183.072 136.887 183.072ZM139.367 183V176.532H140.483V183H139.367ZM139.367 175.5V174.06H140.483V175.5H139.367ZM142.565 183V173.916H143.681V180.144L143.225 180.036L146.657 176.532H148.085L145.601 179.136L148.253 183H146.933L144.509 179.496L145.205 179.46L143.321 181.428L143.681 180.612V183H142.565ZM150.062 183V181.56H151.226V183H150.062Z" fill="#003327"/>
<path d="M255.068 69.3369C256.305 68.7944 257.733 68.9126 258.863 69.6513C259.994 70.3901 260.675 71.6495 260.675 73V73.5547L262.231 75.5332C269.995 76.2565 277.287 82.1075 284.769 91.3447C284.791 91.3726 284.813 91.4012 284.835 91.4297C295.188 104.942 295.698 120.756 296.309 126.25C296.554 128.461 297.834 132.472 300.349 136.024C302.83 139.529 306.169 142.131 310.409 142.608C313.278 142.932 315.576 143.214 317.347 143.509C319 143.784 320.636 144.132 321.897 144.753C322.563 145.081 323.457 145.643 324.131 146.621C324.888 147.72 325.1 148.953 324.959 150.066C324.835 151.041 324.456 151.833 324.174 152.34C323.877 152.875 323.523 153.381 323.208 153.808H323.207C322.333 154.994 321.052 155.735 320.114 156.19C319.051 156.707 317.801 157.148 316.467 157.514C313.788 158.248 310.438 158.768 306.841 158.889C299.772 159.126 290.927 157.837 284.291 152.645C281.272 150.282 278.652 147.824 276.429 145.46L277.681 156.105L280.761 159.604C281.861 159.53 282.986 159.907 283.835 160.739L285.416 162.29C287.461 162.593 289.075 163.695 290.107 164.626L290.372 164.873L290.419 164.919L290.609 165.108C290.644 165.142 290.677 165.178 290.71 165.213L290.893 165.408L290.933 165.451C291.534 166.114 292.029 166.804 292.384 167.422C293.278 168.977 293.028 170.937 291.772 172.218L279.496 184.728C278.753 185.485 277.739 185.916 276.678 185.926C275.617 185.936 274.596 185.523 273.839 184.78L273.441 184.39C272.702 185.38 271.529 186 270.238 186H252.712C250.503 186 248.712 184.209 248.712 182V179.902C248.712 179.056 248.704 177.167 249.566 175.305C250.554 173.171 252.433 171.538 255.202 170.794C255.598 170.687 255.989 170.616 256.371 170.569C256.424 169.95 256.623 169.026 257.311 168.137L257.313 168.134C257.901 167.374 259.154 166.315 261.02 166.357C261.02 166.357 261.251 166.359 261.522 166.389C261.796 166.418 262.176 166.481 262.605 166.623C262.624 166.629 262.643 166.637 262.662 166.644V151.563C258.84 154.72 254.06 157.307 248.215 158.436C229.731 162.003 223.439 159.843 220.758 157.545H220.757C220.326 157.175 219.829 156.599 219.53 155.777C219.221 154.927 219.223 154.084 219.395 153.369C219.485 152.993 219.618 152.661 219.768 152.375C218.315 151.423 217.174 149.965 216.65 148.136V148.135L199.921 89.6377C198.613 85.0647 201.804 80.4349 206.543 80.0293L207.905 79.9121C208.297 79.8134 208.701 79.7423 209.114 79.707H209.115L211.457 79.5078L211.471 79.5068L223.066 78.5595L225.236 78.3564H225.237C228.932 78.0112 232.331 80.3989 233.259 83.9922L239.852 109.535C240.18 109.837 240.472 110.189 240.718 110.589L240.72 110.593L243.285 114.779C243.427 114.876 243.592 114.987 243.779 115.105C244.561 115.6 245.645 116.196 246.883 116.648C246.902 116.656 246.923 116.662 246.942 116.669C247.508 113.319 247.741 109.869 247.509 106.421C246.742 95.0294 246.98 87.0411 247.333 83.0254L244.428 79.6543C243.599 78.693 243.276 77.3958 243.557 76.1582C243.837 74.9206 244.688 73.8896 245.851 73.3798L255.068 69.3369ZM247.457 77.0429L251.5 81.7334C251.123 84.2676 250.594 92.6983 251.5 106.152C251.851 111.371 251.236 116.528 250.063 121.328C248.451 121.286 246.902 120.915 245.509 120.405C243.933 119.829 242.591 119.086 241.641 118.485C241.167 118.186 240.794 117.924 240.542 117.738C240.437 117.661 240.353 117.596 240.292 117.549L237.31 112.683C237.114 112.364 236.763 112.198 236.414 112.223L229.386 84.9922C228.949 83.3007 227.349 82.1763 225.609 82.3388L223.44 82.542L211.796 83.4931L209.454 83.6923C209.161 83.7174 208.88 83.777 208.615 83.8662L206.885 84.0146C204.654 84.2052 203.151 86.3851 203.767 88.5381L220.496 147.035C221.104 149.162 223.485 150.224 225.474 149.256L238.968 142.687C239.246 142.552 239.499 142.382 239.726 142.188L241.005 141.565C240.087 142.86 239.204 143.952 238.4 144.804C233.064 150.464 222.229 153.537 223.36 154.508C224.492 155.478 229.021 158.066 247.457 154.508C256.556 152.752 262.797 146.923 266.662 141.211V172.297H262.541C262.539 172.291 262.536 172.285 262.533 172.279C262.314 171.775 262.057 171.226 261.862 170.851C261.606 170.358 261.054 170.359 260.929 170.356C260.721 170.352 260.56 170.473 260.475 170.583C260.364 170.726 260.351 170.893 260.354 170.996C260.356 171.088 260.395 171.17 260.412 171.207C260.436 171.257 260.468 171.312 260.503 171.368C260.574 171.482 260.673 171.624 260.793 171.788C260.946 171.996 261.139 172.247 261.362 172.531C260.948 172.468 260.617 172.474 260.44 172.498L260.324 172.514L260.246 172.599C260.181 172.669 260.142 172.769 260.153 172.876C260.163 172.968 260.205 173.034 260.233 173.07C260.288 173.141 260.363 173.192 260.419 173.226C260.543 173.3 260.727 173.38 260.96 173.463C261.279 173.576 261.723 173.703 262.205 173.838C262.129 173.897 262.079 173.989 262.079 174.093C262.079 174.271 262.224 174.416 262.402 174.416H262.499V175.037C262.396 175.037 262.391 175.037 262.388 175.037C262.209 175.037 262.065 175.182 262.065 175.36C262.065 175.539 262.209 175.683 262.388 175.684C262.388 175.684 262.395 175.683 262.499 175.684V177.148C261.551 176.012 258.971 173.923 256.24 174.657C252.826 175.575 252.712 178.198 252.712 179.902V182H270.238C270.367 181.542 270.481 180.887 270.499 180.164C270.534 178.748 270.198 177.072 268.872 176.1V172.297H268.603V138.011C268.885 137.488 269.148 136.974 269.39 136.471L271.998 158.641L278.569 166.105L276.598 168.113C276.592 168.111 276.587 168.109 276.581 168.107C276.068 167.911 275.495 167.71 275.091 167.586C274.559 167.424 274.173 167.819 274.084 167.906C273.935 168.051 273.909 168.251 273.928 168.389C273.952 168.567 274.063 168.694 274.139 168.765C274.206 168.827 274.292 168.857 274.33 168.87C274.383 168.888 274.444 168.905 274.509 168.919C274.639 168.948 274.811 168.977 275.012 169.006C275.267 169.043 275.582 169.08 275.94 169.12C275.606 169.372 275.378 169.611 275.271 169.755L275.201 169.849L275.207 169.964C275.212 170.06 275.256 170.156 275.34 170.224C275.412 170.281 275.489 170.297 275.534 170.303C275.623 170.313 275.712 170.296 275.775 170.279C275.915 170.243 276.101 170.168 276.323 170.06C276.628 169.911 277.029 169.684 277.463 169.434C277.452 169.529 277.484 169.629 277.558 169.702C277.685 169.827 277.89 169.825 278.015 169.697L278.082 169.628L278.525 170.062C278.452 170.137 278.449 170.141 278.447 170.143C278.322 170.27 278.325 170.475 278.452 170.601C278.58 170.725 278.784 170.723 278.909 170.596C278.909 170.596 278.914 170.591 278.987 170.517L280.032 171.542C278.557 171.423 275.259 171.801 273.87 174.265C272.134 177.344 273.927 179.262 275.144 180.456L276.641 181.926L288.916 169.416C288.709 169.055 288.385 168.596 287.971 168.14L287.788 167.944L287.598 167.755C286.622 166.816 285.268 166.009 283.747 166.258L281.033 163.595L279.932 164.717L273.855 157.812L270.907 132.755C271.029 132.387 271.138 132.037 271.231 131.705C272.686 134.724 277.829 142.508 286.756 149.494C297.915 158.227 317.723 154.507 319.987 151.435C322.251 148.362 321.443 147.877 309.961 146.583C298.479 145.289 292.98 132.513 292.333 126.691C291.686 120.869 291.201 106.315 281.66 93.8623C273.593 83.9012 266.752 79.285 260.233 79.4619L256.675 74.9404V73L247.457 77.0429ZM261.143 171.033C261.211 171.056 261.258 171.091 261.288 171.149C261.378 171.323 261.482 171.538 261.591 171.77C261.488 171.636 261.395 171.514 261.315 171.405C261.198 171.246 261.11 171.119 261.052 171.026C261.049 171.022 261.047 171.017 261.044 171.013C261.077 171.017 261.111 171.023 261.143 171.033ZM274.718 168.228C274.782 168.195 274.839 168.186 274.902 168.205C275.089 168.262 275.315 168.338 275.557 168.423C275.39 168.402 275.238 168.384 275.104 168.365C274.908 168.337 274.755 168.311 274.648 168.287C274.644 168.286 274.639 168.284 274.634 168.283C274.66 168.263 274.688 168.243 274.718 168.228ZM240.267 127.15C242.369 128.852 244.365 130.74 246.123 132.568C245.136 134.716 244.088 136.688 243.039 138.437C243.047 138.114 243.013 137.786 242.929 137.46L240.267 127.15ZM239.132 119.103C239.201 119.157 239.288 119.224 239.393 119.301C239.676 119.509 240.086 119.798 240.603 120.125C241.634 120.777 243.102 121.591 244.842 122.228C246.247 122.742 247.853 123.146 249.559 123.247C248.827 125.855 247.939 128.34 246.966 130.653C244.74 128.386 242.17 126.055 239.48 124.098L238.133 118.881L239.132 119.103Z" fill="white"/>
<path d="M203.767 88.5377C203.151 86.3846 204.654 84.2049 206.885 84.0145L223.06 82.6341C224.783 82.4871 226.362 83.6002 226.803 85.2724L240.852 138.581C241.285 140.224 240.496 141.944 238.968 142.687L225.474 149.256C223.485 150.224 221.104 149.162 220.496 147.035L203.767 88.5377Z" fill="#BDFF61"/>
<path d="M239.556 118.204L233.734 116.91M239.556 118.204L236.483 113.191M239.556 118.204C239.556 118.204 248.774 125.805 256.86 120.306" stroke="#976C00" stroke-width="1.94065" stroke-linecap="round" stroke-linejoin="round"/>
<path d="M267.633 134.131V180.059H258.576" stroke="#976C00" stroke-width="1.94065" stroke-linecap="round"/>
<path d="M269.693 130.734L272.927 158.227L283.319 170.033L277.174 177.148" stroke="#976C00" stroke-width="1.94065" stroke-linecap="round"/>
<path fill-rule="evenodd" clip-rule="evenodd" d="M256.676 74.9406L260.233 79.4616C256.508 79.5628 253.441 80.5958 251.501 81.7329L247.458 77.043L256.676 73V74.9406Z" fill="#976C00"/>
<path d="M281.66 93.862C291.202 106.315 291.687 120.869 292.334 126.691C292.981 132.513 298.479 145.289 309.961 146.583C321.444 147.877 322.252 148.362 319.988 151.435C317.724 154.507 297.914 158.227 286.756 149.494C277.829 142.508 272.686 134.724 271.231 131.705C269.452 138.12 262.206 151.661 247.458 154.507C229.021 158.065 224.493 155.478 223.361 154.507C222.229 153.537 233.064 150.464 238.401 144.804C243.738 139.144 252.633 122.972 251.501 106.153C250.595 92.6976 251.123 84.2665 251.501 81.7329C253.441 80.5958 256.508 79.5628 260.233 79.4616C266.753 79.2846 273.592 83.9007 281.66 93.862Z" fill="#FDCE25"/>
<path fill-rule="evenodd" clip-rule="evenodd" d="M211.797 83.4928L209.455 83.6927C207.229 83.8826 205.727 86.0518 206.332 88.2016L222.567 145.881C223.168 148.016 225.555 149.087 227.549 148.116L241.041 141.549C242.562 140.808 243.352 139.099 242.929 137.46L229.386 84.9919C228.949 83.3003 227.349 82.176 225.609 82.3387L223.441 82.5415C223.441 83.4032 222.789 84.125 221.931 84.2123L214.908 84.9275C213.687 85.0518 212.495 84.5022 211.797 83.4928Z" fill="#D0DBFF"/>
<path d="M211.797 83.4928C212.495 84.5022 213.687 85.0518 214.908 84.9275L221.931 84.2123C222.789 84.125 223.441 83.4032 223.441 82.5415L211.797 83.4928Z" fill="#BDFF61"/>
<path d="M225.633 82.5876C227.25 82.4365 228.738 83.4818 229.144 85.0544L242.687 137.523C243.08 139.046 242.346 140.636 240.932 141.324L227.44 147.891C225.586 148.794 223.366 147.798 222.808 145.813L206.573 88.1335C206.011 86.1349 207.407 84.1187 209.476 83.9421L211.678 83.7536C212.388 84.6962 213.512 85.2325 214.688 85.1931L214.934 85.1765L221.956 84.4607C222.864 84.3682 223.57 83.6564 223.675 82.7702L225.633 82.5876ZM223.163 82.8142C223.054 83.3784 222.613 83.8293 222.041 83.9431L221.906 83.9636L214.883 84.6784C213.905 84.7781 212.947 84.4094 212.288 83.7029L223.163 82.8142Z" stroke="#BDFF61" stroke-width="0.5"/>
<path d="M229.036 86L213.192 110.931L213.886 113.466L214.579 116L230.053 90.0548L229.036 86Z" fill="white"/>
<path d="M231.07 94.1096L215.779 120.387L216.242 122.082L231.579 96.137L231.07 94.1096Z" fill="white"/>
<path d="M215.502 110.825C215.336 110.28 215.672 109.71 216.229 109.592L231.399 106.386C231.905 106.279 232.406 106.587 232.538 107.087L233.776 111.766C233.913 112.284 233.604 112.815 233.086 112.952L218.318 116.859C217.814 116.993 217.294 116.703 217.142 116.204L215.502 110.825Z" fill="#547AF6"/>
<path d="M266.135 124.427L251.839 137.135C251.699 137.259 251.484 137.241 251.369 137.094C248.078 132.896 241.675 126.08 235.246 122.527M227.16 120.223C229.695 120.069 232.473 120.995 235.246 122.527M235.246 122.527C233.036 122.837 228.907 123.651 230.071 124.427C231.236 125.204 234.006 123.484 235.246 122.527Z" stroke="#976C00" stroke-width="1.94065" stroke-linecap="round"/>
<path d="M220.073 113.834L219.578 111.723L220.363 111.539C220.506 111.505 220.639 111.502 220.761 111.529C220.885 111.554 220.989 111.609 221.075 111.695C221.16 111.778 221.22 111.891 221.253 112.033C221.287 112.178 221.281 112.31 221.235 112.428C221.191 112.546 221.116 112.644 221.011 112.72L221.694 113.454L221.258 113.556L220.522 112.751L220.806 112.84L220.276 112.965L220.459 113.744L220.073 113.834ZM220.196 112.624L220.601 112.529C220.671 112.513 220.728 112.486 220.773 112.447C220.818 112.407 220.848 112.359 220.865 112.303C220.882 112.247 220.883 112.187 220.868 112.123C220.852 112.057 220.825 112.003 220.785 111.963C220.745 111.92 220.697 111.892 220.64 111.877C220.582 111.861 220.518 111.861 220.448 111.878L220.043 111.973L220.196 112.624ZM222.057 113.369L221.562 111.257L222.964 110.928L223.044 111.268L222.027 111.507L222.154 112.048L223.115 111.823L223.194 112.163L222.234 112.388L222.363 112.938L223.38 112.7L223.46 113.04L222.057 113.369ZM223.853 112.947L223.357 110.836L224.145 110.651C224.289 110.618 224.421 110.614 224.543 110.641C224.667 110.666 224.772 110.721 224.857 110.807C224.943 110.891 225.002 111.003 225.035 111.145C225.068 111.285 225.064 111.412 225.023 111.527C224.984 111.64 224.916 111.736 224.819 111.815C224.722 111.893 224.601 111.949 224.458 111.983L224.055 112.078L224.238 112.857L223.853 112.947ZM223.975 111.738L224.384 111.642C224.453 111.625 224.511 111.598 224.556 111.56C224.6 111.519 224.631 111.471 224.647 111.415C224.664 111.36 224.665 111.3 224.65 111.235C224.634 111.169 224.607 111.116 224.568 111.075C224.528 111.033 224.479 111.004 224.422 110.99C224.364 110.974 224.3 110.974 224.231 110.99L223.822 111.086L223.975 111.738ZM226.849 112.28C226.694 112.317 226.543 112.323 226.396 112.3C226.249 112.276 226.114 112.227 225.99 112.153C225.867 112.078 225.762 111.981 225.674 111.862C225.588 111.741 225.527 111.603 225.49 111.448C225.453 111.291 225.447 111.14 225.471 110.995C225.494 110.85 225.545 110.716 225.622 110.595C225.699 110.473 225.798 110.37 225.92 110.286C226.041 110.199 226.18 110.138 226.337 110.101C226.494 110.064 226.646 110.057 226.793 110.081C226.94 110.104 227.075 110.153 227.198 110.228C227.321 110.301 227.425 110.397 227.511 110.516C227.599 110.635 227.661 110.773 227.698 110.93C227.734 111.085 227.74 111.236 227.715 111.383C227.689 111.529 227.638 111.663 227.56 111.784C227.483 111.906 227.384 112.01 227.263 112.096C227.144 112.182 227.005 112.243 226.849 112.28ZM226.766 111.929C226.87 111.904 226.961 111.864 227.04 111.808C227.118 111.75 227.181 111.68 227.23 111.599C227.281 111.517 227.312 111.427 227.325 111.328C227.34 111.229 227.334 111.127 227.31 111.021C227.285 110.915 227.244 110.822 227.187 110.742C227.132 110.659 227.063 110.592 226.982 110.542C226.902 110.489 226.814 110.454 226.719 110.439C226.623 110.423 226.524 110.428 226.42 110.452C226.318 110.476 226.227 110.516 226.149 110.573C226.07 110.629 226.006 110.699 225.956 110.782C225.907 110.864 225.876 110.954 225.861 111.053C225.846 111.15 225.851 111.252 225.876 111.357C225.9 111.463 225.941 111.557 225.999 111.64C226.056 111.722 226.124 111.788 226.204 111.839C226.286 111.89 226.374 111.924 226.47 111.941C226.565 111.957 226.664 111.953 226.766 111.929ZM228.399 111.881L227.903 109.769L228.688 109.585C228.832 109.551 228.965 109.548 229.087 109.575C229.21 109.6 229.315 109.655 229.401 109.741C229.486 109.824 229.545 109.937 229.579 110.079C229.613 110.224 229.607 110.356 229.561 110.475C229.517 110.593 229.442 110.69 229.336 110.767L230.02 111.5L229.583 111.603L228.847 110.798L229.131 110.886L228.601 111.011L228.784 111.79L228.399 111.881ZM228.522 110.671L228.927 110.576C228.997 110.559 229.054 110.532 229.099 110.493C229.143 110.453 229.174 110.405 229.191 110.349C229.207 110.293 229.208 110.233 229.193 110.169C229.178 110.103 229.15 110.05 229.111 110.009C229.071 109.967 229.022 109.938 228.965 109.924C228.908 109.907 228.844 109.907 228.774 109.924L228.369 110.019L228.522 110.671ZM230.701 111.34L230.286 109.569L229.739 109.697L229.659 109.357L231.133 109.011L231.212 109.352L230.674 109.478L231.09 111.249L230.701 111.34Z" fill="white"/>
<path d="M262.684 173.568C262.588 173.167 261.956 171.733 261.576 171C261.417 170.694 261.07 170.683 260.922 170.68C260.847 170.678 260.775 170.724 260.731 170.781C260.687 170.837 260.675 170.914 260.677 170.987C260.682 171.129 261.226 171.848 262.032 172.855C262.362 173.268 262.524 173.334 262.731 173.413C262.851 173.458 263.014 173.484 262.92 173.427C261.864 172.79 260.812 172.773 260.483 172.818C260.432 172.874 260.614 172.997 261.068 173.158C261.523 173.32 262.243 173.517 262.986 173.72" stroke="#00664E" stroke-width="0.646884" stroke-linecap="round"/>
<path fill-rule="evenodd" clip-rule="evenodd" d="M252.712 179.902C252.712 178.197 252.826 175.575 256.24 174.657C256.923 175.094 258.084 176.807 257.264 180.164H270.499C270.481 180.887 270.367 181.542 270.239 182H252.712V179.902Z" fill="#00664E"/>
<path d="M268.873 172.297V176.099C270.199 177.071 270.534 178.748 270.499 180.164H257.264C258.084 176.807 256.923 175.094 256.24 174.657C258.972 173.923 261.551 176.012 262.5 177.148V172.297H268.873Z" fill="#BDFF61"/>
<path d="M262.403 174.093H263.862" stroke="#00664E" stroke-width="0.646884" stroke-linecap="round"/>
<path d="M262.388 175.361C262.391 175.361 262.393 175.361 262.556 175.361C262.719 175.362 263.042 175.363 263.321 175.38C263.601 175.397 263.827 175.43 264.069 175.455" stroke="#00664E" stroke-width="0.646884" stroke-linecap="round"/>
<path d="M277.606 168.903C277.253 168.69 275.787 168.137 274.997 167.895C274.668 167.795 274.416 168.034 274.31 168.138C274.257 168.19 274.239 168.274 274.249 168.345C274.259 168.415 274.305 168.478 274.359 168.527C274.463 168.624 275.358 168.739 276.641 168.869C277.166 168.922 277.327 168.853 277.528 168.761C277.645 168.707 277.777 168.608 277.67 168.636C276.476 168.943 275.728 169.682 275.53 169.948C275.534 170.024 275.749 169.98 276.182 169.769C276.616 169.558 277.261 169.181 277.927 168.793" stroke="#00664E" stroke-width="0.646884" stroke-linecap="round"/>
<path fill-rule="evenodd" clip-rule="evenodd" d="M275.144 180.457C273.927 179.263 272.135 177.345 273.871 174.265C274.661 174.084 276.697 174.455 278.519 177.391L287.788 167.944C288.292 168.463 288.679 169.003 288.916 169.416L276.641 181.926L275.144 180.457Z" fill="#00664E"/>
<path d="M281.033 163.595L283.748 166.258C285.37 165.992 286.802 166.928 287.788 167.944L278.519 177.391C276.697 174.455 274.661 174.084 273.871 174.265C275.26 171.801 278.558 171.423 280.033 171.542L276.57 168.144L281.033 163.595Z" fill="#BDFF61"/>
<path d="M277.784 169.471L278.806 168.429" stroke="#00664E" stroke-width="0.646884" stroke-linecap="round"/>
<path d="M278.678 170.369C278.68 170.368 278.682 170.366 278.797 170.25C278.911 170.134 279.138 169.904 279.346 169.717C279.554 169.529 279.736 169.391 279.923 169.235" stroke="#00664E" stroke-width="0.646884" stroke-linecap="round"/>
<path d="M289.579 128C289.579 129.142 289.72 131.933 291.41 136.08C292.126 137.839 293.35 139.704 294.573 141.096C294.973 141.462 295.551 141.958 296.431 142.666C297.311 143.374 298.476 144.278 299.676 145.21" stroke="#CCA000" stroke-width="0.64" stroke-linecap="round"/>
<path d="M262.586 141C262.294 141.257 259.992 145.595 256.117 148.601C253.206 150.859 251.427 151.188 248.341 152.037C246.182 152.631 245.377 152.447 244.868 152.659C244.565 152.77 244.171 152.888 243.579 153.01" stroke="#CCA000" stroke-width="0.64" stroke-linecap="round"/>
<path opacity="0.8" d="M263.505 83.3687C263.82 83.384 264.974 83.657 268.969 86.2454C270.747 87.5313 271.642 88.2539 272.331 88.9716C272.877 89.5425 273.822 90.5332 274.818 91.5662" stroke="white" stroke-width="1.92135" stroke-linecap="round"/>
<path fill-rule="evenodd" clip-rule="evenodd" d="M258.671 100.832C255.244 101.182 253.948 103.264 253.187 105.937C252.996 106.605 253.036 107.362 253.572 107.625C254.428 108.045 255.308 107.79 256.377 107.48C256.734 107.376 257.111 107.267 257.516 107.175C257.234 106.515 257.181 105.752 257.42 105.014C257.943 103.399 259.668 102.51 261.273 103.03C262.877 103.55 263.754 105.28 263.231 106.896C263.114 107.255 262.938 107.579 262.718 107.859C262.927 107.928 263.136 107.999 263.343 108.069C263.667 108.179 263.987 108.288 264.3 108.389C266.362 109.057 268.128 107.439 267.144 104.723C266.16 102.006 262.098 100.482 258.671 100.832Z" fill="white"/>
<path d="M261.273 103.03C259.668 102.51 257.943 103.399 257.42 105.014C257.181 105.752 257.234 106.515 257.516 107.175C257.671 107.139 257.831 107.106 257.995 107.077C259.399 106.826 261.089 107.316 262.718 107.859C262.938 107.579 263.114 107.255 263.231 106.896C263.754 105.28 262.877 103.55 261.273 103.03Z" fill="#343434"/>
<path d="M253.521 120.223C255.03 120.384 258.696 119.996 261.283 117.15" stroke="black" stroke-width="0.970326" stroke-linecap="round"/>
<path d="M230.579 124C230.58 124 230.581 124 230.988 123.847C231.396 123.694 232.208 123.388 232.71 123.218C233.212 123.048 233.379 123.024 233.579 123" stroke="white" stroke-width="0.160112" stroke-linecap="round"/>
</svg>
