<svg width="191" height="275" viewBox="0 0 191 275" fill="none" xmlns="http://www.w3.org/2000/svg">
<path d="M51.2026 78.9572C67.5414 71.8911 95.5521 75.7052 118.611 118.115C120.57 121.64 123.642 128.586 126.462 137.928C127.402 141.042 128.314 144.422 129.148 148.03C129.548 149.762 129.93 151.547 130.288 153.38C130.474 158.268 128.235 168.023 118.365 171.157C117.373 171.343 116.36 171.577 115.332 171.862C113.228 172.447 111.063 173.251 108.887 174.323C96.8103 175.116 82.9547 157.684 76.7119 147.272L53.6867 109.186C43.9598 94.9698 47.9777 83.11 51.2026 78.9572Z" fill="#FFF4CC"/>
<path d="M92.0266 189.745C91.0897 188.202 89.5666 186.126 87.5413 183.92C82.997 178.972 75.9242 173.375 67.2696 171.697C67.5588 168.607 67.0644 162.254 64.6097 153.334C64.4608 152.793 64.3048 152.243 64.1413 151.683C63.5683 149.723 62.9037 147.648 62.1361 145.467C59.6592 138.427 56.1101 130.271 51.1097 121.222C36.8227 95.3687 41.2262 85.1273 45.5936 81.5096C47.1948 80.5725 49.0798 79.6948 51.2026 78.9572C47.9777 83.11 43.9598 94.9698 53.6867 109.186L76.7119 147.272C82.9547 157.684 96.8103 175.116 108.887 174.323C104.079 176.691 99.2165 180.366 94.8247 185.877C93.8678 187.077 92.9333 188.365 92.0266 189.745Z" fill="#E5D693"/>
<path d="M131.818 162.639C132.134 164.978 132.405 167.376 132.62 169.825C132.671 170.404 132.719 170.986 132.764 171.57C129.475 170.583 124.275 170.045 118.365 171.157C128.235 168.023 130.474 158.268 130.288 153.38C130.868 156.345 131.386 159.437 131.818 162.639Z" fill="#E5D693"/>
<path d="M77.3036 186.451C88.4854 189.136 91.778 189.766 92.0266 189.745C97.5736 188.727 110.583 190.811 118.244 207.299C120.743 212.675 123.636 218.67 126.84 224.235C125.194 228.736 121.759 234.824 116.291 240.868C115.309 239.887 114.145 238.653 112.86 237.209C105.947 229.433 95.5578 215.544 91.5313 201.986C88.0634 207.088 78.9486 217.698 70.2324 219.315C71.924 209.583 71.9361 198.8 68.6119 188.031C71.1983 186.411 74.1094 185.684 77.3036 186.451Z" fill="#DBAC00"/>
<path d="M70.2324 219.315C78.9486 217.698 88.0634 207.088 91.5313 201.986C95.5578 215.544 105.947 229.433 112.86 237.209C106.851 245.711 87.8677 261.56 60.0104 256.942L57.5008 251.523C61.9465 245.024 67.8106 233.247 70.2324 219.315Z" fill="#FDCE25"/>
<path d="M116.291 240.868C106.084 252.15 88.7912 263.282 62.8148 263.656L60.0104 256.942C87.8677 261.56 106.851 245.711 112.86 237.209C114.145 238.653 115.309 239.887 116.291 240.868Z" fill="#DBAC00"/>
<path d="M43.1144 252.325C45.6198 253.12 51.8363 254.311 56.6601 252.713C56.9336 252.339 57.2142 251.942 57.5008 251.523L60.0104 256.942C57.541 261.639 51.7771 270.525 46.9928 271.684C46.3591 261.802 41.4794 258.132 39.1187 257.533C40.0921 255.765 41.3945 253.96 43.1144 252.325Z" fill="#976C00"/>
<path d="M62.8148 263.656C59.9729 268.003 53.4955 273.85 45.6528 271.794C46.0881 271.834 46.536 271.794 46.9928 271.684C51.7771 270.525 57.541 261.639 60.0104 256.942L62.8148 263.656Z" fill="#5E4301"/>
<path d="M45.6528 271.794C42.759 271.035 39.6793 269.2 36.5278 265.817C36.5978 264.167 37.2546 260.919 39.1187 257.533C41.4794 258.132 46.3591 261.802 46.9928 271.684C46.536 271.794 46.0881 271.834 45.6528 271.794Z" fill="#5E4301"/>
<path d="M118.244 207.299C110.583 190.811 97.5736 188.727 92.0266 189.745C92.9333 188.365 93.8678 187.077 94.8247 185.877C99.8256 183.238 111.873 182.296 120.055 199.642C130.283 221.324 147.304 255.775 161.687 230.381C161.081 233.636 160.232 236.016 159.563 237.312C147.478 252.317 135.917 240.003 126.84 224.235C123.636 218.67 120.743 212.675 118.244 207.299Z" fill="#FDCE25"/>
<path d="M55.9504 207.538C53.9805 214.019 49.3397 228.502 46.5365 234.588C45.613 236.593 44.0425 238.026 42.3404 238.338C46.7993 226.362 45.0531 227.953 48.8152 212.066C51.8248 199.356 53.449 194.605 53.8848 193.818C62.4803 175.995 79.9039 179.793 87.5413 183.92C89.5666 186.126 91.0897 188.202 92.0266 189.745C91.778 189.766 88.4854 189.136 77.3036 186.451C74.1094 185.684 71.1983 186.411 68.6119 188.031C62.1441 192.082 57.7067 201.718 55.9504 207.538Z" fill="#FDCE25"/>
<path d="M175.206 210.688C174.361 211.07 171.023 208.667 164.426 195.996C156.18 180.156 145.534 169.089 139.488 175.745C137.423 174.282 135.186 172.889 132.764 171.57C132.719 170.986 132.671 170.404 132.62 169.825C136.956 167.239 147.94 164.767 157.183 175.569C159.457 178.386 164.686 185.914 167.412 193.498C170.137 201.082 174.33 206.193 176.086 207.8C175.97 208.939 175.684 209.914 175.206 210.688Z" fill="#FDCE25"/>
<path d="M139.488 175.745C153.001 185.314 159.146 197.844 161.596 211.807C162.922 219.364 162.549 225.756 161.687 230.381C147.304 255.775 130.283 221.324 120.055 199.642C111.873 182.296 99.8256 183.238 94.8247 185.877C99.2165 180.366 104.079 176.691 108.887 174.323C110.398 172.162 112.085 172.129 115.332 171.862C116.333 171.299 117.425 171.455 118.365 171.157C124.275 170.045 129.475 170.583 132.764 171.57C135.186 172.889 137.423 174.282 139.488 175.745Z" fill="#FFF4CC"/>
<path d="M36.227 202.777C41.0348 171.751 58.9253 169.129 67.2696 171.697C75.9242 173.375 82.997 178.972 87.5413 183.92C79.9039 179.793 62.4803 175.995 53.8848 193.818C53.449 194.605 51.8248 199.356 48.8152 212.066C45.0531 227.953 46.7993 226.362 42.3404 238.338C37.5848 239.211 31.8013 231.338 36.227 202.777Z" fill="#FFF4CC"/>
<path d="M131.818 162.639C135.647 158.883 145.615 153.922 154.862 164.123C165.229 175.56 177.096 197.896 176.086 207.8C174.33 206.193 170.137 201.082 167.412 193.498C164.686 185.914 159.457 178.386 157.183 175.569C147.94 164.767 136.956 167.239 132.62 169.825C132.405 167.376 132.134 164.978 131.818 162.639Z" fill="#FFF4CC"/>
<path d="M42.7709 159.07C50.923 159.602 59.0777 150.223 62.1361 145.467C62.9037 147.648 63.5683 149.723 64.1413 151.683C57.8205 158.584 43.4107 170.054 36.3377 160.725C34.8131 159.099 31.9435 154.78 32.6616 150.516C33.4605 149.514 34.0273 148.484 34.333 147.751C37.2793 158.02 41.1859 159.576 42.7709 159.07Z" fill="#FFF4CC"/>
<path d="M126.462 137.928C134.153 141.801 148.737 144.394 145.541 123.785C146.257 125.102 148.772 127.386 153.108 125.978C155.223 135.94 153.393 154.296 129.148 148.03C128.314 144.422 127.402 141.042 126.462 137.928Z" fill="#FFF4CC"/>
<path d="M47.7789 167.48C36.738 171.991 29.5393 160.22 27.32 153.771C29.5946 153.584 31.412 152.084 32.6616 150.516C31.9435 154.78 34.8131 159.099 36.3377 160.725C43.4107 170.054 57.8205 158.584 64.1413 151.683C64.3048 152.243 64.4608 152.793 64.6097 153.334C61.9235 159.261 52.2699 165.234 47.7789 167.48Z" fill="#E5D693"/>
<path d="M18.6299 105.122C19.9094 104.704 22.5291 105.064 22.7722 109.849C22.2358 112.459 22.2 118.418 26.3474 121.38C30.8394 124.589 33.5693 128.647 33.1518 134.522C32.4244 136.709 30.0559 141.384 26.4008 142.585C26.5804 144.009 26.01 147.422 22.2915 149.679C21.2928 150.067 20.0879 150.401 18.7995 150.581C12.0444 148.776 17.2403 145.312 20.6827 143.806C15.095 145.243 12.3069 143.9 11.6114 143.049C9.60306 138.71 17.1899 137.085 21.2344 136.816C19.9864 136.856 16.4597 136.27 12.3368 133.605C8.21386 130.941 15.8833 129.56 20.2334 129.203C10.0843 128.122 9.36747 124.119 10.2776 122.252L21.8245 123.441C13.9464 122.587 11.9186 115.121 11.8894 111.494C12.6178 108.829 14.5681 106.418 18.6299 105.122Z" fill="white"/>
<path d="M7.18811 139.471C5.16462 138.449 2.28424 135.07 6.95073 129.731C5.49698 127.896 4.51093 124.185 10.2776 122.252C9.36747 124.119 10.0843 128.122 20.2334 129.203C15.8833 129.56 8.21386 130.941 12.3368 133.605C16.4597 136.27 19.9864 136.856 21.2344 136.816C17.1899 137.085 9.60306 138.71 11.6114 143.049C12.3069 143.9 15.095 145.243 20.6827 143.806C17.2403 145.312 12.0444 148.776 18.7995 150.581C13.7524 151.286 7.42399 149.62 7.18811 139.471Z" fill="#DEDBF3"/>
<path d="M33.1518 134.522C33.0875 135.428 32.9483 136.377 32.7293 137.373C33.1653 137.553 33.6466 137.825 34.1102 138.188C34.1086 141.194 31.9663 148.134 23.4099 151.84C22.9562 151.28 22.5635 150.571 22.2915 149.679C26.01 147.422 26.5804 144.009 26.4008 142.585C30.0559 141.384 32.4244 136.709 33.1518 134.522Z" fill="#DEDBF3"/>
<path d="M34.333 147.751C34.0273 148.484 33.4605 149.514 32.6616 150.516C31.412 152.084 29.5946 153.584 27.32 153.771C26.4023 153.8 24.6707 153.396 23.4099 151.84C31.9663 148.134 34.1086 141.194 34.1102 138.188C36.0573 139.715 37.6913 142.867 34.333 147.751Z" fill="white"/>
<path d="M173.535 96.7092C176.107 97.5613 180.052 100.19 175.251 103.888C173.897 105.689 170.022 109.235 165.35 109.019C160.677 108.802 155.983 113.042 154.22 115.189C152.259 116.726 148.618 118.014 149.735 110.865C150.203 109.7 152.268 107.428 156.792 107.657C155.607 106.941 153.355 105.124 153.829 103.584L154.095 97.6786C161.013 93.7684 172.901 88.996 173.535 96.7092Z" fill="white"/>
<path d="M156.748 91.1441C156.752 92.7079 155.975 96.3504 152.841 98.4098C153.236 98.1718 153.655 97.9269 154.095 97.6786L153.829 103.584C153.355 105.124 155.607 106.941 156.792 107.657C152.268 107.428 150.203 109.7 149.735 110.865C148.618 118.014 152.259 116.726 154.22 115.189C155.983 113.042 160.677 108.802 165.35 109.019C170.022 109.235 173.897 105.689 175.251 103.888C175.347 105.82 173.827 109.861 166.979 110.574C165.316 110.898 160.738 112.739 155.724 117.505C156.341 118.353 156.972 119.626 157.107 120.958C153.82 122.729 146.665 124.218 144.339 116.001C142.609 114.31 140.414 111.34 139.491 107.953C146.59 109.021 148.58 101.845 148.688 98.1229C153.782 96.1508 154.334 88.4117 153.974 84.7887C156.53 86.0091 156.922 89.3708 156.748 91.1441Z" fill="#DEDBF3"/>
<path d="M142.076 97.6052C144.444 95.9716 148.803 91.7595 147.291 87.9797C147.365 86.5972 148.498 83.939 152.437 84.3661C153.02 84.4293 153.53 84.5767 153.974 84.7887C154.334 88.4117 153.782 96.1508 148.688 98.1229C148.58 101.845 146.59 109.021 139.491 107.953C138.586 104.633 138.903 100.913 142.076 97.6052Z" fill="white"/>
<path d="M153.108 125.978C148.772 127.386 146.257 125.102 145.541 123.785C143.782 122.929 141.078 120.173 144.339 116.001C146.665 124.218 153.82 122.729 157.107 120.958C157.3 122.871 156.47 124.905 153.108 125.978Z" fill="white"/>
<path fill-rule="evenodd" clip-rule="evenodd" d="M103.961 119.95C106.948 125.836 110.133 137.95 98.9835 139.316C88.357 140.619 82.252 131.24 80.2377 125.711C80.3531 125.553 80.4717 125.4 80.5927 125.252C84.2249 126.949 93.0309 127.912 103.961 119.95ZM105.92 132.365C104.657 131.467 101.697 130.309 99.954 132.855C99.6842 133.378 98.8993 134.18 97.9186 133.21C97.2891 132.708 96.1002 132.29 94.6956 132.818C93.5604 133.244 92.2842 134.287 91.0486 136.402C93.2134 137.782 97.0006 139.199 100.39 138.155C102.582 137.48 104.608 135.775 105.92 132.365Z" fill="black"/>
<path d="M91.0486 136.402C92.2842 134.287 93.5604 133.244 94.6956 132.818C93.9984 133.469 92.5539 135.077 92.3537 136.295C92.7147 136.882 94.8274 138.076 100.39 138.155C97.0006 139.199 93.2134 137.782 91.0486 136.402Z" fill="#EC8D89"/>
<path d="M99.954 132.855C101.697 130.309 104.657 131.467 105.92 132.365C104.608 135.775 102.582 137.48 100.39 138.155C94.8274 138.076 92.7147 136.882 92.3537 136.295C92.5539 135.077 93.9984 133.469 94.6956 132.818C96.1002 132.29 97.2891 132.708 97.9186 133.21C98.8993 134.18 99.6842 133.378 99.954 132.855Z" fill="#FF7575"/>
<path d="M78.5348 130.298C77.8853 127.724 78.0497 122.568 83.9031 122.537C83.0382 122.962 81.7122 123.883 80.5927 125.252C80.393 125.503 80.393 125.503 80.393 125.503C80.393 125.503 80.393 125.503 80.2377 125.711C79.3428 126.939 78.6439 128.478 78.5348 130.298Z" fill="black"/>
<path d="M83.275 114.893C79.3531 112.088 70.59 108.991 66.9123 119.053C68.6762 116.156 74.4182 111.267 83.275 114.893Z" fill="black"/>
<path d="M66.9123 119.053C68.6762 116.156 74.4182 111.267 83.275 114.893C79.1956 113.978 70.5935 114.059 68.82 121.712L68.202 118.76L66.9123 119.053Z" fill="black"/>
<path d="M94.6956 132.818C96.1002 132.29 97.2891 132.708 97.9186 133.21C98.8993 134.18 99.6842 133.378 99.954 132.855C101.697 130.309 104.657 131.467 105.92 132.365C104.608 135.775 102.582 137.48 100.39 138.155M94.6956 132.818C93.5604 133.244 92.2842 134.287 91.0486 136.402C93.2134 137.782 97.0006 139.199 100.39 138.155M94.6956 132.818C93.9984 133.469 92.5539 135.077 92.3537 136.295C92.7147 136.882 94.8274 138.076 100.39 138.155M83.275 114.893C79.3531 112.088 70.59 108.991 66.9123 119.053M83.275 114.893C74.4182 111.267 68.6762 116.156 66.9123 119.053M83.275 114.893C79.1956 113.978 70.5935 114.059 68.82 121.712L68.202 118.76L66.9123 119.053M80.2377 125.711C82.252 131.24 88.357 140.619 98.9835 139.316C110.133 137.95 106.948 125.836 103.961 119.95C93.0309 127.912 84.2249 126.949 80.5927 125.252M80.2377 125.711C80.3531 125.553 80.4717 125.4 80.5927 125.252M80.2377 125.711C79.3428 126.939 78.6439 128.478 78.5348 130.298C77.8853 127.724 78.0497 122.568 83.9031 122.537C83.0382 122.962 81.7122 123.883 80.5927 125.252M80.2377 125.711C80.393 125.503 80.393 125.503 80.393 125.503C80.393 125.503 80.393 125.503 80.5927 125.252" stroke="#5E4301" stroke-width="0.374122"/>
<path d="M90.4383 97.7674C88.7117 98.757 87.6943 100.641 87.4664 102.916C87.2386 105.191 87.8038 107.841 89.2251 110.321C90.6463 112.8 92.6468 114.627 94.7248 115.58C96.8033 116.534 98.9434 116.609 100.67 115.619C102.397 114.63 103.414 112.745 103.641 110.47C103.869 108.195 103.304 105.545 101.883 103.066C100.462 100.586 98.4612 98.759 96.3831 97.8056C94.3046 96.8522 92.1649 96.7778 90.4383 97.7674Z" fill="#FFFDFF" stroke="#5E4301" stroke-width="0.374122"/>
<path d="M91.6668 101.025C90.3363 101.788 89.5523 103.24 89.3767 104.993C89.2012 106.746 89.6361 108.788 90.7313 110.699C91.8265 112.61 93.3686 114.017 94.9699 114.752C96.5716 115.487 98.2206 115.544 99.5512 114.782C100.882 114.019 101.666 112.567 101.841 110.814C102.017 109.061 101.581 107.019 100.486 105.108C99.3907 103.198 97.8493 101.79 96.2481 101.055C94.6465 100.32 92.9973 100.263 91.6668 101.025Z" fill="#120809" stroke="#5E4301" stroke-width="0.288297"/>
<path d="M95.145 101.989C94.8389 102.239 94.7008 102.641 94.7299 103.094C94.7591 103.547 94.9559 104.049 95.3149 104.489C95.6739 104.928 96.1254 105.221 96.5635 105.34C97.0017 105.46 97.4233 105.405 97.7295 105.155C98.0357 104.905 98.1738 104.503 98.1446 104.05C98.1154 103.596 97.9191 103.096 97.5602 102.656C97.2012 102.216 96.7492 101.923 96.311 101.804C95.8729 101.684 95.4511 101.739 95.145 101.989Z" fill="#FFFDFE" stroke="#5E4301" stroke-width="0.0743111"/>
<path d="M119.347 13.6578C119.914 10.7418 124.086 10.7418 124.653 13.6578L126.043 20.8191C126.253 21.9007 127.099 22.7464 128.181 22.9565L135.342 24.3474C138.258 24.9137 138.258 29.0863 135.342 29.6526L128.181 31.0435C127.099 31.2536 126.253 32.0993 126.043 33.181L124.653 40.3422C124.086 43.2582 119.914 43.2582 119.347 40.3422L117.956 33.1809C117.746 32.0993 116.901 31.2536 115.819 31.0435L108.658 29.6526C105.742 29.0863 105.742 24.9137 108.658 24.3474L115.819 22.9565C116.901 22.7464 117.746 21.9007 117.956 20.8191L119.347 13.6578Z" fill="#FDCE25"/>
</svg>
