<svg width="1440" height="481" viewBox="0 0 1440 481" fill="none" xmlns="http://www.w3.org/2000/svg">
<path d="M988.526 165.294C1005.65 186.997 977.245 217.914 960.903 230.659C970.632 225.314 989.902 220.048 989.152 241.746C988.402 263.443 960.132 274.983 946.091 278.04C994.574 284.007 1036.77 294.665 1051.8 299.247C1039.58 291.903 1022.08 257.467 1037.9 243.171C1050.55 231.735 1061.73 238.71 1065.74 243.628C1061.57 231.894 1063.39 212.142 1064.82 203.733C1066.72 195.003 1073.43 177.36 1084.99 176.633C1096.55 175.905 1101.44 193.075 1102.44 201.75C1106.4 191.6 1108.69 178.145 1109.34 172.687C1111.63 153.275 1099.91 143.546 1093.77 141.109C1082.85 136.003 1067.8 140.603 1061.65 143.541C1045.05 149.741 1030.95 168.385 1025.98 176.931C1032.88 163.796 1041.3 135.234 1019.75 126.073C998.197 116.912 978.997 140.934 972.091 154.09C977.875 155.549 983.541 158.974 988.526 165.294Z" fill="#3C6600"/>
<path fill-rule="evenodd" clip-rule="evenodd" d="M1146.29 110.38C1123.06 127.7 1109.19 190.447 1105.16 219.656C1107.5 210.804 1115.7 189.068 1129.77 172.942C1135.15 166.543 1149.82 155.996 1165.45 164.996C1181.07 173.996 1167.69 207.632 1159.05 223.325C1173.44 209.992 1204.44 188.476 1213.33 209.074C1222.23 229.671 1191.32 264.774 1174.75 279.751C1181.36 279.797 1195.74 282.846 1200.39 294.673C1206.2 309.457 1194.33 325.763 1173.92 328.614L1201.42 333.97C1203.75 322.012 1213.29 295.324 1232.83 284.235C1236.52 282.265 1245.39 279.608 1251.35 284.739C1258.79 291.152 1251.49 312.692 1238.54 328.168C1245.13 324.073 1259.09 317.647 1262.18 324.703C1266.05 333.524 1256.06 343.37 1239.35 346.321C1279.23 342.297 1297.96 313.054 1296.16 287.26C1294.71 266.624 1278.25 259.157 1270.2 258.004C1277.47 253.626 1288.34 240.064 1273.72 220.834C1259.1 201.603 1229.57 214.925 1216.63 223.99C1233.22 197.433 1222.44 182.507 1214.97 178.364C1231.25 153.195 1256.12 100.244 1225.39 89.7913C1194.66 79.3387 1159.86 99.1621 1146.29 110.38ZM1181.17 179.849C1183.59 185.284 1181.66 191.116 1180.4 193.352C1186.21 189.022 1188.51 181.485 1188.93 178.257C1189.15 174.991 1188.31 168.703 1183.15 169.685C1177.99 170.667 1179.68 176.87 1181.17 179.849ZM1188.06 195.464C1192.8 188.113 1202.96 175.653 1205.68 184.623C1208.4 193.593 1195.07 195.588 1188.06 195.464Z" fill="#3C6600"/>
<path fill-rule="evenodd" clip-rule="evenodd" d="M1105.16 219.656C1103.98 212.972 1102.85 204.934 1102.44 201.75C1101.44 193.075 1096.55 175.905 1084.99 176.633C1073.43 177.36 1066.72 195.003 1064.82 203.733C1063.39 212.142 1061.57 231.894 1065.74 243.628C1061.73 238.71 1050.55 231.735 1037.9 243.171C1022.08 257.467 1039.58 291.903 1051.8 299.247C1057.26 301.8 1074.81 306.418 1082.91 308.408C1084.75 309.644 1087.76 310.882 1091.5 312.083C1086.67 299.719 1079.13 270.439 1087.64 252.238C1089.57 248.684 1095.18 241.544 1102.16 241.413C1109.14 241.282 1110.53 251.525 1110.36 256.662C1110.3 261.202 1109.4 274.347 1106.23 290.61C1107.97 287.017 1112.84 278.989 1118.46 275.615C1120.17 274.293 1124.25 272.026 1126.93 273.542C1129.61 275.057 1128.56 280.064 1127.69 282.378C1126.47 285.45 1123.04 292.89 1119.05 298.071C1121.43 296.466 1127.15 292.821 1130.96 291.082C1133.74 289.555 1139.6 288.171 1140.78 294.855C1141.96 301.539 1125.82 313.249 1117.61 318.269C1125.57 319.771 1133.22 320.985 1138.64 321.744C1143.05 324.589 1154.43 325.646 1159.57 325.82L1173.92 328.614C1194.33 325.763 1206.2 309.457 1200.39 294.673C1195.74 282.846 1181.36 279.797 1174.75 279.751C1191.32 264.774 1222.23 229.671 1213.33 209.074C1204.44 188.476 1173.44 209.992 1159.05 223.325C1167.69 207.632 1181.07 173.996 1165.45 164.996C1149.82 155.996 1135.15 166.543 1129.77 172.942C1115.7 189.068 1107.5 210.804 1105.16 219.656ZM1120.73 251.234C1115.97 255.272 1115.21 262.571 1115.42 265.716C1127.82 260.683 1129.06 254.099 1128.13 251.435C1127.65 249.686 1125.48 247.196 1120.73 251.234Z" fill="#599900"/>
<path d="M830.894 152.593C814.458 152.867 809.79 168.548 809.511 176.354C808.325 187.542 809.997 201.478 810.981 207.048C815.081 224.23 819.482 234.561 821.17 237.578C830.582 256.166 840.762 261.252 849.598 260.49C858.434 259.729 865.741 263.634 869.328 264.333C870.053 264.474 871.338 264.671 872.942 264.898C865.118 255.146 849.38 231.654 849.013 215.696C848.645 199.738 856.349 193.957 860.247 193.061C863.503 191.213 871.468 191.523 877.284 207.549L882.86 223.528C883.985 217.749 887.542 204.582 892.766 198.152C895.219 195.114 901.538 189.435 907.185 191.031C912.831 192.627 914.683 201.386 914.904 205.566C914.614 211.302 912.669 226.603 907.203 241.921C909.807 237.05 917.119 227.966 925.543 230.599C928.217 231.741 931.836 237.162 924.923 249.716C921.861 254.816 914.388 266.21 908.991 270.982C912.921 272.068 916.783 273.353 920.033 274.827C929.611 279.175 941.396 278.781 946.091 278.04C960.132 274.983 988.402 263.443 989.152 241.746C989.902 220.048 970.632 225.314 960.903 230.659C977.245 217.914 1005.65 186.997 988.526 165.294C983.541 158.974 977.875 155.549 972.091 154.09C958.013 150.539 943.234 158.632 935.843 164.963C941.426 154.136 946.294 129.351 948.03 118.312C949.818 93.8378 934.963 85.5667 927.312 84.4905C907.515 81.628 891.711 92.0373 886.284 97.5998C859.146 117.137 854.455 158.009 855.502 176.002C854.148 168.085 847.33 152.318 830.894 152.593Z" fill="#77CC00"/>
<path d="M872.942 264.898C877.684 265.568 885.212 266.494 889.292 266.979C893.425 267.511 901.336 268.868 908.991 270.982C914.388 266.21 921.861 254.816 924.923 249.716C931.836 237.162 928.217 231.741 925.543 230.599C917.119 227.966 909.807 237.05 907.203 241.921C912.669 226.603 914.614 211.302 914.904 205.566C914.683 201.386 912.831 192.627 907.185 191.031C901.538 189.435 895.219 195.114 892.766 198.152C887.542 204.582 883.985 217.749 882.86 223.528L877.284 207.549C871.468 191.523 863.503 191.213 860.247 193.061C856.349 193.957 848.645 199.738 849.013 215.696C849.38 231.654 865.118 255.146 872.942 264.898Z" fill="#AAFF33"/>
<path d="M1087.64 252.238C1079.13 270.439 1086.67 299.719 1091.5 312.083C1098.6 314.365 1108.32 316.514 1117.61 318.269C1125.82 313.249 1141.96 301.539 1140.78 294.855C1139.6 288.171 1133.74 289.555 1130.96 291.082C1127.15 292.821 1121.43 296.466 1119.05 298.071C1123.04 292.89 1126.47 285.45 1127.69 282.378C1128.56 280.064 1129.61 275.057 1126.93 273.542C1124.25 272.026 1120.17 274.293 1118.46 275.615C1112.84 278.989 1107.97 287.017 1106.23 290.61C1109.4 274.347 1110.3 261.202 1110.36 256.662C1110.53 251.525 1109.14 241.282 1102.16 241.413C1095.18 241.544 1089.57 248.684 1087.64 252.238Z" fill="#BFFF66"/>
<path d="M1115.42 265.716C1115.21 262.571 1115.97 255.272 1120.73 251.234C1125.48 247.196 1127.65 249.686 1128.13 251.435C1129.06 254.099 1127.82 260.683 1115.42 265.716Z" fill="#BFFF66"/>
<path d="M1201.42 333.97C1204.04 340.933 1227.8 345.106 1239.35 346.321C1256.06 343.37 1266.05 333.524 1262.18 324.703C1259.09 317.647 1245.13 324.073 1238.54 328.168C1251.49 312.692 1258.79 291.152 1251.35 284.739C1245.39 279.608 1236.52 282.265 1232.83 284.235C1213.29 295.324 1203.75 322.012 1201.42 333.97Z" fill="#AAFF33"/>
<path d="M1282.48 252.327C1284.46 250.644 1288.3 246.014 1287.8 240.951C1287.11 238.127 1286.94 231.972 1291.8 229.941C1296.67 227.909 1298.31 233.691 1298.53 236.835C1298.71 240.179 1295.74 247.959 1282.48 252.327Z" fill="#AAFF33"/>
<path d="M1287.88 256.481C1290.73 254.555 1297.65 252.178 1302.46 258.079C1304.54 260.139 1307.46 264.887 1302.51 267.397C1297.55 269.907 1295.65 265.441 1295.32 262.894C1294.43 261.067 1291.7 257.226 1287.88 256.481Z" fill="#AAFF33"/>
<path d="M1188.06 195.464C1192.8 188.113 1202.96 175.653 1205.68 184.623C1208.4 193.593 1195.07 195.588 1188.06 195.464Z" fill="#77CC00"/>
<path d="M1180.4 193.352C1181.66 191.116 1183.59 185.284 1181.17 179.849C1179.68 176.87 1177.99 170.667 1183.15 169.685C1188.31 168.703 1189.15 174.991 1188.93 178.257C1188.51 181.485 1186.21 189.022 1180.4 193.352Z" fill="#77CC00"/>
<path d="M1091.45 130.727C1094.45 126.969 1099.91 117.854 1097.68 111.463C1096.78 106.53 1096.57 96.1056 1102.97 93.8752C1110.96 91.0872 1115.65 98.8282 1114.61 104.209C1113.56 109.59 1112.53 118.077 1091.45 130.727Z" fill="#77CC00"/>
<path d="M449.604 143.373C431.24 164.035 457.781 196.564 473.347 210.246C463.948 204.339 445.02 197.952 444.497 219.656C443.973 241.361 471.517 254.538 485.355 258.414C436.605 261.527 393.861 269.692 378.583 273.386C391.215 266.77 410.7 233.42 395.75 218.221C383.79 206.062 372.223 212.371 367.934 217.045C372.784 205.575 372.126 185.751 371.191 177.272C369.799 168.445 364.141 150.44 352.644 149.036C341.146 147.632 335.259 164.485 333.752 173.087C330.391 162.722 328.895 149.156 328.567 143.669C327.418 124.156 339.685 115.131 345.962 113.058C357.163 108.601 371.912 114.075 377.887 117.37C394.092 124.533 407.072 143.971 411.537 152.794C405.417 139.276 398.689 110.27 420.739 102.389C442.788 94.5068 460.546 119.614 466.668 133.152C460.809 134.27 454.952 137.356 449.604 143.373Z" fill="#3C6600"/>
<path fill-rule="evenodd" clip-rule="evenodd" d="M295.328 79.3022C317.503 97.9546 327.674 161.407 329.988 190.802C328.167 181.828 321.251 159.649 308.158 142.725C303.16 136.022 289.131 124.633 273.007 132.701C256.883 140.769 268.264 175.132 275.97 191.305C262.39 177.151 232.706 153.854 222.617 173.895C212.528 193.935 241.33 230.79 256.993 246.713C250.391 246.371 235.854 248.572 230.522 260.106C223.856 274.523 234.743 291.497 254.954 295.54L227.184 299.274C225.56 287.201 217.601 259.999 198.749 247.783C195.178 245.6 186.474 242.427 180.233 247.2C172.43 253.166 178.452 275.097 190.465 291.305C184.127 286.831 170.576 279.598 167.074 286.461C162.696 295.039 172.086 305.454 188.594 309.38C149.019 303.024 132.039 272.733 135.352 247.089C138.002 226.574 154.871 220.085 162.974 219.405C155.978 214.61 145.918 200.433 161.645 182.093C177.371 163.753 206.066 178.783 218.447 188.591C203.443 161.108 215.087 146.84 222.784 143.142C208.01 117.062 186.283 62.7428 217.574 54.1103C248.864 45.4777 282.448 67.308 295.328 79.3022ZM256.439 146.607C253.708 151.891 255.284 157.825 256.414 160.131C250.87 155.468 249.02 147.809 248.789 144.562C248.758 141.288 249.97 135.061 255.059 136.344C260.148 137.626 258.099 143.72 256.439 146.607ZM248.647 161.79C244.345 154.174 234.93 141.14 231.688 149.935C228.445 158.729 241.643 161.503 248.647 161.79Z" fill="#3C6600"/>
<path fill-rule="evenodd" clip-rule="evenodd" d="M329.988 190.802C331.558 184.199 333.152 176.241 333.752 173.087C335.259 164.485 341.146 147.632 352.644 149.036C364.141 150.44 369.799 168.445 371.191 177.272C372.126 185.751 372.784 205.575 367.934 217.045C372.223 212.371 383.79 206.062 395.75 218.221C410.7 233.42 391.215 266.77 378.583 273.386C372.983 275.614 355.19 279.194 346.994 280.706C345.081 281.832 342.001 282.891 338.2 283.871C343.749 271.811 352.989 243.024 345.562 224.355C343.841 220.694 338.659 213.237 331.703 212.697C324.747 212.158 322.751 222.301 322.622 227.44C322.413 231.975 322.545 245.151 324.753 261.571C323.233 257.883 318.839 249.582 313.425 245.885C311.8 244.465 307.858 241.963 305.09 243.318C302.322 244.674 303.084 249.734 303.812 252.095C304.848 255.233 307.841 262.862 311.518 268.267C309.235 266.526 303.743 262.552 300.037 260.592C297.352 258.904 291.589 257.18 290.018 263.783C288.448 270.386 303.866 283.022 311.772 288.515C303.739 289.548 296.034 290.311 290.571 290.751C286.002 293.332 274.581 293.721 269.442 293.592L254.954 295.54C234.743 291.497 223.856 274.523 230.522 260.106C235.854 248.572 250.391 246.371 256.993 246.713C241.33 230.79 212.528 193.935 222.617 173.895C232.706 153.854 262.39 177.151 275.97 191.305C268.264 175.132 256.883 140.769 273.007 132.701C289.131 124.633 303.16 136.022 308.158 142.725C321.251 159.649 328.167 181.828 329.988 190.802ZM312.593 221.413C317.106 225.723 317.436 233.054 317.037 236.18C304.955 230.43 304.102 223.784 305.186 221.18C305.775 219.462 308.08 217.103 312.593 221.413Z" fill="#599900"/>
<path d="M607.71 139.937C624.102 141.175 627.842 157.103 627.663 164.912C628.191 176.149 625.705 189.964 624.396 195.467C619.295 212.378 614.296 222.433 612.434 225.347C601.948 243.351 591.488 247.831 582.711 246.552C573.935 245.274 566.412 248.744 562.79 249.231C562.057 249.33 560.763 249.451 559.149 249.583C567.531 240.307 584.62 217.778 585.922 201.869C587.225 185.96 579.873 179.737 576.035 178.614C572.893 176.579 564.923 176.421 558.178 192.078L551.674 207.703C550.89 201.868 548.111 188.515 543.273 181.79C541.002 178.613 535.027 172.574 529.297 173.836C523.566 175.098 521.204 183.734 520.739 187.894C520.692 193.636 521.736 209.025 526.294 224.637C523.981 219.622 517.213 210.125 508.65 212.259C505.914 213.242 501.983 218.441 508.148 231.38C510.905 236.651 517.697 248.463 522.806 253.544C518.819 254.397 514.888 255.453 511.557 256.735C501.74 260.513 489.999 259.429 485.355 258.414C471.517 254.538 443.973 241.361 444.497 219.656C445.02 197.952 463.948 204.339 473.347 210.246C457.781 196.564 431.24 164.035 449.604 143.373C454.952 137.356 460.809 134.27 466.668 133.152C480.93 130.433 495.21 139.379 502.217 146.133C497.278 134.996 493.871 109.969 492.786 98.847C492.436 74.3098 507.751 66.924 515.452 66.2982C535.383 64.6016 550.549 75.9198 555.64 81.7909C581.586 102.886 583.872 143.962 581.772 161.863C583.588 154.039 591.318 138.7 607.71 139.937Z" fill="#3C6600"/>
<path d="M559.149 249.583C554.376 249.974 546.806 250.457 542.706 250.702C538.548 250.991 530.571 251.882 522.806 253.544C517.697 248.463 510.905 236.651 508.148 231.38C501.983 218.441 505.914 213.242 508.65 212.259C517.213 210.125 523.981 219.622 526.294 224.637C521.736 209.025 520.692 193.636 520.739 187.894C521.204 183.734 523.566 175.098 529.297 173.836C535.027 172.574 541.002 178.613 543.273 181.79C548.111 188.515 550.89 201.868 551.674 207.703L558.178 192.078C564.923 176.421 572.893 176.579 576.035 178.614C579.873 179.737 587.225 185.96 585.922 201.869C584.62 217.778 567.531 240.307 559.149 249.583Z" fill="#77CC00"/>
<path d="M345.562 224.355C352.989 243.024 343.749 271.811 338.2 283.871C330.979 285.733 321.152 287.308 311.772 288.515C303.866 283.022 288.448 270.386 290.018 263.783C291.589 257.18 297.352 258.904 300.037 260.592C303.743 262.552 309.235 266.526 311.518 268.267C307.841 262.862 304.848 255.233 303.812 252.095C303.084 249.734 302.322 244.674 305.09 243.318C307.858 241.963 311.8 244.465 313.425 245.885C318.839 249.582 323.233 257.883 324.753 261.571C322.545 245.151 322.413 231.975 322.622 227.44C322.751 222.301 324.747 212.158 331.703 212.697C338.659 213.237 343.841 220.694 345.562 224.355Z" fill="#BFFF66"/>
<path d="M317.037 236.18C317.436 233.054 317.106 225.723 312.593 221.413C308.08 217.103 305.775 219.462 305.186 221.18C304.102 223.784 304.955 230.43 317.037 236.18Z" fill="#BFFF66"/>
<path d="M227.184 299.274C224.165 306.072 200.199 308.844 188.594 309.38C172.086 305.454 162.696 295.039 167.074 286.461C170.576 279.598 184.127 286.831 190.465 291.305C178.452 275.097 172.43 253.166 180.233 247.2C186.474 242.427 195.178 245.6 198.749 247.783C217.601 259.999 225.56 287.201 227.184 299.274Z" fill="#AAFF33"/>
<path d="M151.052 213.018C149.172 211.223 145.611 206.375 146.41 201.351C147.266 198.572 147.793 192.437 143.057 190.124C138.321 187.811 136.339 193.486 135.94 196.612C135.568 199.94 138.069 207.881 151.052 213.018Z" fill="#AAFF33"/>
<path d="M145.421 216.849C142.682 214.759 135.916 211.981 130.77 217.589C128.572 219.524 125.376 224.092 130.177 226.888C134.978 229.684 137.139 225.338 137.619 222.815C138.61 221.042 141.558 217.368 145.421 216.849Z" fill="#AAFF33"/>
<path d="M248.647 161.79C244.345 154.174 234.93 141.14 231.688 149.935C228.445 158.729 241.643 161.503 248.647 161.79Z" fill="#77CC00"/>
<path d="M256.414 160.131C255.284 157.825 253.708 151.891 256.439 146.607C258.099 143.72 260.148 137.626 255.059 136.344C249.97 135.061 248.758 141.288 248.789 144.562C249.02 147.809 250.87 155.468 256.414 160.131Z" fill="#77CC00"/>
<path d="M348.889 102.831C346.108 98.9024 341.194 89.4835 343.796 83.2335C344.985 78.3617 345.799 67.9677 339.55 65.3663C331.737 62.1146 326.593 69.5668 327.324 75C328.054 80.4333 328.587 88.9662 348.889 102.831Z" fill="#77CC00"/>
<ellipse cx="707.5" cy="570.5" rx="864.5" ry="334.5" fill="#BDFF61"/>
<path d="M725.162 40.4721L679.108 59.3126L752.376 66.2906L794.942 48.1479L725.162 40.4721Z" fill="#E37136"/>
<path d="M679.108 90.1502L636.542 103.274L702.135 108.507L715.742 93.1557L679.108 90.1502Z" fill="#E37136"/>
<path d="M794.942 84.4333L752.376 96.9936L715.742 93.1557L702.135 108.507L767.728 113.741L826.343 87.9222L794.942 83.2465V84.4333Z" fill="#E37136"/>
<path d="M636.542 133.279L595.372 150.724L674.223 158.179L744.701 164.842L787.266 168.867L868.21 138.163L857.046 135.186L826.343 126.999L767.728 152.817L702.135 146.537L636.542 142.35V133.279Z" fill="#E37136"/>
<path d="M621.889 230.97L610.026 241.437L665.85 251.206L700.042 233.761L630.96 222.597L621.889 230.97Z" fill="#E37136"/>
<path d="M610.026 272.14V264.464L578.625 277.723L679.108 300.052L734.234 274.931L700.042 268.651L666.547 284.003L610.026 272.14Z" fill="#E37136"/>
<path d="M734.234 311.915L679.108 334.942L729.349 342.618L780.986 321.858L734.234 311.915Z" fill="#E37136"/>
<path d="M578.625 309.821V303.541L533.966 320.986L595.372 334.942L626.773 321.858L578.625 309.821Z" fill="#E37136"/>
<path d="M679.108 59.3126V90.1502L715.742 93.1557L752.376 96.9936V66.2906L679.108 59.3126Z" fill="#A95226"/>
<path d="M636.542 103.274V133.279V142.35L702.135 146.537V108.507L636.542 103.274Z" fill="#A95226"/>
<path d="M767.728 113.741L702.135 108.507V146.537L767.728 152.817V113.741Z" fill="#A95226"/>
<path d="M595.372 173.751V182.822L630.96 186.964L674.223 191.998V158.179L595.372 150.724V173.751Z" fill="#A95226"/>
<path d="M674.223 158.179V191.998L713.3 196.545L744.701 200.199V164.842L674.223 158.179Z" fill="#A95226"/>
<path d="M787.266 205.152V168.867L744.701 164.842V200.199L787.266 205.152Z" fill="#A95226"/>
<path d="M787.266 251.206V205.152L744.701 200.199L713.3 196.545V242.875L750.283 247.041L787.266 251.206Z" fill="#A95226"/>
<path d="M630.96 222.597L700.042 233.761L700.532 241.437L713.3 242.875V196.545L674.223 191.998L630.96 186.964V222.597Z" fill="#A95226"/>
<path d="M595.372 227.481L621.889 230.97L630.96 222.597V186.964L595.372 182.822V227.481Z" fill="#A95226"/>
<path d="M610.026 241.437V272.14L666.547 284.003L665.85 251.206L610.026 241.437Z" fill="#A95226"/>
<path d="M679.108 334.942V300.052L578.625 277.723V292.725V303.541V309.821L626.773 321.858L644.916 326.394L674.223 333.721L679.108 334.942Z" fill="#A95226"/>
<path d="M787.266 289.585V251.206L750.283 247.041V286.665L787.266 289.585Z" fill="#A95226"/>
<path d="M700.042 268.651L734.234 274.931V285.398L750.283 286.665V247.041L713.3 242.875L700.532 241.437L700.042 268.651Z" fill="#A95226"/>
<path d="M780.986 321.858V334.942L787.266 334.507V289.585L750.283 286.665L734.234 285.398V311.915L780.986 321.858Z" fill="#A95226"/>
<path d="M679.108 334.942L674.223 333.721V367.04L729.349 379.601V342.618L679.108 334.942Z" fill="#A95226"/>
<path d="M533.966 320.986V361.458L595.372 372.623V334.942L533.966 320.986Z" fill="#A95226"/>
<path d="M752.376 96.9936L794.942 84.4333V83.2465V48.1479L752.376 66.2906V96.9936Z" fill="#863E14"/>
<path d="M729.349 379.601L780.986 359.365V334.942V321.858L729.349 342.618V379.601Z" fill="#863E14"/>
<path d="M595.372 372.623L644.916 355.876V326.394L626.773 321.858L595.372 334.942V372.623Z" fill="#863E14"/>
<path d="M679.108 334.942L734.234 311.915V285.398V274.931L679.108 300.052V334.942Z" fill="#863E14"/>
<path d="M700.042 233.761L665.85 251.206L666.547 284.003L700.042 268.651L700.532 241.437L700.042 233.761Z" fill="#863E14"/>
<path d="M767.728 152.817L826.343 126.999V124.208V87.9222L767.728 113.741V152.817Z" fill="#863E14"/>
<path d="M621.889 230.97L595.372 227.481V182.822V173.751L460 300.052L472.337 311.915L496.285 334.942C507.532 323.775 522.947 308.806 538.851 293.918C569.656 265.082 602.295 241.437 610.026 241.437L621.889 230.97Z" fill="#80581C"/>
<path d="M826.343 124.208V126.999L857.046 135.186L910.078 78.1531L878.677 51.6369L841.454 90.1502L826.343 124.208Z" fill="#80581C"/>
<path d="M794.942 83.2465L826.343 87.9222V124.208L841.454 90.1502L873.095 18.8405L830.739 0L794.942 83.2465Z" fill="#A8711F"/>
<path d="M975.671 173.751C963.111 168.866 958.226 185.614 951.946 183.52C950.67 183.095 946.306 182.421 940.083 181.609C967.67 217.712 962.413 258.324 956.83 284.003C949.852 316.101 931.71 334.798 905.194 342.618C883.981 348.873 851.231 343.51 837.507 340.046C844.636 342.687 854.863 345.717 868.21 348.2C925.43 361.458 936.594 348.2 944.968 348.2C953.341 348.2 960.319 356.573 970.088 353.782C979.858 350.991 970.088 343.315 963.808 334.942C959.827 329.633 960.894 326.568 963.808 319.702C965.491 315.737 967.79 310.506 970.088 302.843C976.369 281.909 970.786 223.295 963.808 200.965C970.088 198.872 988.231 178.636 975.671 173.751Z" fill="#D7A124"/>
<path d="M852.161 227.481C874.125 231.435 921.202 237.669 933.803 230.97V293.918C924.267 294.316 899.89 294.872 878.677 293.918C857.464 292.964 848.439 287.841 846.579 285.398L852.161 227.481Z" fill="#C68429"/>
<path d="M610.026 264.464V241.437C602.295 241.437 569.656 265.082 538.851 293.918C543.503 295.572 557.97 297.649 578.625 292.725V277.723L610.026 264.464Z" fill="#A45627"/>
<path fill-rule="evenodd" clip-rule="evenodd" d="M826.343 334.942C822.854 340.059 813.224 348.758 802.618 342.618C798.64 340.315 798.594 337.351 800.618 334.301C800.785 334.05 800.966 333.798 801.159 333.546C804.288 329.475 810.807 325.335 816.335 322.475C817.391 321.929 818.411 321.429 819.365 320.986C818.13 311.231 816.633 294.645 816.335 277.723C816.072 262.769 816.746 247.552 819.365 236.553C821.054 229.457 823.042 223.163 825.095 217.712C829.68 207.106 845.049 194.22 852.161 189.103C850.533 188.87 846.439 187.986 843.09 186.311C834.716 182.404 836.81 174.255 838.903 170.669C848.129 170.193 860.371 172.053 868.21 173.751C887.472 175.66 921.802 179.226 940.083 181.609C967.67 217.712 962.413 258.324 956.83 284.003C949.852 316.101 931.71 334.798 905.194 342.618C883.981 348.873 851.231 343.51 837.507 340.046C831.816 337.938 828.098 336.078 826.343 334.942ZM852.161 227.481C874.125 231.435 921.202 237.669 933.803 230.97V293.918C924.267 294.316 899.89 294.872 878.677 293.918C857.464 292.964 848.439 287.841 846.579 285.398L852.161 227.481Z" fill="#EBBC37"/>
<path d="M830.739 189.103C833.021 191.714 835.702 193.31 837.507 193.987C834.912 197.069 829.828 205.151 825.095 217.712C829.68 207.106 845.049 194.22 852.161 189.103C850.533 188.87 846.439 187.986 843.09 186.311C834.716 182.404 836.81 174.255 838.903 170.669C831.704 171.041 826.343 172.836 826.343 177.24C826.343 179.589 826.749 181.679 827.42 183.52C828.227 185.734 829.416 187.589 830.739 189.103Z" fill="#D7A124"/>
<path d="M963.808 334.942C970.088 343.315 979.858 350.991 970.088 353.782C960.319 356.573 953.341 348.2 944.968 348.2C936.594 348.2 925.43 361.458 868.21 348.2C854.863 345.717 844.636 342.687 837.507 340.046C831.816 337.938 828.098 336.078 826.343 334.942C822.854 340.059 813.224 348.758 802.618 342.618C798.64 340.315 798.594 337.351 800.618 334.301C800.785 334.05 800.966 333.798 801.159 333.546L787.266 334.507L780.986 334.942V359.365L729.349 379.601L674.223 367.04V333.721L644.916 326.394V355.876L595.372 372.623L533.966 361.458V320.986L578.625 303.541V292.725C557.97 297.649 543.503 295.572 538.851 293.918C522.947 308.806 507.532 323.775 496.285 334.942L472.337 311.915C424.674 329.911 467.5 348.2 490.5 348.2C513.5 348.2 527 340.046 520 348.2C513 356.354 503.5 361.458 513.5 372.623C523.5 383.788 558.5 387 586 387C613.5 387 640 372.623 659 372.623C678 372.623 729.349 394 750.283 391.5C771.217 389 802.618 367.04 825.095 367.04C847.573 367.04 942.808 378.205 963.808 372.623C984.808 367.04 1023.5 364.835 1025.5 348.2C1027.1 334.892 977.539 327.378 963.808 319.702C960.894 326.568 959.827 329.633 963.808 334.942Z" fill="#77CC00"/>
<path fill-rule="evenodd" clip-rule="evenodd" d="M816.335 322.475C810.807 325.335 804.288 329.475 801.159 333.546L787.266 334.507V289.585L806.207 281.856C806.862 296.456 809.853 310.484 816.335 322.475Z" fill="#863E14"/>
<path fill-rule="evenodd" clip-rule="evenodd" d="M806.207 281.856C805.601 268.368 806.876 255 809.457 241.076L787.266 251.206V289.585L806.207 281.856Z" fill="#863E14"/>
<path fill-rule="evenodd" clip-rule="evenodd" d="M809.457 241.076C812.966 222.146 818.659 204.557 823.916 191.622L787.266 205.152V251.206L809.457 241.076Z" fill="#863E14"/>
<path d="M837.507 193.987C835.702 193.31 833.021 191.714 830.739 189.103L823.916 191.622C818.659 204.557 812.966 222.146 809.457 241.076L819.365 236.553C821.054 229.457 823.042 223.163 825.095 217.712C829.828 205.151 834.912 197.069 837.507 193.987Z" fill="#75340E"/>
<path fill-rule="evenodd" clip-rule="evenodd" d="M868.21 138.163V173.751C860.371 172.053 848.129 170.193 838.903 170.669C831.704 171.041 826.343 172.836 826.343 177.24C826.343 179.589 826.749 181.679 827.42 183.52C826.296 185.951 825.117 188.665 823.916 191.622L787.266 205.152V168.867L868.21 138.163Z" fill="#863E14"/>
<path d="M830.739 189.103C829.416 187.589 828.227 185.734 827.42 183.52C826.296 185.951 825.117 188.665 823.916 191.622L830.739 189.103Z" fill="#75340E"/>
<path d="M816.335 277.723C816.072 262.769 816.746 247.552 819.365 236.553L809.457 241.076C806.876 255 805.601 268.368 806.207 281.856L816.335 277.723Z" fill="#75340E"/>
<path d="M819.365 320.986C818.13 311.231 816.633 294.645 816.335 277.723L806.207 281.856C806.862 296.456 809.853 310.484 816.335 322.475C817.391 321.929 818.411 321.429 819.365 320.986Z" fill="#75340E"/>
<path d="M595.372 227.482L621.889 230.971L630.96 222.597M595.372 150.724L674.223 158.179V191.998L713.3 196.545M636.542 103.274V133.279V142.351L702.135 146.538M752.376 96.9941L794.942 84.4338V82.247M752.376 96.9941V66.2911M752.376 96.9941L731 95M752.376 66.2911L794.942 48.1484V82.247M752.376 66.2911L679.108 59.3132V90.1508L731 95M794.942 82.247L826.343 87.9228M826.343 87.9228L767.728 113.741V152.818M826.343 87.9228V124.208V126.999L767.728 152.818M868.21 170.96V138.164L827.738 153.516M816.573 236.553L787.266 251.207M610.026 272.141V241.438V264.465V272.141ZM610.026 272.141L666.547 284.003M578.625 277.723V292.726M679.108 334.942L734.234 311.915M679.108 334.942V300.053L734.234 274.932M679.108 334.942L674.223 333.721M734.234 311.915L780.986 321.859M734.234 311.915V285.399M734.234 274.932L700.042 268.652M734.234 274.932V285.399M700.042 268.652L666.547 284.003M700.042 268.652L700.532 241.438M700.042 233.762L630.96 222.597M700.042 233.762L665.85 251.207L666.547 284.003M700.042 233.762L700.532 241.438M630.96 222.597V186.964L595.372 182.823V173.752M533.966 320.986V361.459L595.372 372.623M595.372 372.623L644.916 355.876V326.394M595.372 372.623V334.942L626.773 321.859M644.916 326.394L626.773 321.859M644.916 326.394L674.223 333.721M626.773 321.859L578.625 309.822V303.542V292.726M674.223 333.721V367.041L729.349 379.601M729.349 379.601L780.986 359.365M729.349 379.601V342.618M780.986 359.365V321.859M780.986 359.365V334.942M780.986 321.859V334.942M780.986 321.859L743.305 337.007M767.728 152.818L702.135 146.538M787.266 205.152L827.948 189.103M787.266 205.152V168.867M787.266 205.152V334.508M787.266 205.152L744.701 200.199M787.266 205.152V251.207M787.266 168.867L744.701 164.843V200.199M787.266 168.867L813.085 159.074M787.266 251.207L750.283 247.041M787.266 251.207V289.586M700.532 241.438L713.3 242.876M734.234 285.399L750.283 286.666M787.266 289.586L813.544 277.723M787.266 289.586L750.283 286.666M787.266 289.586V334.508M798.368 333.547L787.266 334.508M780.986 334.942L787.266 334.508M538.851 293.919C543.503 295.572 557.97 297.649 578.625 292.726M731 95L702.135 108.508V146.538M744.701 200.199L713.3 196.545M713.3 196.545V242.876M713.3 242.876L750.283 247.041M750.283 247.041V286.666" stroke="#7B3A14" stroke-width="2" stroke-linecap="round"/>
<path d="M894.372 387.153C891.787 387.153 886.833 397.363 884.679 402.467C893.887 407.059 893.858 412.747 890.97 417.086C898.875 424.366 913.757 425.175 918.603 416.277C919.829 414.025 920.539 411.876 920.835 409.805C921.147 407.628 921.003 405.536 920.524 403.5C919.992 401.233 919.045 399.034 917.852 396.861C917.107 395.506 916.267 394.161 915.372 392.816C910.526 385.535 897.603 387.153 894.372 387.153Z" fill="#525252"/>
<path d="M883.064 401.715C864.487 393.625 858.833 408.187 858.026 416.277C857.981 417.078 857.995 417.817 858.063 418.5C859.155 429.524 874.177 425.642 881.047 423.867L881.048 423.867C881.486 423.754 881.891 423.649 882.257 423.557C884.956 422.881 888.783 420.37 890.97 417.086C893.858 412.747 893.887 407.059 884.679 402.467C884.17 402.213 883.632 401.962 883.064 401.715Z" fill="#676767"/>
<path d="M890.97 417.086C888.783 420.37 884.956 422.881 882.257 423.557C881.891 423.649 881.486 423.754 881.048 423.867L881.047 423.867C874.177 425.642 859.155 429.524 858.063 418.5C849.626 429 854.68 433.624 865 435.5C876 437.5 887.97 431.5 902 429C916.03 426.5 928 432.5 931.5 419.5C933.116 413.5 927.85 404.833 920.524 403.5C921.003 405.536 921.147 407.628 920.835 409.805C920.539 411.876 919.829 414.025 918.603 416.277C913.757 425.175 898.875 424.366 890.97 417.086Z" fill="#77CC00"/>
<path d="M504.689 288.17C507.949 286.222 511.615 284.105 515.157 281.998C517.243 280.751 519.333 279.382 521.378 277.857C528.11 272.823 534.32 266.781 541.187 261.683C542.889 260.419 544.617 259.149 546.355 257.902C551.532 254.164 556.985 250.518 562.202 247.069C562.744 246.706 563.284 246.342 563.824 245.975C569.186 242.321 574.527 238.498 579.966 234.73C581.006 234.012 582.06 233.296 583.113 232.597C583.563 232.298 584.024 231.995 584.455 231.71C584.668 231.569 584.878 231.429 585.031 231.323C585.179 231.254 585.264 231.043 584.865 231.664C584.567 232.156 584.57 232.931 584.661 233.159C584.74 233.421 584.775 233.399 584.74 233.327C584.673 233.163 584.427 232.783 584.157 232.364C583.62 231.511 582.873 230.361 582.597 228.75C582.634 228.91 582.69 229.106 582.853 229.381C583.018 229.658 583.298 229.947 583.607 230.129C584.251 230.49 584.604 230.414 584.731 230.409C584.96 230.362 584.749 230.371 584.559 230.441C584.148 230.575 583.582 230.848 583.033 231.143C581.915 231.747 580.766 232.466 579.623 233.201C577.326 234.683 575.028 236.26 572.678 237.795C572.006 238.234 571.328 238.67 570.645 239.098C568.274 240.616 565.822 241.732 563.559 243.059C561.573 244.2 559.596 245.348 557.614 246.502C555.426 247.776 553.252 249.056 551.045 250.313C550.017 250.879 549.079 251.471 547.887 251.949L547.874 251.953C547.4 252.085 546.891 252.178 546.396 252.201C546.129 252.215 545.872 252.216 545.617 252.222C545.357 252.227 545.107 252.192 544.913 252.119C544.72 252.047 544.6 251.942 544.584 251.818C544.568 251.695 544.659 251.561 544.839 251.446C545.019 251.331 545.276 251.248 545.543 251.214C545.802 251.18 546.055 251.151 546.281 251.114C546.703 251.046 547.074 250.932 547.483 250.77L547.455 250.78C548.231 250.355 549.292 249.577 550.212 248.921C551.916 247.691 553.616 246.432 555.315 245.182C555.872 245.427 556.467 245.498 557.275 245.172C557.689 245.004 558.241 244.685 558.578 244.35C558.884 244.047 559.065 243.747 559.238 243.461C559.421 243.16 559.588 242.879 559.884 242.625C560.383 242.195 560.783 241.676 561.209 241.128C561.362 240.93 561.518 240.728 561.684 240.524C561.736 240.487 561.789 240.449 561.841 240.411C563.446 239.236 565.173 238.144 566.679 237.08C567.335 236.729 567.927 236.382 568.393 236.031C568.416 236.014 568.438 235.996 568.46 235.979C568.851 235.673 569.171 235.318 569.473 234.944C569.712 234.752 569.951 234.56 570.192 234.365C571.739 233.112 573.283 231.825 574.859 230.539C576.218 229.711 577.631 228.818 579.534 227.631C580.359 227.124 581.235 226.663 582.203 226.271C582.719 226.07 583.214 225.872 583.999 225.748C584.379 225.708 584.92 225.611 585.728 225.936C586.628 226.282 587.167 227.305 587.231 227.858C587.258 228.025 587.325 228.207 587.433 228.389C587.662 228.784 587.942 229.321 588.333 229.99C588.537 230.35 588.771 230.722 589.029 231.281C589.153 231.565 589.296 231.905 589.36 232.398C589.432 232.88 589.334 233.552 589.062 234.04C588.736 234.619 588.474 234.828 588.305 235.041C587.808 235.607 587.5 235.997 587.181 236.406C586.684 237.041 586.264 237.587 585.787 237.956C584.988 238.573 584.357 239.21 583.798 239.794C583.732 239.865 583.665 239.935 583.598 240.005C582.867 240.775 582.255 241.423 581.545 241.771C581.436 241.824 581.313 241.879 581.171 241.943C580.423 242.28 579.226 242.819 577.868 244.065C577.386 244.508 576.988 245.003 576.601 245.486C576.036 246.191 575.486 246.875 574.702 247.352C574.585 247.424 574.436 247.463 574.3 247.499C574.127 247.544 573.977 247.583 573.94 247.676C573.832 247.949 573.618 248.323 573.383 248.73C573.212 249.028 573.028 249.346 572.871 249.652C571.549 250.724 570.218 251.792 568.866 252.854C568.33 253.274 567.793 253.692 567.256 254.106C566.388 254.776 565.517 255.439 564.653 256.093C564.068 256.227 563.487 256.386 562.911 256.603C562.159 256.887 561.303 257.418 560.206 258.106C559.401 258.61 558.454 259.208 557.334 259.85C555.247 261.045 553.313 262.561 552.133 263.625C551.881 263.852 551.641 264.072 551.369 264.32C551.334 264.352 551.298 264.385 551.262 264.418C550.277 265.323 549.04 266.463 546.678 268.509C544.365 270.515 542.338 272.152 540.813 273.381C540.034 274.009 539.387 274.53 538.899 274.944C538.067 275.649 537.033 276.505 535.994 277.362C534.368 278.704 532.722 280.053 531.819 280.854C531.497 281.139 531.16 281.444 530.8 281.77C529.794 282.678 528.579 283.774 526.818 285.187C524.96 286.675 523.731 287.5 522.4 288.302C521.86 288.627 521.298 288.786 520.702 288.956C520.493 289.015 520.283 289.072 520.073 289.136C519.437 289.332 518.795 289.589 518.143 290.115C517.935 290.281 517.724 290.481 517.512 290.683C517.115 291.061 516.691 291.463 516.162 291.767C515.981 291.87 515.804 291.924 515.62 291.985C515.42 292.05 515.227 292.111 515.046 292.228C514.345 292.679 513.68 293.13 513.085 293.528C512.312 294.044 511.647 294.476 511.204 294.696C510.412 295.088 509.627 295.649 508.74 296.222C508.039 296.658 507.4 297.103 506.148 297.517C505.825 297.615 505.423 297.733 504.825 297.801C504.545 297.823 503.932 297.951 502.946 297.948C502.443 297.937 501.807 297.905 500.953 297.619C500.116 297.352 499.005 296.657 498.326 295.685C497.226 294.026 497.342 292.961 497.285 292.272C497.276 291.564 497.329 291.068 497.376 290.606C497.484 289.617 497.707 288.584 498.004 287.632C498.446 286.23 499.109 285.244 499.988 284.138C500.536 283.457 501.182 282.729 501.963 281.877C502.409 281.39 502.674 280.913 502.935 280.464C503.17 280.057 503.398 279.68 503.732 279.393C504.03 279.137 504.322 279.094 504.608 279.046C504.923 278.997 505.212 278.959 505.47 278.652C505.603 278.493 505.721 278.25 505.867 277.959C505.922 277.847 505.982 277.727 506.049 277.601C506.069 277.632 506.091 277.657 506.108 277.675C506.227 277.804 506.586 277.589 506.929 277.395C507.067 277.316 507.206 277.236 507.329 277.179C507.337 277.176 507.344 277.172 507.352 277.168C507.785 276.965 508.423 276.42 508.897 275.989C509.096 275.808 509.327 275.676 509.581 275.536C509.81 275.409 510.071 275.264 510.371 275.05C510.544 274.925 510.698 274.858 510.825 274.803C510.917 274.763 510.997 274.728 511.059 274.683C511.112 274.644 511.12 274.571 511.128 274.488C511.134 274.429 511.139 274.365 511.163 274.306C511.219 274.165 511.338 274.034 511.447 273.969C511.497 273.939 511.544 273.923 511.591 273.908C511.646 273.89 511.699 273.874 511.758 273.834C512.025 273.649 512.234 273.391 512.44 273.133C512.673 272.843 512.911 272.546 513.265 272.306C513.378 272.229 513.505 272.167 513.632 272.105C513.764 272.039 513.892 271.975 513.989 271.904C514.374 271.621 514.639 271.225 514.87 270.871C515.026 270.634 515.181 270.403 515.348 270.236C515.658 269.926 515.746 269.65 515.8 269.455C515.83 269.353 515.855 269.269 515.903 269.207C515.96 269.164 516.017 269.12 516.074 269.078C516.13 269.044 516.189 269.008 516.234 268.964C516.238 268.96 516.241 268.957 516.244 268.953C516.565 268.722 516.89 268.507 517.216 268.292C517.94 267.814 518.666 267.331 519.296 266.692C519.434 266.552 519.543 266.373 519.651 266.194C519.784 265.974 519.921 265.747 520.12 265.58C520.584 265.189 521.121 264.852 521.641 264.526C522.43 264.03 523.194 263.549 523.703 262.875C523.871 262.652 524.004 262.413 524.143 262.167C524.22 262.031 524.297 261.893 524.381 261.759C524.412 261.842 524.451 261.911 524.487 261.975C524.562 262.108 524.626 262.222 524.59 262.399C524.505 262.819 524.454 263.337 524.657 263.5C524.712 263.544 524.757 263.608 524.802 263.673C524.913 263.836 525.027 264.003 525.323 263.86C525.52 263.765 526.032 263.495 526.186 263.154C526.221 263.079 526.212 263 526.202 262.912C526.185 262.754 526.164 262.567 526.388 262.318C526.425 262.276 526.467 262.231 526.511 262.184C526.682 262.003 526.873 261.801 526.882 261.653C526.891 261.484 526.78 261.399 526.65 261.301C526.482 261.172 526.282 261.02 526.274 260.625C526.273 260.546 526.333 260.465 526.378 260.404C526.409 260.361 526.433 260.328 526.424 260.312C526.414 260.294 526.373 260.273 526.321 260.248C526.138 260.159 525.823 259.998 526.213 259.626C526.318 259.526 526.452 259.426 526.573 259.336C526.751 259.203 526.899 259.091 526.882 259.034C526.875 259.013 526.865 258.992 526.853 258.971C526.99 258.856 527.122 258.744 527.256 258.631C527.466 258.528 527.696 258.31 527.987 258.036C528.058 257.969 528.129 257.901 528.206 257.83C528.47 257.607 528.736 257.382 529.004 257.155C529.225 256.989 529.468 256.826 529.745 256.668C529.924 256.566 530.103 256.476 530.283 256.394C530.654 256.228 531.027 256.097 531.396 255.967C531.626 255.886 531.852 255.806 532.075 255.719C532.018 255.786 531.97 255.849 531.937 255.902C531.715 256.271 531.75 256.558 531.784 256.82C531.807 256.995 531.828 257.16 531.771 257.332C531.666 257.646 531.815 257.764 531.924 257.852C531.981 257.897 532.027 257.935 532.023 257.986C532.019 258.028 531.975 258.086 531.93 258.147C531.925 258.153 531.92 258.16 531.915 258.166C531.88 258.213 531.846 258.26 531.832 258.301C531.631 258.858 531.855 258.868 532.181 258.884C532.322 258.89 532.483 258.897 532.637 258.951C532.679 258.965 532.719 258.983 532.759 259.005C532.891 259.089 532.944 259.143 532.916 259.253C532.903 259.301 532.875 259.359 532.832 259.434C532.897 259.415 532.963 259.395 533.029 259.376C533.192 259.329 533.355 259.283 533.518 259.235C533.575 259.174 533.577 259.082 533.567 258.94C533.549 258.688 533.888 258.277 534.143 257.964C534.262 257.817 534.367 257.689 534.414 257.604C534.665 257.152 534.407 257.085 534.181 257.026C534.056 256.994 533.941 256.963 533.925 256.873C533.918 256.834 533.873 256.831 533.828 256.827C533.793 256.824 533.758 256.821 533.739 256.802C533.6 256.663 533.714 256.358 533.82 256.075C533.88 255.913 533.935 255.76 533.941 255.647C533.943 255.613 533.941 255.582 533.938 255.552C533.934 255.508 533.931 255.467 533.942 255.418C533.966 255.308 534.077 255.145 534.2 254.966C534.263 254.875 534.328 254.779 534.386 254.684C534.462 254.56 534.446 254.47 534.428 254.375C534.416 254.308 534.404 254.238 534.423 254.154C534.457 254.001 534.626 253.8 534.783 253.612C534.852 253.531 534.918 253.451 534.97 253.38C534.991 253.351 534.994 253.33 534.985 253.314C535.236 252.994 535.467 252.692 535.696 252.392C536.839 250.895 537.825 249.597 539.702 248.083C540.056 247.797 540.406 247.454 540.743 247.094C541.939 246.062 543.136 245.029 544.333 243.996C544.682 243.908 545.06 243.752 545.468 243.523C546.234 243.092 546.898 242.521 547.68 241.847C548.26 241.346 548.902 240.793 549.703 240.194C551.046 239.19 552.397 238.133 553.849 236.861C555.295 235.595 556.926 234.118 558.064 233.058C558.685 232.479 559.438 231.975 560.138 231.509C561.125 230.85 562.006 230.266 562.29 229.623C562.379 229.419 562.414 229.179 562.454 228.94C562.484 228.769 562.514 228.601 562.558 228.455C562.83 228.229 563.097 228.007 563.374 227.777C563.763 227.576 564.287 227.257 564.737 226.843C564.962 226.635 565.171 226.407 565.345 226.156C565.627 225.926 565.92 225.688 566.188 225.474C566.799 224.979 567.378 224.521 567.987 224.045C568.182 223.893 568.379 223.74 568.582 223.583C568.584 223.581 568.585 223.58 568.587 223.578C568.984 223.273 569.39 222.963 569.8 222.654C569.971 222.526 570.143 222.398 570.319 222.267C570.753 221.946 571.212 221.611 571.653 221.301C571.89 221.133 572.132 220.965 572.368 220.804C572.764 220.533 573.162 220.27 573.568 220.015C574.225 219.61 574.884 219.203 575.669 218.901C575.799 218.854 575.941 218.832 576.057 218.846C576.173 218.859 576.242 218.904 576.252 218.962C576.265 219.019 576.222 219.085 576.148 219.154C576.073 219.223 575.974 219.291 575.867 219.349C575.211 219.715 574.625 220.203 574.055 220.684C573.701 220.986 573.355 221.297 573.009 221.615C572.803 221.805 572.592 222.002 572.385 222.198C572.002 222.562 571.6 222.952 571.222 223.326C571.068 223.478 570.919 223.626 570.77 223.776C570.411 224.134 570.056 224.494 569.71 224.849C569.708 224.851 569.705 224.854 569.703 224.856C569.527 225.036 569.357 225.211 569.189 225.386C568.657 225.935 568.154 226.464 567.618 227.029C567.358 227.307 567.057 227.623 566.788 227.912C566.635 228.076 566.479 228.243 566.324 228.409C566.305 228.429 566.287 228.449 566.268 228.469C566.204 228.537 566.139 228.607 566.074 228.678C564.131 230.767 562.201 232.868 560.263 234.968C558.325 237.07 556.384 239.17 554.441 241.26C552.491 243.357 550.542 245.442 548.579 247.523C544.131 252.238 539.639 256.936 535.04 261.56C527.773 268.919 519.954 276.032 512.641 282.946C511.733 283.83 510.879 284.72 510.085 285.631C508.589 287.343 507.282 289.228 506.74 290.744C506.568 291.219 506.473 291.621 506.422 292.045C506.393 292.254 506.39 292.428 506.4 292.353C506.354 292.287 506.617 291.851 505.738 290.435C505.32 289.807 504.57 289.291 504.079 289.112C503.575 288.916 503.308 288.91 503.198 288.897C503.004 288.889 503.206 288.882 503.85 288.793C503.512 288.83 503.405 288.873 503.379 288.876C503.374 288.878 504.103 288.522 504.689 288.17Z" fill="#976C2C"/>
<path d="M843.138 51.3286C841.317 56.2091 838.493 60.3613 836.29 65.0309C835.846 65.9694 835.412 66.9231 834.983 67.879C833.307 71.6091 831.649 75.4818 829.508 79.0951C829.12 79.7404 828.726 80.3877 828.064 81.208C827.722 81.619 827.308 82.1001 826.597 82.6529C825.915 83.2105 824.765 83.7213 824.213 83.8641C824.185 83.8724 824.156 83.8807 824.128 83.8889C823.078 84.1907 822.005 84.4287 820.868 84.5854C820.299 84.663 819.713 84.7215 819.069 84.7455C818.746 84.7569 818.403 84.7607 818.01 84.7438C817.586 84.7144 817.241 84.7283 816.316 84.5067C814.839 84.1621 813.589 82.9998 813.094 82.179C812.554 81.3338 812.382 80.7027 812.253 80.2081C812.02 79.2126 812.016 78.5769 812.007 77.9766C812.011 76.8074 812.124 75.9012 812.245 75.0074C812.497 73.2454 812.826 71.6551 813.147 70.0898C813.612 67.872 814.349 66.5459 815.016 65.1941C815.559 64.1394 816.109 63.1622 816.663 62.1943C819.132 57.9478 821.68 54.176 824.055 50.2301C824.331 49.7744 824.606 49.316 824.881 48.8558C827.052 45.2168 829.129 41.4993 831.3 37.7343C831.6 37.2182 831.897 36.7133 832.219 36.1868C832.381 35.9234 832.545 35.6598 832.737 35.3704C832.835 35.2235 832.936 35.0723 833.085 34.8753C833.167 34.7698 833.244 34.6623 833.438 34.4632C833.549 34.3592 833.655 34.2253 834.039 34.0063C834.229 33.9055 834.552 33.7574 835.015 33.7373C835.478 33.7096 835.963 33.8878 836.182 34.0206C837.148 34.59 837.359 35.4745 837.426 35.8536C837.495 36.2853 837.474 36.5544 837.458 36.7947C837.419 37.2623 837.349 37.59 837.302 37.8689C837.241 38.3 837.161 38.5245 837.084 38.7728C835.387 43.1214 833.354 46.6557 831.369 50.48L831.355 50.5109C831.341 50.5351 831.327 50.5592 831.314 50.5833C830.363 52.2347 829.353 53.8384 828.285 55.4006C827.836 56.0565 827.377 56.7041 826.907 57.3405C826.518 57.83 826.232 58.3699 825.578 58.7938C825.356 58.9191 825.1 58.9058 824.952 58.8262C824.798 58.7471 824.723 58.6253 824.719 58.5017C824.715 58.377 824.792 58.2559 824.881 58.1525C824.977 58.0475 825.008 57.9758 825.041 57.9375C825.205 57.7934 825.557 57.1681 825.827 56.6589C826.197 55.9658 826.556 55.2619 826.902 54.5535C827.581 53.1631 828.213 51.7567 828.8 50.3327C829.284 50.3436 829.72 50.2484 830.104 49.9078L830.098 49.9193C830.16 49.8601 830.22 49.7947 830.278 49.7225C830.488 49.4633 830.712 49.0428 830.763 48.6904C830.811 48.3665 830.763 48.0968 830.721 47.8319C830.676 47.555 830.63 47.3018 830.698 47.0165C830.81 46.542 830.793 46.0349 830.773 45.5021C830.765 45.3118 830.759 45.1109 830.757 44.9122C831.243 43.5059 831.719 42.1017 832.161 40.7033C832.418 40.1991 832.643 39.734 832.771 39.3231C832.886 38.954 832.9 38.5873 832.873 38.2361C832.922 38.0348 832.964 37.8428 832.991 37.6785C833.015 37.5461 833.027 37.3849 833.002 37.4651C833.016 37.101 833.029 36.7976 833.011 36.6535C833.005 36.59 832.979 36.5574 832.996 36.724C833.01 36.8097 833.032 36.9563 833.158 37.2052C833.277 37.4459 833.566 37.8059 833.946 38.0174C834.191 38.1763 834.861 38.391 835.402 38.3046C835.938 38.231 836.207 38.0612 836.385 37.9543C836.706 37.7404 836.753 37.6585 836.81 37.6066C836.902 37.5086 836.889 37.5248 836.884 37.5441C836.863 37.5933 836.806 37.7081 836.751 37.8258C836.638 38.0664 836.514 38.3459 836.39 38.6299C836.129 39.009 835.863 39.4138 835.586 39.8579C835.203 40.4745 834.801 41.1653 834.366 41.9833C834.045 42.5853 833.684 43.1623 833.336 43.7165C832.822 44.5334 832.337 45.3046 832.053 46.0489C831.863 46.5467 831.55 47.017 831.238 47.4836C830.819 48.1107 830.4 48.7342 830.27 49.4274C830.188 49.8631 830.144 50.2807 830.103 50.6676C830.037 51.2833 829.977 51.8227 829.777 52.2365C829.642 52.5158 829.528 52.7906 829.43 53.0571C829.254 53.5333 829.127 53.9834 829.008 54.3995C828.785 55.179 828.594 55.8318 828.179 56.2688C828.117 56.3347 828.041 56.4085 827.955 56.4913C827.504 56.9269 826.781 57.6196 826.261 58.8919C826.076 59.3448 825.988 59.8163 825.901 60.2783C825.776 60.9504 825.656 61.5993 825.25 62.1385C825.189 62.2194 825.088 62.2819 824.995 62.3382C824.877 62.4103 824.774 62.4745 824.789 62.5537C824.835 62.7856 824.844 63.1201 824.855 63.4825C824.863 63.7473 824.874 64.0271 824.9 64.2945C824.626 64.8691 824.358 65.4418 824.107 65.9997C823.669 66.9697 823.245 67.9261 822.876 68.8395C822.606 69.508 822.367 70.1554 822.213 70.696C821.902 70.8893 821.627 71.0855 821.427 71.2658C821.371 71.3158 821.322 71.369 821.281 71.4187C821.083 71.9033 820.932 72.504 820.756 73.2219C820.593 73.8944 820.406 74.6711 820.161 75.536C819.935 76.3307 819.82 77.1419 819.83 77.7163C819.832 77.995 819.876 78.2252 819.903 78.2315C819.912 78.2319 819.92 78.1725 819.851 77.9941C819.781 77.8235 819.617 77.5022 819.224 77.1771C818.976 76.9697 818.634 76.7862 818.3 76.6913C818.086 76.6216 818.124 76.6206 818.159 76.5982C818.54 76.4825 819.639 76.2819 821.426 75.5557C821.476 75.5352 821.526 75.5146 821.576 75.4938C821.687 75.4132 821.217 75.6053 821.152 75.6615C821.054 75.7203 821.128 75.6343 821.217 75.4933C821.409 75.2031 821.683 74.7526 821.926 74.3335C822.211 73.8457 822.467 73.4082 822.697 73.0078C823.049 72.3933 823.336 71.8786 823.541 71.4733C823.889 70.7821 824.323 69.9334 824.747 69.0716C825.412 67.723 826.051 66.3464 826.364 65.5395C826.475 65.2529 826.587 64.9475 826.705 64.62C826.787 64.3965 826.867 64.1712 826.958 63.9223C827.237 63.1524 827.577 62.2431 828.047 61.1108C828.697 59.5433 829.185 58.6087 829.746 57.6624C829.975 57.2771 830.313 56.9989 830.661 56.7106C831.156 56.3016 831.672 55.8721 831.916 55.0911C831.973 54.909 832.011 54.7046 832.05 54.4911C832.123 54.0989 832.2 53.6748 832.408 53.2961C832.48 53.1639 832.581 53.063 832.679 52.9641C832.787 52.8553 832.893 52.7483 832.957 52.6035C833.198 52.0639 833.407 51.527 833.591 51.0512C833.829 50.4362 834.024 49.9217 834.195 49.6214C834.499 49.0881 834.678 48.4399 834.853 47.7868C834.986 47.2895 835.118 46.7827 835.305 46.3205C835.383 46.1277 835.462 45.9213 835.539 45.708C836.003 44.4228 836.467 42.7772 836.833 41.0888C836.995 40.3416 837.31 39.7774 837.704 39.0483C837.947 38.597 838.221 38.0829 838.492 37.4297C838.645 37.0615 838.63 36.7075 838.612 36.3876C838.595 36.0912 838.576 35.8204 838.684 35.5778C838.78 35.3608 838.988 35.2632 839.187 35.1637C839.408 35.0556 839.616 34.949 839.631 34.7046C839.64 34.5736 839.582 34.4029 839.511 34.202C839.482 34.1226 839.452 34.0388 839.423 33.9521C839.458 33.9627 839.49 33.9696 839.515 33.9741C839.687 34.0057 839.822 33.7841 839.949 33.5645C840 33.477 840.049 33.3911 840.101 33.3202C840.232 33.1433 840.318 32.8357 840.364 32.5364C840.387 32.3763 840.404 32.2191 840.416 32.0771C840.433 31.8837 840.505 31.707 840.588 31.5106C840.662 31.3313 840.745 31.1321 840.807 30.8719C840.841 30.7222 840.902 30.6125 840.953 30.5223C840.99 30.4575 841.021 30.3984 841.033 30.3446C841.043 30.2977 840.996 30.2552 840.943 30.2077C840.905 30.1736 840.864 30.1366 840.839 30.0936C840.778 29.9927 840.768 29.8614 840.797 29.7756C840.811 29.7356 840.833 29.7052 840.855 29.6751C840.881 29.64 840.906 29.6052 840.918 29.5557C840.974 29.3204 840.933 29.0943 840.891 28.8519C840.843 28.5921 840.793 28.3189 840.862 28.0218C840.884 27.93 840.926 27.8332 840.967 27.7374C841.01 27.6373 841.051 27.5456 841.064 27.4608C841.12 27.1253 841.008 26.8026 840.901 26.5163C840.83 26.3215 840.761 26.1456 840.747 25.983C840.721 25.6851 840.57 25.5299 840.458 25.4211C840.4 25.3635 840.352 25.3157 840.337 25.268C840.34 25.2235 840.345 25.1808 840.349 25.1356C840.359 25.0949 840.37 25.0539 840.365 25.0168C840.365 25.014 840.364 25.0112 840.364 25.0084C840.394 24.7696 840.433 24.5454 840.468 24.3594C840.491 24.2402 840.51 24.1361 840.53 24.0818C840.557 24.0392 840.544 23.9941 840.679 24.2878C840.607 24.0604 840.522 23.8651 840.432 23.756C840.388 23.702 840.307 23.6901 840.252 23.7222C840.187 23.76 840.155 23.8739 840.331 24.0333C840.471 24.1556 840.735 24.3454 841.133 24.4734C841.417 24.532 841.576 24.466 841.71 24.3936C841.955 24.2541 842.025 24.0517 842.068 24.0708C841.97 24.164 841.877 24.2644 841.797 24.3696C841.659 24.5484 841.549 24.7492 841.44 24.9489C841.379 25.0601 841.318 25.1721 841.253 25.2782C841.222 25.1978 841.185 25.1285 841.151 25.0639C841.08 24.9305 841.018 24.8173 841.041 24.6625C841.094 24.2983 841.114 23.8334 840.928 23.6533C840.877 23.6043 840.835 23.5389 840.793 23.4726C840.687 23.3064 840.578 23.1374 840.332 23.2161C840.165 23.2697 839.751 23.4136 839.634 23.6919C839.609 23.7527 839.62 23.8253 839.633 23.9061C839.656 24.0512 839.684 24.2229 839.508 24.4017C839.479 24.4317 839.446 24.4634 839.412 24.4957C839.276 24.6252 839.125 24.7679 839.127 24.8976C839.129 25.0465 839.227 25.1439 839.342 25.2576C839.491 25.4056 839.668 25.5816 839.698 25.9339C839.704 26.0035 839.659 26.0635 839.626 26.1082C839.603 26.1398 839.585 26.1642 839.593 26.1801C839.603 26.1982 839.639 26.2245 839.683 26.2577C839.842 26.3747 840.117 26.5801 839.815 26.8297C839.734 26.8966 839.629 26.9579 839.536 27.012C839.399 27.0917 839.286 27.1587 839.306 27.2117C839.313 27.2318 839.323 27.2522 839.334 27.2727C839.233 27.3437 839.131 27.4156 839.032 27.4863C838.868 27.5335 838.699 27.6752 838.494 27.8516C838.444 27.8944 838.391 27.9396 838.336 27.9858C838.145 28.1253 837.957 28.2659 837.771 28.4063C837.613 28.5053 837.437 28.5991 837.236 28.6823C836.835 28.8487 836.416 28.9178 836.006 28.9951C835.832 29.0283 835.662 29.0613 835.495 29.1049C835.528 29.0563 835.557 29.0105 835.573 28.9697C835.686 28.6917 835.607 28.4436 835.534 28.2149C835.486 28.0625 835.442 27.9179 835.463 27.7785C835.503 27.5234 835.363 27.3982 835.258 27.3067C835.203 27.2591 835.159 27.2199 835.156 27.1754C835.153 27.1396 835.182 27.095 835.212 27.0491C835.239 27.009 835.266 26.9676 835.273 26.9304C835.369 26.4763 835.182 26.4305 834.902 26.3696C834.748 26.3362 834.568 26.2972 834.393 26.1807C834.216 26.0506 834.184 25.9941 834.278 25.7932C834.089 25.8207 833.897 25.8516 833.707 25.8831C833.666 25.9313 833.676 26.0128 833.702 26.1395C833.75 26.3655 833.52 26.6843 833.345 26.9383C833.265 27.0551 833.196 27.1579 833.169 27.2282C833.031 27.6014 833.268 27.6796 833.473 27.7514C833.586 27.7909 833.689 27.8284 833.72 27.9078C833.733 27.9417 833.772 27.949 833.811 27.9568C833.841 27.9628 833.872 27.9688 833.892 27.9872C834.035 28.1215 833.997 28.3697 833.966 28.5996C833.948 28.7309 833.933 28.8563 833.952 28.9508C833.958 28.9796 833.967 29.0061 833.976 29.0315C833.988 29.0687 834.001 29.1041 834.002 29.1439C834.007 29.2344 833.95 29.361 833.89 29.4997C833.859 29.5705 833.828 29.6448 833.802 29.7189C833.77 29.8151 833.807 29.8911 833.846 29.9706C833.873 30.0268 833.901 30.0849 833.908 30.1526C833.913 30.2113 833.896 30.277 833.868 30.3453C833.849 30.4055 833.815 30.4736 833.784 30.5374C833.758 30.5917 833.731 30.6476 833.714 30.6969C833.707 30.7173 833.712 30.7333 833.725 30.746C833.634 30.9706 833.548 31.2026 833.465 31.4356C833.05 32.6151 832.711 33.7384 831.678 35.1731C831.482 35.4454 831.312 35.7637 831.159 36.0964C830.587 36.9766 830.007 37.8689 829.412 38.7604C829.35 38.8519 829.285 38.9493 829.22 39.0481C828.958 39.1526 828.694 39.3211 828.433 39.553C827.942 39.99 827.595 40.5325 827.185 41.1767C826.884 41.6511 826.545 42.1871 826.094 42.7722C825.334 43.76 824.587 44.7967 823.84 46.0175C823.268 46.9516 822.653 48.0014 822.145 48.898C822.002 49.1495 821.872 49.3917 821.758 49.6162C821.488 50.1461 821.089 50.663 820.721 51.1632C820.204 51.8666 819.75 52.523 819.826 53.0624C819.85 53.2349 819.935 53.4265 820.018 53.6128C820.076 53.7452 820.133 53.8773 820.166 53.9964C820.047 54.2324 819.927 54.4707 819.806 54.7069C819.462 55.078 819.006 55.6789 818.902 56.4124C818.768 56.6552 818.632 56.8986 818.499 57.1296C818.337 57.4146 818.175 57.6904 818.009 57.9682C817.878 58.1876 817.757 58.3856 817.627 58.6048C817.531 58.7642 817.441 58.914 817.344 59.0784C817.343 59.0799 817.342 59.0814 817.341 59.0829C817.153 59.4001 816.964 59.72 816.776 60.0424C816.699 60.1738 816.616 60.3167 816.539 60.4505C816.338 60.7994 816.142 61.142 815.947 61.4907C815.844 61.6734 815.743 61.8563 815.641 62.0428C815.477 62.3437 815.316 62.6465 815.161 62.9493C814.914 63.4356 814.665 63.9378 814.507 64.4015C814.482 64.476 814.443 64.5382 814.394 64.5807C814.345 64.6228 814.289 64.6479 814.23 64.6481C814.172 64.6487 814.114 64.6188 814.074 64.5532C814.034 64.4883 814.018 64.3958 814.027 64.3039C814.091 63.7427 814.241 63.1937 814.39 62.648C814.485 62.3103 814.586 61.9738 814.69 61.6397C814.755 61.4324 814.82 61.2297 814.886 61.0268C815.012 60.6401 815.139 60.2591 815.273 59.873C815.324 59.7243 815.379 59.5669 815.43 59.4207C815.555 59.0624 815.682 58.7081 815.81 58.3555C815.81 58.3533 815.811 58.3512 815.812 58.349C815.878 58.1686 815.937 58.0037 816.002 57.8285C816.091 57.5881 816.17 57.3688 816.261 57.1281C816.37 56.8352 816.474 56.5453 816.579 56.2472C816.674 55.9743 816.773 55.6869 816.867 55.4037C816.921 55.244 816.972 55.0872 817.022 54.9305C817.05 54.8454 817.078 54.7597 817.106 54.6723C817.749 52.6799 818.259 50.644 819.056 48.5421C819.189 48.1937 819.33 47.845 819.48 47.4975C820.176 45.8685 820.877 44.2432 821.584 42.6242C822.439 40.6727 823.291 38.737 824.207 36.7783C824.328 36.5191 824.452 36.2585 824.582 35.9939C826.091 33.0039 827.103 30.1264 829.471 26.6782C831.908 23.3589 835.234 20.8343 837.651 18.6581C839.085 17.408 841.405 16.6293 843.784 17.4646C845.657 18.2339 846.178 19.2683 846.606 19.8488C847.007 20.4758 847.228 20.9437 847.431 21.3554C847.776 22.1704 847.817 22.5385 847.898 22.915C847.966 23.2759 848.006 23.5789 848.038 23.8608C848.101 24.4206 848.132 24.9218 848.155 25.4008C848.197 26.3572 848.199 27.2606 848.188 28.1421C848.162 29.9107 848.076 31.6223 847.964 33.3303C847.847 34.94 847.591 36.437 847.287 37.8692C846.84 39.9559 846.267 41.967 845.674 43.8859C845.145 45.5909 844.595 47.2296 844.022 48.8755C843.944 49.1009 843.863 49.3302 843.782 49.5574C843.576 50.1364 843.362 50.7248 843.138 51.3286Z" fill="#985F09"/>
<path d="M831.462 124.797C833.636 122.775 835.796 121.077 837.996 119.317C841.795 116.308 845.614 113.387 849.46 110.289C855.18 105.679 860.889 100.9 866.522 96.1453C868.296 94.6425 870.053 93.1451 871.774 91.6278C874.335 89.3807 876.69 87.0824 878.797 84.4205C882.076 80.4754 884.72 76.7352 888.489 72.4302C889.139 71.959 890.212 71.5893 891.24 72.5475C891.867 73.3189 891.78 73.7941 891.818 74.2234C891.821 74.6479 891.764 75.0182 891.686 75.3731C891.629 75.6384 891.527 75.9522 891.416 76.203C889.992 78.8892 888.377 80.6405 886.782 82.7378C882.367 88.2975 877.848 93.7535 873.261 99.173C872.089 100.554 870.905 101.938 869.715 103.306C866.266 107.168 863.128 111.006 858.793 114.459C858.733 114.489 858.682 114.514 858.616 114.54C858.564 114.56 858.51 114.581 858.417 114.598C858.408 114.586 858.23 114.688 857.892 114.496C857.721 114.396 857.6 114.162 857.585 114.042C857.56 113.904 857.577 113.807 857.592 113.738C857.629 113.598 857.666 113.551 857.676 113.529C857.693 113.5 857.708 113.477 857.723 113.455C857.753 113.412 857.781 113.377 857.797 113.358C857.832 113.315 857.881 113.261 857.911 113.23C858.05 113.084 858.183 112.96 858.307 112.845C858.564 112.608 858.833 112.372 859.085 112.154C859.609 111.7 860.126 111.266 860.65 110.828C861.695 109.956 862.748 109.091 863.795 108.232C865.761 106.622 867.723 105.024 869.688 103.416C872.765 100.878 875.66 98.0845 878.532 95.2827C880.447 93.4096 882.328 91.5183 884.244 89.6436C884.388 89.5009 884.521 89.37 884.665 89.2281C886.146 87.7738 887.606 86.2929 889.089 84.8282C889.145 84.7821 889.198 84.7423 889.251 84.7036C889.497 84.5256 889.749 84.3895 889.939 84.2953C890.129 84.2021 890.246 84.1628 890.268 84.1935C890.289 84.2242 890.211 84.3239 890.05 84.4656C889.889 84.6079 889.655 84.775 889.43 84.9482C889.382 84.9852 889.336 85.0228 889.29 85.0614L889.303 85.0497C887.865 86.5549 886.424 88.1003 884.97 89.6112C884.847 89.7399 884.728 89.8646 884.601 89.9969C883.061 91.59 881.532 93.2127 879.993 94.8157C879.617 94.9782 879.171 95.2654 878.449 95.919C878.079 96.2534 877.561 96.7562 877.202 97.1525C876.881 97.5076 876.656 97.7937 876.442 98.0648C876.219 98.3486 876.006 98.6171 875.703 98.9339C875.188 99.4708 874.724 100.007 874.232 100.568C874.054 100.771 873.869 100.981 873.679 101.191C872.601 102.228 871.508 103.247 870.373 104.23C869.761 104.758 869.155 105.283 868.544 105.81C867.854 106.369 867.226 106.879 866.699 107.33C866.229 107.732 865.812 108.124 865.41 108.515C865.137 108.751 864.876 108.978 864.603 109.213C862.884 110.708 861.127 112.206 859.48 113.742C859.336 113.869 859.176 114.014 859.049 114.137C858.984 114.198 858.906 114.285 858.915 114.271C858.919 114.265 858.926 114.254 858.939 114.231C858.936 114.211 859.034 114.145 859.01 113.81C859.01 113.664 858.827 113.33 858.602 113.242C858.389 113.144 858.27 113.167 858.204 113.171C858.14 113.179 858.116 113.188 858.098 113.193C858.048 113.212 858.092 113.198 858.127 113.18C859 112.576 860.254 111.383 861.525 110.096C862.257 109.351 862.974 108.617 863.659 107.9C864.677 106.836 865.607 105.832 866.388 104.904C866.912 104.281 867.478 103.66 868.05 103.023C868.239 102.813 868.431 102.598 868.624 102.38C869.183 101.748 869.721 101.117 870.184 100.496C870.571 99.976 870.92 99.4878 871.239 99.0381C871.752 98.3181 872.192 97.6948 872.633 97.1539C873.457 96.1436 874.136 95.2383 874.733 94.4411C875.451 93.4814 876.051 92.6749 876.643 92.0192C876.733 91.9198 876.836 91.8068 876.953 91.6797C877.569 91.0087 878.551 89.9385 879.818 88.2793C880.269 87.6894 880.67 87.1149 881.059 86.5548C881.626 85.7384 882.177 84.9425 882.839 84.1494C882.937 84.0326 883.053 83.9131 883.156 83.8086C883.288 83.6741 883.399 83.5624 883.449 83.4737C883.59 83.2201 883.827 82.8368 884.083 82.4204C884.274 82.1104 884.468 81.7918 884.651 81.4825C884.715 81.3986 884.777 81.3158 884.84 81.234C886.336 79.2205 888.11 77.0209 889.03 75.1703C889.082 75.0412 889.106 74.961 889.135 74.8193C889.177 74.6132 889.198 74.4098 889.193 74.264C889.191 74.1926 889.181 74.1354 889.177 74.1289C889.18 74.1218 889.163 74.1788 889.32 74.3602C889.527 74.5838 889.798 74.6204 889.897 74.6096C890.009 74.5995 890.051 74.5779 890.114 74.5352C890.17 74.4902 890.138 74.5157 890.112 74.544C889.75 74.8292 889.27 75.3418 888.827 75.828C888.236 76.4819 887.519 77.3822 886.592 78.5417C885.91 79.3951 885.11 80.3948 884.165 81.5321C882.909 83.046 881.662 84.6066 880.641 85.9019C880.235 86.4185 879.861 86.8916 879.534 87.2996C879.291 87.6025 879.043 87.9058 878.773 88.2277C877.748 89.4423 876.409 90.935 873.669 93.4593C871.624 95.3385 869.78 96.9079 868.242 98.2071C867.84 98.5465 867.44 98.8818 867.082 99.1809C866.205 99.9146 865.48 100.516 864.92 100.986C863.967 101.787 862.798 102.758 861.618 103.734C859.773 105.26 857.913 106.789 856.869 107.666C856.496 107.979 856.108 108.306 855.687 108.662C854.523 109.645 853.115 110.831 851.154 112.441C849.098 114.128 847.799 115.152 846.443 116.199C845.895 116.621 845.379 116.962 844.846 117.315C844.1 117.808 843.306 118.334 842.342 119.15C842.112 119.345 841.887 119.545 841.634 119.77C841.178 120.174 840.691 120.608 840.162 121.024C839.989 121.16 839.832 121.27 839.681 121.375C839.669 121.383 839.657 121.391 839.645 121.4C839.458 121.531 839.279 121.656 839.092 121.809C838.376 122.392 837.688 122.966 837.08 123.478C836.297 124.137 835.648 124.693 835.237 125.028C834.506 125.625 833.713 126.333 833.051 127.022C832.983 127.095 832.912 127.174 832.869 127.228C832.85 127.251 832.831 127.28 832.85 127.255C832.862 127.234 832.883 127.224 832.946 127.06C832.965 127.006 832.985 126.936 832.998 126.841C833.012 126.723 833.027 126.545 832.94 126.293C832.848 126.013 832.6 125.758 832.399 125.654C832.184 125.541 832.077 125.532 831.979 125.516C831.595 125.489 831.543 125.56 831.483 125.571C831.435 125.59 831.428 125.595 831.426 125.595C831.426 125.593 831.459 125.571 831.494 125.545C831.567 125.49 831.662 125.412 831.756 125.333C831.944 125.172 832.143 124.993 832.341 124.813C832.887 124.317 833.499 123.719 834.155 123.059C835.418 121.791 836.804 120.295 838.173 118.713C838.954 117.812 839.661 117.069 840.55 116.117C841.104 115.523 841.732 114.843 842.492 113.982C842.924 113.492 843.253 113.049 843.558 112.638C843.837 112.261 844.098 111.907 844.394 111.571C844.662 111.268 844.855 111.119 845.047 110.966C845.261 110.796 845.461 110.639 845.715 110.311C845.85 110.137 846.005 109.905 846.178 109.641C846.248 109.535 846.322 109.422 846.403 109.302C846.407 109.314 846.413 109.322 846.419 109.327C846.46 109.36 846.752 109.045 847.032 108.741C847.145 108.619 847.259 108.496 847.355 108.396C847.571 108.172 847.873 107.819 848.19 107.434C848.383 107.198 848.58 106.953 848.757 106.731C848.952 106.485 849.133 106.285 849.351 106.041C849.544 105.826 849.764 105.58 850.028 105.265C850.18 105.085 850.305 104.951 850.409 104.84C850.484 104.76 850.55 104.69 850.603 104.626C850.65 104.569 850.675 104.513 850.704 104.45C850.724 104.405 850.746 104.355 850.779 104.299C850.859 104.165 850.977 104.005 851.07 103.899C851.112 103.85 851.148 103.814 851.185 103.777C851.227 103.735 851.269 103.692 851.321 103.63C851.557 103.349 851.766 103.055 851.985 102.747C852.225 102.41 852.471 102.064 852.78 101.694C852.878 101.577 852.984 101.459 853.088 101.344C853.197 101.223 853.302 101.106 853.387 101.002C853.734 100.577 854.017 100.153 854.28 99.7593C854.455 99.4967 854.619 99.2506 854.783 99.0314C855.085 98.6294 855.216 98.3864 855.311 98.2088C855.361 98.117 855.401 98.0419 855.452 97.9697C855.502 97.9066 855.554 97.8428 855.604 97.7803C855.652 97.7241 855.701 97.666 855.744 97.6088C855.747 97.6044 855.751 97.6001 855.754 97.5958C856.039 97.2459 856.321 96.9067 856.602 96.5687C857.234 95.8085 857.855 95.0586 858.468 94.2299C858.6 94.0513 858.723 93.8605 858.848 93.6665C859.002 93.4287 859.158 93.1854 859.338 92.9535C859.768 92.4001 860.222 91.8585 860.669 91.3231C861.341 90.519 861.996 89.7336 862.528 88.9532C862.704 88.6958 862.864 88.4409 863.027 88.1812C863.117 88.0368 863.208 87.8917 863.302 87.747C863.299 87.7909 863.306 87.8204 863.312 87.8479C863.325 87.9046 863.337 87.9532 863.262 88.1045C863.086 88.4633 862.905 88.8762 862.996 88.8844C863.02 88.8864 863.032 88.9091 863.044 88.9326C863.073 88.9918 863.103 89.0517 863.343 88.7809C863.504 88.5983 863.919 88.1218 864.123 87.7787C864.167 87.7039 864.183 87.6502 864.202 87.5905C864.235 87.4827 864.275 87.3535 864.495 87.0456C864.532 86.9938 864.572 86.9376 864.614 86.8798C864.781 86.6489 864.967 86.3929 865.015 86.2772C865.07 86.1453 865.019 86.1441 864.96 86.1426C864.883 86.1406 864.792 86.1381 864.9 85.8473C864.921 85.7897 864.984 85.6968 865.031 85.6266C865.064 85.5772 865.09 85.5394 865.088 85.5326C865.086 85.5248 865.065 85.5323 865.038 85.5419C864.941 85.5759 864.773 85.6333 865.141 85.139C865.24 85.0066 865.361 84.8542 865.468 84.7193C865.626 84.5203 865.756 84.3561 865.76 84.3239C865.761 84.3118 865.76 84.3018 865.759 84.2927C865.881 84.1328 866.001 83.977 866.126 83.8144C866.298 83.6181 866.516 83.3262 866.783 82.9664C866.848 82.8787 866.919 82.784 866.991 82.6873C867.235 82.3684 867.471 82.0609 867.716 81.7406C867.913 81.4913 868.124 81.2317 868.351 80.9638C868.814 80.414 869.235 79.9676 869.651 79.5223C869.825 79.3376 869.997 79.1534 870.172 78.9613C870.115 79.0436 870.064 79.1187 870.027 79.1781C869.774 79.5782 869.719 79.7701 869.666 79.95C869.631 80.0693 869.597 80.1822 869.508 80.3456C869.35 80.638 869.415 80.6454 869.463 80.6507C869.488 80.6536 869.507 80.6565 869.49 80.6979C869.475 80.7313 869.429 80.7993 869.382 80.8697C869.341 80.9311 869.298 80.9947 869.274 81.0381C868.982 81.5663 869.128 81.4514 869.34 81.2828C869.457 81.1902 869.594 81.0829 869.688 81.058C869.779 81.0441 869.782 81.0724 869.616 81.338C869.787 81.1618 869.957 80.9876 870.126 80.8144C870.182 80.7356 870.21 80.665 870.244 80.5631C870.309 80.3773 870.634 79.9043 870.902 79.5145C871.024 79.3371 871.128 79.1846 871.183 79.0957C871.472 78.6244 871.327 78.7079 871.191 78.7913C871.119 78.834 871.052 78.8735 871.067 78.8149C871.073 78.79 871.045 78.8114 871.016 78.8329C870.994 78.8495 870.972 78.8666 870.965 78.8627C870.912 78.8344 871.074 78.5434 871.225 78.2703C871.311 78.1149 871.392 77.9682 871.427 77.8808C871.438 77.8542 871.445 77.8321 871.452 77.8113C871.461 77.7808 871.471 77.7513 871.491 77.7093C871.538 77.6129 871.662 77.4234 871.793 77.2221C871.86 77.1186 871.93 77.0113 871.993 76.9096C872.075 76.7794 872.092 76.7162 872.109 76.6532C872.12 76.6082 872.133 76.5614 872.17 76.4864C872.237 76.3498 872.404 76.1067 872.559 75.8803C872.629 75.7784 872.695 75.6809 872.749 75.5983C872.772 75.5646 872.78 75.5468 872.778 75.5401C872.87 75.4024 872.959 75.2688 873.046 75.1388C873.206 74.8989 873.357 74.671 873.501 74.4524C874.664 72.6822 875.685 71.1536 877.225 68.9388C877.511 68.5225 877.808 68.0539 878.063 67.5983C878.193 67.38 878.314 67.1662 878.41 66.9681C878.455 66.876 878.495 66.778 878.51 66.7305C878.518 66.7073 878.518 66.6968 878.516 66.7289C878.512 66.7536 878.524 66.866 878.541 66.9036C878.552 66.9302 878.572 66.9923 878.65 67.0849C878.724 67.1773 878.881 67.2777 879.004 67.3052C879.26 67.3555 879.283 67.2984 879.272 67.3101C879.236 67.3175 879.083 67.4012 878.951 67.4949C878.67 67.691 878.372 67.9459 878.079 68.2119C877.76 68.502 877.443 68.7884 877.124 69.0758C876.826 69.2786 876.474 69.5427 876.07 69.8654C875.309 70.4724 874.561 71.1317 873.677 71.9072C873.024 72.4809 872.297 73.1173 871.437 73.845C869.991 75.0687 868.524 76.335 866.902 77.8091C866.249 78.4024 865.562 79.0348 864.892 79.6589C863.909 80.5734 862.95 81.4787 862.187 82.2029C861.488 82.8671 860.725 83.5344 860.014 84.1572C859.014 85.0325 858.118 85.8197 857.65 86.3831C857.501 86.5627 857.37 86.7512 857.243 86.9343C857.153 87.0647 857.063 87.193 856.971 87.3137C856.678 87.5868 856.385 87.8602 856.092 88.1334C855.542 88.5892 854.706 89.3167 853.979 90.1032C853.678 90.3833 853.373 90.6682 853.082 90.9389C852.446 91.5325 851.82 92.1157 851.19 92.7018C850.985 92.8924 850.777 93.0863 850.569 93.2802C850.567 93.282 850.565 93.2838 850.563 93.2856C850.146 93.6739 849.719 94.0709 849.307 94.4534C849.125 94.6229 848.954 94.7813 848.773 94.9503C848.374 95.3201 847.964 95.7015 847.57 96.0654C847.518 96.1141 847.466 96.1621 847.415 96.2094C847.18 96.4264 846.939 96.649 846.697 96.8722C846.308 97.2311 845.916 97.5926 845.522 97.953C844.888 98.5323 844.255 99.1144 843.606 99.6757C843.498 99.7678 843.388 99.8515 843.298 99.9046C843.252 99.931 843.214 99.9498 843.171 99.9615C843.128 99.9802 843.052 99.9504 843.071 99.9452C843.089 99.9479 843.183 99.898 843.24 99.8275C843.309 99.7563 843.406 99.6605 843.509 99.5652C844.132 98.9821 844.743 98.374 845.354 97.7708C845.733 97.3956 846.111 97.0196 846.485 96.6461C846.718 96.414 846.95 96.1827 847.176 95.9565C847.225 95.9081 847.274 95.8591 847.324 95.8093C847.704 95.4295 848.101 95.0322 848.486 94.6466C848.661 94.4713 848.826 94.3062 849.002 94.1301C849.4 93.7313 849.813 93.3177 850.216 92.9135C850.219 92.911 850.221 92.9086 850.223 92.9061C850.423 92.706 850.623 92.5061 850.819 92.3093C851.427 91.7003 852.031 91.0945 852.647 90.4783C852.963 90.1608 853.297 89.8271 853.625 89.4983C853.81 89.3139 853.992 89.1317 854.171 88.9517C854.27 88.8535 854.37 88.7531 854.47 88.6533C856.769 86.3543 859.052 84.0747 861.369 81.7816C862.322 80.8386 863.278 79.8955 864.232 78.9631C865.6 77.6263 866.98 76.3022 868.366 74.9942C870.733 72.7591 873.13 70.5734 875.483 68.3514C875.966 67.8955 876.446 67.4379 876.925 66.9781C877.242 66.6761 877.559 66.3831 877.947 66.0955C878.143 65.9548 878.343 65.8088 878.667 65.6796C878.838 65.624 879.05 65.5271 879.45 65.6158C879.645 65.6622 879.86 65.7995 879.983 65.9494C880.11 66.0994 880.169 66.2393 880.208 66.3519C880.387 67.0103 880.164 67.3115 880.087 67.5644C879.98 67.8211 879.869 68.0365 879.757 68.2468C879.53 68.6686 879.293 69.0611 879.051 69.4516C878.568 70.2288 878.068 70.9837 877.563 71.7331C876.547 73.237 875.522 74.6965 874.47 76.1774C866.55 87.2321 858.405 98.1366 849.98 108.87C848.751 110.426 847.527 111.955 846.272 113.491C844.4 115.781 842.438 118.115 840.448 120.345C839.026 121.938 837.573 123.49 836.067 124.991C835.446 125.611 834.823 126.226 834.152 126.846C833.939 127.041 833.723 127.236 833.48 127.439C833.357 127.542 833.227 127.646 833.065 127.763C832.981 127.823 832.893 127.884 832.757 127.962C832.689 128 832.607 128.044 832.477 128.096C832.331 128.139 832.187 128.25 831.645 128.208C831.542 128.195 831.413 128.172 831.246 128.104C831.061 128.029 830.822 127.884 830.63 127.643C830.214 127.093 830.294 126.623 830.318 126.433C830.351 126.238 830.406 126.112 830.434 126.046C830.467 125.969 830.502 125.905 830.523 125.869C830.626 125.694 830.678 125.636 830.732 125.565C830.838 125.434 830.922 125.343 831.002 125.258C831.162 125.088 831.314 124.939 831.462 124.797Z" fill="#976C2C"/>
<path d="M362.402 387.794C360.568 390.294 358.318 397.064 361.902 402.794C363.947 406.064 369.29 408.266 376.318 408.445C378.228 408.494 380.265 408.307 382.402 407.794C385.402 406.628 392.902 404.994 398.902 407.794C400.111 408.018 401.666 408.201 403.318 408.24C407.814 408.347 413.024 407.39 413.902 403.294C414.068 402.128 412.602 399.494 405.402 398.294C403.568 397.794 399.502 395.994 397.902 392.794L393.902 387.794C393.358 387.062 392.688 386.293 391.902 385.536C383.902 387.329 376.568 393.455 373.902 396.294C370.702 399.894 371.902 401.461 372.902 401.794C377.302 402.594 379.068 399.794 379.402 398.294C380.202 393.894 384.402 391.461 386.402 390.794C387.735 390.461 390.602 389.994 391.402 390.794C392.202 391.594 390.402 393.128 389.402 393.794C388.902 393.961 387.202 395.394 384.402 399.794C381.602 404.194 377.235 404.961 375.402 404.794C368.602 404.394 363.902 400.294 362.402 398.294C366.402 395.894 377.402 385.378 382.402 380.42C376.863 379.28 367.818 380.064 362.402 387.794Z" fill="#525252"/>
<path d="M382.402 380.42C377.402 385.378 366.402 395.894 362.402 398.294C363.902 400.294 368.602 404.394 375.402 404.794C377.235 404.961 381.602 404.194 384.402 399.794C387.202 395.394 388.902 393.961 389.402 393.794C390.402 393.128 392.202 391.594 391.402 390.794C390.602 389.994 387.735 390.461 386.402 390.794C384.402 391.461 380.202 393.894 379.402 398.294C379.068 399.794 377.302 402.594 372.902 401.794C371.902 401.461 370.702 399.894 373.902 396.294C376.568 393.455 383.902 387.329 391.902 385.536C389.619 383.336 386.362 381.236 382.402 380.42Z" fill="#6A6B6B"/>
<path d="M398.902 407.794C392.902 404.994 385.402 406.628 382.402 407.794C380.265 408.307 378.228 408.494 376.318 408.445C384.318 410.526 400.918 413.397 403.318 408.24C401.666 408.201 400.111 408.018 398.902 407.794Z" fill="#77CC00"/>
</svg>
