<svg width="1440" height="480" viewBox="0 0 1440 480" fill="none" xmlns="http://www.w3.org/2000/svg">
<path d="M988.526 163.907C1005.65 185.61 977.245 216.527 960.903 229.273C970.632 223.927 989.902 218.661 989.152 240.359C988.402 262.057 960.132 273.596 946.091 276.654C994.574 282.62 1036.77 293.278 1051.8 297.861C1039.58 290.516 1022.08 256.081 1037.9 241.785C1050.55 230.348 1061.73 237.324 1065.74 242.241C1061.57 230.507 1063.39 210.755 1064.82 202.346C1066.72 193.616 1073.43 175.973 1084.99 175.246C1096.55 174.519 1101.44 191.688 1102.44 200.364C1106.4 190.213 1108.69 176.759 1109.34 171.3C1111.63 151.888 1099.91 142.16 1093.77 139.722C1082.85 134.616 1067.8 139.216 1061.65 142.154C1045.05 148.354 1030.95 166.998 1025.98 175.545C1032.88 162.409 1041.3 133.847 1019.75 124.686C998.197 115.525 978.997 139.547 972.091 152.704C977.875 154.163 983.541 157.587 988.526 163.907Z" fill="#3C6600"/>
<path fill-rule="evenodd" clip-rule="evenodd" d="M1146.29 108.994C1123.06 126.313 1109.19 189.06 1105.16 218.269C1107.5 209.417 1115.7 187.682 1129.77 171.555C1135.15 165.157 1149.82 154.61 1165.45 163.61C1181.07 172.61 1167.69 206.246 1159.05 221.939C1173.44 208.606 1204.44 187.089 1213.33 207.687C1222.23 228.285 1191.32 263.387 1174.75 278.364C1181.36 278.41 1195.74 281.459 1200.39 293.286C1206.2 308.07 1194.33 324.376 1173.92 327.227L1201.42 332.583C1203.75 320.626 1213.29 293.938 1232.83 282.848C1236.52 280.879 1245.39 278.221 1251.35 283.352C1258.79 289.765 1251.49 311.305 1238.54 326.781C1245.13 322.686 1259.09 316.26 1262.18 323.316C1266.05 332.137 1256.06 341.983 1239.35 344.935C1279.23 340.91 1297.96 311.667 1296.16 285.873C1294.71 265.237 1278.25 257.771 1270.2 256.617C1277.47 252.24 1288.34 238.678 1273.72 219.447C1259.1 200.216 1229.57 213.538 1216.63 222.603C1233.22 196.046 1222.44 181.121 1214.97 176.977C1231.25 151.808 1256.12 98.8571 1225.39 88.4046C1194.66 77.952 1159.86 97.7754 1146.29 108.994ZM1181.17 178.463C1183.59 183.898 1181.66 189.729 1180.4 191.965C1186.21 187.636 1188.51 180.098 1188.93 176.87C1189.15 173.604 1188.31 167.317 1183.15 168.298C1177.99 169.28 1179.68 175.484 1181.17 178.463ZM1188.06 194.077C1192.8 186.726 1202.96 174.267 1205.68 183.236C1208.4 192.206 1195.07 194.201 1188.06 194.077Z" fill="#3C6600"/>
<path fill-rule="evenodd" clip-rule="evenodd" d="M1105.16 218.269C1103.98 211.585 1102.85 203.547 1102.44 200.364C1101.44 191.688 1096.55 174.519 1084.99 175.246C1073.43 175.973 1066.72 193.616 1064.82 202.346C1063.39 210.755 1061.57 230.507 1065.74 242.241C1061.73 237.324 1050.55 230.348 1037.9 241.785C1022.08 256.081 1039.58 290.516 1051.8 297.861C1057.26 300.413 1074.81 305.031 1082.91 307.021C1084.75 308.258 1087.76 309.496 1091.5 310.697C1086.67 298.332 1079.13 269.052 1087.64 250.851C1089.57 247.297 1095.18 240.157 1102.16 240.026C1109.14 239.895 1110.53 250.138 1110.36 255.275C1110.3 259.815 1109.4 272.96 1106.23 289.223C1107.97 285.63 1112.84 277.602 1118.46 274.229C1120.17 272.906 1124.25 270.639 1126.93 272.155C1129.61 273.67 1128.56 278.677 1127.69 280.991C1126.47 284.063 1123.04 291.503 1119.05 296.684C1121.43 295.079 1127.15 291.435 1130.96 289.695C1133.74 288.168 1139.6 286.784 1140.78 293.468C1141.96 300.152 1125.82 311.862 1117.61 316.882C1125.57 318.385 1133.22 319.598 1138.64 320.358C1143.05 323.202 1154.43 324.26 1159.57 324.433L1173.92 327.227C1194.33 324.376 1206.2 308.07 1200.39 293.286C1195.74 281.459 1181.36 278.41 1174.75 278.364C1191.32 263.387 1222.23 228.285 1213.33 207.687C1204.44 187.089 1173.44 208.606 1159.05 221.939C1167.69 206.246 1181.07 172.61 1165.45 163.61C1149.82 154.61 1135.15 165.157 1129.77 171.555C1115.7 187.682 1107.5 209.417 1105.16 218.269ZM1120.73 249.847C1115.97 253.885 1115.21 261.184 1115.42 264.329C1127.82 259.297 1129.06 252.712 1128.13 250.049C1127.65 248.299 1125.48 245.809 1120.73 249.847Z" fill="#599900"/>
<path d="M830.894 151.206C814.458 151.48 809.79 167.161 809.511 174.967C808.325 186.155 809.997 200.091 810.981 205.661C815.081 222.843 819.482 233.174 821.17 236.192C830.582 254.78 840.762 259.865 849.598 259.104C858.434 258.342 865.741 262.247 869.328 262.946C870.053 263.087 871.338 263.285 872.942 263.511C865.118 253.76 849.38 230.267 849.013 214.309C848.645 198.351 856.349 192.57 860.247 191.674C863.503 189.826 871.468 190.136 877.284 206.162L882.86 222.141C883.985 216.362 887.542 203.195 892.766 196.766C895.219 193.727 901.538 188.049 907.185 189.645C912.831 191.241 914.683 200 914.904 204.18C914.614 209.915 912.669 225.216 907.203 240.535C909.807 235.663 917.119 226.579 925.543 229.213C928.217 230.354 931.836 235.775 924.923 248.329C921.861 253.429 914.388 264.823 908.991 269.596C912.921 270.681 916.783 271.966 920.033 273.441C929.611 277.788 941.396 277.394 946.091 276.654C960.132 273.596 988.402 262.057 989.152 240.359C989.902 218.661 970.632 223.927 960.903 229.273C977.245 216.527 1005.65 185.61 988.526 163.907C983.541 157.587 977.875 154.163 972.091 152.704C958.013 149.152 943.234 157.245 935.843 163.577C941.426 152.749 946.294 127.965 948.03 116.926C949.818 92.4511 934.963 84.18 927.312 83.1037C907.515 80.2413 891.711 90.6506 886.284 96.2131C859.146 115.751 854.455 156.622 855.502 174.615C854.148 166.698 847.33 150.932 830.894 151.206Z" fill="#77CC00"/>
<path d="M872.942 263.511C877.684 264.181 885.212 265.107 889.292 265.592C893.425 266.124 901.336 267.482 908.991 269.596C914.388 264.823 921.861 253.429 924.923 248.329C931.836 235.775 928.217 230.354 925.543 229.213C917.119 226.579 909.807 235.663 907.203 240.535C912.669 225.216 914.614 209.915 914.904 204.18C914.683 200 912.831 191.241 907.185 189.645C901.538 188.049 895.219 193.727 892.766 196.766C887.542 203.195 883.985 216.362 882.86 222.141L877.284 206.162C871.468 190.136 863.503 189.826 860.247 191.674C856.349 192.57 848.645 198.351 849.013 214.309C849.38 230.267 865.118 253.76 872.942 263.511Z" fill="#AAFF33"/>
<path d="M1087.64 250.851C1079.13 269.052 1086.67 298.332 1091.5 310.697C1098.6 312.978 1108.32 315.128 1117.61 316.882C1125.82 311.862 1141.96 300.152 1140.78 293.468C1139.6 286.784 1133.74 288.168 1130.96 289.695C1127.15 291.435 1121.43 295.079 1119.05 296.684C1123.04 291.503 1126.47 284.063 1127.69 280.991C1128.56 278.677 1129.61 273.67 1126.93 272.155C1124.25 270.639 1120.17 272.906 1118.46 274.229C1112.84 277.602 1107.97 285.63 1106.23 289.223C1109.4 272.96 1110.3 259.815 1110.36 255.275C1110.53 250.138 1109.14 239.895 1102.16 240.026C1095.18 240.157 1089.57 247.297 1087.64 250.851Z" fill="#BFFF66"/>
<path d="M1115.42 264.329C1115.21 261.184 1115.97 253.885 1120.73 249.847C1125.48 245.809 1127.65 248.299 1128.13 250.049C1129.06 252.712 1127.82 259.297 1115.42 264.329Z" fill="#BFFF66"/>
<path d="M1201.42 332.583C1204.04 339.547 1227.8 343.719 1239.35 344.935C1256.06 341.983 1266.05 332.137 1262.18 323.316C1259.09 316.26 1245.13 322.686 1238.54 326.781C1251.49 311.305 1258.79 289.765 1251.35 283.352C1245.39 278.221 1236.52 280.879 1232.83 282.848C1213.29 293.938 1203.75 320.626 1201.42 332.583Z" fill="#AAFF33"/>
<path d="M1282.48 250.94C1284.46 249.258 1288.3 244.627 1287.8 239.565C1287.11 236.741 1286.94 230.585 1291.8 228.554C1296.67 226.522 1298.31 232.304 1298.53 235.449C1298.71 238.793 1295.74 246.572 1282.48 250.94Z" fill="#AAFF33"/>
<path d="M1287.88 255.094C1290.73 253.168 1297.65 250.792 1302.46 256.693C1304.54 258.753 1307.46 263.5 1302.51 266.01C1297.55 268.52 1295.65 264.054 1295.32 261.507C1294.43 259.68 1291.7 255.839 1287.88 255.094Z" fill="#AAFF33"/>
<path d="M1188.06 194.077C1192.8 186.726 1202.96 174.267 1205.68 183.236C1208.4 192.206 1195.07 194.201 1188.06 194.077Z" fill="#77CC00"/>
<path d="M1180.4 191.965C1181.66 189.729 1183.59 183.898 1181.17 178.463C1179.68 175.484 1177.99 169.28 1183.15 168.298C1188.31 167.317 1189.15 173.604 1188.93 176.87C1188.51 180.098 1186.21 187.636 1180.4 191.965Z" fill="#77CC00"/>
<path d="M1091.45 129.341C1094.45 125.582 1099.91 116.468 1097.68 110.076C1096.78 105.143 1096.57 94.7189 1102.97 92.4885C1110.96 89.7005 1115.65 97.4415 1114.61 102.823C1113.56 108.204 1112.53 116.691 1091.45 129.341Z" fill="#77CC00"/>
<path d="M449.604 141.987C431.24 162.648 457.781 195.177 473.347 208.859C463.948 202.952 445.02 196.565 444.497 218.27C443.973 239.974 471.517 253.152 485.355 257.027C436.605 260.14 393.861 268.305 378.583 271.999C391.215 265.383 410.7 232.033 395.75 216.835C383.79 204.676 372.223 210.984 367.934 215.658C372.784 204.189 372.126 184.364 371.191 175.885C369.799 167.058 364.141 149.053 352.644 147.649C341.146 146.245 335.259 163.098 333.752 171.7C330.391 161.335 328.895 147.769 328.567 142.282C327.418 122.769 339.685 113.744 345.962 111.671C357.163 107.215 371.912 112.689 377.887 115.983C394.092 123.146 407.072 142.584 411.537 151.407C405.417 137.89 398.689 108.883 420.739 101.002C442.788 93.1201 460.546 118.227 466.668 131.766C460.809 132.883 454.952 135.97 449.604 141.987Z" fill="#3C6600"/>
<path fill-rule="evenodd" clip-rule="evenodd" d="M295.328 77.9155C317.503 96.5678 327.674 160.021 329.988 189.415C328.167 180.441 321.251 158.262 308.158 141.338C303.16 134.635 289.131 123.246 273.007 131.314C256.883 139.383 268.264 173.745 275.97 189.918C262.39 175.764 232.706 152.467 222.617 172.508C212.528 192.548 241.33 229.403 256.993 245.326C250.391 244.984 235.854 247.185 230.522 258.719C223.856 273.136 234.743 290.111 254.954 294.154L227.184 297.888C225.56 285.814 217.601 258.612 198.749 246.397C195.178 244.214 186.474 241.041 180.233 245.814C172.43 251.779 178.452 273.71 190.465 289.918C184.127 285.444 170.576 278.211 167.074 285.074C162.696 293.652 172.086 304.067 188.594 307.994C149.019 301.637 132.039 271.346 135.352 245.702C138.002 225.187 154.871 218.698 162.974 218.019C155.978 213.223 145.918 199.047 161.645 180.706C177.371 162.366 206.066 177.397 218.447 187.204C203.443 159.721 215.087 145.453 222.784 141.755C208.01 115.675 186.283 61.3561 217.574 52.7235C248.864 44.091 282.448 65.9213 295.328 77.9155ZM256.439 145.22C253.708 150.504 255.284 156.438 256.414 158.744C250.87 154.081 249.02 146.422 248.789 143.175C248.758 139.902 249.97 133.675 255.059 134.957C260.148 136.239 258.099 142.333 256.439 145.22ZM248.647 160.403C244.345 152.787 234.93 139.753 231.688 148.548C228.445 157.343 241.643 160.116 248.647 160.403Z" fill="#3C6600"/>
<path fill-rule="evenodd" clip-rule="evenodd" d="M329.988 189.415C331.558 182.812 333.152 174.854 333.752 171.7C335.259 163.098 341.146 146.245 352.644 147.649C364.141 149.053 369.799 167.058 371.191 175.885C372.126 184.364 372.784 204.189 367.934 215.658C372.223 210.984 383.79 204.676 395.75 216.835C410.7 232.033 391.215 265.383 378.583 271.999C372.983 274.227 355.19 277.808 346.994 279.319C345.081 280.446 342.001 281.505 338.2 282.485C343.749 270.424 352.989 241.637 345.562 222.968C343.841 219.307 338.659 211.85 331.703 211.311C324.747 210.771 322.751 220.914 322.622 226.053C322.413 230.588 322.545 243.764 324.753 260.184C323.233 256.496 318.839 248.196 313.425 244.498C311.8 243.078 307.858 240.576 305.09 241.932C302.322 243.287 303.084 248.347 303.812 250.708C304.848 253.846 307.841 261.475 311.518 266.881C309.235 265.139 303.743 261.165 300.037 259.205C297.352 257.518 291.589 255.793 290.018 262.396C288.448 268.999 303.866 281.636 311.772 287.128C303.739 288.162 296.034 288.924 290.571 289.365C286.002 291.946 274.581 292.334 269.442 292.206L254.954 294.154C234.743 290.111 223.856 273.136 230.522 258.719C235.854 247.185 250.391 244.984 256.993 245.326C241.33 229.403 212.528 192.548 222.617 172.508C232.706 152.467 262.39 175.764 275.97 189.918C268.264 173.745 256.883 139.383 273.007 131.314C289.131 123.246 303.16 134.635 308.158 141.338C321.251 158.262 328.167 180.441 329.988 189.415ZM312.593 220.026C317.106 224.336 317.436 231.667 317.037 234.794C304.955 229.043 304.102 222.397 305.186 219.793C305.775 218.075 308.08 215.716 312.593 220.026Z" fill="#599900"/>
<path d="M607.71 138.551C624.102 139.788 627.842 155.716 627.663 163.525C628.191 174.763 625.705 188.577 624.396 194.08C619.295 210.991 614.296 221.047 612.434 223.96C601.948 241.964 591.488 246.444 582.711 245.166C573.935 243.887 566.412 247.357 562.79 247.844C562.057 247.943 560.763 248.065 559.149 248.197C567.531 238.921 584.62 216.391 585.922 200.482C587.225 184.573 579.873 178.351 576.035 177.228C572.893 175.192 564.923 175.034 558.178 190.692L551.674 206.317C550.89 200.481 548.111 187.129 543.273 180.404C541.002 177.226 535.027 171.187 529.297 172.449C523.566 173.712 521.204 182.347 520.739 186.507C520.692 192.249 521.736 207.638 526.294 223.251C523.981 218.235 517.213 208.738 508.65 210.873C505.914 211.855 501.983 217.055 508.148 229.993C510.905 235.264 517.697 247.076 522.806 252.157C518.819 253.01 514.888 254.066 511.557 255.348C501.74 259.126 489.999 258.042 485.355 257.027C471.517 253.152 443.973 239.974 444.497 218.27C445.02 196.565 463.948 202.952 473.347 208.859C457.781 195.177 431.24 162.648 449.604 141.987C454.952 135.97 460.809 132.883 466.668 131.766C480.93 129.046 495.21 137.992 502.217 144.746C497.278 133.61 493.871 108.582 492.786 97.4603C492.436 72.923 507.751 65.5373 515.452 64.9115C535.383 63.2149 550.549 74.533 555.64 80.4042C581.586 101.5 583.872 142.576 581.772 160.477C583.588 152.652 591.318 137.313 607.71 138.551Z" fill="#3C6600"/>
<path d="M559.149 248.197C554.376 248.588 546.806 249.071 542.706 249.316C538.548 249.604 530.571 250.495 522.806 252.157C517.697 247.076 510.905 235.264 508.148 229.993C501.983 217.055 505.914 211.855 508.65 210.873C517.213 208.738 523.981 218.235 526.294 223.251C521.736 207.638 520.692 192.249 520.739 186.507C521.204 182.347 523.566 173.712 529.297 172.449C535.027 171.187 541.002 177.226 543.273 180.404C548.111 187.129 550.89 200.481 551.674 206.317L558.178 190.692C564.923 175.034 572.893 175.192 576.035 177.228C579.873 178.351 587.225 184.573 585.922 200.482C584.62 216.391 567.531 238.921 559.149 248.197Z" fill="#77CC00"/>
<path d="M345.562 222.968C352.989 241.637 343.749 270.424 338.2 282.485C330.979 284.346 321.152 285.922 311.772 287.128C303.866 281.636 288.448 268.999 290.018 262.396C291.589 255.793 297.352 257.518 300.037 259.205C303.743 261.165 309.235 265.139 311.518 266.881C307.841 261.475 304.848 253.846 303.812 250.708C303.084 248.347 302.322 243.287 305.09 241.932C307.858 240.576 311.8 243.078 313.425 244.498C318.839 248.196 323.233 256.496 324.753 260.184C322.545 243.764 322.413 230.588 322.622 226.053C322.751 220.914 324.747 210.771 331.703 211.311C338.659 211.85 343.841 219.307 345.562 222.968Z" fill="#BFFF66"/>
<path d="M317.037 234.794C317.436 231.667 317.106 224.336 312.593 220.026C308.08 215.716 305.775 218.075 305.186 219.793C304.102 222.397 304.955 229.043 317.037 234.794Z" fill="#BFFF66"/>
<path d="M227.184 297.888C224.165 304.686 200.199 307.457 188.594 307.994C172.086 304.067 162.696 293.652 167.074 285.074C170.576 278.211 184.127 285.444 190.465 289.918C178.452 273.71 172.43 251.779 180.233 245.814C186.474 241.041 195.178 244.214 198.749 246.397C217.601 258.612 225.56 285.814 227.184 297.888Z" fill="#AAFF33"/>
<path d="M151.052 211.632C149.172 209.836 145.611 204.988 146.41 199.964C147.266 197.185 147.793 191.05 143.057 188.737C138.321 186.424 136.339 192.099 135.94 195.226C135.568 198.554 138.069 206.494 151.052 211.632Z" fill="#AAFF33"/>
<path d="M145.421 215.462C142.682 213.372 135.916 210.594 130.77 216.203C128.572 218.137 125.376 222.705 130.177 225.502C134.978 228.298 137.139 223.951 137.619 221.428C138.61 219.656 141.558 215.981 145.421 215.462Z" fill="#AAFF33"/>
<path d="M248.647 160.403C244.345 152.787 234.93 139.753 231.688 148.548C228.445 157.343 241.643 160.116 248.647 160.403Z" fill="#77CC00"/>
<path d="M256.414 158.744C255.284 156.438 253.708 150.504 256.439 145.22C258.099 142.333 260.148 136.239 255.059 134.957C249.97 133.675 248.758 139.902 248.789 143.175C249.02 146.422 250.87 154.081 256.414 158.744Z" fill="#77CC00"/>
<path d="M348.889 101.444C346.108 97.5157 341.194 88.0968 343.796 81.8468C344.985 76.975 345.799 66.581 339.55 63.9796C331.737 60.7279 326.593 68.18 327.324 73.6133C328.054 79.0466 328.587 87.5794 348.889 101.444Z" fill="#77CC00"/>
<ellipse cx="707.5" cy="569.113" rx="864.5" ry="334.5" fill="#BDFF61"/>
<path d="M843.888 308.705C862.842 277.388 902.701 211.703 910.499 199.497M910.499 199.497C918.297 187.291 942.45 169.251 953.552 161.756M910.499 199.497L929.995 193.876C935.139 187.987 947.053 176.049 953.552 175.407M910.499 199.497C913.748 191.467 919.272 173.64 915.373 166.574" stroke="#976C00" stroke-width="12.7354" stroke-linecap="round"/>
<path d="M874.502 269.547C858.889 219.54 827.188 157.725 778.09 120.084C761.641 107.472 727.397 81.6122 685.424 89.9262C675.051 90.3207 663.569 96.2747 654.147 100.866C642.847 115.323 623.636 155.688 637.197 201.501C654.147 258.767 695.312 305.548 707.42 359.588C719.527 413.628 708.227 482.186 684.012 519.288L864.816 512.029C884.995 452.638 899.524 349.691 874.502 269.547Z" fill="#FDCE25"/>
<path d="M637.197 364.428C633.322 421.21 597.915 501.544 580.695 534.613L684.012 519.288C708.227 482.186 719.527 413.628 707.42 359.588C695.312 305.548 654.147 258.767 637.197 201.501C623.636 155.688 642.847 115.323 654.147 100.866C648.211 103.759 642.532 107.598 637.197 112.523C626.803 122.117 617.712 135.834 610.56 154.72C576.66 244.249 637.197 315.227 637.197 364.428Z" fill="#F3BE00"/>
<path d="M667.869 38.5747C661.411 29.7025 625.089 43.4141 618.632 47.4469C634.129 60.352 648.766 88.4371 654.147 100.866C663.569 96.2747 675.051 90.3207 685.424 89.9262C682.196 74.5186 673.034 45.6725 667.869 38.5747Z" fill="#976C00"/>
<path d="M599.26 85.3556C614.112 87.9366 630.739 104.542 637.197 112.523C642.532 107.598 648.211 103.759 654.147 100.866C648.766 88.4371 634.129 60.352 618.632 47.4469C612.175 51.4798 580.695 82.1293 599.26 85.3556Z" fill="#7E5A00"/>
<path d="M689.093 357.045C691.925 363.983 697.985 381.294 698.005 410.68C698.013 423.141 695.2 437.509 691.223 448.999C689.696 452.215 687.418 456.661 683.827 463.143C680.236 469.626 675.4 478.011 670.419 486.651" stroke="#CCA000" stroke-width="4.19996" stroke-linecap="round"/>
<path d="M774.708 242.361C768.027 244.183 750.189 242.361 747.379 246.916C744.57 251.47 754.646 259.905 759.542 263.616C762.32 261.339 769.697 256.632 776.985 256.025C784.272 255.418 790.599 257.29 792.851 258.302C795.427 249.444 793.728 236.787 791.408 230.215C788.625 233.504 781.388 240.539 774.708 242.361Z" fill="#B78F00"/>
<path d="M789.131 265.134C790.851 263.414 792.055 261.04 792.851 258.302C790.599 257.29 784.272 255.418 776.985 256.025C769.697 256.632 762.32 261.339 759.542 263.616C770.017 271.557 782.923 271.342 789.131 265.134Z" fill="#7C5800"/>
<rect x="694.506" y="210.604" width="28.8046" height="43.2069" rx="14.4023" transform="rotate(-24.3716 694.506 210.604)" fill="black"/>
<circle cx="710.522" cy="213.215" r="7.8558" fill="white"/>
<circle cx="722.96" cy="236.13" r="5.89185" fill="white"/>
<rect x="775.206" y="183.166" width="28.8046" height="43.2069" rx="14.4023" transform="rotate(-24.3716 775.206 183.166)" fill="black"/>
<circle cx="791.222" cy="185.778" r="7.8558" fill="white"/>
<circle cx="803.66" cy="208.693" r="5.89185" fill="white"/>
<ellipse cx="826.427" cy="227.282" rx="16.947" ry="8.87698" transform="rotate(-19.5668 826.427 227.282)" fill="#FF779A"/>
<ellipse cx="718.289" cy="266.019" rx="16.947" ry="8.87698" transform="rotate(-19.5668 718.289 266.019)" fill="#FF779A"/>
<path d="M668.746 344.189C639.058 322.654 576.696 277.527 564.75 269.295M564.75 269.295C552.803 261.063 523.613 253.827 510.51 251.238M564.75 269.295L544.72 271.716C537.694 268.284 522.094 261.907 515.904 263.852M564.75 269.295C558.609 263.144 546.519 248.829 547.288 240.777" stroke="#976C00" stroke-width="12.7354" stroke-linecap="round"/>
<path opacity="0.8" d="M659.966 211.1C648.883 187.335 636.886 133.996 677.558 110.755M870.431 343.17C872.583 359.579 874.143 401.113 863.168 435.975M643.752 412.886L634.068 456.464" stroke="white" stroke-width="8" stroke-linecap="round"/>
<circle cx="924.936" cy="62.3408" r="46.4683" transform="rotate(4 924.936 62.3408)" fill="#FBB00B"/>
<ellipse cx="919.718" cy="61.9738" rx="43.0832" ry="46.4683" transform="rotate(4 919.718 61.9738)" fill="#FEDF48"/>
<g filter="url(#filter0_i_506_547)">
<ellipse cx="919.696" cy="62.2798" rx="35.6975" ry="36.9285" transform="rotate(4 919.696 62.2798)" fill="#FDCE25"/>
</g>
<path d="M918.379 72.6968C917.085 72.6063 915.899 72.2854 914.821 71.7339C913.761 71.1837 912.859 70.4615 912.116 69.5672C911.392 68.656 910.888 67.6228 910.602 66.4676L913.785 65.3444C914.195 66.5449 914.841 67.5148 915.723 68.2539C916.607 68.9749 917.632 69.3761 918.798 69.4577C919.454 69.5035 920.026 69.4428 920.513 69.2755C921.021 69.0913 921.415 68.8259 921.695 68.4793C921.994 68.134 922.161 67.7062 922.197 67.196C922.239 66.5947 922.091 66.09 921.753 65.6819C921.435 65.2568 920.928 64.9101 920.233 64.6417L916.413 63.1112C914.862 62.5083 913.72 61.6869 912.987 60.6469C912.254 59.6069 911.934 58.4218 912.027 57.0917C912.109 55.9255 912.463 54.9158 913.09 54.0624C913.736 53.2104 914.586 52.574 915.641 52.1534C916.715 51.7158 917.917 51.5436 919.247 51.6366C920.468 51.7219 921.574 52.0189 922.563 52.5276C923.554 53.018 924.388 53.6714 925.063 54.4877C925.758 55.287 926.252 56.2096 926.545 57.2554L923.388 58.408C923.059 57.3595 922.512 56.534 921.749 55.9313C920.986 55.3104 920.077 54.963 919.02 54.8891C918.4 54.8457 917.846 54.9168 917.357 55.1024C916.869 55.2697 916.475 55.5351 916.175 55.8986C915.895 56.2452 915.737 56.6736 915.701 57.1838C915.661 57.7486 915.809 58.2625 916.143 58.7253C916.478 59.1698 917.01 59.5367 917.741 59.8258L921.403 61.2629C922.988 61.9047 924.149 62.7183 924.885 63.7036C925.64 64.6903 925.97 65.8669 925.875 67.2335C925.793 68.3996 925.42 69.4081 924.757 70.2589C924.093 71.1097 923.215 71.7532 922.122 72.1895C921.03 72.6258 919.782 72.7949 918.379 72.6968ZM916.899 75.0102L918.705 49.1817L921.028 49.3441L919.222 75.1727L916.899 75.0102Z" fill="#F7A508"/>
<circle cx="554.722" cy="166.37" r="33.0052" transform="rotate(4 554.722 166.37)" fill="#FBB00B"/>
<ellipse cx="551.015" cy="166.11" rx="30.6009" ry="33.0052" transform="rotate(4 551.015 166.11)" fill="#FEDF48"/>
<g filter="url(#filter1_i_506_547)">
<ellipse cx="551" cy="166.327" rx="25.355" ry="26.2293" transform="rotate(4 551 166.327)" fill="#FDCE25"/>
</g>
<path d="M550.127 172.839C549.208 172.775 548.366 172.547 547.6 172.155C546.847 171.764 546.206 171.251 545.678 170.616C545.165 169.969 544.806 169.235 544.603 168.414L546.864 167.617C547.155 168.469 547.614 169.158 548.241 169.683C548.868 170.195 549.596 170.48 550.424 170.538C550.89 170.571 551.296 170.528 551.643 170.409C552.003 170.278 552.283 170.089 552.482 169.843C552.695 169.598 552.813 169.294 552.839 168.932C552.869 168.505 552.764 168.146 552.524 167.856C552.298 167.554 551.938 167.308 551.444 167.118L548.73 166.03C547.629 165.602 546.818 165.019 546.297 164.28C545.777 163.541 545.549 162.7 545.615 161.755C545.673 160.927 545.925 160.209 546.371 159.603C546.829 158.998 547.433 158.546 548.182 158.247C548.945 157.937 549.799 157.814 550.744 157.88C551.611 157.941 552.396 158.152 553.099 158.513C553.803 158.862 554.395 159.326 554.874 159.905C555.368 160.473 555.719 161.128 555.927 161.871L553.685 162.69C553.451 161.945 553.063 161.359 552.52 160.931C551.979 160.49 551.333 160.243 550.582 160.191C550.142 160.16 549.748 160.21 549.401 160.342C549.055 160.461 548.775 160.649 548.562 160.908C548.362 161.154 548.25 161.458 548.225 161.82C548.197 162.222 548.301 162.587 548.538 162.915C548.776 163.231 549.155 163.492 549.674 163.697L552.275 164.718C553.401 165.174 554.225 165.751 554.748 166.451C555.285 167.152 555.519 167.988 555.451 168.958C555.393 169.787 555.128 170.503 554.657 171.107C554.185 171.712 553.562 172.169 552.786 172.479C552.01 172.788 551.123 172.909 550.127 172.839ZM549.076 174.482L550.358 156.137L552.009 156.252L550.726 174.597L549.076 174.482Z" fill="#F7A508"/>
<circle cx="985.701" cy="311.126" r="33.0052" transform="rotate(4 985.701 311.126)" fill="#FBB00B"/>
<ellipse cx="981.994" cy="310.866" rx="30.6009" ry="33.0052" transform="rotate(4 981.994 310.866)" fill="#FEDF48"/>
<g filter="url(#filter2_i_506_547)">
<ellipse cx="981.979" cy="311.083" rx="25.355" ry="26.2293" transform="rotate(4 981.979 311.083)" fill="#FDCE25"/>
</g>
<path d="M981.106 317.595C980.187 317.53 979.345 317.302 978.579 316.911C977.826 316.52 977.185 316.007 976.657 315.372C976.144 314.725 975.785 313.991 975.582 313.17L977.843 312.372C978.134 313.225 978.593 313.914 979.22 314.439C979.847 314.951 980.575 315.236 981.403 315.294C981.869 315.327 982.275 315.284 982.622 315.165C982.982 315.034 983.262 314.845 983.461 314.599C983.674 314.354 983.792 314.05 983.818 313.688C983.848 313.261 983.743 312.902 983.503 312.612C983.277 312.31 982.917 312.064 982.423 311.873L979.709 310.786C978.608 310.358 977.797 309.775 977.276 309.036C976.756 308.297 976.528 307.456 976.594 306.511C976.652 305.683 976.904 304.965 977.35 304.359C977.808 303.754 978.412 303.302 979.161 303.003C979.924 302.693 980.778 302.57 981.723 302.636C982.59 302.697 983.375 302.908 984.078 303.269C984.782 303.617 985.374 304.082 985.853 304.661C986.347 305.229 986.698 305.884 986.906 306.627L984.664 307.446C984.43 306.701 984.042 306.115 983.499 305.687C982.958 305.246 982.312 304.999 981.561 304.946C981.121 304.916 980.727 304.966 980.38 305.098C980.034 305.217 979.754 305.405 979.541 305.663C979.341 305.91 979.229 306.214 979.204 306.576C979.176 306.977 979.28 307.342 979.517 307.671C979.755 307.987 980.134 308.247 980.653 308.453L983.254 309.474C984.38 309.929 985.204 310.507 985.727 311.207C986.264 311.908 986.498 312.744 986.43 313.714C986.372 314.543 986.107 315.259 985.636 315.863C985.164 316.467 984.541 316.925 983.765 317.234C982.989 317.544 982.102 317.664 981.106 317.595ZM980.055 319.238L981.337 300.893L982.988 301.008L981.705 319.353L980.055 319.238Z" fill="#F7A508"/>
<defs>
<filter id="filter0_i_506_547" x="883.991" y="25.3555" width="71.4104" height="73.8477" filterUnits="userSpaceOnUse" color-interpolation-filters="sRGB">
<feFlood flood-opacity="0" result="BackgroundImageFix"/>
<feBlend mode="normal" in="SourceGraphic" in2="BackgroundImageFix" result="shape"/>
<feColorMatrix in="SourceAlpha" type="matrix" values="0 0 0 0 0 0 0 0 0 0 0 0 0 0 0 0 0 0 127 0" result="hardAlpha"/>
<feOffset dx="5.05467" dy="3.05262"/>
<feComposite in2="hardAlpha" operator="arithmetic" k2="-1" k3="1"/>
<feColorMatrix type="matrix" values="0 0 0 0 0.964706 0 0 0 0 0.635294 0 0 0 0 0.0235294 0 0 0 1 0"/>
<feBlend mode="normal" in2="shape" result="effect1_innerShadow_506_547"/>
</filter>
<filter id="filter1_i_506_547" x="525.64" y="140.1" width="50.7209" height="52.4531" filterUnits="userSpaceOnUse" color-interpolation-filters="sRGB">
<feFlood flood-opacity="0" result="BackgroundImageFix"/>
<feBlend mode="normal" in="SourceGraphic" in2="BackgroundImageFix" result="shape"/>
<feColorMatrix in="SourceAlpha" type="matrix" values="0 0 0 0 0 0 0 0 0 0 0 0 0 0 0 0 0 0 127 0" result="hardAlpha"/>
<feOffset dx="3.59019" dy="2.1682"/>
<feComposite in2="hardAlpha" operator="arithmetic" k2="-1" k3="1"/>
<feColorMatrix type="matrix" values="0 0 0 0 0.964706 0 0 0 0 0.635294 0 0 0 0 0.0235294 0 0 0 1 0"/>
<feBlend mode="normal" in2="shape" result="effect1_innerShadow_506_547"/>
</filter>
<filter id="filter2_i_506_547" x="956.619" y="284.855" width="50.7209" height="52.4531" filterUnits="userSpaceOnUse" color-interpolation-filters="sRGB">
<feFlood flood-opacity="0" result="BackgroundImageFix"/>
<feBlend mode="normal" in="SourceGraphic" in2="BackgroundImageFix" result="shape"/>
<feColorMatrix in="SourceAlpha" type="matrix" values="0 0 0 0 0 0 0 0 0 0 0 0 0 0 0 0 0 0 127 0" result="hardAlpha"/>
<feOffset dx="3.59019" dy="2.1682"/>
<feComposite in2="hardAlpha" operator="arithmetic" k2="-1" k3="1"/>
<feColorMatrix type="matrix" values="0 0 0 0 0.964706 0 0 0 0 0.635294 0 0 0 0 0.0235294 0 0 0 1 0"/>
<feBlend mode="normal" in2="shape" result="effect1_innerShadow_506_547"/>
</filter>
</defs>
</svg>
