<svg width="1440" height="481" viewBox="0 0 1440 481" fill="none" xmlns="http://www.w3.org/2000/svg">
<path d="M988.526 164.614C1005.65 186.317 977.245 217.234 960.903 229.98C970.632 224.634 989.902 219.368 989.152 241.066C988.402 262.764 960.132 274.303 946.091 277.361C994.574 283.327 1036.77 293.985 1051.8 298.568C1039.58 291.223 1022.08 256.788 1037.9 242.492C1050.55 231.055 1061.73 238.031 1065.74 242.948C1061.57 231.214 1063.39 211.462 1064.82 203.053C1066.72 194.323 1073.43 176.681 1084.99 175.953C1096.55 175.226 1101.44 192.395 1102.44 201.071C1106.4 190.92 1108.69 177.466 1109.34 172.007C1111.63 152.595 1099.91 142.867 1093.77 140.429C1082.85 135.323 1067.8 139.923 1061.65 142.861C1045.05 149.061 1030.95 167.705 1025.98 176.252C1032.88 163.116 1041.3 134.554 1019.75 125.393C998.197 116.232 978.997 140.254 972.091 153.411C977.875 154.87 983.541 158.294 988.526 164.614Z" fill="#3C6600"/>
<path fill-rule="evenodd" clip-rule="evenodd" d="M1146.29 109.701C1123.06 127.02 1109.19 189.768 1105.16 218.976C1107.5 210.124 1115.7 188.389 1129.77 172.262C1135.15 165.864 1149.82 155.317 1165.45 164.317C1181.07 173.317 1167.69 206.953 1159.05 222.646C1173.44 209.313 1204.44 187.796 1213.33 208.394C1222.23 228.992 1191.32 264.094 1174.75 279.071C1181.36 279.117 1195.74 282.166 1200.39 293.993C1206.2 308.777 1194.33 325.083 1173.92 327.934L1201.42 333.29C1203.75 321.333 1213.29 294.645 1232.83 283.555C1236.52 281.586 1245.39 278.928 1251.35 284.059C1258.79 290.472 1251.49 312.012 1238.54 327.488C1245.13 323.393 1259.09 316.967 1262.18 324.023C1266.05 332.844 1256.06 342.69 1239.35 345.642C1279.23 341.617 1297.96 312.374 1296.16 286.58C1294.71 265.944 1278.25 258.478 1270.2 257.324C1277.47 252.947 1288.34 239.385 1273.72 220.154C1259.1 200.923 1229.57 214.245 1216.63 223.31C1233.22 196.753 1222.44 181.828 1214.97 177.685C1231.25 152.515 1256.12 99.5642 1225.39 89.1116C1194.66 78.659 1159.86 98.4824 1146.29 109.701ZM1181.17 179.17C1183.59 184.605 1181.66 190.436 1180.4 192.672C1186.21 188.343 1188.51 180.805 1188.93 177.577C1189.15 174.311 1188.31 168.024 1183.15 169.005C1177.99 169.987 1179.68 176.191 1181.17 179.17ZM1188.06 194.784C1192.8 187.433 1202.96 174.974 1205.68 183.943C1208.4 192.913 1195.07 194.908 1188.06 194.784Z" fill="#3C6600"/>
<path fill-rule="evenodd" clip-rule="evenodd" d="M1105.16 218.976C1103.98 212.292 1102.85 204.254 1102.44 201.071C1101.44 192.395 1096.55 175.226 1084.99 175.953C1073.43 176.681 1066.72 194.323 1064.82 203.053C1063.39 211.462 1061.57 231.214 1065.74 242.948C1061.73 238.031 1050.55 231.055 1037.9 242.492C1022.08 256.788 1039.58 291.223 1051.8 298.568C1057.26 301.12 1074.81 305.738 1082.91 307.728C1084.75 308.965 1087.76 310.203 1091.5 311.404C1086.67 299.039 1079.13 269.759 1087.64 251.558C1089.57 248.004 1095.18 240.864 1102.16 240.733C1109.14 240.602 1110.53 250.845 1110.36 255.982C1110.3 260.522 1109.4 273.667 1106.23 289.93C1107.97 286.338 1112.84 278.309 1118.46 274.936C1120.17 273.613 1124.25 271.346 1126.93 272.862C1129.61 274.378 1128.56 279.384 1127.69 281.698C1126.47 284.771 1123.04 292.21 1119.05 297.391C1121.43 295.786 1127.15 292.142 1130.96 290.402C1133.74 288.875 1139.6 287.492 1140.78 294.175C1141.96 300.859 1125.82 312.57 1117.61 317.589C1125.57 319.092 1133.22 320.305 1138.64 321.065C1143.05 323.909 1154.43 324.967 1159.57 325.14L1173.92 327.934C1194.33 325.083 1206.2 308.777 1200.39 293.993C1195.74 282.166 1181.36 279.117 1174.75 279.071C1191.32 264.094 1222.23 228.992 1213.33 208.394C1204.44 187.796 1173.44 209.313 1159.05 222.646C1167.69 206.953 1181.07 173.317 1165.45 164.317C1149.82 155.317 1135.15 165.864 1129.77 172.262C1115.7 188.389 1107.5 210.124 1105.16 218.976ZM1120.73 250.554C1115.97 254.592 1115.21 261.891 1115.42 265.036C1127.82 260.004 1129.06 253.419 1128.13 250.756C1127.65 249.006 1125.48 246.516 1120.73 250.554Z" fill="#599900"/>
<path d="M830.894 151.913C814.458 152.187 809.79 167.868 809.511 175.674C808.325 186.862 809.997 200.798 810.981 206.368C815.081 223.55 819.482 233.881 821.17 236.899C830.582 255.487 840.762 260.572 849.598 259.811C858.434 259.049 865.741 262.954 869.328 263.653C870.053 263.794 871.338 263.992 872.942 264.218C865.118 254.467 849.38 230.974 849.013 215.016C848.645 199.058 856.349 193.277 860.247 192.381C863.503 190.533 871.468 190.843 877.284 206.869L882.86 222.848C883.985 217.069 887.542 203.902 892.766 197.473C895.219 194.434 901.538 188.756 907.185 190.352C912.831 191.948 914.683 200.707 914.904 204.887C914.614 210.622 912.669 225.923 907.203 241.242C909.807 236.37 917.119 227.286 925.543 229.92C928.217 231.061 931.836 236.482 924.923 249.036C921.861 254.137 914.388 265.53 908.991 270.303C912.921 271.388 916.783 272.673 920.033 274.148C929.611 278.495 941.396 278.101 946.091 277.361C960.132 274.303 988.402 262.764 989.152 241.066C989.902 219.368 970.632 224.634 960.903 229.98C977.245 217.234 1005.65 186.317 988.526 164.614C983.541 158.294 977.875 154.87 972.091 153.411C958.013 149.859 943.234 157.952 935.843 164.284C941.426 153.456 946.294 128.672 948.03 117.633C949.818 93.1582 934.963 84.887 927.312 83.8108C907.515 80.9483 891.711 91.3576 886.284 96.9201C859.146 116.458 854.455 157.329 855.502 175.322C854.148 167.405 847.33 151.639 830.894 151.913Z" fill="#77CC00"/>
<path d="M872.942 264.218C877.684 264.888 885.212 265.814 889.292 266.299C893.425 266.831 901.336 268.189 908.991 270.303C914.388 265.53 921.861 254.137 924.923 249.036C931.836 236.482 928.217 231.061 925.543 229.92C917.119 227.286 909.807 236.37 907.203 241.242C912.669 225.923 914.614 210.622 914.904 204.887C914.683 200.707 912.831 191.948 907.185 190.352C901.538 188.756 895.219 194.434 892.766 197.473C887.542 203.902 883.985 217.069 882.86 222.848L877.284 206.869C871.468 190.843 863.503 190.533 860.247 192.381C856.349 193.277 848.645 199.058 849.013 215.016C849.38 230.974 865.118 254.467 872.942 264.218Z" fill="#AAFF33"/>
<path d="M1087.64 251.558C1079.13 269.759 1086.67 299.039 1091.5 311.404C1098.6 313.685 1108.32 315.835 1117.61 317.589C1125.82 312.57 1141.96 300.859 1140.78 294.175C1139.6 287.492 1133.74 288.875 1130.96 290.402C1127.15 292.142 1121.43 295.786 1119.05 297.391C1123.04 292.21 1126.47 284.771 1127.69 281.698C1128.56 279.384 1129.61 274.378 1126.93 272.862C1124.25 271.346 1120.17 273.613 1118.46 274.936C1112.84 278.309 1107.97 286.338 1106.23 289.93C1109.4 273.667 1110.3 260.522 1110.36 255.982C1110.53 250.845 1109.14 240.602 1102.16 240.733C1095.18 240.864 1089.57 248.004 1087.64 251.558Z" fill="#BFFF66"/>
<path d="M1115.42 265.036C1115.21 261.891 1115.97 254.592 1120.73 250.554C1125.48 246.516 1127.65 249.006 1128.13 250.756C1129.06 253.419 1127.82 260.004 1115.42 265.036Z" fill="#BFFF66"/>
<path d="M1201.42 333.29C1204.04 340.254 1227.8 344.426 1239.35 345.642C1256.06 342.69 1266.05 332.844 1262.18 324.023C1259.09 316.967 1245.13 323.393 1238.54 327.488C1251.49 312.012 1258.79 290.472 1251.35 284.059C1245.39 278.928 1236.52 281.586 1232.83 283.555C1213.29 294.645 1203.75 321.333 1201.42 333.29Z" fill="#AAFF33"/>
<path d="M1282.48 251.647C1284.46 249.965 1288.3 245.334 1287.8 240.272C1287.11 237.448 1286.94 231.292 1291.8 229.261C1296.67 227.229 1298.31 233.011 1298.53 236.156C1298.71 239.5 1295.74 247.28 1282.48 251.647Z" fill="#AAFF33"/>
<path d="M1287.88 255.801C1290.73 253.875 1297.65 251.499 1302.46 257.4C1304.54 259.46 1307.46 264.207 1302.51 266.717C1297.55 269.227 1295.65 264.761 1295.32 262.214C1294.43 260.387 1291.7 256.546 1287.88 255.801Z" fill="#AAFF33"/>
<path d="M1188.06 194.784C1192.8 187.433 1202.96 174.974 1205.68 183.943C1208.4 192.913 1195.07 194.908 1188.06 194.784Z" fill="#77CC00"/>
<path d="M1180.4 192.672C1181.66 190.436 1183.59 184.605 1181.17 179.17C1179.68 176.191 1177.99 169.987 1183.15 169.005C1188.31 168.024 1189.15 174.311 1188.93 177.577C1188.51 180.805 1186.21 188.343 1180.4 192.672Z" fill="#77CC00"/>
<path d="M1091.45 130.048C1094.45 126.289 1099.91 117.175 1097.68 110.783C1096.78 105.85 1096.57 95.426 1102.97 93.1955C1110.96 90.4075 1115.65 98.1485 1114.61 103.53C1113.56 108.911 1112.53 117.398 1091.45 130.048Z" fill="#77CC00"/>
<path d="M449.604 142.694C431.24 163.355 457.781 195.884 473.347 209.566C463.948 203.659 445.02 197.272 444.497 218.977C443.973 240.681 471.518 253.859 485.355 257.734C436.605 260.847 393.861 269.012 378.583 272.706C391.215 266.09 410.7 232.74 395.75 217.542C383.79 205.383 372.223 211.691 367.934 216.365C372.784 204.896 372.126 185.071 371.191 176.592C369.799 167.765 364.141 149.76 352.644 148.356C341.146 146.952 335.259 163.805 333.752 172.407C330.391 162.042 328.895 148.476 328.567 142.989C327.418 123.476 339.685 114.451 345.962 112.378C357.163 107.922 371.912 113.396 377.887 116.69C394.092 123.853 407.072 143.291 411.537 152.115C405.417 138.597 398.689 109.591 420.739 101.709C442.788 93.8271 460.546 118.934 466.668 132.473C460.809 133.59 454.952 136.677 449.604 142.694Z" fill="#3C6600"/>
<path fill-rule="evenodd" clip-rule="evenodd" d="M295.328 78.6226C317.503 97.2749 327.674 160.728 329.988 190.122C328.167 181.148 321.251 158.969 308.158 142.046C303.16 135.342 289.131 123.953 273.007 132.022C256.883 140.09 268.264 174.452 275.97 190.625C262.39 176.471 232.706 153.174 222.617 173.215C212.528 193.256 241.33 230.11 256.993 246.033C250.391 245.691 235.854 247.892 230.522 259.426C223.856 273.844 234.743 290.818 254.954 294.861L227.184 298.595C225.56 286.521 217.601 259.319 198.749 247.104C195.178 244.921 186.474 241.748 180.233 246.521C172.43 252.487 178.452 274.417 190.465 290.625C184.127 286.151 170.576 278.918 167.074 285.781C162.696 294.359 172.086 304.774 188.594 308.701C149.019 302.344 132.039 272.054 135.352 246.409C138.002 225.894 154.871 219.405 162.974 218.726C155.978 213.93 145.918 199.754 161.645 181.413C177.371 163.073 206.066 178.104 218.447 187.911C203.443 160.428 215.087 146.16 222.784 142.462C208.01 116.382 186.283 62.0631 217.574 53.4306C248.864 44.798 282.448 66.6283 295.328 78.6226ZM256.439 145.927C253.708 151.211 255.284 157.145 256.414 159.452C250.87 154.788 249.02 147.129 248.789 143.882C248.758 140.609 249.97 134.382 255.059 135.664C260.148 136.947 258.099 143.04 256.439 145.927ZM248.647 161.11C244.345 153.494 234.93 140.46 231.688 149.255C228.445 158.05 241.643 160.823 248.647 161.11Z" fill="#3C6600"/>
<path fill-rule="evenodd" clip-rule="evenodd" d="M329.988 190.122C331.558 183.519 333.152 175.561 333.752 172.407C335.259 163.805 341.146 146.952 352.644 148.356C364.141 149.76 369.799 167.765 371.191 176.592C372.126 185.071 372.784 204.896 367.934 216.365C372.223 211.691 383.79 205.383 395.75 217.542C410.7 232.74 391.215 266.09 378.583 272.706C372.983 274.934 355.19 278.515 346.994 280.026C345.081 281.153 342.001 282.212 338.2 283.192C343.749 271.131 352.99 242.344 345.562 223.675C343.841 220.014 338.659 212.557 331.703 212.018C324.747 211.478 322.751 221.621 322.622 226.76C322.413 231.295 322.545 244.471 324.753 260.891C323.233 257.203 318.839 248.903 313.425 245.205C311.8 243.785 307.858 241.283 305.09 242.639C302.322 243.994 303.085 249.054 303.812 251.415C304.848 254.553 307.841 262.182 311.518 267.588C309.235 265.846 303.743 261.873 300.037 259.912C297.352 258.225 291.589 256.5 290.018 263.103C288.448 269.706 303.866 282.343 311.772 287.835C303.739 288.869 296.034 289.632 290.571 290.072C286.002 292.653 274.581 293.041 269.442 292.913L254.954 294.861C234.743 290.818 223.856 273.844 230.522 259.426C235.854 247.892 250.391 245.691 256.993 246.033C241.33 230.11 212.528 193.256 222.617 173.215C232.706 153.174 262.39 176.471 275.97 190.625C268.264 174.452 256.883 140.09 273.007 132.022C289.131 123.953 303.16 135.342 308.158 142.046C321.251 158.969 328.167 181.148 329.988 190.122ZM312.593 220.733C317.106 225.043 317.436 232.374 317.037 235.501C304.955 229.75 304.102 223.104 305.186 220.5C305.775 218.782 308.08 216.423 312.593 220.733Z" fill="#599900"/>
<path d="M607.71 139.258C624.102 140.495 627.842 156.423 627.663 164.232C628.191 175.47 625.705 189.284 624.396 194.787C619.295 211.698 614.296 221.754 612.434 224.667C601.948 242.671 591.488 247.151 582.711 245.873C573.935 244.594 566.412 248.064 562.79 248.551C562.057 248.65 560.763 248.772 559.149 248.904C567.531 239.628 584.62 217.098 585.922 201.189C587.225 185.28 579.873 179.058 576.035 177.935C572.893 175.899 564.923 175.741 558.178 191.399L551.674 207.024C550.89 201.188 548.111 187.836 543.273 181.111C541.002 177.933 535.027 171.894 529.297 173.156C523.566 174.419 521.204 183.054 520.739 187.214C520.692 192.957 521.736 208.345 526.294 223.958C523.981 218.942 517.213 209.445 508.65 211.58C505.914 212.562 501.983 217.762 508.148 230.7C510.905 235.971 517.697 247.783 522.806 252.864C518.819 253.717 514.888 254.773 511.557 256.055C501.74 259.833 489.999 258.749 485.355 257.734C471.518 253.859 443.973 240.681 444.497 218.977C445.02 197.272 463.948 203.659 473.347 209.566C457.781 195.884 431.24 163.355 449.604 142.694C454.952 136.677 460.809 133.59 466.668 132.473C480.93 129.753 495.21 138.699 502.217 145.453C497.278 134.317 493.871 109.289 492.786 98.1673C492.436 73.6301 507.751 66.2443 515.452 65.6185C535.383 63.922 550.549 75.2401 555.64 81.1112C581.586 102.207 583.872 143.283 581.772 161.184C583.588 153.359 591.318 138.02 607.71 139.258Z" fill="#3C6600"/>
<path d="M559.149 248.904C554.376 249.295 546.806 249.778 542.706 250.023C538.548 250.311 530.571 251.202 522.806 252.864C517.697 247.783 510.905 235.971 508.148 230.7C501.983 217.762 505.914 212.562 508.65 211.58C517.213 209.445 523.981 218.942 526.294 223.958C521.736 208.345 520.692 192.957 520.739 187.214C521.204 183.054 523.566 174.419 529.297 173.156C535.027 171.894 541.002 177.933 543.273 181.111C548.111 187.836 550.89 201.188 551.674 207.024L558.178 191.399C564.923 175.741 572.893 175.899 576.035 177.935C579.873 179.058 587.225 185.28 585.922 201.189C584.62 217.098 567.531 239.628 559.149 248.904Z" fill="#77CC00"/>
<path d="M345.562 223.675C352.99 242.344 343.749 271.131 338.2 283.192C330.979 285.053 321.152 286.629 311.772 287.835C303.866 282.343 288.448 269.706 290.018 263.103C291.589 256.5 297.352 258.225 300.037 259.912C303.743 261.873 309.235 265.846 311.518 267.588C307.841 262.182 304.848 254.553 303.812 251.415C303.085 249.054 302.322 243.994 305.09 242.639C307.858 241.283 311.8 243.785 313.425 245.205C318.839 248.903 323.233 257.203 324.753 260.891C322.545 244.471 322.413 231.295 322.622 226.76C322.751 221.621 324.747 211.478 331.703 212.018C338.659 212.557 343.841 220.014 345.562 223.675Z" fill="#BFFF66"/>
<path d="M317.037 235.501C317.436 232.374 317.106 225.043 312.593 220.733C308.08 216.423 305.775 218.782 305.186 220.5C304.102 223.104 304.955 229.75 317.037 235.501Z" fill="#BFFF66"/>
<path d="M227.184 298.595C224.165 305.393 200.199 308.164 188.594 308.701C172.086 304.774 162.696 294.359 167.074 285.781C170.576 278.918 184.127 286.151 190.465 290.625C178.452 274.417 172.43 252.487 180.233 246.521C186.474 241.748 195.178 244.921 198.749 247.104C217.601 259.319 225.56 286.521 227.184 298.595Z" fill="#AAFF33"/>
<path d="M151.052 212.339C149.172 210.543 145.611 205.695 146.41 200.671C147.266 197.893 147.793 191.758 143.057 189.444C138.321 187.131 136.339 192.806 135.94 195.933C135.568 199.261 138.069 207.201 151.052 212.339Z" fill="#AAFF33"/>
<path d="M145.421 216.169C142.682 214.079 135.916 211.301 130.77 216.91C128.572 218.844 125.376 223.412 130.177 226.209C134.978 229.005 137.139 224.658 137.619 222.135C138.61 220.363 141.558 216.688 145.421 216.169Z" fill="#AAFF33"/>
<path d="M248.647 161.11C244.345 153.494 234.93 140.46 231.688 149.255C228.445 158.05 241.643 160.823 248.647 161.11Z" fill="#77CC00"/>
<path d="M256.414 159.452C255.284 157.145 253.708 151.211 256.439 145.927C258.099 143.04 260.148 136.947 255.059 135.664C249.97 134.382 248.758 140.609 248.789 143.882C249.02 147.129 250.87 154.788 256.414 159.452Z" fill="#77CC00"/>
<path d="M348.889 102.151C346.108 98.2227 341.194 88.8038 343.796 82.5538C344.985 77.682 345.799 67.2881 339.55 64.6867C331.737 61.4349 326.593 68.8871 327.324 74.3204C328.054 79.7536 328.587 88.2865 348.889 102.151Z" fill="#77CC00"/>
<ellipse cx="707.5" cy="569.82" rx="864.5" ry="334.5" fill="#BDFF61"/>
<path fill-rule="evenodd" clip-rule="evenodd" d="M852.109 189.283C818.832 198.314 760.179 204.85 698.979 183.408V299.271C728.157 311.024 795.508 326.448 852.109 304.839V189.283ZM751.829 239.646C748.035 256.992 761.541 268.555 767.413 272.169L764.703 281.655H776.222L778.932 272.169L780.965 282.332H789.095L790.451 272.169L793.838 281.655H803.324L801.292 272.169C815.927 266.206 820.715 248.003 819.586 239.646C814.707 219.048 795.419 212.995 786.385 212.543C763.077 213.627 753.636 231.063 751.829 239.646Z" fill="#986226"/>
<path d="M852.109 104.133C834.718 110.005 783.81 118.226 719.306 104.133C712.3 101.744 704.305 98.4969 698.979 94.5566V164.436C762.395 190.24 819.488 183.079 852.109 172.351V104.133Z" fill="#986226"/>
<path d="M871.081 182.486C870.583 182.882 870.117 183.191 869.726 183.408C865.157 185.315 859.211 187.356 852.109 189.283V304.839C858.599 302.361 864.947 299.396 871.081 295.884V182.486Z" fill="#895822"/>
<path d="M871.081 95.3248C867.147 98.9027 861.028 99.6199 852.109 104.133V172.351C859.918 169.783 866.325 167.01 871.081 164.436V95.3248Z" fill="#895822"/>
<path d="M730.825 77.0306C715.919 80.1926 695.05 88.2781 730.825 95.3248C751.378 98.4868 801.969 102.643 839.913 93.9697C853.012 91.0336 871.894 83.5352 842.623 77.0306C806.035 68.8998 770.124 68.6945 730.825 77.0306Z" fill="#895822"/>
<path d="M852.109 304.839C795.508 326.448 728.157 311.024 698.979 299.271C697.624 299.723 694.643 301.846 693.559 306.725C692.475 311.603 696.721 315.533 698.979 316.888C768.495 337.826 821.996 332.074 852.109 322.751V304.839Z" fill="#754D1F"/>
<path d="M692.204 172.567C692.204 179.072 696.721 182.505 698.979 183.408C760.179 204.85 818.832 198.314 852.109 189.283V172.351C819.488 183.079 762.395 190.24 698.979 164.436C696.721 164.436 692.204 166.062 692.204 172.567Z" fill="#754D1F"/>
<path fill-rule="evenodd" clip-rule="evenodd" d="M852.109 66.8671C793.025 53.3158 738.956 61.2208 719.306 66.8671C688.422 77.7468 689.199 87.32 698.979 94.5566C704.305 98.4969 712.3 101.744 719.306 104.133C783.81 118.226 834.718 110.005 852.109 104.133C861.028 99.6199 867.147 98.9027 871.081 95.3248C888.02 83.7771 867.139 70.3077 852.109 66.8671ZM730.825 95.3248C695.05 88.2781 715.919 80.1926 730.825 77.0306C770.124 68.6945 806.035 68.8998 842.623 77.0306C871.894 83.5352 853.012 91.0336 839.913 93.9697C801.969 102.643 751.378 98.4868 730.825 95.3248Z" fill="#754D1F"/>
<path d="M871.081 295.884C864.947 299.396 858.599 302.361 852.109 304.839V322.751C860.974 320.006 867.813 316.952 872.436 314.178C873.061 313.709 874.183 312.217 874.995 309.406C875.357 308.154 875.657 306.64 875.824 304.839C876.366 298.993 872.888 296.433 871.081 295.884Z" fill="#61401C"/>
<path d="M875.824 173.245C875.824 167.824 872.662 165.114 871.081 164.436C866.325 167.01 859.918 169.783 852.109 172.351V189.283C859.211 187.356 865.157 185.315 869.726 183.408C870.117 183.191 870.583 182.882 871.081 182.486C873.172 180.822 875.824 177.623 875.824 173.245Z" fill="#61401C"/>
<path d="M767.413 272.169C761.541 268.555 748.035 256.992 751.829 239.646C753.636 231.063 763.077 213.627 786.385 212.543C795.419 212.995 814.707 219.048 819.586 239.646C820.715 248.003 815.927 266.206 801.292 272.169L803.324 281.655H793.838L790.451 272.169L789.095 282.332H780.965L778.932 272.169L776.222 281.655H764.703L767.413 272.169Z" fill="#FAEDD4"/>
<path d="M872.436 314.178C867.813 316.952 860.974 320.006 852.109 322.751C821.996 332.074 768.495 337.826 698.979 316.888C702.871 326.528 721.831 333.533 730.825 335.831C805.628 349.382 858.659 334.25 875.824 324.99C885.581 318.485 879.337 311.89 874.995 309.406C874.183 312.217 873.061 313.709 872.436 314.178Z" fill="#77CC00"/>
<circle cx="770.124" cy="243.004" r="7.4532" fill="#30321D"/>
<circle cx="797.226" cy="245.715" r="7.4532" fill="#30321D"/>
<ellipse cx="780.287" cy="254.523" rx="5.42051" ry="2.71026" fill="#30321D"/>
<path fill-rule="evenodd" clip-rule="evenodd" d="M506.884 258.067V355.636C534.215 369.601 598.27 388.5 657.303 366.571V263.654C621.487 272.829 563.178 280.412 506.884 258.067ZM612.584 338.697C612.584 333.818 617.553 332.599 620.037 332.599C626 333.683 624.328 337.116 622.747 338.697C624.915 341.949 621.844 343.214 620.037 343.44C617.553 343.892 612.584 343.575 612.584 338.697ZM548.893 332.599C544.014 329.347 546.86 325.823 548.893 324.468C554.855 323.384 553.636 326.727 552.281 328.533C558.785 331.786 554.991 336.664 552.281 338.697C553.184 338.019 553.771 335.851 548.893 332.599Z" fill="#986226"/>
<path d="M563.799 181.669V226.221C564.251 230.287 563.257 238.417 555.668 238.417C552.958 238.643 547.538 236.656 547.538 226.899V206.689C547.111 214.268 544.603 223.712 536.697 222.833C533.535 222.608 527.211 218.091 527.211 201.829V174.049C522.468 172.92 511.762 169.306 506.884 163.885V241.128C527.467 252.133 583.945 266.668 657.303 246.306V175.856C641.162 179.931 611.137 182.833 563.799 181.669Z" fill="#986226"/>
<path d="M528.566 145.59C547.538 136.104 592.709 134.975 613.939 136.104L609.873 126.28C547.538 122.721 519.351 137.054 506.884 143.558C494.417 150.063 501.689 159.82 506.884 163.885C511.762 169.306 522.468 172.92 527.211 174.049C529.018 172.92 535.612 171.339 547.538 174.049C559.463 176.759 563.347 179.862 563.799 181.669C611.137 182.833 641.162 179.931 657.303 175.856C663.711 174.238 667.93 172.622 670.177 171.339C675.096 168.842 678.877 166.426 681.695 164.101C699.684 149.263 678.436 138.173 663.401 134.073C652.452 131.086 632.685 127.071 623.425 126.619C624.364 128.822 626.764 134.073 628.845 137.46C642.966 138.982 653.463 141.977 657.303 142.88C685.49 149.927 669.047 158.012 657.303 161.174C652.892 162.483 648.419 163.607 643.915 164.563C600.865 173.705 554.942 167.592 532.631 162.215C531.173 161.863 529.815 161.515 528.566 161.174C509.594 156.296 520.661 148.752 528.566 145.59Z" fill="#754D1F"/>
<path d="M657.303 246.306C583.945 266.668 527.467 252.133 506.884 241.128C502.005 243.296 501.237 247.903 501.463 249.936C501.463 254.814 505.077 257.389 506.884 258.067C563.178 280.412 621.487 272.829 657.303 263.654V246.306Z" fill="#754D1F"/>
<path d="M657.303 366.571C598.27 388.5 534.215 369.601 506.884 355.636C504.174 356.314 499.702 359.43 503.496 366.477C504.174 368.284 507.561 372.982 515.692 377.318C531.502 382.739 580.63 399 639.686 386.804C651.431 384.218 676.681 376.096 683.728 364.292C681.396 361.93 680.086 359.073 680.34 355.636C672.813 360.064 665.102 363.673 657.303 366.571Z" fill="#754D1F"/>
<path d="M681.695 164.101C678.877 166.426 675.096 168.842 670.177 171.339C667.93 172.622 663.711 174.238 657.303 175.856V246.306C665.244 244.101 673.383 241.488 681.695 238.417V164.101Z" fill="#895822"/>
<path d="M680.34 256.878C674.49 259.312 666.665 261.256 657.303 263.654V366.571C665.102 363.673 672.813 360.064 680.34 355.636V352.248C680.294 351.852 680.29 351.394 680.34 350.884V256.878Z" fill="#895822"/>
<path d="M681.695 238.417C673.383 241.488 665.244 244.101 657.303 246.306V263.654C666.665 261.256 674.49 259.312 680.34 256.878C685.219 255.252 686.89 250.614 687.116 247.903C687.658 241.941 683.728 239.095 681.695 238.417Z" fill="#61401C"/>
<path d="M620.037 332.599C617.553 332.599 612.584 333.818 612.584 338.697C612.584 343.575 617.553 343.892 620.037 343.44C621.844 343.214 624.915 341.949 622.747 338.697C624.328 337.116 626 333.683 620.037 332.599Z" fill="#895822"/>
<path d="M548.893 324.468C546.86 325.823 544.014 329.347 548.893 332.599C553.771 335.851 553.184 338.019 552.281 338.697C554.991 336.664 558.785 331.786 552.281 328.533C553.636 326.727 554.855 323.384 548.893 324.468Z" fill="#895822"/>
<path d="M613.939 136.104C592.709 134.975 547.538 136.104 528.566 145.59C520.661 148.752 509.594 156.296 528.566 161.174C529.815 161.515 531.173 161.863 532.631 162.215C533.76 158.029 540.355 149.251 557.701 147.624C579.383 145.59 610.2 147.624 643.915 164.563C648.419 163.607 652.892 162.483 657.303 161.174C669.047 158.012 685.49 149.927 657.303 142.88C653.463 141.977 642.966 138.982 628.845 137.46C630.878 142.428 633.724 152.908 628.845 155.076C625.909 155.98 618.817 153.45 613.939 136.104Z" fill="#895822"/>
<path fill-rule="evenodd" clip-rule="evenodd" d="M720.316 374.608C747.419 374.608 758.26 365.122 760.293 360.379C761.377 353.874 756.227 347.279 753.517 344.795L739.966 331.244C736.713 327.449 735.449 318.822 735.223 314.982C735.223 308.478 733.868 301.431 733.19 298.721C728.312 288.422 720.768 293.978 717.606 298.043C713.27 302.922 711.282 311.368 710.831 314.982C710.288 324.739 704.146 330.055 701.345 331.244C685.304 338.049 680.778 346.452 680.34 350.884V352.248V355.636C680.086 359.073 681.396 361.93 683.728 364.292C691.326 371.988 709.775 374.435 720.316 374.608ZM737.933 342.085C734.139 337.748 731.169 338.718 730.48 340.052C729.694 341.574 732.061 344.795 733.868 346.15C735.897 347.672 739.83 350.622 741.998 349.538C744.167 348.454 739.858 344.284 737.933 342.085Z" fill="#81C8D0"/>
<path d="M730.48 340.052C731.169 338.718 734.139 337.748 737.933 342.085C739.858 344.284 744.167 348.454 741.998 349.538C739.83 350.622 735.897 347.672 733.868 346.15C732.061 344.795 729.694 341.574 730.48 340.052Z" fill="#66989E"/>
<path d="M639.686 386.804C638.472 389.453 638.38 393.398 641.958 396.739C645.701 400.232 653.458 403.065 668.144 403.065C674.134 403.065 680.232 400.522 699.99 401.71C710.831 402.84 729.694 406.62 740.643 399C743.923 396.718 750.021 390.869 760.293 390.869C774.413 390.869 801.082 390.734 796.204 376.64C794.623 370.994 785.227 359.837 760.293 360.379C762.895 375.452 737.671 379.688 722.241 380.873C693.182 380.873 684.495 371.14 683.743 364.438C684.056 367.974 680.828 376.645 665.326 384.26C649.606 391.983 641.683 389.174 639.686 386.804Z" fill="#77CC00"/>
<path d="M760.293 360.379C758.26 365.122 747.419 374.608 720.316 374.608C709.775 374.435 691.326 371.988 683.728 364.292C683.733 364.34 683.738 364.389 683.743 364.438C684.495 371.14 693.182 380.873 722.241 380.873C737.671 379.688 762.895 375.452 760.293 360.379Z" fill="#599900"/>
<path d="M683.728 364.292C676.681 376.096 651.431 384.218 639.686 386.804C641.683 389.174 649.606 391.983 665.326 384.26C680.828 376.645 684.056 367.974 683.743 364.438C683.738 364.389 683.733 364.34 683.728 364.292Z" fill="#599900"/>
<path d="M557.701 147.624C540.355 149.251 533.76 158.029 532.631 162.215C554.942 167.592 600.865 173.705 643.915 164.563C610.2 147.624 579.383 145.59 557.701 147.624Z" fill="#77CC00"/>
<path d="M563.799 226.221V181.669C563.347 179.862 559.463 176.759 547.538 174.049C535.612 171.339 529.018 172.92 527.211 174.049V201.829C527.211 218.091 533.535 222.608 536.697 222.833C544.603 223.712 547.111 214.268 547.538 206.689V201.829C547.623 203.243 547.637 204.915 547.538 206.689V226.899C547.538 236.656 552.958 238.643 555.668 238.417C563.257 238.417 564.251 230.287 563.799 226.221Z" fill="#77CC00"/>
<path fill-rule="evenodd" clip-rule="evenodd" d="M628.845 137.46C630.878 142.428 633.724 152.908 628.845 155.076C625.909 155.98 618.817 153.45 613.939 136.104L609.873 126.28L605.808 119.455C601.969 111.324 596.864 93.1656 607.163 85.5769C610.551 82.6408 616.378 79.9044 623.425 78.8203C631.33 77.6911 648.63 85.0958 643.752 69.3763C642.622 65.9884 642.252 58.9365 630.2 49.4372C618 39.8203 618.149 15.6573 628.845 6.82046C647 -8.17833 677.755 0.734562 679.917 41.8009C679.573 43.8737 679.565 46.3895 680 49.4372C679.511 66.3203 674 89.8203 649.172 93.0309C625.5 93.0309 616.92 97.3486 623.425 126.619C624.364 128.822 626.764 134.073 628.845 137.46Z" fill="#77CC00"/>
<path d="M515.692 377.318C507.561 372.982 504.174 368.284 503.496 366.477C499.831 369.187 501.9 377.86 539.5 390.869C577.1 403.879 623.472 400.203 641.958 396.739C638.38 393.398 638.472 389.453 639.686 386.804C580.63 399 531.502 382.739 515.692 377.318Z" fill="#77CC00"/>
</svg>
