<svg width="82" height="75" viewBox="0 0 82 75" fill="none" xmlns="http://www.w3.org/2000/svg">
<path d="M42.5617 38.2442C41.9385 32.6352 45.4181 31.233 47.2358 31.233C52.2215 31.233 52.689 35.1281 52.689 37.4651C52.689 42.5288 55.6752 42.9183 57.3631 42.9183C62.0372 42.9183 62.2969 39.2828 62.4267 37.4651C62.4267 31.6225 65.8025 30.7136 67.8799 30.8435C72.8656 31.4667 73.0733 36.0369 72.554 38.2442C72.0293 40.3428 70.3637 44.0609 69.2302 46.4238C71.2654 45.3852 75.7977 44.7879 77.6452 50.7084C77.7841 50.4339 77.9051 50.1716 78.0071 49.9294C81.7464 42.4508 81.9022 35.9071 81.5127 33.57C80.8895 27.0263 75.7999 23.8323 73.333 23.0533C65.5428 20.2488 59.4405 23.7025 57.3631 25.7799C51.131 20.1709 43.3408 22.1444 40.2247 23.8323C34.3042 26.6368 33.0837 33.0507 33.2135 35.9071C32.9019 41.2044 36.4595 49.2802 38.2772 52.656C42.0164 60.7578 46.327 59.4075 48.0149 57.7196C50.1961 55.5384 48.6641 51.6173 47.6254 49.9294C43.8861 44.6321 42.6916 39.932 42.5617 38.2442Z" fill="#003327"/>
<path d="M68.6589 47.5924C66.166 52.2665 68.6589 54.7334 70.2169 55.3826C73.589 56.7876 76.3699 53.2299 77.6452 50.7084C75.7977 44.7879 71.2654 45.3852 69.2302 46.4238C69.0173 46.8678 68.8231 47.2638 68.6589 47.5924Z" fill="#003327"/>
<path d="M13.8988 9.52155H25.4203C25.4813 10.1312 26.7371 12.1916 31.2725 15.5566C33.2842 17.1416 37.3076 21.5917 37.3076 26.7124V48.4753C37.3076 54.3276 35.8446 65.8857 23.4086 66.032H12.8015L2.19434 72.7986V26.7124C2.19434 24.1521 3.36478 18.3364 8.04655 15.5566C9.5096 14.5203 12.7283 11.8624 13.8988 9.52155Z" fill="#AAFF33"/>
<path d="M35.1133 26.712C35.1132 24.7177 34.3222 22.7379 33.2002 20.9971C32.084 19.2653 30.747 17.9379 29.9219 17.2862C27.592 15.554 26.0314 14.1065 25.0195 12.9542C24.6313 12.512 24.3113 12.0982 24.0557 11.7159H15.1357C14.3987 12.7846 13.4637 13.7852 12.6006 14.6124C11.3824 15.7798 10.1279 16.7722 9.31543 17.3477C9.26742 17.3817 9.21758 17.4134 9.16699 17.4434C7.34962 18.5225 6.14837 20.2293 5.39258 22.0557C4.6314 23.8952 4.38874 25.7023 4.38867 26.712V68.795L11.6211 64.1817C11.9737 63.9568 12.3836 63.837 12.8018 63.837H23.4082C26.152 63.8008 28.1579 63.1431 29.6514 62.1964C31.1557 61.2427 32.2643 59.9172 33.0811 58.3692C34.7493 55.2074 35.1133 51.2886 35.1133 48.4756V26.712ZM39.502 48.4756C39.5019 51.5148 39.1347 56.3006 36.9629 60.4171C35.8594 62.5084 34.2694 64.4659 32.002 65.9034C29.7282 67.3448 26.8955 68.1859 23.4346 68.2266H13.4414L3.375 74.6485C2.69939 75.0795 1.84237 75.1079 1.13965 74.7227C0.436989 74.3375 0.000103968 73.6002 0 72.7989V26.712C6.5771e-05 25.1613 0.342715 22.7807 1.33691 20.378C2.32426 17.9919 4.01899 15.4357 6.81934 13.7344C7.47399 13.2671 8.53636 12.4277 9.56348 11.4434C10.6476 10.4045 11.5227 9.36573 11.9355 8.5401C12.3072 7.79671 13.0673 7.32733 13.8984 7.32721H25.4199C26.4555 7.32721 27.334 8.04838 27.5576 9.03522C27.5695 9.05787 27.5856 9.08872 27.6084 9.12701C27.7199 9.31439 27.9374 9.62485 28.3174 10.0577C29.0763 10.922 30.3989 12.1757 32.5801 13.794C32.5971 13.8066 32.6142 13.8199 32.6309 13.8331C33.818 14.7685 35.4937 16.4559 36.8887 18.6202C38.2811 20.7806 39.5018 23.586 39.502 26.712V48.4756Z" fill="#003327"/>
<path d="M10.2412 1.46305C10.2412 0.655031 10.8962 0 11.7043 0H27.7979C28.6059 0 29.2609 0.655031 29.2609 1.46305V10.2414C29.2609 11.0494 28.6059 11.7044 27.7979 11.7044H11.7043C10.8962 11.7044 10.2412 11.0494 10.2412 10.2414V1.46305Z" fill="#AAFF33"/>
<path d="M13.8984 8.04688H25.6035V3.65723H13.8984V8.04688ZM29.2607 10.2412C29.2607 11.0492 28.6059 11.7041 27.7979 11.7041H11.7041C10.8962 11.704 10.2412 11.0492 10.2412 10.2412V1.46289C10.2413 0.654997 10.8962 8.80566e-05 11.7041 0H27.7979C28.6058 0 29.2607 0.654943 29.2607 1.46289V10.2412Z" fill="#003327"/>
<path fill-rule="evenodd" clip-rule="evenodd" d="M18.2974 55.2419C21.7112 53.2912 28.9851 47.5609 29.6361 39.8799C29.9409 36.2832 29.7458 28.0657 26.5271 23.9692C24.3935 24.7007 17.6024 27.4439 12.6281 33.6619C9.9458 37.0147 6.51982 45.6955 14.274 53.596V56.3392C14.274 56.9488 14.6763 58.2046 16.2857 58.3509C16.8953 58.3509 18.1511 57.9486 18.2974 56.3392V55.2419ZM18.4803 49.9384C17.8951 46.427 19.8214 39.8189 20.8578 36.9538C17.4438 41.3429 15.7776 46.5855 15.3713 48.6582C12.1526 44.5617 14.0302 39.1484 15.3713 36.9538C18.2974 32.5646 22.8695 30.2481 24.6983 29.4556C25.4298 32.0891 25.6127 36.0394 25.6127 37.6853C25.759 45.4395 20.9187 49.0849 18.4803 49.9384Z" fill="#003327"/>
<path d="M26.5235 23.7866C26.5798 23.7855 26.6349 23.8101 26.671 23.8559C28.3111 25.9433 29.1698 29.0622 29.5841 32.0874C29.9991 35.118 29.9718 38.0849 29.8184 39.895C29.4884 43.7888 27.4809 47.1774 25.1397 49.8305C22.8397 52.437 20.205 54.3467 18.4805 55.3462V56.3393C18.4805 56.3448 18.4801 56.3504 18.4796 56.3559C18.4017 57.212 18.0252 57.7631 17.5743 58.0962C17.1303 58.4242 16.6244 58.5336 16.2862 58.5337C16.2808 58.5337 16.275 58.5332 16.2696 58.5327C15.4135 58.4549 14.8625 58.0783 14.5294 57.6274C14.2012 57.1832 14.0909 56.6775 14.0909 56.3393V53.6684C10.2203 49.6968 9.13003 45.5233 9.35457 41.9126C9.57972 38.2931 11.1241 35.2489 12.4854 33.5473C17.4914 27.29 24.3208 24.5325 26.4678 23.7964L26.5235 23.7866ZM24.6632 29.2759C24.7014 29.2684 24.7417 29.2734 24.7774 29.2905C24.825 29.3133 24.8599 29.3559 24.8741 29.4067C25.6121 32.0634 25.7957 36.0308 25.796 37.6821L25.795 38.4048C25.6399 45.7547 20.965 49.2623 18.5411 50.1108C18.4902 50.1286 18.4332 50.1237 18.3868 50.0962C18.3404 50.0687 18.3087 50.0214 18.2999 49.9682C18.0011 48.1751 18.3446 45.6152 18.8829 43.1645C19.2991 41.2697 19.8363 39.4237 20.2989 38.018C17.3792 42.1607 15.9242 46.7893 15.5509 48.6938C15.537 48.7638 15.4835 48.8197 15.4141 48.8364C15.3446 48.8531 15.2718 48.8272 15.2276 48.771C13.5806 46.6747 13.2413 44.245 13.4796 42.0727C13.7175 39.9032 14.5323 37.976 15.2149 36.8589L15.2188 36.852C18.1743 32.4188 22.7864 30.0848 24.626 29.2876L24.6632 29.2759ZM24.5743 29.7094C22.6446 30.5706 18.3248 32.8571 15.5274 37.0493L15.2755 37.4897C14.6792 38.5995 14.0453 40.267 13.8428 42.1128C13.624 44.1083 13.9114 46.2986 15.2774 48.2241C15.8047 45.9161 17.4792 41 20.7139 36.8413C20.7692 36.7706 20.8677 36.7501 20.9464 36.7934C21.0251 36.8369 21.06 36.9315 21.0294 37.0161C20.5135 38.4422 19.7753 40.8027 19.2393 43.2427C18.7244 45.5869 18.4035 47.9795 18.629 49.687C21.0637 48.7258 25.5702 45.1339 25.4298 37.6889V37.685C25.4297 36.0847 25.2532 32.3146 24.5743 29.7094ZM14.4571 56.3393C14.4571 56.6107 14.548 57.038 14.8233 57.4106C15.0932 57.7758 15.5475 58.0981 16.2979 58.1675C16.5698 58.1648 16.9894 58.0725 17.3565 57.8012C17.7214 57.5317 18.0445 57.0787 18.1143 56.3296V55.2417C18.1144 55.1762 18.1502 55.116 18.2071 55.0835C19.8992 54.1165 22.554 52.2076 24.8653 49.5884C27.1772 46.9684 29.1332 43.6518 29.4542 39.8647C29.6056 38.0782 29.6327 35.1382 29.2218 32.1372C28.8169 29.1808 27.9881 26.1951 26.46 24.186C24.2092 24.9745 17.6189 27.7154 12.7706 33.7759C11.4496 35.4271 9.93965 38.4008 9.7198 41.935C9.50046 45.4613 10.5645 49.5559 14.4044 53.4682C14.4379 53.5024 14.4571 53.5483 14.4571 53.5962V56.3393Z" fill="#003327"/>
</svg>
