<svg width="1440" height="480" viewBox="0 0 1440 480" fill="none" xmlns="http://www.w3.org/2000/svg">
<path d="M988.526 163.907C1005.65 185.61 977.245 216.527 960.903 229.273C970.632 223.927 989.902 218.661 989.152 240.359C988.402 262.057 960.132 273.596 946.091 276.654C994.574 282.62 1036.77 293.278 1051.8 297.861C1039.58 290.516 1022.08 256.081 1037.9 241.785C1050.55 230.348 1061.73 237.324 1065.74 242.241C1061.57 230.507 1063.39 210.755 1064.82 202.346C1066.72 193.616 1073.43 175.973 1084.99 175.246C1096.55 174.519 1101.44 191.688 1102.44 200.364C1106.4 190.213 1108.69 176.759 1109.34 171.3C1111.63 151.888 1099.91 142.16 1093.77 139.722C1082.85 134.616 1067.8 139.216 1061.65 142.154C1045.05 148.354 1030.95 166.998 1025.98 175.545C1032.88 162.409 1041.3 133.847 1019.75 124.686C998.197 115.525 978.997 139.547 972.091 152.704C977.875 154.163 983.541 157.587 988.526 163.907Z" fill="#3C6600"/>
<path fill-rule="evenodd" clip-rule="evenodd" d="M1146.29 108.994C1123.06 126.313 1109.19 189.06 1105.16 218.269C1107.5 209.417 1115.7 187.682 1129.77 171.555C1135.15 165.157 1149.82 154.61 1165.45 163.61C1181.07 172.61 1167.69 206.246 1159.05 221.939C1173.44 208.606 1204.44 187.089 1213.33 207.687C1222.23 228.285 1191.32 263.387 1174.75 278.364C1181.36 278.41 1195.74 281.459 1200.39 293.286C1206.2 308.07 1194.33 324.376 1173.92 327.227L1201.42 332.583C1203.75 320.626 1213.29 293.938 1232.83 282.848C1236.52 280.879 1245.39 278.221 1251.35 283.352C1258.79 289.765 1251.49 311.305 1238.54 326.781C1245.13 322.686 1259.09 316.26 1262.18 323.316C1266.05 332.137 1256.06 341.983 1239.35 344.935C1279.23 340.91 1297.96 311.667 1296.16 285.873C1294.71 265.237 1278.25 257.771 1270.2 256.617C1277.47 252.24 1288.34 238.678 1273.72 219.447C1259.1 200.216 1229.57 213.538 1216.63 222.603C1233.22 196.046 1222.44 181.121 1214.97 176.977C1231.25 151.808 1256.12 98.8571 1225.39 88.4046C1194.66 77.952 1159.86 97.7754 1146.29 108.994ZM1181.17 178.463C1183.59 183.898 1181.66 189.729 1180.4 191.965C1186.21 187.636 1188.51 180.098 1188.93 176.87C1189.15 173.604 1188.31 167.317 1183.15 168.298C1177.99 169.28 1179.68 175.484 1181.17 178.463ZM1188.06 194.077C1192.8 186.726 1202.96 174.267 1205.68 183.236C1208.4 192.206 1195.07 194.201 1188.06 194.077Z" fill="#3C6600"/>
<path fill-rule="evenodd" clip-rule="evenodd" d="M1105.16 218.269C1103.98 211.585 1102.85 203.547 1102.44 200.364C1101.44 191.688 1096.55 174.519 1084.99 175.246C1073.43 175.973 1066.72 193.616 1064.82 202.346C1063.39 210.755 1061.57 230.507 1065.74 242.241C1061.73 237.324 1050.55 230.348 1037.9 241.785C1022.08 256.081 1039.58 290.516 1051.8 297.861C1057.26 300.413 1074.81 305.031 1082.91 307.021C1084.75 308.258 1087.76 309.495 1091.5 310.697C1086.67 298.332 1079.13 269.052 1087.64 250.851C1089.57 247.297 1095.18 240.157 1102.16 240.026C1109.14 239.895 1110.53 250.138 1110.36 255.275C1110.3 259.815 1109.4 272.96 1106.23 289.223C1107.97 285.631 1112.84 277.602 1118.46 274.229C1120.17 272.906 1124.25 270.639 1126.93 272.155C1129.61 273.67 1128.56 278.677 1127.69 280.991C1126.47 284.063 1123.04 291.503 1119.05 296.684C1121.43 295.079 1127.15 291.435 1130.96 289.695C1133.74 288.168 1139.6 286.785 1140.78 293.468C1141.96 300.152 1125.82 311.863 1117.61 316.882C1125.57 318.385 1133.22 319.598 1138.64 320.358C1143.05 323.202 1154.43 324.26 1159.57 324.433L1173.92 327.227C1194.33 324.376 1206.2 308.07 1200.39 293.286C1195.74 281.459 1181.36 278.41 1174.75 278.364C1191.32 263.387 1222.23 228.285 1213.33 207.687C1204.44 187.089 1173.44 208.606 1159.05 221.939C1167.69 206.246 1181.07 172.61 1165.45 163.61C1149.82 154.61 1135.15 165.157 1129.77 171.555C1115.7 187.682 1107.5 209.417 1105.16 218.269ZM1120.73 249.847C1115.97 253.885 1115.21 261.184 1115.42 264.329C1127.82 259.297 1129.06 252.712 1128.13 250.049C1127.65 248.299 1125.48 245.809 1120.73 249.847Z" fill="#599900"/>
<path d="M830.894 151.206C814.458 151.48 809.79 167.161 809.511 174.967C808.325 186.155 809.997 200.091 810.981 205.661C815.081 222.843 819.482 233.174 821.17 236.192C830.582 254.78 840.762 259.865 849.598 259.104C858.434 258.342 865.741 262.247 869.328 262.946C870.053 263.087 871.338 263.285 872.942 263.511C865.118 253.76 849.38 230.267 849.013 214.309C848.645 198.351 856.349 192.57 860.247 191.674C863.503 189.826 871.468 190.136 877.284 206.162L882.86 222.141C883.985 216.362 887.542 203.195 892.766 196.766C895.219 193.727 901.538 188.049 907.185 189.645C912.831 191.241 914.683 200 914.904 204.18C914.614 209.915 912.669 225.216 907.203 240.535C909.807 235.663 917.119 226.579 925.543 229.213C928.217 230.354 931.836 235.775 924.923 248.329C921.861 253.43 914.388 264.823 908.991 269.596C912.921 270.681 916.783 271.966 920.033 273.441C929.611 277.788 941.396 277.394 946.091 276.654C960.132 273.596 988.402 262.057 989.152 240.359C989.902 218.661 970.632 223.927 960.903 229.273C977.245 216.527 1005.65 185.61 988.526 163.907C983.541 157.587 977.875 154.163 972.091 152.704C958.013 149.152 943.234 157.245 935.843 163.577C941.426 152.749 946.294 127.965 948.03 116.926C949.818 92.4511 934.963 84.18 927.312 83.1038C907.515 80.2413 891.711 90.6506 886.284 96.2131C859.146 115.751 854.455 156.622 855.502 174.615C854.148 166.698 847.33 150.932 830.894 151.206Z" fill="#77CC00"/>
<path d="M872.942 263.511C877.684 264.181 885.212 265.107 889.292 265.592C893.425 266.124 901.336 267.482 908.991 269.596C914.388 264.823 921.861 253.43 924.923 248.329C931.836 235.775 928.217 230.354 925.543 229.213C917.119 226.579 909.807 235.663 907.203 240.535C912.669 225.216 914.614 209.915 914.904 204.18C914.683 200 912.831 191.241 907.185 189.645C901.538 188.049 895.219 193.727 892.766 196.766C887.542 203.195 883.985 216.362 882.86 222.141L877.284 206.162C871.468 190.136 863.503 189.826 860.247 191.674C856.349 192.57 848.645 198.351 849.013 214.309C849.38 230.267 865.118 253.76 872.942 263.511Z" fill="#AAFF33"/>
<path d="M1087.64 250.851C1079.13 269.052 1086.67 298.332 1091.5 310.697C1098.6 312.978 1108.32 315.128 1117.61 316.882C1125.82 311.863 1141.96 300.152 1140.78 293.468C1139.6 286.785 1133.74 288.168 1130.96 289.695C1127.15 291.435 1121.43 295.079 1119.05 296.684C1123.04 291.503 1126.47 284.063 1127.69 280.991C1128.56 278.677 1129.61 273.67 1126.93 272.155C1124.25 270.639 1120.17 272.906 1118.46 274.229C1112.84 277.602 1107.97 285.631 1106.23 289.223C1109.4 272.96 1110.3 259.815 1110.36 255.275C1110.53 250.138 1109.14 239.895 1102.16 240.026C1095.18 240.157 1089.57 247.297 1087.64 250.851Z" fill="#BFFF66"/>
<path d="M1115.42 264.329C1115.21 261.184 1115.97 253.885 1120.73 249.847C1125.48 245.809 1127.65 248.299 1128.13 250.049C1129.06 252.712 1127.82 259.297 1115.42 264.329Z" fill="#BFFF66"/>
<path d="M1201.42 332.583C1204.04 339.547 1227.8 343.719 1239.35 344.935C1256.06 341.983 1266.05 332.137 1262.18 323.316C1259.09 316.26 1245.13 322.686 1238.54 326.781C1251.49 311.305 1258.79 289.765 1251.35 283.352C1245.39 278.221 1236.52 280.879 1232.83 282.848C1213.29 293.938 1203.75 320.626 1201.42 332.583Z" fill="#AAFF33"/>
<path d="M1282.48 250.94C1284.46 249.258 1288.3 244.627 1287.8 239.565C1287.11 236.741 1286.94 230.585 1291.8 228.554C1296.67 226.522 1298.31 232.304 1298.53 235.449C1298.71 238.793 1295.74 246.572 1282.48 250.94Z" fill="#AAFF33"/>
<path d="M1287.88 255.094C1290.73 253.168 1297.65 250.792 1302.46 256.693C1304.54 258.753 1307.46 263.5 1302.51 266.01C1297.55 268.52 1295.65 264.054 1295.32 261.507C1294.43 259.68 1291.7 255.839 1287.88 255.094Z" fill="#AAFF33"/>
<path d="M1188.06 194.077C1192.8 186.726 1202.96 174.267 1205.68 183.236C1208.4 192.206 1195.07 194.201 1188.06 194.077Z" fill="#77CC00"/>
<path d="M1180.4 191.965C1181.66 189.729 1183.59 183.898 1181.17 178.463C1179.68 175.484 1177.99 169.28 1183.15 168.298C1188.31 167.317 1189.15 173.604 1188.93 176.87C1188.51 180.098 1186.21 187.636 1180.4 191.965Z" fill="#77CC00"/>
<path d="M1091.45 129.341C1094.45 125.582 1099.91 116.468 1097.68 110.076C1096.78 105.143 1096.57 94.7189 1102.97 92.4885C1110.96 89.7005 1115.65 97.4415 1114.61 102.823C1113.56 108.204 1112.53 116.691 1091.45 129.341Z" fill="#77CC00"/>
<path d="M449.604 141.987C431.24 162.648 457.781 195.177 473.347 208.859C463.948 202.952 445.02 196.565 444.497 218.27C443.973 239.974 471.518 253.152 485.355 257.027C436.605 260.14 393.861 268.305 378.583 271.999C391.215 265.383 410.7 232.033 395.75 216.835C383.79 204.676 372.223 210.984 367.934 215.658C372.784 204.189 372.126 184.364 371.191 175.885C369.799 167.058 364.141 149.053 352.644 147.649C341.146 146.245 335.259 163.098 333.752 171.7C330.391 161.335 328.895 147.769 328.567 142.282C327.418 122.769 339.685 113.744 345.962 111.671C357.163 107.215 371.912 112.689 377.887 115.983C394.092 123.146 407.072 142.584 411.537 151.407C405.417 137.89 398.689 108.883 420.739 101.002C442.788 93.1201 460.546 118.227 466.668 131.766C460.809 132.883 454.952 135.97 449.604 141.987Z" fill="#3C6600"/>
<path fill-rule="evenodd" clip-rule="evenodd" d="M295.328 77.9155C317.503 96.5678 327.674 160.021 329.988 189.415C328.167 180.441 321.251 158.262 308.158 141.338C303.16 134.635 289.131 123.246 273.007 131.314C256.883 139.383 268.264 173.745 275.97 189.918C262.39 175.764 232.706 152.467 222.617 172.508C212.528 192.548 241.33 229.403 256.993 245.326C250.391 244.984 235.854 247.185 230.522 258.719C223.856 273.136 234.743 290.111 254.954 294.154L227.184 297.888C225.56 285.814 217.601 258.612 198.749 246.397C195.178 244.214 186.474 241.041 180.233 245.814C172.43 251.779 178.452 273.71 190.465 289.918C184.127 285.444 170.576 278.211 167.074 285.074C162.696 293.652 172.086 304.067 188.594 307.994C149.019 301.637 132.039 271.346 135.352 245.702C138.002 225.187 154.871 218.698 162.974 218.019C155.978 213.223 145.918 199.047 161.645 180.706C177.371 162.366 206.066 177.397 218.447 187.204C203.443 159.721 215.087 145.453 222.784 141.755C208.01 115.675 186.283 61.3561 217.574 52.7235C248.864 44.091 282.448 65.9213 295.328 77.9155ZM256.439 145.22C253.708 150.504 255.284 156.438 256.414 158.744C250.87 154.081 249.02 146.422 248.789 143.175C248.758 139.902 249.97 133.675 255.059 134.957C260.148 136.24 258.099 142.333 256.439 145.22ZM248.647 160.403C244.345 152.787 234.93 139.753 231.688 148.548C228.445 157.343 241.643 160.116 248.647 160.403Z" fill="#3C6600"/>
<path fill-rule="evenodd" clip-rule="evenodd" d="M329.988 189.415C331.558 182.812 333.152 174.854 333.752 171.7C335.259 163.098 341.146 146.245 352.644 147.649C364.141 149.053 369.799 167.058 371.191 175.885C372.126 184.364 372.784 204.189 367.934 215.658C372.223 210.984 383.79 204.676 395.75 216.835C410.7 232.033 391.215 265.383 378.583 271.999C372.983 274.227 355.19 277.808 346.994 279.319C345.081 280.446 342.001 281.505 338.2 282.485C343.749 270.424 352.99 241.637 345.562 222.968C343.841 219.307 338.659 211.85 331.703 211.311C324.747 210.771 322.751 220.914 322.622 226.053C322.413 230.588 322.545 243.764 324.753 260.184C323.233 256.496 318.839 248.196 313.425 244.498C311.8 243.078 307.858 240.576 305.09 241.932C302.322 243.287 303.085 248.347 303.812 250.708C304.848 253.846 307.841 261.475 311.518 266.881C309.235 265.139 303.743 261.165 300.037 259.205C297.352 257.518 291.589 255.793 290.018 262.396C288.448 268.999 303.866 281.636 311.772 287.128C303.739 288.162 296.034 288.924 290.571 289.365C286.002 291.946 274.581 292.334 269.442 292.206L254.954 294.154C234.743 290.111 223.856 273.136 230.522 258.719C235.854 247.185 250.391 244.984 256.993 245.326C241.33 229.403 212.528 192.548 222.617 172.508C232.706 152.467 262.39 175.764 275.97 189.918C268.264 173.745 256.883 139.383 273.007 131.314C289.131 123.246 303.16 134.635 308.158 141.338C321.251 158.262 328.167 180.441 329.988 189.415ZM312.593 220.026C317.106 224.336 317.436 231.667 317.037 234.794C304.955 229.043 304.102 222.397 305.186 219.793C305.775 218.075 308.08 215.716 312.593 220.026Z" fill="#599900"/>
<path d="M607.71 138.551C624.102 139.788 627.842 155.716 627.663 163.525C628.191 174.763 625.705 188.577 624.396 194.08C619.295 210.991 614.296 221.047 612.434 223.96C601.948 241.964 591.488 246.444 582.711 245.166C573.935 243.887 566.412 247.357 562.79 247.844C562.057 247.943 560.763 248.065 559.149 248.197C567.531 238.921 584.62 216.391 585.922 200.482C587.225 184.573 579.873 178.351 576.035 177.228C572.893 175.192 564.923 175.034 558.178 190.692L551.674 206.317C550.89 200.481 548.111 187.129 543.273 180.404C541.002 177.226 535.027 171.187 529.297 172.449C523.566 173.712 521.204 182.347 520.739 186.507C520.692 192.249 521.736 207.638 526.294 223.251C523.981 218.235 517.213 208.738 508.65 210.873C505.914 211.855 501.983 217.055 508.148 229.993C510.905 235.264 517.697 247.076 522.806 252.157C518.819 253.01 514.888 254.066 511.557 255.348C501.74 259.126 489.999 258.042 485.355 257.027C471.518 253.152 443.973 239.974 444.497 218.27C445.02 196.565 463.948 202.952 473.347 208.859C457.781 195.177 431.24 162.648 449.604 141.987C454.952 135.97 460.809 132.883 466.668 131.766C480.93 129.046 495.21 137.992 502.217 144.746C497.278 133.61 493.871 108.582 492.786 97.4603C492.436 72.923 507.751 65.5373 515.452 64.9115C535.383 63.2149 550.549 74.533 555.64 80.4042C581.586 101.5 583.872 142.576 581.772 160.477C583.588 152.652 591.318 137.313 607.71 138.551Z" fill="#3C6600"/>
<path d="M559.149 248.197C554.376 248.588 546.806 249.071 542.706 249.316C538.548 249.604 530.571 250.495 522.806 252.157C517.697 247.076 510.905 235.264 508.148 229.993C501.983 217.055 505.914 211.855 508.65 210.873C517.213 208.738 523.981 218.235 526.294 223.251C521.736 207.638 520.692 192.249 520.739 186.507C521.204 182.347 523.566 173.712 529.297 172.449C535.027 171.187 541.002 177.226 543.273 180.404C548.111 187.129 550.89 200.481 551.674 206.317L558.178 190.692C564.923 175.034 572.893 175.192 576.035 177.228C579.873 178.351 587.225 184.573 585.922 200.482C584.62 216.391 567.531 238.921 559.149 248.197Z" fill="#77CC00"/>
<path d="M345.562 222.968C352.99 241.637 343.749 270.424 338.2 282.485C330.979 284.346 321.152 285.922 311.772 287.128C303.866 281.636 288.448 268.999 290.018 262.396C291.589 255.793 297.352 257.518 300.037 259.205C303.743 261.165 309.235 265.139 311.518 266.881C307.841 261.475 304.848 253.846 303.812 250.708C303.085 248.347 302.322 243.287 305.09 241.932C307.858 240.576 311.8 243.078 313.425 244.498C318.839 248.196 323.233 256.496 324.753 260.184C322.545 243.764 322.413 230.588 322.622 226.053C322.751 220.914 324.747 210.771 331.703 211.311C338.659 211.85 343.841 219.307 345.562 222.968Z" fill="#BFFF66"/>
<path d="M317.037 234.794C317.436 231.667 317.106 224.336 312.593 220.026C308.08 215.716 305.775 218.075 305.186 219.793C304.102 222.397 304.955 229.043 317.037 234.794Z" fill="#BFFF66"/>
<path d="M227.184 297.888C224.165 304.686 200.199 307.457 188.594 307.994C172.086 304.067 162.696 293.652 167.074 285.074C170.576 278.211 184.127 285.444 190.465 289.918C178.452 273.71 172.43 251.779 180.233 245.814C186.474 241.041 195.178 244.214 198.749 246.397C217.601 258.612 225.56 285.814 227.184 297.888Z" fill="#AAFF33"/>
<path d="M151.052 211.632C149.172 209.836 145.611 204.988 146.41 199.964C147.266 197.185 147.793 191.05 143.057 188.737C138.321 186.424 136.339 192.099 135.94 195.226C135.568 198.554 138.069 206.494 151.052 211.632Z" fill="#AAFF33"/>
<path d="M145.421 215.462C142.682 213.372 135.916 210.594 130.77 216.203C128.572 218.137 125.376 222.705 130.177 225.502C134.978 228.298 137.139 223.951 137.619 221.428C138.61 219.656 141.558 215.981 145.421 215.462Z" fill="#AAFF33"/>
<path d="M248.647 160.403C244.345 152.787 234.93 139.753 231.688 148.548C228.445 157.343 241.643 160.116 248.647 160.403Z" fill="#77CC00"/>
<path d="M256.414 158.744C255.284 156.438 253.708 150.504 256.439 145.22C258.099 142.333 260.148 136.24 255.059 134.957C249.97 133.675 248.758 139.902 248.789 143.175C249.02 146.422 250.87 154.081 256.414 158.744Z" fill="#77CC00"/>
<path d="M348.889 101.444C346.108 97.5157 341.194 88.0968 343.796 81.8468C344.985 76.975 345.799 66.581 339.55 63.9796C331.737 60.7279 326.593 68.18 327.324 73.6133C328.054 79.0466 328.587 87.5794 348.889 101.444Z" fill="#77CC00"/>
<ellipse cx="707.5" cy="569.113" rx="864.5" ry="334.5" fill="#BDFF61"/>
<path d="M656.218 313.151C652.218 309.318 639.918 301.651 622.718 301.651C618.431 301.651 614.184 300.836 610.218 299.349C597.885 301.283 576.318 307.051 588.718 314.651C593.885 317.484 612.418 323.651 645.218 325.651C651.718 325.984 667.718 327.251 679.718 329.651C694.718 332.651 716.218 333.151 735.718 326.651C755.218 320.151 763.718 317.651 787.218 322.151C810.718 326.651 816.218 326.151 835.218 321.151C854.218 316.151 834.941 307.651 824.579 306.151L824.218 312.651C803.818 328.251 784.718 318.151 777.718 311.151L778.641 299.151C771.697 298.651 754.05 297.051 739.014 294.651C735.233 313.045 698.05 343.951 656.218 313.151Z" fill="#77CC00"/>
<path d="M710.718 226.151L683.218 219.651C660.55 214.773 643.97 207.031 634.218 201.075C632.718 202.6 628.418 206.751 623.218 211.151C616.718 216.651 611.718 222.651 610.218 234.151C609.018 243.351 605.052 248.318 603.218 249.651C600.863 251.735 597.968 255.66 596.129 261.151C597.992 261.555 603.418 264.922 610.218 275.151C617.018 285.381 628.052 287.747 632.718 287.651C639.552 288.207 656.418 291.385 669.218 299.651C682.018 307.917 692.218 304.929 695.718 302.401C697.376 300.407 699.04 298.004 700.718 295.151C708.718 281.551 700.052 273.514 694.718 271.195C688.771 268.724 683.519 265.969 679.718 263.651C648.918 247.651 629.218 244.651 623.218 245.151C619.218 244.751 621.552 242.984 623.218 242.151C640.018 234.151 679.885 253.151 697.718 263.651C712.518 259.251 717.552 252.818 718.218 250.151C719.052 247.651 721.018 243.051 722.218 244.651C723.418 246.251 723.385 249.984 723.218 251.651C722.818 254.051 724.052 254.984 724.718 255.151C725.918 255.551 727.218 253.318 727.718 252.151C730.518 244.951 729.552 236.818 728.718 233.651C723.518 233.251 716.885 229.08 714.218 227.044C712.94 226.738 711.766 226.437 710.718 226.151Z" fill="#97DDF0"/>
<path fill-rule="evenodd" clip-rule="evenodd" d="M756.718 101.651C753.718 80.6511 745.718 77.6511 730.718 72.6511C725.906 71.0471 722.488 69.2975 720.108 67.6511C720.145 72.1511 713.218 83.7511 685.218 94.1511C675.385 97.3178 655.118 109.551 652.718 133.151C652.052 138.484 648.418 152.651 639.218 166.651C636.885 169.774 631.918 178.084 630.718 186.336C670.264 214.583 712.301 223.001 728.718 223.651C735.918 220.851 738.718 214.151 739.218 211.151C740.052 207.318 743.218 197.951 749.218 191.151C755.218 184.351 758.052 178.651 758.718 176.651C771.218 138.151 759.718 122.651 756.718 101.651ZM705.218 94.1511C704.018 92.9511 702.385 92.9845 701.718 93.1511C697.218 93.1511 686.718 98.1511 682.718 103.651C679.518 108.051 683.052 108.818 685.218 108.651C693.218 107.051 700.552 101.651 703.218 99.1511C704.385 97.9845 706.418 95.3511 705.218 94.1511ZM697.718 124.651C701.718 120.651 700.052 117.984 698.718 117.151C695.918 115.551 693.885 117.818 693.218 119.151C688.818 126.351 677.718 126.484 672.718 125.651C671.885 125.318 670.018 125.351 669.218 128.151C668.418 130.951 670.218 132.318 671.218 132.651C683.718 135.151 692.718 129.651 697.718 124.651ZM745.218 147.151C737.218 145.151 732.218 134.984 730.718 130.151C730.552 129.151 729.518 127.351 726.718 128.151C723.918 128.951 724.218 132.151 724.718 133.651C728.318 144.851 735.885 150.984 739.218 152.651C745.618 155.851 747.885 153.984 748.218 152.651C749.418 149.051 746.718 147.484 745.218 147.151ZM673.218 139.651C676.818 140.851 681.052 139.484 682.718 138.651C687.518 136.251 689.052 141.318 689.218 144.151C689.618 151.751 686.385 158.318 684.718 160.651C675.918 171.851 667.385 167.651 664.218 164.151C658.218 157.351 660.718 149.651 662.718 146.651C664.718 143.818 669.618 138.451 673.218 139.651ZM737.718 162.151L726.718 151.651C725.885 150.818 723.418 149.751 720.218 152.151C717.018 154.551 714.885 157.818 714.218 159.151C709.018 173.151 714.385 180.318 717.718 182.151C728.918 188.551 736.718 177.151 739.218 170.651C741.218 167.051 739.052 163.484 737.718 162.151ZM709.218 197.151C694.818 169.151 674.552 178.484 666.218 186.651C665.552 187.151 664.718 188.751 666.718 191.151C668.718 193.551 671.885 191.151 673.218 189.651C687.618 178.051 699.218 190.818 703.218 198.651C704.818 203.051 707.218 203.484 708.218 203.151C711.018 201.951 710.052 198.651 709.218 197.151ZM639.218 181.651C640.418 177.651 642.385 178.318 643.218 179.151C644.718 181.651 643.718 183.151 642.718 185.651C641.718 188.151 637.718 186.651 639.218 181.651Z" fill="#97DCF1"/>
<path d="M622.718 301.651C639.918 301.651 652.218 309.318 656.218 313.151C698.05 343.951 735.233 313.045 739.014 294.651C739.345 293.038 739.42 291.522 739.218 290.151C738.14 282.821 738.757 277.389 739.894 273.651C728.061 281.606 709.298 277.252 694.718 271.195C700.052 273.514 708.718 281.551 700.718 295.151C699.04 298.004 697.376 300.407 695.718 302.401C687.501 312.29 679.456 312.144 670.718 307.151C665.218 303.818 650.318 296.551 634.718 294.151C615.218 291.151 600.539 272.651 596.129 261.151C593.556 268.835 593.051 279.587 598.99 292.651C602.242 295.509 606.077 297.795 610.218 299.349C614.184 300.836 618.431 301.651 622.718 301.651Z" fill="#54BEE9"/>
<path d="M748.718 248.151C748.718 238.551 755.385 231.151 758.718 228.651C747.861 233.356 726.362 229.956 714.218 227.044C716.885 229.08 723.518 233.251 728.718 233.651C729.552 236.818 730.518 244.951 727.718 252.151C727.218 253.318 725.918 255.551 724.718 255.151C724.052 254.984 722.818 254.051 723.218 251.651C723.385 249.984 723.418 246.251 722.218 244.651C721.018 243.051 719.052 247.651 718.218 250.151C717.552 252.818 712.518 259.251 697.718 263.651C705.126 268.984 724.219 277.751 741.33 270.151C741.984 268.952 742.657 268.126 743.218 267.651C749.618 262.051 749.552 252.318 748.718 248.151Z" fill="#54BEE9"/>
<path fill-rule="evenodd" clip-rule="evenodd" d="M778.218 184.651C797.218 148.651 782.218 125.151 772.718 107.151C767.234 96.7602 767.669 89.3893 769.4 85.1511C744.746 69.5511 723.006 63.0794 715.218 61.7936C715.318 62.9631 716.554 65.192 720.108 67.6511C722.488 69.2975 725.906 71.0471 730.718 72.6511C745.718 77.6511 753.718 80.6511 756.718 101.651C759.718 122.651 771.218 138.151 758.718 176.651C758.052 178.651 755.218 184.351 749.218 191.151C743.218 197.951 740.052 207.318 739.218 211.151C738.718 214.151 735.918 220.851 728.718 223.651C739.447 224.151 761.936 224.151 766.062 220.151C766.744 218.137 766.856 216.319 766.718 215.151C763.118 206.351 772.885 191.151 778.218 184.651ZM774.218 133.651C777.052 141.651 780.318 161.151 770.718 175.151C772.385 167.651 775.418 148.851 774.218 133.651Z" fill="#54BEE9"/>
<path d="M634.718 294.151C650.318 296.551 665.218 303.818 670.718 307.151C679.456 312.144 687.501 312.29 695.718 302.401C692.218 304.929 682.018 307.917 669.218 299.651C656.418 291.385 639.552 288.207 632.718 287.651C628.052 287.747 617.018 285.381 610.218 275.151C603.418 264.922 597.992 261.555 596.129 261.151C600.539 272.651 615.218 291.151 634.718 294.151Z" fill="#31AADC"/>
<path d="M697.718 263.651C679.885 253.151 640.018 234.151 623.218 242.151C621.552 242.984 619.218 244.751 623.218 245.151C629.218 244.651 648.918 247.651 679.718 263.651C683.519 265.969 688.771 268.724 694.718 271.195C709.298 277.252 728.061 281.606 739.894 273.651C740.32 272.25 740.819 271.087 741.33 270.151C724.219 277.751 705.126 268.984 697.718 263.651Z" fill="#31AADC"/>
<path d="M758.718 228.651C762.952 226.299 765.088 223.026 766.062 220.151C761.936 224.151 739.447 224.151 728.718 223.651C712.301 223.001 670.264 214.583 630.718 186.336C629.717 185.621 628.716 184.892 627.718 184.151C628.535 188.03 627.684 191.742 625.916 195.151C627.593 196.659 630.376 198.728 634.218 201.075C643.97 207.031 660.55 214.773 683.218 219.651L710.718 226.151C711.766 226.437 712.94 226.738 714.218 227.044C726.362 229.956 747.861 233.356 758.718 228.651Z" fill="#31AADC"/>
<path d="M631.718 166.651C625.718 172.251 626.552 180.651 627.718 184.151C628.716 184.892 629.717 185.621 630.718 186.336C631.918 178.084 636.885 169.774 639.218 166.651C648.418 152.651 652.052 138.484 652.718 133.151C655.118 109.551 675.385 97.3178 685.218 94.1511C713.218 83.7511 720.145 72.1511 720.108 67.6511C716.554 65.192 715.318 62.9631 715.218 61.7936C714.268 66.8229 708.119 75.186 688.218 82.1511C658.218 92.6511 643.218 115.151 641.718 135.151C640.518 151.151 634.552 162.818 631.718 166.651Z" fill="#D6F4F7"/>
<path d="M602.218 232.651C600.618 242.251 594.552 253.651 591.718 258.151C585.202 271.776 589.739 284.523 598.99 292.651C593.051 279.587 593.556 268.835 596.129 261.151C597.968 255.66 600.863 251.735 603.218 249.651C605.052 248.318 609.018 243.351 610.218 234.151C611.718 222.651 616.718 216.651 623.218 211.151C628.418 206.751 632.718 202.6 634.218 201.075C630.376 198.728 627.593 196.659 625.916 195.151C623.352 200.092 618.86 204.397 614.718 207.651C607.718 213.151 604.218 220.651 602.218 232.651Z" fill="#D8F3F4"/>
<path fill-rule="evenodd" clip-rule="evenodd" d="M682.718 138.651C681.052 139.484 676.818 140.851 673.218 139.651C669.618 138.451 664.718 143.818 662.718 146.651C660.718 149.651 658.218 157.351 664.218 164.151C667.385 167.651 675.918 171.851 684.718 160.651C686.385 158.318 689.618 151.751 689.218 144.151C689.052 141.318 687.518 136.251 682.718 138.651ZM677.218 146.651C679.218 143.851 681.385 144.151 682.218 144.651C685.418 146.651 684.218 150.818 683.218 152.651C679.218 157.651 674.718 150.151 677.218 146.651Z" fill="#023A68"/>
<path fill-rule="evenodd" clip-rule="evenodd" d="M726.718 151.651L737.718 162.151C739.052 163.484 741.218 167.051 739.218 170.651C736.718 177.151 728.918 188.551 717.718 182.151C714.385 180.318 709.018 173.151 714.218 159.151C714.885 157.818 717.018 154.551 720.218 152.151C723.418 149.751 725.885 150.818 726.718 151.651ZM730.218 168.151C732.218 166.151 730.718 163.318 729.718 162.151C729.052 161.151 727.218 159.851 725.218 162.651C723.218 165.451 724.385 167.484 725.218 168.151C726.052 168.984 728.218 170.151 730.218 168.151Z" fill="#023A68"/>
<path d="M682.218 144.651C681.385 144.151 679.218 143.851 677.218 146.651C674.718 150.151 679.218 157.651 683.218 152.651C684.218 150.818 685.418 146.651 682.218 144.651Z" fill="white"/>
<path d="M729.718 162.151C730.718 163.318 732.218 166.151 730.218 168.151C728.218 170.151 726.052 168.984 725.218 168.151C724.385 167.484 723.218 165.451 725.218 162.651C727.218 159.851 729.052 161.151 729.718 162.151Z" fill="white"/>
<path d="M666.218 186.651C674.552 178.484 694.818 169.151 709.218 197.151C710.052 198.651 711.018 201.951 708.218 203.151C707.218 203.484 704.818 203.051 703.218 198.651C699.218 190.818 687.618 178.051 673.218 189.651C671.885 191.151 668.718 193.551 666.718 191.151C664.718 188.751 665.552 187.151 666.218 186.651Z" fill="#023A68"/>
<path d="M643.218 179.151C642.385 178.318 640.418 177.651 639.218 181.651C637.718 186.651 641.718 188.151 642.718 185.651C643.718 183.151 644.718 181.651 643.218 179.151Z" fill="#D6F4F7"/>
<path d="M701.718 93.1511C702.385 92.9845 704.018 92.9511 705.218 94.1511C706.418 95.3511 704.385 97.9845 703.218 99.1511C700.552 101.651 693.218 107.051 685.218 108.651C683.052 108.818 679.518 108.051 682.718 103.651C686.718 98.1511 697.218 93.1511 701.718 93.1511Z" fill="#D6F4F7"/>
<path d="M698.718 117.151C700.052 117.984 701.718 120.651 697.718 124.651C692.718 129.651 683.718 135.151 671.218 132.651C670.218 132.318 668.418 130.951 669.218 128.151C670.018 125.351 671.885 125.318 672.718 125.651C677.718 126.484 688.818 126.351 693.218 119.151C693.885 117.818 695.918 115.551 698.718 117.151Z" fill="#023A68"/>
<path d="M730.718 130.151C732.218 134.984 737.218 145.151 745.218 147.151C746.718 147.484 749.418 149.051 748.218 152.651C747.885 153.984 745.618 155.851 739.218 152.651C735.885 150.984 728.318 144.851 724.718 133.651C724.218 132.151 723.918 128.951 726.718 128.151C729.518 127.351 730.552 129.151 730.718 130.151Z" fill="#023A68"/>
<path d="M774.218 133.651C777.052 141.651 780.318 161.151 770.718 175.151C772.385 167.651 775.418 148.851 774.218 133.651Z" fill="#2BA7DC"/>
<path d="M709.564 52.6511C708.484 56.4851 712.696 58.5577 715.218 59.1511C715.389 59.8629 715.414 60.7575 715.218 61.7936C723.006 63.0794 744.746 69.5511 769.4 85.1511C770.068 83.516 770.93 82.3471 771.718 81.6511C773.666 82.1705 775.21 82.2824 776.418 82.1511C760.178 68.9511 725.082 56.9845 709.564 52.6511Z" fill="#005DAB"/>
<path d="M780.218 79.6511C781.818 76.8511 779.552 73.8178 778.218 72.6511C753.018 56.6511 725.718 48.6511 715.218 46.6511C714.718 46.1511 713.018 46.3511 710.218 51.1511C709.911 51.6783 709.697 52.1781 709.564 52.6511C725.082 56.9845 760.178 68.9511 776.418 82.1511C778.932 81.8779 779.993 80.5516 780.218 79.6511Z" fill="#7CD3F5"/>
<path d="M778.218 72.6511L786.718 56.1511C787.385 54.9631 787.879 53.7959 788.216 52.6511C765.815 29.4511 736.888 25.3178 725.224 26.1511C724.999 26.665 724.832 27.1695 724.718 27.6511L715.218 46.6511C725.718 48.6511 753.018 56.6511 778.218 72.6511Z" fill="#008ADC"/>
<path d="M759.218 23.1511C736.892 14.001 727.655 20.619 725.224 26.1511C736.888 25.3178 765.815 29.4511 788.216 52.6511C792.541 37.9931 771.277 27.016 759.218 23.1511Z" fill="#66C3EF"/>
<path d="M779.218 291.651C784.052 284.151 800.018 274.251 825.218 294.651C817.218 302.651 796.818 313.251 779.218 291.651Z" fill="#00B8FC"/>
<path fill-rule="evenodd" clip-rule="evenodd" d="M825.218 294.651C817.218 302.651 796.818 313.251 779.218 291.651L778.641 299.151L777.718 311.151C784.718 318.151 803.818 328.251 824.218 312.651L824.579 306.151L825.218 294.651ZM779.218 309.651L780.718 299.151L785.718 302.151L784.718 314.151L779.218 309.651ZM787.218 314.151L788.218 303.151L794.218 306.151L793.218 317.651L787.218 314.151ZM796.718 318.651V306.651H803.218V319.151L796.718 318.651ZM806.218 318.651V306.651L814.218 304.651V316.151L806.218 318.651ZM816.218 315.151V304.651L822.718 302.151V311.651L816.218 315.151Z" fill="#023A68"/>
<path d="M788.218 303.151L787.218 314.151L793.218 317.651L794.218 306.151L788.218 303.151Z" fill="#0064AF"/>
<path d="M796.718 306.651V318.651L803.218 319.151V306.651H796.718Z" fill="#0064AF"/>
<path d="M806.218 306.651V318.651L814.218 316.151V304.651L806.218 306.651Z" fill="#0064AF"/>
<path d="M816.218 304.651V315.151L822.718 311.651V302.151L816.218 304.651Z" fill="#0064AF"/>
<path d="M780.718 299.151L779.218 309.651L784.718 314.151L785.718 302.151L780.718 299.151Z" fill="#0064AF"/>
<path fill-rule="evenodd" clip-rule="evenodd" d="M961.65 192.008C965.317 188.174 972.85 183.508 973.65 195.508C975.15 192.349 977.85 184.529 976.65 178.52C975.762 177.63 974.766 176.946 973.65 176.508C962.45 172.108 950.983 185.008 946.65 192.008C936.15 213.841 914.35 260.808 911.15 274.008C907.95 287.208 907.483 298.174 907.65 302.008C908.208 306.364 909.872 309.912 912.15 312.778C912.774 313.563 913.444 314.297 914.15 314.982C938.15 312.161 953.483 318.157 958.15 321.508C962.95 325.108 971.817 326.674 975.65 327.008C1010.45 331.008 1020.15 269.008 1020.65 237.508C1020.65 232.674 1022.55 220.808 1030.15 212.008C1032.98 208.674 1038.85 204.608 1039.65 215.008C1041.98 214.307 1045.95 209.715 1043.15 196.956C1041.89 196.168 1040.68 195.707 1039.65 195.508C1025.65 189.108 1009.15 219.508 1002.65 235.508C996.25 249.908 975.983 245.841 966.65 242.008C952.25 236.408 950.381 227.674 951.246 224.008C950.568 221.762 950.308 218.373 950.65 213.508C951.65 209.674 955.25 200.008 961.65 192.008ZM936.65 269.008C939.65 285.008 955.65 307.708 995.65 270.508C976.983 292.341 939.05 322.608 936.65 269.008Z" fill="#8BD5EA"/>
<path d="M936.65 269.008C939.65 285.008 955.65 307.708 995.65 270.508C976.983 292.341 939.05 322.608 936.65 269.008Z" fill="#4FBBE6"/>
<path fill-rule="evenodd" clip-rule="evenodd" d="M1049.15 252.008L1052.15 226.508C1054.07 208.571 1048.21 200.124 1043.15 196.956C1045.95 209.715 1041.98 214.307 1039.65 215.008C1039.98 220.674 1039.05 234.508 1032.65 244.508C1029.32 249.341 1022.25 254.708 1020.65 237.508C1020.15 269.008 1010.45 331.008 975.65 327.008C971.817 326.674 962.95 325.108 958.15 321.508C953.483 318.157 938.15 312.161 914.15 314.982C920.098 320.753 928.603 323.078 933.65 323.508C940.983 324.174 958.65 327.408 970.65 335.008C982.65 342.608 997.65 340.174 1003.65 338.008C1008.85 335.208 1016.15 333.508 1019.15 333.008C1031.59 331.11 1038.34 324.59 1041.95 317.008C1046.9 306.609 1045.94 294.213 1045.65 289.008C1045.25 281.808 1047.82 261.341 1049.15 252.008ZM1030.15 270.508C1030.82 281.841 1028.85 308.308 1015.65 323.508C1019.65 315.341 1028.15 293.308 1030.15 270.508Z" fill="#41AEDA"/>
<path d="M973.65 195.508C972.983 201.174 970.65 213.808 966.65 219.008C961.93 225.038 953.746 232.286 951.246 224.008C950.381 227.674 952.25 236.408 966.65 242.008C975.983 245.841 996.25 249.908 1002.65 235.508C984.65 240.708 981.483 230.008 982.15 224.008C983.801 211.403 984.668 186.558 976.65 178.52C977.85 184.529 975.15 192.349 973.65 195.508Z" fill="#35A4D6"/>
<path d="M1030.15 270.508C1030.82 281.841 1028.85 308.308 1015.65 323.508C1019.65 315.341 1028.15 293.308 1030.15 270.508Z" fill="#1E96CC"/>
<path d="M1019.15 333.008C1016.15 333.508 1008.85 335.208 1003.65 338.008C997.65 340.174 982.65 342.608 970.65 335.008C958.65 327.408 940.983 324.174 933.65 323.508C928.603 323.078 920.098 320.753 914.15 314.982C913.444 314.297 912.774 313.563 912.15 312.778C902.817 314.521 890.65 319.808 916.65 327.008L958.15 338.008C968.317 341.341 993.45 347.008 1012.65 343.008L1043.15 338.008C1063.35 335.174 1091.39 327.008 1041.95 317.008C1038.34 324.59 1031.59 331.11 1019.15 333.008Z" fill="#77CC00"/>
<path d="M436.084 383.211C430.251 381.545 418.684 381.711 419.084 395.711C419.584 400.545 424.184 412.011 438.584 419.211C445.417 422.4 459.284 425.064 460.084 410.211C459.251 403.378 453.284 388.411 436.084 383.211Z" fill="#58BFE8"/>
<path fill-rule="evenodd" clip-rule="evenodd" d="M442.584 429.711C456.584 432.111 465.084 424.711 467.584 420.711C468.076 417.76 468.212 414.921 468.066 412.211C467.955 410.132 467.678 408.13 467.269 406.211C466.659 403.348 465.756 400.672 464.671 398.211C461.268 390.49 456.082 384.881 452.584 382.211C443.999 375.773 436.054 373.635 430.084 373.382C426.04 373.21 422.901 373.904 421.084 374.711C411.084 380.311 409.584 390.045 410.084 394.211C411.783 404.593 417.037 412.488 423.093 418.211C429.872 424.617 437.655 428.303 442.584 429.711ZM419.084 395.711C418.684 381.711 430.251 381.545 436.084 383.211C453.284 388.411 459.251 403.378 460.084 410.211C459.284 425.064 445.417 422.4 438.584 419.211C424.184 412.011 419.584 400.545 419.084 395.711Z" fill="#E6EFEF"/>
<path fill-rule="evenodd" clip-rule="evenodd" d="M430.084 373.382C436.054 373.635 443.999 375.773 452.584 382.211C456.082 384.881 461.268 390.49 464.671 398.211C469.141 392.152 487.809 378.353 496.584 372.211C501.784 368.611 500.417 361.378 499.084 358.211C495.484 350.611 485.251 343.608 480.584 341.057C478.96 340.475 477.438 340.029 476.084 339.711C468.884 336.911 461.751 341.545 459.084 344.211L430.084 373.382ZM478.084 346.711L450.584 369.711C450.084 370.211 449.284 371.411 450.084 372.211C450.884 373.011 452.084 372.545 452.584 372.211L480.584 349.211C480.917 348.711 481.384 347.511 480.584 346.711C479.784 345.911 478.584 346.378 478.084 346.711Z" fill="#ABE2EF"/>
<path d="M503.584 387.211C506.384 383.611 507.084 377.378 507.084 374.711C507.783 355.503 491.761 345.061 480.584 341.057C485.251 343.608 495.484 350.611 499.084 358.211C500.417 361.378 501.784 368.611 496.584 372.211C487.809 378.353 469.141 392.152 464.671 398.211C465.756 400.672 466.659 403.348 467.269 406.211L503.584 387.211Z" fill="#8CD5EB"/>
<path d="M467.584 420.711L506.084 393.211C507.616 391.87 508.893 390.331 509.95 388.711C510.273 388.218 510.575 387.717 510.858 387.211H503.584C496.906 393.045 480.452 406.211 468.066 412.211C468.212 414.921 468.076 417.76 467.584 420.711Z" fill="#8BD3EB"/>
<path d="M503.584 387.211L467.269 406.211C467.678 408.13 467.955 410.132 468.066 412.211C480.452 406.211 496.906 393.045 503.584 387.211Z" fill="#47A8CF"/>
<path d="M450.584 369.711L478.084 346.711C478.584 346.378 479.784 345.911 480.584 346.711C481.384 347.511 480.917 348.711 480.584 349.211L452.584 372.211C452.084 372.545 450.884 373.011 450.084 372.211C449.284 371.411 450.084 370.211 450.584 369.711Z" fill="#F3FDF7"/>
<path d="M476.584 332.211C466.984 329.811 458.584 335.211 455.584 338.211L421.084 374.711C422.901 373.904 426.04 373.21 430.084 373.382L459.084 344.211C461.751 341.545 468.884 336.911 476.084 339.711C477.438 340.029 478.96 340.475 480.584 341.057C491.761 345.061 507.783 355.503 507.084 374.711C507.084 377.378 506.384 383.611 503.584 387.211H510.858C513.52 382.456 514.469 377.347 514.584 374.711C512.184 345.511 488.251 334.211 476.584 332.211Z" fill="#F1F6EC"/>
<path d="M506.084 393.211L467.584 420.711C465.084 424.711 456.584 432.111 442.584 429.711C437.655 428.303 429.872 424.617 423.093 418.211C417.757 422.545 412.384 432.011 433.584 435.211C441.584 436.545 460.684 437.511 473.084 430.711C479.251 426.878 494.284 418.211 505.084 414.211C524.162 407.378 551.843 392.711 509.95 388.711C508.893 390.331 507.616 391.87 506.084 393.211Z" fill="#77CC00"/>
<path d="M372.882 281.46C370.882 275.06 374.716 260.127 376.882 253.46C365.682 262.26 359.882 275.127 358.382 280.46C357.182 286.06 354.882 292.127 353.882 294.46C347.882 304.86 344.049 298.793 342.882 294.46L338.382 278.46C327.182 337.66 293.382 329.793 277.882 318.46C271.082 312.06 262.382 305.793 258.882 303.46C252.482 298.26 249.386 290.627 248.637 287.46C247.333 294.37 247.181 302.618 247.382 307.46C247.606 314.059 248.93 319.118 250.881 322.96C255.908 332.858 265.1 334.68 270.382 333.96C278.382 333.56 286.049 335.46 288.882 336.46C304.882 341.66 319.882 334.96 325.382 330.96C331.782 326.96 342.382 328.627 346.882 329.96C357.682 332.36 365.049 325.627 367.382 321.96C368.31 320.788 369.113 319.44 369.806 317.96C374.787 307.313 374.053 289.8 372.882 281.46Z" fill="#BAD8E0"/>
<path d="M278.882 301.96C286.216 300.627 305.382 294.66 323.382 281.46C322.216 289.127 311.682 303.96 278.882 301.96Z" fill="#BAD8E0"/>
<path fill-rule="evenodd" clip-rule="evenodd" d="M372.382 224.96C361.182 219.36 342.382 240.293 334.382 251.46C325.924 256.253 318.638 259.721 312.382 262.085C308.497 263.554 305.008 264.596 301.882 265.265C274.343 271.162 274.982 248.094 280.382 232.216C273.009 242.365 259.746 264.898 252.882 276.96C250.829 279.013 249.488 282.952 248.637 287.46C249.386 290.627 252.482 298.26 258.882 303.46C262.382 305.793 271.082 312.06 277.882 318.46C293.382 329.793 327.182 337.66 338.382 278.46L342.882 294.46C344.049 298.793 347.882 304.86 353.882 294.46C354.882 292.127 357.182 286.06 358.382 280.46C359.882 275.127 365.682 262.26 376.882 253.46C380.482 234.26 375.382 226.46 372.382 224.96ZM365.382 238.96L345.882 264.96C348.549 265.627 355.382 265.36 361.382 258.96C367.382 252.56 366.549 242.96 365.382 238.96ZM278.882 301.96C286.216 300.627 305.382 294.66 323.382 281.46C322.216 289.127 311.682 303.96 278.882 301.96ZM299.882 276.96L268.382 284.96C270.716 285.46 277.282 286.16 284.882 284.96C292.482 283.76 298.049 279.127 299.882 276.96Z" fill="#F6F6E6"/>
<path d="M268.382 284.96L299.882 276.96C298.049 279.127 292.482 283.76 284.882 284.96C277.282 286.16 270.716 285.46 268.382 284.96Z" fill="#BAD8E0"/>
<path d="M307.382 227.46C299.782 215.06 288.882 222.293 284.382 227.46C283.459 228.207 282.076 229.885 280.382 232.216C274.982 248.094 274.343 271.162 301.882 265.265C297.382 264.997 288.182 260.06 287.382 242.46C287.549 239.46 289.282 234.56 294.882 238.96C298.049 240.877 305.982 248.185 312.382 262.085C318.638 259.721 325.924 256.253 334.382 251.46C322.782 254.26 311.549 236.627 307.382 227.46Z" fill="#7BC5E4"/>
<path d="M287.382 242.46C288.182 260.06 297.382 264.997 301.882 265.265C305.008 264.596 308.497 263.554 312.382 262.085C305.982 248.185 298.049 240.877 294.882 238.96C289.282 234.56 287.549 239.46 287.382 242.46Z" fill="#61A7C3"/>
<path d="M345.882 264.96L365.382 238.96C366.549 242.96 367.382 252.56 361.382 258.96C355.382 265.36 348.549 265.627 345.882 264.96Z" fill="#61A7C3"/>
<path d="M367.382 321.96C365.049 325.627 357.682 332.36 346.882 329.96C342.382 328.627 331.782 326.96 325.382 330.96C319.882 334.96 304.882 341.66 288.882 336.46C286.049 335.46 278.382 333.56 270.382 333.96C265.1 334.68 255.908 332.858 250.881 322.96C237.881 326.46 222.382 334.96 264.382 340.96C292.549 343.793 355.182 346.36 380.382 333.96C389.831 329.627 400.944 320.36 369.806 317.96C369.113 319.44 368.31 320.788 367.382 321.96Z" fill="#77CC00"/>
<path d="M875.02 360.076C869.42 358.476 864.687 361.409 863.02 363.076C845.42 380.676 823.687 390.409 815.021 393.076C811.021 393.876 810.02 395.409 810.02 396.076C809.792 398.135 811.515 400.075 813.563 401.576C817.716 397.409 829.921 391.576 845.521 401.576C865.02 414.076 882.521 421.076 877.021 410.076L874.021 404.576C872.187 401.909 870.621 397.376 879.021 400.576C889.521 404.576 892.521 411.576 909.521 399.076C908.021 397.076 902.421 391.776 892.021 386.576C888.687 384.909 884.921 381.776 896.521 382.576C908.121 383.376 920.354 391.576 925.021 395.576C927.561 394.409 932.479 391.376 931.831 388.576C917.439 376.183 893.287 368.792 882.52 366.576C882.457 366.004 882.166 365.157 881.521 364.238C880.721 367.569 872.187 376.851 868.021 381.076C871.221 382.676 874.02 386.742 875.02 388.576C867.854 388.076 852.221 387.876 847.021 391.076C841.821 394.276 836.187 393.076 834.021 392.076C856.821 384.476 872.187 368.049 877.021 360.786C876.416 360.524 875.751 360.285 875.02 360.076Z" fill="#FFB67C"/>
<path d="M951.52 397.576C945.92 392.776 937.52 390.909 934.02 390.576C928.687 399.993 908.021 420.152 868.021 425.452C874.358 426.649 880.788 430.206 883.52 432.076C889.52 436.076 893.687 431.742 895.02 429.076C901.02 431.076 905.187 425.909 906.52 423.076C914.92 423.476 919.02 417.576 920.02 414.576C926.82 414.976 931.187 410.742 932.52 408.576C935.404 407.728 937.889 406.835 940.021 405.935C947.945 402.59 950.995 399.152 951.52 397.576Z" fill="#FFB67C"/>
<path d="M833.02 412.076C844.62 421.276 859.187 424.576 865.02 425.076C866.008 425.131 867.013 425.261 868.021 425.452C908.021 420.152 928.687 399.993 934.02 390.576C933.32 389.895 932.589 389.228 931.831 388.576C932.479 391.376 927.561 394.409 925.021 395.576C920.354 391.576 908.121 383.376 896.521 382.576C884.921 381.776 888.687 384.909 892.021 386.576C902.421 391.776 908.021 397.076 909.521 399.076C892.521 411.576 889.521 404.576 879.021 400.576C870.621 397.376 872.187 401.909 874.021 404.576L877.021 410.076C882.521 421.076 865.02 414.076 845.521 401.576C829.921 391.576 817.716 397.409 813.563 401.576C815.095 402.699 816.808 403.576 818.02 404.076C820.979 404.898 823.701 406.085 826.021 407.326C829.345 409.106 831.842 410.996 833.02 412.076Z" fill="#FE7101"/>
<path d="M877.021 360.786C872.187 368.049 856.821 384.476 834.021 392.076C836.187 393.076 841.821 394.276 847.021 391.076C852.221 387.876 867.854 388.076 875.02 388.576C874.02 386.742 871.221 382.676 868.021 381.076C872.187 376.851 880.721 367.569 881.521 364.238C880.693 363.061 879.282 361.766 877.021 360.786Z" fill="#FF7001"/>
<path d="M932.52 408.576C931.187 410.742 926.82 414.976 920.02 414.576C919.02 417.576 914.92 423.476 906.52 423.076C905.187 425.909 901.02 431.076 895.02 429.076C893.687 431.742 889.52 436.076 883.52 432.076C880.788 430.206 874.358 426.649 868.021 425.452C867.013 425.261 866.008 425.131 865.02 425.076C859.187 424.576 844.62 421.276 833.02 412.076C831.842 410.996 829.345 409.106 826.021 407.326C817.687 411.076 806.021 419.476 826.021 423.076C846.021 426.676 861.687 431.242 867.021 433.076C875.187 435.742 894.721 439.476 907.521 433.076L942.521 418.076C949.854 415.148 959.621 408.622 940.021 405.935C937.889 406.835 935.404 407.728 932.52 408.576Z" fill="#77CC00"/>
<path d="M693.484 384.067C688.817 383.067 678.784 383.067 675.984 391.067C674.945 394.035 674.655 396.739 674.944 399.099C675.628 404.694 679.561 408.364 684.484 409.067C686.621 409.373 688.875 409.93 690.984 410.568C690.65 409.901 689.384 408.167 686.984 406.567C685.317 405.401 683.384 403.067 688.984 403.067C694.584 403.067 702.984 411.357 706.484 415.501C709.365 415.719 712.461 415.314 714.984 413.567C715.219 413.265 715.555 412.901 715.984 412.513C706.784 412.87 701.817 406.365 700.484 403.067C700.317 402.234 698.184 399.667 690.984 396.067C683.784 392.467 684.65 391.234 685.984 391.067C691.184 389.868 698.484 394.567 701.484 397.067C717.884 408.267 728.322 401.067 731.49 396.067C730.431 394.542 728.702 393.15 725.984 392.567L717.484 391.067C713.817 390.567 706.484 386.853 693.484 384.067Z" fill="#97DCF0"/>
<path d="M724.984 409.067C727.484 408.234 732.584 405.367 732.984 400.567C732.984 399.453 732.613 397.685 731.49 396.067C728.322 401.067 717.884 408.267 701.484 397.067C698.484 394.567 691.184 389.868 685.984 391.067C684.65 391.234 683.784 392.467 690.984 396.067C698.184 399.667 700.317 402.234 700.484 403.067C701.817 406.365 706.784 412.87 715.984 412.513C717.68 410.979 720.833 409.067 724.984 409.067Z" fill="#5FC5E9"/>
<path d="M690.984 410.568C694.401 411.602 697.438 412.846 698.984 413.567C700.614 414.34 703.428 415.271 706.484 415.501C702.984 411.357 694.584 403.067 688.984 403.067C683.384 403.067 685.317 405.401 686.984 406.567C689.384 408.167 690.65 409.901 690.984 410.568Z" fill="#5FC5E9"/>
<path d="M732.984 400.567C732.584 405.367 727.484 408.234 724.984 409.067C720.833 409.067 717.68 410.979 715.984 412.513C715.555 412.901 715.219 413.265 714.984 413.567C712.461 415.314 709.365 415.719 706.484 415.501C703.428 415.271 700.614 414.34 698.984 413.567C697.438 412.846 694.401 411.602 690.984 410.568C688.875 409.93 686.621 409.373 684.484 409.067C679.561 408.364 675.628 404.694 674.944 399.099C657.028 404.325 665.075 410.219 671.338 412.513C702.938 422.07 732.172 417.198 742.838 413.567C763.122 407.531 744.72 402.385 732.984 400.567Z" fill="#77CC00"/>
<path d="M1111.4 351.407C1109.57 353.907 1107.32 360.677 1110.9 366.408C1112.95 369.677 1118.29 371.879 1125.32 372.059C1127.23 372.107 1129.27 371.92 1131.4 371.408C1134.4 370.241 1141.9 368.608 1147.9 371.408C1149.11 371.631 1150.67 371.814 1152.32 371.854C1156.81 371.961 1162.02 371.003 1162.9 366.908C1163.07 365.741 1161.6 363.108 1154.4 361.908C1152.57 361.408 1148.5 359.608 1146.9 356.408L1142.9 351.407C1142.36 350.675 1141.69 349.906 1140.9 349.149C1132.9 350.943 1125.57 357.069 1122.9 359.908C1119.7 363.508 1120.9 365.074 1121.9 365.408C1126.3 366.208 1128.07 363.408 1128.4 361.908C1129.2 357.508 1133.4 355.074 1135.4 354.408C1136.73 354.074 1139.6 353.608 1140.4 354.408C1141.2 355.208 1139.4 356.741 1138.4 357.408C1137.9 357.574 1136.2 359.008 1133.4 363.408C1130.6 367.808 1126.23 368.574 1124.4 368.408C1117.6 368.008 1112.9 363.908 1111.4 361.908C1115.4 359.508 1126.4 348.992 1131.4 344.034C1125.86 342.893 1116.82 343.677 1111.4 351.407Z" fill="#65C5E7"/>
<path d="M1131.4 344.034C1126.4 348.992 1115.4 359.508 1111.4 361.908C1112.9 363.908 1117.6 368.008 1124.4 368.408C1126.23 368.574 1130.6 367.808 1133.4 363.408C1136.2 359.008 1137.9 357.574 1138.4 357.408C1139.4 356.741 1141.2 355.208 1140.4 354.408C1139.6 353.608 1136.73 354.074 1135.4 354.408C1133.4 355.074 1129.2 357.508 1128.4 361.908C1128.07 363.408 1126.3 366.208 1121.9 365.408C1120.9 365.074 1119.7 363.508 1122.9 359.908C1125.57 357.069 1132.9 350.943 1140.9 349.149C1138.62 346.95 1135.36 344.849 1131.4 344.034Z" fill="#98DDEF"/>
<path d="M1147.9 371.408C1141.9 368.608 1134.4 370.241 1131.4 371.408C1129.27 371.92 1127.23 372.107 1125.32 372.059C1133.32 374.139 1149.92 377.011 1152.32 371.854C1150.67 371.814 1149.11 371.631 1147.9 371.408Z" fill="#77CC00"/>
</svg>
