<svg width="108" height="93" viewBox="0 0 108 93" fill="none" xmlns="http://www.w3.org/2000/svg">
<path fill-rule="evenodd" clip-rule="evenodd" d="M23.5807 16.9884L16.007 17.677C15.3753 17.7401 14.4983 17.9703 13.7121 18.4514C12.7941 19.9891 13.1766 22.7068 13.4826 23.8734L28.1709 81.7083C29.0889 85.1968 32.3785 85.4569 33.9085 85.1509L68.5557 81.2493L51.8098 75.2824C52.688 74.6109 54.3056 72.8372 55.6593 70.0036C53.3051 70.2331 48.0918 70.738 46.0721 70.9216C44.0525 71.1052 43.5476 70.3861 43.5476 70.0036C43.364 68.7184 44.5421 68.2441 45.1541 68.1676C46.3781 68.0911 50.4262 67.7545 56.8261 67.0201C57.0077 66.4372 57.1732 65.8251 57.3179 65.1842L59.3393 56.0039L41.9411 57.6104C41.1761 57.6869 39.646 57.6104 39.646 56.6924C39.646 55.7744 40.8701 55.3919 41.4821 55.3154L59.9457 53.2499L62.3712 42.2337L39.646 44.2992C38.8045 44.4522 37.0756 44.4828 36.892 43.3812C36.7084 42.2796 38.1925 41.8512 38.9575 41.7747L63.0012 39.2501C63.795 36.1153 66.8745 31.6188 74.5307 33.2832C73.6891 29.3816 71.7766 20.798 70.8585 17.6768C69.9405 14.5555 67.11 13.9282 65.8095 14.0047L59.1539 14.2346C58.7866 15.5198 56.5528 16.1471 55.4818 16.3001L30.2364 18.8246C25.0955 19.1919 23.6572 17.7535 23.5807 16.9884ZM36.6625 29.152C34.4593 29.3356 33.9084 30.2995 33.9084 30.7585C33.7248 31.6765 35.821 31.6 36.892 31.447L64.2029 28.693C64.9679 28.54 66.498 28.0503 66.498 27.3159C66.498 26.5815 64.9679 26.5509 64.2029 26.6274C55.9408 27.3924 38.8657 28.9684 36.6625 29.152Z" fill="#FBFFFB"/>
<path d="M62.826 40.1683C62.8618 39.8822 62.9193 39.5734 63.0012 39.2501L38.9575 41.7747C38.1925 41.8512 36.7084 42.2796 36.892 43.3812C37.0756 44.4828 38.8045 44.4522 39.646 44.2992L62.3712 42.2337L62.826 40.1683Z" fill="#F4FFE5"/>
<path d="M33.9084 30.7585C33.9084 30.2995 34.4593 29.3356 36.6625 29.152C38.8657 28.9684 55.9408 27.3924 64.2029 26.6274C64.9679 26.5509 66.498 26.5815 66.498 27.3159C66.498 28.0503 64.9679 28.54 64.2029 28.693L36.892 31.447C35.821 31.6 33.7248 31.6765 33.9084 30.7585Z" fill="#F4FFE5"/>
<path d="M59.9457 53.2499L41.4821 55.3154C40.8701 55.3919 39.646 55.7744 39.646 56.6924C39.646 57.6104 41.1761 57.6869 41.9411 57.6104L59.3393 56.0039L59.9457 53.2499Z" fill="#F4FFE5"/>
<path d="M56.8261 67.0201C50.4262 67.7545 46.3781 68.0911 45.1541 68.1676C44.5421 68.2441 43.364 68.7184 43.5476 70.0036C43.5476 70.3861 44.0525 71.1052 46.0721 70.9216C48.0918 70.738 53.3051 70.2331 55.6593 70.0036C56.0847 69.1133 56.484 68.1184 56.8261 67.0201Z" fill="#F4FFE5"/>
<path d="M11.876 22.267L26.1054 81.02C26.4879 83.162 28.5841 87.3543 33.9085 86.9871L71.7766 82.397L68.5557 81.2493L33.9085 85.1509C32.3785 85.4569 29.0889 85.1968 28.1709 81.7083L13.4826 23.8734C13.1766 22.7068 12.7941 19.9891 13.7121 18.4514C12.5944 19.1354 11.6604 20.3268 11.876 22.267Z" fill="#CFD9FC"/>
<path d="M107.809 44.2994C109.094 39.7093 103.601 37.7968 100.694 37.4143L79.1207 34.0079L74.5307 33.2832C66.8745 31.6188 63.795 36.1153 63.0012 39.2501C62.9193 39.5734 62.8618 39.8822 62.826 40.1683L62.3712 42.2337L59.9457 53.2499L59.3393 56.0039L57.3179 65.1842C57.1732 65.8251 57.0077 66.4372 56.8261 67.0201C56.484 68.1184 56.0847 69.1133 55.6593 70.0036C54.3056 72.8372 52.688 74.6109 51.8098 75.2824L68.5557 81.2493L71.7766 82.397L77.5142 84.2088C78.2792 83.3753 80.4518 80.6985 83.0222 76.6592C85.5927 72.62 89.4483 71.7791 91.0549 71.8636C92.0067 71.6716 93.0784 71.7032 94.2679 72.0692C97.2056 71.1512 102.683 61.8181 105.055 57.2663L107.809 44.2994Z" fill="#AAFF33"/>
<path d="M101.842 72.2988L102.301 70.2333L105.055 57.2663C102.683 61.8181 97.2056 71.1512 94.2679 72.0692C99.0416 73.538 100.698 74.0582 100.929 74.1347C101.37 73.4269 101.687 72.7253 101.842 72.2988Z" fill="#77CC00"/>
<path d="M80.4977 85.1509L85.7763 76.6592C86.4081 75.051 88.1871 72.4422 91.0549 71.8636C89.4483 71.7791 85.5927 72.62 83.0222 76.6592C80.4518 80.6985 78.2792 83.3753 77.5142 84.2088L80.4977 85.1509Z" fill="#77CC00"/>
<path d="M83.4813 86.2986L99.3171 75.9709C99.951 75.5181 100.499 74.8235 100.929 74.1347C100.698 74.0582 99.0416 73.538 94.2679 72.0692C92.9673 72.4517 89.9071 73.9052 88.0712 76.6592C85.7763 80.1018 81.1861 86.9409 78.891 87.3278C81.4361 87.098 82.9596 86.5884 83.4813 86.2986Z" fill="#EEFAFE"/>
<path d="M80.4977 85.1509C80.2683 85.6865 79.0749 86.8954 76.1372 87.4461C77.1599 87.4461 78.0776 87.4012 78.891 87.3278C81.1861 86.9409 85.7763 80.1018 88.0712 76.6592C89.9071 73.9052 92.9673 72.4517 94.2679 72.0692C93.0784 71.7032 92.0067 71.6716 91.0549 71.8636C88.1871 72.4422 86.4081 75.051 85.7763 76.6592L80.4977 85.1509Z" fill="#F7FFFD"/>
<path d="M16.007 17.677L23.5807 16.9884C23.7642 16.0703 23.1982 14.6168 22.8923 14.0049C22.1579 12.7197 19.6792 12.5514 18.5317 12.6279L11.876 13.3164C9.73392 14.0813 5.72522 17.126 6.82684 23.1849L22.2036 85.1509C22.8157 87.9481 25.8301 93.3331 32.9905 92.4952L73.8421 87.7147C74.9437 87.1953 76.7491 85.161 77.5142 84.2088L71.7766 82.397L33.9085 86.9871C28.5841 87.3543 26.4879 83.162 26.1054 81.02L11.876 22.267C11.6604 20.3268 12.5944 19.1354 13.7121 18.4514C14.4983 17.9703 15.3753 17.7401 16.007 17.677Z" fill="#F9BB5B"/>
<path d="M20.3678 88.1346C22.5711 93.0919 29.701 93.1072 32.9905 92.4952C25.8301 93.3331 22.8157 87.9481 22.2036 85.1509L6.82684 23.1849C5.72522 17.126 9.73392 14.0813 11.876 13.3164C3.98087 14.9688 3.99641 21.655 4.99107 24.7916L16.6907 72.9872L20.3678 88.1346Z" fill="#A76821"/>
<path fill-rule="evenodd" clip-rule="evenodd" d="M20.3678 88.1346L16.6907 72.9872C13.1733 69.9271 5.12868 64.4955 1.08941 67.2496C-3.95967 70.6921 9.58124 89.5374 20.3678 88.1346ZM9.81039 75.0527L5.22031 71.6102L9.81039 76.2002C10.5754 76.9652 12.3808 78.8625 13.4824 80.3313C14.5841 81.8001 16.8485 83.0853 17.843 83.5443C17.231 83.0853 15.6857 81.7083 14.4005 79.8723C13.1152 78.0363 10.8049 75.8942 9.81039 75.0527Z" fill="#7CD050"/>
<path d="M5.22031 71.6102L9.81039 75.0527C10.8049 75.8942 13.1152 78.0363 14.4005 79.8723C15.6857 81.7083 17.231 83.0853 17.843 83.5443C16.8485 83.0853 14.5841 81.8001 13.4824 80.3313C12.3808 78.8625 10.5754 76.9652 9.81039 76.2002L5.22031 71.6102Z" fill="#00664E"/>
<path fill-rule="evenodd" clip-rule="evenodd" d="M58.0063 7.80847C57.7003 7.27296 56.5375 6.24784 54.3343 6.43145C52.131 6.61505 48.6732 6.96681 47.2197 7.11975C47.0667 4.67171 45.1541 -0.178473 38.728 0.00512965C32.3019 0.188733 31.3074 5.58963 31.6134 8.26713L21.2857 9.18514C20.3246 9.32255 18.575 10.0638 18.4913 11.9392C19.5758 11.1743 22.2956 10.2412 24.4988 12.6279C24.8048 13.1633 25.4168 14.5095 25.4168 15.6112C25.4933 16.2233 26.0135 17.4473 27.4823 17.4473C29.3184 17.4473 58.2609 16.0703 59.2812 12.3982C59.2583 11.5758 59.1367 10.614 58.8332 9.64415C58.6392 9.02408 58.3708 8.40073 58.0063 7.80847ZM36.892 6.20159C37.0756 4.54917 38.4985 4.13606 39.187 4.13606C39.8755 4.13606 41.3444 4.50326 41.7116 5.97209C42.0788 7.44091 40.3345 7.96112 39.4165 8.03762C38.4985 8.11412 36.7084 7.85402 36.892 6.20159Z" fill="#6E8EF7"/>
<path d="M18.5317 12.6279C19.6792 12.5514 22.1579 12.7197 22.8923 14.0049C23.1982 14.6168 23.7642 16.0703 23.5807 16.9884C23.6572 17.7535 25.0955 19.1919 30.2364 18.8246L55.4818 16.3001C56.5528 16.1471 58.7866 15.5198 59.1539 14.2346C59.2373 13.8172 59.3026 13.1689 59.2812 12.3982C58.2609 16.0703 29.3184 17.4473 27.4823 17.4473C26.0135 17.4473 25.4933 16.2233 25.4168 15.6112C25.4168 14.5095 24.8048 13.1633 24.4988 12.6279C22.2956 10.2412 19.5758 11.1743 18.4913 11.9392C18.4818 12.1537 18.494 12.3829 18.5317 12.6279Z" fill="#3D68F5"/>
<path d="M59.2812 12.3982C59.3026 13.1689 59.2373 13.8172 59.1539 14.2346L65.8095 14.0047C67.11 13.9282 69.9405 14.5555 70.8585 17.6768C71.7766 20.798 73.6891 29.3816 74.5307 33.2832L79.1207 34.0079L74.5307 14.9227C73.4291 9.59825 68.2576 8.87914 65.8095 9.18514L58.8332 9.64415C59.1367 10.614 59.2583 11.5758 59.2812 12.3982Z" fill="#F9BB5B"/>
<path d="M76.1372 87.4461C79.0749 86.8954 80.2683 85.6865 80.4977 85.1509L77.5142 84.2088C76.7491 85.161 74.9437 87.1953 73.8421 87.7147L76.1372 87.4461Z" fill="#C9984A"/>
<circle cx="81.7032" cy="58.2939" r="13.7702" fill="white"/>
<path d="M82.0638 50.1537L80.806 56.9229L74.0367 55.665C72.7396 55.6108 72.2893 56.2741 72.4733 56.5417C72.3475 57.2186 73.2414 57.8516 73.6175 57.9215L80.3867 59.1793L79.1288 65.9486C78.9276 67.0316 79.6294 67.4422 80.0055 67.512C80.9416 67.4992 81.3154 66.7439 81.3852 66.3678L82.6431 59.5986L89.4123 60.8565C90.4954 61.0577 90.9059 60.3559 90.9758 59.9798C90.963 59.0437 90.2077 58.6699 89.8316 58.6001L83.0624 57.3422L84.3203 50.573C84.5215 49.4899 83.8197 49.0793 83.4436 49.0095C82.5411 48.8417 82.1477 49.7024 82.0638 50.1537Z" fill="#009A76" stroke="#009A76" stroke-width="1.83603"/>
<circle cx="27.5405" cy="31.6716" r="3.67206" fill="#00CC9C"/>
<circle cx="30.2947" cy="44.5239" r="3.67206" fill="#00CC9C"/>
<circle cx="33.0484" cy="57.3761" r="3.67206" fill="#009975"/>
<circle cx="35.8026" cy="70.2283" r="3.67206" fill="#009975"/>
</svg>
