<svg width="1440" height="480" viewBox="0 0 1440 480" fill="none" xmlns="http://www.w3.org/2000/svg">
<path d="M988.526 164.294C1005.65 185.997 977.245 216.914 960.903 229.659C970.632 224.314 989.902 219.048 989.152 240.746C988.402 262.443 960.132 273.983 946.091 277.04C994.574 283.007 1036.77 293.665 1051.8 298.247C1039.58 290.903 1022.08 256.467 1037.9 242.171C1050.55 230.735 1061.73 237.71 1065.74 242.628C1061.57 230.894 1063.39 211.142 1064.82 202.733C1066.72 194.003 1073.43 176.36 1084.99 175.633C1096.55 174.905 1101.44 192.075 1102.44 200.75C1106.4 190.6 1108.69 177.145 1109.34 171.687C1111.63 152.275 1099.91 142.546 1093.77 140.109C1082.85 135.003 1067.8 139.603 1061.65 142.541C1045.05 148.741 1030.95 167.385 1025.98 175.931C1032.88 162.796 1041.3 134.234 1019.75 125.073C998.197 115.912 978.997 139.934 972.091 153.09C977.875 154.549 983.541 157.974 988.526 164.294Z" fill="#3C6600"/>
<path fill-rule="evenodd" clip-rule="evenodd" d="M1146.29 109.38C1123.06 126.7 1109.19 189.447 1105.16 218.656C1107.5 209.804 1115.7 188.068 1129.77 171.942C1135.15 165.543 1149.82 154.996 1165.45 163.996C1181.07 172.996 1167.69 206.632 1159.05 222.325C1173.44 208.992 1204.44 187.476 1213.33 208.074C1222.23 228.671 1191.32 263.774 1174.75 278.751C1181.36 278.797 1195.74 281.846 1200.39 293.673C1206.2 308.457 1194.33 324.763 1173.92 327.614L1201.42 332.97C1203.75 321.012 1213.29 294.324 1232.83 283.235C1236.52 281.265 1245.39 278.608 1251.35 283.739C1258.79 290.152 1251.49 311.692 1238.54 327.168C1245.13 323.073 1259.09 316.647 1262.18 323.703C1266.05 332.524 1256.06 342.37 1239.35 345.321C1279.23 341.297 1297.96 312.054 1296.16 286.26C1294.71 265.624 1278.25 258.157 1270.2 257.004C1277.47 252.626 1288.34 239.064 1273.72 219.834C1259.1 200.603 1229.57 213.925 1216.63 222.99C1233.22 196.433 1222.44 181.507 1214.97 177.364C1231.25 152.195 1256.12 99.2439 1225.39 88.7913C1194.66 78.3387 1159.86 98.1621 1146.29 109.38ZM1181.17 178.849C1183.59 184.284 1181.66 190.116 1180.4 192.352C1186.21 188.022 1188.51 180.485 1188.93 177.257C1189.15 173.991 1188.31 167.703 1183.15 168.685C1177.99 169.667 1179.68 175.87 1181.17 178.849ZM1188.06 194.464C1192.8 187.113 1202.96 174.653 1205.68 183.623C1208.4 192.593 1195.07 194.588 1188.06 194.464Z" fill="#3C6600"/>
<path fill-rule="evenodd" clip-rule="evenodd" d="M1105.16 218.656C1103.98 211.972 1102.85 203.934 1102.44 200.75C1101.44 192.075 1096.55 174.905 1084.99 175.633C1073.43 176.36 1066.72 194.003 1064.82 202.733C1063.39 211.142 1061.57 230.894 1065.74 242.628C1061.73 237.71 1050.55 230.735 1037.9 242.171C1022.08 256.467 1039.58 290.903 1051.8 298.247C1057.26 300.8 1074.81 305.418 1082.91 307.408C1084.75 308.644 1087.76 309.882 1091.5 311.083C1086.67 298.719 1079.13 269.439 1087.64 251.238C1089.57 247.684 1095.18 240.544 1102.16 240.413C1109.14 240.282 1110.53 250.525 1110.36 255.662C1110.3 260.202 1109.4 273.347 1106.23 289.61C1107.97 286.017 1112.84 277.989 1118.46 274.615C1120.17 273.293 1124.25 271.026 1126.93 272.542C1129.61 274.057 1128.56 279.064 1127.69 281.378C1126.47 284.45 1123.04 291.89 1119.05 297.071C1121.43 295.466 1127.15 291.821 1130.96 290.082C1133.74 288.555 1139.6 287.171 1140.78 293.855C1141.96 300.539 1125.82 312.249 1117.61 317.269C1125.57 318.771 1133.22 319.985 1138.64 320.744C1143.05 323.589 1154.43 324.646 1159.57 324.82L1173.92 327.614C1194.33 324.763 1206.2 308.457 1200.39 293.673C1195.74 281.846 1181.36 278.797 1174.75 278.751C1191.32 263.774 1222.23 228.671 1213.33 208.074C1204.44 187.476 1173.44 208.992 1159.05 222.325C1167.69 206.632 1181.07 172.996 1165.45 163.996C1149.82 154.996 1135.15 165.543 1129.77 171.942C1115.7 188.068 1107.5 209.804 1105.16 218.656ZM1120.73 250.234C1115.97 254.272 1115.21 261.571 1115.42 264.716C1127.82 259.683 1129.06 253.099 1128.13 250.435C1127.65 248.686 1125.48 246.196 1120.73 250.234Z" fill="#599900"/>
<path d="M830.894 151.593C814.458 151.867 809.79 167.548 809.511 175.354C808.325 186.542 809.997 200.478 810.981 206.048C815.081 223.23 819.482 233.561 821.17 236.578C830.582 255.166 840.762 260.252 849.598 259.49C858.434 258.729 865.741 262.634 869.328 263.333C870.053 263.474 871.338 263.671 872.942 263.898C865.118 254.146 849.38 230.654 849.013 214.696C848.645 198.738 856.349 192.957 860.247 192.061C863.503 190.213 871.468 190.523 877.284 206.549L882.86 222.528C883.985 216.749 887.542 203.582 892.766 197.152C895.219 194.114 901.538 188.435 907.185 190.031C912.831 191.627 914.683 200.386 914.904 204.566C914.614 210.302 912.669 225.603 907.203 240.921C909.807 236.05 917.119 226.966 925.543 229.599C928.217 230.741 931.836 236.162 924.923 248.716C921.861 253.816 914.388 265.21 908.991 269.982C912.921 271.068 916.783 272.353 920.033 273.827C929.611 278.175 941.396 277.781 946.091 277.04C960.132 273.983 988.402 262.443 989.152 240.746C989.902 219.048 970.632 224.314 960.903 229.659C977.245 216.914 1005.65 185.997 988.526 164.294C983.541 157.974 977.875 154.549 972.091 153.09C958.013 149.539 943.234 157.632 935.843 163.963C941.426 153.136 946.294 128.351 948.03 117.312C949.818 92.8378 934.963 84.5667 927.312 83.4905C907.515 80.628 891.711 91.0373 886.284 96.5998C859.146 116.137 854.455 157.009 855.502 175.002C854.148 167.085 847.33 151.318 830.894 151.593Z" fill="#77CC00"/>
<path d="M872.942 263.898C877.684 264.568 885.212 265.494 889.292 265.979C893.425 266.511 901.336 267.868 908.991 269.982C914.388 265.21 921.861 253.816 924.923 248.716C931.836 236.162 928.217 230.741 925.543 229.599C917.119 226.966 909.807 236.05 907.203 240.921C912.669 225.603 914.614 210.302 914.904 204.566C914.683 200.386 912.831 191.627 907.185 190.031C901.538 188.435 895.219 194.114 892.766 197.152C887.542 203.582 883.985 216.749 882.86 222.528L877.284 206.549C871.468 190.523 863.503 190.213 860.247 192.061C856.349 192.957 848.645 198.738 849.013 214.696C849.38 230.654 865.118 254.146 872.942 263.898Z" fill="#AAFF33"/>
<path d="M1087.64 251.238C1079.13 269.439 1086.67 298.719 1091.5 311.083C1098.6 313.365 1108.32 315.514 1117.61 317.269C1125.82 312.249 1141.96 300.539 1140.78 293.855C1139.6 287.171 1133.74 288.555 1130.96 290.082C1127.15 291.821 1121.43 295.466 1119.05 297.071C1123.04 291.89 1126.47 284.45 1127.69 281.378C1128.56 279.064 1129.61 274.057 1126.93 272.542C1124.25 271.026 1120.17 273.293 1118.46 274.615C1112.84 277.989 1107.97 286.017 1106.23 289.61C1109.4 273.347 1110.3 260.202 1110.36 255.662C1110.53 250.525 1109.14 240.282 1102.16 240.413C1095.18 240.544 1089.57 247.684 1087.64 251.238Z" fill="#BFFF66"/>
<path d="M1115.42 264.716C1115.21 261.571 1115.97 254.272 1120.73 250.234C1125.48 246.196 1127.65 248.686 1128.13 250.435C1129.06 253.099 1127.82 259.683 1115.42 264.716Z" fill="#BFFF66"/>
<path d="M1201.42 332.97C1204.04 339.933 1227.8 344.106 1239.35 345.321C1256.06 342.37 1266.05 332.524 1262.18 323.703C1259.09 316.647 1245.13 323.073 1238.54 327.168C1251.49 311.692 1258.79 290.152 1251.35 283.739C1245.39 278.608 1236.52 281.265 1232.83 283.235C1213.29 294.324 1203.75 321.012 1201.42 332.97Z" fill="#AAFF33"/>
<path d="M1282.48 251.327C1284.46 249.644 1288.3 245.014 1287.8 239.951C1287.11 237.127 1286.94 230.972 1291.8 228.941C1296.67 226.909 1298.31 232.691 1298.53 235.835C1298.71 239.179 1295.74 246.959 1282.48 251.327Z" fill="#AAFF33"/>
<path d="M1287.88 255.481C1290.73 253.555 1297.65 251.178 1302.46 257.079C1304.54 259.139 1307.46 263.887 1302.51 266.397C1297.55 268.907 1295.65 264.441 1295.32 261.894C1294.43 260.067 1291.7 256.226 1287.88 255.481Z" fill="#AAFF33"/>
<path d="M1188.06 194.464C1192.8 187.113 1202.96 174.653 1205.68 183.623C1208.4 192.593 1195.07 194.588 1188.06 194.464Z" fill="#77CC00"/>
<path d="M1180.4 192.352C1181.66 190.116 1183.59 184.284 1181.17 178.849C1179.68 175.87 1177.99 169.667 1183.15 168.685C1188.31 167.703 1189.15 173.991 1188.93 177.257C1188.51 180.485 1186.21 188.022 1180.4 192.352Z" fill="#77CC00"/>
<path d="M1091.45 129.727C1094.45 125.969 1099.91 116.854 1097.68 110.463C1096.78 105.53 1096.57 95.1056 1102.97 92.8752C1110.96 90.0872 1115.65 97.8282 1114.61 103.209C1113.56 108.59 1112.53 117.077 1091.45 129.727Z" fill="#77CC00"/>
<path d="M449.604 142.373C431.24 163.035 457.781 195.564 473.347 209.246C463.948 203.339 445.02 196.952 444.497 218.656C443.973 240.361 471.517 253.538 485.355 257.414C436.605 260.527 393.861 268.692 378.583 272.386C391.215 265.77 410.7 232.42 395.75 217.221C383.79 205.062 372.223 211.371 367.934 216.045C372.784 204.575 372.126 184.751 371.191 176.272C369.799 167.445 364.141 149.44 352.644 148.036C341.146 146.632 335.259 163.485 333.752 172.087C330.391 161.722 328.895 148.156 328.567 142.669C327.418 123.156 339.685 114.131 345.962 112.058C357.163 107.601 371.912 113.075 377.887 116.37C394.092 123.533 407.072 142.971 411.537 151.794C405.417 138.276 398.689 109.27 420.739 101.389C442.788 93.5068 460.546 118.614 466.668 132.152C460.809 133.27 454.952 136.356 449.604 142.373Z" fill="#3C6600"/>
<path fill-rule="evenodd" clip-rule="evenodd" d="M295.328 78.3022C317.503 96.9546 327.674 160.407 329.988 189.802C328.167 180.828 321.251 158.649 308.158 141.725C303.16 135.022 289.131 123.633 273.007 131.701C256.883 139.769 268.264 174.132 275.97 190.305C262.39 176.151 232.706 152.854 222.617 172.895C212.528 192.935 241.33 229.79 256.993 245.713C250.391 245.371 235.854 247.572 230.522 259.106C223.856 273.523 234.743 290.497 254.954 294.54L227.184 298.274C225.56 286.201 217.601 258.999 198.749 246.783C195.178 244.6 186.474 241.427 180.233 246.2C172.43 252.166 178.452 274.097 190.465 290.305C184.127 285.831 170.576 278.598 167.074 285.461C162.696 294.039 172.086 304.454 188.594 308.38C149.019 302.024 132.039 271.733 135.352 246.089C138.002 225.574 154.871 219.085 162.974 218.405C155.978 213.61 145.918 199.433 161.645 181.093C177.371 162.753 206.066 177.783 218.447 187.591C203.443 160.108 215.087 145.84 222.784 142.142C208.01 116.062 186.283 61.7428 217.574 53.1103C248.864 44.4777 282.448 66.308 295.328 78.3022ZM256.439 145.607C253.708 150.891 255.284 156.825 256.414 159.131C250.87 154.468 249.02 146.809 248.789 143.562C248.758 140.288 249.97 134.061 255.059 135.344C260.148 136.626 258.099 142.72 256.439 145.607ZM248.647 160.79C244.345 153.174 234.93 140.14 231.688 148.935C228.445 157.729 241.643 160.503 248.647 160.79Z" fill="#3C6600"/>
<path fill-rule="evenodd" clip-rule="evenodd" d="M329.988 189.802C331.558 183.199 333.152 175.241 333.752 172.087C335.259 163.485 341.146 146.632 352.644 148.036C364.141 149.44 369.799 167.445 371.191 176.272C372.126 184.751 372.784 204.575 367.934 216.045C372.223 211.371 383.79 205.062 395.75 217.221C410.7 232.42 391.215 265.77 378.583 272.386C372.983 274.614 355.19 278.194 346.994 279.706C345.081 280.832 342.001 281.891 338.2 282.871C343.749 270.811 352.989 242.024 345.562 223.355C343.841 219.694 338.659 212.237 331.703 211.697C324.747 211.158 322.751 221.301 322.622 226.44C322.413 230.975 322.545 244.151 324.753 260.571C323.233 256.883 318.839 248.582 313.425 244.885C311.8 243.465 307.858 240.963 305.09 242.318C302.322 243.674 303.084 248.734 303.812 251.095C304.848 254.233 307.841 261.862 311.518 267.267C309.235 265.526 303.743 261.552 300.037 259.592C297.352 257.904 291.589 256.18 290.018 262.783C288.448 269.386 303.866 282.022 311.772 287.515C303.739 288.548 296.034 289.311 290.571 289.751C286.002 292.332 274.581 292.721 269.442 292.592L254.954 294.54C234.743 290.497 223.856 273.523 230.522 259.106C235.854 247.572 250.391 245.371 256.993 245.713C241.33 229.79 212.528 192.935 222.617 172.895C232.706 152.854 262.39 176.151 275.97 190.305C268.264 174.132 256.883 139.769 273.007 131.701C289.131 123.633 303.16 135.022 308.158 141.725C321.251 158.649 328.167 180.828 329.988 189.802ZM312.593 220.413C317.106 224.723 317.436 232.054 317.037 235.18C304.955 229.43 304.102 222.784 305.186 220.18C305.775 218.462 308.08 216.103 312.593 220.413Z" fill="#599900"/>
<path d="M607.71 138.937C624.102 140.175 627.842 156.103 627.663 163.912C628.191 175.149 625.705 188.964 624.396 194.467C619.295 211.378 614.296 221.433 612.434 224.347C601.948 242.351 591.488 246.831 582.711 245.552C573.935 244.274 566.412 247.744 562.79 248.231C562.057 248.33 560.763 248.451 559.149 248.583C567.531 239.307 584.62 216.778 585.922 200.869C587.225 184.96 579.873 178.737 576.035 177.614C572.893 175.579 564.923 175.421 558.178 191.078L551.674 206.703C550.89 200.868 548.111 187.515 543.273 180.79C541.002 177.613 535.027 171.574 529.297 172.836C523.566 174.098 521.204 182.734 520.739 186.894C520.692 192.636 521.736 208.025 526.294 223.637C523.981 218.622 517.213 209.125 508.65 211.259C505.914 212.242 501.983 217.441 508.148 230.38C510.905 235.651 517.697 247.463 522.806 252.544C518.819 253.397 514.888 254.453 511.557 255.735C501.74 259.513 489.999 258.429 485.355 257.414C471.517 253.538 443.973 240.361 444.497 218.656C445.02 196.952 463.948 203.339 473.347 209.246C457.781 195.564 431.24 163.035 449.604 142.373C454.952 136.356 460.809 133.27 466.668 132.152C480.93 129.433 495.21 138.379 502.217 145.133C497.278 133.996 493.871 108.969 492.786 97.847C492.436 73.3098 507.751 65.924 515.452 65.2982C535.383 63.6016 550.549 74.9198 555.64 80.7909C581.586 101.886 583.872 142.962 581.772 160.863C583.588 153.039 591.318 137.7 607.71 138.937Z" fill="#3C6600"/>
<path d="M559.149 248.583C554.376 248.974 546.806 249.457 542.706 249.702C538.548 249.991 530.571 250.882 522.806 252.544C517.697 247.463 510.905 235.651 508.148 230.38C501.983 217.441 505.914 212.242 508.65 211.259C517.213 209.125 523.981 218.622 526.294 223.637C521.736 208.025 520.692 192.636 520.739 186.894C521.204 182.734 523.566 174.098 529.297 172.836C535.027 171.574 541.002 177.613 543.273 180.79C548.111 187.515 550.89 200.868 551.674 206.703L558.178 191.078C564.923 175.421 572.893 175.579 576.035 177.614C579.873 178.737 587.225 184.96 585.922 200.869C584.62 216.778 567.531 239.307 559.149 248.583Z" fill="#77CC00"/>
<path d="M345.562 223.355C352.989 242.024 343.749 270.811 338.2 282.871C330.979 284.733 321.152 286.308 311.772 287.515C303.866 282.022 288.448 269.386 290.018 262.783C291.589 256.18 297.352 257.904 300.037 259.592C303.743 261.552 309.235 265.526 311.518 267.267C307.841 261.862 304.848 254.233 303.812 251.095C303.084 248.734 302.322 243.674 305.09 242.318C307.858 240.963 311.8 243.465 313.425 244.885C318.839 248.582 323.233 256.883 324.753 260.571C322.545 244.151 322.413 230.975 322.622 226.44C322.751 221.301 324.747 211.158 331.703 211.697C338.659 212.237 343.841 219.694 345.562 223.355Z" fill="#BFFF66"/>
<path d="M317.037 235.18C317.436 232.054 317.106 224.723 312.593 220.413C308.08 216.103 305.775 218.462 305.186 220.18C304.102 222.784 304.955 229.43 317.037 235.18Z" fill="#BFFF66"/>
<path d="M227.184 298.274C224.165 305.072 200.199 307.844 188.594 308.38C172.086 304.454 162.696 294.039 167.074 285.461C170.576 278.598 184.127 285.831 190.465 290.305C178.452 274.097 172.43 252.166 180.233 246.2C186.474 241.427 195.178 244.6 198.749 246.783C217.601 258.999 225.56 286.201 227.184 298.274Z" fill="#AAFF33"/>
<path d="M151.052 212.018C149.172 210.223 145.611 205.375 146.41 200.351C147.266 197.572 147.793 191.437 143.057 189.124C138.321 186.811 136.339 192.486 135.94 195.612C135.568 198.94 138.069 206.881 151.052 212.018Z" fill="#AAFF33"/>
<path d="M145.421 215.849C142.682 213.759 135.916 210.981 130.77 216.589C128.572 218.524 125.376 223.092 130.177 225.888C134.978 228.684 137.139 224.338 137.619 221.815C138.61 220.042 141.558 216.368 145.421 215.849Z" fill="#AAFF33"/>
<path d="M248.647 160.79C244.345 153.174 234.93 140.14 231.688 148.935C228.445 157.729 241.643 160.503 248.647 160.79Z" fill="#77CC00"/>
<path d="M256.414 159.131C255.284 156.825 253.708 150.891 256.439 145.607C258.099 142.72 260.148 136.626 255.059 135.344C249.97 134.061 248.758 140.288 248.789 143.562C249.02 146.809 250.87 154.468 256.414 159.131Z" fill="#77CC00"/>
<path d="M348.889 101.831C346.108 97.9024 341.194 88.4835 343.796 82.2335C344.985 77.3617 345.799 66.9677 339.55 64.3663C331.737 61.1146 326.593 68.5668 327.324 74C328.054 79.4333 328.587 87.9662 348.889 101.831Z" fill="#77CC00"/>
<ellipse cx="707.5" cy="569.5" rx="864.5" ry="334.5" fill="#BDFF61"/>
<path d="M971.5 329.5C966.741 313.638 957.5 318 934 302L598 354.5C550.667 368.333 457.3 398.6 462.5 409C469 422 485.5 416.5 556 423.5C626.5 430.5 662 426 665 409C668 392 803 361 825.5 361H907.5C937.5 361 979 354.5 971.5 329.5Z" fill="#77CC00"/>
<path d="M883.373 206.821C878.398 208.352 865.924 210.495 855.822 206.821C867.301 204.984 878.972 206.056 883.373 206.821Z" fill="#232E2F"/>
<path d="M869.597 198.208C868.662 198.254 867.703 198.333 866.728 198.45C864.912 197.013 861.372 191.884 861.017 182.533C861.724 186.824 866.818 194.503 869.597 198.208Z" fill="#232E2F"/>
<path fill-rule="evenodd" clip-rule="evenodd" d="M804.163 250.731C814.265 228.46 842.811 212.178 855.822 206.821C855.056 206.247 853.985 204.525 855.822 202.229C857.659 199.933 859.266 199.742 859.84 199.933C853.43 194.002 841.472 180.532 844.916 174.104C849.221 166.068 860.127 168.651 866.728 174.104C872.008 178.466 873.52 182.618 873.615 184.149C874.763 181.47 877.978 175.711 881.651 174.104C886.243 172.095 898.297 171.521 897.149 179.27C896.23 185.469 887.582 195.628 883.373 199.933C884.234 200.89 885.439 203.607 883.373 206.821C885.205 207.98 887.374 209.216 889.767 210.579C903.371 218.329 924.18 230.184 931.014 255.323C934.291 267.379 935.302 274.167 936.155 279.894C937.18 286.777 937.977 292.128 942.207 303.251C944.205 308.506 946.299 313.073 948.139 317.087C953.433 328.637 956.623 335.597 949.382 341.134C936.85 349.257 927.508 344.618 922.722 342.242C921.59 341.68 920.712 341.244 920.108 341.134C918.528 340.847 915.148 342.142 910.835 343.795C906.534 345.444 901.303 347.45 896.001 348.596C885.382 350.892 875.337 351.466 853.813 350.318C839.998 349.581 833.867 347.308 829.731 345.773C827.422 344.917 825.734 344.291 823.678 344.291C821.989 344.291 819.901 344.838 817.57 345.449C811.981 346.914 804.988 348.746 798.71 344.291C789.813 337.977 793.257 322.193 796.127 310.426C797.073 306.546 796.896 301.761 796.687 296.092C796.26 284.568 795.699 269.39 804.163 250.731ZM883.373 206.821C878.972 206.056 867.301 204.984 855.822 206.821C865.924 210.495 878.398 208.352 883.373 206.821ZM861.017 182.533C861.724 186.824 866.818 194.503 869.597 198.208C868.662 198.254 867.703 198.333 866.728 198.45C864.912 197.013 861.372 191.884 861.017 182.533ZM883.373 184.149C879.929 190.577 874.668 196.172 872.467 198.166C874.342 198.203 876.084 198.361 877.633 198.584C879.547 197.216 883.373 192.414 883.373 184.149Z" fill="#3C484A"/>
<path d="M872.467 198.166C874.668 196.172 879.929 190.577 883.373 184.149C883.373 192.414 879.547 197.216 877.633 198.584C876.084 198.361 874.342 198.203 872.467 198.166Z" fill="#232E2F"/>
<path opacity="0.3" d="M935.654 320.693C935.634 320.693 935.132 320.707 934.268 320.861C933.877 320.931 933.659 321.267 933.538 321.562C933.416 321.857 933.419 322.173 933.588 322.387C934.094 322.703 934.776 322.808 935.397 322.712C935.682 322.616 935.907 322.423 936.18 321.892" stroke="white" stroke-width="3.44392" stroke-linecap="round"/>
<path opacity="0.3" d="M828.319 333.387C828.298 333.387 827.796 333.401 826.933 333.555C826.541 333.625 826.323 333.961 826.202 334.256C826.081 334.551 826.083 334.867 826.253 335.08C826.759 335.396 827.441 335.501 828.061 335.405C828.347 335.309 828.572 335.117 828.844 334.585" stroke="white" stroke-width="3.44392" stroke-linecap="round"/>
<path opacity="0.3" d="M926.192 317.887C926.183 317.887 925.962 317.887 925.593 317.951C925.432 317.979 925.357 318.144 925.31 318.324C925.263 318.504 925.256 318.731 925.327 318.86C925.463 319.108 925.838 319.04 926.1 318.969C926.226 318.898 926.336 318.755 926.392 318.57C926.449 318.386 926.449 318.163 926.185 318.045" stroke="white" stroke-width="3.44392" stroke-linecap="round"/>
<path d="M929.724 329.461C929.604 329.843 928.406 331.876 927.253 333.541C926.579 334.393 925.898 335.201 925.104 335.946C924.595 336.364 923.869 336.863 922.914 337.477" stroke="#232E2F" stroke-width="1.14797" stroke-linecap="round"/>
<path d="M821.934 341.293C821.913 341.293 821.465 341.049 820.638 340.548C819.917 340.03 818.181 338.158 815.772 335.42C814.76 334.285 814.174 333.668 813.201 332.717" stroke="#232E2F" stroke-width="1.14797" stroke-linecap="round"/>
<path opacity="0.4" d="M882.512 215.719C891.122 217.154 905.529 227.141 913.795 236.095" stroke="white" stroke-width="3.44392" stroke-linecap="round"/>
<path d="M729.973 149.131C728.97 146.29 728.719 140.559 735.737 140.358C742.755 140.158 761.553 145.455 770.075 148.128C789.625 143.867 828.975 134.995 829.978 133.591C831.231 131.837 828.975 129.33 818.699 125.821C834.239 125.821 844.515 123.064 842.009 115.294C839.502 107.525 831.231 86.2203 821.957 74.4402C812.684 62.6601 808.423 57.3967 803.661 55.1409C798.899 52.8852 766.566 40.6038 752.53 36.8442C738.494 33.0846 706.914 24.8135 697.389 23.3097C687.865 21.8059 668.816 19.0488 663.553 26.568C658.29 34.0872 665.308 41.8568 668.566 45.6164C671.173 48.6241 685.192 61.7409 691.875 67.9234C690.121 69.5108 686.462 73.1868 685.86 75.1919L668.566 93.6212C672.902 93.7661 677.746 91.0514 687.865 100.757C700.146 112.537 704.407 120.307 704.157 128.829C704.115 130.245 703.997 131.632 703.824 132.959C702.955 139.615 700.69 144.767 699.645 144.611L729.973 149.131Z" fill="#2286A3"/>
<path d="M603.149 130.082L613.926 131.837V124.819C607.711 126.824 604.151 129.163 603.149 130.082Z" fill="#045460"/>
<path fill-rule="evenodd" clip-rule="evenodd" d="M831.482 336.86C825.867 326.634 818.616 323.075 815.691 322.574C804.413 318.313 785.364 325.331 784.111 350.645C783.809 356.737 784.48 361.799 785.893 365.934C790.351 378.984 802.197 382.816 814.188 380.722C818.037 380.05 821.455 377.858 824.321 374.742C833.209 365.079 836.789 346.526 831.482 336.86ZM815.691 336.86C806.167 335.607 801.906 346.134 801.154 359.167C801.154 373.955 815.691 368.942 818.699 361.924C821.707 354.906 825.216 338.113 815.691 336.86Z" fill="#2E7386"/>
<path d="M801.154 359.167C801.906 346.134 806.167 335.607 815.691 336.86C825.216 338.113 821.707 354.906 818.699 361.924C815.691 368.942 801.154 373.955 801.154 359.167Z" fill="#154552"/>
<path d="M814.188 380.722C802.197 382.816 790.351 378.984 785.893 365.934C773.268 372.033 747.116 384.532 743.507 385.735C740.444 386.756 738.536 387.546 731.978 387.163C732.813 391.783 732.128 401.124 722.704 401.525C713.28 401.926 712.261 390.554 712.929 384.818C699.679 382.674 676.976 378.421 658.54 374.742C658.791 375.399 659.142 377.463 658.54 380.471C657.788 384.231 654.53 387.489 647.261 387.489C642.57 387.489 641.043 380.367 640.761 374.742C628.808 376.736 606.858 382.075 614.678 387.489C624.453 394.256 662.049 401.525 677.84 404.783C693.63 408.042 705.661 414.558 738.745 408.543C771.829 402.527 755.037 396.763 790.126 391.249C818.198 386.837 824.619 378.407 824.321 374.742C821.455 377.858 818.037 380.05 814.188 380.722Z" fill="#77CC00"/>
<path d="M784.111 350.645C785.364 325.331 804.413 318.313 815.691 322.574L833.034 167.427L806.418 174.264L791.881 225.325L806.418 228.082L782.607 252.896L788.121 267.683L791.881 265.929L790.126 272.947L795.891 295.003L774.837 250.64L795.891 230.087H785.113L794.638 177.29L779.366 181.213C780.298 186.558 780.192 189.786 779.366 191.663C780.112 193.777 780.602 198.607 776.592 201.013C771.579 204.021 767.318 197.003 763.809 198.005C760.3 199.008 763.809 204.271 758.796 208.783C754.786 212.392 748.603 208.009 746.014 205.366C743.782 204.144 741.387 202.537 738.745 201.013C732.228 197.253 728.218 199.008 726.213 193.995C725.631 192.54 726.19 188.887 727.135 184.22L597.235 163.918C602.832 223.008 612.965 328.978 614.678 342.875C616.934 361.172 620.694 365.934 630.469 368.691C632.305 369.209 635.937 370.046 640.745 371.079C645.666 372.137 651.82 373.402 658.54 374.742C676.976 378.421 699.679 382.674 712.929 384.818C715.248 385.193 717.278 385.503 718.944 385.735C724.737 386.539 728.877 386.982 731.978 387.163C738.536 387.546 740.444 386.756 743.507 385.735C747.116 384.532 773.268 372.033 785.893 365.934C784.48 361.799 783.809 356.737 784.111 350.645Z" fill="#8BD5EA"/>
<path d="M845.016 137.351C845.016 133.541 843.512 132.087 842.76 131.837C844.264 131.837 850.28 127.576 852.034 125.821C853.789 124.067 857.799 116.297 855.794 107.274C853.789 98.2508 844.014 78.4502 838.5 67.9234C832.986 57.3965 819.2 38.3479 812.684 33.3351C806.167 28.3223 778.597 18.798 757.794 12.532C736.991 6.26599 703.906 0 683.103 0C662.3 0 652.274 12.2813 648.264 26.568C644.254 40.8547 677.589 67.9234 685.86 75.1919C686.462 73.1868 690.121 69.5108 691.875 67.9234C685.192 61.7409 671.173 48.6241 668.566 45.6164C665.308 41.8568 658.29 34.0872 663.553 26.568C668.816 19.0488 687.865 21.8059 697.389 23.3097C706.914 24.8135 738.494 33.0846 752.53 36.8442C766.566 40.6038 798.899 52.8852 803.661 55.1409C808.423 57.3967 812.684 62.6601 821.957 74.4402C831.231 86.2203 839.502 107.525 842.009 115.294C844.515 123.064 834.239 125.821 818.699 125.821C828.975 129.33 831.231 131.837 829.978 133.591C828.975 134.995 789.625 143.867 770.075 148.128C771.201 151.024 774.201 159.868 777.465 172.691L834.239 156.65C835.408 156.316 838.45 155.547 841.257 155.146C844.766 154.645 845.016 142.113 845.016 137.351Z" fill="#8BD5EA"/>
<path d="M586.105 152.139C588.913 153.743 594.126 154.645 596.382 154.896L728.835 176.2C731.028 165.83 733.184 154.018 729.973 149.131L699.645 144.611L632.474 134.601L613.926 131.837L603.149 130.082C604.151 129.163 607.711 126.824 613.926 124.819V117.801C608.663 118.887 596.281 122.062 588.862 126.072C579.589 131.085 582.596 150.133 586.105 152.139Z" fill="#8BD5EA"/>
<path d="M794.638 177.29L785.113 230.087H795.891L774.837 250.64L795.891 295.003L790.126 272.947L791.881 265.929L788.121 267.683L782.607 252.896L806.418 228.082L791.881 225.325L806.418 174.264L794.638 177.29Z" fill="#52B6D3"/>
<path d="M718.944 385.735C717.278 385.503 715.248 385.193 712.929 384.818C712.261 390.554 713.28 401.926 722.704 401.525C732.128 401.124 732.813 391.783 731.978 387.163C728.877 386.982 724.737 386.539 718.944 385.735Z" fill="#52B6D3"/>
<path d="M647.261 387.489C654.53 387.489 657.788 384.231 658.54 380.471C659.142 377.463 658.791 375.399 658.54 374.742C651.82 373.402 645.666 372.137 640.745 371.079C640.696 372.136 640.693 373.396 640.761 374.742C641.043 380.367 642.57 387.489 647.261 387.489Z" fill="#52B6D3"/>
<path d="M728.835 176.2L596.382 154.896C596.652 157.756 596.937 160.771 597.235 163.918L727.135 184.22C727.631 181.769 728.234 179.038 728.835 176.2Z" fill="#52B6D3"/>
<path d="M777.465 172.691C777.592 173.186 777.718 173.687 777.845 174.195C778.512 176.865 779.014 179.19 779.366 181.213L794.638 177.29L806.418 174.264L833.034 167.427L834.239 156.65L777.465 172.691Z" fill="#52B6D3"/>
<path d="M735.737 140.358C728.719 140.559 728.97 146.29 729.973 149.131C733.184 154.018 731.028 165.83 728.835 176.2C728.234 179.038 727.631 181.769 727.135 184.22C726.19 188.887 725.631 192.54 726.213 193.995C728.218 199.008 732.228 197.253 738.745 201.013C741.387 202.537 743.782 204.144 746.014 205.366C749.285 207.157 752.205 208.119 755.037 206.778C759.799 204.522 758.044 190.236 762.556 188.982C767.067 187.729 770.075 193.745 774.837 193.995C776.882 194.103 778.51 193.61 779.366 191.663C780.192 189.786 780.298 186.558 779.366 181.213C779.014 179.19 778.512 176.865 777.845 174.195C777.718 173.687 777.592 173.186 777.465 172.691C774.201 159.868 771.201 151.024 770.075 148.128C761.553 145.455 742.755 140.158 735.737 140.358Z" fill="#DCEFF0"/>
<path fill-rule="evenodd" clip-rule="evenodd" d="M608.162 107.274L613.926 117.801V124.819V131.837L632.474 134.601C628.463 131.35 630.719 126.072 634.729 119.806C638.74 113.54 638.489 120.808 638.489 126.072C638.489 131.336 650.52 128.829 661.548 127.826C672.576 126.824 685.86 122.563 694.131 123.565C699.911 124.266 702.796 129.479 703.824 132.959C703.997 131.632 704.115 130.245 704.157 128.829C704.407 120.307 700.146 112.537 687.865 100.757C677.746 91.0514 672.902 93.7661 668.566 93.6212C667.639 93.5903 666.736 93.4287 665.809 92.9874C660.545 90.481 666.059 67.9234 661.548 65.1663C657.036 62.4093 652.776 65.6676 651.773 61.4067C649.016 54.8901 645.256 56.1433 638.489 61.4067C631.722 66.6702 634.98 75.1919 632.474 77.949C629.967 80.706 623.451 78.1996 615.681 77.949C607.911 77.6983 596.382 85.4682 595.128 95.4938C594.126 103.514 603.4 106.689 608.162 107.274ZM661.548 119.806C663.135 114.041 667.012 102.812 669.819 104.016C673.328 105.519 664.556 119.806 661.548 119.806ZM629.466 88.4758C637.487 87.8743 645.34 97.2482 648.264 102.01C649.016 103.347 650.069 106.021 648.264 106.021C646.008 106.021 639.993 95.4938 634.729 94.2406C629.466 92.9874 625.205 89.4784 629.466 88.4758ZM613.926 102.01C612.172 98.0001 618.438 102.01 623.701 104.016C626.96 105.403 634.729 105.018 629.466 106.021C624.203 107.023 615.681 106.021 613.926 102.01ZM651.773 88.4758C649.768 85.7188 646.008 78.7009 647.011 72.6855C648.264 65.1663 647.512 81.4579 651.773 88.4758Z" fill="#DCEFF0"/>
<path d="M774.837 193.995C770.075 193.745 767.067 187.729 762.556 188.982C758.044 190.236 759.799 204.522 755.037 206.778C752.205 208.119 749.285 207.157 746.014 205.366C748.603 208.009 754.786 212.392 758.796 208.783C763.809 204.271 760.3 199.008 763.809 198.005C767.318 197.003 771.579 204.021 776.592 201.013C780.602 198.607 780.112 193.777 779.366 191.663C778.51 193.61 776.882 194.103 774.837 193.995Z" fill="#52B6D3"/>
<path fill-rule="evenodd" clip-rule="evenodd" d="M694.131 123.565C685.86 122.563 672.576 126.824 661.548 127.826C650.52 128.829 638.489 131.336 638.489 126.072C638.489 120.808 638.74 113.54 634.729 119.806C630.719 126.072 628.463 131.35 632.474 134.601L699.645 144.611C700.69 144.767 702.955 139.615 703.824 132.959C702.796 129.479 699.911 124.266 694.131 123.565ZM679.343 137.1C683.27 135.427 691.725 132.332 694.131 133.34C697.139 134.601 690.121 138.353 679.343 137.1Z" fill="#ADCCCA"/>
<path d="M679.343 137.1C683.27 135.427 691.725 132.332 694.131 133.34C697.139 134.601 690.121 138.353 679.343 137.1Z" fill="#8DB2AF"/>
<path d="M661.548 119.806C663.135 114.041 667.012 102.812 669.819 104.016C673.328 105.519 664.556 119.806 661.548 119.806Z" fill="#ADCCCA"/>
<path d="M648.264 102.01C645.34 97.2482 637.487 87.8743 629.466 88.4758C625.205 89.4784 629.466 92.9874 634.729 94.2406C639.993 95.4938 646.008 106.021 648.264 106.021C650.069 106.021 649.016 103.347 648.264 102.01Z" fill="#ADCCCA"/>
<path d="M623.701 104.016C618.438 102.01 612.172 98.0001 613.926 102.01C615.681 106.021 624.203 107.023 629.466 106.021C634.729 105.018 626.96 105.403 623.701 104.016Z" fill="#ADCCCA"/>
<path d="M651.773 88.4758C649.768 85.7188 646.008 78.7009 647.011 72.6855C648.264 65.1663 647.512 81.4579 651.773 88.4758Z" fill="#ADCCCA"/>
<path fill-rule="evenodd" clip-rule="evenodd" d="M692.072 219.542C693.242 220.916 696.498 223.735 700.16 224.027C703.822 224.32 706.159 230.956 706.87 234.238C707.517 237.668 706.832 245.476 698.913 249.266C694.767 251.187 685.573 251.702 681.967 238.392C681.365 235.682 680.967 228.607 684.199 221.985C685.419 219.523 688.702 215.588 692.072 219.542ZM693.947 228.752C693.224 225.501 691.18 224.948 690.248 225.079C686.64 225.651 686.133 229.818 686.33 231.83C688.004 237.799 694.851 232.817 693.947 228.752Z" fill="#013D4D"/>
<path fill-rule="evenodd" clip-rule="evenodd" d="M647.942 214.483L634.167 219.68C632.474 220.364 629.194 222.723 629.615 226.688C629.384 233.426 632.023 246.536 644.425 245.069C648.089 244.696 655.583 240.34 656.245 225.896C656.155 224.455 655.489 220.737 653.546 217.388C651.602 214.039 649 214.056 647.942 214.483ZM638.581 227.864C637.555 225.325 639.964 223.368 641.296 222.706C642.269 222.067 644.394 221.602 645.118 224.854C645.841 228.106 644.032 229.477 643.037 229.756C641.979 230.183 639.607 230.403 638.581 227.864Z" fill="#013D4D"/>
<path d="M690.248 225.079C691.18 224.948 693.224 225.501 693.947 228.752C694.851 232.817 688.004 237.799 686.33 231.83C686.133 229.818 686.64 225.651 690.248 225.079Z" fill="white"/>
<path d="M641.296 222.706C639.964 223.368 637.555 225.325 638.581 227.864C639.607 230.403 641.979 230.183 643.037 229.756C644.032 229.477 645.841 228.106 645.118 224.854C644.394 221.602 642.269 222.067 641.296 222.706Z" fill="white"/>
<path d="M688.619 268.561C684.282 258.131 669.751 242.147 646.326 261.653C645.016 262.674 642.906 265.249 644.947 267.378C645.712 268.053 648.015 268.575 651.106 265.259C657.634 259.791 672.801 252.802 681.246 268.587C681.867 270.428 683.781 273.765 686.471 272.382C689.161 271 689.024 269.259 688.619 268.561Z" fill="#013D4D"/>
<path d="M685.946 194.329C684.443 194.568 681.948 196.314 684 201.392C686.565 207.739 692.505 216.045 704.59 218.546C705.608 218.627 707.729 218.09 708.075 215.292C708.421 212.494 706.77 211.758 705.902 211.74C701.13 210.591 691.289 206.273 690.091 198.192C690.001 196.752 689.047 193.963 685.946 194.329Z" fill="#013D4D"/>
<path d="M652.51 193.81C649.345 197.55 641.043 204.719 633.157 203.475C631.694 203.205 628.695 203.579 628.403 207.242C628.196 208.556 629.51 211.077 636.424 210.646C640.025 210.422 649.088 207.818 656.533 199.199C657.546 198.051 659.024 195.313 656.832 193.54C654.639 191.768 653.037 192.982 652.51 193.81Z" fill="#013D4D"/>
<path fill-rule="evenodd" clip-rule="evenodd" d="M702.622 53.7544C705.147 52.0117 710.073 50.1677 709.584 56.7329C710.745 55.1594 713.009 51.1725 712.771 47.8124C712.308 47.2507 711.761 46.7907 711.123 46.4525C704.718 43.0594 696.75 49.0027 693.566 52.3985C685.458 63.2629 668.492 86.7048 665.491 93.5578C662.489 100.411 661.319 106.302 661.109 108.392C661.094 110.799 661.811 112.869 662.954 114.626C663.267 115.107 663.612 115.565 663.983 115.999C678.701 116.642 687.473 121.273 690.019 123.507C692.625 125.889 697.851 127.538 700.138 128.065C720.824 133.375 731.703 100.705 734.557 83.7066C734.949 81.0914 737.057 74.8424 742.358 70.7679C744.339 69.2204 748.21 67.5504 747.851 73.2499C749.316 73.0815 752.083 70.9556 751.426 63.799C750.73 63.2587 750.036 62.8997 749.431 62.6988C741.497 57.9704 729.072 72.9276 723.852 80.9973C718.821 88.2103 706.915 84.178 701.591 81.2602C693.35 76.9285 692.93 72.0342 693.749 70.1285C693.522 68.852 693.639 66.9951 694.24 64.3933C695.154 62.4095 698.11 57.5045 702.622 53.7544ZM681.291 93.1575C681.806 102.086 689.627 115.815 716.79 99.3023C703.752 109.428 678.398 122.376 681.291 93.1575Z" fill="#EBBC37"/>
<path d="M681.291 93.1575C681.806 102.086 689.627 115.815 716.79 99.3023C703.752 109.428 678.398 122.376 681.291 93.1575Z" fill="#CD9E19"/>
<path fill-rule="evenodd" clip-rule="evenodd" d="M750.589 94.1283L754.466 80.6021C757.079 71.0706 754.227 65.9706 751.426 63.799C752.083 70.9556 749.316 73.0815 747.851 73.2499C747.593 76.3461 745.909 83.7466 741.235 88.5788C738.831 90.8927 734.13 93.1577 734.557 83.7066C731.703 100.705 720.824 133.375 700.138 128.065C697.851 127.538 692.625 125.889 690.019 123.507C687.473 121.273 678.701 116.642 663.983 115.999C667.106 119.659 672.053 121.686 675.065 122.375C679.438 123.398 689.842 126.745 696.472 131.942C703.101 137.139 712.354 137.178 716.152 136.548C719.518 135.503 724.063 135.243 725.915 135.244C733.579 135.341 738.182 132.423 740.975 128.647C744.806 123.468 745.231 116.674 745.478 113.832C745.82 109.9 749.028 99.0578 750.589 94.1283ZM737.619 102.421C737.104 108.613 733.772 122.756 724.572 129.787C727.648 125.73 734.565 114.577 737.619 102.421Z" fill="#CD9E19"/>
<path d="M709.584 56.7329C708.722 59.7387 706.29 66.3634 703.454 68.8155C700.116 71.6518 694.588 74.8334 693.749 70.1285C692.93 72.0342 693.35 76.9285 701.591 81.2602C706.915 84.178 718.821 88.2103 723.852 80.9973C712.563 82.1838 711.518 76.1081 712.407 72.9219C714.424 66.251 716.961 52.8864 712.771 47.8124C713.009 51.1725 710.745 55.1594 709.584 56.7329Z" fill="#CD9E19"/>
<path d="M737.619 102.421C737.104 108.613 733.772 122.756 724.572 129.787C727.648 125.73 734.565 114.577 737.619 102.421Z" fill="#1E96CC"/>
<path d="M734.011 92.7228C729.1 93.3278 726.37 97.1913 725.619 99.0475C717.687 118.648 703.915 133.466 698.02 138.425C695.157 140.377 694.883 141.908 695.104 142.429C695.607 144.116 697.599 145.061 699.698 145.557C701.565 140.921 709.177 132.312 724.694 134.963C744.09 138.275 760.099 137.949 752.151 131.168L747.981 127.861C745.663 126.383 742.934 123.357 750.566 123.075C760.104 122.723 764.772 127.203 773.925 111.79C772.088 110.723 765.951 108.434 756.093 107.815C752.933 107.616 748.948 106.414 758.286 103.194C767.625 99.9744 779.912 102.333 784.888 103.914C786.488 102.16 789.33 98.1567 787.894 96.1815C772.529 91.2591 751.188 93.4852 742.032 95.3206C741.793 94.8946 741.284 94.3283 740.475 93.8239C740.953 96.6939 737.356 106.783 735.497 111.469C738.531 111.66 742.069 113.912 743.459 115.015C737.687 116.999 725.393 122.026 722.387 126.252C719.38 130.479 714.576 131.408 712.55 131.344C727.864 117.841 734.438 99.8987 735.811 92.6153C735.251 92.6107 734.652 92.6439 734.011 92.7228Z" fill="#FFB67C"/>
<path d="M806.279 96.6938C800.307 94.7958 793.118 96.1204 790.27 97.02C789.22 106.154 779.739 128.773 750.208 146.179C755.562 145.014 761.771 145.665 764.528 146.222C770.547 147.361 772.37 142.59 772.528 140.063C777.884 139.638 779.431 134.215 779.534 131.557C786.237 129.085 787.488 123.111 787.276 120.433C792.727 118.492 794.739 113.733 795.064 111.596C797.038 109.977 798.686 108.455 800.055 107.044C805.144 101.802 806.39 98.1006 806.279 96.6938Z" fill="#FFB67C"/>
<path d="M718.398 147.319C730.521 150.67 743.009 148.422 747.737 146.879C748.528 146.595 749.357 146.364 750.208 146.179C779.739 128.773 789.22 106.154 790.27 97.02C789.497 96.7199 788.704 96.4408 787.894 96.1815C789.33 98.1567 786.488 102.16 784.888 103.914C779.912 102.333 767.625 99.9744 758.286 103.194C748.948 106.414 752.933 107.616 756.093 107.815C765.951 108.434 772.088 110.723 773.925 111.79C764.772 127.203 760.104 122.723 750.566 123.075C742.934 123.357 745.663 126.383 747.981 127.861L752.151 131.168C760.099 137.949 744.09 138.275 724.694 134.963C709.177 132.312 701.565 140.921 699.698 145.557C701.268 145.927 702.899 146.046 704.013 146.035C706.6 145.697 709.123 145.723 711.348 145.925C714.539 146.215 717.118 146.865 718.398 147.319Z" fill="#FE7101"/>
<path d="M735.811 92.6153C734.438 99.8987 727.864 117.841 712.55 131.344C714.576 131.408 719.38 130.479 722.387 126.252C725.393 122.026 737.687 116.999 743.459 115.015C742.069 113.912 738.531 111.66 735.497 111.469C737.356 106.783 740.953 96.6939 740.475 93.8239C739.437 93.1772 737.905 92.6323 735.811 92.6153Z" fill="#FF7001"/>
<path d="M549.04 249.643C554.781 251.409 569.176 253.882 580.833 249.643C567.586 247.524 554.119 248.76 549.04 249.643Z" fill="#232E2F"/>
<path d="M564.937 239.705C566.016 239.757 567.122 239.848 568.248 239.984C570.344 238.325 574.428 232.407 574.838 221.616C574.022 226.567 568.144 235.429 564.937 239.705Z" fill="#232E2F"/>
<path fill-rule="evenodd" clip-rule="evenodd" d="M640.444 300.313C628.787 274.614 595.846 255.825 580.833 249.643C581.716 248.981 582.953 246.994 580.833 244.344C578.713 241.695 576.859 241.474 576.196 241.695C583.593 234.851 597.392 219.308 593.417 211.889C588.45 202.617 575.865 205.597 568.248 211.889C562.155 216.923 560.411 221.714 560.3 223.481C558.975 220.39 555.266 213.744 551.027 211.889C545.729 209.571 531.819 208.909 533.144 217.851C534.204 225.004 544.183 236.728 549.04 241.695C548.047 242.799 546.656 245.934 549.04 249.643C546.927 250.981 544.423 252.407 541.662 253.98C525.964 262.923 501.951 276.603 494.066 305.611C490.284 319.523 489.118 327.356 488.133 333.964C486.95 341.908 486.031 348.082 481.15 360.917C478.844 366.981 476.428 372.252 474.305 376.883C468.196 390.211 464.515 398.242 472.871 404.632C487.332 414.005 498.112 408.653 503.634 405.91C504.941 405.262 505.953 404.759 506.65 404.632C508.474 404.3 512.374 405.795 517.351 407.703C522.315 409.606 528.35 411.92 534.469 413.243C546.722 415.892 558.313 416.554 583.151 415.23C599.093 414.379 606.167 411.756 610.94 409.985C613.604 408.997 615.552 408.275 617.924 408.275C619.874 408.275 622.283 408.906 624.973 409.611C631.423 411.302 639.492 413.416 646.736 408.275C657.003 400.989 653.029 382.775 649.717 369.197C648.625 364.719 648.829 359.198 649.071 352.656C649.563 339.359 650.211 321.844 640.444 300.313ZM549.04 249.643C554.119 248.76 567.586 247.524 580.833 249.643C569.176 253.882 554.781 251.409 549.04 249.643ZM574.838 221.616C574.022 226.567 568.144 235.429 564.937 239.705C566.016 239.757 567.122 239.848 568.248 239.984C570.344 238.325 574.428 232.407 574.838 221.616ZM549.04 223.481C553.015 230.899 559.086 237.355 561.625 239.656C559.461 239.698 557.452 239.881 555.664 240.138C553.456 238.56 549.04 233.018 549.04 223.481Z" fill="#3C484A"/>
<path d="M561.625 239.656C559.086 237.355 553.015 230.899 549.04 223.481C549.04 233.018 553.456 238.56 555.664 240.138C557.452 239.881 559.461 239.698 561.625 239.656Z" fill="#232E2F"/>
<path opacity="0.3" d="M488.711 381.045C488.735 381.045 489.314 381.061 490.31 381.239C490.762 381.319 491.014 381.707 491.154 382.048C491.294 382.388 491.291 382.753 491.095 382.999C490.511 383.364 489.724 383.485 489.008 383.374C488.679 383.263 488.419 383.041 488.104 382.428" stroke="white" stroke-width="3.97407" stroke-linecap="round"/>
<path opacity="0.3" d="M612.57 395.691C612.594 395.691 613.173 395.708 614.169 395.885C614.621 395.966 614.872 396.354 615.012 396.694C615.152 397.034 615.15 397.399 614.954 397.646C614.37 398.01 613.583 398.132 612.867 398.021C612.538 397.91 612.278 397.688 611.963 397.074" stroke="white" stroke-width="3.97407" stroke-linecap="round"/>
<path opacity="0.3" d="M499.63 377.807C499.641 377.807 499.895 377.807 500.321 377.881C500.507 377.914 500.594 378.104 500.648 378.311C500.702 378.519 500.71 378.781 500.628 378.93C500.471 379.216 500.038 379.138 499.736 379.055C499.591 378.973 499.464 378.808 499.399 378.595C499.334 378.382 499.334 378.126 499.638 377.99" stroke="white" stroke-width="3.97407" stroke-linecap="round"/>
<path d="M495.554 391.162C495.692 391.603 497.075 393.949 498.405 395.87C499.183 396.854 499.97 397.785 500.885 398.646C501.473 399.128 502.31 399.703 503.413 400.412" stroke="#232E2F" stroke-width="1.32469" stroke-linecap="round"/>
<path d="M619.937 404.815C619.962 404.815 620.479 404.533 621.433 403.955C622.264 403.357 624.268 401.197 627.048 398.037C628.216 396.728 628.892 396.016 630.015 394.918" stroke="#232E2F" stroke-width="1.32469" stroke-linecap="round"/>
<path opacity="0.4" d="M550.034 259.91C540.099 261.566 523.474 273.091 513.936 283.423" stroke="white" stroke-width="3.97407" stroke-linecap="round"/>
<path d="M847.631 394.855C843.465 393.665 835.203 393.784 835.488 403.784C835.846 407.236 839.131 415.426 849.417 420.569C854.298 422.847 864.202 424.749 864.774 414.141C864.179 409.26 859.917 398.57 847.631 394.855Z" fill="#58BFE8"/>
<path fill-rule="evenodd" clip-rule="evenodd" d="M852.274 428.069C862.274 429.783 868.345 424.498 870.131 421.641C870.482 419.533 870.579 417.505 870.475 415.569C870.396 414.084 870.198 412.654 869.906 411.284C869.47 409.238 868.825 407.327 868.05 405.569C865.62 400.054 861.915 396.048 859.417 394.141C853.285 389.542 847.61 388.015 843.345 387.834C840.457 387.712 838.215 388.207 836.917 388.784C829.774 392.784 828.703 399.736 829.06 402.712C830.273 410.128 834.026 415.767 838.352 419.855C843.194 424.43 848.753 427.063 852.274 428.069ZM835.488 403.784C835.203 393.784 843.465 393.665 847.631 394.855C859.917 398.57 864.179 409.26 864.774 414.141C864.202 424.749 854.298 422.847 849.417 420.569C839.131 415.426 835.846 407.236 835.488 403.784Z" fill="#E6EFEF"/>
<path fill-rule="evenodd" clip-rule="evenodd" d="M843.345 387.834C847.61 388.015 853.285 389.542 859.417 394.141C861.915 396.048 865.62 400.054 868.05 405.569C871.243 401.241 884.577 391.385 890.845 386.998C894.559 384.427 893.583 379.26 892.63 376.998C890.059 371.57 882.75 366.568 879.416 364.745C878.256 364.329 877.169 364.011 876.202 363.784C871.059 361.784 865.964 365.094 864.059 366.999L843.345 387.834ZM877.631 368.784L857.988 385.213C857.631 385.57 857.06 386.427 857.631 386.998C858.202 387.57 859.06 387.236 859.417 386.998L879.416 370.57C879.654 370.213 879.988 369.356 879.416 368.784C878.845 368.213 877.988 368.546 877.631 368.784Z" fill="#ABE2EF"/>
<path d="M895.845 397.712C897.845 395.141 898.345 390.689 898.345 388.784C898.844 375.064 887.4 367.606 879.416 364.745C882.75 366.568 890.059 371.57 892.63 376.998C893.583 379.26 894.559 384.427 890.845 386.998C884.577 391.385 871.243 401.241 868.05 405.569C868.825 407.327 869.47 409.238 869.906 411.284L895.845 397.712Z" fill="#8CD5EB"/>
<path d="M870.131 421.641L897.63 401.998C898.725 401.04 899.637 399.94 900.392 398.784C900.622 398.431 900.838 398.073 901.04 397.712H895.845C891.074 401.879 879.322 411.284 870.475 415.569C870.579 417.505 870.482 419.533 870.131 421.641Z" fill="#8BD3EB"/>
<path d="M895.845 397.712L869.906 411.284C870.198 412.654 870.396 414.084 870.475 415.569C879.322 411.284 891.074 401.879 895.845 397.712Z" fill="#47A8CF"/>
<path d="M857.988 385.213L877.631 368.784C877.988 368.546 878.845 368.213 879.416 368.784C879.988 369.356 879.654 370.213 879.416 370.57L859.417 386.998C859.06 387.236 858.202 387.57 857.631 386.998C857.06 386.427 857.631 385.57 857.988 385.213Z" fill="#F3FDF7"/>
<path d="M876.559 358.427C869.702 356.713 863.702 360.57 861.559 362.713L836.917 388.784C838.215 388.207 840.457 387.712 843.345 387.834L864.059 366.999C865.964 365.094 871.059 361.784 876.202 363.784C877.169 364.011 878.256 364.329 879.416 364.745C887.4 367.606 898.844 375.064 898.345 388.784C898.345 390.689 897.845 395.141 895.845 397.712H901.04C902.942 394.316 903.62 390.666 903.702 388.784C901.987 367.927 884.892 359.856 876.559 358.427Z" fill="#F1F6EC"/>
<path d="M897.63 401.998L870.131 421.641C868.345 424.498 862.274 429.783 852.274 428.069C848.753 427.063 843.194 424.43 838.352 419.855C834.541 422.95 830.703 429.712 845.845 431.998C851.56 432.95 865.202 433.64 874.059 428.783C878.464 426.045 889.202 419.855 896.916 416.998C910.543 412.117 930.315 401.641 900.392 398.784C899.637 399.94 898.725 401.04 897.63 401.998Z" fill="#77CC00"/>
<path d="M808.443 398.33C804.443 397.187 801.062 399.283 799.871 400.473C787.3 413.044 771.776 419.997 765.586 421.901C762.729 422.473 762.015 423.568 762.015 424.044C761.851 425.515 763.082 426.9 764.545 427.973C767.511 424.997 776.229 420.83 787.371 427.973C801.3 436.901 813.8 441.901 809.871 434.044L807.728 430.116C806.419 428.211 805.3 424.973 811.3 427.258C818.8 430.116 820.942 435.115 833.085 426.187C832.014 424.758 828.014 420.973 820.585 417.259C818.204 416.068 815.514 413.83 823.799 414.401C832.085 414.973 840.823 420.83 844.156 423.687C845.971 422.854 849.484 420.687 849.021 418.687C838.741 409.835 821.49 404.556 813.8 402.973C813.754 402.565 813.546 401.96 813.085 401.304C812.514 403.682 806.419 410.312 803.443 413.33C805.728 414.473 807.728 417.378 808.443 418.687C803.324 418.33 792.157 418.187 788.443 420.473C784.729 422.758 780.705 421.901 779.157 421.187C795.443 415.759 806.419 404.026 809.871 398.838C809.44 398.651 808.965 398.479 808.443 398.33Z" fill="#FFB67C"/>
<path d="M863.085 425.116C859.085 421.687 853.085 420.354 850.585 420.116C846.775 426.842 832.014 441.242 803.443 445.027C807.969 445.882 812.562 448.423 814.514 449.758C818.799 452.615 821.776 449.52 822.728 447.615C827.014 449.044 829.99 445.353 830.942 443.33C836.942 443.615 839.871 439.401 840.585 437.258C845.442 437.544 848.561 434.52 849.513 432.973C851.573 432.367 853.348 431.729 854.87 431.086C860.53 428.698 862.709 426.241 863.085 425.116Z" fill="#FFB67C"/>
<path d="M778.443 435.473C786.729 442.044 797.133 444.401 801.3 444.758C802.005 444.797 802.723 444.891 803.443 445.027C832.014 441.242 846.775 426.842 850.585 420.116C850.084 419.63 849.562 419.153 849.021 418.687C849.484 420.687 845.971 422.854 844.156 423.687C840.823 420.83 832.085 414.973 823.799 414.401C815.514 413.83 818.204 416.068 820.585 417.259C828.014 420.973 832.014 424.758 833.085 426.187C820.942 435.115 818.8 430.116 811.3 427.258C805.3 424.973 806.419 428.211 807.728 430.116L809.871 434.044C813.8 441.901 801.3 436.901 787.371 427.973C776.229 420.83 767.511 424.997 764.545 427.973C765.639 428.775 766.863 429.402 767.729 429.758C769.842 430.345 771.786 431.194 773.443 432.08C775.818 433.351 777.601 434.701 778.443 435.473Z" fill="#FE7101"/>
<path d="M809.871 398.838C806.419 404.026 795.443 415.759 779.157 421.187C780.705 421.901 784.729 422.758 788.443 420.473C792.157 418.187 803.324 418.33 808.443 418.687C807.728 417.378 805.728 414.473 803.443 413.33C806.419 410.312 812.514 403.682 813.085 401.304C812.494 400.463 811.487 399.538 809.871 398.838Z" fill="#FF7001"/>
<path d="M849.513 432.973C848.561 434.52 845.442 437.544 840.585 437.258C839.871 439.401 836.942 443.615 830.942 443.33C829.99 445.353 827.014 449.044 822.728 447.615C821.776 449.52 818.799 452.615 814.514 449.758C812.562 448.423 807.969 445.882 803.443 445.027C802.723 444.891 802.005 444.797 801.3 444.758C797.133 444.401 786.729 442.044 778.443 435.473C777.601 434.701 775.818 433.351 773.443 432.08C767.491 434.759 759.158 440.758 773.443 443.33C787.729 445.901 798.919 449.163 802.728 450.472C808.562 452.377 822.514 455.044 831.656 450.472L856.656 439.758C861.894 437.667 868.87 433.006 854.87 431.086C853.348 431.729 851.573 432.367 849.513 432.973Z" fill="#77CC00"/>
<path d="M924.716 380.567C923.406 382.353 921.799 387.188 924.358 391.281C925.819 393.617 929.636 395.19 934.656 395.318C936.02 395.353 937.475 395.219 939.001 394.853C941.144 394.019 946.501 392.853 950.786 394.853C951.65 395.013 952.761 395.143 953.941 395.171C957.153 395.248 960.874 394.564 961.501 391.639C961.62 390.805 960.572 388.924 955.429 388.067C954.12 387.71 951.215 386.424 950.072 384.139L947.215 380.567C946.827 380.044 946.348 379.495 945.787 378.954C940.072 380.235 934.834 384.611 932.93 386.639C930.644 389.21 931.501 390.329 932.215 390.567C935.358 391.139 936.62 389.139 936.858 388.067C937.43 384.924 940.429 383.186 941.858 382.71C942.81 382.472 944.858 382.139 945.429 382.71C946.001 383.281 944.715 384.377 944.001 384.853C943.644 384.972 942.429 385.996 940.429 389.139C938.43 392.281 935.311 392.829 934.001 392.71C929.144 392.424 925.787 389.496 924.716 388.067C927.573 386.353 935.43 378.842 939.001 375.3C935.045 374.486 928.584 375.046 924.716 380.567Z" fill="#65C5E7"/>
<path d="M939.001 375.3C935.43 378.842 927.573 386.353 924.716 388.067C925.787 389.496 929.144 392.424 934.001 392.71C935.311 392.829 938.43 392.281 940.429 389.139C942.429 385.996 943.644 384.972 944.001 384.853C944.715 384.377 946.001 383.281 945.429 382.71C944.858 382.139 942.81 382.472 941.858 382.71C940.429 383.186 937.43 384.924 936.858 388.067C936.62 389.139 935.358 391.139 932.215 390.567C931.501 390.329 930.644 389.21 932.93 386.639C934.834 384.611 940.072 380.235 945.787 378.954C944.156 377.383 941.83 375.883 939.001 375.3Z" fill="#98DDEF"/>
<path d="M950.786 394.853C946.501 392.853 941.144 394.019 939.001 394.853C937.475 395.219 936.02 395.353 934.656 395.318C940.37 396.804 952.227 398.855 953.941 395.171C952.761 395.143 951.65 395.013 950.786 394.853Z" fill="#77CC00"/>
<path d="M752.998 236.085C753.045 234.982 752.189 234.049 751.085 234.002C749.982 233.955 749.049 234.811 749.002 235.915L751 236L752.998 236.085ZM746 353L747.998 353.085L752.998 236.085L751 236L749.002 235.915L744.002 352.915L746 353Z" fill="#52B6D3"/>
</svg>
