<svg width="1440" height="481" viewBox="0 0 1440 481" fill="none" xmlns="http://www.w3.org/2000/svg">
<path d="M988.526 165.294C1005.65 186.997 977.245 217.914 960.903 230.659C970.632 225.314 989.902 220.048 989.152 241.746C988.402 263.443 960.132 274.983 946.091 278.04C994.574 284.007 1036.77 294.665 1051.8 299.247C1039.58 291.903 1022.08 257.467 1037.9 243.171C1050.55 231.735 1061.73 238.71 1065.74 243.628C1061.57 231.894 1063.39 212.142 1064.82 203.733C1066.72 195.003 1073.43 177.36 1084.99 176.633C1096.55 175.905 1101.44 193.075 1102.44 201.75C1106.4 191.6 1108.69 178.145 1109.34 172.687C1111.63 153.275 1099.91 143.546 1093.77 141.109C1082.85 136.003 1067.8 140.603 1061.65 143.541C1045.05 149.741 1030.95 168.385 1025.98 176.931C1032.88 163.796 1041.3 135.234 1019.75 126.073C998.197 116.912 978.997 140.934 972.091 154.09C977.875 155.549 983.541 158.974 988.526 165.294Z" fill="#3C6600"/>
<path fill-rule="evenodd" clip-rule="evenodd" d="M1146.29 110.38C1123.06 127.7 1109.19 190.447 1105.16 219.656C1107.5 210.804 1115.7 189.068 1129.77 172.942C1135.15 166.543 1149.82 155.996 1165.45 164.996C1181.07 173.996 1167.69 207.632 1159.05 223.325C1173.44 209.992 1204.44 188.476 1213.33 209.074C1222.23 229.671 1191.32 264.774 1174.75 279.751C1181.36 279.797 1195.74 282.846 1200.39 294.673C1206.2 309.457 1194.33 325.763 1173.92 328.614L1201.42 333.97C1203.75 322.012 1213.29 295.324 1232.83 284.235C1236.52 282.265 1245.39 279.608 1251.35 284.739C1258.79 291.152 1251.49 312.692 1238.54 328.168C1245.13 324.073 1259.09 317.647 1262.18 324.703C1266.05 333.524 1256.06 343.37 1239.35 346.321C1279.23 342.297 1297.96 313.054 1296.16 287.26C1294.71 266.624 1278.25 259.157 1270.2 258.004C1277.47 253.626 1288.34 240.064 1273.72 220.834C1259.1 201.603 1229.57 214.925 1216.63 223.99C1233.22 197.433 1222.44 182.507 1214.97 178.364C1231.25 153.195 1256.12 100.244 1225.39 89.7913C1194.66 79.3387 1159.86 99.1621 1146.29 110.38ZM1181.17 179.849C1183.59 185.284 1181.66 191.116 1180.4 193.352C1186.21 189.022 1188.51 181.485 1188.93 178.257C1189.15 174.991 1188.31 168.703 1183.15 169.685C1177.99 170.667 1179.68 176.87 1181.17 179.849ZM1188.06 195.464C1192.8 188.113 1202.96 175.653 1205.68 184.623C1208.4 193.593 1195.07 195.588 1188.06 195.464Z" fill="#3C6600"/>
<path fill-rule="evenodd" clip-rule="evenodd" d="M1105.16 219.656C1103.98 212.972 1102.85 204.934 1102.44 201.75C1101.44 193.075 1096.55 175.905 1084.99 176.633C1073.43 177.36 1066.72 195.003 1064.82 203.733C1063.39 212.142 1061.57 231.894 1065.74 243.628C1061.73 238.71 1050.55 231.735 1037.9 243.171C1022.08 257.467 1039.58 291.903 1051.8 299.247C1057.26 301.8 1074.81 306.418 1082.91 308.408C1084.75 309.644 1087.76 310.882 1091.5 312.083C1086.67 299.719 1079.13 270.439 1087.64 252.238C1089.57 248.684 1095.18 241.544 1102.16 241.413C1109.14 241.282 1110.53 251.525 1110.36 256.662C1110.3 261.202 1109.4 274.347 1106.23 290.61C1107.97 287.017 1112.84 278.989 1118.46 275.615C1120.17 274.293 1124.25 272.026 1126.93 273.542C1129.61 275.057 1128.56 280.064 1127.69 282.378C1126.47 285.45 1123.04 292.89 1119.05 298.071C1121.43 296.466 1127.15 292.821 1130.96 291.082C1133.74 289.555 1139.6 288.171 1140.78 294.855C1141.96 301.539 1125.82 313.249 1117.61 318.269C1125.57 319.771 1133.22 320.985 1138.64 321.744C1143.05 324.589 1154.43 325.646 1159.57 325.82L1173.92 328.614C1194.33 325.763 1206.2 309.457 1200.39 294.673C1195.74 282.846 1181.36 279.797 1174.75 279.751C1191.32 264.774 1222.23 229.671 1213.33 209.074C1204.44 188.476 1173.44 209.992 1159.05 223.325C1167.69 207.632 1181.07 173.996 1165.45 164.996C1149.82 155.996 1135.15 166.543 1129.77 172.942C1115.7 189.068 1107.5 210.804 1105.16 219.656ZM1120.73 251.234C1115.97 255.272 1115.21 262.571 1115.42 265.716C1127.82 260.683 1129.06 254.099 1128.13 251.435C1127.65 249.686 1125.48 247.196 1120.73 251.234Z" fill="#599900"/>
<path d="M830.894 152.593C814.458 152.867 809.79 168.548 809.511 176.354C808.325 187.542 809.997 201.478 810.981 207.048C815.081 224.23 819.482 234.561 821.17 237.578C830.582 256.166 840.762 261.252 849.598 260.49C858.434 259.729 865.741 263.634 869.328 264.333C870.053 264.474 871.338 264.671 872.942 264.898C865.118 255.146 849.38 231.654 849.013 215.696C848.645 199.738 856.349 193.957 860.247 193.061C863.503 191.213 871.468 191.523 877.284 207.549L882.86 223.528C883.985 217.749 887.542 204.582 892.766 198.152C895.219 195.114 901.538 189.435 907.185 191.031C912.831 192.627 914.683 201.386 914.904 205.566C914.614 211.302 912.669 226.603 907.203 241.921C909.807 237.05 917.119 227.966 925.543 230.599C928.217 231.741 931.836 237.162 924.923 249.716C921.861 254.816 914.388 266.21 908.991 270.982C912.921 272.068 916.783 273.353 920.033 274.827C929.611 279.175 941.396 278.781 946.091 278.04C960.132 274.983 988.402 263.443 989.152 241.746C989.902 220.048 970.632 225.314 960.903 230.659C977.245 217.914 1005.65 186.997 988.526 165.294C983.541 158.974 977.875 155.549 972.091 154.09C958.013 150.539 943.234 158.632 935.843 164.963C941.426 154.136 946.294 129.351 948.03 118.312C949.818 93.8378 934.963 85.5667 927.312 84.4905C907.515 81.628 891.711 92.0373 886.284 97.5998C859.146 117.137 854.455 158.009 855.502 176.002C854.148 168.085 847.33 152.318 830.894 152.593Z" fill="#77CC00"/>
<path d="M872.942 264.898C877.684 265.568 885.212 266.494 889.292 266.979C893.425 267.511 901.336 268.868 908.991 270.982C914.388 266.21 921.861 254.816 924.923 249.716C931.836 237.162 928.217 231.741 925.543 230.599C917.119 227.966 909.807 237.05 907.203 241.921C912.669 226.603 914.614 211.302 914.904 205.566C914.683 201.386 912.831 192.627 907.185 191.031C901.538 189.435 895.219 195.114 892.766 198.152C887.542 204.582 883.985 217.749 882.86 223.528L877.284 207.549C871.468 191.523 863.503 191.213 860.247 193.061C856.349 193.957 848.645 199.738 849.013 215.696C849.38 231.654 865.118 255.146 872.942 264.898Z" fill="#AAFF33"/>
<path d="M1087.64 252.238C1079.13 270.439 1086.67 299.719 1091.5 312.083C1098.6 314.365 1108.32 316.514 1117.61 318.269C1125.82 313.249 1141.96 301.539 1140.78 294.855C1139.6 288.171 1133.74 289.555 1130.96 291.082C1127.15 292.821 1121.43 296.466 1119.05 298.071C1123.04 292.89 1126.47 285.45 1127.69 282.378C1128.56 280.064 1129.61 275.057 1126.93 273.542C1124.25 272.026 1120.17 274.293 1118.46 275.615C1112.84 278.989 1107.97 287.017 1106.23 290.61C1109.4 274.347 1110.3 261.202 1110.36 256.662C1110.53 251.525 1109.14 241.282 1102.16 241.413C1095.18 241.544 1089.57 248.684 1087.64 252.238Z" fill="#BFFF66"/>
<path d="M1115.42 265.716C1115.21 262.571 1115.97 255.272 1120.73 251.234C1125.48 247.196 1127.65 249.686 1128.13 251.435C1129.06 254.099 1127.82 260.683 1115.42 265.716Z" fill="#BFFF66"/>
<path d="M1201.42 333.97C1204.04 340.933 1227.8 345.106 1239.35 346.321C1256.06 343.37 1266.05 333.524 1262.18 324.703C1259.09 317.647 1245.13 324.073 1238.54 328.168C1251.49 312.692 1258.79 291.152 1251.35 284.739C1245.39 279.608 1236.52 282.265 1232.83 284.235C1213.29 295.324 1203.75 322.012 1201.42 333.97Z" fill="#AAFF33"/>
<path d="M1282.48 252.327C1284.46 250.644 1288.3 246.014 1287.8 240.951C1287.11 238.127 1286.94 231.972 1291.8 229.941C1296.67 227.909 1298.31 233.691 1298.53 236.835C1298.71 240.179 1295.74 247.959 1282.48 252.327Z" fill="#AAFF33"/>
<path d="M1287.88 256.481C1290.73 254.555 1297.65 252.178 1302.46 258.079C1304.54 260.139 1307.46 264.887 1302.51 267.397C1297.55 269.907 1295.65 265.441 1295.32 262.894C1294.43 261.067 1291.7 257.226 1287.88 256.481Z" fill="#AAFF33"/>
<path d="M1188.06 195.464C1192.8 188.113 1202.96 175.653 1205.68 184.623C1208.4 193.593 1195.07 195.588 1188.06 195.464Z" fill="#77CC00"/>
<path d="M1180.4 193.352C1181.66 191.116 1183.59 185.284 1181.17 179.849C1179.68 176.87 1177.99 170.667 1183.15 169.685C1188.31 168.703 1189.15 174.991 1188.93 178.257C1188.51 181.485 1186.21 189.022 1180.4 193.352Z" fill="#77CC00"/>
<path d="M1091.45 130.727C1094.45 126.969 1099.91 117.854 1097.68 111.463C1096.78 106.53 1096.57 96.1056 1102.97 93.8752C1110.96 91.0872 1115.65 98.8282 1114.61 104.209C1113.56 109.59 1112.53 118.077 1091.45 130.727Z" fill="#77CC00"/>
<path d="M449.604 143.373C431.24 164.035 457.781 196.564 473.347 210.246C463.948 204.339 445.02 197.952 444.497 219.656C443.973 241.361 471.517 254.538 485.355 258.414C436.605 261.527 393.861 269.692 378.583 273.386C391.215 266.77 410.7 233.42 395.75 218.221C383.79 206.062 372.223 212.371 367.934 217.045C372.784 205.575 372.126 185.751 371.191 177.272C369.799 168.445 364.141 150.44 352.644 149.036C341.146 147.632 335.259 164.485 333.752 173.087C330.391 162.722 328.895 149.156 328.567 143.669C327.418 124.156 339.685 115.131 345.962 113.058C357.163 108.601 371.912 114.075 377.887 117.37C394.092 124.533 407.072 143.971 411.537 152.794C405.417 139.276 398.689 110.27 420.739 102.389C442.788 94.5068 460.546 119.614 466.668 133.152C460.809 134.27 454.952 137.356 449.604 143.373Z" fill="#3C6600"/>
<path fill-rule="evenodd" clip-rule="evenodd" d="M295.328 79.3022C317.503 97.9546 327.674 161.407 329.988 190.802C328.167 181.828 321.251 159.649 308.158 142.725C303.16 136.022 289.131 124.633 273.007 132.701C256.883 140.769 268.264 175.132 275.97 191.305C262.39 177.151 232.706 153.854 222.617 173.895C212.528 193.935 241.33 230.79 256.993 246.713C250.391 246.371 235.854 248.572 230.522 260.106C223.856 274.523 234.743 291.497 254.954 295.54L227.184 299.274C225.56 287.201 217.601 259.999 198.749 247.783C195.178 245.6 186.474 242.427 180.233 247.2C172.43 253.166 178.452 275.097 190.465 291.305C184.127 286.831 170.576 279.598 167.074 286.461C162.696 295.039 172.086 305.454 188.594 309.38C149.019 303.024 132.039 272.733 135.352 247.089C138.002 226.574 154.871 220.085 162.974 219.405C155.978 214.61 145.918 200.433 161.645 182.093C177.371 163.753 206.066 178.783 218.447 188.591C203.443 161.108 215.087 146.84 222.784 143.142C208.01 117.062 186.283 62.7428 217.574 54.1103C248.864 45.4777 282.448 67.308 295.328 79.3022ZM256.439 146.607C253.708 151.891 255.284 157.825 256.414 160.131C250.87 155.468 249.02 147.809 248.789 144.562C248.758 141.288 249.97 135.061 255.059 136.344C260.148 137.626 258.099 143.72 256.439 146.607ZM248.647 161.79C244.345 154.174 234.93 141.14 231.688 149.935C228.445 158.729 241.643 161.503 248.647 161.79Z" fill="#3C6600"/>
<path fill-rule="evenodd" clip-rule="evenodd" d="M329.988 190.802C331.558 184.199 333.152 176.241 333.752 173.087C335.259 164.485 341.146 147.632 352.644 149.036C364.141 150.44 369.799 168.445 371.191 177.272C372.126 185.751 372.784 205.575 367.934 217.045C372.223 212.371 383.79 206.062 395.75 218.221C410.7 233.42 391.215 266.77 378.583 273.386C372.983 275.614 355.19 279.194 346.994 280.706C345.081 281.832 342.001 282.891 338.2 283.871C343.749 271.811 352.989 243.024 345.562 224.355C343.841 220.694 338.659 213.237 331.703 212.697C324.747 212.158 322.751 222.301 322.622 227.44C322.413 231.975 322.545 245.151 324.753 261.571C323.233 257.883 318.839 249.582 313.425 245.885C311.8 244.465 307.858 241.963 305.09 243.318C302.322 244.674 303.084 249.734 303.812 252.095C304.848 255.233 307.841 262.862 311.518 268.267C309.235 266.526 303.743 262.552 300.037 260.592C297.352 258.904 291.589 257.18 290.018 263.783C288.448 270.386 303.866 283.022 311.772 288.515C303.739 289.548 296.034 290.311 290.571 290.751C286.002 293.332 274.581 293.721 269.442 293.592L254.954 295.54C234.743 291.497 223.856 274.523 230.522 260.106C235.854 248.572 250.391 246.371 256.993 246.713C241.33 230.79 212.528 193.935 222.617 173.895C232.706 153.854 262.39 177.151 275.97 191.305C268.264 175.132 256.883 140.769 273.007 132.701C289.131 124.633 303.16 136.022 308.158 142.725C321.251 159.649 328.167 181.828 329.988 190.802ZM312.593 221.413C317.106 225.723 317.436 233.054 317.037 236.18C304.955 230.43 304.102 223.784 305.186 221.18C305.775 219.462 308.08 217.103 312.593 221.413Z" fill="#599900"/>
<path d="M607.71 139.937C624.102 141.175 627.842 157.103 627.663 164.912C628.191 176.149 625.705 189.964 624.396 195.467C619.295 212.378 614.296 222.433 612.434 225.347C601.948 243.351 591.488 247.831 582.711 246.552C573.935 245.274 566.412 248.744 562.79 249.231C562.057 249.33 560.763 249.451 559.149 249.583C567.531 240.307 584.62 217.778 585.922 201.869C587.225 185.96 579.873 179.737 576.035 178.614C572.893 176.579 564.923 176.421 558.178 192.078L551.674 207.703C550.89 201.868 548.111 188.515 543.273 181.79C541.002 178.613 535.027 172.574 529.297 173.836C523.566 175.098 521.204 183.734 520.739 187.894C520.692 193.636 521.736 209.025 526.294 224.637C523.981 219.622 517.213 210.125 508.65 212.259C505.914 213.242 501.983 218.441 508.148 231.38C510.905 236.651 517.697 248.463 522.806 253.544C518.819 254.397 514.888 255.453 511.557 256.735C501.74 260.513 489.999 259.429 485.355 258.414C471.517 254.538 443.973 241.361 444.497 219.656C445.02 197.952 463.948 204.339 473.347 210.246C457.781 196.564 431.24 164.035 449.604 143.373C454.952 137.356 460.809 134.27 466.668 133.152C480.93 130.433 495.21 139.379 502.217 146.133C497.278 134.996 493.871 109.969 492.786 98.847C492.436 74.3098 507.751 66.924 515.452 66.2982C535.383 64.6016 550.549 75.9198 555.64 81.7909C581.586 102.886 583.872 143.962 581.772 161.863C583.588 154.039 591.318 138.7 607.71 139.937Z" fill="#3C6600"/>
<path d="M559.149 249.583C554.376 249.974 546.806 250.457 542.706 250.702C538.548 250.991 530.571 251.882 522.806 253.544C517.697 248.463 510.905 236.651 508.148 231.38C501.983 218.441 505.914 213.242 508.65 212.259C517.213 210.125 523.981 219.622 526.294 224.637C521.736 209.025 520.692 193.636 520.739 187.894C521.204 183.734 523.566 175.098 529.297 173.836C535.027 172.574 541.002 178.613 543.273 181.79C548.111 188.515 550.89 201.868 551.674 207.703L558.178 192.078C564.923 176.421 572.893 176.579 576.035 178.614C579.873 179.737 587.225 185.96 585.922 201.869C584.62 217.778 567.531 240.307 559.149 249.583Z" fill="#77CC00"/>
<path d="M345.562 224.355C352.989 243.024 343.749 271.811 338.2 283.871C330.979 285.733 321.152 287.308 311.772 288.515C303.866 283.022 288.448 270.386 290.018 263.783C291.589 257.18 297.352 258.904 300.037 260.592C303.743 262.552 309.235 266.526 311.518 268.267C307.841 262.862 304.848 255.233 303.812 252.095C303.084 249.734 302.322 244.674 305.09 243.318C307.858 241.963 311.8 244.465 313.425 245.885C318.839 249.582 323.233 257.883 324.753 261.571C322.545 245.151 322.413 231.975 322.622 227.44C322.751 222.301 324.747 212.158 331.703 212.697C338.659 213.237 343.841 220.694 345.562 224.355Z" fill="#BFFF66"/>
<path d="M317.037 236.18C317.436 233.054 317.106 225.723 312.593 221.413C308.08 217.103 305.775 219.462 305.186 221.18C304.102 223.784 304.955 230.43 317.037 236.18Z" fill="#BFFF66"/>
<path d="M227.184 299.274C224.165 306.072 200.199 308.844 188.594 309.38C172.086 305.454 162.696 295.039 167.074 286.461C170.576 279.598 184.127 286.831 190.465 291.305C178.452 275.097 172.43 253.166 180.233 247.2C186.474 242.427 195.178 245.6 198.749 247.783C217.601 259.999 225.56 287.201 227.184 299.274Z" fill="#AAFF33"/>
<path d="M151.052 213.018C149.172 211.223 145.611 206.375 146.41 201.351C147.266 198.572 147.793 192.437 143.057 190.124C138.321 187.811 136.339 193.486 135.94 196.612C135.568 199.94 138.069 207.881 151.052 213.018Z" fill="#AAFF33"/>
<path d="M145.421 216.849C142.682 214.759 135.916 211.981 130.77 217.589C128.572 219.524 125.376 224.092 130.177 226.888C134.978 229.684 137.139 225.338 137.619 222.815C138.61 221.042 141.558 217.368 145.421 216.849Z" fill="#AAFF33"/>
<path d="M248.647 161.79C244.345 154.174 234.93 141.14 231.688 149.935C228.445 158.729 241.643 161.503 248.647 161.79Z" fill="#77CC00"/>
<path d="M256.414 160.131C255.284 157.825 253.708 151.891 256.439 146.607C258.099 143.72 260.148 137.626 255.059 136.344C249.97 135.061 248.758 141.288 248.789 144.562C249.02 147.809 250.87 155.468 256.414 160.131Z" fill="#77CC00"/>
<path d="M348.889 102.831C346.108 98.9024 341.194 89.4835 343.796 83.2335C344.985 78.3617 345.799 67.9677 339.55 65.3663C331.737 62.1146 326.593 69.5668 327.324 75C328.054 80.4333 328.587 88.9662 348.889 102.831Z" fill="#77CC00"/>
<ellipse cx="707.5" cy="570.5" rx="864.5" ry="334.5" fill="#BDFF61"/>
<path fill-rule="evenodd" clip-rule="evenodd" d="M666.507 36.0966C660.251 36.0966 659.89 39.3052 660.491 40.9095C659.288 38.5031 655.678 33.9308 650.866 34.8934C646.053 35.856 644.849 39.3052 644.849 40.9095C644.047 38.102 641.721 32.9683 638.833 34.8934C635.946 36.8186 636.427 43.316 637.029 46.324C634.221 44.5192 628.125 42.3534 626.2 48.1289C624.274 53.9043 632.617 54.9471 637.029 54.7466C637.511 58.2817 639.151 64.6496 642.261 67.0407C649.046 59.5556 660.17 49.5386 673.455 40.1951C672.429 38.0697 670.356 36.0966 666.507 36.0966ZM661.093 46.9256C659.331 45.7224 653.874 46.324 648.459 48.1289C644.849 49.9337 648.459 51.7385 652.069 52.3401C655.678 52.9417 662.855 48.1289 661.093 46.9256Z" fill="#BFB977"/>
<path d="M718.246 21.658L745.92 30.6821L758.938 16.4437C757.269 15.9637 755.537 15.4956 753.741 15.0408C745.223 12.8843 736.047 13.1242 726.707 15.0365L718.246 21.658Z" fill="#BFB977"/>
<path d="M765.172 9.62577L745.92 0L726.707 15.0365C736.047 13.1242 745.223 12.8843 753.741 15.0408C755.537 15.4956 757.269 15.9637 758.938 16.4437L765.172 9.62577Z" fill="#BFB977"/>
<path fill-rule="evenodd" clip-rule="evenodd" d="M696.588 61.9659C694.583 55.7493 689.008 43.1956 682.751 42.7144C676.494 42.2331 674.529 43.316 674.328 43.9176C674.328 42.9143 674.097 41.5249 673.455 40.1951C660.17 49.5386 649.046 59.5556 642.261 67.0407C643.032 67.6336 643.893 67.982 644.849 67.982C649.662 67.982 652.069 64.7734 652.67 63.1691C653.071 68.5836 656.641 79.4126 667.711 79.4126C676.183 79.4126 677.889 75.5781 679.457 72.0525C680.451 69.8202 681.389 67.7117 683.954 66.7788C689.248 64.8536 694.583 62.768 696.588 61.9659ZM676.133 54.7466C676.133 51.7385 680.344 49.9337 681.548 51.7385C682.751 53.5433 679.743 58.9578 676.133 54.7466ZM664.703 60.1611C669.515 60.7627 672.524 66.7788 669.515 67.982C666.507 69.1852 659.288 61.9659 664.703 60.1611Z" fill="#BFB977"/>
<path d="M664.703 60.1611C669.515 60.7627 672.524 66.7788 669.515 67.982C666.507 69.1852 659.288 61.9659 664.703 60.1611Z" fill="#4B543B"/>
<path d="M676.133 54.7466C676.133 51.7385 680.344 49.9337 681.548 51.7385C682.751 53.5433 679.743 58.9578 676.133 54.7466Z" fill="#4B543B"/>
<path d="M771.789 134.159L727.27 88.4368L689.369 113.103H714.636L728.473 131.151L734.489 162.435L771.789 134.159Z" fill="#F7EFC2"/>
<path d="M690.572 182.288C683.353 180.363 651.066 196.727 635.825 205.149C650.745 207.074 656.481 224.802 657.483 233.425C671.12 228.01 698.513 216.46 698.994 213.572C699.306 211.703 699.456 204.028 698.276 196.727C697.401 191.311 695.794 186.101 692.978 183.617C692.258 182.982 691.458 182.524 690.572 182.288Z" fill="#599900"/>
<path d="M703.807 182.288C699.957 179.4 694.984 181.971 692.978 183.617C695.794 186.101 697.401 191.311 698.276 196.727L708.62 193.719C708.62 191.112 707.658 185.176 703.807 182.288Z" fill="#FECD13"/>
<path d="M657.483 233.425C656.481 224.802 650.745 207.074 635.825 205.149C631.815 207.756 624.996 215.978 629.809 228.01C635.825 243.051 650.866 240.644 657.483 233.425Z" fill="#AFC2FF"/>
<path d="M600.932 131.151L602.135 159.427L624.395 167.248L648.754 144.988L600.932 131.151Z" fill="#FECD13"/>
<path d="M630.411 102.875L600.932 131.151L648.754 144.988L659.288 135.362L630.411 102.875Z" fill="#599900"/>
<path d="M813.3 86.6319C814.901 85.031 817.002 84.1327 819.317 83.7218L794.049 75.2013L784.423 97.4609L812.097 105.883L814.887 99.2658L814.61 98.9125C811.507 94.958 808.635 91.2975 813.3 86.6319Z" fill="#AFAF94"/>
<path d="M857.82 167.248C860.614 162.28 865.011 159.395 869.852 158.428C867.245 154.149 861.189 145.469 857.82 144.988C853.608 144.387 834.357 160.028 841.576 173.264C845.426 178.558 852.154 179.079 855.037 178.678C854.202 174.713 856.15 169.944 857.82 167.248Z" fill="#95AEFF"/>
<path d="M882.486 178.678C886.095 175.67 892.713 165.443 883.689 160.63C879.322 158.301 874.391 157.522 869.852 158.428C865.011 159.395 860.614 162.28 857.82 167.248C856.15 169.944 854.202 174.713 855.037 178.678C855.506 180.906 856.855 182.881 859.625 184.093C869.25 188.304 878.876 181.686 882.486 178.678Z" fill="#6E8EF7"/>
<path fill-rule="evenodd" clip-rule="evenodd" d="M766.375 222.596C769.985 231.62 777.805 231.62 785.025 229.815C792.244 228.01 798.26 205.751 792.244 196.727C787.431 189.507 783.019 186.9 781.415 186.499C779.001 190.344 776.893 193.644 775.064 196.506L775.061 196.51C764.589 212.899 763.302 214.914 766.375 222.596ZM779.61 209.962C783.22 211.767 783.22 217.181 781.415 218.986C779.61 220.791 772.993 223.198 779.61 209.962Z" fill="#6E8EF7"/>
<path d="M882.486 243.051C883.689 238.639 884.652 229.334 878.876 227.409C873.334 225.562 871.411 226.521 871.088 227.31L871.055 227.409C871.063 227.376 871.074 227.343 871.088 227.31C872.478 223.054 873.654 213.907 867.445 210.564C861.189 207.195 854.411 209.16 851.804 210.564C851.202 206.152 848.074 197.449 840.373 197.93C830.747 198.532 816.91 216.58 818.113 220.19C810.894 220.19 804.276 233.425 809.089 240.043C813.501 237.436 825.453 234.748 837.967 244.856C840.854 247.262 845.587 251.473 847.592 253.278C852.606 248.866 866.603 240.644 882.486 243.051Z" fill="#F9AE26"/>
<path fill-rule="evenodd" clip-rule="evenodd" d="M836.763 86.6319C838.924 86.1689 841.679 85.4684 844.712 84.6522C848.107 83.7387 851.852 82.6803 855.504 81.6479C861.31 80.0068 866.884 78.4314 870.453 77.6078C873.815 76.8321 876.954 73.056 880.205 69.1452C884.518 63.9564 884.511 59.1319 890 60.1611C897.467 61.5611 898.229 67.4274 895.608 71.9433C894.85 73.2491 894.186 74.3917 893.916 75.2013C893.429 76.6621 894.125 78.3198 894.886 80.1348C896.006 82.8048 897.268 85.815 895.12 89.0384C892.232 93.37 885.093 89.2389 881.884 86.6319L847.325 96.2633L845.186 96.8593C844.785 97.862 842.779 101.672 837.967 108.892C831.95 117.916 820.52 113.103 818.715 105.883C818.111 103.468 816.497 101.322 814.887 99.2658L814.61 98.9125C811.507 94.958 808.635 91.2975 813.3 86.6319C814.901 85.031 817.002 84.1327 819.317 83.7218C825.353 82.6503 832.85 84.8926 836.763 86.6319ZM495.65 317.049C494.617 317.978 493.606 318.695 492.622 319.225C485.687 322.958 480.06 317.414 477.205 311.641C475.744 308.688 475.009 305.675 475.195 303.813C475.677 299 485.423 293.787 490.235 291.781C488.03 288.573 485.302 281.433 492.04 278.546C498.778 275.658 503.671 281.353 505.276 284.562C508.284 281.153 515.744 275.538 521.519 280.351C527.295 285.163 521.118 297.998 517.308 303.813C507.779 303.813 506.809 304.955 503.2 309.202C501.568 311.122 499.396 313.677 495.65 317.049ZM746.522 275.538H723.059C723.861 277.343 726.548 281.674 730.88 284.562C735.211 287.45 735.091 296.193 734.489 300.204L747.725 286.367C750.332 287.169 757.23 288.893 763.968 289.375C772.391 289.976 788.634 279.147 789.236 274.334C789.838 269.522 771.789 258.693 761.562 262.904C753.38 266.273 748.126 272.73 746.522 275.538ZM871.088 227.31L871.055 227.409C871.063 227.376 871.074 227.343 871.088 227.31Z" fill="#F9AE26"/>
<path d="M564.234 185.898L542.576 210.564C544.772 211.21 547.249 212.363 549.795 213.788C555.209 207.499 566.399 195.042 567.843 195.523C569.287 196.005 558.208 208.959 552.488 215.377C554.432 216.579 556.372 217.89 558.217 219.211C563.03 212.919 573.017 200.577 574.461 201.54C575.905 202.502 565.838 214.898 560.624 220.976C563.567 223.186 566.122 225.292 567.843 226.807L587.696 202.743L564.234 185.898Z" fill="#95AEFF"/>
<path d="M574.461 201.54C573.017 200.577 563.03 212.919 558.217 219.211C559.041 219.8 559.846 220.392 560.624 220.976C565.838 214.898 575.905 202.502 574.461 201.54Z" fill="#6E8EF7"/>
<path d="M567.843 195.523C566.399 195.042 555.209 207.499 549.795 213.788C550.687 214.287 551.588 214.82 552.488 215.377C558.208 208.959 569.287 196.005 567.843 195.523Z" fill="#6E8EF7"/>
<path d="M689.369 113.103L734.489 162.435L728.473 131.151L714.636 113.103H689.369Z" fill="#BFB977"/>
<path d="M779.61 209.962C783.22 211.767 783.22 217.181 781.415 218.986C779.61 220.791 772.993 223.198 779.61 209.962Z" fill="#4B543B"/>
<path fill-rule="evenodd" clip-rule="evenodd" d="M449.326 303.212C449.484 299.372 450.172 294.5 451.613 289.375C455.666 274.963 465.679 258.555 486.626 257.49C483.618 243.051 491.439 217.182 517.308 210.564C511.292 188.906 526.934 162.435 553.405 161.232C555.811 137.769 572.055 116.713 596.721 116.713C596.721 85.4293 617.777 77.0067 635.224 77.0067C635.748 75.0153 638.244 71.4716 642.261 67.0407C643.032 67.6336 643.893 67.982 644.849 67.982C649.662 67.982 652.069 64.7734 652.67 63.1691C653.071 68.5836 656.641 79.4126 667.711 79.4126C676.183 79.4126 677.889 75.5781 679.457 72.0525C680.451 69.8202 681.389 67.7117 683.954 66.7788C689.248 64.8536 694.583 62.768 696.588 61.9659C694.583 55.7493 689.008 43.1956 682.751 42.7144C676.494 42.2331 674.529 43.316 674.328 43.9176C674.328 42.9143 674.097 41.5249 673.455 40.1951C689.355 29.0126 708.35 18.7947 726.707 15.0365L718.246 21.658L745.92 30.6821L758.938 16.4437C792.602 26.1243 800.858 40.6207 800.667 46.9256C804.076 45.1208 814.865 44.5192 830.747 56.5514C841.491 64.6903 844.581 75.8571 844.712 84.6522C841.679 85.4684 838.924 86.1689 836.763 86.6319C832.85 84.8926 825.353 82.6503 819.317 83.7218L794.049 75.2013L784.423 97.4609L812.097 105.883L814.887 99.2658C816.497 101.322 818.111 103.468 818.715 105.883C820.52 113.103 831.95 117.916 837.967 108.892C842.779 101.672 844.785 97.862 845.186 96.8593L847.325 96.2633C858.124 99.9647 875.697 108.905 882.486 123.33C890.186 139.694 888.101 151.405 886.095 155.216C894.117 156.018 910.882 162.074 913.769 179.882C939.639 190.109 956.484 200.336 952.273 231.62C968.155 242.69 971.324 265.511 970.922 275.538C977.34 276.54 990.174 281.433 990.174 292.984C990.174 307.423 945.053 318.853 913.769 311.033C882.486 339.91 828.942 346.528 816.91 341.113C772.993 355.552 722.457 368.787 708.019 354.95C699.053 346.358 690.551 348.437 679.056 351.247C672.039 352.962 663.907 354.95 653.874 354.95C661.895 328.279 668.433 271.448 630.411 257.49C592.389 243.532 560.824 263.706 549.795 275.538C542.576 284.575 528.618 307.338 530.543 326.093C520.744 327.26 511.457 327.263 505.276 324.87C500.32 322.952 496.113 321.024 492.622 319.225C493.606 318.695 494.617 317.978 495.65 317.049C499.396 313.677 501.568 311.122 503.2 309.202C506.809 304.955 507.779 303.813 517.308 303.813C521.118 297.998 527.295 285.163 521.519 280.351C515.744 275.538 508.284 281.153 505.276 284.562C503.671 281.353 498.778 275.658 492.04 278.546C485.302 281.433 488.03 288.573 490.235 291.781C485.423 293.787 475.677 299 475.195 303.813C475.009 305.675 475.744 308.688 477.205 311.641C467.756 313.411 452.37 313.649 449.326 303.212ZM723.059 275.538H746.522C748.126 272.73 753.38 266.273 761.562 262.904C771.789 258.693 789.838 269.522 789.236 274.334C788.634 279.147 772.391 289.976 763.968 289.375C757.23 288.893 750.332 287.169 747.725 286.367L734.489 300.204C735.091 296.193 735.211 287.45 730.88 284.562C726.548 281.674 723.861 277.343 723.059 275.538ZM766.375 222.596C769.985 231.62 777.805 231.62 785.025 229.815C792.244 228.01 798.26 205.751 792.244 196.727C787.431 189.507 783.019 186.9 781.415 186.499C779.001 190.344 776.893 193.644 775.064 196.506L775.061 196.51C764.589 212.899 763.302 214.914 766.375 222.596ZM882.486 243.051C883.689 238.639 884.652 229.334 878.876 227.409C873.334 225.562 871.411 226.521 871.088 227.31C872.478 223.054 873.654 213.907 867.445 210.564C861.189 207.195 854.411 209.16 851.804 210.564C851.202 206.152 848.074 197.449 840.373 197.93C830.747 198.532 816.91 216.58 818.113 220.19C810.894 220.19 804.276 233.425 809.089 240.043C813.501 237.436 825.453 234.748 837.967 244.856C840.854 247.262 845.587 251.473 847.592 253.278C852.606 248.866 866.603 240.644 882.486 243.051ZM771.789 134.159L727.27 88.4368L689.369 113.103L734.489 162.435L771.789 134.159ZM630.411 102.875L600.932 131.151L602.135 159.427L624.395 167.248L648.754 144.988L659.288 135.362L630.411 102.875ZM564.234 185.898L542.576 210.564C544.772 211.21 547.249 212.363 549.795 213.788C550.687 214.287 551.588 214.82 552.488 215.377C554.432 216.579 556.372 217.89 558.217 219.211C559.041 219.8 559.846 220.392 560.624 220.976C563.567 223.186 566.122 225.292 567.843 226.807L587.696 202.743L564.234 185.898ZM690.572 182.288C683.353 180.363 651.066 196.727 635.825 205.149C631.815 207.756 624.996 215.978 629.809 228.01C635.825 243.051 650.866 240.644 657.483 233.425C671.12 228.01 698.513 216.46 698.994 213.572C699.306 211.703 699.456 204.028 698.276 196.727L708.62 193.719C708.62 191.112 707.658 185.176 703.807 182.288C699.957 179.4 694.984 181.971 692.978 183.617C692.258 182.982 691.458 182.524 690.572 182.288ZM882.486 178.678C886.095 175.67 892.713 165.443 883.689 160.63C879.322 158.301 874.391 157.522 869.852 158.428C867.245 154.149 861.189 145.469 857.82 144.988C853.608 144.387 834.357 160.028 841.576 173.264C845.426 178.558 852.154 179.079 855.037 178.678C855.506 180.906 856.855 182.881 859.625 184.093C869.25 188.304 878.876 181.686 882.486 178.678Z" fill="#4B533C"/>
<path d="M567.843 317.65C587.696 330.084 632.697 354.95 653.874 354.95C661.895 328.279 668.433 271.448 630.411 257.49C592.389 243.532 560.824 263.706 549.795 275.538C542.576 284.575 528.618 307.338 530.543 326.093C544.395 324.444 559.269 320.469 567.843 317.65Z" fill="#3A432B"/>
<path d="M970.922 275.538C977.34 276.54 990.174 281.433 990.174 292.984C990.174 307.423 945.053 318.853 913.769 311.033C882.486 339.91 828.942 346.528 816.91 341.113C772.993 355.552 722.457 368.787 708.019 354.95C699.053 346.358 690.551 348.437 679.056 351.247C672.039 352.962 663.907 354.95 653.874 354.95C632.697 354.95 587.696 330.084 567.843 317.65C559.269 320.469 544.395 324.444 530.543 326.093C520.744 327.26 511.457 327.263 505.276 324.87C500.32 322.952 496.113 321.024 492.622 319.225C485.687 322.958 480.06 317.414 477.205 311.641C467.756 313.411 452.37 313.649 449.326 303.212C449.484 299.372 450.172 294.5 451.613 289.375C385.918 304.415 438.5 341.113 475.195 341.113C511.89 341.113 517.308 386 553.405 388C589.501 390 596.721 395.5 629.809 379.5C662.898 363.5 660.491 379.5 692.978 379.5H781.415C809.089 379.5 869.852 365 895.608 351.247C921.363 337.494 945.5 341.113 980 334.5C1014.5 327.887 1034.5 300.204 1020 286.367C1008.4 275.297 982.448 274.535 970.922 275.538Z" fill="#77CC00"/>
<path d="M706.705 61.3008C706.411 61.1831 706.094 61.1058 705.779 61.1293C705.465 61.1526 705.18 61.2734 704.972 61.4818C704.764 61.6901 704.643 61.9744 704.619 62.2888C704.596 62.6034 704.673 62.9208 704.791 63.2149C704.791 63.2149 704.791 63.2149 704.791 63.2149C704.682 63.1049 704.538 62.9283 704.452 62.6492C704.362 62.3743 704.383 62.0116 704.488 61.7625C704.713 61.2544 704.965 61.1598 705.083 61.078C705.333 60.9469 705.392 60.9545 705.453 60.9353C705.558 60.9127 705.58 60.9129 705.604 60.9091C705.645 60.9041 705.629 60.9045 705.639 60.9026C705.648 60.8996 705.65 60.8972 705.65 60.8948C705.648 60.8902 705.643 60.8857 705.636 60.8813C705.62 60.8725 705.6 60.8638 705.582 60.855C705.537 60.8375 705.502 60.8198 705.455 60.8023C705.372 60.7672 705.284 60.7324 705.192 60.698C705.018 60.6291 704.841 60.5617 704.661 60.4961C704.305 60.3649 703.951 60.2406 703.594 60.1239C700.959 59.2597 698.326 58.8038 695.691 58.7621C695.408 58.7593 695.124 58.7668 694.837 58.786C690.642 58.9239 687.157 61.8331 685.149 63.8648C682.296 66.7181 680.001 69.6128 677.677 72.5419C675.671 75.0312 673.669 77.7772 671.501 79.2512C671.471 79.2705 671.441 79.2895 671.411 79.308L671.57 79.2527C671.349 79.3623 671.219 79.4315 670.938 79.4932C670.671 79.5519 670.366 79.5974 670.04 79.6431C669.706 79.6907 669.385 79.8402 669.148 80.0892C668.912 80.338 668.779 80.6619 668.779 80.9968C668.779 81.3317 668.912 81.6556 669.148 81.9043C669.385 82.1533 669.706 82.3028 670.04 82.3504C670.366 82.396 670.711 82.4426 671.095 82.4673C671.495 82.4993 672.044 82.4619 672.478 82.3769L672.637 82.3216C672.689 82.3067 672.742 82.2912 672.794 82.2751C676.636 80.9024 679.065 78.4831 681.648 76.2906C684.444 73.8104 687.174 71.1732 689.778 68.9524C692.023 67.0589 693.499 66.0622 695.319 65.9893C695.461 65.9798 695.608 65.9715 695.761 65.9644C698.392 65.871 701.011 65.37 703.637 64.4552C703.993 64.3314 704.346 64.1999 704.703 64.0604C704.883 63.9906 705.061 63.9189 705.238 63.8449C705.332 63.8078 705.421 63.7702 705.51 63.7318C705.562 63.7125 705.599 63.6933 705.653 63.6734C705.677 63.6635 705.702 63.6535 705.733 63.6431C705.749 63.6378 705.753 63.6331 705.784 63.6269C705.797 63.624 705.81 63.6209 705.828 63.6173C705.843 63.6149 705.825 63.6156 705.879 63.6095C705.908 63.6051 705.933 63.6048 706.04 63.5818C706.103 63.5623 706.162 63.5697 706.413 63.4383C706.531 63.3565 706.783 63.2617 707.008 62.7534C707.113 62.5043 707.134 62.1416 707.044 61.8666C706.958 61.5875 706.814 61.4108 706.705 61.3008Z" fill="#323A25"/>
<path d="M771.07 57.664C771.316 57.8641 771.596 58.0322 771.904 58.1028C772.212 58.1734 772.52 58.1417 772.781 58.0037C773.042 57.8657 773.242 57.629 773.357 57.335C773.472 57.0408 773.491 56.7143 773.464 56.3986C773.464 56.3986 773.464 56.3986 773.464 56.3986C773.249 55.44 773.119 54.7799 772.893 54.0068C772.497 52.6457 772.006 51.3531 771.277 50.0578C770.172 48.6037 769.567 48.2494 768.844 47.6541C768.147 47.1216 767.471 46.6765 766.792 46.2695C766.482 46.0839 766.175 45.9015 765.872 45.7209C761.438 43.6855 759.23 44.0949 756.247 43.6794C752.795 43.3772 749.256 43.4633 745.72 44.327C742.804 45.0333 740.478 46.5992 738.541 48.1611L738.478 48.2032C737.429 49.1167 736.475 50.0363 735.518 51.0367C735.429 51.1306 735.34 51.2254 735.251 51.3225C735.027 51.5663 734.804 51.8104 734.549 52.1379C734.304 52.4316 733.965 53.0378 733.889 53.4066C733.811 53.7355 733.833 54.0891 733.978 54.4004C734.124 54.7116 734.377 54.9537 734.689 55.0759C735.001 55.1981 735.351 55.1925 735.669 55.0627C735.988 54.9331 736.244 54.6886 736.41 54.394C736.41 54.394 736.41 54.394 736.41 54.394C736.538 54.1992 736.533 54.2954 736.703 54.1588C736.861 54.0497 737.086 53.9021 737.319 53.7559C737.414 53.6962 737.511 53.6359 737.609 53.5753C738.675 52.9231 739.805 52.2692 740.897 51.6877L740.833 51.7299C742.89 50.7191 744.87 49.9875 746.68 49.8858C749.49 49.6781 752.455 49.9505 755.377 50.4546C756.747 50.689 758.109 50.9146 759.387 51.1629C760.024 51.2874 760.642 51.4194 761.173 51.5623C761.69 51.6929 762.181 51.8995 762.153 51.9028C762.466 52.0929 762.776 52.2796 763.083 52.4633C763.753 52.8645 764.428 53.2269 765.054 53.5441C765.366 53.7018 765.667 53.8501 765.919 53.9698C766.16 54.0724 766.4 54.232 766.322 54.0392C767.222 54.7826 768.234 55.6293 769.302 56.4299C769.876 56.8506 770.556 57.3896 771.07 57.664Z" fill="#323A25"/>
<path d="M817.505 120.173C817.27 120.381 817.044 120.591 816.878 120.818C816.711 121.046 816.618 121.282 816.618 121.526C816.618 121.77 816.711 122.006 816.878 122.235C817.044 122.462 817.27 122.671 817.505 122.88C817.505 122.88 817.505 122.88 817.505 122.88C818.048 122.878 818.392 122.573 818.525 122.417C818.671 122.246 818.713 122.141 818.749 122.063C818.813 121.913 818.821 121.855 818.833 121.805C818.853 121.714 818.856 121.68 818.858 121.676C818.863 121.652 818.867 121.636 818.87 121.622C818.877 121.594 818.883 121.575 818.888 121.567C818.898 121.546 818.909 121.521 818.918 121.509C818.938 121.481 818.957 121.451 818.976 121.428C819.014 121.376 819.05 121.329 819.086 121.286C819.159 121.193 819.229 121.107 819.297 121.016C819.433 120.84 819.561 120.664 819.681 120.487C820.639 119.089 821.105 117.691 821.086 116.303C821.083 116.099 821.079 115.896 821.073 115.69C821.007 112.856 819.818 110.616 818.818 108.967L818.465 108.38C816.341 106.223 814.742 104.864 811.397 103.009L811.274 102.95C811.077 102.893 810.785 102.835 810.595 102.83C810.009 102.819 809.696 102.915 809.316 102.988C809.001 103.062 808.694 103.204 808.461 103.434C808.227 103.664 808.087 103.96 808.069 104.272C808.051 104.584 808.156 104.894 808.361 105.15C808.567 105.406 808.855 105.582 809.16 105.691C809.16 105.691 809.16 105.691 809.16 105.691C809.47 105.809 809.847 105.937 809.939 106.053C809.967 106.092 809.888 106.099 809.895 106.132L809.772 106.073C810.396 107.627 812.208 110.315 813.298 112.288L812.945 111.701C813.533 113.467 813.89 114.809 813.862 115.797C813.862 116.001 813.864 116.202 813.867 116.403C813.886 117.774 814.383 119.141 815.349 120.496C815.47 120.667 815.598 120.836 815.732 121.003C815.8 121.09 815.869 121.17 815.939 121.253C815.975 121.291 816.01 121.331 816.046 121.369C816.064 121.386 816.082 121.406 816.101 121.416C816.11 121.421 816.119 121.427 816.128 121.424C816.133 121.423 816.138 121.419 816.144 121.402C816.147 121.393 816.15 121.382 816.155 121.362C816.157 121.359 816.159 121.331 816.178 121.243C816.19 121.195 816.198 121.138 816.261 120.988C816.297 120.911 816.339 120.806 816.485 120.635C816.618 120.48 816.961 120.175 817.505 120.173Z" fill="#323A25"/>
<path d="M784.44 150.808C784.598 151.079 784.78 151.339 785.014 151.53C785.249 151.722 785.518 151.829 785.794 151.829C786.071 151.829 786.339 151.722 786.574 151.53C786.808 151.339 786.991 151.079 787.148 150.808C787.148 150.808 787.148 150.808 787.148 150.808C787.15 150.784 787.16 151.234 786.909 151.576C786.774 151.765 786.691 151.823 786.61 151.888C786.529 151.95 786.455 151.992 786.391 152.023C786.195 152.114 786.141 152.116 786.08 152.132C786.001 152.15 785.957 152.155 785.939 152.158C785.89 152.165 785.883 152.167 785.869 152.17C785.851 152.175 785.848 152.18 785.847 152.184C785.847 152.194 785.857 152.203 785.867 152.213C785.89 152.232 785.918 152.251 785.947 152.27C786.004 152.308 786.066 152.347 786.129 152.385C786.251 152.461 786.38 152.536 786.506 152.609C786.76 152.755 787.016 152.894 787.272 153.026C787.477 153.132 787.682 153.233 787.89 153.329C789.736 154.193 791.551 154.685 793.351 154.849C794.6 154.963 795.846 155.085 796.96 155.248C799.051 155.59 799.869 155.79 801.519 157.166L801.375 157.009C803.722 159.304 806.462 161.858 808.463 163.808L808.47 163.823C808.654 164.065 808.831 164.292 809.007 164.521C809.325 164.932 809.637 165.344 809.946 165.762C810.142 166.031 810.414 166.248 810.736 166.351C811.058 166.454 811.4 166.436 811.696 166.296C811.992 166.156 812.223 165.904 812.347 165.589C812.472 165.275 812.476 164.927 812.393 164.605C812.393 164.605 812.393 164.605 812.393 164.605C812.252 164.071 812.096 163.539 811.931 163.014C811.839 162.723 811.743 162.432 811.655 162.156L811.663 162.171C809.919 158.441 808.152 155.851 806.115 152.948L805.971 152.791C804.444 150.647 800.827 148.656 798.257 148.274C796.773 147.96 795.388 147.787 794.006 147.659C792.028 147.48 790.054 147.762 788.115 148.454C787.898 148.531 787.683 148.612 787.467 148.699C787.198 148.807 786.927 148.923 786.656 149.047C786.52 149.109 786.382 149.173 786.245 149.24C786.175 149.273 786.105 149.307 786.032 149.341C785.994 149.358 785.958 149.376 785.914 149.394C785.892 149.403 785.868 149.412 785.836 149.421C785.818 149.426 785.798 149.431 785.765 149.436C785.741 149.44 785.728 149.442 785.67 149.45C785.648 149.454 785.599 149.459 785.517 149.477C785.454 149.494 785.398 149.496 785.2 149.588C785.136 149.62 785.061 149.662 784.98 149.724C784.898 149.789 784.815 149.848 784.68 150.037C784.429 150.38 784.438 150.831 784.44 150.808Z" fill="#323A25"/>
<path d="M770.617 207.525C770.872 207.345 771.118 207.156 771.304 206.937C771.49 206.716 771.6 206.476 771.614 206.222C771.627 205.969 771.542 205.718 771.381 205.479C771.219 205.241 770.994 205.028 770.759 204.822C770.759 204.822 770.759 204.822 770.759 204.822C771.048 204.831 771.009 204.828 771.04 204.812C771.056 204.798 771.054 204.778 771.05 204.757C771.041 204.715 771.019 204.667 770.997 204.62C770.951 204.524 770.891 204.424 770.836 204.328C770.72 204.132 770.59 203.937 770.462 203.752C769.404 202.249 768.077 201.185 766.571 200.617C765.195 200.097 763.793 199.65 762.37 199.278C758.406 198.36 755.548 198.989 752.702 199.322C752.182 199.38 751.665 199.445 751.119 199.529C750.528 199.656 750.164 199.565 748.904 200.09C748.761 200.168 748.6 200.27 748.469 200.376C747.833 200.937 747.787 201.211 747.545 201.563C747.374 201.841 747.265 202.164 747.273 202.495C747.282 202.826 747.404 203.135 747.624 203.363C747.844 203.592 748.147 203.727 748.477 203.749C748.808 203.771 749.135 203.675 749.42 203.516C749.42 203.516 749.42 203.516 749.42 203.516C749.596 203.416 749.773 203.313 749.933 203.229C750.089 203.145 750.247 203.081 750.23 203.153C750.225 203.178 750.198 203.212 750.193 203.233C750.17 203.277 750.081 203.324 750.122 203.346C750.152 203.371 750.23 203.395 750.318 203.422C750.497 203.475 750.718 203.536 750.942 203.6C751.393 203.727 751.868 203.863 752.346 203.996C755.354 204.756 758.489 205.158 760.208 205.885C761.476 206.394 762.744 206.888 764.018 207.37C765.416 207.898 766.959 208.008 768.758 207.734C768.982 207.699 769.214 207.66 769.455 207.614C769.572 207.59 769.697 207.567 769.831 207.543C769.896 207.531 769.965 207.519 770.05 207.511C770.098 207.508 770.125 207.499 770.198 207.503C770.274 207.501 770.29 207.513 770.617 207.525Z" fill="#323A25"/>
<path d="M741.95 253.78C742.203 253.974 742.495 254.129 742.81 254.182C743.125 254.234 743.436 254.181 743.692 254.023C743.948 253.864 744.134 253.61 744.228 253.304C744.322 252.999 744.313 252.668 744.252 252.355C744.252 252.355 744.252 252.355 744.252 252.355C743.895 251.291 743.576 250.557 743.128 249.728C742.863 249.242 742.568 248.767 742.238 248.305C739.745 245.421 737.237 244.255 734.56 243.172C733.72 242.855 732.88 242.557 732.036 242.276C728.155 240.879 723.924 242.165 721.253 243.72C718.607 245.219 716.31 246.772 713.948 248.436C712.305 249.552 710.316 251.276 709.087 252.912C707.445 254.981 706.003 257.053 704.582 259.198C704.438 259.417 704.293 259.638 704.15 259.861C703.716 260.54 703.208 261.343 702.86 262.139C702.722 262.449 702.681 262.803 702.771 263.136C702.86 263.469 703.07 263.753 703.358 263.928C703.646 264.103 703.995 264.157 704.332 264.083C704.669 264.008 704.963 263.809 705.175 263.543C705.175 263.543 705.175 263.543 705.175 263.543C705.636 262.955 706.124 262.499 706.699 261.939C706.879 261.766 707.062 261.591 707.246 261.416C709.057 259.701 710.9 257.949 712.708 256.351C714.138 255.064 715.311 254.373 717.052 253.47C719.479 252.206 722.006 250.873 724.34 249.781C726.559 248.763 728.226 248.534 729.701 249.083C730.475 249.356 731.246 249.637 732.006 249.925C734.362 250.826 737.065 251.575 738.807 252.13C739.198 252.314 739.598 252.515 740.002 252.727C740.654 253.058 741.413 253.52 741.95 253.78Z" fill="#323A25"/>
<path d="M887.243 247.233C887.569 247.17 887.883 247.017 888.113 246.77C888.344 246.523 888.474 246.206 888.474 245.879C888.474 245.552 888.344 245.235 888.113 244.988C887.883 244.741 887.569 244.588 887.243 244.525C887.243 244.525 887.243 244.525 887.243 244.525C887.403 244.523 887.319 244.513 887.316 244.502C887.296 244.491 887.267 244.478 887.237 244.465C887.177 244.437 887.107 244.407 887.037 244.376C886.895 244.314 886.746 244.247 886.595 244.18C886.295 244.044 885.989 243.903 885.681 243.761C884.866 243.387 884.048 243.011 883.219 242.643C880.67 241.539 878.173 240.405 874.937 239.834C872.036 239.099 867.249 239.897 864.835 241.106C864.113 241.392 863.448 241.688 862.793 241.994C860.7 242.978 858.713 244.004 856.722 245.076C853.993 246.54 851.026 248.285 848.599 249.87C848.263 250.073 848.05 250.222 848.027 250.236C847.996 250.26 848.235 250.109 848.669 250.054C849.294 250.001 850.138 250.01 851.093 250.985C848.552 247.983 845.33 245.506 842.372 243.193C838.893 240.57 835.39 238.746 831.937 236.874C829.257 235.433 826.182 234.039 822.857 233.636C820.26 233.215 817.662 233.984 815.751 234.654C812.93 235.642 810.282 236.721 807.606 237.705C807.018 237.921 806.429 238.133 805.837 238.341C804.861 238.688 803.926 238.987 802.854 239.379C802.558 239.507 802.262 239.551 801.677 239.996C801.382 240.222 801.085 240.693 801.009 241.034C800.92 241.378 800.926 241.601 800.926 241.789C800.938 242.137 801.073 242.475 801.318 242.728C801.562 242.981 801.893 243.129 802.241 243.139C802.588 243.149 802.927 243.021 803.186 242.783C803.444 242.544 803.599 242.215 803.632 241.868C803.632 241.868 803.632 241.868 803.632 241.868C803.641 241.785 803.666 241.736 803.653 241.819C803.651 241.899 803.51 242.133 803.429 242.193C803.278 242.308 803.514 242.196 803.731 242.155C804.644 241.944 805.723 241.734 806.74 241.504C807.369 241.363 807.996 241.217 808.623 241.066C811.468 240.376 814.28 239.572 816.989 238.918C818.989 238.44 820.517 238.196 821.994 238.581C824.45 239.103 826.7 240.33 829.044 241.816C832.323 243.903 835.65 245.968 838.302 248.21C841.102 250.651 843.765 252.855 845.968 255.652C847.215 256.946 848.525 257.056 849.569 256.948C851.448 256.62 852 255.898 852.136 255.903C854.947 254.192 857.348 252.855 860.099 251.413C862.005 250.415 863.949 249.427 865.852 248.533C866.442 248.257 867.03 247.985 867.575 247.748C870.415 246.456 871.498 246.109 874.395 246.098C876.6 246.068 879.361 246.516 882.076 246.821C882.976 246.926 883.887 247.024 884.805 247.103C885.161 247.135 885.517 247.163 885.88 247.185C886.064 247.197 886.247 247.207 886.44 247.214C886.536 247.219 886.635 247.222 886.741 247.225C886.795 247.226 886.852 247.228 886.916 247.229C886.998 247.23 886.998 247.233 887.243 247.233Z" fill="#323A25"/>
<path d="M891.851 229.118C891.693 229.39 891.563 229.685 891.527 229.992C891.491 230.3 891.55 230.594 891.707 230.833C891.864 231.072 892.11 231.243 892.407 231.332C892.703 231.42 893.026 231.419 893.338 231.381C893.338 231.381 893.338 231.381 893.338 231.381C893.957 231.336 894.61 231.27 895.235 231.194C897.567 230.928 899.881 230.305 901.493 229.844C901.663 229.796 901.831 229.744 901.995 229.69C905.218 228.611 907.844 227.129 909.975 226.556C912.951 225.81 914.873 225.575 918.119 226.509L917.377 226.087C918.842 226.957 920.367 228.637 921.711 230.366C921.745 230.41 921.778 230.453 921.811 230.496L921.804 230.482C921.967 230.699 922.121 230.905 922.217 231.028C922.311 231.148 922.375 231.221 922.446 231.439C922.537 231.762 922.722 232.061 922.995 232.266C923.267 232.471 923.6 232.566 923.93 232.529C924.259 232.493 924.563 232.326 924.784 232.067C925.004 231.807 925.119 231.474 925.137 231.14C925.137 231.14 925.137 231.14 925.137 231.14C925.149 230.805 925.099 230.326 924.983 229.93C924.871 229.536 924.763 229.249 924.667 228.973L924.66 228.959C924.64 228.903 924.619 228.847 924.598 228.79C923.715 226.505 922.693 224.228 920.612 222.126L919.871 221.704C917.059 219.966 912.139 219.259 908.675 219.941C904.91 220.591 902.212 222.054 899.737 222.833C899.614 222.873 899.492 222.914 899.373 222.955C896.607 223.933 894.81 225.461 893.112 227.418C892.671 227.944 892.254 228.497 891.851 229.118Z" fill="#323A25"/>
<path d="M852.977 290.099C853.123 290.376 853.298 290.643 853.53 290.842C853.763 291.04 854.034 291.154 854.314 291.158C854.595 291.163 854.869 291.057 855.108 290.866C855.346 290.675 855.53 290.414 855.684 290.141C855.684 290.141 855.684 290.141 855.684 290.141C855.993 289.542 856.251 288.953 856.467 288.347C857.018 286.663 857.443 285.151 856.971 282.823C856.485 281.117 855.522 280.172 854.876 279.55C854.241 278.966 853.692 278.537 853.159 278.115C850.448 275.992 847.351 274.262 843.8 273.375C839.927 272.467 836.087 272.396 832.269 273.132L832.09 273.152C831.396 273.346 830.581 273.674 829.919 274.225C829.801 274.322 829.695 274.421 829.608 274.508C829.422 274.692 829.135 274.977 828.928 275.29C828.72 275.6 828.596 275.881 828.496 276.135C828.384 276.449 828.359 276.798 828.458 277.123C828.557 277.447 828.768 277.719 829.054 277.883C829.339 278.047 829.68 278.092 830.01 278.014C830.341 277.936 830.629 277.738 830.844 277.483C830.844 277.483 830.844 277.483 830.844 277.483C830.972 277.342 831.093 277.234 831.18 277.194C831.266 277.155 831.333 277.146 831.515 277.058C831.594 277.02 831.656 276.998 831.712 276.982C831.99 276.912 832.275 276.914 832.687 276.935L832.508 276.955C835.74 277.335 839.019 278.2 841.887 279.396C844.242 280.412 846.533 281.953 848.638 283.708C849.139 284.125 849.625 284.527 849.969 284.845C850.153 285.015 850.293 285.149 850.356 285.191C850.423 285.237 850.398 285.153 850.404 285.013C850.825 285.606 851.434 287.175 852.139 288.527C852.401 289.044 852.684 289.576 852.977 290.099Z" fill="#323A25"/>
<path d="M707.582 307.898C707.751 308.163 707.953 308.413 708.208 308.586C708.464 308.76 708.751 308.843 709.035 308.814C709.319 308.786 709.583 308.647 709.799 308.426C710.014 308.204 710.162 307.919 710.275 307.625C710.275 307.625 710.275 307.625 710.275 307.625C710.262 307.252 710.246 307.169 710.235 307.02C710.222 306.885 710.213 306.777 710.199 306.663C710.174 306.445 710.145 306.243 710.109 306.046C710.04 305.655 709.95 305.284 709.841 304.922C709.422 303.527 708.746 302.279 707.911 301.185L707.593 300.928C706.451 299.788 704.897 298.934 703.446 298.494C701.22 297.814 699.121 297.576 697.079 297.461C690.084 297.187 683.584 298.135 677.024 299.372C676.422 299.489 675.821 299.609 675.219 299.734C674.891 299.803 674.581 299.966 674.357 300.224C674.134 300.481 674.016 300.806 674.029 301.137C674.043 301.468 674.187 301.783 674.43 302.021C674.674 302.259 674.997 302.397 675.329 302.439C675.329 302.439 675.329 302.439 675.329 302.439C675.937 302.515 676.544 302.588 677.15 302.658C683.711 303.446 690.371 303.78 696.483 304.458C698.217 304.672 699.907 304.956 701.307 305.389C702.242 305.683 702.979 305.88 703.866 306.195L703.548 305.938C704.438 306.43 705.368 306.911 706.306 307.425C706.547 307.558 706.788 307.693 707.02 307.824C707.136 307.89 707.25 307.955 707.354 308.009C707.407 308.037 707.456 308.059 707.499 308.069C707.541 308.062 707.577 308.124 707.582 307.898Z" fill="#323A25"/>
<path d="M568.884 227.231C568.592 227.105 568.274 227.024 567.956 227.046C567.639 227.067 567.351 227.19 567.139 227.401C566.928 227.612 566.806 227.9 566.784 228.218C566.762 228.535 566.844 228.854 566.97 229.146C566.97 229.146 566.97 229.146 566.97 229.146C567 229.171 566.988 229.179 567.166 229.308C567.222 229.343 567.283 229.394 567.485 229.468C567.59 229.502 567.737 229.551 568.002 229.54C568.254 229.536 568.687 229.393 568.95 229.076C569.217 228.764 569.267 228.449 569.279 228.267C569.288 228.078 569.264 227.969 569.247 227.887C569.209 227.728 569.177 227.669 569.155 227.618C569.071 227.449 569.061 227.451 569.043 227.421C569.028 227.399 569.02 227.389 569.014 227.381C568.993 227.351 568.99 227.348 568.985 227.341C568.974 227.326 568.979 227.332 568.976 227.327C568.974 227.323 568.972 227.318 568.97 227.314C568.965 227.304 568.961 227.296 568.959 227.29C568.955 227.278 568.946 227.26 568.943 227.249C568.936 227.225 568.922 227.195 568.915 227.172C568.895 227.119 568.879 227.072 568.859 227.02C568.824 226.922 568.784 226.819 568.75 226.725C568.675 226.529 568.6 226.336 568.52 226.142C568.367 225.762 568.202 225.383 568.032 225.013C567.076 222.93 565.902 221.029 564.546 219.31C563.891 218.499 563.184 217.776 562.438 217.119C560.227 215.183 557.914 213.55 555.442 212.08C553.244 210.749 550.474 209.626 547.863 209.232C545.306 208.781 542.788 208.827 540.483 208.942C536.97 209.131 533.544 209.487 530.104 209.889C529.337 209.98 528.572 210.073 527.805 210.17C527.469 210.213 527.146 210.36 526.906 210.608C526.667 210.856 526.532 211.181 526.531 211.517C526.529 211.854 526.661 212.18 526.898 212.43C527.134 212.68 527.456 212.831 527.792 212.877C527.792 212.877 527.792 212.877 527.792 212.877C528.559 212.981 529.324 213.081 530.09 213.178C533.52 213.614 536.968 213.965 540.321 214.343C542.556 214.601 544.603 214.873 546.485 215.44C548.445 215.994 549.994 216.806 551.726 217.98C553.791 219.384 555.836 220.93 557.667 222.537C558.285 223.081 558.9 223.605 559.498 224.11C561.112 225.517 562.885 226.773 564.804 227.901C565.144 228.101 565.492 228.3 565.838 228.49C566.014 228.589 566.189 228.684 566.364 228.778C566.449 228.822 566.541 228.873 566.627 228.918C566.672 228.943 566.713 228.963 566.758 228.987C566.777 228.996 566.802 229.011 566.821 229.019C566.83 229.022 566.843 229.031 566.851 229.033C566.855 229.035 566.861 229.037 566.864 229.038C566.866 229.039 566.868 229.038 566.868 229.037C566.867 229.035 566.871 229.039 566.865 229.031C566.862 229.026 566.86 229.024 566.839 228.996C566.833 228.987 566.826 228.978 566.811 228.956C566.793 228.926 566.783 228.928 566.699 228.759C566.677 228.708 566.645 228.649 566.607 228.49C566.59 228.408 566.566 228.299 566.575 228.11C566.587 227.928 566.638 227.613 566.904 227.302C567.167 226.984 567.6 226.841 567.853 226.837C568.117 226.826 568.264 226.875 568.369 226.909C568.571 226.983 568.632 227.034 568.688 227.069C568.866 227.198 568.854 227.206 568.884 227.231Z" fill="#323A25"/>
<path d="M532.885 256.66C533.147 256.477 533.399 256.301 533.597 256.121C533.796 255.939 533.929 255.754 533.983 255.541C534.036 255.328 534.008 255.102 533.92 254.848C533.831 254.596 533.694 254.321 533.55 254.035C533.55 254.035 533.55 254.035 533.55 254.035C533.518 253.714 533.291 253.355 533.131 253.05C532.43 251.807 531.549 251.013 530.528 250.686C530.329 250.623 530.133 250.562 529.931 250.502L529.326 250.366C525.869 249.955 521.939 250.219 518.958 250.977L519.004 250.992C518.989 250.994 518.974 250.995 518.959 250.996C518.734 251.014 518.564 251.045 518.323 251.027C518.007 250.984 517.677 250.993 517.377 251.103C517.077 251.213 516.833 251.413 516.689 251.677C516.545 251.941 516.508 252.254 516.578 252.565C516.647 252.877 516.818 253.16 517.024 253.403C517.024 253.403 517.024 253.403 517.024 253.403C517.247 253.642 517.563 253.892 517.839 254.088C517.857 254.102 517.876 254.115 517.894 254.128L517.94 254.144C521.837 256.093 524.892 256.94 528.351 257.507L527.746 257.37C527.941 257.437 528.132 257.5 528.327 257.562C529.328 257.882 530.47 257.749 531.786 257.168C532.131 257.025 532.409 256.839 532.885 256.66Z" fill="#323A25"/>
<path d="M626.281 169.61C626.572 169.734 626.887 169.819 627.202 169.803C627.517 169.787 627.804 169.673 628.017 169.47C628.23 169.267 628.358 168.986 628.389 168.673C628.42 168.359 628.351 168.04 628.241 167.743C628.241 167.743 628.241 167.743 628.241 167.743C627.914 166.969 627.552 166.269 627.132 165.586C625.946 163.658 624.381 161.985 622.451 160.702C621.663 160.181 620.902 159.768 620.117 159.399C618.051 158.439 615.993 157.608 613.793 156.886C611.169 155.98 608.002 155.578 605.393 155.651C602.482 155.692 599.682 155.92 596.818 156.328C595.099 156.576 593.259 156.956 591.589 157.527C590.789 157.793 589.99 158.088 589.216 158.405C588.534 158.684 587.867 158.978 587.209 159.28C586.902 159.422 586.638 159.658 586.483 159.964C586.328 160.271 586.294 160.619 586.391 160.94C586.487 161.26 586.707 161.532 587.005 161.702C587.303 161.873 587.654 161.924 587.988 161.873C587.988 161.873 587.988 161.873 587.988 161.873C588.685 161.768 589.378 161.669 590.063 161.583C590.842 161.485 591.608 161.408 592.384 161.347C593.974 161.211 595.46 161.242 597.072 161.328C599.73 161.477 602.469 161.697 605.082 161.99C607.493 162.249 609.34 162.678 611.441 163.515C613.295 164.243 615.219 165.083 617.058 165.939C617.752 166.263 618.459 166.565 619.102 166.825C620.706 167.479 622.437 168.16 624.298 168.862C624.95 169.109 625.626 169.363 626.281 169.61Z" fill="#323A25"/>
<path d="M527.537 300.957C527.824 300.827 528.1 300.655 528.303 300.416C528.507 300.177 528.62 299.892 528.619 299.6C528.618 299.308 528.503 299.024 528.298 298.786C528.093 298.549 527.816 298.378 527.527 298.25C527.527 298.25 527.527 298.25 527.527 298.25C526.831 297.952 526.127 297.695 525.422 297.476C524.562 297.211 523.696 297.001 522.797 296.862C522.347 296.793 521.888 296.741 521.395 296.719C520.863 296.717 520.491 296.643 519.455 296.903C519.303 296.945 519.025 297.05 518.826 297.15C518.622 297.249 518.475 297.337 518.359 297.406C518.13 297.546 517.995 297.639 517.867 297.724C517.62 297.892 517.432 298.027 517.245 298.163C516.876 298.435 516.544 298.697 516.215 298.972C516.031 299.126 515.855 299.278 515.682 299.432C513.684 301.213 511.729 302.946 509.837 304.204C507.144 305.968 504.679 306.79 500.627 307.501L500.106 307.639C497.339 309.021 496.691 310.826 495.733 312.274L495.7 312.32C494.985 313.631 494.348 314.909 493.69 316.186C493.38 316.79 493.069 317.392 492.754 317.992C492.596 318.29 492.528 318.636 492.589 318.974C492.65 319.311 492.832 319.609 493.101 319.806C493.371 320.004 493.71 320.088 494.049 320.045C494.389 320.002 494.7 319.832 494.937 319.593C494.937 319.593 494.937 319.593 494.937 319.593C495.427 319.094 495.908 318.588 496.381 318.077C497.38 317.002 498.348 315.889 499.285 314.847L499.252 314.892C500.311 313.748 501.623 312.603 502.009 312.725L501.488 312.863C504.757 312.979 509.716 312.262 513.351 310.136C516.166 308.563 518.383 306.682 520.482 304.824C520.658 304.668 520.829 304.511 520.993 304.356C521.292 304.074 521.581 303.786 521.846 303.512C521.975 303.377 522.105 303.241 522.184 303.148C522.219 303.105 522.25 303.069 522.193 303.092C522.164 303.104 522.105 303.136 521.993 303.187C521.886 303.238 521.705 303.303 521.652 303.312C521.478 303.336 521.608 303.262 521.713 303.213C521.83 303.158 521.987 303.098 522.148 303.039C522.476 302.92 522.846 302.796 523.22 302.667C523.973 302.408 524.763 302.124 525.558 301.806C526.211 301.545 526.877 301.261 527.537 300.957Z" fill="#323A25"/>
<path d="M702.239 221.406C702.554 221.322 702.856 221.165 703.078 220.92C703.301 220.676 703.426 220.369 703.426 220.053C703.426 219.737 703.301 219.43 703.078 219.185C702.856 218.941 702.554 218.783 702.239 218.699C702.239 218.699 702.239 218.699 702.239 218.699C700.987 218.418 699.84 218.237 698.644 218.1C695.973 217.798 693.313 217.764 690.687 217.939C688.592 218.086 686.48 218.43 684.415 219.01C681.648 219.785 678.886 220.87 676.316 222.339C675.037 223.062 673.805 223.902 672.781 224.593C672.28 224.931 671.816 225.215 671.613 225.31C671.375 225.405 671.64 225.351 671.678 225.398C666.833 224.144 660.934 226.27 657.608 228.11C651.558 231.303 648.016 235.816 644.66 240.711L644.581 240.825C644.166 241.581 643.834 242.357 643.56 243.128C643.359 243.695 643.188 244.259 643.037 244.82L643.049 244.787C642.903 245.309 642.727 245.825 642.529 246.381C642.414 246.706 642.41 247.067 642.537 247.392C642.664 247.717 642.909 247.979 643.222 248.122C643.534 248.264 643.892 248.278 644.221 248.161C644.55 248.045 644.821 247.806 644.991 247.506C644.991 247.506 644.991 247.506 644.991 247.506C645.282 246.996 645.587 246.443 645.86 245.87L645.872 245.837C646.093 245.361 646.323 244.899 646.567 244.459C646.9 243.86 647.259 243.302 647.654 242.795L647.574 242.909C651.142 239.019 655.629 235.09 659.822 233.48C664.107 231.804 666.734 231.085 670.271 232.034C671.615 232.374 673.238 232.1 674.223 231.681C675.237 231.274 675.915 230.842 676.528 230.476C677.732 229.732 678.705 229.119 679.757 228.561C681.828 227.454 684.026 226.618 686.368 225.96C688.109 225.471 689.906 225.002 691.732 224.527C694.174 223.901 696.6 223.18 699.032 222.414C700.106 222.077 701.22 221.723 702.239 221.406Z" fill="#323A25"/>
<ellipse cx="586.363" cy="314.307" rx="66.7788" ry="53.8576" transform="rotate(-53.8217 586.363 314.307)" fill="#2C3630"/>
<ellipse cx="578.539" cy="309.674" rx="64.217" ry="44.5472" transform="rotate(-53.8217 578.539 309.674)" fill="#424A3E"/>
<path fill-rule="evenodd" clip-rule="evenodd" d="M604.915 291.993C603.829 288.144 601.744 284.884 598.648 282.62C588.744 275.377 572.251 281.079 561.809 295.357C551.368 309.635 550.933 327.081 560.837 334.324C562.755 335.727 564.921 336.644 567.242 337.107C567.242 336.979 567.24 336.832 567.239 336.669C567.213 333.689 567.137 325.028 573.859 314.04C584.268 297.028 595.175 294.37 603.401 292.365C603.917 292.24 604.421 292.117 604.915 291.993Z" fill="#2C3630"/>
<path d="M567.242 337.107C576.903 339.036 589.257 333.099 597.676 321.587C604.854 311.771 607.303 300.459 604.915 291.993C604.421 292.117 603.917 292.24 603.401 292.365C595.175 294.37 584.268 297.028 573.859 314.04C567.137 325.028 567.213 333.689 567.239 336.669C567.24 336.832 567.242 336.979 567.242 337.107Z" fill="#1E2320"/>
<path fill-rule="evenodd" clip-rule="evenodd" d="M833.475 265.764C835.742 262.435 840.802 257.998 842.9 266.886C843.629 264.333 844.674 258.139 843.025 253.787C842.249 253.232 841.417 252.844 840.526 252.655C831.588 250.759 824.611 261.854 822.24 267.638C817.103 285.303 806.644 323.205 805.896 333.491C805.149 343.778 806.169 352.05 806.773 354.9C807.736 358.094 809.425 360.543 811.489 362.405C812.055 362.915 812.648 363.381 813.263 363.806C830.886 358.694 843.12 361.27 847.034 363.196C851.079 365.293 857.916 365.358 860.828 365.129C887.393 363.777 886.912 316.127 883.351 292.471C882.747 288.851 882.687 279.726 887.28 272.185C888.986 269.334 892.871 265.555 894.77 273.245C896.43 272.428 898.828 268.494 895.136 259.287C894.094 258.854 893.13 258.66 892.334 258.64C881.048 255.595 872.488 280.426 869.619 293.222C866.624 304.808 850.937 304.294 843.467 302.589C831.982 300.194 829.491 293.886 829.681 291.032C828.892 289.434 828.274 286.929 827.922 283.242C828.192 280.246 829.681 272.555 833.475 265.764ZM824.371 326.56C828.617 338.169 843.437 353.172 868.749 320.312C857.496 338.997 832.866 366.406 824.371 326.56Z" fill="#8BD5EA"/>
<path d="M824.371 326.56C828.617 338.169 843.437 353.172 868.749 320.312C857.496 338.997 832.866 366.406 824.371 326.56Z" fill="#4FBBE6"/>
<path fill-rule="evenodd" clip-rule="evenodd" d="M906.509 299.771L905.569 280.297C904.768 266.622 899.325 261.027 895.136 259.287C898.828 268.494 896.43 272.428 894.77 273.245C895.728 277.448 896.757 287.925 893.213 296.215C891.32 300.252 886.698 305.154 883.351 292.471C886.912 316.127 887.393 363.777 860.828 365.129C857.916 365.358 851.079 365.293 847.034 363.196C843.12 361.27 830.886 358.694 813.263 363.806C818.439 367.385 825.1 368.064 828.933 367.755C834.509 367.338 848.145 367.553 858.083 371.746C868.021 375.939 878.951 372.242 883.175 369.869C886.72 367.122 891.975 364.937 894.159 364.188C903.239 361.212 907.48 355.485 909.235 349.355C911.643 340.948 909.377 331.783 908.51 327.921C907.311 322.578 906.676 306.928 906.509 299.771ZM894.589 316.001C896.505 324.406 898.338 344.475 890.351 357.51C892.327 350.893 895.94 333.328 894.589 316.001Z" fill="#41AEDA"/>
<path d="M842.9 266.886C843.109 271.214 842.94 280.967 840.593 285.362C837.812 290.469 832.587 296.919 829.681 291.032C829.491 293.886 831.982 300.194 843.467 302.589C850.937 304.294 866.624 304.808 869.619 293.222C856.787 299.366 853.078 291.748 852.828 287.17C852.489 277.523 850.034 258.806 843.025 253.787C844.674 258.139 843.629 264.333 842.9 266.886Z" fill="#35A4D6"/>
<path d="M894.589 316.001C896.505 324.406 898.338 344.475 890.351 357.51C892.327 350.893 895.94 333.328 894.589 316.001Z" fill="#1E96CC"/>
<path d="M894.159 364.188C891.975 364.937 886.72 367.122 883.175 369.869C878.951 372.242 868.021 375.939 858.083 371.746C848.145 367.553 834.509 367.338 828.933 367.755C825.1 368.064 818.439 367.385 813.263 363.806C812.648 363.381 812.055 362.915 811.489 362.405C804.717 364.877 796.264 370.357 816.638 372.501L849.095 375.554C857.127 376.781 876.659 377.885 890.54 372.49L912.76 364.934C927.534 360.288 947.514 350.668 909.235 349.355C907.48 355.485 903.239 361.212 894.159 364.188Z" fill="#77CC00"/>
<path d="M1017.4 363.794C1015.57 366.294 1013.32 373.064 1016.9 378.794C1018.95 382.064 1024.29 384.266 1031.32 384.445C1033.23 384.494 1035.27 384.307 1037.4 383.794C1040.4 382.628 1047.9 380.994 1053.9 383.794C1055.11 384.018 1056.67 384.201 1058.32 384.24C1062.81 384.347 1068.02 383.39 1068.9 379.294C1069.07 378.128 1067.6 375.494 1060.4 374.294C1058.57 373.794 1054.5 371.994 1052.9 368.794L1048.9 363.794C1048.36 363.062 1047.69 362.293 1046.9 361.536C1038.9 363.329 1031.57 369.455 1028.9 372.294C1025.7 375.894 1026.9 377.461 1027.9 377.794C1032.3 378.594 1034.07 375.794 1034.4 374.294C1035.2 369.894 1039.4 367.461 1041.4 366.794C1042.73 366.461 1045.6 365.994 1046.4 366.794C1047.2 367.594 1045.4 369.128 1044.4 369.794C1043.9 369.961 1042.2 371.394 1039.4 375.794C1036.6 380.194 1032.23 380.961 1030.4 380.794C1023.6 380.394 1018.9 376.294 1017.4 374.294C1021.4 371.894 1032.4 361.378 1037.4 356.42C1031.86 355.28 1022.82 356.064 1017.4 363.794Z" fill="#65C5E7"/>
<path d="M1037.4 356.42C1032.4 361.378 1021.4 371.894 1017.4 374.294C1018.9 376.294 1023.6 380.394 1030.4 380.794C1032.23 380.961 1036.6 380.194 1039.4 375.794C1042.2 371.394 1043.9 369.961 1044.4 369.794C1045.4 369.128 1047.2 367.594 1046.4 366.794C1045.6 365.994 1042.73 366.461 1041.4 366.794C1039.4 367.461 1035.2 369.894 1034.4 374.294C1034.07 375.794 1032.3 378.594 1027.9 377.794C1026.9 377.461 1025.7 375.894 1028.9 372.294C1031.57 369.455 1038.9 363.329 1046.9 361.536C1044.62 359.336 1041.36 357.236 1037.4 356.42Z" fill="#98DDEF"/>
<path d="M1053.9 383.794C1047.9 380.994 1040.4 382.628 1037.4 383.794C1035.27 384.307 1033.23 384.494 1031.32 384.445C1039.32 386.526 1055.92 389.397 1058.32 384.24C1056.67 384.201 1055.11 384.018 1053.9 383.794Z" fill="#77CC00"/>
<path d="M379.484 376.454C374.817 375.454 364.784 375.454 361.984 383.454C360.945 386.422 360.655 389.125 360.944 391.486C361.628 397.08 365.561 400.751 370.484 401.454C372.621 401.759 374.875 402.317 376.984 402.955C376.65 402.288 375.384 400.554 372.984 398.954C371.317 397.787 369.384 395.454 374.984 395.454C380.584 395.454 388.984 403.743 392.484 407.888C395.365 408.106 398.461 407.701 400.984 405.954C401.219 405.651 401.555 405.288 401.984 404.9C392.784 405.257 387.817 398.751 386.484 395.454C386.317 394.621 384.184 392.054 376.984 388.454C369.784 384.854 370.65 383.621 371.984 383.454C377.184 382.254 384.484 386.954 387.484 389.454C403.884 400.654 414.322 393.454 417.49 388.454C416.431 386.928 414.702 385.537 411.984 384.954L403.484 383.454C399.817 382.954 392.484 379.24 379.484 376.454Z" fill="#97DCF0"/>
<path d="M410.984 401.454C413.484 400.621 418.584 397.754 418.984 392.954C418.984 391.839 418.613 390.071 417.49 388.454C414.322 393.454 403.884 400.654 387.484 389.454C384.484 386.954 377.184 382.254 371.984 383.454C370.65 383.621 369.784 384.854 376.984 388.454C384.184 392.054 386.317 394.621 386.484 395.454C387.817 398.751 392.784 405.257 401.984 404.9C403.68 403.366 406.833 401.454 410.984 401.454Z" fill="#5FC5E9"/>
<path d="M376.984 402.955C380.401 403.989 383.438 405.233 384.984 405.954C386.614 406.726 389.428 407.657 392.484 407.888C388.984 403.743 380.584 395.454 374.984 395.454C369.384 395.454 371.317 397.787 372.984 398.954C375.384 400.554 376.65 402.288 376.984 402.955Z" fill="#5FC5E9"/>
<path d="M418.984 392.954C418.584 397.754 413.484 400.621 410.984 401.454C406.833 401.454 403.68 403.366 401.984 404.9C401.555 405.288 401.219 405.651 400.984 405.954C398.461 407.701 395.365 408.106 392.484 407.888C389.428 407.657 386.614 406.726 384.984 405.954C383.438 405.233 380.401 403.989 376.984 402.955C374.875 402.317 372.621 401.759 370.484 401.454C365.561 400.751 361.628 397.08 360.944 391.486C343.028 396.712 351.075 402.606 357.338 404.9C388.938 414.457 418.172 409.585 428.838 405.954C449.122 399.917 430.72 394.772 418.984 392.954Z" fill="#77CC00"/>
</svg>
