<svg width="1440" height="480" viewBox="0 0 1440 480" fill="none" xmlns="http://www.w3.org/2000/svg">
<path d="M988.526 163.907C1005.65 185.61 977.245 216.527 960.903 229.273C970.632 223.927 989.902 218.661 989.152 240.359C988.402 262.057 960.132 273.596 946.091 276.654C994.574 282.62 1036.77 293.278 1051.8 297.861C1039.58 290.516 1022.08 256.081 1037.9 241.785C1050.55 230.348 1061.73 237.324 1065.74 242.241C1061.57 230.507 1063.39 210.755 1064.82 202.346C1066.72 193.616 1073.43 175.973 1084.99 175.246C1096.55 174.519 1101.44 191.688 1102.44 200.364C1106.4 190.213 1108.69 176.759 1109.34 171.3C1111.63 151.888 1099.91 142.16 1093.77 139.722C1082.85 134.616 1067.8 139.216 1061.65 142.154C1045.05 148.354 1030.95 166.998 1025.98 175.545C1032.88 162.409 1041.3 133.847 1019.75 124.686C998.197 115.525 978.997 139.547 972.091 152.704C977.875 154.163 983.541 157.587 988.526 163.907Z" fill="#3C6600"/>
<path fill-rule="evenodd" clip-rule="evenodd" d="M1146.29 108.994C1123.06 126.313 1109.19 189.06 1105.16 218.269C1107.5 209.417 1115.7 187.682 1129.77 171.555C1135.15 165.157 1149.82 154.61 1165.45 163.61C1181.07 172.61 1167.69 206.246 1159.05 221.939C1173.44 208.606 1204.44 187.089 1213.33 207.687C1222.23 228.285 1191.32 263.387 1174.75 278.364C1181.36 278.41 1195.74 281.459 1200.39 293.286C1206.2 308.07 1194.33 324.376 1173.92 327.227L1201.42 332.583C1203.75 320.626 1213.29 293.938 1232.83 282.848C1236.52 280.879 1245.39 278.221 1251.35 283.352C1258.79 289.765 1251.49 311.305 1238.54 326.781C1245.13 322.686 1259.09 316.26 1262.18 323.316C1266.05 332.137 1256.06 341.983 1239.35 344.935C1279.23 340.91 1297.96 311.667 1296.16 285.873C1294.71 265.237 1278.25 257.771 1270.2 256.617C1277.47 252.24 1288.34 238.678 1273.72 219.447C1259.1 200.216 1229.57 213.538 1216.63 222.603C1233.22 196.046 1222.44 181.121 1214.97 176.977C1231.25 151.808 1256.12 98.8571 1225.39 88.4046C1194.66 77.952 1159.86 97.7754 1146.29 108.994ZM1181.17 178.463C1183.59 183.898 1181.66 189.729 1180.4 191.965C1186.21 187.636 1188.51 180.098 1188.93 176.87C1189.15 173.604 1188.31 167.317 1183.15 168.298C1177.99 169.28 1179.68 175.484 1181.17 178.463ZM1188.06 194.077C1192.8 186.726 1202.96 174.267 1205.68 183.236C1208.4 192.206 1195.07 194.201 1188.06 194.077Z" fill="#3C6600"/>
<path fill-rule="evenodd" clip-rule="evenodd" d="M1105.16 218.269C1103.98 211.585 1102.85 203.547 1102.44 200.364C1101.44 191.688 1096.55 174.519 1084.99 175.246C1073.43 175.973 1066.72 193.616 1064.82 202.346C1063.39 210.755 1061.57 230.507 1065.74 242.241C1061.73 237.324 1050.55 230.348 1037.9 241.785C1022.08 256.081 1039.58 290.516 1051.8 297.861C1057.26 300.413 1074.81 305.031 1082.91 307.021C1084.75 308.258 1087.76 309.496 1091.5 310.697C1086.67 298.332 1079.13 269.052 1087.64 250.851C1089.57 247.297 1095.18 240.157 1102.16 240.026C1109.14 239.895 1110.53 250.138 1110.36 255.275C1110.3 259.815 1109.4 272.96 1106.23 289.223C1107.97 285.63 1112.84 277.602 1118.46 274.229C1120.17 272.906 1124.25 270.639 1126.93 272.155C1129.61 273.67 1128.56 278.677 1127.69 280.991C1126.47 284.063 1123.04 291.503 1119.05 296.684C1121.43 295.079 1127.15 291.435 1130.96 289.695C1133.74 288.168 1139.6 286.784 1140.78 293.468C1141.96 300.152 1125.82 311.862 1117.61 316.882C1125.57 318.385 1133.22 319.598 1138.64 320.358C1143.05 323.202 1154.43 324.26 1159.57 324.433L1173.92 327.227C1194.33 324.376 1206.2 308.07 1200.39 293.286C1195.74 281.459 1181.36 278.41 1174.75 278.364C1191.32 263.387 1222.23 228.285 1213.33 207.687C1204.44 187.089 1173.44 208.606 1159.05 221.939C1167.69 206.246 1181.07 172.61 1165.45 163.61C1149.82 154.61 1135.15 165.157 1129.77 171.555C1115.7 187.682 1107.5 209.417 1105.16 218.269ZM1120.73 249.847C1115.97 253.885 1115.21 261.184 1115.42 264.329C1127.82 259.297 1129.06 252.712 1128.13 250.049C1127.65 248.299 1125.48 245.809 1120.73 249.847Z" fill="#599900"/>
<path d="M830.894 151.206C814.458 151.48 809.79 167.161 809.511 174.967C808.325 186.155 809.997 200.091 810.981 205.661C815.081 222.843 819.482 233.174 821.17 236.192C830.582 254.78 840.762 259.865 849.598 259.104C858.434 258.342 865.741 262.247 869.328 262.946C870.053 263.087 871.338 263.285 872.942 263.511C865.118 253.76 849.38 230.267 849.013 214.309C848.645 198.351 856.349 192.57 860.247 191.674C863.503 189.826 871.468 190.136 877.284 206.162L882.86 222.141C883.985 216.362 887.542 203.195 892.766 196.766C895.219 193.727 901.538 188.049 907.185 189.645C912.831 191.241 914.683 200 914.904 204.18C914.614 209.915 912.669 225.216 907.203 240.535C909.807 235.663 917.119 226.579 925.543 229.213C928.217 230.354 931.836 235.775 924.923 248.329C921.861 253.429 914.388 264.823 908.991 269.596C912.921 270.681 916.783 271.966 920.033 273.441C929.611 277.788 941.396 277.394 946.091 276.654C960.132 273.596 988.402 262.057 989.152 240.359C989.902 218.661 970.632 223.927 960.903 229.273C977.245 216.527 1005.65 185.61 988.526 163.907C983.541 157.587 977.875 154.163 972.091 152.704C958.013 149.152 943.234 157.245 935.843 163.577C941.426 152.749 946.294 127.965 948.03 116.926C949.818 92.4511 934.963 84.18 927.312 83.1037C907.515 80.2413 891.711 90.6506 886.284 96.2131C859.146 115.751 854.455 156.622 855.502 174.615C854.148 166.698 847.33 150.932 830.894 151.206Z" fill="#77CC00"/>
<path d="M872.942 263.511C877.684 264.181 885.212 265.107 889.292 265.592C893.425 266.124 901.336 267.482 908.991 269.596C914.388 264.823 921.861 253.429 924.923 248.329C931.836 235.775 928.217 230.354 925.543 229.213C917.119 226.579 909.807 235.663 907.203 240.535C912.669 225.216 914.614 209.915 914.904 204.18C914.683 200 912.831 191.241 907.185 189.645C901.538 188.049 895.219 193.727 892.766 196.766C887.542 203.195 883.985 216.362 882.86 222.141L877.284 206.162C871.468 190.136 863.503 189.826 860.247 191.674C856.349 192.57 848.645 198.351 849.013 214.309C849.38 230.267 865.118 253.76 872.942 263.511Z" fill="#AAFF33"/>
<path d="M1087.64 250.851C1079.13 269.052 1086.67 298.332 1091.5 310.697C1098.6 312.978 1108.32 315.128 1117.61 316.882C1125.82 311.862 1141.96 300.152 1140.78 293.468C1139.6 286.784 1133.74 288.168 1130.96 289.695C1127.15 291.435 1121.43 295.079 1119.05 296.684C1123.04 291.503 1126.47 284.063 1127.69 280.991C1128.56 278.677 1129.61 273.67 1126.93 272.155C1124.25 270.639 1120.17 272.906 1118.46 274.229C1112.84 277.602 1107.97 285.63 1106.23 289.223C1109.4 272.96 1110.3 259.815 1110.36 255.275C1110.53 250.138 1109.14 239.895 1102.16 240.026C1095.18 240.157 1089.57 247.297 1087.64 250.851Z" fill="#BFFF66"/>
<path d="M1115.42 264.329C1115.21 261.184 1115.97 253.885 1120.73 249.847C1125.48 245.809 1127.65 248.299 1128.13 250.049C1129.06 252.712 1127.82 259.297 1115.42 264.329Z" fill="#BFFF66"/>
<path d="M1201.42 332.583C1204.04 339.547 1227.8 343.719 1239.35 344.935C1256.06 341.983 1266.05 332.137 1262.18 323.316C1259.09 316.26 1245.13 322.686 1238.54 326.781C1251.49 311.305 1258.79 289.765 1251.35 283.352C1245.39 278.221 1236.52 280.879 1232.83 282.848C1213.29 293.938 1203.75 320.626 1201.42 332.583Z" fill="#AAFF33"/>
<path d="M1282.48 250.94C1284.46 249.258 1288.3 244.627 1287.8 239.565C1287.11 236.741 1286.94 230.585 1291.8 228.554C1296.67 226.522 1298.31 232.304 1298.53 235.449C1298.71 238.793 1295.74 246.572 1282.48 250.94Z" fill="#AAFF33"/>
<path d="M1287.88 255.094C1290.73 253.168 1297.65 250.792 1302.46 256.693C1304.54 258.753 1307.46 263.5 1302.51 266.01C1297.55 268.52 1295.65 264.054 1295.32 261.507C1294.43 259.68 1291.7 255.839 1287.88 255.094Z" fill="#AAFF33"/>
<path d="M1188.06 194.077C1192.8 186.726 1202.96 174.267 1205.68 183.236C1208.4 192.206 1195.07 194.201 1188.06 194.077Z" fill="#77CC00"/>
<path d="M1180.4 191.965C1181.66 189.729 1183.59 183.898 1181.17 178.463C1179.68 175.484 1177.99 169.28 1183.15 168.298C1188.31 167.317 1189.15 173.604 1188.93 176.87C1188.51 180.098 1186.21 187.636 1180.4 191.965Z" fill="#77CC00"/>
<path d="M1091.45 129.341C1094.45 125.582 1099.91 116.468 1097.68 110.076C1096.78 105.143 1096.57 94.7189 1102.97 92.4885C1110.96 89.7005 1115.65 97.4415 1114.61 102.823C1113.56 108.204 1112.53 116.691 1091.45 129.341Z" fill="#77CC00"/>
<path d="M449.604 141.987C431.24 162.648 457.781 195.177 473.347 208.859C463.948 202.952 445.02 196.565 444.497 218.27C443.973 239.974 471.517 253.152 485.355 257.027C436.605 260.14 393.861 268.305 378.583 271.999C391.215 265.383 410.7 232.033 395.75 216.835C383.79 204.676 372.223 210.984 367.934 215.658C372.784 204.189 372.126 184.364 371.191 175.885C369.799 167.058 364.141 149.053 352.644 147.649C341.146 146.245 335.259 163.098 333.752 171.7C330.391 161.335 328.895 147.769 328.567 142.282C327.418 122.769 339.685 113.744 345.962 111.671C357.163 107.215 371.912 112.689 377.887 115.983C394.092 123.146 407.072 142.584 411.537 151.407C405.417 137.89 398.689 108.883 420.739 101.002C442.788 93.1201 460.546 118.227 466.668 131.766C460.809 132.883 454.952 135.97 449.604 141.987Z" fill="#3C6600"/>
<path fill-rule="evenodd" clip-rule="evenodd" d="M295.328 77.9155C317.503 96.5678 327.674 160.021 329.988 189.415C328.167 180.441 321.251 158.262 308.158 141.338C303.16 134.635 289.131 123.246 273.007 131.314C256.883 139.383 268.264 173.745 275.97 189.918C262.39 175.764 232.706 152.467 222.617 172.508C212.528 192.548 241.33 229.403 256.993 245.326C250.391 244.984 235.854 247.185 230.522 258.719C223.856 273.136 234.743 290.111 254.954 294.154L227.184 297.888C225.56 285.814 217.601 258.612 198.749 246.397C195.178 244.214 186.474 241.041 180.233 245.814C172.43 251.779 178.452 273.71 190.465 289.918C184.127 285.444 170.576 278.211 167.074 285.074C162.696 293.652 172.086 304.067 188.594 307.994C149.019 301.637 132.039 271.346 135.352 245.702C138.002 225.187 154.871 218.698 162.974 218.019C155.978 213.223 145.918 199.047 161.645 180.706C177.371 162.366 206.066 177.397 218.447 187.204C203.443 159.721 215.087 145.453 222.784 141.755C208.01 115.675 186.283 61.3561 217.574 52.7235C248.864 44.091 282.448 65.9213 295.328 77.9155ZM256.439 145.22C253.708 150.504 255.284 156.438 256.414 158.744C250.87 154.081 249.02 146.422 248.789 143.175C248.758 139.902 249.97 133.675 255.059 134.957C260.148 136.239 258.099 142.333 256.439 145.22ZM248.647 160.403C244.345 152.787 234.93 139.753 231.688 148.548C228.445 157.343 241.643 160.116 248.647 160.403Z" fill="#3C6600"/>
<path fill-rule="evenodd" clip-rule="evenodd" d="M329.988 189.415C331.558 182.812 333.152 174.854 333.752 171.7C335.259 163.098 341.146 146.245 352.644 147.649C364.141 149.053 369.799 167.058 371.191 175.885C372.126 184.364 372.784 204.189 367.934 215.658C372.223 210.984 383.79 204.676 395.75 216.835C410.7 232.033 391.215 265.383 378.583 271.999C372.983 274.227 355.19 277.808 346.994 279.319C345.081 280.446 342.001 281.505 338.2 282.485C343.749 270.424 352.989 241.637 345.562 222.968C343.841 219.307 338.659 211.85 331.703 211.311C324.747 210.771 322.751 220.914 322.622 226.053C322.413 230.588 322.545 243.764 324.753 260.184C323.233 256.496 318.839 248.196 313.425 244.498C311.8 243.078 307.858 240.576 305.09 241.932C302.322 243.287 303.084 248.347 303.812 250.708C304.848 253.846 307.841 261.475 311.518 266.881C309.235 265.139 303.743 261.165 300.037 259.205C297.352 257.518 291.589 255.793 290.018 262.396C288.448 268.999 303.866 281.636 311.772 287.128C303.739 288.162 296.034 288.924 290.571 289.365C286.002 291.946 274.581 292.334 269.442 292.206L254.954 294.154C234.743 290.111 223.856 273.136 230.522 258.719C235.854 247.185 250.391 244.984 256.993 245.326C241.33 229.403 212.528 192.548 222.617 172.508C232.706 152.467 262.39 175.764 275.97 189.918C268.264 173.745 256.883 139.383 273.007 131.314C289.131 123.246 303.16 134.635 308.158 141.338C321.251 158.262 328.167 180.441 329.988 189.415ZM312.593 220.026C317.106 224.336 317.436 231.667 317.037 234.794C304.955 229.043 304.102 222.397 305.186 219.793C305.775 218.075 308.08 215.716 312.593 220.026Z" fill="#599900"/>
<path d="M607.71 138.551C624.102 139.788 627.842 155.716 627.663 163.525C628.191 174.763 625.705 188.577 624.396 194.08C619.295 210.991 614.296 221.047 612.434 223.96C601.948 241.964 591.488 246.444 582.711 245.166C573.935 243.887 566.412 247.357 562.79 247.844C562.057 247.943 560.763 248.065 559.149 248.197C567.531 238.921 584.62 216.391 585.922 200.482C587.225 184.573 579.873 178.351 576.035 177.228C572.893 175.192 564.923 175.034 558.178 190.692L551.674 206.317C550.89 200.481 548.111 187.129 543.273 180.404C541.002 177.226 535.027 171.187 529.297 172.449C523.566 173.712 521.204 182.347 520.739 186.507C520.692 192.249 521.736 207.638 526.294 223.251C523.981 218.235 517.213 208.738 508.65 210.873C505.914 211.855 501.983 217.055 508.148 229.993C510.905 235.264 517.697 247.076 522.806 252.157C518.819 253.01 514.888 254.066 511.557 255.348C501.74 259.126 489.999 258.042 485.355 257.027C471.517 253.152 443.973 239.974 444.497 218.27C445.02 196.565 463.948 202.952 473.347 208.859C457.781 195.177 431.24 162.648 449.604 141.987C454.952 135.97 460.809 132.883 466.668 131.766C480.93 129.046 495.21 137.992 502.217 144.746C497.278 133.61 493.871 108.582 492.786 97.4603C492.436 72.923 507.751 65.5373 515.452 64.9115C535.383 63.2149 550.549 74.533 555.64 80.4042C581.586 101.5 583.872 142.576 581.772 160.477C583.588 152.652 591.318 137.313 607.71 138.551Z" fill="#3C6600"/>
<path d="M559.149 248.197C554.376 248.588 546.806 249.071 542.706 249.316C538.548 249.604 530.571 250.495 522.806 252.157C517.697 247.076 510.905 235.264 508.148 229.993C501.983 217.055 505.914 211.855 508.65 210.873C517.213 208.738 523.981 218.235 526.294 223.251C521.736 207.638 520.692 192.249 520.739 186.507C521.204 182.347 523.566 173.712 529.297 172.449C535.027 171.187 541.002 177.226 543.273 180.404C548.111 187.129 550.89 200.481 551.674 206.317L558.178 190.692C564.923 175.034 572.893 175.192 576.035 177.228C579.873 178.351 587.225 184.573 585.922 200.482C584.62 216.391 567.531 238.921 559.149 248.197Z" fill="#77CC00"/>
<path d="M345.562 222.968C352.989 241.637 343.749 270.424 338.2 282.485C330.979 284.346 321.152 285.922 311.772 287.128C303.866 281.636 288.448 268.999 290.018 262.396C291.589 255.793 297.352 257.518 300.037 259.205C303.743 261.165 309.235 265.139 311.518 266.881C307.841 261.475 304.848 253.846 303.812 250.708C303.084 248.347 302.322 243.287 305.09 241.932C307.858 240.576 311.8 243.078 313.425 244.498C318.839 248.196 323.233 256.496 324.753 260.184C322.545 243.764 322.413 230.588 322.622 226.053C322.751 220.914 324.747 210.771 331.703 211.311C338.659 211.85 343.841 219.307 345.562 222.968Z" fill="#BFFF66"/>
<path d="M317.037 234.794C317.436 231.667 317.106 224.336 312.593 220.026C308.08 215.716 305.775 218.075 305.186 219.793C304.102 222.397 304.955 229.043 317.037 234.794Z" fill="#BFFF66"/>
<path d="M227.184 297.888C224.165 304.686 200.199 307.457 188.594 307.994C172.086 304.067 162.696 293.652 167.074 285.074C170.576 278.211 184.127 285.444 190.465 289.918C178.452 273.71 172.43 251.779 180.233 245.814C186.474 241.041 195.178 244.214 198.749 246.397C217.601 258.612 225.56 285.814 227.184 297.888Z" fill="#AAFF33"/>
<path d="M151.052 211.632C149.172 209.836 145.611 204.988 146.41 199.964C147.266 197.185 147.793 191.05 143.057 188.737C138.321 186.424 136.339 192.099 135.94 195.226C135.568 198.554 138.069 206.494 151.052 211.632Z" fill="#AAFF33"/>
<path d="M145.421 215.462C142.682 213.372 135.916 210.594 130.77 216.203C128.572 218.137 125.376 222.705 130.177 225.502C134.978 228.298 137.139 223.951 137.619 221.428C138.61 219.656 141.558 215.981 145.421 215.462Z" fill="#AAFF33"/>
<path d="M248.647 160.403C244.345 152.787 234.93 139.753 231.688 148.548C228.445 157.343 241.643 160.116 248.647 160.403Z" fill="#77CC00"/>
<path d="M256.414 158.744C255.284 156.438 253.708 150.504 256.439 145.22C258.099 142.333 260.148 136.239 255.059 134.957C249.97 133.675 248.758 139.902 248.789 143.175C249.02 146.422 250.87 154.081 256.414 158.744Z" fill="#77CC00"/>
<path d="M348.889 101.444C346.108 97.5157 341.194 88.0968 343.796 81.8468C344.985 76.975 345.799 66.581 339.55 63.9796C331.737 60.7279 326.593 68.18 327.324 73.6133C328.054 79.0466 328.587 87.5794 348.889 101.444Z" fill="#77CC00"/>
<ellipse cx="707.5" cy="569.113" rx="864.5" ry="334.5" fill="#BDFF61"/>
<path d="M302.739 421.323C295.539 467.323 342.739 487.489 367.239 491.823C396.572 499.823 485.239 515.323 605.239 513.323C755.239 510.823 853 481.614 874 465.114C895 448.614 902.5 453.114 943 465.114C983.5 477.114 1041.5 455.439 1041.5 432.613C1041.5 406.404 1023.5 413.613 1020.5 394.113C1017.5 374.613 1156.5 385.113 1104.24 320.323C1072.41 280.86 956 286.613 911.5 286.613C867 286.613 856.739 279.323 792.239 273.322C727.739 267.322 654.5 290.322 632 293.322C609.5 296.322 558.715 279.323 511.239 279.323C423.5 279.323 385.5 306.613 385.5 332.613C385.5 343.291 393.239 350.823 399.739 362.823C412.355 386.113 323.5 362.823 302.739 421.323Z" fill="#41948E"/>
<path fill-rule="evenodd" clip-rule="evenodd" d="M685.378 229.503C687.939 211.576 694.769 209.014 707.574 204.746C711.683 203.376 714.601 201.883 716.632 200.477C716.601 204.319 722.514 214.222 746.418 223.101C754.813 225.804 772.115 236.248 774.164 256.395C774.733 260.948 777.835 273.043 785.689 284.994C787.681 287.661 791.921 294.755 792.945 301.8C759.184 325.914 723.297 333.101 709.282 333.656C703.135 331.265 700.745 325.546 700.318 322.984C699.606 319.712 696.903 311.716 691.781 305.91C686.658 300.105 684.24 295.239 683.67 293.532C672.999 260.664 682.817 247.431 685.378 229.503ZM729.344 223.101C730.368 222.076 731.763 222.105 732.332 222.247C736.174 222.247 745.138 226.515 748.552 231.211C751.284 234.967 748.268 235.622 746.418 235.479C739.588 234.113 733.328 229.503 731.051 227.369C730.055 226.373 728.319 224.125 729.344 223.101ZM735.747 249.139C732.332 245.724 733.755 243.447 734.893 242.736C737.283 241.37 739.019 243.305 739.588 244.443C743.345 250.59 752.821 250.704 757.089 249.992C757.801 249.708 759.394 249.736 760.077 252.127C760.76 254.517 759.224 255.684 758.37 255.968C747.699 258.103 740.015 253.407 735.747 249.139ZM695.196 268.347C702.025 266.64 706.294 257.96 707.574 253.834C707.717 252.98 708.599 251.444 710.989 252.127C713.38 252.81 713.123 255.541 712.697 256.822C709.623 266.384 703.164 271.62 700.318 273.043C694.854 275.774 692.919 274.181 692.634 273.043C691.61 269.969 693.915 268.632 695.196 268.347ZM756.663 261.944C753.589 262.969 749.975 261.802 748.552 261.091C744.455 259.042 743.146 263.367 743.003 265.786C742.662 272.274 745.422 277.88 746.845 279.872C754.358 289.434 761.643 285.848 764.346 282.86C769.468 277.055 767.334 270.481 765.627 267.92C763.919 265.501 759.736 260.92 756.663 261.944ZM701.598 281.153L710.989 272.189C711.701 271.477 713.806 270.567 716.538 272.616C719.27 274.665 721.091 277.453 721.661 278.592C726.1 290.544 721.518 296.662 718.673 298.227C709.111 303.691 702.452 293.958 700.318 288.409C698.61 285.336 700.46 282.291 701.598 281.153ZM725.929 311.033C738.222 287.129 755.524 295.097 762.639 302.069C763.208 302.495 763.919 303.861 762.212 305.91C760.504 307.959 757.801 305.91 756.663 304.63C744.369 294.727 734.466 305.626 731.051 312.313C729.685 316.069 727.636 316.439 726.783 316.155C724.392 315.13 725.218 312.313 725.929 311.033ZM785.689 297.8C784.664 294.385 782.985 294.954 782.274 295.666C780.993 297.8 781.847 299.081 782.701 301.215C783.554 303.349 786.969 302.069 785.689 297.8Z" fill="#97DCF1"/>
<path fill-rule="evenodd" clip-rule="evenodd" d="M667.023 300.361C650.803 269.628 663.608 249.566 671.719 234.199C676.4 225.328 676.029 219.035 674.551 215.417C695.599 202.099 714.158 196.574 720.807 195.477C720.722 196.475 719.666 198.378 716.632 200.477C714.601 201.883 711.683 203.376 707.574 204.746C694.769 209.014 687.939 211.576 685.378 229.503C682.817 247.431 672.999 260.664 683.67 293.532C684.24 295.239 686.658 300.105 691.781 305.91C696.903 311.716 699.606 319.712 700.318 322.984C700.745 325.546 703.135 331.265 709.282 333.656C700.122 334.083 680.923 334.083 677.401 330.668C676.819 328.948 676.724 327.396 676.841 326.399C679.914 318.887 671.576 305.91 667.023 300.361ZM670.438 256.822C668.019 263.652 665.23 280.299 673.426 292.251C672.003 285.848 669.414 269.798 670.438 256.822Z" fill="#54BEE9"/>
<path d="M683.67 337.924C680.056 335.917 678.233 333.122 677.401 330.668C680.923 334.083 700.122 334.083 709.282 333.656C723.297 333.101 759.184 325.914 792.945 301.8C793.8 301.189 794.654 300.567 795.506 299.934C794.809 303.246 795.535 306.415 797.045 309.325C795.613 310.612 793.238 312.379 789.957 314.382C781.632 319.467 767.477 326.077 748.125 330.241L724.649 335.79C723.754 336.034 722.752 336.291 721.661 336.553C714.006 338.388 701.998 340.451 692.507 339.788C692.357 339.777 692.208 339.766 692.059 339.754C688.873 339.5 685.988 338.928 683.67 337.924Z" fill="#31AADC"/>
<path d="M792.091 284.994C797.214 289.775 796.502 296.946 795.506 299.934C794.654 300.567 793.8 301.189 792.945 301.8C791.921 294.755 787.681 287.661 785.689 284.994C777.835 273.043 774.733 260.948 774.164 256.395C772.115 236.248 754.813 225.804 746.418 223.101C722.514 214.222 716.601 204.319 716.632 200.477C719.666 198.378 720.722 196.475 720.807 195.477C721.618 199.77 726.868 206.91 743.857 212.856C769.468 221.82 782.274 241.028 783.554 258.103C784.579 271.762 789.673 281.722 792.091 284.994Z" fill="#D6F4F7"/>
<path fill-rule="evenodd" clip-rule="evenodd" d="M748.552 261.091C749.975 261.802 753.589 262.969 756.663 261.944C759.736 260.92 763.919 265.501 765.627 267.92C767.334 270.481 769.468 277.055 764.346 282.86C761.643 285.848 754.358 289.434 746.845 279.872C745.422 277.88 742.662 272.274 743.003 265.786C743.146 263.367 744.455 259.042 748.552 261.091ZM753.248 267.92C751.54 265.53 749.691 265.786 748.979 266.213C746.247 267.92 747.272 271.477 748.125 273.043C751.54 277.311 755.382 270.908 753.248 267.92Z" fill="#023A68"/>
<path fill-rule="evenodd" clip-rule="evenodd" d="M710.989 272.189L701.598 281.153C700.46 282.291 698.61 285.336 700.318 288.409C702.452 293.958 709.111 303.691 718.673 298.227C721.518 296.662 726.1 290.544 721.661 278.592C721.091 277.453 719.27 274.665 716.538 272.616C713.806 270.567 711.701 271.477 710.989 272.189ZM708.001 286.275C706.294 284.568 707.574 282.149 708.428 281.153C708.997 280.299 710.562 279.189 712.27 281.58C713.977 283.97 712.981 285.706 712.27 286.275C711.558 286.986 709.709 287.982 708.001 286.275Z" fill="#023A68"/>
<path d="M748.979 266.213C749.691 265.786 751.54 265.53 753.248 267.92C755.382 270.908 751.54 277.311 748.125 273.043C747.272 271.477 746.247 267.92 748.979 266.213Z" fill="white"/>
<path d="M708.428 281.153C707.574 282.149 706.294 284.568 708.001 286.275C709.709 287.982 711.558 286.986 712.27 286.275C712.981 285.706 713.977 283.97 712.27 281.58C710.562 279.189 708.997 280.299 708.428 281.153Z" fill="white"/>
<path d="M762.639 302.069C755.524 295.097 738.222 287.129 725.929 311.033C725.218 312.313 724.392 315.13 726.783 316.155C727.636 316.439 729.685 316.069 731.051 312.313C734.466 305.626 744.369 294.727 756.663 304.63C757.801 305.91 760.504 307.959 762.212 305.91C763.919 303.861 763.208 302.495 762.639 302.069Z" fill="#023A68"/>
<path d="M782.274 295.666C782.985 294.954 784.664 294.385 785.689 297.8C786.969 302.069 783.554 303.349 782.701 301.215C781.847 299.081 780.993 297.8 782.274 295.666Z" fill="#D6F4F7"/>
<path d="M732.332 222.247C731.763 222.105 730.368 222.076 729.344 223.101C728.319 224.125 730.055 226.373 731.051 227.369C733.328 229.503 739.588 234.113 746.418 235.479C748.268 235.622 751.284 234.967 748.552 231.211C745.138 226.515 736.174 222.247 732.332 222.247Z" fill="#D6F4F7"/>
<path d="M734.893 242.736C733.755 243.447 732.332 245.724 735.747 249.139C740.015 253.407 747.699 258.103 758.37 255.968C759.224 255.684 760.76 254.517 760.077 252.127C759.394 249.736 757.801 249.708 757.089 249.992C752.821 250.704 743.345 250.59 739.588 244.443C739.019 243.305 737.283 241.37 734.893 242.736Z" fill="#023A68"/>
<path d="M707.574 253.834C706.294 257.96 702.025 266.64 695.196 268.347C693.915 268.632 691.61 269.969 692.634 273.043C692.919 274.181 694.854 275.774 700.318 273.043C703.164 271.62 709.623 266.384 712.697 256.822C713.123 255.541 713.38 252.81 710.989 252.127C708.599 251.444 707.717 252.98 707.574 253.834Z" fill="#023A68"/>
<path d="M670.438 256.822C668.019 263.652 665.23 280.299 673.426 292.251C672.003 285.848 669.414 269.798 670.438 256.822Z" fill="#2BA7DC"/>
<path d="M725.634 187.672C726.556 190.945 722.96 192.714 720.807 193.221C720.661 193.828 720.64 194.592 720.807 195.477C714.158 196.574 695.599 202.099 674.551 215.417C673.981 214.021 673.246 213.023 672.572 212.429C670.91 212.873 669.592 212.968 668.56 212.856C682.425 201.587 712.386 191.371 725.634 187.672Z" fill="#005DAB"/>
<path d="M665.316 210.722C663.95 208.331 665.885 205.742 667.023 204.746C688.537 191.087 711.843 184.257 720.807 182.549C721.234 182.123 722.685 182.293 725.075 186.391C725.338 186.841 725.52 187.268 725.634 187.672C712.386 191.371 682.425 201.587 668.56 212.856C666.414 212.623 665.508 211.491 665.316 210.722Z" fill="#7CD3F5"/>
<path d="M667.023 204.746L659.767 190.66C659.198 189.645 658.776 188.649 658.488 187.672C677.612 167.866 702.307 164.337 712.265 165.048C712.457 165.487 712.6 165.918 712.697 166.329L720.807 182.549C711.843 184.257 688.537 191.087 667.023 204.746Z" fill="#008ADC"/>
<path d="M683.244 162.487C702.304 154.676 710.19 160.326 712.265 165.048C702.307 164.337 677.612 167.866 658.488 187.672C654.796 175.158 672.949 165.787 683.244 162.487Z" fill="#66C3EF"/>
<path fill-rule="evenodd" clip-rule="evenodd" d="M748.125 330.241L724.649 335.79C723.754 336.034 722.752 336.291 721.661 336.553C719.384 338.29 713.721 341.851 709.282 342.193C709.237 342.364 709.191 342.553 709.146 342.757C732.277 346.468 761.993 349.539 782.701 346.613C795.17 344.53 803.77 340.078 808.972 336.128C806.974 330.292 803.524 326.518 799.348 322.984C794.909 319.228 791.238 315.685 789.957 314.382C781.632 319.467 767.477 326.077 748.125 330.241Z" fill="#97DDF0"/>
<path fill-rule="evenodd" clip-rule="evenodd" d="M709.146 342.757C703.047 341.779 697.405 340.756 692.507 339.788C692.357 339.777 692.208 339.766 692.059 339.754C701.617 340.516 713.885 338.417 721.661 336.553C719.384 338.29 713.721 341.851 709.282 342.193C709.237 342.364 709.191 342.553 709.146 342.757Z" fill="#54BEE9"/>
<path fill-rule="evenodd" clip-rule="evenodd" d="M814.469 330.668C813.557 332.054 811.748 334.019 808.972 336.128C806.974 330.292 803.524 326.518 799.348 322.984C794.909 319.228 791.238 315.685 789.957 314.382C793.238 312.379 795.613 310.612 797.045 309.325C799.234 313.543 803.068 317.218 806.605 319.996C810.167 322.796 812.668 326.202 814.469 330.668Z" fill="#D8F3F4"/>
<path d="M681.332 315.192C679.649 309.767 682.875 297.108 684.698 291.457C675.274 298.917 670.394 309.824 669.132 314.345C668.122 319.092 666.187 324.234 665.345 326.212C660.297 335.028 657.071 329.886 656.09 326.212L652.304 312.649C642.88 362.832 614.44 356.164 601.399 346.557C595.677 341.132 588.357 335.819 585.412 333.842C580.027 329.434 577.421 322.963 576.792 320.278C575.694 326.136 575.566 333.128 575.736 337.232C575.924 342.826 577.038 347.115 578.679 350.371C582.909 358.762 590.643 360.307 595.088 359.696C601.819 359.357 608.27 360.968 610.654 361.815C624.117 366.223 636.738 360.544 641.365 357.153C646.75 353.762 655.669 355.175 659.456 356.305C668.543 358.34 674.741 352.632 676.704 349.524C677.485 348.53 678.161 347.388 678.743 346.133C682.934 337.107 682.317 322.262 681.332 315.192Z" fill="#BAD8E0"/>
<path d="M602.24 332.57C608.41 331.44 624.537 326.382 639.682 315.192C638.701 321.691 629.838 334.265 602.24 332.57Z" fill="#BAD8E0"/>
<path fill-rule="evenodd" clip-rule="evenodd" d="M680.911 267.298C671.488 262.551 655.669 280.296 648.938 289.762C641.821 293.825 635.691 296.765 630.427 298.769C627.157 300.013 624.222 300.897 621.592 301.464C598.421 306.463 598.958 286.908 603.502 273.449C597.298 282.052 586.139 301.153 580.364 311.378C578.636 313.118 577.508 316.457 576.792 320.278C577.421 322.963 580.027 329.434 585.412 333.842C588.357 335.819 595.677 341.132 601.399 346.557C614.44 356.164 642.88 362.832 652.304 312.649L656.09 326.212C657.071 329.886 660.297 335.028 665.345 326.212C666.187 324.234 668.122 319.092 669.132 314.345C670.394 309.824 675.274 298.917 684.698 291.457C687.727 275.181 683.436 268.569 680.911 267.298ZM675.021 279.166L658.614 301.205C660.858 301.771 666.607 301.545 671.656 296.119C676.704 290.694 676.003 282.556 675.021 279.166ZM602.24 332.57C608.41 331.44 624.537 326.382 639.682 315.192C638.701 321.691 629.838 334.265 602.24 332.57ZM619.909 311.378L593.405 318.159C595.368 318.583 600.894 319.176 607.288 318.159C613.683 317.142 618.367 313.214 619.909 311.378Z" fill="#F6F6E6"/>
<path d="M593.405 318.159L619.909 311.378C618.367 313.214 613.683 317.142 607.288 318.159C600.894 319.176 595.368 318.583 593.405 318.159Z" fill="#BAD8E0"/>
<path d="M626.22 269.417C619.825 258.906 610.654 265.037 606.868 269.417C606.091 270.051 604.927 271.473 603.502 273.449C598.958 286.908 598.421 306.463 621.592 301.464C617.806 301.237 610.065 297.052 609.392 282.132C609.532 279.589 610.991 275.436 615.702 279.166C618.367 280.79 625.042 286.986 630.427 298.769C635.691 296.765 641.821 293.825 648.938 289.762C639.178 292.135 629.726 277.188 626.22 269.417Z" fill="#7BC5E4"/>
<path d="M609.392 282.132C610.065 297.052 617.806 301.237 621.592 301.464C624.222 300.897 627.157 300.013 630.427 298.769C625.042 286.986 618.367 280.79 615.702 279.166C610.991 275.436 609.532 279.589 609.392 282.132Z" fill="#61A7C3"/>
<path d="M658.614 301.205L675.021 279.166C676.003 282.556 676.704 290.694 671.656 296.119C666.607 301.545 660.858 301.771 658.614 301.205Z" fill="#61A7C3"/>
<path d="M676.704 349.524C674.741 352.632 668.543 358.34 659.456 356.305C655.669 355.175 646.75 353.762 641.365 357.153C636.738 360.544 624.117 366.223 610.654 361.815C608.27 360.968 601.819 359.357 595.088 359.696C590.643 360.307 582.909 358.762 578.679 350.371C567.742 353.338 554.701 360.544 590.04 365.63C613.739 368.032 666.439 370.207 687.643 359.696C695.593 356.023 704.944 348.167 678.743 346.133C678.161 347.388 677.485 348.53 676.704 349.524Z" fill="#57A8A5"/>
<path d="M830.692 317.166C830.282 316.974 829.82 316.874 829.365 316.939C828.91 317.004 828.504 317.223 828.224 317.563C827.944 317.903 827.807 318.343 827.831 318.802C827.855 319.261 828.041 319.695 828.308 320.061C828.308 320.061 828.308 320.061 828.308 320.061C829.071 321.232 829.566 322.534 829.898 323.864C831.157 329.258 830.112 334.745 827.856 339.253C824.914 345.216 818.443 349.206 810.978 351.1C797.042 354.657 783.171 357.971 768.896 359.307C767.279 359.463 765.639 359.6 764 359.738C763.523 359.779 763.066 359.982 762.729 360.329C762.392 360.677 762.202 361.137 762.202 361.613C762.202 362.09 762.392 362.55 762.729 362.897C763.066 363.245 763.523 363.448 764 363.488C765.639 363.628 767.308 363.76 768.971 363.861C783.783 364.811 798.614 362.929 813.022 360.126C822.084 358.414 832.019 353.329 836.788 343.751C840.456 336.534 840.034 327.417 835.196 321.047C833.982 319.475 832.467 318.089 830.692 317.166Z" fill="#57A8A5"/>
<path fill-rule="evenodd" clip-rule="evenodd" d="M829.269 369.931C839.326 351.224 856.765 331.656 881.697 333.444C881.437 337.111 877.315 347.116 862.917 357.802C860.617 359.51 858.61 361.036 856.828 362.391L856.826 362.393C844.663 371.643 842.919 372.97 829.269 369.931Z" fill="#487D76"/>
<path fill-rule="evenodd" clip-rule="evenodd" d="M547.561 400.232C554.343 390.803 572.915 373.359 592.947 379.016C612.98 384.674 619.031 403.375 619.553 412.018C613.293 413.066 596.86 414.847 581.209 413.59C565.559 412.333 552.256 404.161 547.561 400.232ZM582.774 382.945C578.862 380.588 569.472 385.302 566.341 392.374C563.211 398.66 567.907 400.232 572.602 398.66C577.297 397.089 586.687 385.302 582.774 382.945Z" fill="#2C4F42"/>
<path d="M566.341 392.374C569.472 385.302 578.862 380.588 582.774 382.945C586.687 385.302 577.297 397.089 572.602 398.66C567.907 400.232 563.211 398.66 566.341 392.374Z" fill="#487D76"/>
<path d="M510 398.66C515.478 397.089 535.041 410.447 556.169 413.59C577.297 416.733 584.339 418.305 584.339 423.019C584.339 427.734 581.209 431.663 551.474 425.376C527.685 420.348 513.913 405.47 510 398.66Z" fill="#57A8A5"/>
<path d="M594.512 425.376C597.642 419.09 630.508 426.948 639.116 423.019C647.724 419.09 657.114 412.018 652.419 407.304C647.724 402.589 649.289 401.018 654.766 403.375C660.244 405.732 667.287 411.233 656.331 420.662C645.376 430.091 643.914 434.02 617.205 434.02C600.772 434.02 594.512 433.234 594.512 425.376Z" fill="#57A8A5"/>
<path d="M603.12 446.592C608.598 441.877 621.118 443.449 625.03 448.164C628.943 452.878 618.77 452.092 611.728 452.092C604.685 452.092 600.772 449.735 603.12 446.592Z" fill="#57A8A5"/>
<path d="M786.23 461.521C790.925 456.021 798.75 455.235 803.445 458.378C808.14 461.521 803.445 466.236 795.62 466.236C787.795 466.236 784.665 468.593 786.23 461.521Z" fill="#57A8A5"/>
<path d="M808.14 383.732C806.314 386.875 800.315 390.019 813.618 397.876C823.891 403.944 843.354 408.091 853.526 409.662C863.699 411.234 866.047 411.234 867.612 414.377C869.177 417.52 868.394 425.377 855.091 423.02C841.789 420.663 811.27 410.448 803.445 395.518C797.185 383.575 803.967 382.684 808.14 383.732Z" fill="#57A8A5"/>
<path d="M936.474 390.805C932.822 372.732 916.754 335.959 881.697 333.444C881.437 337.111 877.315 347.116 862.917 357.802C860.617 359.51 858.61 361.036 856.828 362.391L856.826 362.393C844.663 371.643 842.919 372.97 829.269 369.931C825.185 377.527 822.318 384.981 820.661 390.805C828.486 401.02 859.004 404.162 887.175 404.162C909.712 404.162 929.431 395.257 936.474 390.805Z" fill="#2C4F42"/>
<path fill-rule="evenodd" clip-rule="evenodd" d="M741.626 410.446C724.724 406.674 706.413 428.781 699.37 440.305C704.848 442.663 720.967 447.535 741.626 448.163C743.434 448.218 745.228 448.242 747 448.237C745.4 448.251 750.576 438.241 753.364 433.234C754.407 427.472 753.52 414.847 741.626 410.446Z" fill="#2C4F42"/>
<path d="M779.97 429.305C768.075 420.505 757.276 428.258 753.364 433.234C750.576 438.241 745.4 448.251 747 448.237C765.472 448.19 781.607 445.122 787.795 443.449C787.795 441.091 786.23 434.963 779.97 429.305Z" fill="#133528"/>
<path d="M736.503 362.694C736.862 362.441 737.191 362.127 737.398 361.74C737.605 361.353 737.674 360.928 737.584 360.527C737.493 360.125 737.247 359.771 736.893 359.511C736.539 359.251 736.108 359.11 735.674 359.037C735.674 359.037 735.674 359.037 735.674 359.037C734.623 358.848 733.545 358.692 732.5 358.558C728.315 358.02 724.324 357.926 720.397 358.307C707.299 359.159 690.698 361.264 684.433 350.92C684.049 350.148 683.745 349.329 683.517 348.416C683.41 347.959 683.161 347.535 682.786 347.241C682.412 346.947 681.946 346.806 681.483 346.851C681.02 346.895 680.59 347.122 680.278 347.482C679.966 347.842 679.803 348.306 679.785 348.775C679.785 348.775 679.785 348.775 679.785 348.775C679.76 349.962 679.851 351.126 680.096 352.316C681.96 361.301 691.353 365.554 698.623 367.186C706.275 368.92 713.907 368.954 721.357 368.26C725.621 367.848 729.78 366.566 733.66 364.445C734.628 363.914 735.599 363.326 736.503 362.694Z" fill="#57A8A5"/>
<path d="M993.5 313.738C993.047 313.824 992.613 314.036 992.293 314.378C991.973 314.72 991.793 315.16 991.793 315.613C991.793 316.067 991.973 316.506 992.293 316.848C992.613 317.191 993.047 317.402 993.5 317.488C993.5 317.488 993.5 317.488 993.5 317.488C995.725 317.905 997.9 318.298 1000.09 318.671C1008.83 320.166 1017.47 321.293 1025.97 322.37C1032.66 323.236 1039.33 324.412 1045.34 326.459C1051.33 328.445 1056.66 331.914 1056.55 335.613C1057 336.314 1054.2 339.768 1051.09 341.809C1047.92 344.051 1044.3 346.015 1040.59 347.826C1033.14 351.434 1025.27 354.491 1017.3 357.244C1015.23 357.955 1013.15 358.641 1011.06 359.291C1010.6 359.434 1010.2 359.739 1009.95 360.158C1009.7 360.577 1009.62 361.073 1009.73 361.541C1009.85 362.01 1010.14 362.416 1010.56 362.674C1010.97 362.933 1011.47 363.019 1011.94 362.936C1014.15 362.543 1016.34 362.106 1018.52 361.633C1026.94 359.789 1035.25 357.505 1043.43 354.372C1047.52 352.783 1051.58 351.004 1055.54 348.595C1059.19 345.96 1064.47 343.809 1065.45 335.613C1065.66 330.467 1062.46 325.69 1059.15 323.073C1055.79 320.328 1052.21 318.673 1048.64 317.313C1041.53 314.689 1034.36 313.382 1027.24 312.45C1018.2 311.307 1009.14 311.504 1000.19 312.672C997.957 312.965 995.746 313.322 993.5 313.738Z" fill="#57A8A5"/>
<path d="M447.851 399.284C448.204 398.994 448.489 398.61 448.615 398.162C448.742 397.716 448.702 397.248 448.499 396.849C448.296 396.451 447.941 396.144 447.505 395.984C447.069 395.823 446.591 395.827 446.149 395.943C446.149 395.943 446.149 395.943 446.149 395.943C444.293 396.42 442.458 396.84 440.631 397.218C433.319 398.732 426.146 399.607 418.819 400.514C402.992 402.746 386.575 400.667 368.964 405.281C357.991 408.748 349.294 416.25 343.044 424.981C341.887 426.628 340.814 428.321 339.884 430.163C339.671 430.594 339.612 431.093 339.74 431.562C339.868 432.03 340.17 432.429 340.583 432.672C340.996 432.915 341.491 432.985 341.963 432.869C342.436 432.754 342.843 432.46 343.116 432.064C343.116 432.064 343.116 432.064 343.116 432.064C344.14 430.607 345.338 429.19 346.59 427.841C353.377 420.616 361.949 414.959 371.036 412.945C385.848 410.217 403.043 412.726 420.043 410.439C427.956 409.472 435.931 407.038 442.88 402.781C444.611 401.722 446.273 400.556 447.851 399.284Z" fill="#57A8A5"/>
<path d="M519.5 309.488C519.96 309.415 520.4 309.206 520.725 308.862C521.05 308.519 521.232 308.073 521.232 307.613C521.232 307.153 521.05 306.708 520.725 306.364C520.4 306.02 519.96 305.812 519.5 305.738C519.5 305.738 519.5 305.738 519.5 305.738C516.901 305.322 514.252 304.947 511.62 304.619C501.096 303.308 490.504 302.745 479.889 303.189C469.168 303.655 458.399 304.464 447.62 306.378C437.202 308.985 424.604 309.15 416.733 322.515C414.484 327.897 416.586 333.6 419.054 337.153C421.588 340.889 424.682 343.725 427.865 346.286C434.278 351.35 441.222 355.244 448.37 358.639C450.79 359.777 453.249 360.849 455.726 361.821C456.178 361.997 456.683 362.007 457.14 361.83C457.596 361.653 457.963 361.308 458.163 360.867C458.363 360.427 458.381 359.923 458.213 359.463C458.045 359.004 457.705 358.629 457.275 358.406C457.275 358.406 457.275 358.406 457.275 358.406C454.998 357.22 452.73 355.943 450.508 354.616C443.952 350.676 437.61 346.306 432.176 341.271C426.877 336.493 422.006 329.495 424.268 325.712C434.276 314.217 460.548 314.541 480.309 313.18C490.7 312.745 501.141 311.974 511.632 310.619C514.255 310.28 516.901 309.905 519.5 309.488Z" fill="#57A8A5"/>
<path d="M847.331 295.268C846.878 295.295 846.423 295.432 846.056 295.712C845.689 295.991 845.44 296.383 845.362 296.819C845.284 297.255 845.38 297.709 845.627 298.099C845.874 298.489 846.253 298.776 846.669 298.959C846.669 298.959 846.669 298.959 846.669 298.959C848.312 299.677 849.962 300.355 851.62 300.991C858.251 303.537 864.999 305.426 871.866 306.66C895.899 310.976 920.093 314.4 944.447 316.93C946.187 317.111 947.927 317.287 949.669 317.459C950.146 317.506 950.633 317.387 951.027 317.105C951.421 316.822 951.689 316.402 951.773 315.932C951.858 315.462 951.753 314.974 951.481 314.573C951.21 314.17 950.795 313.89 950.331 313.768C948.639 313.323 946.946 312.882 945.253 312.446C921.54 306.343 897.667 301.134 873.634 296.817C866.767 295.584 859.783 295.007 852.68 295.086C850.905 295.105 849.122 295.166 847.331 295.268Z" fill="#57A8A5"/>
<path d="M897.38 422.492C885.853 421.771 918.991 470.272 937.001 494.613L977.523 489.205C991.931 460.356 1018.41 401.757 1009.04 398.151C999.676 394.545 977.523 432.108 967.618 451.341C970.62 426.098 974.822 375.613 967.618 375.613C960.414 375.613 953.21 418.285 950.509 439.622C942.104 420.089 923.674 381.383 917.19 382.826C910.707 384.268 927.696 432.71 937.001 456.75C928.597 445.631 908.906 423.213 897.38 422.492Z" fill="#77CC00"/>
</svg>
