<svg width="1440" height="480" viewBox="0 0 1440 480" fill="none" xmlns="http://www.w3.org/2000/svg">
<path d="M988.526 164.294C1005.65 185.997 977.245 216.914 960.903 229.659C970.632 224.314 989.902 219.048 989.152 240.746C988.402 262.443 960.132 273.983 946.091 277.04C994.574 283.007 1036.77 293.665 1051.8 298.247C1039.58 290.903 1022.08 256.467 1037.9 242.171C1050.55 230.735 1061.73 237.71 1065.74 242.628C1061.57 230.894 1063.39 211.142 1064.82 202.733C1066.72 194.003 1073.43 176.36 1084.99 175.633C1096.55 174.905 1101.44 192.075 1102.44 200.75C1106.4 190.6 1108.69 177.145 1109.34 171.687C1111.63 152.275 1099.91 142.546 1093.77 140.109C1082.85 135.003 1067.8 139.603 1061.65 142.541C1045.05 148.741 1030.95 167.385 1025.98 175.931C1032.88 162.796 1041.3 134.234 1019.75 125.073C998.197 115.912 978.997 139.934 972.091 153.09C977.875 154.549 983.541 157.974 988.526 164.294Z" fill="#3C6600"/>
<path fill-rule="evenodd" clip-rule="evenodd" d="M1146.29 109.38C1123.06 126.7 1109.19 189.447 1105.16 218.656C1107.5 209.804 1115.7 188.068 1129.77 171.942C1135.15 165.543 1149.82 154.996 1165.45 163.996C1181.07 172.996 1167.69 206.632 1159.05 222.325C1173.44 208.992 1204.44 187.476 1213.33 208.074C1222.23 228.671 1191.32 263.774 1174.75 278.751C1181.36 278.797 1195.74 281.846 1200.39 293.673C1206.2 308.457 1194.33 324.763 1173.92 327.614L1201.42 332.97C1203.75 321.012 1213.29 294.324 1232.83 283.235C1236.52 281.265 1245.39 278.608 1251.35 283.739C1258.79 290.152 1251.49 311.692 1238.54 327.168C1245.13 323.073 1259.09 316.647 1262.18 323.703C1266.05 332.524 1256.06 342.37 1239.35 345.321C1279.23 341.297 1297.96 312.054 1296.16 286.26C1294.71 265.624 1278.25 258.157 1270.2 257.004C1277.47 252.626 1288.34 239.064 1273.72 219.834C1259.1 200.603 1229.57 213.925 1216.63 222.99C1233.22 196.433 1222.44 181.507 1214.97 177.364C1231.25 152.195 1256.12 99.2439 1225.39 88.7913C1194.66 78.3387 1159.86 98.1621 1146.29 109.38ZM1181.17 178.849C1183.59 184.284 1181.66 190.116 1180.4 192.352C1186.21 188.022 1188.51 180.485 1188.93 177.257C1189.15 173.991 1188.31 167.703 1183.15 168.685C1177.99 169.667 1179.68 175.87 1181.17 178.849ZM1188.06 194.464C1192.8 187.113 1202.96 174.653 1205.68 183.623C1208.4 192.593 1195.07 194.588 1188.06 194.464Z" fill="#3C6600"/>
<path fill-rule="evenodd" clip-rule="evenodd" d="M1105.16 218.656C1103.98 211.972 1102.85 203.934 1102.44 200.75C1101.44 192.075 1096.55 174.905 1084.99 175.633C1073.43 176.36 1066.72 194.003 1064.82 202.733C1063.39 211.142 1061.57 230.894 1065.74 242.628C1061.73 237.71 1050.55 230.735 1037.9 242.171C1022.08 256.467 1039.58 290.903 1051.8 298.247C1057.26 300.8 1074.81 305.418 1082.91 307.408C1084.75 308.644 1087.76 309.882 1091.5 311.083C1086.67 298.719 1079.13 269.439 1087.64 251.238C1089.57 247.684 1095.18 240.544 1102.16 240.413C1109.14 240.282 1110.53 250.525 1110.36 255.662C1110.3 260.202 1109.4 273.347 1106.23 289.61C1107.97 286.017 1112.84 277.989 1118.46 274.615C1120.17 273.293 1124.25 271.026 1126.93 272.542C1129.61 274.057 1128.56 279.064 1127.69 281.378C1126.47 284.45 1123.04 291.89 1119.05 297.071C1121.43 295.466 1127.15 291.821 1130.96 290.082C1133.74 288.555 1139.6 287.171 1140.78 293.855C1141.96 300.539 1125.82 312.249 1117.61 317.269C1125.57 318.771 1133.22 319.985 1138.64 320.744C1143.05 323.589 1154.43 324.646 1159.57 324.82L1173.92 327.614C1194.33 324.763 1206.2 308.457 1200.39 293.673C1195.74 281.846 1181.36 278.797 1174.75 278.751C1191.32 263.774 1222.23 228.671 1213.33 208.074C1204.44 187.476 1173.44 208.992 1159.05 222.325C1167.69 206.632 1181.07 172.996 1165.45 163.996C1149.82 154.996 1135.15 165.543 1129.77 171.942C1115.7 188.068 1107.5 209.804 1105.16 218.656ZM1120.73 250.234C1115.97 254.272 1115.21 261.571 1115.42 264.716C1127.82 259.683 1129.06 253.099 1128.13 250.435C1127.65 248.686 1125.48 246.196 1120.73 250.234Z" fill="#599900"/>
<path d="M830.894 151.593C814.458 151.867 809.79 167.548 809.511 175.354C808.325 186.542 809.997 200.478 810.981 206.048C815.081 223.23 819.482 233.561 821.17 236.578C830.582 255.166 840.762 260.252 849.598 259.49C858.434 258.729 865.741 262.634 869.328 263.333C870.053 263.474 871.338 263.671 872.942 263.898C865.118 254.146 849.38 230.654 849.013 214.696C848.645 198.738 856.349 192.957 860.247 192.061C863.503 190.213 871.468 190.523 877.284 206.549L882.86 222.528C883.985 216.749 887.542 203.582 892.766 197.152C895.219 194.114 901.538 188.435 907.185 190.031C912.831 191.627 914.683 200.386 914.904 204.566C914.614 210.302 912.669 225.603 907.203 240.921C909.807 236.05 917.119 226.966 925.543 229.599C928.217 230.741 931.836 236.162 924.923 248.716C921.861 253.816 914.388 265.21 908.991 269.982C912.921 271.068 916.783 272.353 920.033 273.827C929.611 278.175 941.396 277.781 946.091 277.04C960.132 273.983 988.402 262.443 989.152 240.746C989.902 219.048 970.632 224.314 960.903 229.659C977.245 216.914 1005.65 185.997 988.526 164.294C983.541 157.974 977.875 154.549 972.091 153.09C958.013 149.539 943.234 157.632 935.843 163.963C941.426 153.136 946.294 128.351 948.03 117.312C949.818 92.8378 934.963 84.5667 927.312 83.4905C907.515 80.628 891.711 91.0373 886.284 96.5998C859.146 116.137 854.455 157.009 855.502 175.002C854.148 167.085 847.33 151.318 830.894 151.593Z" fill="#77CC00"/>
<path d="M872.942 263.898C877.684 264.568 885.212 265.494 889.292 265.979C893.425 266.511 901.336 267.868 908.991 269.982C914.388 265.21 921.861 253.816 924.923 248.716C931.836 236.162 928.217 230.741 925.543 229.599C917.119 226.966 909.807 236.05 907.203 240.921C912.669 225.603 914.614 210.302 914.904 204.566C914.683 200.386 912.831 191.627 907.185 190.031C901.538 188.435 895.219 194.114 892.766 197.152C887.542 203.582 883.985 216.749 882.86 222.528L877.284 206.549C871.468 190.523 863.503 190.213 860.247 192.061C856.349 192.957 848.645 198.738 849.013 214.696C849.38 230.654 865.118 254.146 872.942 263.898Z" fill="#AAFF33"/>
<path d="M1087.64 251.238C1079.13 269.439 1086.67 298.719 1091.5 311.083C1098.6 313.365 1108.32 315.514 1117.61 317.269C1125.82 312.249 1141.96 300.539 1140.78 293.855C1139.6 287.171 1133.74 288.555 1130.96 290.082C1127.15 291.821 1121.43 295.466 1119.05 297.071C1123.04 291.89 1126.47 284.45 1127.69 281.378C1128.56 279.064 1129.61 274.057 1126.93 272.542C1124.25 271.026 1120.17 273.293 1118.46 274.615C1112.84 277.989 1107.97 286.017 1106.23 289.61C1109.4 273.347 1110.3 260.202 1110.36 255.662C1110.53 250.525 1109.14 240.282 1102.16 240.413C1095.18 240.544 1089.57 247.684 1087.64 251.238Z" fill="#BFFF66"/>
<path d="M1115.42 264.716C1115.21 261.571 1115.97 254.272 1120.73 250.234C1125.48 246.196 1127.65 248.686 1128.13 250.435C1129.06 253.099 1127.82 259.683 1115.42 264.716Z" fill="#BFFF66"/>
<path d="M1201.42 332.97C1204.04 339.933 1227.8 344.106 1239.35 345.321C1256.06 342.37 1266.05 332.524 1262.18 323.703C1259.09 316.647 1245.13 323.073 1238.54 327.168C1251.49 311.692 1258.79 290.152 1251.35 283.739C1245.39 278.608 1236.52 281.265 1232.83 283.235C1213.29 294.324 1203.75 321.012 1201.42 332.97Z" fill="#AAFF33"/>
<path d="M1282.48 251.327C1284.46 249.644 1288.3 245.014 1287.8 239.951C1287.11 237.127 1286.94 230.972 1291.8 228.941C1296.67 226.909 1298.31 232.691 1298.53 235.835C1298.71 239.179 1295.74 246.959 1282.48 251.327Z" fill="#AAFF33"/>
<path d="M1287.88 255.481C1290.73 253.555 1297.65 251.178 1302.46 257.079C1304.54 259.139 1307.46 263.887 1302.51 266.397C1297.55 268.907 1295.65 264.441 1295.32 261.894C1294.43 260.067 1291.7 256.226 1287.88 255.481Z" fill="#AAFF33"/>
<path d="M1188.06 194.464C1192.8 187.113 1202.96 174.653 1205.68 183.623C1208.4 192.593 1195.07 194.588 1188.06 194.464Z" fill="#77CC00"/>
<path d="M1180.4 192.352C1181.66 190.116 1183.59 184.284 1181.17 178.849C1179.68 175.87 1177.99 169.667 1183.15 168.685C1188.31 167.703 1189.15 173.991 1188.93 177.257C1188.51 180.485 1186.21 188.022 1180.4 192.352Z" fill="#77CC00"/>
<path d="M1091.45 129.727C1094.45 125.969 1099.91 116.854 1097.68 110.463C1096.78 105.53 1096.57 95.1056 1102.97 92.8752C1110.96 90.0872 1115.65 97.8282 1114.61 103.209C1113.56 108.59 1112.53 117.077 1091.45 129.727Z" fill="#77CC00"/>
<path d="M379.889 153.272C362.882 174.104 390.007 204.64 405.695 217.304C396.319 211.946 377.66 206.51 378.036 227.628C378.413 248.746 405.724 260.431 419.333 263.634C372.074 268.649 330.86 278.329 316.16 282.542C328.169 275.597 345.748 242.385 330.596 228.222C318.474 216.891 307.489 223.495 303.511 228.213C307.757 216.867 306.309 197.624 305.054 189.421C303.341 180.898 297.106 163.627 285.873 162.732C274.641 161.836 269.605 178.458 268.492 186.881C264.803 176.943 262.795 163.818 262.252 158.497C260.339 139.577 271.894 130.305 277.911 128.034C288.617 123.245 303.176 127.964 309.118 130.922C325.162 137.223 338.572 155.588 343.271 163.982C336.771 151.092 329.048 123.173 350.159 114.612C371.27 106.051 389.555 129.731 396.058 142.641C390.408 143.966 384.842 147.205 379.889 153.272Z" fill="#3C6600"/>
<path fill-rule="evenodd" clip-rule="evenodd" d="M227.317 97.2888C249.633 114.514 262.108 175.776 265.556 204.253C263.419 195.605 255.792 174.329 242.376 158.413C237.244 152.101 223.143 141.603 207.8 150.104C192.456 158.604 204.921 191.54 213.071 206.946C199.293 193.743 169.49 172.309 160.501 192.2C151.512 212.091 181.012 246.739 196.885 261.577C190.454 261.514 176.414 264.246 171.702 275.675C165.811 289.961 177.085 306.016 196.895 309.121L170.055 313.884C167.985 302.214 159.138 276.099 140.316 264.994C136.755 263.018 128.166 260.289 122.294 265.183C114.953 271.3 121.701 292.371 134.039 307.636C127.696 303.545 114.229 297.067 111.105 303.881C107.199 312.398 116.752 322.138 132.957 325.281C94.2312 320.718 76.4909 291.967 78.6644 266.906C80.4031 246.857 96.5353 239.862 104.384 238.87C97.3885 234.494 87.0317 221.125 101.569 202.657C116.107 184.188 144.612 197.627 157.047 206.655C141.342 180.553 152.078 166.21 159.409 162.301C143.984 137.554 120.649 85.6419 150.711 75.9744C180.774 66.3068 214.308 86.1558 227.317 97.2888ZM192.262 164.296C189.823 169.543 191.598 175.247 192.79 177.443C187.211 173.137 185.101 165.767 184.743 162.621C184.58 159.44 185.503 153.338 190.502 154.377C195.502 155.416 193.759 161.422 192.262 164.296ZM185.308 179.372C180.816 172.145 171.133 159.86 168.34 168.541C165.547 177.221 178.488 179.379 185.308 179.372Z" fill="#3C6600"/>
<path fill-rule="evenodd" clip-rule="evenodd" d="M265.556 204.253C266.813 197.771 268.037 189.971 268.492 186.881C269.605 178.458 274.641 161.836 285.873 162.732C297.106 163.627 303.341 180.898 305.054 189.421C306.309 197.624 307.757 216.867 303.511 228.213C307.489 223.495 318.474 216.891 330.596 228.222C345.748 242.385 328.169 275.597 316.16 282.542C310.807 284.937 293.659 289.143 285.754 290.947C283.941 292.12 280.99 293.275 277.335 294.382C282.237 282.433 290.044 254.075 282.063 236.232C280.241 232.743 274.9 225.707 268.116 225.466C261.333 225.225 259.806 235.165 259.891 240.166C259.872 244.583 260.539 257.384 263.355 273.255C261.727 269.732 257.117 261.843 251.704 258.47C250.066 257.156 246.133 254.885 243.498 256.315C240.863 257.746 241.81 262.633 242.613 264.898C243.749 267.907 246.969 275.199 250.763 280.304C248.473 278.704 242.973 275.066 239.291 273.312C236.612 271.781 230.94 270.34 229.683 276.822C228.425 283.305 243.928 294.958 251.837 299.975C244.071 301.307 236.612 302.362 231.321 303.013C226.984 305.708 215.899 306.552 210.899 306.637L196.895 309.121C177.085 306.016 165.811 289.961 171.702 275.675C176.414 264.246 190.454 261.514 196.885 261.577C181.012 246.739 151.512 212.091 160.501 192.2C169.49 172.309 199.293 193.743 213.071 206.946C204.921 191.54 192.456 158.604 207.8 150.104C223.143 141.603 237.244 152.101 242.376 158.413C255.792 174.329 263.419 195.605 265.556 204.253ZM249.897 234.717C254.459 238.722 255.079 245.835 254.819 248.89C242.84 243.793 241.741 237.368 242.688 234.793C243.19 233.099 245.334 230.712 249.897 234.717Z" fill="#599900"/>
<path d="M533.429 143.481C549.413 144.016 553.698 159.345 553.842 166.943C554.814 177.844 552.961 191.374 551.913 196.776C547.645 213.422 543.196 223.399 541.505 226.307C532.048 244.236 522.063 249.017 513.48 248.132C504.897 247.248 497.726 250.927 494.225 251.549C493.517 251.674 492.264 251.845 490.701 252.04C498.469 242.681 514.161 220.085 514.778 204.569C515.395 189.052 507.995 183.303 504.218 182.368C501.081 180.517 493.328 180.69 487.41 196.184L481.726 211.637C480.726 205.997 477.48 193.131 472.503 186.792C470.166 183.796 464.112 178.17 458.594 179.631C453.075 181.091 451.131 189.581 450.849 193.644C451.037 199.227 452.68 214.143 457.748 229.132C455.294 224.352 448.329 215.396 440.092 217.821C437.473 218.887 433.864 224.102 440.384 236.426C443.28 241.437 450.363 252.641 455.536 257.372C451.696 258.364 447.918 259.551 444.733 260.932C435.344 265.006 423.888 264.43 419.333 263.634C405.724 260.431 378.413 248.746 378.036 227.628C377.66 206.51 396.319 211.946 405.695 217.304C390.007 204.64 362.882 174.104 379.889 153.272C384.842 147.205 390.408 143.966 396.058 142.641C409.81 139.415 424.055 147.528 431.141 153.807C425.886 143.184 421.554 118.996 420.045 108.23C418.704 84.3941 433.289 76.5902 440.748 75.6678C460.052 73.2055 475.256 83.588 480.444 89.0871C506.524 108.533 510.422 148.366 509.112 165.852C510.558 158.172 517.446 142.947 533.429 143.481Z" fill="#3C6600"/>
<path d="M490.701 252.04C486.077 252.614 478.739 253.393 474.763 253.798C470.734 254.248 463.017 255.44 455.536 257.372C450.363 252.641 443.28 241.437 440.384 236.426C433.864 224.102 437.473 218.887 440.092 217.821C448.329 215.396 455.294 224.352 457.748 229.132C452.68 214.143 451.037 199.227 450.849 193.644C451.131 189.581 453.075 181.091 458.594 179.631C464.112 178.17 470.166 183.796 472.503 186.792C477.48 193.131 480.726 205.997 481.726 211.637L487.41 196.184C493.328 180.69 501.081 180.517 504.218 182.368C507.995 183.303 515.395 189.052 514.778 204.569C514.161 220.085 498.469 242.681 490.701 252.04Z" fill="#77CC00"/>
<path d="M282.063 236.232C290.044 254.075 282.237 282.433 277.335 294.382C270.392 296.486 260.905 298.419 251.837 299.975C243.928 294.958 228.425 283.305 229.683 276.822C230.94 270.34 236.612 271.781 239.291 273.312C242.973 275.066 248.473 278.704 250.763 280.304C246.969 275.199 243.749 267.907 242.613 264.898C241.81 262.633 240.863 257.746 243.498 256.315C246.133 254.885 250.066 257.156 251.704 258.47C257.117 261.843 261.727 269.732 263.355 273.255C260.539 257.384 259.872 244.583 259.891 240.166C259.806 235.165 261.333 225.225 268.116 225.466C274.9 225.707 280.241 232.743 282.063 236.232Z" fill="#BFFF66"/>
<path d="M254.819 248.89C255.079 245.835 254.459 238.722 249.897 234.717C245.334 230.712 243.19 233.099 242.688 234.793C241.741 237.368 242.84 243.793 254.819 248.89Z" fill="#BFFF66"/>
<path d="M170.055 313.884C167.398 320.615 144.216 324.287 132.957 325.281C116.752 322.138 107.199 312.398 111.105 303.881C114.229 297.067 127.696 303.545 134.039 307.636C121.701 292.371 114.953 271.3 122.294 265.183C128.166 260.289 136.755 263.018 140.316 264.994C159.138 276.099 167.985 302.214 170.055 313.884Z" fill="#AAFF33"/>
<path d="M92.5355 233.148C90.6345 231.48 86.9754 226.913 87.5475 221.997C88.2658 219.261 88.5279 213.276 83.8299 211.221C79.1319 209.166 77.4368 214.763 77.1765 217.818C76.9507 221.068 79.7064 228.684 92.5355 233.148Z" fill="#AAFF33"/>
<path d="M87.2184 237.101C84.4704 235.181 77.781 232.757 73.0078 238.419C70.95 240.389 68.0295 244.96 72.8104 247.482C77.5912 250.004 79.5141 245.69 79.8779 243.218C80.7688 241.455 83.4841 237.764 87.2184 237.101Z" fill="#AAFF33"/>
<path d="M185.308 179.372C180.816 172.145 171.133 159.86 168.34 168.541C165.547 177.221 178.488 179.379 185.308 179.372Z" fill="#77CC00"/>
<path d="M192.79 177.443C191.598 175.247 189.823 169.543 192.262 164.296C193.759 161.422 195.502 155.416 190.502 154.377C185.503 153.338 184.58 159.44 184.743 162.621C185.101 165.767 187.211 173.137 192.79 177.443Z" fill="#77CC00"/>
<path d="M280.339 117.973C277.475 114.268 272.315 105.314 274.588 99.1325C275.545 94.3486 275.913 84.2123 269.732 81.9388C262.006 79.0968 257.31 86.5502 258.241 91.8016C259.173 97.053 260.039 105.325 280.339 117.973Z" fill="#77CC00"/>
<ellipse cx="707.5" cy="569.5" rx="864.5" ry="334.5" fill="#BDFF61"/>
<path fill-rule="evenodd" clip-rule="evenodd" d="M961.65 192.394C965.317 188.561 972.85 183.894 973.65 195.894C975.15 192.736 977.85 184.916 976.65 178.907C975.762 178.017 974.766 177.333 973.65 176.894C962.45 172.494 950.983 185.394 946.65 192.394C936.15 214.228 914.35 261.194 911.15 274.394C907.95 287.594 907.483 298.561 907.65 302.394C908.208 306.751 909.872 310.299 912.15 313.165C912.774 313.95 913.444 314.683 914.15 315.369C938.15 312.548 953.483 318.544 958.15 321.895C962.95 325.495 971.817 327.061 975.65 327.395C1010.45 331.395 1020.15 269.395 1020.65 237.895C1020.65 233.061 1022.55 221.195 1030.15 212.395C1032.98 209.061 1038.85 204.995 1039.65 215.395C1041.98 214.693 1045.95 210.102 1043.15 197.343C1041.89 196.555 1040.68 196.094 1039.65 195.894C1025.65 189.494 1009.15 219.894 1002.65 235.894C996.25 250.294 975.983 246.228 966.65 242.394C952.25 236.794 950.381 228.061 951.246 224.394C950.568 222.149 950.308 218.76 950.65 213.894C951.65 210.061 955.25 200.394 961.65 192.394ZM936.65 269.395C939.65 285.395 955.65 308.095 995.65 270.895C976.983 292.728 939.05 322.995 936.65 269.395Z" fill="#8BD5EA"/>
<path d="M936.65 269.395C939.65 285.395 955.65 308.095 995.65 270.895C976.983 292.728 939.05 322.995 936.65 269.395Z" fill="#4FBBE6"/>
<path fill-rule="evenodd" clip-rule="evenodd" d="M1049.15 252.394L1052.15 226.894C1054.07 208.958 1048.21 200.51 1043.15 197.343C1045.95 210.102 1041.98 214.693 1039.65 215.395C1039.98 221.061 1039.05 234.895 1032.65 244.895C1029.32 249.728 1022.25 255.095 1020.65 237.895C1020.15 269.395 1010.45 331.395 975.65 327.395C971.817 327.061 962.95 325.495 958.15 321.895C953.483 318.544 938.15 312.548 914.15 315.369C920.098 321.14 928.603 323.465 933.65 323.894C940.983 324.561 958.65 327.794 970.65 335.394C982.65 342.994 997.65 340.561 1003.65 338.394C1008.85 335.594 1016.15 333.894 1019.15 333.394C1031.59 331.497 1038.34 324.977 1041.95 317.395C1046.9 306.996 1045.94 294.599 1045.65 289.394C1045.25 282.194 1047.82 261.728 1049.15 252.394ZM1030.15 270.895C1030.82 282.228 1028.85 308.694 1015.65 323.894C1019.65 315.728 1028.15 293.695 1030.15 270.895Z" fill="#41AEDA"/>
<path d="M973.65 195.894C972.983 201.561 970.65 214.194 966.65 219.394C961.93 225.425 953.746 232.672 951.246 224.394C950.381 228.061 952.25 236.794 966.65 242.394C975.983 246.228 996.25 250.294 1002.65 235.894C984.65 241.094 981.483 230.394 982.15 224.394C983.801 211.79 984.668 186.945 976.65 178.907C977.85 184.916 975.15 192.736 973.65 195.894Z" fill="#35A4D6"/>
<path d="M1030.15 270.895C1030.82 282.228 1028.85 308.694 1015.65 323.894C1019.65 315.728 1028.15 293.695 1030.15 270.895Z" fill="#1E96CC"/>
<path d="M1019.15 333.394C1016.15 333.894 1008.85 335.594 1003.65 338.394C997.65 340.561 982.65 342.994 970.65 335.394C958.65 327.794 940.983 324.561 933.65 323.894C928.603 323.465 920.098 321.14 914.15 315.369C913.444 314.683 912.774 313.95 912.15 313.165C902.817 314.908 890.65 320.195 916.65 327.395L958.15 338.394C968.317 341.728 993.45 347.395 1012.65 343.395L1043.15 338.394C1063.35 335.561 1091.39 327.395 1041.95 317.395C1038.34 324.977 1031.59 331.497 1019.15 333.394Z" fill="#77CC00"/>
<path d="M372.882 281.847C370.882 275.447 374.716 260.513 376.882 253.847C365.682 262.647 359.882 275.513 358.382 280.847C357.182 286.447 354.882 292.513 353.882 294.847C347.882 305.247 344.049 299.18 342.882 294.847L338.382 278.847C327.182 338.047 293.382 330.18 277.882 318.847C271.082 312.447 262.382 306.18 258.882 303.847C252.482 298.647 249.386 291.013 248.637 287.847C247.333 294.757 247.181 303.005 247.382 307.847C247.606 314.446 248.93 319.505 250.881 323.347C255.908 333.245 265.1 335.067 270.382 334.347C278.382 333.947 286.049 335.847 288.882 336.847C304.882 342.047 319.882 335.347 325.382 331.347C331.782 327.347 342.382 329.013 346.882 330.347C357.682 332.747 365.049 326.013 367.382 322.347C368.31 321.175 369.113 319.827 369.806 318.347C374.787 307.699 374.053 290.187 372.882 281.847Z" fill="#BAD8E0"/>
<path d="M278.882 302.347C286.216 301.013 305.382 295.047 323.382 281.847C322.216 289.513 311.682 304.347 278.882 302.347Z" fill="#BAD8E0"/>
<path fill-rule="evenodd" clip-rule="evenodd" d="M372.382 225.347C361.182 219.747 342.382 240.68 334.382 251.847C325.924 256.64 318.638 260.108 312.382 262.472C308.497 263.94 305.008 264.983 301.882 265.652C274.343 271.549 274.982 248.481 280.382 232.603C273.009 242.751 259.746 265.284 252.882 277.347C250.829 279.4 249.488 283.339 248.637 287.847C249.386 291.013 252.482 298.647 258.882 303.847C262.382 306.18 271.082 312.447 277.882 318.847C293.382 330.18 327.182 338.047 338.382 278.847L342.882 294.847C344.049 299.18 347.882 305.247 353.882 294.847C354.882 292.513 357.182 286.447 358.382 280.847C359.882 275.513 365.682 262.647 376.882 253.847C380.482 234.647 375.382 226.847 372.382 225.347ZM365.382 239.347L345.882 265.347C348.549 266.013 355.382 265.747 361.382 259.347C367.382 252.947 366.549 243.347 365.382 239.347ZM278.882 302.347C286.216 301.013 305.382 295.047 323.382 281.847C322.216 289.513 311.682 304.347 278.882 302.347ZM299.882 277.347L268.382 285.347C270.716 285.847 277.282 286.547 284.882 285.347C292.482 284.147 298.049 279.513 299.882 277.347Z" fill="#F6F6E6"/>
<path d="M268.382 285.347L299.882 277.347C298.049 279.513 292.482 284.147 284.882 285.347C277.282 286.547 270.716 285.847 268.382 285.347Z" fill="#BAD8E0"/>
<path d="M307.382 227.847C299.782 215.447 288.882 222.68 284.382 227.847C283.459 228.594 282.076 230.272 280.382 232.603C274.982 248.481 274.343 271.549 301.882 265.652C297.382 265.384 288.182 260.447 287.382 242.847C287.549 239.847 289.282 234.947 294.882 239.347C298.049 241.264 305.982 248.572 312.382 262.472C318.638 260.108 325.924 256.64 334.382 251.847C322.782 254.647 311.549 237.013 307.382 227.847Z" fill="#7BC5E4"/>
<path d="M287.382 242.847C288.182 260.447 297.382 265.384 301.882 265.652C305.008 264.983 308.497 263.94 312.382 262.472C305.982 248.572 298.049 241.264 294.882 239.347C289.282 234.947 287.549 239.847 287.382 242.847Z" fill="#61A7C3"/>
<path d="M345.882 265.347L365.382 239.347C366.549 243.347 367.382 252.947 361.382 259.347C355.382 265.747 348.549 266.013 345.882 265.347Z" fill="#61A7C3"/>
<path d="M367.382 322.347C365.049 326.013 357.682 332.747 346.882 330.347C342.382 329.013 331.782 327.347 325.382 331.347C319.882 335.347 304.882 342.047 288.882 336.847C286.049 335.847 278.382 333.947 270.382 334.347C265.1 335.067 255.908 333.245 250.881 323.347C237.881 326.847 222.382 335.347 264.382 341.347C292.549 344.18 355.182 346.747 380.382 334.347C389.831 330.013 400.944 320.747 369.806 318.347C369.113 319.827 368.31 321.175 367.382 322.347Z" fill="#77CC00"/>
<path d="M908.02 364.462C902.42 362.862 897.687 365.796 896.02 367.462C878.42 385.063 856.687 394.796 848.021 397.462C844.021 398.262 843.02 399.796 843.02 400.462C842.792 402.522 844.515 404.461 846.563 405.962C850.716 401.796 862.921 395.962 878.521 405.962C898.02 418.462 915.521 425.462 910.021 414.462L907.021 408.962C905.187 406.296 903.621 401.762 912.021 404.962C922.521 408.962 925.521 415.962 942.521 403.462C941.021 401.462 935.421 396.162 925.021 390.962C921.687 389.296 917.921 386.162 929.521 386.962C941.121 387.762 953.354 395.962 958.021 399.962C960.561 398.796 965.479 395.762 964.831 392.962C950.439 380.569 926.287 373.179 915.52 370.962C915.457 370.391 915.166 369.544 914.521 368.625C913.721 371.955 905.187 381.238 901.021 385.462C904.221 387.062 907.02 391.129 908.02 392.962C900.854 392.462 885.221 392.262 880.021 395.462C874.821 398.662 869.187 397.462 867.021 396.462C889.821 388.862 905.187 372.436 910.021 365.173C909.416 364.911 908.751 364.671 908.02 364.462Z" fill="#FFB67C"/>
<path d="M984.52 401.962C978.92 397.162 970.52 395.296 967.02 394.962C961.687 404.38 941.021 424.539 901.021 429.838C907.358 431.036 913.788 434.593 916.52 436.462C922.52 440.462 926.687 436.129 928.02 433.462C934.02 435.462 938.187 430.296 939.52 427.462C947.92 427.862 952.02 421.962 953.02 418.962C959.82 419.362 964.187 415.129 965.52 412.962C968.404 412.114 970.889 411.221 973.021 410.322C980.945 406.977 983.995 403.538 984.52 401.962Z" fill="#FFB67C"/>
<path d="M866.02 416.462C877.62 425.662 892.187 428.962 898.02 429.462C899.008 429.517 900.013 429.648 901.021 429.838C941.021 424.539 961.687 404.38 967.02 394.962C966.32 394.282 965.589 393.615 964.831 392.962C965.479 395.762 960.561 398.796 958.021 399.962C953.354 395.962 941.121 387.762 929.521 386.962C917.921 386.162 921.687 389.296 925.021 390.962C935.421 396.162 941.021 401.462 942.521 403.462C925.521 415.962 922.521 408.962 912.021 404.962C903.621 401.762 905.187 406.296 907.021 408.962L910.021 414.462C915.521 425.462 898.02 418.462 878.521 405.962C862.921 395.962 850.716 401.796 846.563 405.962C848.095 407.085 849.808 407.963 851.02 408.462C853.979 409.284 856.701 410.472 859.021 411.713C862.345 413.493 864.842 415.382 866.02 416.462Z" fill="#FE7101"/>
<path d="M910.021 365.173C905.187 372.436 889.821 388.862 867.021 396.462C869.187 397.462 874.821 398.662 880.021 395.462C885.221 392.262 900.854 392.462 908.02 392.962C907.02 391.129 904.221 387.062 901.021 385.462C905.187 381.238 913.721 371.955 914.521 368.625C913.693 367.448 912.282 366.153 910.021 365.173Z" fill="#FF7001"/>
<path d="M965.52 412.962C964.187 415.129 959.82 419.362 953.02 418.962C952.02 421.962 947.92 427.862 939.52 427.462C938.187 430.296 934.02 435.462 928.02 433.462C926.687 436.129 922.52 440.462 916.52 436.462C913.788 434.593 907.358 431.036 901.021 429.838C900.013 429.648 899.008 429.517 898.02 429.462C892.187 428.962 877.62 425.662 866.02 416.462C864.842 415.382 862.345 413.493 859.021 411.713C850.687 415.463 839.021 423.862 859.021 427.462C879.021 431.062 894.687 435.629 900.021 437.462C908.187 440.129 927.721 443.862 940.521 437.462L975.521 422.462C982.854 419.535 992.621 413.009 973.021 410.322C970.889 411.221 968.404 412.114 965.52 412.962Z" fill="#77CC00"/>
<path d="M1111.4 351.794C1109.57 354.294 1107.32 361.064 1110.9 366.794C1112.95 370.064 1118.29 372.266 1125.32 372.445C1127.23 372.494 1129.27 372.307 1131.4 371.794C1134.4 370.628 1141.9 368.994 1147.9 371.794C1149.11 372.018 1150.67 372.201 1152.32 372.24C1156.81 372.347 1162.02 371.39 1162.9 367.294C1163.07 366.128 1161.6 363.494 1154.4 362.294C1152.57 361.794 1148.5 359.994 1146.9 356.794L1142.9 351.794C1142.36 351.062 1141.69 350.293 1140.9 349.536C1132.9 351.329 1125.57 357.455 1122.9 360.294C1119.7 363.894 1120.9 365.461 1121.9 365.794C1126.3 366.594 1128.07 363.794 1128.4 362.294C1129.2 357.894 1133.4 355.461 1135.4 354.794C1136.73 354.461 1139.6 353.994 1140.4 354.794C1141.2 355.594 1139.4 357.128 1138.4 357.794C1137.9 357.961 1136.2 359.394 1133.4 363.794C1130.6 368.194 1126.23 368.961 1124.4 368.794C1117.6 368.394 1112.9 364.294 1111.4 362.294C1115.4 359.894 1126.4 349.378 1131.4 344.42C1125.86 343.28 1116.82 344.064 1111.4 351.794Z" fill="#65C5E7"/>
<path d="M1131.4 344.42C1126.4 349.378 1115.4 359.894 1111.4 362.294C1112.9 364.294 1117.6 368.394 1124.4 368.794C1126.23 368.961 1130.6 368.194 1133.4 363.794C1136.2 359.394 1137.9 357.961 1138.4 357.794C1139.4 357.128 1141.2 355.594 1140.4 354.794C1139.6 353.994 1136.73 354.461 1135.4 354.794C1133.4 355.461 1129.2 357.894 1128.4 362.294C1128.07 363.794 1126.3 366.594 1121.9 365.794C1120.9 365.461 1119.7 363.894 1122.9 360.294C1125.57 357.455 1132.9 351.329 1140.9 349.536C1138.62 347.336 1135.36 345.236 1131.4 344.42Z" fill="#98DDEF"/>
<path d="M1147.9 371.794C1141.9 368.994 1134.4 370.628 1131.4 371.794C1129.27 372.307 1127.23 372.494 1125.32 372.445C1133.32 374.526 1149.92 377.397 1152.32 372.24C1150.67 372.201 1149.11 372.018 1147.9 371.794Z" fill="#77CC00"/>
<path d="M473.484 364.454C468.817 363.454 458.784 363.454 455.984 371.454C454.945 374.422 454.655 377.125 454.944 379.486C455.628 385.08 459.561 388.751 464.484 389.454C466.621 389.759 468.875 390.317 470.984 390.955C470.65 390.288 469.384 388.554 466.984 386.954C465.317 385.787 463.384 383.454 468.984 383.454C474.584 383.454 482.984 391.743 486.484 395.888C489.365 396.106 492.461 395.701 494.984 393.954C495.219 393.651 495.555 393.288 495.984 392.9C486.784 393.257 481.817 386.751 480.484 383.454C480.317 382.621 478.184 380.054 470.984 376.454C463.784 372.854 464.65 371.621 465.984 371.454C471.184 370.254 478.484 374.954 481.484 377.454C497.884 388.654 508.322 381.454 511.49 376.454C510.431 374.928 508.702 373.537 505.984 372.954L497.484 371.454C493.817 370.954 486.484 367.24 473.484 364.454Z" fill="#97DCF0"/>
<path d="M504.984 389.454C507.484 388.621 512.584 385.754 512.984 380.954C512.984 379.839 512.613 378.071 511.49 376.454C508.322 381.454 497.884 388.654 481.484 377.454C478.484 374.954 471.184 370.254 465.984 371.454C464.65 371.621 463.784 372.854 470.984 376.454C478.184 380.054 480.317 382.621 480.484 383.454C481.817 386.751 486.784 393.257 495.984 392.9C497.68 391.366 500.833 389.454 504.984 389.454Z" fill="#5FC5E9"/>
<path d="M470.984 390.955C474.401 391.989 477.438 393.233 478.984 393.954C480.614 394.726 483.428 395.657 486.484 395.888C482.984 391.743 474.584 383.454 468.984 383.454C463.384 383.454 465.317 385.787 466.984 386.954C469.384 388.554 470.65 390.288 470.984 390.955Z" fill="#5FC5E9"/>
<path d="M512.984 380.954C512.584 385.754 507.484 388.621 504.984 389.454C500.833 389.454 497.68 391.366 495.984 392.9C495.555 393.288 495.219 393.651 494.984 393.954C492.461 395.701 489.365 396.106 486.484 395.888C483.428 395.657 480.614 394.726 478.984 393.954C477.438 393.233 474.401 391.989 470.984 390.955C468.875 390.317 466.621 389.759 464.484 389.454C459.561 388.751 455.628 385.08 454.944 379.486C437.028 384.712 445.075 390.606 451.338 392.9C482.938 402.457 512.172 397.585 522.838 393.954C543.122 387.917 524.72 382.772 512.984 380.954Z" fill="#77CC00"/>
<path d="M800.937 81.6622C800.937 71.7767 796.63 64.291 794.476 61.7839C790.169 68.41 782.847 83.3814 788.015 90.2582C794.476 98.8542 800.937 94.0189 800.937 81.6622Z" fill="#F9AE26"/>
<path d="M565.652 229.406C551.869 285.71 583.24 303.01 600.649 304.621C612.524 305.785 626.235 307.074 641.03 308.398C634.03 297.468 621.001 271.634 624.877 255.731C628.754 239.829 632.594 212.214 634.03 200.395L653.951 221.885C653.054 211.498 653.951 186.211 664.72 168.16C675.488 150.108 682.487 143.446 684.641 142.372V172.458C694.871 162.966 715.761 142.157 717.484 134.85C719.207 127.543 718.202 108.167 717.484 99.3914C727.175 108.883 747.527 130.767 751.404 142.372C755.28 153.976 753.019 188.754 751.404 204.693L788.015 176.756C785.862 182.486 782.847 197.923 788.015 213.826C793.184 229.729 794.476 244.449 794.476 249.822C802.732 248.21 819.243 241.87 819.243 229.406C827.319 249.822 813.859 312.583 800.937 319.616C832.321 320.806 855.479 320.493 860.701 317.515C875.776 308.919 878.109 272.744 877.392 255.731L847.779 275.61C850.292 271.133 856.394 259.707 860.701 249.822C867.592 223.174 851.009 179.979 841.857 161.713C839.523 161.713 830.873 167.622 814.936 191.261C820.966 170.201 808.116 131.268 800.937 114.434C797.527 121.24 787.477 138.503 774.555 153.117C779.939 135.387 775.094 98.3169 751.404 61.7839C732.452 32.5574 739.559 8.41693 745.481 0C739.918 3.40259 725.237 14.2909 711.023 30.6233C693.255 51.0388 698.101 83.2739 678.18 109.062C679.041 91.0103 669.565 75.7524 664.72 70.3799C665.976 76.4687 664.504 92.7295 648.567 109.062C632.63 125.394 632.236 150.968 634.03 161.713C628.467 157.415 616.478 143.339 613.032 121.419C569.098 177.723 579.292 226.899 589.881 244.449C586.112 245.524 575.99 244.019 565.652 229.406Z" fill="#FFAF1E"/>
<path fill-rule="evenodd" clip-rule="evenodd" d="M759.533 317.515C767.232 299.965 779.509 258.848 767.018 234.779C754.526 251.541 747.455 260.029 745.481 262.178C746.199 256.448 745.804 241.87 738.482 229.406C729.329 213.826 723.406 202.544 727.175 172.458C705.208 191.799 696.127 218.482 694.332 229.406L684.641 204.693C680.333 215.617 673.011 239.936 678.18 249.822C671.719 249.822 666.514 239.793 664.72 234.779C664.899 243.017 666.012 262.716 669.027 275.61C672.042 288.504 680.692 305.322 684.641 312.12C709.621 314.146 735.512 316.056 759.533 317.515Z" fill="#FFCC14"/>
<path d="M624.877 255.731C621.001 271.634 634.03 297.468 641.03 308.398C654.828 309.632 669.569 310.897 684.641 312.12C680.692 305.322 672.042 288.504 669.027 275.61C666.012 262.716 664.899 243.017 664.72 234.779C666.514 239.793 671.719 249.822 678.18 249.822C673.011 239.936 680.333 215.617 684.641 204.693L694.332 229.406C696.127 218.482 705.208 191.799 727.175 172.458C723.406 202.544 729.329 213.826 738.482 229.406C745.804 241.87 746.199 256.448 745.481 262.178C747.455 260.029 754.526 251.541 767.018 234.779C779.509 258.848 767.232 299.965 759.533 317.515C774.249 318.41 788.264 319.135 800.937 319.616C813.859 312.583 827.319 249.822 819.243 229.406C819.243 241.87 802.732 248.21 794.476 249.822C794.476 244.449 793.184 229.729 788.015 213.826C782.847 197.923 785.862 182.486 788.015 176.756L751.404 204.693C753.019 188.754 755.28 153.976 751.404 142.372C747.527 130.767 727.175 108.883 717.484 99.3914C718.202 108.167 719.207 127.543 717.484 134.85C715.761 142.157 694.871 162.966 684.641 172.458V142.372C682.487 143.446 675.488 150.108 664.72 168.16C653.951 186.211 653.054 211.498 653.951 221.885L634.03 200.395C632.594 212.214 628.754 239.829 624.877 255.731Z" fill="#F67319"/>
<path fill-rule="evenodd" clip-rule="evenodd" d="M565.26 311.507C556.795 309.851 539.424 311.065 537.658 329.172C536.369 342.384 546.178 342.052 557.094 341.683C564.878 341.419 573.223 341.137 578.508 345.733C591.205 356.773 617.151 371.126 655.793 356.221C666.044 351.884 674.605 357.403 680.673 361.313C683.101 362.879 685.13 364.186 686.707 364.502C692.228 365.606 729.766 366.71 738.599 361.742C739.631 361.161 740.761 360.49 741.986 359.762C751.242 354.267 765.892 345.568 784.418 348.493C796.506 350.401 815.927 348.46 833.701 346.684C846.771 345.378 858.951 344.161 866.671 344.628C884.888 345.733 907.521 341.316 901.449 329.171C895.377 317.027 881.024 320.339 876.055 329.171C876.055 310.954 860.598 299.914 837.413 301.57C825.268 282.249 792.698 283.353 765.648 297.154C762.991 277.664 747.894 274.879 738.323 273.113C735.966 272.679 733.944 272.306 732.526 271.76C728.792 270.324 726.851 266.496 724.526 261.909C722.383 257.682 719.914 252.811 715.413 248.575C706.029 239.742 677.875 235.878 656.897 251.887C632.608 248.575 607.766 258.511 597.83 280.593C569.565 282.359 564.34 301.938 565.26 311.507Z" fill="#4B533C"/>
<path d="M655.793 356.221C617.151 371.126 591.205 356.773 578.508 345.733C573.223 341.137 564.878 341.419 557.094 341.683C546.178 342.052 536.369 342.384 537.658 329.172C530.939 332.929 524.7 343.598 553.5 356.221C589.5 372 630 372.5 666 376C702 379.5 711.549 379.5 738.599 387C765.648 394.5 792 364.502 811 364.502C830 364.502 852 367.814 881.5 356.221C911 344.628 921.398 334.752 901.449 329.171C907.521 341.316 884.888 345.733 866.671 344.628C858.951 344.161 846.771 345.378 833.701 346.684C815.927 348.46 796.506 350.401 784.418 348.493C765.892 345.568 751.242 354.267 741.986 359.762C740.761 360.49 739.631 361.161 738.599 361.742C729.766 366.71 692.228 365.606 686.707 364.502C685.13 364.186 683.101 362.879 680.673 361.313C674.605 357.403 666.044 351.884 655.793 356.221Z" fill="#77CC00"/>
<path fill-rule="evenodd" clip-rule="evenodd" d="M762.758 363.948C763.208 360.809 762.266 357.93 760.718 355.115C760.522 350.515 761.674 341.314 767.856 341.314C775.585 341.314 783.865 346.282 783.865 352.355C783.865 352.736 783.868 353.117 783.87 353.496C783.902 359.168 783.933 364.535 776.689 365.052C770.506 365.494 764.825 364.5 762.758 363.948Z" fill="#CC6F1D"/>
<path d="M744.671 348.491C742.904 348.491 739.519 355.458 738.046 358.941C744.339 362.075 744.32 365.956 742.346 368.916C747.749 373.885 757.92 374.437 761.232 368.364C762.07 366.827 762.555 365.361 762.758 363.948C763.208 360.809 762.266 357.93 760.718 355.115C760.21 354.191 759.636 353.273 759.024 352.355C755.712 347.387 746.879 348.491 744.671 348.491Z" fill="#B25401"/>
<path d="M736.943 358.428C724.246 352.907 720.381 362.844 719.829 368.364C719.309 377.738 730.577 374.83 735.564 373.544C735.863 373.466 736.14 373.395 736.391 373.332C738.235 372.871 740.851 371.158 742.346 368.916C744.32 365.956 744.339 362.075 738.046 358.941C737.698 358.767 737.33 358.596 736.943 358.428Z" fill="#CC6F1D"/>
<path d="M658.002 238.084L641.441 263.478L676.219 278.383L693.885 244.156L658.002 238.084Z" fill="#FFB67C"/>
<path fill-rule="evenodd" clip-rule="evenodd" d="M621.568 296.048L587.342 319.785L588.386 320.889L603.903 319.785L617.704 334.69L621.568 346.687L653.034 326.962L621.568 296.048Z" fill="#FBEDB7"/>
<path d="M588.386 320.889L616.048 350.147L621.568 346.687L617.704 334.69L603.903 319.785L588.386 320.889Z" fill="#D9D092"/>
<path fill-rule="evenodd" clip-rule="evenodd" d="M827.477 317.025C823.429 320.889 814.118 329.611 809.26 333.586C807.023 335.417 805.909 337.771 805.396 340.209C809.264 342.97 819.8 348.491 831 348.491C842.2 348.491 845.463 333.034 845.694 325.306C837.303 318.681 830.053 317.025 827.477 317.025Z" fill="#8BD5EA"/>
<path d="M805.396 351.251C805.396 355.115 826.373 360.084 837.966 355.667C847.24 352.134 851.399 349.411 852.319 348.491C853.607 343.523 854.085 331.93 845.694 325.306C845.463 333.034 842.2 348.491 831 348.491C819.8 348.491 809.264 342.97 805.396 340.209C804.515 344.388 805.396 348.811 805.396 351.251Z" fill="#41AEDA"/>
<path fill-rule="evenodd" clip-rule="evenodd" d="M702.165 293.287L695.975 319C700.45 322 710.5 323.097 717 320.5C722.2 318.422 725.5 305.711 726.5 299.615L702.165 293.287Z" fill="#FFB67C"/>
<path d="M722.038 328.618L729.767 300.464L726.5 299.615C725.5 305.711 722.2 318.422 717 320.5C710.5 323.097 700.45 322 695.975 319L694.989 323.097L722.038 328.618Z" fill="#FE7101"/>
</svg>
